<?xml version="1.0" encoding="utf-8"?>
<!-- Generator: Adobe Illustrator 21.1.0, SVG Export Plug-In . SVG Version: 6.00 Build 0)  -->
<svg version="1.1" id="Layer_1" xmlns="http://www.w3.org/2000/svg" xmlns:xlink="http://www.w3.org/1999/xlink" x="0px" y="0px"
	 viewBox="0 0 250.6 57.3" style="enable-background:new 0 0 250.6 57.3;" xml:space="preserve">
<style type="text/css">
	.st0{fill:#FFFFFF;}
</style>
<g>
	<g>
		<path class="st0" d="M78.6,34.3V47h-8.9V9.7h14.7c2.8,0,5.3,0.5,7.5,1.6s3.8,2.5,5,4.5c1.2,1.9,1.8,4.1,1.8,6.6
			c0,3.6-1.3,6.5-3.9,8.7s-6.1,3.3-10.6,3.3H78.6z M78.6,27.4h5.8c1.7,0,3-0.4,3.9-1.3c0.9-0.9,1.4-2.1,1.4-3.7
			c0-1.7-0.5-3.1-1.4-4.2s-2.2-1.6-3.8-1.6h-5.9V27.4z"/>
		<path class="st0" d="M114.6,47.5c-4.2,0-7.6-1.3-10.2-3.8s-3.9-5.8-3.9-9.9v-0.7c0-2.8,0.5-5.3,1.6-7.5c1-2.2,2.5-3.8,4.5-5
			c2-1.2,4.3-1.8,7.1-1.8c3.8,0,6.9,1.2,9.1,3.6c2.2,2.4,3.3,5.8,3.3,10.1v3.4h-16.9c0.3,1.6,1,2.8,2,3.7c1,0.9,2.4,1.3,4,1.3
			c2.7,0,4.8-1,6.3-2.9l3.9,4.7c-1.1,1.5-2.6,2.7-4.5,3.5C118.9,47.1,116.8,47.5,114.6,47.5z M113.6,25.4c-2.5,0-4,1.7-4.4,5h8.6
			v-0.7c0-1.4-0.3-2.5-1-3.2C116,25.8,115,25.4,113.6,25.4z"/>
		<path class="st0" d="M136.1,19.3l0.3,3.3c1.9-2.5,4.5-3.8,7.8-3.8c2.8,0,5,0.9,6.4,2.6c1.4,1.7,2.1,4.3,2.2,7.8V47h-8.5V29.5
			c0-1.4-0.3-2.4-0.8-3.1c-0.6-0.7-1.6-1-3-1c-1.7,0-2.9,0.7-3.7,2V47h-8.5V19.3H136.1z"/>
		<path class="st0" d="M166.1,12.4v6.9h4.5v6h-4.5V38c0,1,0.2,1.8,0.6,2.2c0.4,0.4,1.1,0.6,2.2,0.6c0.8,0,1.5-0.1,2.1-0.2v6.2
			c-1.5,0.5-3.1,0.7-4.8,0.7c-2.9,0-5.1-0.7-6.5-2.1s-2.1-3.5-2.1-6.4V25.3h-3.5v-6h3.5v-6.9H166.1z"/>
		<path class="st0" d="M188,47c-0.3-0.6-0.6-1.4-0.8-2.5c-1.6,2-3.8,3-6.6,3c-2.6,0-4.8-0.8-6.6-2.4c-1.8-1.6-2.7-3.6-2.7-6
			c0-3,1.1-5.3,3.3-6.8s5.4-2.3,9.6-2.3h2.6v-1.5c0-2.6-1.1-3.8-3.3-3.8c-2,0-3,1-3,3H172c0-2.7,1.1-4.9,3.4-6.5
			c2.2-1.7,5.1-2.5,8.6-2.5c3.5,0,6.2,0.9,8.3,2.6c2,1.7,3.1,4.1,3.1,7.1v12.3c0,2.5,0.4,4.5,1.2,5.8V47H188z M182.7,41.4
			c1.1,0,1.9-0.2,2.6-0.7c0.7-0.5,1.2-1,1.5-1.6v-4.4h-2.5c-3,0-4.4,1.3-4.4,4c0,0.8,0.3,1.4,0.8,1.9
			C181.2,41.1,181.9,41.4,182.7,41.4z"/>
		<path class="st0" d="M206.6,19.3l0.3,3.3c1.9-2.5,4.5-3.8,7.8-3.8c2.8,0,5,0.9,6.4,2.6c1.4,1.7,2.1,4.3,2.2,7.8V47h-8.5V29.5
			c0-1.4-0.3-2.4-0.8-3.1c-0.6-0.7-1.6-1-3-1c-1.7,0-2.9,0.7-3.7,2V47h-8.5V19.3H206.6z"/>
		<path class="st0" d="M242.1,47c-0.3-0.6-0.6-1.4-0.8-2.5c-1.6,2-3.8,3-6.6,3c-2.6,0-4.8-0.8-6.6-2.4c-1.8-1.6-2.7-3.6-2.7-6
			c0-3,1.1-5.3,3.3-6.8s5.4-2.3,9.6-2.3h2.6v-1.5c0-2.6-1.1-3.8-3.3-3.8c-2,0-3,1-3,3h-8.5c0-2.7,1.1-4.9,3.4-6.5
			c2.2-1.7,5.1-2.5,8.6-2.5c3.5,0,6.2,0.9,8.3,2.6c2,1.7,3.1,4.1,3.1,7.1v12.3c0,2.5,0.4,4.5,1.2,5.8V47H242.1z M236.8,41.4
			c1.1,0,1.9-0.2,2.6-0.7c0.7-0.5,1.2-1,1.5-1.6v-4.4h-2.5c-3,0-4.4,1.3-4.4,4c0,0.8,0.3,1.4,0.8,1.9
			C235.3,41.1,236,41.4,236.8,41.4z"/>
	</g>
	<path class="st0" d="M28.3,0C12.7,0,0,12.8,0,28.6c0,15.8,12.7,28.6,28.3,28.6c15.6,0,28.3-12.8,28.3-28.6C56.5,12.8,43.9,0,28.3,0
		z M27.7,8.3L31.8,21H10.4L27.7,8.3z M8.8,23H22l-6.6,20.6L8.8,23z M16.7,45.7L20.8,33l17.3,12.8H16.7z M40.5,45.2l-10.7-7.9
		l17.3-12.8L40.5,45.2z M36.6,29.9L30,9.2L47.3,22L36.6,29.9z"/>
</g>
</svg>
