<?xml version="1.0" encoding="utf-8"?>
<!-- Generator: Adobe Illustrator 21.1.0, SVG Export Plug-In . SVG Version: 6.00 Build 0)  -->
<svg version="1.1" id="Layer_1" xmlns="http://www.w3.org/2000/svg" xmlns:xlink="http://www.w3.org/1999/xlink" x="0px" y="0px"
	 viewBox="0 0 169.3 26" style="enable-background:new 0 0 169.3 26;" xml:space="preserve">
<style type="text/css">
	.st0{fill:#FFFFFF;}
</style>
<g>
	<g>
		<path class="st0" d="M35.7,15.6v5.7h-4V4.4h6.7c1.3,0,2.4,0.2,3.4,0.7c1,0.5,1.7,1.2,2.3,2c0.5,0.9,0.8,1.9,0.8,3
			c0,1.7-0.6,3-1.7,4s-2.8,1.5-4.8,1.5H35.7z M35.7,12.4h2.6c0.8,0,1.4-0.2,1.8-0.6c0.4-0.4,0.6-1,0.6-1.7c0-0.8-0.2-1.4-0.6-1.9
			c-0.4-0.5-1-0.7-1.7-0.7h-2.7V12.4z"/>
		<path class="st0" d="M52,21.6c-1.9,0-3.4-0.6-4.6-1.7c-1.2-1.2-1.8-2.6-1.8-4.5V15c0-1.3,0.2-2.4,0.7-3.4c0.5-1,1.2-1.7,2.1-2.3
			c0.9-0.5,2-0.8,3.2-0.8c1.7,0,3.1,0.5,4.1,1.6c1,1.1,1.5,2.6,1.5,4.6v1.5h-7.7c0.1,0.7,0.4,1.3,0.9,1.7c0.5,0.4,1.1,0.6,1.8,0.6
			c1.2,0,2.2-0.4,2.9-1.3l1.8,2.1c-0.5,0.7-1.2,1.2-2,1.6C54,21.4,53,21.6,52,21.6z M51.6,11.5c-1.1,0-1.8,0.8-2,2.3h3.9v-0.3
			c0-0.6-0.1-1.1-0.5-1.5C52.7,11.7,52.2,11.5,51.6,11.5z"/>
		<path class="st0" d="M61.8,8.8l0.1,1.5c0.9-1.1,2-1.7,3.5-1.7c1.3,0,2.3,0.4,2.9,1.2c0.6,0.8,1,2,1,3.5v8.1h-3.9v-7.9
			c0-0.6-0.1-1.1-0.4-1.4c-0.3-0.3-0.7-0.4-1.4-0.4c-0.8,0-1.3,0.3-1.7,0.9v8.9h-3.9V8.8H61.8z"/>
		<path class="st0" d="M75.4,5.6v3.1h2v2.7h-2v5.8c0,0.5,0.1,0.8,0.3,1c0.2,0.2,0.5,0.3,1,0.3c0.4,0,0.7,0,1-0.1v2.8
			c-0.7,0.2-1.4,0.3-2.2,0.3c-1.3,0-2.3-0.3-2.9-1c-0.6-0.6-1-1.6-1-2.9v-6.2h-1.6V8.8h1.6V5.6H75.4z"/>
		<path class="st0" d="M85.3,21.3c-0.1-0.3-0.3-0.6-0.4-1.1c-0.7,0.9-1.7,1.4-3,1.4c-1.2,0-2.2-0.4-3-1.1c-0.8-0.7-1.2-1.6-1.2-2.7
			c0-1.4,0.5-2.4,1.5-3.1c1-0.7,2.4-1,4.3-1h1.2V13c0-1.2-0.5-1.7-1.5-1.7c-0.9,0-1.4,0.5-1.4,1.4h-3.9c0-1.2,0.5-2.2,1.5-3
			c1-0.8,2.3-1.1,3.9-1.1c1.6,0,2.8,0.4,3.8,1.2s1.4,1.9,1.4,3.2v5.6c0,1.2,0.2,2,0.5,2.7v0.2H85.3z M82.9,18.8
			c0.5,0,0.9-0.1,1.2-0.3s0.5-0.4,0.7-0.7v-2h-1.1c-1.3,0-2,0.6-2,1.8c0,0.4,0.1,0.6,0.4,0.9C82.3,18.7,82.6,18.8,82.9,18.8z"/>
		<path class="st0" d="M93.8,8.8l0.1,1.5c0.9-1.1,2-1.7,3.5-1.7c1.3,0,2.3,0.4,2.9,1.2c0.6,0.8,1,2,1,3.5v8.1h-3.9v-7.9
			c0-0.6-0.1-1.1-0.4-1.4c-0.3-0.3-0.7-0.4-1.4-0.4c-0.8,0-1.3,0.3-1.7,0.9v8.9h-3.9V8.8H93.8z"/>
		<path class="st0" d="M109.9,21.3c-0.1-0.3-0.3-0.6-0.4-1.1c-0.7,0.9-1.7,1.4-3,1.4c-1.2,0-2.2-0.4-3-1.1c-0.8-0.7-1.2-1.6-1.2-2.7
			c0-1.4,0.5-2.4,1.5-3.1c1-0.7,2.4-1,4.3-1h1.2V13c0-1.2-0.5-1.7-1.5-1.7c-0.9,0-1.4,0.5-1.4,1.4h-3.9c0-1.2,0.5-2.2,1.5-3
			c1-0.8,2.3-1.1,3.9-1.1c1.6,0,2.8,0.4,3.8,1.2s1.4,1.9,1.4,3.2v5.6c0,1.2,0.2,2,0.5,2.7v0.2H109.9z M107.5,18.8
			c0.5,0,0.9-0.1,1.2-0.3c0.3-0.2,0.5-0.4,0.7-0.7v-2h-1.1c-1.3,0-2,0.6-2,1.8c0,0.4,0.1,0.6,0.4,0.9
			C106.8,18.7,107.1,18.8,107.5,18.8z"/>
		<path class="st0" d="M130.1,16.6h-7.6l-1.7,4.7h-1.5l6.3-16.8h1.3l6.3,16.8h-1.5L130.1,16.6z M123,15.4h6.7l-3.4-9.1L123,15.4z"/>
		<path class="st0" d="M142.8,19.8c-0.8,1.2-2.2,1.8-4,1.8c-1.3,0-2.3-0.4-3-1.2c-0.7-0.8-1-1.9-1.1-3.4V8.9h1.4v7.9
			c0,2.4,1,3.6,2.9,3.6c2,0,3.3-0.8,3.8-2.5v-9h1.4v12.5h-1.3L142.8,19.8z"/>
		<path class="st0" d="M146.6,15c0-1.9,0.4-3.5,1.3-4.6c0.9-1.1,2-1.7,3.5-1.7c1.7,0,3,0.7,3.8,2v-7h1.4v17.7h-1.3l-0.1-1.7
			c-0.9,1.3-2.2,1.9-3.9,1.9c-1.4,0-2.6-0.6-3.5-1.7c-0.9-1.2-1.3-2.7-1.3-4.7V15z M148,15.2c0,1.6,0.3,2.8,1,3.8
			c0.6,0.9,1.5,1.4,2.7,1.4c1.7,0,2.9-0.7,3.6-2.2v-5.8c-0.7-1.6-1.9-2.4-3.6-2.4c-1.2,0-2.1,0.5-2.7,1.4
			C148.3,12.1,148,13.5,148,15.2z"/>
		<path class="st0" d="M159.6,5.3c0-0.3,0.1-0.5,0.3-0.7c0.2-0.2,0.4-0.3,0.7-0.3s0.5,0.1,0.7,0.3c0.2,0.2,0.3,0.4,0.3,0.7
			s-0.1,0.5-0.3,0.7c-0.2,0.2-0.4,0.3-0.7,0.3s-0.5-0.1-0.7-0.3C159.6,5.8,159.6,5.5,159.6,5.3z M161.2,21.3h-1.4V8.9h1.4V21.3z"/>
		<path class="st0" d="M166.5,5.7v3.2h2.6V10h-2.6v8.3c0,0.7,0.1,1.2,0.4,1.5s0.7,0.5,1.2,0.5c0.2,0,0.6,0,1.1-0.1l0.1,1.1
			c-0.4,0.1-0.9,0.2-1.5,0.2c-0.9,0-1.6-0.3-2.1-0.8c-0.4-0.5-0.6-1.4-0.6-2.4V10h-2.3V8.9h2.3V5.7H166.5z"/>
	</g>
	<path class="st0" d="M12.8,0C5.7,0,0,5.8,0,13c0,7.2,5.7,13,12.8,13c7.1,0,12.8-5.8,12.8-13C25.7,5.8,19.9,0,12.8,0z M12.6,3.8
		l1.9,5.8H4.7L12.6,3.8z M4,10.4h6l-3,9.4L4,10.4z M7.6,20.8L9.4,15l7.9,5.8H7.6z M18.4,20.5l-4.9-3.6l7.9-5.8L18.4,20.5z
		 M16.6,13.6l-3-9.4l7.9,5.8L16.6,13.6z"/>
</g>
</svg>
