<?xml version="1.0" encoding="utf-8"?>
<!-- Generator: Adobe Illustrator 21.1.0, SVG Export Plug-In . SVG Version: 6.00 Build 0)  -->
<svg version="1.1" id="Layer_1" xmlns="http://www.w3.org/2000/svg" xmlns:xlink="http://www.w3.org/1999/xlink" x="0px" y="0px"
	 viewBox="0 0 201 26" style="enable-background:new 0 0 201 26;" xml:space="preserve">
<style type="text/css">
	.st0{fill:#FFFFFF;}
</style>
<g>
	<path class="st0" d="M12.8,0C5.7,0,0,5.8,0,13c0,7.2,5.7,13,12.8,13c7.1,0,12.8-5.8,12.8-13C25.6,5.8,19.9,0,12.8,0z M12.6,3.8
		l1.9,5.8H4.7L12.6,3.8z M4,10.4h6l-3,9.4L4,10.4z M7.6,20.8L9.4,15l7.9,5.8H7.6z M18.4,20.5l-4.9-3.6l7.9-5.8L18.4,20.5z
		 M16.6,13.6l-3-9.4l7.9,5.8L16.6,13.6z"/>
	<g>
		<path class="st0" d="M35.6,15.6v5.7h-4V4.4h6.7c1.3,0,2.4,0.2,3.4,0.7c1,0.5,1.7,1.2,2.3,2c0.5,0.9,0.8,1.9,0.8,3
			c0,1.7-0.6,3-1.7,4c-1.2,1-2.8,1.5-4.8,1.5H35.6z M35.6,12.4h2.6c0.8,0,1.4-0.2,1.8-0.6c0.4-0.4,0.6-1,0.6-1.7
			c0-0.8-0.2-1.4-0.6-1.9c-0.4-0.5-1-0.7-1.7-0.7h-2.7V12.4z"/>
		<path class="st0" d="M52.1,21.6c-1.9,0-3.4-0.6-4.6-1.7c-1.2-1.2-1.8-2.6-1.8-4.5V15c0-1.3,0.2-2.4,0.7-3.4c0.5-1,1.2-1.7,2.1-2.3
			c0.9-0.5,2-0.8,3.2-0.8c1.7,0,3.1,0.5,4.1,1.6c1,1.1,1.5,2.6,1.5,4.6v1.5h-7.7c0.1,0.7,0.4,1.3,0.9,1.7c0.5,0.4,1.1,0.6,1.8,0.6
			c1.2,0,2.2-0.4,2.9-1.3l1.8,2.1c-0.5,0.7-1.2,1.2-2,1.6S53.1,21.6,52.1,21.6z M51.7,11.5c-1.1,0-1.8,0.8-2,2.3h3.9v-0.3
			c0-0.6-0.1-1.1-0.5-1.5C52.8,11.7,52.3,11.5,51.7,11.5z"/>
		<path class="st0" d="M61.8,8.8l0.1,1.5c0.9-1.1,2-1.7,3.5-1.7c1.3,0,2.3,0.4,2.9,1.2c0.6,0.8,1,2,1,3.5v8.1h-3.9v-7.9
			c0-0.6-0.1-1.1-0.4-1.4c-0.3-0.3-0.7-0.4-1.4-0.4c-0.8,0-1.3,0.3-1.7,0.9v8.9h-3.9V8.8H61.8z"/>
		<path class="st0" d="M75.4,5.6v3.1h2v2.7h-2v5.8c0,0.5,0.1,0.8,0.3,1c0.2,0.2,0.5,0.3,1,0.3c0.4,0,0.7,0,1-0.1v2.8
			c-0.7,0.2-1.4,0.3-2.2,0.3c-1.3,0-2.3-0.3-2.9-1c-0.6-0.6-1-1.6-1-2.9v-6.2H70V8.8h1.6V5.6H75.4z"/>
		<path class="st0" d="M85.4,21.3c-0.1-0.3-0.3-0.6-0.4-1.1c-0.7,0.9-1.7,1.4-3,1.4c-1.2,0-2.2-0.4-3-1.1c-0.8-0.7-1.2-1.6-1.2-2.7
			c0-1.4,0.5-2.4,1.5-3.1c1-0.7,2.4-1,4.3-1h1.2V13c0-1.2-0.5-1.7-1.5-1.7c-0.9,0-1.4,0.5-1.4,1.4h-3.9c0-1.2,0.5-2.2,1.5-3
			c1-0.8,2.3-1.1,3.9-1.1s2.8,0.4,3.7,1.2c0.9,0.8,1.4,1.9,1.4,3.2v5.6c0,1.2,0.2,2,0.5,2.7v0.2H85.4z M83,18.8
			c0.5,0,0.9-0.1,1.2-0.3c0.3-0.2,0.5-0.4,0.7-0.7v-2h-1.1c-1.3,0-2,0.6-2,1.8c0,0.4,0.1,0.6,0.4,0.9C82.3,18.7,82.6,18.8,83,18.8z"
			/>
		<path class="st0" d="M93.8,8.8l0.1,1.5c0.9-1.1,2-1.7,3.5-1.7c1.3,0,2.3,0.4,2.9,1.2c0.6,0.8,1,2,1,3.5v8.1h-3.9v-7.9
			c0-0.6-0.1-1.1-0.4-1.4c-0.3-0.3-0.7-0.4-1.4-0.4c-0.8,0-1.3,0.3-1.7,0.9v8.9h-3.9V8.8H93.8z"/>
		<path class="st0" d="M109.9,21.3c-0.1-0.3-0.3-0.6-0.4-1.1c-0.7,0.9-1.7,1.4-3,1.4c-1.2,0-2.2-0.4-3-1.1c-0.8-0.7-1.2-1.6-1.2-2.7
			c0-1.4,0.5-2.4,1.5-3.1c1-0.7,2.4-1,4.3-1h1.2V13c0-1.2-0.5-1.7-1.5-1.7c-0.9,0-1.4,0.5-1.4,1.4h-3.9c0-1.2,0.5-2.2,1.5-3
			c1-0.8,2.3-1.1,3.9-1.1c1.6,0,2.8,0.4,3.7,1.2c0.9,0.8,1.4,1.9,1.4,3.2v5.6c0,1.2,0.2,2,0.5,2.7v0.2H109.9z M107.5,18.8
			c0.5,0,0.9-0.1,1.2-0.3c0.3-0.2,0.5-0.4,0.7-0.7v-2h-1.1c-1.3,0-2,0.6-2,1.8c0,0.4,0.1,0.6,0.4,0.9
			C106.8,18.7,107.1,18.8,107.5,18.8z"/>
		<path class="st0" d="M121.1,21.3V4.4h4.7c1.4,0,2.6,0.3,3.7,0.9c1.1,0.6,1.9,1.5,2.5,2.7c0.6,1.2,0.9,2.5,0.9,4v1.6
			c0,1.5-0.3,2.9-0.9,4c-0.6,1.2-1.5,2.1-2.6,2.7c-1.1,0.6-2.4,1-3.8,1H121.1z M122.5,5.6v14.5h3.2c1.8,0,3.2-0.6,4.2-1.8
			s1.6-2.8,1.6-4.8v-1.5c0-1.9-0.5-3.5-1.6-4.7c-1-1.2-2.4-1.8-4.1-1.8H122.5z"/>
		<path class="st0" d="M135.5,5.1c0-0.3,0.1-0.5,0.3-0.7c0.2-0.2,0.4-0.3,0.7-0.3c0.3,0,0.5,0.1,0.7,0.3c0.2,0.2,0.3,0.4,0.3,0.7
			c0,0.3-0.1,0.5-0.3,0.7C136.9,6,136.7,6,136.4,6c-0.3,0-0.5-0.1-0.7-0.3C135.6,5.6,135.5,5.4,135.5,5.1z M137.1,21.3h-1.4V8.8h1.4
			V21.3z"/>
		<path class="st0" d="M147.6,18.1c0-0.7-0.3-1.2-0.8-1.7c-0.5-0.4-1.4-0.7-2.5-1c-1.1-0.2-2-0.5-2.6-0.8c-0.6-0.3-1.1-0.7-1.4-1.1
			c-0.3-0.4-0.4-1-0.4-1.6c0-1,0.4-1.8,1.2-2.5c0.8-0.6,1.9-1,3.1-1c1.4,0,2.5,0.3,3.3,1c0.8,0.7,1.3,1.6,1.3,2.7h-1.4
			c0-0.7-0.3-1.3-0.9-1.8c-0.6-0.5-1.4-0.7-2.3-0.7c-0.9,0-1.6,0.2-2.2,0.6c-0.5,0.4-0.8,0.9-0.8,1.6c0,0.6,0.2,1.1,0.7,1.5
			c0.5,0.3,1.3,0.7,2.5,0.9c1.2,0.3,2.1,0.6,2.7,0.9c0.6,0.3,1,0.7,1.3,1.2c0.3,0.5,0.4,1,0.4,1.7c0,1.1-0.4,1.9-1.3,2.5
			c-0.8,0.6-1.9,1-3.3,1c-1.4,0-2.6-0.4-3.5-1.1c-0.9-0.7-1.3-1.6-1.3-2.7h1.4c0.1,0.8,0.4,1.4,1,1.9c0.6,0.5,1.4,0.7,2.5,0.7
			c1,0,1.7-0.2,2.3-0.6S147.6,18.8,147.6,18.1z"/>
		<path class="st0" d="M156.1,20.4c1,0,1.8-0.3,2.4-0.8c0.6-0.5,1-1.3,1-2.1h1.3c0,0.8-0.3,1.5-0.7,2.1c-0.4,0.6-1,1.1-1.7,1.5
			s-1.5,0.5-2.3,0.5c-1.6,0-2.9-0.6-3.9-1.7c-1-1.1-1.4-2.7-1.4-4.6v-0.4c0-1.2,0.2-2.3,0.6-3.3c0.4-1,1-1.7,1.8-2.2
			c0.8-0.5,1.7-0.8,2.8-0.8c1.4,0,2.5,0.4,3.4,1.2c0.9,0.8,1.4,1.9,1.4,3.2h-1.3c-0.1-1-0.4-1.8-1-2.4c-0.6-0.6-1.4-0.9-2.4-0.9
			c-1.2,0-2.2,0.5-2.9,1.4c-0.7,0.9-1,2.2-1,3.8v0.4c0,1.6,0.3,2.9,1,3.8C153.9,19.9,154.9,20.4,156.1,20.4z"/>
		<path class="st0" d="M164.6,21.3h-1.4V3.5h1.4V21.3z"/>
		<path class="st0" d="M166.9,14.9c0-1.2,0.2-2.3,0.7-3.3c0.5-1,1.1-1.7,2-2.3c0.8-0.5,1.8-0.8,2.9-0.8c1.7,0,3,0.6,4,1.8
			c1,1.2,1.5,2.7,1.5,4.7v0.3c0,1.2-0.2,2.3-0.7,3.3s-1.1,1.7-2,2.2s-1.8,0.8-2.9,0.8c-1.6,0-3-0.6-4-1.8c-1-1.2-1.5-2.7-1.5-4.7
			V14.9z M168.3,15.2c0,1.5,0.4,2.7,1.2,3.7c0.8,1,1.8,1.4,3,1.4c1.2,0,2.2-0.5,3-1.4c0.8-1,1.2-2.2,1.2-3.8v-0.3
			c0-1-0.2-1.8-0.5-2.6c-0.4-0.8-0.8-1.4-1.5-1.9c-0.6-0.4-1.4-0.7-2.2-0.7c-1.2,0-2.2,0.5-3,1.5c-0.8,1-1.2,2.2-1.2,3.8V15.2z"/>
		<path class="st0" d="M187.7,18.1c0-0.7-0.3-1.2-0.8-1.7c-0.5-0.4-1.4-0.7-2.5-1c-1.1-0.2-2-0.5-2.6-0.8c-0.6-0.3-1.1-0.7-1.4-1.1
			c-0.3-0.4-0.4-1-0.4-1.6c0-1,0.4-1.8,1.2-2.5c0.8-0.6,1.9-1,3.1-1c1.4,0,2.5,0.3,3.3,1c0.8,0.7,1.3,1.6,1.3,2.7h-1.4
			c0-0.7-0.3-1.3-0.9-1.8c-0.6-0.5-1.4-0.7-2.3-0.7c-0.9,0-1.6,0.2-2.2,0.6c-0.5,0.4-0.8,0.9-0.8,1.6c0,0.6,0.2,1.1,0.7,1.5
			c0.5,0.3,1.3,0.7,2.5,0.9c1.2,0.3,2.1,0.6,2.7,0.9c0.6,0.3,1,0.7,1.3,1.2c0.3,0.5,0.4,1,0.4,1.7c0,1.1-0.4,1.9-1.3,2.5
			c-0.8,0.6-1.9,1-3.3,1c-1.4,0-2.6-0.4-3.5-1.1c-0.9-0.7-1.3-1.6-1.3-2.7h1.4c0.1,0.8,0.4,1.4,1,1.9c0.6,0.5,1.4,0.7,2.5,0.7
			c1,0,1.7-0.2,2.3-0.6C187.4,19.3,187.7,18.8,187.7,18.1z"/>
		<path class="st0" d="M196.3,21.6c-1.1,0-2-0.3-2.9-0.8c-0.9-0.5-1.5-1.3-2-2.2c-0.5-0.9-0.7-2-0.7-3.2v-0.5c0-1.2,0.2-2.3,0.7-3.3
			c0.5-1,1.1-1.7,1.9-2.3c0.8-0.6,1.7-0.8,2.7-0.8c1.5,0,2.7,0.5,3.6,1.6c0.9,1,1.3,2.5,1.3,4.3v0.8h-8.8v0.3c0,1.4,0.4,2.6,1.2,3.6
			c0.8,0.9,1.8,1.4,3,1.4c0.7,0,1.4-0.1,1.9-0.4c0.6-0.3,1.1-0.7,1.5-1.3l0.9,0.7C199.7,20.8,198.3,21.6,196.3,21.6z M196.1,9.7
			c-1,0-1.9,0.4-2.6,1.2c-0.7,0.8-1.1,1.8-1.3,3.1h7.4v-0.2c0-1.2-0.4-2.2-1-3S197.1,9.7,196.1,9.7z"/>
	</g>
	<path class="st0" d="M12.8,0C5.7,0,0,5.8,0,13c0,7.2,5.7,13,12.8,13c7.1,0,12.8-5.8,12.8-13C25.6,5.8,19.9,0,12.8,0z M12.6,3.8
		l1.9,5.8H4.7L12.6,3.8z M4,10.4h6l-3,9.4L4,10.4z M7.6,20.8L9.4,15l7.9,5.8H7.6z M18.4,20.5l-4.9-3.6l7.9-5.8L18.4,20.5z
		 M16.6,13.6l-3-9.4l7.9,5.8L16.6,13.6z"/>
</g>
</svg>
