<?xml version="1.0" encoding="utf-8"?>
<!-- Generator: Adobe Illustrator 21.1.0, SVG Export Plug-In . SVG Version: 6.00 Build 0)  -->
<svg version="1.1" id="Layer_1" xmlns="http://www.w3.org/2000/svg" xmlns:xlink="http://www.w3.org/1999/xlink" x="0px" y="0px"
	 viewBox="0 0 175 26" style="enable-background:new 0 0 175 26;" xml:space="preserve">
<style type="text/css">
	.st0{fill:#FFFFFF;}
</style>
<g>
	<path class="st0" d="M13,0C5.8,0,0,5.8,0,13s5.8,13,13,13s13-5.8,13-13S20.2,0,13,0z M4.4,8.1l5.4-0.4l-5.5,5.7L4.4,8.1z
		 M20.4,17.7c-1.3,1.3-2.9,2-4.7,2c-1.8,0-3.4-0.7-4.7-2c-0.4-0.4-0.6-0.9-0.6-1.5c0-0.6,0.2-1.1,0.7-1.5c0.4-0.4,0.9-0.7,1.5-0.7
		c0.6,0,1.1,0.2,1.5,0.6c0.5,0.5,1.1,0.7,1.7,0.7c0.7,0,1.3-0.2,1.7-0.7c0.5-0.5,0.7-1.1,0.7-1.7c0-0.7-0.2-1.2-0.7-1.7
		c-0.5-0.5-1-0.7-1.7-0.7c-0.7,0-1.2,0.2-1.7,0.7L7.3,18c-0.4,0.4-0.9,0.6-1.5,0.6c-0.6,0-1.1-0.2-1.5-0.7c-0.4-0.4-0.6-0.9-0.6-1.5
		s0.2-1.1,0.7-1.5L11,8.3c1.3-1.3,2.9-2,4.7-2c1.8,0,3.4,0.7,4.7,2c1.3,1.3,2,2.9,2,4.7C22.4,14.8,21.7,16.4,20.4,17.7z"/>
	<g>
		<g>
			<path class="st0" d="M36.1,15.9v5.8H32v-17h6.8c1.3,0,2.5,0.2,3.5,0.7c1,0.5,1.8,1.2,2.3,2c0.5,0.9,0.8,1.9,0.8,3
				c0,1.7-0.6,3-1.8,4c-1.2,1-2.8,1.5-4.9,1.5H36.1z M36.1,12.8h2.7c0.8,0,1.4-0.2,1.8-0.6c0.4-0.4,0.6-1,0.6-1.7
				c0-0.8-0.2-1.4-0.6-1.9c-0.4-0.5-1-0.7-1.8-0.7h-2.7V12.8z"/>
			<path class="st0" d="M51,21.7h-4v-18h4V21.7z"/>
			<path class="st0" d="M58.9,21.9c-1.9,0-3.5-0.6-4.7-1.7c-1.2-1.2-1.8-2.7-1.8-4.5v-0.3c0-1.3,0.2-2.4,0.7-3.4
				c0.5-1,1.2-1.8,2.1-2.3c0.9-0.5,2-0.8,3.3-0.8c1.8,0,3.2,0.6,4.2,1.7s1.5,2.6,1.5,4.6v1.5h-7.8c0.1,0.7,0.4,1.3,0.9,1.7
				c0.5,0.4,1.1,0.6,1.8,0.6c1.2,0,2.2-0.4,2.9-1.3l1.8,2.1c-0.5,0.7-1.2,1.2-2.1,1.6C60.9,21.7,60,21.9,58.9,21.9z M58.5,11.9
				c-1.2,0-1.8,0.8-2.1,2.3h4v-0.3c0-0.6-0.1-1.1-0.5-1.5C59.6,12,59.1,11.9,58.5,11.9z"/>
			<path class="st0" d="M72.4,21.7c-0.1-0.3-0.3-0.6-0.4-1.1c-0.7,0.9-1.7,1.4-3,1.4c-1.2,0-2.2-0.4-3-1.1c-0.8-0.7-1.3-1.6-1.3-2.7
				c0-1.4,0.5-2.4,1.5-3.1s2.5-1.1,4.4-1.1h1.2v-0.7c0-1.2-0.5-1.8-1.5-1.8c-0.9,0-1.4,0.5-1.4,1.4H65c0-1.2,0.5-2.2,1.6-3
				s2.4-1.1,4-1.1c1.6,0,2.9,0.4,3.8,1.2c0.9,0.8,1.4,1.9,1.4,3.2v5.6c0,1.2,0.2,2,0.5,2.7v0.2H72.4z M69.9,19.1
				c0.5,0,0.9-0.1,1.2-0.3c0.3-0.2,0.6-0.4,0.7-0.7v-2h-1.1c-1.4,0-2.1,0.6-2.1,1.8c0,0.4,0.1,0.6,0.4,0.9
				C69.2,19,69.5,19.1,69.9,19.1z"/>
			<path class="st0" d="M84,18.2c0-0.3-0.2-0.6-0.5-0.8c-0.4-0.2-1-0.4-2-0.6c-1-0.2-1.8-0.5-2.4-0.9c-0.6-0.4-1.1-0.8-1.5-1.3
				c-0.3-0.5-0.5-1.1-0.5-1.7c0-1.2,0.5-2.1,1.4-2.9s2.2-1.1,3.8-1.1c1.7,0,3,0.4,4,1.1c1,0.8,1.5,1.7,1.5,3h-4c0-1-0.5-1.5-1.6-1.5
				c-0.4,0-0.8,0.1-1,0.3s-0.4,0.5-0.4,0.9c0,0.4,0.2,0.6,0.5,0.9c0.3,0.2,0.9,0.4,1.6,0.5c0.8,0.1,1.4,0.3,2,0.5
				c1.9,0.7,2.9,1.8,2.9,3.5c0,1.2-0.5,2.1-1.5,2.8c-1,0.7-2.4,1.1-4,1.1c-1.1,0-2.1-0.2-2.9-0.6c-0.8-0.4-1.5-0.9-2-1.6
				c-0.5-0.7-0.7-1.4-0.7-2.1h3.7c0,0.6,0.2,1,0.6,1.3c0.4,0.3,0.9,0.4,1.4,0.4c0.5,0,0.9-0.1,1.2-0.3C83.9,18.8,84,18.5,84,18.2z"
				/>
			<path class="st0" d="M95.2,21.9c-1.9,0-3.5-0.6-4.7-1.7c-1.2-1.2-1.8-2.7-1.8-4.5v-0.3c0-1.3,0.2-2.4,0.7-3.4
				c0.5-1,1.2-1.8,2.1-2.3c0.9-0.5,2-0.8,3.3-0.8c1.8,0,3.2,0.6,4.2,1.7c1,1.1,1.5,2.6,1.5,4.6v1.5h-7.8c0.1,0.7,0.4,1.3,0.9,1.7
				c0.5,0.4,1.1,0.6,1.8,0.6c1.2,0,2.2-0.4,2.9-1.3l1.8,2.1c-0.5,0.7-1.2,1.2-2.1,1.6C97.2,21.7,96.2,21.9,95.2,21.9z M94.7,11.9
				c-1.2,0-1.8,0.8-2.1,2.3h4v-0.3c0-0.6-0.1-1.1-0.5-1.5C95.8,12,95.3,11.9,94.7,11.9z"/>
			<path class="st0" d="M108,15.7h-2.2v6h-4.1v-17h6.7c2,0,3.6,0.4,4.7,1.3c1.1,0.9,1.7,2.2,1.7,3.8c0,1.2-0.2,2.2-0.7,2.9
				c-0.5,0.8-1.2,1.4-2.3,1.9l3.6,6.9v0.2H111L108,15.7z M105.8,12.5h2.6c0.8,0,1.4-0.2,1.8-0.6c0.4-0.4,0.6-1,0.6-1.7
				c0-0.7-0.2-1.3-0.6-1.7c-0.4-0.4-1-0.6-1.8-0.6h-2.6V12.5z"/>
			<path class="st0" d="M122.6,21.9c-1.9,0-3.5-0.6-4.7-1.7c-1.2-1.2-1.8-2.7-1.8-4.5v-0.3c0-1.3,0.2-2.4,0.7-3.4
				c0.5-1,1.2-1.8,2.1-2.3c0.9-0.5,2-0.8,3.3-0.8c1.8,0,3.2,0.6,4.2,1.7s1.5,2.6,1.5,4.6v1.5h-7.8c0.1,0.7,0.4,1.3,0.9,1.7
				c0.5,0.4,1.1,0.6,1.8,0.6c1.2,0,2.2-0.4,2.9-1.3l1.8,2.1c-0.5,0.7-1.2,1.2-2.1,1.6C124.6,21.7,123.7,21.9,122.6,21.9z
				 M122.2,11.9c-1.2,0-1.8,0.8-2.1,2.3h4v-0.3c0-0.6-0.1-1.1-0.5-1.5C123.3,12,122.8,11.9,122.2,11.9z"/>
			<path class="st0" d="M133.9,17l2-8h4.2l-4.1,12.6h-4l-4.1-12.6h4.2L133.9,17z"/>
			<path class="st0" d="M140.6,5.8c0-0.6,0.2-1,0.6-1.4c0.4-0.4,0.9-0.5,1.6-0.5c0.6,0,1.2,0.2,1.6,0.5c0.4,0.4,0.6,0.8,0.6,1.4
				c0,0.6-0.2,1-0.6,1.4c-0.4,0.4-0.9,0.5-1.6,0.5c-0.6,0-1.2-0.2-1.6-0.5C140.8,6.8,140.6,6.4,140.6,5.8z M144.7,21.7h-4V9.1h4
				V21.7z"/>
			<path class="st0" d="M152.7,21.9c-1.9,0-3.5-0.6-4.7-1.7c-1.2-1.2-1.8-2.7-1.8-4.5v-0.3c0-1.3,0.2-2.4,0.7-3.4
				c0.5-1,1.2-1.8,2.1-2.3c0.9-0.5,2-0.8,3.3-0.8c1.8,0,3.2,0.6,4.2,1.7s1.5,2.6,1.5,4.6v1.5h-7.8c0.1,0.7,0.4,1.3,0.9,1.7
				c0.5,0.4,1.1,0.6,1.8,0.6c1.2,0,2.2-0.4,2.9-1.3l1.8,2.1c-0.5,0.7-1.2,1.2-2.1,1.6C154.7,21.7,153.7,21.9,152.7,21.9z
				 M152.3,11.9c-1.2,0-1.8,0.8-2.1,2.3h4v-0.3c0-0.6-0.1-1.1-0.5-1.5C153.4,12,152.9,11.9,152.3,11.9z"/>
			<path class="st0" d="M169.9,16.5l1.3-7.5h3.8l-3,12.6h-3.3l-2.1-7.5l-2.1,7.5h-3.3l-3-12.6h3.8l1.3,7.6l2-7.6h2.7L169.9,16.5z"/>
		</g>
	</g>
</g>
</svg>
