<?xml version="1.0" encoding="utf-8"?>
<!-- Generator: Adobe Illustrator 21.1.0, SVG Export Plug-In . SVG Version: 6.00 Build 0)  -->
<svg version="1.1" id="Layer_1" xmlns="http://www.w3.org/2000/svg" xmlns:xlink="http://www.w3.org/1999/xlink" x="0px" y="0px"
	 viewBox="0 0 168 26" style="enable-background:new 0 0 168 26;" xml:space="preserve">
<style type="text/css">
	.st0{fill:#FFFFFF;}
</style>
<g>
	<g>
		<path class="st0" d="M46.5,13.2c0,1.6-0.3,2.9-0.8,4.1c-0.5,1.2-1.2,2.1-2.2,2.8l2.7,2.2l-2.5,2.1l-3.6-2.9c-0.3,0-0.7,0.1-1,0.1
			c-1.4,0-2.7-0.3-3.8-1c-1.1-0.7-2-1.6-2.6-2.9c-0.6-1.2-0.9-2.7-1-4.3v-0.9c0-1.7,0.3-3.1,0.9-4.4c0.6-1.3,1.5-2.2,2.6-2.9
			c1.1-0.7,2.4-1,3.9-1c1.4,0,2.7,0.3,3.8,1c1.1,0.7,2,1.7,2.6,2.9c0.6,1.3,0.9,2.7,0.9,4.3V13.2z M42.4,12.5c0-1.7-0.3-3-0.8-3.8
			s-1.4-1.3-2.4-1.3c-1.1,0-1.9,0.4-2.4,1.3c-0.5,0.9-0.8,2.1-0.8,3.8v0.8c0,1.7,0.3,2.9,0.8,3.8c0.6,0.9,1.4,1.3,2.5,1.3
			c1,0,1.8-0.4,2.4-1.3c0.6-0.9,0.8-2.1,0.8-3.8V12.5z"/>
		<path class="st0" d="M55.5,15.5h-7v-3h7V15.5z"/>
		<path class="st0" d="M62.2,15.6v5.7h-4.1V4.4h6.8c1.3,0,2.4,0.2,3.4,0.7c1,0.5,1.8,1.2,2.3,2c0.5,0.9,0.8,1.9,0.8,3
			c0,1.7-0.6,3-1.8,4s-2.8,1.5-4.9,1.5H62.2z M62.2,12.4h2.7c0.8,0,1.4-0.2,1.8-0.6c0.4-0.4,0.6-1,0.6-1.7c0-0.8-0.2-1.4-0.6-1.9
			c-0.4-0.5-1-0.7-1.7-0.7h-2.7V12.4z"/>
		<path class="st0" d="M80.4,20c-0.8,1.1-2,1.6-3.4,1.6c-1.4,0-2.4-0.4-3.1-1.2c-0.7-0.8-1.1-2-1.1-3.5V8.8h3.9v8.2
			c0,1.1,0.5,1.6,1.6,1.6c0.9,0,1.5-0.3,1.9-1V8.8h3.9v12.6h-3.7L80.4,20z"/>
		<path class="st0" d="M89.9,21.3H86V3.5h3.9V21.3z"/>
		<path class="st0" d="M98.3,17.8c0-0.3-0.2-0.6-0.5-0.8s-1-0.4-2-0.6c-1-0.2-1.8-0.5-2.4-0.9c-0.6-0.4-1.1-0.8-1.5-1.3
			c-0.3-0.5-0.5-1.1-0.5-1.7c0-1.2,0.5-2.1,1.4-2.9c1-0.7,2.2-1.1,3.8-1.1c1.7,0,3,0.4,4,1.1c1,0.8,1.5,1.7,1.5,3h-3.9
			c0-1-0.5-1.5-1.6-1.5c-0.4,0-0.8,0.1-1,0.3c-0.3,0.2-0.4,0.5-0.4,0.9c0,0.3,0.2,0.6,0.5,0.8c0.3,0.2,0.9,0.4,1.6,0.5
			c0.7,0.1,1.4,0.3,2,0.5c1.9,0.7,2.8,1.8,2.8,3.5c0,1.1-0.5,2.1-1.5,2.8c-1,0.7-2.3,1.1-4,1.1c-1.1,0-2-0.2-2.9-0.6
			c-0.8-0.4-1.5-0.9-2-1.6C91.3,18.7,91,18,91,17.3h3.7c0,0.6,0.2,1,0.6,1.3c0.4,0.3,0.9,0.4,1.4,0.4c0.5,0,0.9-0.1,1.2-0.3
			C98.2,18.4,98.3,18.1,98.3,17.8z"/>
		<path class="st0" d="M109.4,21.6c-1.9,0-3.5-0.6-4.7-1.7c-1.2-1.2-1.8-2.6-1.8-4.5V15c0-1.3,0.2-2.4,0.7-3.4
			c0.5-1,1.2-1.7,2.1-2.3c0.9-0.5,2-0.8,3.3-0.8c1.8,0,3.2,0.5,4.2,1.6c1,1.1,1.5,2.6,1.5,4.6v1.5h-7.8c0.1,0.7,0.4,1.3,0.9,1.7
			s1.1,0.6,1.8,0.6c1.2,0,2.2-0.4,2.9-1.3l1.8,2.1c-0.5,0.7-1.2,1.2-2.1,1.6C111.4,21.4,110.5,21.6,109.4,21.6z M109,11.5
			c-1.1,0-1.8,0.8-2.1,2.3h4v-0.3c0-0.6-0.1-1.1-0.5-1.5C110.1,11.7,109.6,11.5,109,11.5z"/>
		<path class="st0" d="M114.9,11.3c0-0.5,0.1-0.9,0.3-1.3c0.2-0.4,0.5-0.7,0.9-0.9c0.4-0.2,0.8-0.3,1.2-0.3c0.4,0,0.8,0.1,1.2,0.3
			c0.4,0.2,0.7,0.5,0.9,0.9c0.2,0.4,0.3,0.8,0.3,1.3c0,0.5-0.1,0.9-0.3,1.3c-0.2,0.4-0.5,0.7-0.9,0.9c-0.4,0.2-0.8,0.3-1.2,0.3
			c-0.4,0-0.8-0.1-1.2-0.3c-0.4-0.2-0.7-0.5-0.9-0.9C115,12.2,114.9,11.8,114.9,11.3z M115.3,11.3c0,0.4,0.1,0.7,0.3,1
			c0.2,0.3,0.4,0.6,0.7,0.8c0.3,0.2,0.6,0.3,1,0.3c0.4,0,0.7-0.1,1-0.3c0.3-0.2,0.5-0.5,0.7-0.8c0.2-0.3,0.3-0.7,0.3-1
			c0-0.4-0.1-0.7-0.3-1c-0.2-0.3-0.4-0.6-0.7-0.8c-0.3-0.2-0.6-0.3-1-0.3c-0.4,0-0.7,0.1-1,0.3c-0.3,0.2-0.5,0.4-0.7,0.8
			C115.4,10.6,115.3,11,115.3,11.3z M116.8,11.6v1.1h-0.5V9.9h0.9c0.3,0,0.6,0.1,0.8,0.2c0.2,0.2,0.3,0.4,0.3,0.7
			c0,0.2-0.1,0.4-0.4,0.6c0.1,0.1,0.2,0.2,0.3,0.3c0.1,0.1,0.1,0.3,0.1,0.5s0,0.3,0,0.4c0,0.1,0,0.1,0,0.2v0.1h-0.5
			c0-0.1,0-0.3,0-0.7c0-0.2,0-0.3-0.1-0.4c-0.1-0.1-0.2-0.1-0.4-0.1H116.8z M116.8,11.1h0.4c0.2,0,0.3,0,0.4-0.1
			c0.1-0.1,0.2-0.2,0.2-0.3c0-0.2,0-0.3-0.1-0.3c-0.1-0.1-0.2-0.1-0.4-0.1h-0.5V11.1z"/>
		<path class="st0" d="M134.5,13.4h-7.9v7.9h-1.4V4.4h10.5v1.2h-9.1v6.6h7.9V13.4z"/>
		<path class="st0" d="M145.1,16.6h-7.7l-1.7,4.8h-1.5l6.4-16.9h1.4l6.4,16.9h-1.5L145.1,16.6z M137.9,15.4h6.8l-3.4-9.2L137.9,15.4
			z"/>
		<path class="st0" d="M152,21.3h-1.4V4.4h1.4V21.3z"/>
		<path class="st0" d="M162.4,14.3h-4.9v7.1H156V4.4h5.5c1.8,0,3.2,0.4,4.2,1.3c1,0.9,1.5,2.1,1.5,3.7c0,1.1-0.3,2-1,2.9
			c-0.6,0.8-1.5,1.4-2.6,1.7l4.2,7.2v0.2h-1.5L162.4,14.3z M157.4,13.1h4.4c1.2,0,2.2-0.3,2.9-1c0.7-0.7,1.1-1.6,1.1-2.7
			c0-1.2-0.4-2.1-1.1-2.8c-0.8-0.7-1.8-1-3.2-1h-4V13.1z"/>
	</g>
	<g>
		<ellipse class="st0" cx="10.9" cy="9.6" rx="4.4" ry="4.4"/>
		<path class="st0" d="M13,0C5.8,0,0,5.8,0,13c0,7.2,5.8,13,13,13c7.2,0,13-5.8,13-13C26.1,5.8,20.2,0,13,0z M5.6,17.2l0-2.6
			l2.9,2.9l1.4,1.4C8.4,18.6,6.9,18.1,5.6,17.2z M19,21.3h-6l-7.4-7.4l0,0h0V9.6c0-2.8,2.3-5.2,5.1-5.3v0h0.3h7.9h0
			c1,1.5,1.6,3.3,1.6,5.2c0,3.6-1.9,6.7-4.8,8.3l0,0L19,21.3z"/>
	</g>
</g>
</svg>
