<svg xmlns="http://www.w3.org/2000/svg" viewBox="0 0 20 20" class="idg-progress-icon">
  <defs/>
  <g id="Layer_2" data-name="Layer 2">
    <g id="Layer_1-2" data-name="Layer 1">
      <circle class="cls-1" cx="10" cy="10" r="10" fill="#ffffff"/>
      <circle cx="10" cy="10" r="7.5" fill="#f05133"/>
      <path class="cls-1" d="M14.06 10.83a4.24 4.24 0 0 1-4.17 3.35A4.31 4.31 0 0 1 7 13l-.72.72a.33.33 0 0 1-.25.11.36.36 0 0 1-.35-.36V11a.36.36 0 0 1 .32-.39h2.5a.36.36 0 0 1 .36.36.39.39 0 0 1-.1.25L8 12a2.82 2.82 0 0 0 1.94.77 2.85 2.85 0 0 0 2.44-1.36 6.28 6.28 0 0 0 .3-.65.16.16 0 0 1 .16-.13h1.07a.17.17 0 0 1 .18.18zm.14-2a.36.36 0 0 1-.35.36h-2.51a.36.36 0 0 1-.34-.37.39.39 0 0 1 .1-.25l.77-.77A2.88 2.88 0 0 0 9.91 7a2.84 2.84 0 0 0-2.43 1.4 6.28 6.28 0 0 0-.3.65.16.16 0 0 1-.18.13H5.9A.17.17 0 0 1 5.73 9a4.25 4.25 0 0 1 4.18-3.39 4.32 4.32 0 0 1 3 1.18l.72-.72a.35.35 0 0 1 .61.25z" fill="#ffffff"/>
    </g>
  </g>
</svg>