<svg xmlns="http://www.w3.org/2000/svg" viewBox="0 0 164.82 41.85"><defs><style>.cls-1{fill:#1e1b1d;}.cls-2{fill:#00757f;}.cls-3{fill:#a9b0a1;}.cls-4{fill:#00aca5;}</style></defs><title>haeco-logo</title><g id="Layer_2" data-name="Layer 2"><g id="Layer_1-2" data-name="Layer 1"><path class="cls-1" d="M84.07,19.06c-2.64.15-3.3,1.39-3.5,2.45L79.5,28.45H71.16l1.45-9.39H71c-3,.17-3.28,1.41-3.54,2.61l-3,19.87h4.74l1.49-9.68H79l-1.49,9.68h4.75l3.46-22.48Z"/><path class="cls-1" d="M110.74,21.32l-2.08,20.22h11.5c2.88.05,3.43-3.43,3.43-3.43h-9.75l.64-6.11h4.45a3,3,0,0,0,3-2.54l.17-.85h-7.3l.64-6h6.46a2.67,2.67,0,0,0,2.73-1.78l.57-1.62H113.62A2.87,2.87,0,0,0,110.74,21.32Z"/><path class="cls-1" d="M155.84,19c-6.41,0-10.53,5-11.49,11.45s1.8,11.45,8.84,11.45c6.86,0,11.05-5.22,11.58-11.45S162.5,19,155.84,19Zm3.67,11.45c-.41,4.05-2,8-5.87,8s-4.59-3.83-4-8,2.1-8,5.85-8S159.91,26.33,159.51,30.4Z"/><path class="cls-1" d="M98.35,19.09a6,6,0,0,0-5,3.44l-8.68,19h5L92,36.05h8.22l1.08,5.49h5.13l-5.88-22.48A18,18,0,0,0,98.35,19.09Zm-5,13.53,3.07-6.53s.35-.82.49-1.06c.3-.58.53-1,.53-1s.11.57.22.93c0,.1.23,1,.23,1l1.57,6.66Z"/><path class="cls-1" d="M143.85,21.78A8.29,8.29,0,0,0,137.18,19c-6.35.1-10.66,5-11.58,11.76s2,11.16,8.48,11.05a10.14,10.14,0,0,0,7.6-3c1.26-1.51-.75-3.37-.75-3.37a10.09,10.09,0,0,1-6.38,3c-3.56.06-4.35-3.64-3.79-7.73s2.26-8.17,5.82-8.23a4.47,4.47,0,0,1,3.63,1.78l.15.24c.23.29,1.11,1,2.85-1.4l.38-.59.28-.43.09-.13Z"/><path class="cls-2" d="M11.19,20.11C8,17.32,0,17.63,0,17.63L10.93,38.44a5.43,5.43,0,0,0,.7,1.11,5.54,5.54,0,0,0,2.5,1.71C14.13,41.06,15.06,27.39,11.19,20.11Z"/><path class="cls-3" d="M22.71,32.69C18.1,27.62,13,22,11.58,20.48a4.59,4.59,0,0,0-.39-.37c3.87,7.28,2.94,21,2.94,21.15h0Z"/><path class="cls-4" d="M24.85,35,14.13,41.26h0a7.9,7.9,0,0,0,1.41.27H40.17c3.21-.27,4.47-2.06,8.18-8.45l10.2-17.67Z"/><path class="cls-2" d="M50.81,4.6C44.6,10.82,31.47,24,22.71,32.69l-8.58,8.57h0L24.85,35l33.7-19.61L67.28.3S57.09-1.69,50.81,4.6Z"/></g></g></svg>