<svg xmlns="http://www.w3.org/2000/svg" viewBox="0 0 208.74 54.8"><defs><style>.cls-1{fill-rule:evenodd;}.cls-2,.cls-3{stroke:#000;}.cls-2{stroke-miterlimit:3.86;stroke-width:0.64px;}.cls-3{fill:none;stroke-width:0.84px;}</style></defs><title>johnson-matthey-logo</title><g id="Layer_2" data-name="Layer 2"><g id="Layer_1-2" data-name="Layer 1"><path d="M5.19,29.85c3.08.22,3.42.44,3.42,2.44v9.47c0,2.85-.17,4-.73,4.88a3.51,3.51,0,0,1-3,1.44c-2.06,0-3.78-1.13-3.78-2.52,0-.33.14-.56.39-.56.06,0,.11,0,.28.06a1.13,1.13,0,0,0,.3,0,1.56,1.56,0,0,0,1.5-1.56,1.65,1.65,0,0,0-1.66-1.64A2,2,0,0,0,0,44.14c0,2.58,2.11,4.3,5.19,4.3a8.3,8.3,0,0,0,1.89-.19,6.18,6.18,0,0,0,2-.86c1.66-1.11,2.05-2.22,2.05-5.94V32.29c0-2,.34-2.22,3.22-2.44v-.28H5.19v.28Z"/><path d="M5.19,29.85c3.08.22,3.42.44,3.42,2.44v9.47c0,2.85-.17,4-.73,4.88a3.51,3.51,0,0,1-3,1.44c-2.06,0-3.78-1.13-3.78-2.52,0-.33.14-.56.39-.56.06,0,.11,0,.28.06a1.13,1.13,0,0,0,.3,0,1.56,1.56,0,0,0,1.5-1.56,1.65,1.65,0,0,0-1.66-1.64A2,2,0,0,0,0,44.14c0,2.58,2.11,4.3,5.19,4.3a8.3,8.3,0,0,0,1.89-.19,6.18,6.18,0,0,0,2-.86c1.66-1.11,2.05-2.22,2.05-5.94V32.29c0-2,.34-2.22,3.22-2.44v-.28H5.19v.28Z"/><path class="cls-1" d="M20.05,34.86a6.82,6.82,0,0,0,0,13.63,6.82,6.82,0,0,0,0-13.63Zm0,13.27c-2.75,0-3.86-1.83-3.86-6.44s1.11-6.47,3.86-6.47,3.86,1.84,3.86,6.47-1.08,6.44-3.86,6.44Z"/><path d="M20.05,34.86a6.82,6.82,0,0,0,0,13.63,6.82,6.82,0,0,0,0-13.63Zm0,13.27c-2.75,0-3.86-1.83-3.86-6.44s1.11-6.47,3.86-6.47,3.86,1.84,3.86,6.47-1.08,6.44-3.86,6.44Z"/><path d="M31.23,29.25l-.14,0c-1.05.14-3.16.28-4.89.34h-.08v.3c2.55.17,2.69.28,2.69,2.28V45.63c0,1.67-.44,2-2.69,2.23v.27h7.75l0-.27c-2.3-.23-2.66-.53-2.66-2.23V43.77c0-2.88.17-3.94.89-5.41A4.25,4.25,0,0,1,36,35.61c1.8,0,2.08.59,2.08,4.28v5.74c0,1.67-.42,2-2.69,2.23v.27h7.82v-.27c-2.27-.2-2.69-.56-2.69-2.23V39.75c0-2.42-.11-2.92-.8-3.69a4.28,4.28,0,0,0-3.06-1.2,5.35,5.35,0,0,0-3.5,1.31,7.21,7.21,0,0,0-1.91,3.08v-10Z"/><path d="M31.23,29.25l-.14,0c-1.05.14-3.16.28-4.89.34h-.08v.3c2.55.17,2.69.28,2.69,2.28V45.63c0,1.67-.44,2-2.69,2.23v.27h7.75l0-.27c-2.3-.23-2.66-.53-2.66-2.23V43.77c0-2.88.17-3.94.89-5.41A4.25,4.25,0,0,1,36,35.61c1.8,0,2.08.59,2.08,4.28v5.74c0,1.67-.42,2-2.69,2.23v.27h7.82v-.27c-2.27-.2-2.69-.56-2.69-2.23V39.75c0-2.42-.11-2.92-.8-3.69a4.28,4.28,0,0,0-3.06-1.2,5.35,5.35,0,0,0-3.5,1.31,7.21,7.21,0,0,0-1.91,3.08v-10Z"/><path d="M49,34.87c-1.27.14-3.77.28-5.22.31v.3c2.67.17,2.81.28,2.81,2.25v7.86c0,1.66-.45,2-2.69,2.22v.27h7.8v-.27c-2.25-.2-2.7-.56-2.7-2.22V43.7a11.72,11.72,0,0,1,.84-5.39,4.39,4.39,0,0,1,3.91-2.75c1.81,0,2.08.59,2.08,4.28v5.75c0,1.66-.41,2-2.69,2.22v.27h7.83v-.27c-2.28-.2-2.69-.56-2.69-2.22V39.7c0-2.41-.11-2.91-.81-3.69a4.3,4.3,0,0,0-3-1.2,5.42,5.42,0,0,0-3.5,1.31A6.26,6.26,0,0,0,49,39.4V34.87Z"/><path d="M49,34.87c-1.27.14-3.77.28-5.22.31v.3c2.67.17,2.81.28,2.81,2.25v7.86c0,1.66-.45,2-2.69,2.22v.27h7.8v-.27c-2.25-.2-2.7-.56-2.7-2.22V43.7a11.72,11.72,0,0,1,.84-5.39,4.39,4.39,0,0,1,3.91-2.75c1.81,0,2.08.59,2.08,4.28v5.75c0,1.66-.41,2-2.69,2.22v.27h7.83v-.27c-2.28-.2-2.69-.56-2.69-2.22V39.7c0-2.41-.11-2.91-.81-3.69a4.3,4.3,0,0,0-3-1.2,5.42,5.42,0,0,0-3.5,1.31A6.26,6.26,0,0,0,49,39.4V34.87Z"/><path d="M71.26,35c-.27.78-.38.94-.63.94s-.25-.05-.73-.33a5.78,5.78,0,0,0-3-.81c-2.64,0-4.67,1.67-4.67,3.81a3,3,0,0,0,1.61,2.58,13.65,13.65,0,0,0,2.92,1.16c3.3,1.09,3.86,1.53,3.86,3a3,3,0,0,1-3.2,2.72c-2.5,0-4.24-1.83-5.3-5.52h-.3v5.8h.3l.22-.66.14-.39c.11-.36.25-.53.45-.53a.52.52,0,0,1,.25.08l.94.64a6.31,6.31,0,0,0,3.28.94c2.85,0,5.1-1.88,5.1-4.3A3.44,3.44,0,0,0,71,41.25a14,14,0,0,0-2.94-1.19c-3.3-1.08-3.94-1.53-3.94-2.75s1.19-2.13,2.78-2.13c2.24,0,3.88,1.69,4.35,4.55h.28V35Z"/><path d="M71.26,35c-.27.78-.38.94-.63.94s-.25-.05-.73-.33a5.78,5.78,0,0,0-3-.81c-2.64,0-4.67,1.67-4.67,3.81a3,3,0,0,0,1.61,2.58,13.65,13.65,0,0,0,2.92,1.16c3.3,1.09,3.86,1.53,3.86,3a3,3,0,0,1-3.2,2.72c-2.5,0-4.24-1.83-5.3-5.52h-.3v5.8h.3l.22-.66.14-.39c.11-.36.25-.53.45-.53a.52.52,0,0,1,.25.08l.94.64a6.31,6.31,0,0,0,3.28.94c2.85,0,5.1-1.88,5.1-4.3A3.44,3.44,0,0,0,71,41.25a14,14,0,0,0-2.94-1.19c-3.3-1.08-3.94-1.53-3.94-2.75s1.19-2.13,2.78-2.13c2.24,0,3.88,1.69,4.35,4.55h.28V35Z"/><path class="cls-1" d="M80.38,34.81A6.82,6.82,0,1,0,87,41.64a7,7,0,0,0-6.66-6.83Zm0,13.27c-2.75,0-3.86-1.83-3.86-6.44s1.11-6.46,3.86-6.46,3.86,1.83,3.86,6.46-1.08,6.44-3.86,6.44Z"/><path d="M80.38,34.81A6.82,6.82,0,1,0,87,41.64a7,7,0,0,0-6.66-6.83Zm0,13.27c-2.75,0-3.86-1.83-3.86-6.44s1.11-6.46,3.86-6.46,3.86,1.83,3.86,6.46-1.08,6.44-3.86,6.44Z"/><path d="M91.56,34.87c-1.28.14-3.78.28-5.22.31v.3c2.66.17,2.8.28,2.8,2.25v7.86c0,1.66-.44,2-2.69,2.22v.27h7.8v-.27c-2.25-.2-2.69-.56-2.69-2.22V43.7a11.88,11.88,0,0,1,.83-5.39,4.4,4.4,0,0,1,3.92-2.75c1.8,0,2.08.59,2.08,4.28v5.75c0,1.66-.42,2-2.69,2.22v.27h7.82v-.27c-2.27-.2-2.69-.56-2.69-2.22V39.7c0-2.41-.11-2.91-.8-3.69A4.32,4.32,0,0,0,97,34.81a5.46,5.46,0,0,0-3.5,1.31,6.19,6.19,0,0,0-1.91,3.28V34.87Z"/><path d="M91.56,34.87c-1.28.14-3.78.28-5.22.31v.3c2.66.17,2.8.28,2.8,2.25v7.86c0,1.66-.44,2-2.69,2.22v.27h7.8v-.27c-2.25-.2-2.69-.56-2.69-2.22V43.7a11.88,11.88,0,0,1,.83-5.39,4.4,4.4,0,0,1,3.92-2.75c1.8,0,2.08.59,2.08,4.28v5.75c0,1.66-.42,2-2.69,2.22v.27h7.82v-.27c-2.27-.2-2.69-.56-2.69-2.22V39.7c0-2.41-.11-2.91-.8-3.69A4.32,4.32,0,0,0,97,34.81a5.46,5.46,0,0,0-3.5,1.31,6.19,6.19,0,0,0-1.91,3.28V34.87Z"/><path d="M127.16,30.57V45.42c0,2-.25,2.16-3.06,2.39v.27h8.81v-.27c-2.84-.23-3.09-.45-3.09-2.39V32.23c0-1.94.28-2.16,3.09-2.38v-.28h-6.06l-4.88,14-5-14h-6.22v.28c3,.22,3.28.44,3.28,2.38V43c0,3.19-.84,4.33-3.47,4.78v.27H118v-.27a3.25,3.25,0,0,1-1.44-.36c-1.5-.73-1.89-1.67-1.89-4.42V30.57l6.22,18,6.3-18Z"/><path d="M127.16,30.57V45.42c0,2-.25,2.16-3.06,2.39v.27h8.81v-.27c-2.84-.23-3.09-.45-3.09-2.39V32.23c0-1.94.28-2.16,3.09-2.38v-.28h-6.06l-4.88,14-5-14h-6.22v.28c3,.22,3.28.44,3.28,2.38V43c0,3.19-.84,4.33-3.47,4.78v.27H118v-.27a3.25,3.25,0,0,1-1.44-.36c-1.5-.73-1.89-1.67-1.89-4.42V30.57l6.22,18,6.3-18Z"/><path class="cls-1" d="M140.93,40.64l-2.36.48c-3.56.72-5.44,2.19-5.44,4.24,0,1.89,1.38,3.11,3.52,3.11A4.77,4.77,0,0,0,140,47.09,5.17,5.17,0,0,0,141.32,45c.05,2.64.61,3.44,2.41,3.44s2.69-1.13,2.69-3.55v-.22h-.36c-.05,2.14-.53,3.08-1.52,3.08-.59,0-.78-.39-.78-1.5V39.42c0-1.83-.42-2.88-1.39-3.58a6.7,6.7,0,0,0-3.75-1c-2.72,0-4.91,1.45-4.91,3.25a1.48,1.48,0,0,0,1.47,1.53,1.34,1.34,0,0,0,1.39-1.31,1.09,1.09,0,0,0-.53-1c-.5-.3-.53-.36-.53-.61,0-.78,1.45-1.52,3-1.52,2.14,0,2.84.86,2.84,3.49v1.89l-.39.08Zm.39,1.14c0,2.47-.14,3.19-.89,4.31a3.7,3.7,0,0,1-2.78,1.72c-1.08,0-1.72-1-1.72-2.61a3.63,3.63,0,0,1,1-2.78c.86-.8,1.91-1.17,4.36-1.5v.86Z"/><path d="M140.93,40.64l-2.36.48c-3.56.72-5.44,2.19-5.44,4.24,0,1.89,1.38,3.11,3.52,3.11A4.77,4.77,0,0,0,140,47.09,5.17,5.17,0,0,0,141.32,45c.05,2.64.61,3.44,2.41,3.44s2.69-1.13,2.69-3.55v-.22h-.36c-.05,2.14-.53,3.08-1.52,3.08-.59,0-.78-.39-.78-1.5V39.42c0-1.83-.42-2.88-1.39-3.58a6.7,6.7,0,0,0-3.75-1c-2.72,0-4.91,1.45-4.91,3.25a1.48,1.48,0,0,0,1.47,1.53,1.34,1.34,0,0,0,1.39-1.31,1.09,1.09,0,0,0-.53-1c-.5-.3-.53-.36-.53-.61,0-.78,1.45-1.52,3-1.52,2.14,0,2.84.86,2.84,3.49v1.89l-.39.08Zm.39,1.14c0,2.47-.14,3.19-.89,4.31a3.7,3.7,0,0,1-2.78,1.72c-1.08,0-1.72-1-1.72-2.61a3.63,3.63,0,0,1,1-2.78c.86-.8,1.91-1.17,4.36-1.5v.86Z"/><path d="M150.16,29.21l0,.33c-.2,2.17-.59,3.47-1.25,4.27a5,5,0,0,1-3.56,1.42v.39H148V45.2a3.83,3.83,0,0,0,.33,1.61,3.4,3.4,0,0,0,3.14,1.63,3.31,3.31,0,0,0,3.19-1.74,6.58,6.58,0,0,0,.58-3.31V43h-.36l0,.25c-.14,3.31-.8,4.44-2.61,4.44-1.47,0-1.83-.66-1.83-3.27V35.62h4.14v-.44h-4.14v-6Z"/><path d="M150.16,29.21l0,.33c-.2,2.17-.59,3.47-1.25,4.27a5,5,0,0,1-3.56,1.42v.39H148V45.2a3.83,3.83,0,0,0,.33,1.61,3.4,3.4,0,0,0,3.14,1.63,3.31,3.31,0,0,0,3.19-1.74,6.58,6.58,0,0,0,.58-3.31V43h-.36l0,.25c-.14,3.31-.8,4.44-2.61,4.44-1.47,0-1.83-.66-1.83-3.27V35.62h4.14v-.44h-4.14v-6Z"/><path d="M160.47,29.21l0,.33c-.2,2.17-.59,3.47-1.25,4.27a5,5,0,0,1-3.56,1.42v.39h2.7V45.2a3.83,3.83,0,0,0,.33,1.61,3.4,3.4,0,0,0,3.14,1.63A3.32,3.32,0,0,0,165,46.7a6.58,6.58,0,0,0,.58-3.31V43h-.36l0,.25c-.14,3.31-.8,4.44-2.61,4.44-1.47,0-1.83-.66-1.83-3.27V35.62h4.14v-.44h-4.14v-6Z"/><path d="M160.47,29.21l0,.33c-.2,2.17-.59,3.47-1.25,4.27a5,5,0,0,1-3.56,1.42v.39h2.7V45.2a3.83,3.83,0,0,0,.33,1.61,3.4,3.4,0,0,0,3.14,1.63A3.32,3.32,0,0,0,165,46.7a6.58,6.58,0,0,0,.58-3.31V43h-.36l0,.25c-.14,3.31-.8,4.44-2.61,4.44-1.47,0-1.83-.66-1.83-3.27V35.62h4.14v-.44h-4.14v-6Z"/><path d="M170.47,29.21l-.14,0c-1.06.14-3.17.28-4.89.34h-.08v.3c2.55.17,2.69.28,2.69,2.28V45.59c0,1.66-.44,2-2.69,2.22v.27h7.75l0-.27c-2.3-.23-2.66-.53-2.66-2.22V43.73c0-2.89.16-3.95.89-5.42a4.26,4.26,0,0,1,3.86-2.75c1.8,0,2.08.59,2.08,4.28v5.75c0,1.66-.42,2-2.7,2.22v.27h7.83v-.27c-2.27-.2-2.69-.56-2.69-2.22V39.7c0-2.41-.11-2.91-.8-3.69a4.32,4.32,0,0,0-3.06-1.2,5.38,5.38,0,0,0-3.5,1.31,7.28,7.28,0,0,0-1.91,3.08v-10Z"/><path d="M170.47,29.21l-.14,0c-1.06.14-3.17.28-4.89.34h-.08v.3c2.55.17,2.69.28,2.69,2.28V45.59c0,1.66-.44,2-2.69,2.22v.27h7.75l0-.27c-2.3-.23-2.66-.53-2.66-2.22V43.73c0-2.89.16-3.95.89-5.42a4.26,4.26,0,0,1,3.86-2.75c1.8,0,2.08.59,2.08,4.28v5.75c0,1.66-.42,2-2.7,2.22v.27h7.83v-.27c-2.27-.2-2.69-.56-2.69-2.22V39.7c0-2.41-.11-2.91-.8-3.69a4.32,4.32,0,0,0-3.06-1.2,5.38,5.38,0,0,0-3.5,1.31,7.28,7.28,0,0,0-1.91,3.08v-10Z"/><path class="cls-1" d="M193.5,40.51a5.35,5.35,0,0,0-5.44-5.72,6.84,6.84,0,0,0-6.47,6.83,6.65,6.65,0,0,0,6.69,6.78,5,5,0,0,0,5.28-4.64h-.45c-.44,2.78-2.11,4.25-4.8,4.25s-4.05-1.75-4.05-5.5c0-.47,0-.75,0-1.47h9.19a3.65,3.65,0,0,0,0-.53ZM188,35.15c2,0,3,1.31,3,3.86,0,1.59-.11,1.67-2.63,1.67h-4c.19-4,1.19-5.53,3.61-5.53Z"/><path d="M193.5,40.51a5.35,5.35,0,0,0-5.44-5.72,6.84,6.84,0,0,0-6.47,6.83,6.65,6.65,0,0,0,6.69,6.78,5,5,0,0,0,5.28-4.64h-.45c-.44,2.78-2.11,4.25-4.8,4.25s-4.05-1.75-4.05-5.5c0-.47,0-.75,0-1.47h9.19a3.65,3.65,0,0,0,0-.53ZM188,35.15c2,0,3,1.31,3,3.86,0,1.59-.11,1.67-2.63,1.67h-4c.19-4,1.19-5.53,3.61-5.53Z"/><path d="M198.52,37.67l-.22-.61a1.2,1.2,0,0,1-.11-.55c0-.64.55-.89,2.19-1v-.3H193l0,.3c1.89.17,2.25.44,3,2.3l4.58,11.61-.52,1.47c-.87,2.42-2,3.47-3.56,3.47-.47,0-.83-.22-.83-.47s.14-.22.39-.42a1.29,1.29,0,0,0,.58-1.14,1.38,1.38,0,0,0-1.39-1.47,1.6,1.6,0,0,0-1.58,1.67,2.48,2.48,0,0,0,2.66,2.3A3.67,3.67,0,0,0,199,53.64a8.28,8.28,0,0,0,1.53-2.7L205.21,39c1.06-2.66,1.72-3.33,3.53-3.55v-.3h-5.56v.3c1.56.2,2.06.58,2.06,1.53a12.41,12.41,0,0,1-1,3.3l-2.33,5.86-3.39-8.5Z"/><path d="M198.52,37.67l-.22-.61a1.2,1.2,0,0,1-.11-.55c0-.64.55-.89,2.19-1v-.3H193l0,.3c1.89.17,2.25.44,3,2.3l4.58,11.61-.52,1.47c-.87,2.42-2,3.47-3.56,3.47-.47,0-.83-.22-.83-.47s.14-.22.39-.42a1.29,1.29,0,0,0,.58-1.14,1.38,1.38,0,0,0-1.39-1.47,1.6,1.6,0,0,0-1.58,1.67,2.48,2.48,0,0,0,2.66,2.3A3.67,3.67,0,0,0,199,53.64a8.28,8.28,0,0,0,1.53-2.7L205.21,39c1.06-2.66,1.72-3.33,3.53-3.55v-.3h-5.56v.3c1.56.2,2.06.58,2.06,1.53a12.41,12.41,0,0,1-1,3.3l-2.33,5.86-3.39-8.5Z"/><line class="cls-2" x1="103.87" y1="0.38" x2="103.87" y2="19.37"/><polygon class="cls-3" points="76.92 0.42 130.43 0.42 130.43 19.37 76.92 19.37 76.92 0.42 76.92 0.42"/><path d="M113.05,3.18a11.1,11.1,0,0,1,2.07,2c0,.23-1.53,1.57-1.53,1.75a8.45,8.45,0,0,0,.94,1,21.51,21.51,0,0,0,2.2,2.05c.11,0,.59-.52.71-.63.65-.63,3.31-3.11,3.31-3.3s-.63-.81-.63-.94a4.34,4.34,0,0,1,1.25-1.24c.3,0,.74.71.94.71a1.6,1.6,0,0,1,.29-.05c.28,0,.5.06.5.41a3.34,3.34,0,0,1-.17.51,9.48,9.48,0,0,1,.65,2.2v.58c0,.15-.13,1.11-.48,1.11h-.16c-.22,0-1.11-2.45-1.48-2.45s-1.28,1-1.38,1.14a27.91,27.91,0,0,0-2.63,2.63c0,.32,4.26,4,4.26,4.49a.42.42,0,0,1-.43.43c-.35,0-4.33-4.17-4.57-4.17a18.42,18.42,0,0,0-2.37,2.25c-.53.58-1.52,1.47-2,2a3.37,3.37,0,0,1-.41.12c-.22,0-.29-.32-.29-.43s0-.14.11-.28c.54-.58,1.16-1.17,1.74-1.74A22.17,22.17,0,0,0,116,10.66c0-.09-1.29-1.31-1.73-1.74a13.36,13.36,0,0,0-1.44-1.26c-.11,0-1.59,1.54-1.74,1.54s-.44-.34-.57-.45S109,7.46,109,7.23s1.6-1.6,1.6-1.81a2,2,0,0,1-.17-.49.4.4,0,0,1,.41-.4,1.77,1.77,0,0,1,.44.18c.29,0,1.53-1.53,1.77-1.53Z"/><path d="M103.77,19.32V.29h26.34v19Zm13-2c6.46,0,11.7-3.39,11.7-7.58s-5.24-7.58-11.7-7.58-11.69,3.39-11.69,7.58,5.24,7.58,11.69,7.58Z"/><path class="cls-1" d="M86,4.17h.4v8c0,2.42-2.39,3.22-4.07,3.22a5.21,5.21,0,0,1-2.11-.45l0,0h0a3.59,3.59,0,0,1-1.51-3.35c0-.28-.12-.62.1-.76a6,6,0,0,1,1.48-.45.74.74,0,0,0,.21-.07c0,.46-.11,1.26-.11,1.36a2.09,2.09,0,0,0,2.21,2.35l.41,0H83l.15,0c1.11,0,1.59-1.55,1.59-2.14V4.17Z"/><path d="M88.55,4.21H91c.95,2,3.45,7.46,3.64,8l.14.34c0,.06.14.3.2.41,1.45-3,2.69-5.7,4.06-8.73h2.34v11H99.78V6.31l-2.09,4.55,0,0v0s0,0,0,0l-2,4.3H94.36c-.82-1.77-1.72-3.82-2.5-5.57L90.33,6.47v8.77a13,13,0,0,1-1.78,0v-11Z"/></g></g></svg>