<svg xmlns="http://www.w3.org/2000/svg" viewBox="0 0 116.55 64.97"><defs><style>.cls-1{fill:#80bc00;}.cls-2{fill:#001a70;}</style></defs><title>rssb-logo</title><g id="Layer_2" data-name="Layer 2"><g id="Layer_1-2" data-name="Layer 1"><path class="cls-1" d="M89.37,8c-1.72.72-3.58,2.32-3.43,4.36.33,2.07,2.77,2,4.33,1.49C92,13.15,94,11.45,93.73,9.33c-.47-2-2.84-1.88-4.36-1.31"/><path class="cls-1" d="M89.83,15.65a5.41,5.41,0,0,0-4.73,3.73,2.82,2.82,0,0,0,2.76,3.69,5.39,5.39,0,0,0,4.89-3.85,2.83,2.83,0,0,0-2.92-3.57"/><path class="cls-1" d="M108.92,9.9c-3.52.24-7.27,2.36-7.63,6.18-.06,4.06,4,6.11,7.57,6.08,3.68-.24,7.71-2.59,7.69-6.69-.33-3.82-4.17-5.63-7.63-5.57"/><path class="cls-1" d="M107.43,25.23a8.48,8.48,0,0,0-10.08,4.29,7.14,7.14,0,0,0,3.91,9.59,8.46,8.46,0,0,0,10.42-4.45,7.14,7.14,0,0,0-4.25-9.43"/><path class="cls-2" d="M98.22,42A7.2,7.2,0,0,0,88,42.34a8,8,0,0,0-.19,10.58,7.17,7.17,0,0,0,10.27-.05A8,8,0,0,0,98.22,42"/><path class="cls-1" d="M84.45,54.32c-1.26-3.15-4.52-5.35-7.85-3.79-3.12,1.74-4,5.61-3,8.85,1.17,3.09,4.23,5.34,7.56,4.07,3.42-1.61,4.37-5.76,3.25-9.13"/><path class="cls-1" d="M71,59.24c-.11-2.61-1.4-6.22-4.48-6.4-2.87.11-3.85,3.42-3.84,5.8.13,2.54,1.3,5.81,4.13,6.31,3.05.26,4.19-3.26,4.19-5.71"/><path class="cls-1" d="M61.05,57.44c.47-2.28.39-5.5-1.52-7.14-1.88-1.34-3.07,1.3-3.39,2.78-.41,2.22-.28,5,1.34,6.77,1.79,1.64,3.18-.83,3.57-2.41"/><path class="cls-1" d="M55.45,51.22A10.11,10.11,0,0,0,56,44.56c-.64-1.74-1.82-.87-2.39.43a10.67,10.67,0,0,0-.48,6.22c.51,1.69,1.67,1.46,2.36,0"/><path class="cls-1" d="M61.17,16.17c.07.78,2.21-1.45,2.48-1.76.75-.91,2.46-2.63,2.27-3.9-.26-.67-2.26,1.57-2.52,1.88-.83,1-2.18,2.42-2.23,3.78"/><path class="cls-1" d="M67.2,9.38c-.5,1.39,1.48.14,2-.21a10,10,0,0,0,3.37-3.95c.36-1.27-1.72.13-2.1.43A10.5,10.5,0,0,0,67.2,9.38"/><path class="cls-1" d="M73.84,4.54c-.75,1.15-.21,1.79,1.06,1.32a9.67,9.67,0,0,0,4.34-3.5c.75-1.27-.15-1.59-1.3-1.13a10,10,0,0,0-4.1,3.31"/><path class="cls-1" d="M80.34,2.39c-.67.71-1.88,2.54-.19,2.79,1.85.13,3.74-1.19,5-2.46.71-.8,1.71-2.6,0-2.72a7.25,7.25,0,0,0-4.74,2.39"/><path class="cls-1" d="M85.89,3.41c-1,.77-2.9,2.55-1.77,3.93,1.36,1.32,3.79.14,5.06-.73,1-.78,3-2.71,1.63-4-1.43-1.11-3.65,0-4.92.82"/><path class="cls-2" d="M29,32.6a7.73,7.73,0,0,1-2.82-.5,8.14,8.14,0,0,1-2.35-1.45,7.14,7.14,0,0,1-1.56-2.15,6.58,6.58,0,0,1-.57-2.68,6.13,6.13,0,0,1,.56-2.57A6.91,6.91,0,0,1,23.7,21.1,7.47,7.47,0,0,1,28.92,19H39.14V23.8l-10.21,0a2.08,2.08,0,0,0-2.19,2,1.85,1.85,0,0,0,.61,1.41,2.26,2.26,0,0,0,1.59.6l5.76,0a8,8,0,0,1,5.14,1.95,6.38,6.38,0,0,1,1.59,2.16A6.2,6.2,0,0,1,42,34.55a6.1,6.1,0,0,1-.56,2.61,7.17,7.17,0,0,1-1.53,2.15,7.81,7.81,0,0,1-2.25,1.49,7.31,7.31,0,0,1-2.92.57H29.82l-7.42,0V36.57l12.32,0a2.07,2.07,0,0,0,2.2-2,1.85,1.85,0,0,0-.65-1.41,2.17,2.17,0,0,0-1.56-.6L29,32.6M13.06,28a2.32,2.32,0,0,0,1.61-.59,1.85,1.85,0,0,0,0-2.8,2.24,2.24,0,0,0-1.6-.61l-8,0v4Zm1.53,13.39-5.53-8.6H5.12v8.58H0L0,21.62v-2.4l13,0a7,7,0,0,1,2.82.54,6.85,6.85,0,0,1,2.32,1.45,6.24,6.24,0,0,1,1.59,2.14A5.8,5.8,0,0,1,20.38,26a6.49,6.49,0,0,1-1.76,4.38,6.6,6.6,0,0,1-1.95,1.5,8.14,8.14,0,0,1-1.36.57L21,41.37M83.6,28.24A6.48,6.48,0,0,1,82.47,30a6.31,6.31,0,0,1,1.14,1.71,5.74,5.74,0,0,1,.62,2.65,5.94,5.94,0,0,1-.61,2.7,7.27,7.27,0,0,1-3.88,3.6,7.69,7.69,0,0,1-2.82.53l-10.46,0H63.87l0-20-.09-2.41h2.83l10.29,0a7,7,0,0,1,2.83.54A6.81,6.81,0,0,1,82,20.79a6.12,6.12,0,0,1,1.59,2.14,5.73,5.73,0,0,1,.62,2.61,6.1,6.1,0,0,1-.61,2.7m-5.09,7.54a1.88,1.88,0,0,0,.64-1.44A1.79,1.79,0,0,0,78.5,33a2.2,2.2,0,0,0-1.6-.61l-8,0v4l8,0a2.21,2.21,0,0,0,1.6-.58m0-8.78a1.84,1.84,0,0,0,.63-1.44,1.75,1.75,0,0,0-.64-1.37,2.22,2.22,0,0,0-1.6-.61l-8,0v4l8,0a2.27,2.27,0,0,0,1.6-.58M49.4,32.55a8.09,8.09,0,0,1-2.82-.5,8.56,8.56,0,0,1-2.36-1.45,7.11,7.11,0,0,1-1.55-2.15,6.45,6.45,0,0,1-.57-2.68,5.91,5.91,0,0,1,.56-2.58,6.83,6.83,0,0,1,1.48-2.14A7.51,7.51,0,0,1,49.36,19l10.28,0,0,2.38,0,2.4-10.26,0a2.08,2.08,0,0,0-2.2,2,1.86,1.86,0,0,0,.62,1.41,2.26,2.26,0,0,0,1.59.6l5.76,0A7.39,7.39,0,0,1,58,28.3a7.13,7.13,0,0,1,2.3,1.4,6.31,6.31,0,0,1,1.6,2.16,6.17,6.17,0,0,1,.57,2.64,6.37,6.37,0,0,1-.56,2.6,6.92,6.92,0,0,1-1.53,2.15,7.55,7.55,0,0,1-2.26,1.5,7.31,7.31,0,0,1-2.92.57H50.27l-7.37,0V36.52l12.27,0a2.07,2.07,0,0,0,2.19-2,1.82,1.82,0,0,0-.65-1.41,2.12,2.12,0,0,0-1.55-.6Z"/></g></g></svg>