<svg xmlns="http://www.w3.org/2000/svg" viewBox="0 0 100 100"><defs><style>.cls-1{fill:#0a3254;}.cls-2{fill:#fff;}.cls-3{fill:#1ab211;}</style></defs><title>assign-responsibility</title><g id="Layer_2" data-name="Layer 2"><g id="Layer_1-2" data-name="Layer 1"><circle class="cls-1" cx="50" cy="50" r="50"/><circle class="cls-2" cx="83.91" cy="87.49" r="10"/><circle class="cls-3" cx="83.91" cy="87.49" r="7.5"/><path class="cls-2" d="M88.24,85.54a.49.49,0,0,1-.16.38l-4,4-.76.76a.49.49,0,0,1-.38.16.51.51,0,0,1-.38-.16L81.77,90l-2-2a.49.49,0,0,1-.16-.38.51.51,0,0,1,.16-.38l.75-.76a.55.55,0,0,1,.38-.15.52.52,0,0,1,.38.15l1.64,1.65,3.66-3.67a.54.54,0,0,1,.38-.15.52.52,0,0,1,.38.15l.76.76A.51.51,0,0,1,88.24,85.54Z"/><path class="cls-2" d="M65.77,27.53a8.63,8.63,0,1,0,8.64,8.63A8.64,8.64,0,0,0,65.77,27.53Zm5,9.17h-5a.55.55,0,0,1-.55-.54v-6.3a.55.55,0,1,1,1.1,0v5.75h4.44a.55.55,0,0,1,0,1.09Z"/><polygon class="cls-2" points="42.48 60.68 41.9 70.11 44.84 70.11 44.26 60.68 42.48 60.68"/><path class="cls-2" d="M44.32,60l.86-1.22-.54-1.39c-.06,0-2.47,0-2.54,0s-.54,1.39-.53,1.39L42.43,60Z"/><path class="cls-2" d="M53.14,56.38,49.5,55l-1.28-1.5a11.23,11.23,0,0,0,1.11-2.22A5.58,5.58,0,0,0,52,47.12c.05-.43.1-1.47-.36-1.88a.89.89,0,0,0-.72-.23c1.12-5.92-2.71-9.26-7.68-9.26-7.62,0-7.68,7.06-7.51,9.25a.93.93,0,0,0-.57.24c-.46.41-.4,1.45-.36,1.88a5.57,5.57,0,0,0,2.67,4.21l.07,0a11.55,11.55,0,0,0,1,2.12L37.2,55l-3.64,1.34c-.64.2-7.15,2.52-7.15,14.12a.94.94,0,0,0,.94.93l4.53,0v.09a.93.93,0,0,0,.94.93H53.88a.93.93,0,0,0,.94-.93v-.09l4.53,0a.94.94,0,0,0,.94-.93C60.29,58.9,53.78,56.58,53.14,56.38Zm-2.81-9.9a2.34,2.34,0,0,1,.52-.31,4.53,4.53,0,0,1-.93,3.17A18.08,18.08,0,0,0,50.33,46.48Zm-14.44-.31a2.59,2.59,0,0,1,.63.4A18.86,18.86,0,0,0,37,49.49,4.58,4.58,0,0,1,35.89,46.17Zm9.93-3.93a6,6,0,0,0,2.62,2.22c0,.31.05.63.05,1,0,4.47-1.94,9.29-5.06,9.29s-5-4.66-5.07-9.06A12.18,12.18,0,0,0,45.82,42.24ZM38.08,56.72a1,1,0,0,0,.39-.28L39.72,55a5.21,5.21,0,0,0,3.71,1.6A5.13,5.13,0,0,0,47,55l1.21,1.41a.85.85,0,0,0,.39.28l1.39.51L45.89,70.6h-5L36.59,57.26Z"/></g></g></svg>