<svg xmlns="http://www.w3.org/2000/svg" viewBox="0 0 100 100"><defs><style>.cls-1{fill:#0a3254;}.cls-2{fill:#fff;}.cls-3{fill:#1ab211;}</style></defs><title>look-forward-visibility</title><g id="Layer_2" data-name="Layer 2"><g id="Layer_1-2" data-name="Layer 1"><circle class="cls-1" cx="50" cy="50" r="50"/><circle class="cls-2" cx="82.12" cy="87.49" r="10"/><circle class="cls-3" cx="82.12" cy="87.49" r="7.5"/><path class="cls-2" d="M86.45,85.54a.49.49,0,0,1-.16.38l-4,4-.76.76a.49.49,0,0,1-.37.16.49.49,0,0,1-.38-.16L80,90l-2-2a.49.49,0,0,1-.16-.38.51.51,0,0,1,.16-.38l.76-.76a.51.51,0,0,1,.37-.15.52.52,0,0,1,.38.15l1.65,1.65,3.66-3.67a.52.52,0,0,1,.38-.15.51.51,0,0,1,.37.15l.76.76A.51.51,0,0,1,86.45,85.54Z"/><path class="cls-2" d="M46.75,37.05l-5.7,6.08h3V66.34h5.34V43.13h3Zm-17.6,18.4h3V66.34h5.35V55.45h3l-5.7-6.08Z"/><path class="cls-2" d="M62.74,36.11c1.35,0,2.45-2.24,2.45-4S64.09,29,62.74,29s-2.46,1.39-2.46,3.11S61.38,36.11,62.74,36.11Zm5.33,31.76L66.5,52h.7l-.41-9.15.75,1.48,2.12,7.5a1,1,0,0,0,1,.73,1,1,0,0,0,.28,0,1,1,0,0,0,.69-1.24L69.45,43.7l-.07-.18-2.82-5.61c-.14-.65-.87-.94-1.73-1.06l-1.15,2.87-.55-2.06h-.7l-.6,2.06-1.25-2.87a2.09,2.09,0,0,0-1.58.8.61.61,0,0,0-.07.1L56,43.52,56,43.7l-2.15,7.59a1,1,0,0,0,.69,1.24,1,1,0,0,0,.28,0,1,1,0,0,0,1-.73l2.12-7.5.77-1.52L58.18,52H59L57.4,67.87H26V70H74V67.87Zm-8.49,0L62.27,52h.93l2.69,15.87Z"/></g></g></svg>