<svg xmlns="http://www.w3.org/2000/svg" viewBox="0 0 100 100"><defs><style>.cls-1{fill:#0a3254;}.cls-2{fill:#fff;}.cls-3{fill:#1ab211;}</style></defs><title>messaging</title><g id="Layer_2" data-name="Layer 2"><g id="Layer_1-2" data-name="Layer 1"><circle class="cls-1" cx="50" cy="50" r="50"/><circle class="cls-2" cx="82.46" cy="87.49" r="10"/><circle class="cls-3" cx="82.46" cy="87.49" r="7.5"/><path class="cls-2" d="M86.79,85.54a.49.49,0,0,1-.16.38l-4,4-.76.76a.53.53,0,0,1-.38.16.55.55,0,0,1-.38-.16L80.31,90l-2-2a.52.52,0,0,1-.15-.38.54.54,0,0,1,.15-.38l.76-.76a.54.54,0,0,1,.38-.15.52.52,0,0,1,.38.15l1.64,1.65,3.66-3.67a.54.54,0,0,1,.38-.15.52.52,0,0,1,.38.15l.76.76A.51.51,0,0,1,86.79,85.54Z"/><path class="cls-2" d="M32.58,68.56a1.21,1.21,0,0,1-1.21-1.37L32,62.51h-.4A5.55,5.55,0,0,1,26,57V35.05a5.55,5.55,0,0,1,5.55-5.54h36.9A5.55,5.55,0,0,1,74,35.05V57a5.55,5.55,0,0,1-5.55,5.54h-.29V60.06h.29A3.09,3.09,0,0,0,71.55,57V35.05A3.1,3.1,0,0,0,68.45,32H31.55a3.1,3.1,0,0,0-3.1,3.09V57a3.09,3.09,0,0,0,3.1,3.09h1.79a1.21,1.21,0,0,1,.92.42,1.24,1.24,0,0,1,.3,1l-.25,2,2.48-2.93a1.24,1.24,0,0,1,.93-.43h2.17v2.45h-1.6l-4.77,5.62A1.24,1.24,0,0,1,32.58,68.56Z"/><path class="cls-2" d="M63.38,50.49H44.56a2.36,2.36,0,0,0-2.36,2.36V64a2.36,2.36,0,0,0,2.36,2.35H56.78L63,72l-1.37-5.68h1.8A2.36,2.36,0,0,0,65.74,64V52.85A2.36,2.36,0,0,0,63.38,50.49ZM48,60a1.39,1.39,0,1,1,1.39-1.39A1.39,1.39,0,0,1,48,60ZM54,60a1.39,1.39,0,1,1,1.39-1.39A1.39,1.39,0,0,1,54,60Zm6,0a1.39,1.39,0,1,1,1.38-1.39A1.39,1.39,0,0,1,59.92,60Z"/></g></g></svg>