<svg xmlns="http://www.w3.org/2000/svg" viewBox="0 0 100 100"><defs><style>.cls-1{fill:#0a3254;}.cls-2{fill:#fff;}.cls-3{fill:#1ab211;}</style></defs><title>web-portal</title><g id="Layer_2" data-name="Layer 2"><g id="Layer_1-2" data-name="Layer 1"><circle class="cls-1" cx="50" cy="50" r="50"/><circle class="cls-2" cx="83.91" cy="87.49" r="10"/><circle class="cls-3" cx="83.91" cy="87.49" r="7.5"/><path class="cls-2" d="M88.24,85.54a.49.49,0,0,1-.16.38l-4,4-.76.76a.49.49,0,0,1-.38.16.51.51,0,0,1-.38-.16L81.77,90l-2-2a.49.49,0,0,1-.16-.38.51.51,0,0,1,.16-.38l.75-.76a.55.55,0,0,1,.38-.15.52.52,0,0,1,.38.15l1.64,1.65,3.66-3.67a.54.54,0,0,1,.38-.15.52.52,0,0,1,.38.15l.76.76A.51.51,0,0,1,88.24,85.54Z"/><path class="cls-2" d="M50,56.55a2.85,2.85,0,1,0,2.84,2.84A2.85,2.85,0,0,0,50,56.55Zm0,4.27a1.43,1.43,0,1,1,1.42-1.43A1.42,1.42,0,0,1,50,60.82Z"/><path class="cls-2" d="M72,54.42a4.44,4.44,0,0,1-1.59-.29,20.83,20.83,0,0,1-3.88,8.53,24.91,24.91,0,0,0-5-2.26A36.75,36.75,0,0,0,63,50.71h4.54a4.6,4.6,0,0,1-.08-.84,5.46,5.46,0,0,1,0-.58H63a38.81,38.81,0,0,0-.61-6.23,4.51,4.51,0,0,1-1.37.33,38.34,38.34,0,0,1,.56,5.9H50.77V41.21a38.27,38.27,0,0,0,5.74-.52,4.26,4.26,0,0,1-.36-1.38,37.49,37.49,0,0,1-5.38.48V29.18c.74,0,1.47.09,2.19.19A12.72,12.72,0,0,1,58.26,35a4.57,4.57,0,0,1,1.26-.54,17.72,17.72,0,0,0-3.15-4.31,20.82,20.82,0,0,1,9.19,6l-.92.51A4.43,4.43,0,0,1,65.13,38c.47-.23.92-.48,1.35-.73a20.78,20.78,0,0,1,3.92,8.39A4.69,4.69,0,0,1,72,45.31a4.4,4.4,0,0,1,.73.07A23.15,23.15,0,0,0,35.52,32a4.54,4.54,0,0,1,1.68,1.69,20.56,20.56,0,0,1,6.55-3.49,20.83,20.83,0,0,0-4.75,8c-.52-.17-1-.37-1.52-.57a4.38,4.38,0,0,1-.72,1.24c.59.24,1.19.47,1.81.68a35.5,35.5,0,0,0-1.23,6,3.85,3.85,0,0,1,.48,0,4.23,4.23,0,0,1,.94.1,34.4,34.4,0,0,1,1.13-5.68,37.18,37.18,0,0,0,9.46,1.35v8.08h-7a5.36,5.36,0,0,1,.06.7,4.18,4.18,0,0,1-.07.72h7.05v4.18a4.65,4.65,0,0,1,.66,0,4.77,4.77,0,0,1,.76.07v-4.2H61.61A36.24,36.24,0,0,1,60.27,60a34.43,34.43,0,0,0-5.75-1.12,4.38,4.38,0,0,1,0,.52,5.28,5.28,0,0,1-.09.9,34.49,34.49,0,0,1,5.37,1.05c-1.55,4.53-4,7.91-6.88,9.29-.72.1-1.45.16-2.19.19V63.88A4.77,4.77,0,0,1,50,64a4.65,4.65,0,0,1-.66-.05v6.92c-.74,0-1.47-.09-2.19-.19-2.88-1.38-5.33-4.76-6.88-9.29a34.38,34.38,0,0,1,5.27-1,4.46,4.46,0,0,1-.09-.91,4.36,4.36,0,0,1,0-.51A35.41,35.41,0,0,0,39.85,60a33.14,33.14,0,0,1-1.09-5.54,4.92,4.92,0,0,1-.94.1,3.75,3.75,0,0,1-.48,0,35,35,0,0,0,1.18,5.88,24.91,24.91,0,0,0-5,2.26,20.73,20.73,0,0,1-4.28-11.95h4.06a4.2,4.2,0,0,1-.06-.72,5.36,5.36,0,0,1,0-.7H29.27a20.74,20.74,0,0,1,2.45-9.11,4.6,4.6,0,0,1-2-1.37A23.18,23.18,0,1,0,72.82,54.35,4,4,0,0,1,72,54.42ZM49.35,39.79a36,36,0,0,1-9-1.28c1.55-4.45,4-7.78,6.83-9.14.72-.1,1.45-.16,2.19-.19Zm-14.89,24a23.68,23.68,0,0,1,4.49-2,20.8,20.8,0,0,0,4.8,8.1A20.71,20.71,0,0,1,34.46,63.77Zm21.91,6.08a20.8,20.8,0,0,0,4.8-8.1,23.68,23.68,0,0,1,4.49,2A20.76,20.76,0,0,1,56.37,69.85Z"/><path class="cls-2" d="M60.67,36a2.85,2.85,0,1,0,2.84,2.85A2.85,2.85,0,0,0,60.67,36Zm0,4.27a1.43,1.43,0,1,1,1.42-1.42A1.43,1.43,0,0,1,60.67,40.28Z"/><path class="cls-2" d="M72,47a2.85,2.85,0,1,0,2.84,2.85A2.85,2.85,0,0,0,72,47Zm0,4.27a1.42,1.42,0,1,1,1.42-1.42A1.43,1.43,0,0,1,72,51.29Z"/><path class="cls-2" d="M37.82,47.15A2.85,2.85,0,1,0,40.66,50,2.85,2.85,0,0,0,37.82,47.15Zm0,4.26A1.42,1.42,0,1,1,39.24,50,1.42,1.42,0,0,1,37.82,51.41Z"/><path class="cls-2" d="M33.24,33a2.85,2.85,0,1,0,2.84,2.85A2.85,2.85,0,0,0,33.24,33Zm0,4.27a1.42,1.42,0,1,1,1.42-1.42A1.43,1.43,0,0,1,33.24,37.31Z"/></g></g></svg>