<svg xmlns="http://www.w3.org/2000/svg" viewBox="0 0 100 100"><defs><style>.cls-1{fill:#0a3254;}.cls-2{fill:#fff;}.cls-3{fill:#1ab311;}</style></defs><title>flexible-forms-and-workflows</title><g id="Layer_2" data-name="Layer 2"><g id="Layer_1-2" data-name="Layer 1"><circle class="cls-1" cx="50" cy="50" r="50"/><circle class="cls-2" cx="83.91" cy="87.49" r="10"/><circle class="cls-3" cx="83.91" cy="87.49" r="7.5"/><path class="cls-2" d="M88.24,85.54a.49.49,0,0,1-.16.38l-4,4-.76.76a.49.49,0,0,1-.38.16.51.51,0,0,1-.38-.16L81.77,90l-2-2a.49.49,0,0,1-.16-.38.51.51,0,0,1,.16-.38l.75-.76a.55.55,0,0,1,.38-.15.52.52,0,0,1,.38.15l1.64,1.65,3.66-3.67a.54.54,0,0,1,.38-.15.52.52,0,0,1,.38.15l.76.76A.51.51,0,0,1,88.24,85.54Z"/><path class="cls-2" d="M31.68,64H44.32a.25.25,0,0,0,0-.49H31.68a.25.25,0,0,0,0,.49Zm0-3.48H44.32a.25.25,0,0,0,0-.49H31.68a.25.25,0,0,0,0,.49ZM72.35,25.05H51.65A1.64,1.64,0,0,0,50,26.69V45.05a1.64,1.64,0,0,0,1.65,1.64h20.7A1.64,1.64,0,0,0,74,45.05V26.69A1.64,1.64,0,0,0,72.35,25.05ZM71.2,26.73a.79.79,0,1,1-.78.78A.78.78,0,0,1,71.2,26.73Zm-2.9,0a.79.79,0,1,1-.79.78A.78.78,0,0,1,68.3,26.73Zm-2.9,0a.79.79,0,1,1-.79.78A.79.79,0,0,1,65.4,26.73Zm6.72,18.08H51.88V29.53H72.12ZM31.68,67.51H44.32a.25.25,0,0,0,0-.49H31.68a.25.25,0,0,0,0,.49ZM48.35,51.4H27.65A1.65,1.65,0,0,0,26,53V71.41a1.65,1.65,0,0,0,1.65,1.64h20.7A1.65,1.65,0,0,0,50,71.41V53A1.65,1.65,0,0,0,48.35,51.4ZM47.2,53.08a.79.79,0,0,1,.79.79.79.79,0,1,1-.79-.79Zm-2.9,0a.79.79,0,0,1,.79.79.79.79,0,0,1-1.58,0A.79.79,0,0,1,44.3,53.08Zm-2.9,0a.8.8,0,0,1,.79.79.79.79,0,1,1-.79-.79Zm6.72,18.09H27.88V55.88H48.12Zm7.56-33.5H68.32a.25.25,0,0,0,0-.49H55.68a.25.25,0,0,0,0,.49Zm0,3.48H68.32a.25.25,0,0,0,0-.49H55.68a.25.25,0,0,0,0,.49Zm0-7H68.32a.25.25,0,0,0,0-.49H55.68a.25.25,0,0,0,0,.49Z"/><path class="cls-2" d="M33.38,34.06v7.88H31.23l3.12,3.65,3.12-3.65H35.34V35h8.1v-2H34.36A1,1,0,0,0,33.38,34.06ZM65.65,52.51l-3.12,3.65h2.13v6.9h-8.1v2h9.08a1,1,0,0,0,1-1V56.16h2.15Z"/></g></g></svg>