<svg xmlns="http://www.w3.org/2000/svg" viewBox="0 0 100 100"><defs><style>.cls-1{fill:#0a3254;}.cls-2{fill:#fff;}.cls-3{fill:#1ab311;}</style></defs><title>improved-compliance-assurance</title><g id="Layer_2" data-name="Layer 2"><g id="Layer_1-2" data-name="Layer 1"><circle class="cls-1" cx="50" cy="50" r="50"/><circle class="cls-2" cx="82.46" cy="87.49" r="10"/><circle class="cls-3" cx="82.46" cy="87.49" r="7.5"/><path class="cls-2" d="M86.79,85.54a.49.49,0,0,1-.16.38l-4,4-.76.76a.53.53,0,0,1-.38.16.55.55,0,0,1-.38-.16L80.31,90l-2-2a.52.52,0,0,1-.15-.38.54.54,0,0,1,.15-.38l.76-.76a.54.54,0,0,1,.38-.15.52.52,0,0,1,.38.15l1.64,1.65,3.66-3.67a.54.54,0,0,1,.38-.15.52.52,0,0,1,.38.15l.76.76A.51.51,0,0,1,86.79,85.54Z"/><path class="cls-2" d="M68.06,43.9a2.89,2.89,0,0,0-1.31-2.34l-2.28-1.48,1.09-2.5A2.91,2.91,0,0,0,64.45,34,2.8,2.8,0,0,0,63,33.55l-2.67-.14-.31-2.71a2.88,2.88,0,0,0-4.17-2.24l-2.42,1.23-1.61-2.18a2.89,2.89,0,0,0-2.32-1.17,1.54,1.54,0,0,0-.4,0A3.3,3.3,0,0,0,47,27.82l-1.37,2.11-2.48-1.08a2.94,2.94,0,0,0-3.27.68,3,3,0,0,0-.77,1.89L39,34.06l-2.64.31a2.83,2.83,0,0,0-1.51.6,2.89,2.89,0,0,0-.79,3.59L35.29,41,33.1,42.6a2.89,2.89,0,0,0,.15,4.74l2.28,1.48-1.09,2.5a2.92,2.92,0,0,0,1.11,3.6,2.82,2.82,0,0,0,1.42.43l2.67.14.08.69L34,67.93a2.11,2.11,0,0,0,2.43,3l3.09-.8,1.27,3a2.09,2.09,0,0,0,1.89,1.28h0a2.09,2.09,0,0,0,1.9-1.19l5.2-10.66a2.82,2.82,0,0,0,.65.08h.08a2.73,2.73,0,0,0,.5-.06L56.3,73.15a2.11,2.11,0,0,0,1.9,1.19h0a2.1,2.1,0,0,0,1.9-1.28l1.26-3,3.1.8a2.11,2.11,0,0,0,2.43-3L61,55.71v0l0-.85,2.69-.31A2.89,2.89,0,0,0,66,50.35l-1.24-2.43,2.18-1.62A2.88,2.88,0,0,0,68.06,43.9ZM36.51,68.36l4.17-8.55a2.67,2.67,0,0,0,.77.6,2.92,2.92,0,0,0,2.17.23l-3.43,7a2.16,2.16,0,0,0-1,0Zm6.23,3.06-1.09-2.54a2.16,2.16,0,0,0-.58-.78L45,60l1.51-.77L47.83,61Zm16.54-2.54-1.1,2.54L53,61l1.32-2,1.14.5,4.26,8.72A2,2,0,0,0,59.28,68.88Zm5.14-.52-2.67-.69a2.14,2.14,0,0,0-1.15,0l-3.72-7.62a3,3,0,0,0,3-.49l.17-.16Zm1-24-3,2.22a1.29,1.29,0,0,0-.36,1.59l1.68,3.31a.43.43,0,0,1,0,.41.46.46,0,0,1-.33.23l-3.68.41a1.28,1.28,0,0,0-1.13,1.2l-.19,3.65a.55.55,0,0,1-.14.37.4.4,0,0,1-.47.08l-3.39-1.48a1.25,1.25,0,0,0-1.58.47l-2,3.12a.46.46,0,0,1-.35.2v0a.44.44,0,0,1-.35-.18l-2.21-3a1.26,1.26,0,0,0-1-.52,1.37,1.37,0,0,0-.58.14L43,58.26a.41.41,0,0,1-.4,0,.44.44,0,0,1-.23-.34L42,54.23a1.26,1.26,0,0,0-1.19-1.13l-3.67-.19a.58.58,0,0,1-.22,0,.47.47,0,0,1-.19-.57l1.48-3.4a1.28,1.28,0,0,0-.47-1.58l-3.11-2a.43.43,0,0,1-.2-.36.45.45,0,0,1,.17-.37l3-2.21a1.25,1.25,0,0,0,.38-1.6l-1.68-3.31a.43.43,0,0,1,.13-.56.59.59,0,0,1,.25-.08l3.63-.41a1.27,1.27,0,0,0,1.13-1.2l.19-3.65a.56.56,0,0,1,.11-.33.43.43,0,0,1,.5-.11l3.39,1.48a1.28,1.28,0,0,0,1.59-.48l1.9-3a.85.85,0,0,1,.51-.36.41.41,0,0,1,.31.17l2.21,3a1.25,1.25,0,0,0,1.6.38L57,30.64a.41.41,0,0,1,.4,0,.46.46,0,0,1,.23.34L58,34.67a1.27,1.27,0,0,0,1.2,1.13L62.9,36a.58.58,0,0,1,.22,0,.47.47,0,0,1,.19.57L61.82,40a1.27,1.27,0,0,0,.48,1.55l3.12,2a.42.42,0,0,1,.19.36A.45.45,0,0,1,65.44,44.34Z"/><path class="cls-2" d="M50,35.49a9.06,9.06,0,1,0,9.06,9.06A9.06,9.06,0,0,0,50,35.49Zm2.8,13.65H47.18V47.66H49v-4.5H47.18V41.77a5.12,5.12,0,0,0,.78-.06,2.05,2.05,0,0,0,.62-.16,1,1,0,0,0,.43-.37,1.17,1.17,0,0,0,.17-.58h1.87v7.06H52.8Z"/></g></g></svg>