<svg xmlns="http://www.w3.org/2000/svg" viewBox="0 0 100 100"><defs><style>.cls-1{fill:#0a3254;}.cls-2{fill:#fff;}.cls-3{fill:#1ab311;}</style></defs><title>seamless-user-experience</title><g id="Layer_2" data-name="Layer 2"><g id="Layer_1-2" data-name="Layer 1"><circle class="cls-1" cx="50" cy="50" r="50"/><circle class="cls-2" cx="83.91" cy="87.49" r="10"/><circle class="cls-3" cx="83.91" cy="87.49" r="7.5"/><path class="cls-2" d="M88.24,85.54a.49.49,0,0,1-.16.38l-4,4-.76.76a.49.49,0,0,1-.38.16.51.51,0,0,1-.38-.16L81.77,90l-2-2a.49.49,0,0,1-.16-.38.51.51,0,0,1,.16-.38l.75-.76a.55.55,0,0,1,.38-.15.52.52,0,0,1,.38.15l1.64,1.65,3.66-3.67a.54.54,0,0,1,.38-.15.52.52,0,0,1,.38.15l.76.76A.51.51,0,0,1,88.24,85.54Z"/><path class="cls-2" d="M73.54,64.06,70,58.31V33.83a2.46,2.46,0,0,0-2.45-2.46H32.43A2.46,2.46,0,0,0,30,33.83V58.31l-3.62,5.91A2.47,2.47,0,0,0,26,65.75V66a2.62,2.62,0,0,0,2.61,2.62H71.37A2.62,2.62,0,0,0,74,66v-.22c0-.1,0-.19,0-.28A2.5,2.5,0,0,0,73.54,64.06ZM32.09,33.83a.34.34,0,0,1,.34-.34H67.56a.34.34,0,0,1,.34.34V58H32.09ZM71.88,65.55a.88.88,0,0,0,0,.16V66a.5.5,0,0,1-.49.5H28.62a.5.5,0,0,1-.49-.5v-.32a.66.66,0,0,0,0-.14.37.37,0,0,1,.05-.23l3.68-6H68.14l3.61,5.9.06.09a.27.27,0,0,1,.07.19Zm-8.12-5.4.41.8h3l-.51-.8ZM44.62,63.2,44,65.32H55.9l-.64-2.12Z"/><path class="cls-2" d="M34.25,35.67V56H65.74V35.67ZM53.36,47.41l-2-.07,1.19,2.83L51,50.8,49.86,48l-1.35,1.47a.13.13,0,0,1-.16,0,.17.17,0,0,1-.06-.16l0-6.69a.14.14,0,0,1,.09-.11.16.16,0,0,1,.15,0l4.82,4.63a.17.17,0,0,1,.08.15A.16.16,0,0,1,53.36,47.41Z"/></g></g></svg>