<svg xmlns="http://www.w3.org/2000/svg" viewBox="0 0 100 100"><defs><style>.cls-1{fill:#0a3254;}.cls-2{fill:#fff;}.cls-3{fill:#1ab311;}</style></defs><title>simple-config-and-rapid-implementation</title><g id="Layer_2" data-name="Layer 2"><g id="Layer_1-2" data-name="Layer 1"><circle class="cls-1" cx="50" cy="50" r="50"/><circle class="cls-2" cx="83.91" cy="87.49" r="10"/><circle class="cls-3" cx="83.91" cy="87.49" r="7.5"/><path class="cls-2" d="M88.24,85.54a.49.49,0,0,1-.16.38l-4,4-.76.76a.49.49,0,0,1-.38.16.51.51,0,0,1-.38-.16L81.77,90l-2-2a.49.49,0,0,1-.16-.38.51.51,0,0,1,.16-.38l.75-.76a.55.55,0,0,1,.38-.15.52.52,0,0,1,.38.15l1.64,1.65,3.66-3.67a.54.54,0,0,1,.38-.15.52.52,0,0,1,.38.15l.76.76A.51.51,0,0,1,88.24,85.54Z"/><path class="cls-2" d="M57.18,36.3a6.34,6.34,0,1,0,6.34,6.34A6.34,6.34,0,0,0,57.18,36.3Zm0,10.22a3.89,3.89,0,1,1,3.89-3.88A3.89,3.89,0,0,1,57.18,46.52Zm16.67-6.07-.17-1.37-4.74-.6a12.57,12.57,0,0,0-.6-1.42l2.86-3.81-.87-1.08a16.76,16.76,0,0,0-2.91-2.86l-1.1-.84-3.76,2.92a11.88,11.88,0,0,0-1.43-.58l-.69-4.72-1.37-.15A16.91,16.91,0,0,0,55,26l-1.37.18L53,30.88a11.9,11.9,0,0,0-1.42.61l-3.82-2.86-1.08.87a16.82,16.82,0,0,0-2.87,2.91L43,33.5l2.92,3.76a11,11,0,0,0-.58,1.43l-4.72.68-.16,1.37a17.54,17.54,0,0,0-.1,1.9,18,18,0,0,0,.14,2.18l.18,1.37,4.73.6a11.85,11.85,0,0,0,.6,1.42L43.16,52,44,53.1A16.47,16.47,0,0,0,46.94,56L48,56.8l3.77-2.91a11.83,11.83,0,0,0,1.43.57l.68,4.72,1.38.15a17.54,17.54,0,0,0,1.89.11,16.68,16.68,0,0,0,2.19-.15l1.37-.18.6-4.72a12.57,12.57,0,0,0,1.42-.6l3.82,2.85,1.08-.86a17.12,17.12,0,0,0,2.86-2.91l.84-1.1L68.44,48A13.79,13.79,0,0,0,69,46.58l4.72-.68.15-1.37A17.4,17.4,0,0,0,74,42.64,16.23,16.23,0,0,0,73.85,40.45Zm-2.34,3.3-4.42.64-.21.78a9.71,9.71,0,0,1-.95,2.37l-.4.71,2.73,3.52a14.55,14.55,0,0,1-1.74,1.77l-3.58-2.67-.7.41a10.14,10.14,0,0,1-2.35,1l-.78.22-.56,4.42a14.79,14.79,0,0,1-2.49,0l-.63-4.42-.79-.2a10,10,0,0,1-2.37-1l-.71-.4L48,53.7A13.77,13.77,0,0,1,46.26,52l2.67-3.57-.41-.71a10.06,10.06,0,0,1-1-2.34l-.22-.79L42.87,44c0-.46-.07-.92-.07-1.36s0-.74.05-1.11l4.42-.64.2-.79a10.16,10.16,0,0,1,1-2.37l.4-.7L46.1,33.5a13.85,13.85,0,0,1,1.74-1.77l3.57,2.67.7-.41a10,10,0,0,1,2.36-1l.78-.22.56-4.42a13.71,13.71,0,0,1,2.48,0l.64,4.41.79.21a10,10,0,0,1,2.37.95l.71.4,3.52-2.73a14.63,14.63,0,0,1,1.78,1.74l-2.68,3.57.42.7a9.76,9.76,0,0,1,1,2.35l.22.78,4.43.56a12.7,12.7,0,0,1,.07,1.37C71.55,43,71.54,43.37,71.51,43.75Z"/><path class="cls-2" d="M43.33,63.05,46,61.58l-.08-.28a7.31,7.31,0,0,0-.35-1.09A9.45,9.45,0,0,0,45,59l-.13-.25-2.94.72a7.33,7.33,0,0,0-1.31-1.36l.83-2.9-.25-.15a10,10,0,0,0-2.28-1L38.64,54l-1.57,2.58a7,7,0,0,0-1.89,0l-1.47-2.64-.28.08a9.39,9.39,0,0,0-1.1.34,13.07,13.07,0,0,0-1.21.56l-.26.14.72,2.93a7.67,7.67,0,0,0-1.36,1.31l-2.91-.83-.14.25a10.53,10.53,0,0,0-1,2.28l-.08.27,2.59,1.57a7,7,0,0,0,0,1.88L26,66.14l.07.27c.1.38.22.75.35,1.1A10.89,10.89,0,0,0,27,68.72l.14.26,2.94-.72a6.93,6.93,0,0,0,1.3,1.35l-.82,2.91.24.15a10.71,10.71,0,0,0,2.28,1l.28.08,1.57-2.58a7.39,7.39,0,0,0,1.88,0l1.48,2.64.28-.07a10.06,10.06,0,0,0,1.1-.35,8.67,8.67,0,0,0,1.21-.56l.25-.13-.72-2.94a7,7,0,0,0,1.36-1.3l2.91.82.15-.24a10.71,10.71,0,0,0,1-2.28l.08-.28L43.3,64.94A7.47,7.47,0,0,0,43.33,63.05ZM37.19,67a3.35,3.35,0,1,1,1.94-4.33A3.37,3.37,0,0,1,37.19,67Z"/></g></g></svg>