<svg xmlns="http://www.w3.org/2000/svg" viewBox="0 0 100 100"><defs><style>.cls-1{fill:#0a3254;}.cls-2{fill:#fff;}.cls-3{fill:#1ab311;}</style></defs><title>visibility-analysis-communication</title><g id="Layer_2" data-name="Layer 2"><g id="Layer_1-2" data-name="Layer 1"><circle class="cls-1" cx="50" cy="50" r="50"/><circle class="cls-2" cx="83.91" cy="87.49" r="10"/><circle class="cls-3" cx="83.91" cy="87.49" r="7.5"/><path class="cls-2" d="M88.24,85.54a.49.49,0,0,1-.16.38l-4,4-.76.76a.49.49,0,0,1-.38.16.51.51,0,0,1-.38-.16L81.77,90l-2-2a.49.49,0,0,1-.16-.38.51.51,0,0,1,.16-.38l.75-.76a.55.55,0,0,1,.38-.15.52.52,0,0,1,.38.15l1.64,1.65,3.66-3.67a.54.54,0,0,1,.38-.15.52.52,0,0,1,.38.15l.76.76A.51.51,0,0,1,88.24,85.54Z"/><path class="cls-2" d="M67,34.18a.17.17,0,0,0,0-.12.14.14,0,0,0-.14,0l-3.72.68a.13.13,0,0,0-.11.11A.16.16,0,0,0,63,35l.83.68.72.59-5.9,6.42a1.73,1.73,0,0,0-.84-.23,1.71,1.71,0,0,0-1.47.86l-8.46-2.86c0-.05,0-.09,0-.14a1.7,1.7,0,0,0-3.39,0,1.73,1.73,0,0,0,.11.6l-7.44,5a1.7,1.7,0,1,0,.52,1.22,2.21,2.21,0,0,0,0-.37l7.55-5.09a1.64,1.64,0,0,0,1,.33,1.69,1.69,0,0,0,1.34-.66l8.59,2.91a1.69,1.69,0,0,0,3.38-.11,1.74,1.74,0,0,0-.18-.76l6-6.51.64.52.83.68a.14.14,0,0,0,.16,0,.16.16,0,0,0,.09-.12Z"/><path class="cls-2" d="M55.5,63.76a1,1,0,0,0,0-1.94H45.32a1,1,0,0,0,0,1.94ZM72.29,26.12H28.76a2.23,2.23,0,0,0-2.23,2.23V61.77A2.23,2.23,0,0,0,28.76,64h3.83a1.21,1.21,0,1,0,0-2.42H29v-33H72.1v33H68.23a1.21,1.21,0,0,0,0,2.42h4.06a2.24,2.24,0,0,0,2.24-2.23V28.35A2.24,2.24,0,0,0,72.29,26.12ZM44.91,65.5l-3.08-.88-.45-.7a12.83,12.83,0,0,0,1.38-2.42c1.34-1.46,1.07-2.57.76-3.12.77-3.9-1.52-6.11-4.49-6.11-5.12,0-4.45,5.86-4.39,6.3-.26.61-.35,1.66.93,3a12.25,12.25,0,0,0,1.33,2.3h0l-.46.72-3.08.88c-.34.11-4.17,1.46-4.17,6.8a.45.45,0,0,0,.43.47h2.83v.63a.45.45,0,0,0,.43.47H45.39a.45.45,0,0,0,.43-.47v-.63h2.83a.45.45,0,0,0,.43-.47C49.08,67.07,45.25,65.61,44.91,65.5Zm22.8,0-3.08-.88-.46-.7a11.82,11.82,0,0,0,1.38-2.42c1.34-1.46,1.07-2.57.76-3.12.78-3.9-1.51-6.11-4.48-6.11-5.12,0-4.45,5.86-4.39,6.3-.26.61-.35,1.66.93,3a12.21,12.21,0,0,0,1.32,2.3h0l-.47.72-3.07.88C55.8,65.61,52,67,52,72.3a.45.45,0,0,0,.43.47h2.82v.63a.46.46,0,0,0,.43.47H68.19a.45.45,0,0,0,.43-.47v-.63h2.83a.45.45,0,0,0,.42-.47C71.87,67.07,68,65.61,67.71,65.5Z"/></g></g></svg>