<svg xmlns="http://www.w3.org/2000/svg" viewBox="0 0 36 36"><defs><style>.cls-1{fill:#fff;}.cls-2{fill:#0a3254;}</style></defs><title>internal-audit</title><g id="Layer_2" data-name="Layer 2"><g id="Layer_1-2" data-name="Layer 1"><circle class="cls-1" cx="18" cy="18" r="18"/><path class="cls-2" d="M18,7A11,11,0,1,0,29,18,11,11,0,0,0,18,7Zm6.81,17.81a9.88,9.88,0,0,1-3.06,2.06,9.75,9.75,0,0,1-7.5,0,9.62,9.62,0,0,1-5.12-5.12,9.75,9.75,0,0,1,0-7.5,9.62,9.62,0,0,1,5.12-5.12,9.63,9.63,0,0,1,7.5,0,9.62,9.62,0,0,1,5.12,5.12,9.63,9.63,0,0,1,0,7.5A9.88,9.88,0,0,1,24.81,24.81Z"/><path class="cls-2" d="M23.28,13.56a.68.68,0,0,0-1,0L16,19.84,13.6,17.42a.68.68,0,0,0-1,0l-1,1a.69.69,0,0,0,0,1l3.87,3.85a.68.68,0,0,0,1,0l7.73-7.72a.68.68,0,0,0,0-1Z"/></g></g></svg>