<svg xmlns="http://www.w3.org/2000/svg" viewBox="0 0 100 100"><defs><style>.cls-1{fill:#0a3254;}.cls-2{fill:#fff;}.cls-3{fill:#e65133;}</style></defs><title>assure-compliance</title><g id="Layer_2" data-name="Layer 2"><g id="Layer_1-2" data-name="Layer 1"><circle class="cls-1" cx="50" cy="50" r="50"/><circle class="cls-2" cx="84.12" cy="87.5" r="10"/><circle class="cls-3" cx="84.12" cy="87.5" r="7.5"/><path class="cls-2" d="M88.76,86a.44.44,0,0,1-.14.27l-2,2L87.07,91s0,.06,0,.11a.32.32,0,0,1-.06.2.19.19,0,0,1-.17.08.53.53,0,0,1-.23-.06l-2.5-1.32-2.51,1.32a.49.49,0,0,1-.22.06.19.19,0,0,1-.18-.08.39.39,0,0,1,0-.2.54.54,0,0,1,0-.11l.48-2.79-2-2a.39.39,0,0,1-.14-.27c0-.14.1-.23.31-.26l2.8-.41,1.26-2.53c.07-.16.16-.23.27-.23s.2.07.27.23l1.26,2.53,2.8.41C88.66,85.78,88.76,85.87,88.76,86Z"/><path class="cls-2" d="M68.3,42.54A2.91,2.91,0,0,0,67,40.2l-2.28-1.48,1.08-2.49a2.9,2.9,0,0,0-1.1-3.6,2.94,2.94,0,0,0-1.43-.44l-2.66-.14-.31-2.7a2.91,2.91,0,0,0-1.5-2.22,2.94,2.94,0,0,0-2.68,0L53.7,28.34l-1.61-2.18A2.88,2.88,0,0,0,49.77,25a2.33,2.33,0,0,0-.41,0,3.33,3.33,0,0,0-2.12,1.45l-1.36,2.11L43.39,27.5a2.93,2.93,0,0,0-3.26.68,3,3,0,0,0-.77,1.88l-.13,2.65-2.65.3a3,3,0,0,0-1.51.61,2.88,2.88,0,0,0-.78,3.58l1.24,2.42-2.19,1.62A2.9,2.9,0,0,0,33.49,46l2.28,1.48L34.68,50a2.89,2.89,0,0,0,2.53,4l2.67.14.08.68L34.23,66.58a2.12,2.12,0,0,0,2.43,3l3.09-.8L41,71.7A2.09,2.09,0,0,0,42.91,73H43a2.09,2.09,0,0,0,1.9-1.19l5.19-10.66a2.89,2.89,0,0,0,.65.08h.09a2.74,2.74,0,0,0,.5-.07l5.25,10.65A2.09,2.09,0,0,0,58.44,73h.05a2.11,2.11,0,0,0,1.9-1.28l1.26-2.94,3.09.8a2.12,2.12,0,0,0,2.43-3l-6-12.23h0l0-.86,2.69-.31a2.89,2.89,0,0,0,2.22-1.5,2.94,2.94,0,0,0,0-2.68L65,46.57,67.13,45A2.89,2.89,0,0,0,68.3,42.54ZM36.74,67l4.17-8.56a2.93,2.93,0,0,0,.78.61,2.87,2.87,0,0,0,2.17.22l-3.43,7a2.07,2.07,0,0,0-1,0Zm6.24,3-1.09-2.53a2.19,2.19,0,0,0-.58-.78l4-8.13,1.5-.77,1.3,1.76Zm16.53-2.53-1.09,2.54L53.28,59.65l1.32-2,1.14.5L60,66.84A2.16,2.16,0,0,0,59.51,67.53ZM64.66,67,62,66.31a2.13,2.13,0,0,0-1.15,0l-3.72-7.63a2.9,2.9,0,0,0,3-.49,1.29,1.29,0,0,0,.17-.16Zm1-24-3,2.22a1.29,1.29,0,0,0-.36,1.59L64,50.1a.43.43,0,0,1,0,.41.44.44,0,0,1-.33.23L60,51.16a1.26,1.26,0,0,0-1.13,1.2L58.67,56a.55.55,0,0,1-.14.37.4.4,0,0,1-.47.08L54.67,55a1.29,1.29,0,0,0-1.59.47l-2,3.12a.43.43,0,0,1-.36.2v0a.41.41,0,0,1-.34-.18l-2.21-3a1.25,1.25,0,0,0-1-.51,1.24,1.24,0,0,0-.58.14l-3.3,1.69a.43.43,0,0,1-.4,0,.42.42,0,0,1-.23-.33l-.42-3.69A1.28,1.28,0,0,0,41,51.74l-3.66-.19a.41.41,0,0,1-.22,0,.44.44,0,0,1-.19-.56l1.48-3.4A1.27,1.27,0,0,0,37.94,46l-3.12-2a.44.44,0,0,1-.2-.35.46.46,0,0,1,.18-.37l3-2.21a1.26,1.26,0,0,0,.38-1.6l-1.69-3.31a.46.46,0,0,1,.14-.57.7.7,0,0,1,.25-.08L40.49,35a1.28,1.28,0,0,0,1.13-1.2l.19-3.64a.59.59,0,0,1,.11-.34.45.45,0,0,1,.5-.11l3.39,1.48a1.26,1.26,0,0,0,1.58-.47L49.3,27.8a.83.83,0,0,1,.51-.37.44.44,0,0,1,.31.18l2.2,3a1.28,1.28,0,0,0,1.61.37l3.3-1.69a.44.44,0,0,1,.4,0,.42.42,0,0,1,.23.33l.41,3.69a1.29,1.29,0,0,0,1.2,1.14l3.67.19a.44.44,0,0,1,.22,0,.46.46,0,0,1,.19.56l-1.49,3.44a1.27,1.27,0,0,0,.48,1.55l3.11,2a.43.43,0,0,1,.2.35A.41.41,0,0,1,65.67,43Z"/><path class="cls-2" d="M50.24,34.13a9.06,9.06,0,1,0,9.06,9.06A9.07,9.07,0,0,0,50.24,34.13Z"/><polygon class="cls-1" points="54.24 39.43 48.81 44.85 46.15 42.29 44.78 43.72 48.84 47.62 55.64 40.83 54.24 39.43"/></g></g></svg>