<svg xmlns="http://www.w3.org/2000/svg" viewBox="0 0 100 100"><defs><style>.cls-1{fill:#0a3254;}.cls-2{fill:#fff;}.cls-3{fill:#e65133;}</style></defs><title>global-oversight</title><g id="Layer_2" data-name="Layer 2"><g id="Layer_1-2" data-name="Layer 1"><circle class="cls-1" cx="50" cy="50" r="50"/><circle class="cls-2" cx="83.75" cy="87.5" r="10"/><circle class="cls-3" cx="83.75" cy="87.5" r="7.5"/><path class="cls-2" d="M88.39,86a.44.44,0,0,1-.14.27l-2,2L86.7,91a.34.34,0,0,1,0,.11.32.32,0,0,1-.06.2.19.19,0,0,1-.17.08.46.46,0,0,1-.22-.06l-2.51-1.32-2.51,1.32a.49.49,0,0,1-.22.06.17.17,0,0,1-.17-.08.32.32,0,0,1-.06-.2.54.54,0,0,1,0-.11l.48-2.79-2-2a.39.39,0,0,1-.14-.27c0-.14.1-.23.31-.26l2.8-.41,1.26-2.53c.07-.16.16-.23.27-.23s.2.07.27.23l1.26,2.53,2.8.41C88.29,85.78,88.39,85.87,88.39,86Z"/><path class="cls-2" d="M50.33,56.85a2.85,2.85,0,1,0,2.84,2.84A2.84,2.84,0,0,0,50.33,56.85Zm0,4.26a1.42,1.42,0,1,1,1.42-1.42A1.42,1.42,0,0,1,50.33,61.11Z"/><path class="cls-2" d="M72.37,54.72a4.63,4.63,0,0,1-1.59-.29A20.83,20.83,0,0,1,66.9,63a25,25,0,0,0-5-2.26A36.33,36.33,0,0,0,63.36,51H67.9a4.78,4.78,0,0,1-.08-.84,3.69,3.69,0,0,1,0-.58h-4.5a37.58,37.58,0,0,0-.62-6.23,4.37,4.37,0,0,1-1.37.33,38.32,38.32,0,0,1,.57,5.9H51.1V41.51A38.27,38.27,0,0,0,56.84,41a4.62,4.62,0,0,1-.37-1.38,37.48,37.48,0,0,1-5.37.48V29.48a19.8,19.8,0,0,1,2.19.19,12.65,12.65,0,0,1,5.29,5.63,4.73,4.73,0,0,1,1.26-.55,17.82,17.82,0,0,0-3.14-4.31,20.93,20.93,0,0,1,9.19,6c-.3.17-.61.34-.93.5a4.41,4.41,0,0,1,.5,1.34c.46-.23.92-.48,1.35-.74a20.67,20.67,0,0,1,3.91,8.4,4.52,4.52,0,0,1,1.65-.31,5.83,5.83,0,0,1,.73.06A23.15,23.15,0,0,0,35.84,32.25a4.54,4.54,0,0,1,1.68,1.69,20.83,20.83,0,0,1,6.56-3.5,20.75,20.75,0,0,0-4.75,8c-.52-.17-1-.37-1.52-.57a4.79,4.79,0,0,1-.72,1.24c.58.24,1.18.47,1.8.68a35.11,35.11,0,0,0-1.22,6,3.59,3.59,0,0,1,.47,0,4.83,4.83,0,0,1,.94.1,34.26,34.26,0,0,1,1.14-5.67,37.63,37.63,0,0,0,9.46,1.35v8.08h-7a4,4,0,0,1,.06.7,4.37,4.37,0,0,1-.06.72h7v4.18a4.62,4.62,0,0,1,.65,0,3.94,3.94,0,0,1,.77.07V51H61.94a35.8,35.8,0,0,1-1.35,9.28,35.56,35.56,0,0,0-5.74-1.13,4.71,4.71,0,0,1,0,.53,4.43,4.43,0,0,1-.09.9,33.28,33.28,0,0,1,5.38,1c-1.55,4.53-4,7.91-6.88,9.29-.72.1-1.45.16-2.19.19V64.18a4.9,4.9,0,0,1-.77.07,3.49,3.49,0,0,1-.65-.06v6.93c-.75,0-1.48-.09-2.2-.19-2.88-1.38-5.32-4.76-6.87-9.29a34.49,34.49,0,0,1,5.26-1,4.53,4.53,0,0,1-.09-.91c0-.17,0-.34,0-.51a35.51,35.51,0,0,0-5.63,1.11,34.38,34.38,0,0,1-1.1-5.54,4.83,4.83,0,0,1-.94.09,3.62,3.62,0,0,1-.47,0,35.17,35.17,0,0,0,1.18,5.88,25.26,25.26,0,0,0-5,2.26,20.88,20.88,0,0,1-4.28-12h4.06a5.83,5.83,0,0,1-.06-.72,5.36,5.36,0,0,1,.06-.7H29.59a20.83,20.83,0,0,1,2.46-9.12,4.43,4.43,0,0,1-2-1.36A23.18,23.18,0,1,0,73.15,54.65,5.14,5.14,0,0,1,72.37,54.72ZM49.68,40.09a35.9,35.9,0,0,1-9-1.28c1.55-4.45,4-7.78,6.82-9.14a19.77,19.77,0,0,1,2.2-.19Zm-14.89,24a23.68,23.68,0,0,1,4.49-2,20.83,20.83,0,0,0,4.8,8.1A20.87,20.87,0,0,1,34.79,64.07ZM56.7,70.15a21,21,0,0,0,4.8-8.1,23.87,23.87,0,0,1,4.48,2A20.9,20.9,0,0,1,56.7,70.15Z"/><path class="cls-2" d="M61,36.31a2.85,2.85,0,1,0,2.84,2.85A2.84,2.84,0,0,0,61,36.31Zm0,4.27a1.43,1.43,0,1,1,1.42-1.42A1.43,1.43,0,0,1,61,40.58Z"/><path class="cls-2" d="M72.37,47.32a2.85,2.85,0,1,0,2.84,2.85A2.84,2.84,0,0,0,72.37,47.32Zm0,4.27a1.43,1.43,0,1,1,1.42-1.42A1.42,1.42,0,0,1,72.37,51.59Z"/><path class="cls-2" d="M38.14,47.44A2.85,2.85,0,1,0,41,50.29,2.85,2.85,0,0,0,38.14,47.44Zm0,4.27a1.42,1.42,0,1,1,1.42-1.42A1.43,1.43,0,0,1,38.14,51.71Z"/><path class="cls-2" d="M33.57,33.34a2.85,2.85,0,1,0,2.84,2.85A2.85,2.85,0,0,0,33.57,33.34Zm0,4.27A1.43,1.43,0,1,1,35,36.19,1.43,1.43,0,0,1,33.57,37.61Z"/></g></g></svg>