<svg xmlns="http://www.w3.org/2000/svg" viewBox="0 0 100 100"><defs><style>.cls-1{fill:#0a3254;}.cls-2{fill:#fff;}.cls-3{fill:#e65133;}</style></defs><title>improve-productivity</title><g id="Layer_2" data-name="Layer 2"><g id="Layer_1-2" data-name="Layer 1"><circle class="cls-1" cx="50" cy="50" r="50"/><circle class="cls-2" cx="84.12" cy="87.5" r="10"/><circle class="cls-3" cx="84.12" cy="87.5" r="7.5"/><path class="cls-2" d="M88.76,86a.44.44,0,0,1-.14.27l-2,2L87.07,91s0,.06,0,.11a.32.32,0,0,1-.06.2.19.19,0,0,1-.17.08.53.53,0,0,1-.23-.06l-2.5-1.32-2.51,1.32a.49.49,0,0,1-.22.06.19.19,0,0,1-.18-.08.39.39,0,0,1,0-.2.54.54,0,0,1,0-.11l.48-2.79-2-2a.39.39,0,0,1-.14-.27c0-.14.1-.23.31-.26l2.8-.41,1.26-2.53c.07-.16.16-.23.27-.23s.2.07.27.23l1.26,2.53,2.8.41C88.66,85.78,88.76,85.87,88.76,86Z"/><path class="cls-2" d="M58.92,57.34,57.3,55.71a.53.53,0,0,0-.37-.15.48.48,0,0,0-.2,0,.52.52,0,0,0-.31.48v1.33a6.09,6.09,0,0,1-6-5.65V47.87h-1v3.88a6.05,6.05,0,0,1-6,5.66V56.08a.53.53,0,0,0-.32-.48.45.45,0,0,0-.2,0,.51.51,0,0,0-.36.15L41,57.34a.52.52,0,0,0,0,.73l1.63,1.63a.51.51,0,0,0,.36.15.65.65,0,0,0,.2,0,.53.53,0,0,0,.32-.48V58.4A7,7,0,0,0,50,53.86a7,7,0,0,0,6.46,4.54v.93a.52.52,0,0,0,.31.48.71.71,0,0,0,.2,0,.58.58,0,0,0,.37-.15l1.62-1.63A.52.52,0,0,0,58.92,57.34Z"/><polygon class="cls-2" points="49.52 39.08 49.23 43.86 50.72 43.86 50.42 39.08 49.52 39.08"/><path class="cls-2" d="M50.45,38.73l.44-.62-.27-.71H49.33l-.27.71.43.62Z"/><path class="cls-2" d="M54.92,36.9l-1.84-.68-.65-.76A5.67,5.67,0,0,0,53,34.33a2.83,2.83,0,0,0,1.34-2.12c0-.22.05-.75-.18-1a.43.43,0,0,0-.37-.11c.57-3-1.37-4.7-3.89-4.7C46,26.44,46,30,46.08,31.13a.44.44,0,0,0-.28.12c-.24.21-.21.74-.19,1A2.86,2.86,0,0,0,47,34.34l0,0a6.24,6.24,0,0,0,.52,1.07l-.68.79L45,36.9c-.32.1-3.62,1.27-3.62,7.15a.47.47,0,0,0,.47.48h2.3v0a.48.48,0,0,0,.47.48H55.3a.49.49,0,0,0,.48-.48v0h2.29a.48.48,0,0,0,.48-.48C58.55,38.17,55.25,37,54.92,36.9Zm-1.42-5a1.31,1.31,0,0,1,.26-.16,2.28,2.28,0,0,1-.47,1.61A8.74,8.74,0,0,0,53.5,31.88Zm-7.32-.16a1.58,1.58,0,0,1,.32.21,9.11,9.11,0,0,0,.22,1.48A2.3,2.3,0,0,1,46.18,31.72Zm5-2a3,3,0,0,0,1.33,1.13,3.91,3.91,0,0,1,0,.49c0,2.26-1,4.7-2.57,4.7s-2.53-2.36-2.57-4.59A6.13,6.13,0,0,0,51.21,29.73Zm-3.92,7.34a.56.56,0,0,0,.2-.14l.63-.74a2.55,2.55,0,0,0,3.71,0l.61.72a.48.48,0,0,0,.2.14l.7.26-2.09,6.78H48.71l-2.17-6.76Z"/><polygon class="cls-2" points="34.11 63.34 33.81 68.11 35.3 68.11 35.01 63.34 34.11 63.34"/><path class="cls-2" d="M35,63l.43-.62-.27-.71H33.91l-.27.71.44.62Z"/><path class="cls-2" d="M39.51,61.15l-1.85-.67L37,59.72a7,7,0,0,0,.56-1.13,2.88,2.88,0,0,0,1.34-2.13c0-.22,0-.74-.19-1a.45.45,0,0,0-.36-.12c.57-3-1.37-4.69-3.89-4.69-3.87,0-3.9,3.58-3.81,4.69a.44.44,0,0,0-.29.12c-.23.21-.21.73-.18,1a2.82,2.82,0,0,0,1.35,2.14h0a6.25,6.25,0,0,0,.52,1.07l-.67.8-1.85.67c-.32.1-3.62,1.28-3.62,7.16a.47.47,0,0,0,.47.47h2.3v0a.48.48,0,0,0,.48.47H39.88a.47.47,0,0,0,.48-.47v0h2.3a.47.47,0,0,0,.47-.47C43.13,62.43,39.83,61.25,39.51,61.15Zm-1.43-5a1.7,1.7,0,0,1,.27-.16,2.31,2.31,0,0,1-.47,1.6A9.6,9.6,0,0,0,38.08,56.14ZM30.77,56a1.35,1.35,0,0,1,.32.2,9.1,9.1,0,0,0,.21,1.48A2.27,2.27,0,0,1,30.77,56Zm5-2a3,3,0,0,0,1.33,1.12c0,.16,0,.32,0,.49,0,2.26-1,4.71-2.57,4.71S32.05,58,32,55.72A6.24,6.24,0,0,0,35.8,54Zm-3.93,7.33a.39.39,0,0,0,.2-.13l.64-.75a2.55,2.55,0,0,0,3.7,0l.61.72a.44.44,0,0,0,.2.13l.7.26-2.09,6.78H33.29L31.12,61.6Z"/><polygon class="cls-2" points="64.94 63.34 64.64 68.11 66.13 68.11 65.84 63.34 64.94 63.34"/><path class="cls-2" d="M65.87,63l.43-.62L66,61.65H64.75l-.28.71.44.62Z"/><path class="cls-2" d="M70.34,61.15l-1.84-.67-.65-.76a6.26,6.26,0,0,0,.56-1.13,2.85,2.85,0,0,0,1.34-2.13c0-.22,0-.74-.19-1a.44.44,0,0,0-.36-.12c.57-3-1.37-4.69-3.89-4.69-3.86,0-3.89,3.58-3.81,4.69a.44.44,0,0,0-.29.12c-.23.21-.2.73-.18,1a2.85,2.85,0,0,0,1.35,2.14h0a5.06,5.06,0,0,0,.52,1.07l-.68.8-1.84.67c-.33.1-3.63,1.28-3.63,7.16a.48.48,0,0,0,.48.47h2.29v0a.48.48,0,0,0,.48.47H70.72a.47.47,0,0,0,.47-.47v0h2.3a.47.47,0,0,0,.47-.47C74,62.43,70.66,61.25,70.34,61.15Zm-1.42-5a1.31,1.31,0,0,1,.26-.16,2.31,2.31,0,0,1-.47,1.6A8.47,8.47,0,0,0,68.92,56.14ZM61.6,56a1.35,1.35,0,0,1,.32.2,9.1,9.1,0,0,0,.21,1.48A2.27,2.27,0,0,1,61.6,56Zm5-2A3,3,0,0,0,68,55.11c0,.16,0,.32,0,.49,0,2.26-1,4.71-2.56,4.71S62.88,58,62.85,55.72A6.24,6.24,0,0,0,66.63,54ZM62.7,61.32a.39.39,0,0,0,.2-.13l.64-.75a2.55,2.55,0,0,0,3.7,0l.61.72a.44.44,0,0,0,.2.13l.71.26-2.09,6.78H64.12L62,61.6Z"/></g></g></svg>