<svg xmlns="http://www.w3.org/2000/svg" viewBox="0 0 100 100"><defs><style>.cls-1{fill:#0a3254;}.cls-2{fill:#fff;}.cls-3{fill:#e65133;}</style></defs><title>risk-based-approach</title><g id="Layer_2" data-name="Layer 2"><g id="Layer_1-2" data-name="Layer 1"><circle class="cls-1" cx="50" cy="50" r="50"/><circle class="cls-2" cx="84.12" cy="87.5" r="10"/><circle class="cls-3" cx="84.12" cy="87.5" r="7.5"/><path class="cls-2" d="M88.76,86a.44.44,0,0,1-.14.27l-2,2L87.07,91s0,.06,0,.11a.32.32,0,0,1-.06.2.19.19,0,0,1-.17.08.53.53,0,0,1-.23-.06l-2.5-1.32-2.51,1.32a.49.49,0,0,1-.22.06.19.19,0,0,1-.18-.08.39.39,0,0,1,0-.2.54.54,0,0,1,0-.11l.48-2.79-2-2a.39.39,0,0,1-.14-.27c0-.14.1-.23.31-.26l2.8-.41,1.26-2.53c.07-.16.16-.23.27-.23s.2.07.27.23l1.26,2.53,2.8.41C88.66,85.78,88.76,85.87,88.76,86Z"/><polygon class="cls-2" points="68.31 69.11 68.31 33.43 62.94 37.76 62.94 69.11 57.67 69.11 57.67 42 55.06 44.11 52.31 43 52.31 69.11 47.04 69.11 47.04 40.88 44.24 39.75 41.67 41.53 41.67 69.11 36.4 69.11 36.4 45.21 31.03 48.95 31.03 69.11 25.64 69.11 25.64 71.65 73.42 71.65 73.42 69.11 68.31 69.11"/><path class="cls-2" d="M71.69,25.94l-5.77-.11a.21.21,0,0,0-.16.34l1.62,2a.2.2,0,0,1,0,.29L54.74,38.62a1,1,0,0,1-1,.15l-9.63-3.88a.93.93,0,0,0-.91.1L25.83,47.18a1,1,0,0,0,1.11,1.58L43.49,37.22a1,1,0,0,1,.91-.1L54.11,41a1,1,0,0,0,1-.14L68.6,30a.21.21,0,0,1,.29,0L70.46,32a.21.21,0,0,0,.36-.1l1.07-5.67A.2.2,0,0,0,71.69,25.94Z"/></g></g></svg>