<svg xmlns="http://www.w3.org/2000/svg" viewBox="0 0 100 100"><defs><style>.cls-1{fill:#0a3254;}.cls-2{fill:#fff;}.cls-3{fill:#e65133;}</style></defs><title>customer-requirements</title><g id="Layer_2" data-name="Layer 2"><g id="Layer_1-2" data-name="Layer 1"><circle class="cls-1" cx="50" cy="50" r="50"/><circle class="cls-2" cx="84.12" cy="87.5" r="10"/><circle class="cls-3" cx="84.12" cy="87.5" r="7.5"/><path class="cls-2" d="M88.76,86a.44.44,0,0,1-.14.27l-2,2L87.07,91s0,.06,0,.11a.32.32,0,0,1-.06.2.19.19,0,0,1-.17.08.53.53,0,0,1-.23-.06l-2.5-1.32-2.51,1.32a.49.49,0,0,1-.22.06.19.19,0,0,1-.18-.08.39.39,0,0,1,0-.2.54.54,0,0,1,0-.11l.48-2.79-2-2a.39.39,0,0,1-.14-.27c0-.14.1-.23.31-.26l2.8-.41,1.26-2.53c.07-.16.16-.23.27-.23s.2.07.27.23l1.26,2.53,2.8.41C88.66,85.78,88.76,85.87,88.76,86Z"/><path class="cls-2" d="M25.62,45V69.76H37V45Zm5.69,22.44A1.71,1.71,0,1,1,33,65.7,1.72,1.72,0,0,1,31.31,67.41Z"/><path class="cls-2" d="M73.58,53.17a4.08,4.08,0,0,0-1.16-2.85,4.09,4.09,0,0,0-2.91-7H64.79A12.3,12.3,0,0,0,68.07,31.7a3.68,3.68,0,0,0-3.28-2.54,3.43,3.43,0,0,0-3.4,2.19c-2,4.49-9.78,8.21-9.86,8.25a1,1,0,0,0-.26.16l-9.5,7.82H39.66V50h2.55a1.24,1.24,0,0,0,.78-.28l9.73-8c1.17-.57,8.69-4.38,10.91-9.4a1,1,0,0,1,1-.73,1.27,1.27,0,0,1,1.09.78c.18.62,1.6,6.14-4.56,11H60.09a1.23,1.23,0,0,0,0,2.45h9.42a1.65,1.65,0,1,1,0,3.29H64.69a1.23,1.23,0,1,0,0,2.45h4.79a1.65,1.65,0,1,1,0,3.29H64.69a1.23,1.23,0,1,0,0,2.45H69a1.65,1.65,0,1,1,0,3.29H64.69a1.23,1.23,0,1,0,0,2.45v.09h2.25a1.65,1.65,0,1,1,0,3.29H47.72l-4.81-1.28a1.32,1.32,0,0,0-.33,0l-2.92,0v2.45l2.78,0,4.8,1.29a1.65,1.65,0,0,0,.31,0H66.94a4.11,4.11,0,0,0,4.1-4.1,4,4,0,0,0-.53-2,4.07,4.07,0,0,0,1.65-6.46A4.1,4.1,0,0,0,73.58,53.17Z"/></g></g></svg>