<svg xmlns="http://www.w3.org/2000/svg" viewBox="0 0 100 100"><defs><style>.cls-1{fill:#0a3254;}.cls-2{fill:#fff;}.cls-3{fill:#e65133;}</style></defs><title>manual-document-creation</title><g id="Layer_2" data-name="Layer 2"><g id="Layer_1-2" data-name="Layer 1"><circle class="cls-1" cx="50" cy="50" r="50"/><circle class="cls-2" cx="83.75" cy="87.5" r="10"/><circle class="cls-3" cx="83.75" cy="87.5" r="7.5"/><path class="cls-2" d="M88.39,86a.44.44,0,0,1-.14.27l-2,2L86.7,91a.34.34,0,0,1,0,.11.32.32,0,0,1-.06.2.19.19,0,0,1-.17.08.46.46,0,0,1-.22-.06l-2.51-1.32-2.51,1.32a.49.49,0,0,1-.22.06.17.17,0,0,1-.17-.08.32.32,0,0,1-.06-.2.54.54,0,0,1,0-.11l.48-2.79-2-2a.39.39,0,0,1-.14-.27c0-.14.1-.23.31-.26l2.8-.41,1.26-2.53c.07-.16.16-.23.27-.23s.2.07.27.23l1.26,2.53,2.8.41C88.29,85.78,88.39,85.87,88.39,86Z"/><path class="cls-2" d="M55.93,54.66H37.86a.74.74,0,1,0,0,1.47H55.93a.74.74,0,1,0,0-1.47Zm3.25-8.52H37.86a.74.74,0,1,0,0,1.47H59.18a.74.74,0,1,0,0-1.47Zm-4.64,17H45.6a.74.74,0,0,0,0,1.47h8.94a.74.74,0,1,0,0-1.47ZM37.86,39.09h7.27a.74.74,0,0,0,0-1.47H37.86a.74.74,0,1,0,0,1.47ZM71.5,47.17a2.9,2.9,0,0,0-1.3-1.8L69.58,45a2.87,2.87,0,0,0-4,1l-.92,1.46,5.51,3.49.94-1.55A2.92,2.92,0,0,0,71.5,47.17Z"/><path class="cls-2" d="M64.42,71.55H30.66V28.45H52.93v9.14A2.37,2.37,0,0,0,55.29,40h9.13v4.48a4.61,4.61,0,0,1,2.44-1.57V37.24L55.65,26H28.21V74H66.86V60l-2.44,4.06Zm-9-42.35,8.29,8.31H55.38Zm2.87,28.58a1.07,1.07,0,0,0-.13.38s0,1.8-.07,3.38h0c0,1.51-.08,3-.08,3l2.58-1.35,3.1-1.62a1,1,0,0,0,.3-.31l5.54-9.11L64,48.6Zm1.32,4.73L59,62.14c0-1.08.08-3.08.08-3.08l3.3,2Z"/></g></g></svg>