<svg xmlns="http://www.w3.org/2000/svg" viewBox="0 0 100 100"><defs><style>.cls-1{fill:#0a3254;}.cls-2{fill:#fff;}.cls-3{fill:#e65133;}</style></defs><title>process-risks</title><g id="Layer_2" data-name="Layer 2"><g id="Layer_1-2" data-name="Layer 1"><circle class="cls-1" cx="50" cy="50" r="50"/><circle class="cls-2" cx="84.12" cy="87.5" r="10"/><circle class="cls-3" cx="84.12" cy="87.5" r="7.5"/><path class="cls-2" d="M88.76,86a.44.44,0,0,1-.14.27l-2,2L87.07,91s0,.06,0,.11a.32.32,0,0,1-.06.2.19.19,0,0,1-.17.08.53.53,0,0,1-.23-.06l-2.5-1.32-2.51,1.32a.49.49,0,0,1-.22.06.19.19,0,0,1-.18-.08.39.39,0,0,1,0-.2.54.54,0,0,1,0-.11l.48-2.79-2-2a.39.39,0,0,1-.14-.27c0-.14.1-.23.31-.26l2.8-.41,1.26-2.53c.07-.16.16-.23.27-.23s.2.07.27.23l1.26,2.53,2.8.41C88.66,85.78,88.76,85.87,88.76,86Z"/><path class="cls-2" d="M52.18,44.38H49.85V53H48.58V47.17H46.24V53H45V50.25H42.64V53H41.2v.61H53.65V53H52.18ZM67.32,33.3v1.85h7.06V33.3ZM27.25,31.75H33V29.9H27.25Zm42.13,29.8h4.89V59.7H69.38Zm-43,6.33h4.89V66H26.38Z"/><path class="cls-2" d="M58.33,39a.65.65,0,0,0-.65.65.66.66,0,0,0,.65.66.67.67,0,0,0,.66-.66.76.76,0,0,0-.06-.26l4.92-4.94h2a.21.21,0,0,0,.22-.21.22.22,0,0,0-.22-.22H63.67l-5,5.05A.73.73,0,0,0,58.33,39ZM34.48,31.08h2L41.4,36a.6.6,0,0,0-.06.27.66.66,0,0,0,.66.65.65.65,0,0,0,0-1.3.6.6,0,0,0-.3.07l-5-5.06H34.48a.22.22,0,0,0,0,.44ZM67.91,60.37h-2L61,55.44a.66.66,0,0,0,.06-.27.65.65,0,1,0-.65.65.73.73,0,0,0,.29-.07l5,5h2.18a.21.21,0,0,0,.22-.21A.22.22,0,0,0,67.91,60.37Zm-10.8-2.12L55.78,57h5.5l-.44-.43H55.75a11.42,11.42,0,0,0,1-1.3h2.55s0,0,0,0a1,1,0,0,1,.08-.39H57a8.71,8.71,0,0,0,.64-1.3h7.08c-.1.44-.22.88-.36,1.3H61.44a1.23,1.23,0,0,1,.07.39v0h2.71c-.16.44-.33.87-.52,1.3h-1l.44.43h.38c0,.09-.09.17-.13.26l1.3,1.3A19.13,19.13,0,0,0,62.14,36.8l-2.71,2.72a.77.77,0,0,1,0,.15,1.12,1.12,0,1,1-1.12-1.11l.2,0,2.72-2.73A19,19,0,0,0,39.1,32.47l1.3,1.3a17.35,17.35,0,0,1,7-1.69v6.79A10.55,10.55,0,0,0,40.36,42l-4.85-4.71a17.27,17.27,0,0,1,3.68-2.85l-1.27-1.28a19.13,19.13,0,0,0-1.7,31.48l1.23-1.23a17.39,17.39,0,0,1-2.53-25.49l4.86,4.73A10.58,10.58,0,0,0,54.93,57.34l4.86,4.73a17.26,17.26,0,0,1-21.25,2.06l-1.25,1.26A19,19,0,0,0,64,59.67l-1.42-1.42Zm1.32-8.35h6.76c0,.48,0,1-.1,1.42H58.27A9.64,9.64,0,0,0,58.43,49.9Zm-.24,1.85H65c-.06.44-.13.87-.22,1.3h-7A10.85,10.85,0,0,0,58.19,51.75ZM47.85,58.34a8.88,8.88,0,1,1,8.85-8.88A8.87,8.87,0,0,1,47.85,58.34Zm12.56,3.11-1.07-1h2C61,60.78,60.72,61.12,60.41,61.45ZM61.66,60H58.89l-1.33-1.29h5C62.27,59.13,62,59.57,61.66,60Zm-21.4,2.18a.65.65,0,0,0,0-1.3.66.66,0,0,0-.66.65.88.88,0,0,0,.06.27l-4.92,4.93h-2a.22.22,0,0,0-.22.22.21.21,0,0,0,.22.21h2.18l5-5A.73.73,0,0,0,40.26,62.16Z"/></g></g></svg>