<svg xmlns="http://www.w3.org/2000/svg" viewBox="0 0 100 100"><defs><style>.cls-1{fill:#0a3254;}.cls-2{fill:#fff;}.cls-3{fill:#e65133;}</style></defs><title>visibility-of-lead-times</title><g id="Layer_2" data-name="Layer 2"><g id="Layer_1-2" data-name="Layer 1"><circle class="cls-1" cx="50" cy="50" r="50"/><circle class="cls-2" cx="84.12" cy="87.5" r="10"/><circle class="cls-3" cx="84.12" cy="87.5" r="7.5"/><path class="cls-2" d="M88.76,86a.44.44,0,0,1-.14.27l-2,2L87.07,91s0,.06,0,.11a.32.32,0,0,1-.06.2.19.19,0,0,1-.17.08.53.53,0,0,1-.23-.06l-2.5-1.32-2.51,1.32a.49.49,0,0,1-.22.06.19.19,0,0,1-.18-.08.39.39,0,0,1,0-.2.54.54,0,0,1,0-.11l.48-2.79-2-2a.39.39,0,0,1-.14-.27c0-.14.1-.23.31-.26l2.8-.41,1.26-2.53c.07-.16.16-.23.27-.23s.2.07.27.23l1.26,2.53,2.8.41C88.66,85.78,88.76,85.87,88.76,86Z"/><path class="cls-2" d="M50,26.61a9.28,9.28,0,0,0-8.51,12.91.56.56,0,0,0,0,.12L49.24,56a.83.83,0,0,0,.76.48.85.85,0,0,0,.76-.48l7.7-16.32a.07.07,0,0,0,0,0,9.26,9.26,0,0,0-8.47-13Zm0,13.56a4.74,4.74,0,1,1,4.72-4.74A4.74,4.74,0,0,1,50,40.17ZM61.24,54.64v4.28h4.27V54.64Z"/><path class="cls-2" d="M71.33,34.61H63.55a1.21,1.21,0,1,0,0,2.42h7.78a.24.24,0,0,1,.25.23V49.82H58.25A1.22,1.22,0,0,0,57,51V62.75H39.25A2.11,2.11,0,0,0,38,61.46V52.25h3.8a1.22,1.22,0,0,0,0-2.43H28.42V37.26a.24.24,0,0,1,.25-.23h7.57a1.21,1.21,0,0,0,0-2.42H28.67A2.67,2.67,0,0,0,26,37.26V70.74a2.67,2.67,0,0,0,2.67,2.65H71.33A2.67,2.67,0,0,0,74,70.74V37.26A2.67,2.67,0,0,0,71.33,34.61ZM59.47,52.25H71.58v10.5H59.47ZM38,65.43a2.09,2.09,0,0,0,1.27-1.23H57V71H38ZM36.51,52.25v9.24a2.07,2.07,0,0,0-1.21,1.26H28.42V52.25ZM28.42,70.74V64.2h6.9a2.07,2.07,0,0,0,1.19,1.2V71H28.67A.24.24,0,0,1,28.42,70.74ZM71.33,71H59.47V64.2H71.58v6.54A.24.24,0,0,1,71.33,71Z"/></g></g></svg>