<svg xmlns="http://www.w3.org/2000/svg" viewBox="0 0 100 100"><defs><style>.cls-1{fill:#0a3254;}.cls-2{fill:#fff;}.cls-3{fill:#1ab211;}</style></defs><title>audit-reports</title><g id="Layer_2" data-name="Layer 2"><g id="Layer_1-2" data-name="Layer 1"><circle class="cls-1" cx="50" cy="50" r="50"/><circle class="cls-2" cx="82.12" cy="87.49" r="10"/><circle class="cls-3" cx="82.12" cy="87.49" r="7.5"/><path class="cls-2" d="M86.45,85.54a.49.49,0,0,1-.16.38l-4,4-.76.76a.49.49,0,0,1-.37.16.49.49,0,0,1-.38-.16L80,90l-2-2a.49.49,0,0,1-.16-.38.51.51,0,0,1,.16-.38l.76-.76a.51.51,0,0,1,.37-.15.52.52,0,0,1,.38.15l1.65,1.65,3.66-3.67a.52.52,0,0,1,.38-.15.51.51,0,0,1,.37.15l.76.76A.51.51,0,0,1,86.45,85.54Z"/><path class="cls-2" d="M43.21,45.44H63.3a.63.63,0,0,0,.63-.63.64.64,0,0,0-.63-.64H43.21a.64.64,0,0,0-.63.64A.63.63,0,0,0,43.21,45.44ZM63.3,51.52H43.21a.64.64,0,0,0-.63.64.63.63,0,0,0,.63.63H63.3a.63.63,0,0,0,.63-.63A.64.64,0,0,0,63.3,51.52Zm0,7.36H52.21a.63.63,0,1,0,0,1.26H63.3a.63.63,0,0,0,0-1.26ZM43.21,38.09h8a.64.64,0,0,0,.64-.63.64.64,0,0,0-.64-.64h-8a.64.64,0,0,0-.63.64A.63.63,0,0,0,43.21,38.09Z"/><path class="cls-2" d="M69.62,36.18l-9.06-9.07a1.06,1.06,0,0,0-.75-.31H37.64a1.06,1.06,0,0,0-1.06,1.05v28l2.12-.55V28.91H57.9V36.8a2,2,0,0,0,2,2h7.87V66.1H49.56l-.07,2.11H68.87a1.07,1.07,0,0,0,1.06-1.06V36.93A1.1,1.1,0,0,0,69.62,36.18Zm-9.6.54V29.55l7.15,7.17Z"/><path class="cls-2" d="M45,65.5l2.28-1.27L47.25,64a8.79,8.79,0,0,0-.3-1,9.64,9.64,0,0,0-.48-1l-.12-.22-2.54.62a6.21,6.21,0,0,0-1.12-1.17l.71-2.51-.21-.12a8.41,8.41,0,0,0-2-.86L41,57.67l-1.35,2.22a6.35,6.35,0,0,0-1.63,0l-1.27-2.28-.24.06a8.79,8.79,0,0,0-1,.3,9.78,9.78,0,0,0-1,.48l-.21.12.62,2.53a6.6,6.6,0,0,0-1.17,1.13l-2.52-.71-.12.21a8.85,8.85,0,0,0-.86,2l-.07.23,2.23,1.36a6.27,6.27,0,0,0,0,1.62l-2.28,1.27.06.24c.09.32.19.64.3.95a9.75,9.75,0,0,0,.49,1l.11.22L33.58,70a6,6,0,0,0,1.13,1.17L34,73.67l.22.12a8.53,8.53,0,0,0,2,.86l.24.07,1.36-2.23a6.27,6.27,0,0,0,1.62,0l1.27,2.28.24-.06c.33-.09.65-.19,1-.3a8.93,8.93,0,0,0,1-.49l.22-.11-.62-2.53a6.6,6.6,0,0,0,1.17-1.13l2.51.71.12-.21a8.41,8.41,0,0,0,.86-2l.07-.23L45,67.12A6.27,6.27,0,0,0,45,65.5Zm-5.3,3.4a2.9,2.9,0,1,1,1.67-3.74A2.9,2.9,0,0,1,39.73,68.9Z"/></g></g></svg>