<svg xmlns="http://www.w3.org/2000/svg" viewBox="0 0 100 100"><defs><style>.cls-1{fill:#0a3254;}.cls-2{fill:#fff;}.cls-3{fill:#1ab211;}</style></defs><title>automation</title><g id="Layer_2" data-name="Layer 2"><g id="Layer_1-2" data-name="Layer 1"><circle class="cls-1" cx="50" cy="50" r="50"/><circle class="cls-2" cx="83.91" cy="87.49" r="10"/><circle class="cls-3" cx="83.91" cy="87.49" r="7.5"/><path class="cls-2" d="M88.24,85.54a.49.49,0,0,1-.16.38l-4,4-.76.76a.49.49,0,0,1-.38.16.51.51,0,0,1-.38-.16L81.77,90l-2-2a.49.49,0,0,1-.16-.38.51.51,0,0,1,.16-.38l.75-.76a.55.55,0,0,1,.38-.15.52.52,0,0,1,.38.15l1.64,1.65,3.66-3.67a.54.54,0,0,1,.38-.15.52.52,0,0,1,.38.15l.76.76A.51.51,0,0,1,88.24,85.54Z"/><path class="cls-2" d="M62,45.26H41.65a.65.65,0,1,0,0,1.29H62a.65.65,0,1,0,0-1.29Zm0,7.45H41.65a.65.65,0,1,0,0,1.29H62a.65.65,0,1,0,0-1.29Zm0,7.45H50.76a.64.64,0,0,0,0,1.28H62a.64.64,0,1,0,0-1.28ZM49.72,37.81H41.65a.65.65,0,1,0,0,1.29h8.07a.65.65,0,0,0,0-1.29Z"/><path class="cls-2" d="M68.41,37.16,59.23,28a1.1,1.1,0,0,0-.76-.31H36a1.07,1.07,0,0,0-1.07,1.07V54.92a11.25,11.25,0,0,1,2.15-.61V29.8H56.53v8a2.07,2.07,0,0,0,2.07,2.06h8V67.47H50.29l.51,2.14H67.65a1.06,1.06,0,0,0,1.07-1.07V37.92A1.15,1.15,0,0,0,68.41,37.16Zm-9.74.55V30.45l7.26,7.26Z"/><path class="cls-2" d="M49.54,71.72l-2-.59a9.93,9.93,0,0,1-17.82-2.48c-.07-.23-.13-.46-.19-.7a1,1,0,0,1,.78-1.23.82.82,0,0,1,.22,0h0a1,1,0,0,1,.81.41.89.89,0,0,1,.18.38,7.86,7.86,0,0,0,13.92,3L43.64,70l.36-.34,2.28-2.14,1.18-1.12.66-.61.15.62.26,1.11L49,69.61Z"/><path class="cls-2" d="M48.66,64.31a1.12,1.12,0,0,1-.55.34l-.1,0h-.14a1,1,0,0,1-.76-.34,1.22,1.22,0,0,1-.24-.45,7.83,7.83,0,0,0-7.64-6,8,8,0,0,0-2.15.3,8.34,8.34,0,0,0-2.15,1A8.1,8.1,0,0,0,33,61l1.84.55L31.08,65l-.75.7L30.16,65l-1.24-5.26,2,.6a9.94,9.94,0,0,1,4-3.56,10.5,10.5,0,0,1,2.15-.74,10.12,10.12,0,0,1,2.15-.23,9.88,9.88,0,0,1,9.48,7c.06.19.11.38.16.58A1,1,0,0,1,48.66,64.31Z"/><circle class="cls-2" cx="39.19" cy="66.02" r="3.89"/></g></g></svg>