<svg xmlns="http://www.w3.org/2000/svg" viewBox="0 0 100 100"><defs><style>.cls-1{fill:#0a3254;}.cls-2{fill:#fff;}.cls-3{fill:#1ab211;}</style></defs><title>evidence-management</title><g id="Layer_2" data-name="Layer 2"><g id="Layer_1-2" data-name="Layer 1"><circle class="cls-1" cx="50" cy="50" r="50"/><circle class="cls-2" cx="82.46" cy="87.49" r="10"/><circle class="cls-3" cx="82.46" cy="87.49" r="7.5"/><path class="cls-2" d="M86.79,85.54a.49.49,0,0,1-.16.38l-4,4-.76.76a.53.53,0,0,1-.38.16.55.55,0,0,1-.38-.16L80.31,90l-2-2a.52.52,0,0,1-.15-.38.54.54,0,0,1,.15-.38l.76-.76a.54.54,0,0,1,.38-.15.52.52,0,0,1,.38.15l1.64,1.65,3.66-3.67a.54.54,0,0,1,.38-.15.52.52,0,0,1,.38.15l.76.76A.51.51,0,0,1,86.79,85.54Z"/><path class="cls-2" d="M41.05,46.42H61.81a.67.67,0,0,0,.66-.66.66.66,0,0,0-.66-.65H41.05a.65.65,0,0,0-.65.65A.66.66,0,0,0,41.05,46.42ZM61.81,52.7H41.05a.66.66,0,0,0-.65.66.65.65,0,0,0,.65.65H61.81a.66.66,0,0,0,.66-.65A.67.67,0,0,0,61.81,52.7Zm0,7.6H50.35a.66.66,0,1,0,0,1.31H61.81a.66.66,0,1,0,0-1.31ZM41.05,38.82h8.23a.66.66,0,0,0,.66-.65.67.67,0,0,0-.66-.66H41.05a.66.66,0,0,0-.65.66A.65.65,0,0,0,41.05,38.82Z"/><path class="cls-2" d="M68.34,36.85,59,27.47a1.13,1.13,0,0,0-.78-.31H35.3a1.09,1.09,0,0,0-1.1,1.09V57.63a6.59,6.59,0,0,1,2.19-1.43V29.34H56.23v8.15a2.11,2.11,0,0,0,2.11,2.1h8.13V67.76H46.67c0,.19-.08.38-.13.58a12.45,12.45,0,0,1-.53,1.6H67.56a1.09,1.09,0,0,0,1.1-1.09V37.62A1.1,1.1,0,0,0,68.34,36.85Zm-9.92.56V30l7.39,7.41Z"/><path class="cls-2" d="M45.13,64.48,43.19,64a15.86,15.86,0,0,1-1.86-.65L40.46,63l-.1-.57a11.11,11.11,0,0,1-1.53-1,11.11,11.11,0,0,1-1.53,1l-.11.57-.8.35-.07,0a14.15,14.15,0,0,1-1.86.65L34.2,64l-1.67.44c-.17,1.8-.09,7.16,6.3,10.68a12.14,12.14,0,0,0,5.26-5.22,9.81,9.81,0,0,0,.79-2.18A10.26,10.26,0,0,0,45.13,64.48Zm-2.84,5.46a10.77,10.77,0,0,1-3.46,3.39,10.67,10.67,0,0,1-3.46-3.39,8.74,8.74,0,0,1-1.17-3,8.48,8.48,0,0,1-.14-1.69l.14,0c.24-.06.47-.11.69-.18a12.56,12.56,0,0,0,1.5-.5l.08,0a15.57,15.57,0,0,0,2.36-1.18,16.06,16.06,0,0,0,2.36,1.18,12.18,12.18,0,0,0,1.58.53c.27.08.54.15.82.21a8.57,8.57,0,0,1-1.3,4.7Z"/><path class="cls-2" d="M43.64,62.28A12.39,12.39,0,0,1,42,61.71a3.05,3.05,0,0,0-.14-.54,3.23,3.23,0,0,0-5.48-1,3.3,3.3,0,0,0-.61,1,3.05,3.05,0,0,0-.14.54,12.1,12.1,0,0,1-1.44.5l-.18.06a3.46,3.46,0,0,1,0-.46A5,5,0,0,1,34.2,61a4.88,4.88,0,0,1,2.19-2.82,4.82,4.82,0,0,1,7.23,3.69A3.46,3.46,0,0,1,43.64,62.28Z"/></g></g></svg>