<svg xmlns="http://www.w3.org/2000/svg" viewBox="0 0 100 100"><defs><style>.cls-1{fill:#0a3254;}.cls-2{fill:#fff;}.cls-3{fill:#1ab211;}</style></defs><title>integrated-sox</title><g id="Layer_2" data-name="Layer 2"><g id="Layer_1-2" data-name="Layer 1"><circle class="cls-1" cx="50" cy="50" r="50"/><circle class="cls-2" cx="82.12" cy="87.49" r="10"/><circle class="cls-3" cx="82.12" cy="87.49" r="7.5"/><path class="cls-2" d="M86.45,85.54a.49.49,0,0,1-.16.38l-4,4-.76.76a.49.49,0,0,1-.37.16.49.49,0,0,1-.38-.16L80,90l-2-2a.49.49,0,0,1-.16-.38.51.51,0,0,1,.16-.38l.76-.76a.51.51,0,0,1,.37-.15.52.52,0,0,1,.38.15l1.65,1.65,3.66-3.67a.52.52,0,0,1,.38-.15.51.51,0,0,1,.37.15l.76.76A.51.51,0,0,1,86.45,85.54Z"/><path class="cls-2" d="M31.92,65.59H44.55a.25.25,0,1,0,0-.49H31.92a.25.25,0,1,0,0,.49Zm0-3.49H44.55a.25.25,0,1,0,0-.49H31.92a.25.25,0,1,0,0,.49ZM72.59,26.61H51.88a1.65,1.65,0,0,0-1.65,1.64V46.62a1.64,1.64,0,0,0,1.65,1.64H72.59a1.64,1.64,0,0,0,1.64-1.64V28.25A1.65,1.65,0,0,0,72.59,26.61ZM71.44,28.3a.78.78,0,1,1-.79.78A.78.78,0,0,1,71.44,28.3Zm-2.91,0a.78.78,0,1,1-.79.78A.78.78,0,0,1,68.53,28.3Zm-2.9,0a.78.78,0,1,1-.79.78A.78.78,0,0,1,65.63,28.3Zm6.72,18.08H52.12V31.1H72.35ZM31.92,69.07H44.55a.25.25,0,1,0,0-.49H31.92a.25.25,0,1,0,0,.49ZM48.59,53H27.88a1.64,1.64,0,0,0-1.65,1.64V73a1.64,1.64,0,0,0,1.65,1.64H48.59A1.64,1.64,0,0,0,50.23,73V54.61A1.64,1.64,0,0,0,48.59,53Zm-1.15,1.68a.79.79,0,1,1-.79.78A.78.78,0,0,1,47.44,54.65Zm-2.91,0a.79.79,0,1,1,0,1.57.79.79,0,1,1,0-1.57Zm-2.9,0a.79.79,0,1,1-.79.78A.78.78,0,0,1,41.63,54.65Zm6.72,18.08H28.12V57.45H48.35Zm7.57-33.5H68.55a.24.24,0,1,0,0-.48H55.92a.24.24,0,1,0,0,.48Zm0,3.49H68.55a.25.25,0,1,0,0-.49H55.92a.25.25,0,1,0,0,.49Zm0-7H68.55a.25.25,0,1,0,0-.49H55.92a.25.25,0,1,0,0,.49Z"/><path class="cls-2" d="M33.61,35.62v7.89H31.47l3.11,3.64,3.12-3.64H35.57V36.6h8.1v-2H34.59A1,1,0,0,0,33.61,35.62ZM65.88,54.07l-3.11,3.65H64.9v6.9H56.79v2h9.09a1,1,0,0,0,1-1V57.72H69Z"/></g></g></svg>