<svg xmlns="http://www.w3.org/2000/svg" viewBox="0 0 100 100"><defs><style>.cls-1{fill:#0a3254;}.cls-2{fill:#fff;}.cls-3{fill:#1ab211;}</style></defs><title>resource-management</title><g id="Layer_2" data-name="Layer 2"><g id="Layer_1-2" data-name="Layer 1"><circle class="cls-1" cx="50" cy="50" r="50"/><circle class="cls-2" cx="82.12" cy="87.49" r="10"/><circle class="cls-3" cx="82.12" cy="87.49" r="7.5"/><path class="cls-2" d="M86.45,85.54a.49.49,0,0,1-.16.38l-4,4-.76.76a.49.49,0,0,1-.37.16.49.49,0,0,1-.38-.16L80,90l-2-2a.49.49,0,0,1-.16-.38.51.51,0,0,1,.16-.38l.76-.76a.51.51,0,0,1,.37-.15.52.52,0,0,1,.38.15l1.65,1.65,3.66-3.67a.52.52,0,0,1,.38-.15.51.51,0,0,1,.37.15l.76.76A.51.51,0,0,1,86.45,85.54Z"/><path class="cls-2" d="M50.36,58.65a3.63,3.63,0,0,1-3.53-4.4,3.64,3.64,0,0,1,2.76-2.76,4.11,4.11,0,0,1,.77-.08,3.57,3.57,0,0,1,2.44,1l5.45-3a.94.94,0,0,1,.42-.11.86.86,0,0,1,.74.43l0,0a.86.86,0,0,1-.29,1.17l-5.28,3.29a3.36,3.36,0,0,1-.27,2.37,3.66,3.66,0,0,1-2.91,2.07Zm0-5.59a2.12,2.12,0,0,0-.49.06,2,2,0,0,0-1.41,1.42A2,2,0,0,0,50.36,57a2.05,2.05,0,0,0,.49-.06,2,2,0,0,0,1-3.12A1.93,1.93,0,0,0,50.36,53.06Z"/><path class="cls-2" d="M61.35,41.3l.49-.75.56.36,2.05-3.17-3.21-2.08-2.05,3.18.57.36-.44.68a17.6,17.6,0,0,0-7.25-2.38v-.89a6.06,6.06,0,1,0-3.47,0v.89a17.56,17.56,0,0,0-7.19,2.36l-.51-.8.57-.36-2-3.19-3.23,2,2,3.2.57-.36.56.87a17.64,17.64,0,1,0,22,0Zm-16-10.5a5,5,0,1,1,6.74,4.7V34h1V30.53H47.66V34h.94V35.5A5,5,0,0,1,45.33,30.8ZM58.22,68.06l-.6-1a.35.35,0,0,0-.31-.18.36.36,0,0,0-.32.54l.6,1.05a15.11,15.11,0,0,1-6.89,1.84v-1.2a.37.37,0,0,0-.73,0v1.2a15.1,15.1,0,0,1-6.88-1.84l.6-1.05a.32.32,0,0,0,0-.27.34.34,0,0,0-.17-.22.31.31,0,0,0-.18,0,.35.35,0,0,0-.31.18l-.61,1A15.36,15.36,0,0,1,37.38,63l1.08-.62a.37.37,0,0,0-.19-.68.41.41,0,0,0-.18.05L37,62.36a15.08,15.08,0,0,1-1.85-6.91h1.24a.37.37,0,0,0,0-.73H35.17A15,15,0,0,1,37,47.79l1.08.63a.41.41,0,0,0,.18,0,.37.37,0,0,0,.32-.19.36.36,0,0,0-.13-.49l-1.08-.63a15.39,15.39,0,0,1,5-5.07l.63,1.09a.35.35,0,0,0,.31.18.38.38,0,0,0,.19-.06.36.36,0,0,0,.13-.49l-.63-1.08A15,15,0,0,1,50,39.87v1.26a.36.36,0,0,0,.36.36h0a.36.36,0,0,0,.35-.36V39.87a15,15,0,0,1,6.92,1.86L57,42.81a.37.37,0,0,0,.14.5.41.41,0,0,0,.18,0,.35.35,0,0,0,.31-.18l.63-1.09a15.39,15.39,0,0,1,5,5.07l-1.08.63a.36.36,0,0,0-.12.5.35.35,0,0,0,.31.18.41.41,0,0,0,.18,0l1.08-.62a15.2,15.2,0,0,1,1.84,6.92H64.27a.37.37,0,0,0,0,.73h1.24a15.08,15.08,0,0,1-1.85,6.91l-1.07-.62a.41.41,0,0,0-.18-.05.37.37,0,0,0-.32.19.35.35,0,0,0,.13.49l1.07.62A15.17,15.17,0,0,1,58.22,68.06Z"/></g></g></svg>