<svg xmlns="http://www.w3.org/2000/svg" viewBox="0 0 100 100"><defs><style>.cls-1{fill:#0a3254;}.cls-2{fill:#fff;}.cls-3{fill:#1ab211;}</style></defs><title>risk-based-audit</title><g id="Layer_2" data-name="Layer 2"><g id="Layer_1-2" data-name="Layer 1"><circle class="cls-1" cx="50" cy="50" r="50"/><circle class="cls-2" cx="83.91" cy="87.49" r="10"/><circle class="cls-3" cx="83.91" cy="87.49" r="7.5"/><path class="cls-2" d="M88.24,85.54a.49.49,0,0,1-.16.38l-4,4-.76.76a.49.49,0,0,1-.38.16.51.51,0,0,1-.38-.16L81.77,90l-2-2a.49.49,0,0,1-.16-.38.51.51,0,0,1,.16-.38l.75-.76a.55.55,0,0,1,.38-.15.52.52,0,0,1,.38.15l1.64,1.65,3.66-3.67a.54.54,0,0,1,.38-.15.52.52,0,0,1,.38.15l.76.76A.51.51,0,0,1,88.24,85.54Z"/><path class="cls-2" d="M66.25,50.56v-20H58.14V33h5.67V50.57a8.05,8.05,0,0,0,0,15.92v3.76H35V33h5.63V30.51H32.51V72.69H66.25V66.5a8.06,8.06,0,0,0,0-15.94Zm-1.2,13.6a5.63,5.63,0,1,1,5.63-5.63A5.63,5.63,0,0,1,65.05,64.16ZM58.21,42.42H47.49v1.46H58.21ZM56.7,51.54H47.49V53H56.7Zm-1.51,9.13h-7.7v1.46h7.7Z"/><path class="cls-2" d="M67.84,55.75l-4,4-2-1.89-1,1.05,3,2.89,5-5ZM39.63,54.46h4.42V50H39.63Zm0,9.13h4.42V59.13H39.63Zm0-18.25h4.42V40.88H39.63ZM53.26,28.6a3.88,3.88,0,1,0-7.76,0v.71H42.62v7.1H56.13v-7.1H53.26Zm-1.95.71H47.44V28.6a1.94,1.94,0,1,1,3.87,0Z"/></g></g></svg>