<svg xmlns="http://www.w3.org/2000/svg" viewBox="0 0 100 100"><defs><style>.cls-1{fill:#0a3254;}.cls-2{fill:#fff;}.cls-3{fill:#1ab211;}</style></defs><title>web-portal</title><g id="Layer_2" data-name="Layer 2"><g id="Layer_1-2" data-name="Layer 1"><circle class="cls-1" cx="50" cy="50" r="50"/><circle class="cls-2" cx="83.91" cy="87.49" r="10"/><circle class="cls-3" cx="83.91" cy="87.49" r="7.5"/><path class="cls-2" d="M88.24,85.54a.49.49,0,0,1-.16.38l-4,4-.76.76a.49.49,0,0,1-.38.16.51.51,0,0,1-.38-.16L81.77,90l-2-2a.49.49,0,0,1-.16-.38.51.51,0,0,1,.16-.38l.75-.76a.55.55,0,0,1,.38-.15.52.52,0,0,1,.38.15l1.64,1.65,3.66-3.67a.54.54,0,0,1,.38-.15.52.52,0,0,1,.38.15l.76.76A.51.51,0,0,1,88.24,85.54Z"/><path class="cls-2" d="M70,52.24a1,1,0,0,0-1.18.72,20,20,0,0,1-3.62,7.39,23.45,23.45,0,0,0-4.95-2.25,35,35,0,0,0,1.39-9.5h3.2a.49.49,0,1,0,0-1h-3.2a37.12,37.12,0,0,0-.42-5.21.49.49,0,0,0-1,.15,36.49,36.49,0,0,1,.41,5.06H58.1a.49.49,0,0,0,0,1h2.6a33.75,33.75,0,0,1-1.35,9.21,29.56,29.56,0,0,0-3-.71.49.49,0,1,0-.19,1,25.93,25.93,0,0,1,8.41,3.06c-.32.37-.65.73-1,1.07a1,1,0,0,0,0,1.39,1,1,0,0,0,.69.29,1,1,0,0,0,.7-.29,22,22,0,0,0,5.75-10.15A1,1,0,0,0,70,52.24ZM43.19,57a30.31,30.31,0,0,0-3.44.81,31.76,31.76,0,0,1-1-4.92.48.48,0,0,0-.55-.42.49.49,0,0,0-.42.55,33.46,33.46,0,0,0,1.08,5.07,23,23,0,0,0-5,2.26,19.81,19.81,0,0,1-4.2-11.76h3.51a.49.49,0,0,0,0-1H29.66a19.86,19.86,0,0,1,1.85-7.93,1,1,0,1,0-1.77-.83,21.88,21.88,0,0,0,4.15,24.51.94.94,0,0,0,.7.29,1,1,0,0,0,.7-1.66c-.28-.28-.54-.58-.8-.88A26,26,0,0,1,43.36,58a.49.49,0,1,0-.17-1ZM54.53,38.28a36.77,36.77,0,0,1-4.49.33V28.2a19.11,19.11,0,0,1,2.4.21,11.79,11.79,0,0,1,4.7,4.78A.49.49,0,1,0,58,32.7,14.93,14.93,0,0,0,55,29,19.91,19.91,0,0,1,64.53,35c-.2.12-.4.24-.61.35a.49.49,0,0,0,.23.92.46.46,0,0,0,.23-.06c.27-.14.53-.3.79-.45A20,20,0,0,1,68.78,43a1,1,0,0,0,.94.73.78.78,0,0,0,.26,0,1,1,0,0,0,.69-1.2A21.85,21.85,0,0,0,36.84,30.31a1,1,0,0,0-.22,1.37A1,1,0,0,0,38,31.9a19.69,19.69,0,0,1,6.16-3,18.56,18.56,0,0,0-5,8.1c-.27-.09-.55-.18-.81-.28a.49.49,0,0,0-.34.92l.85.29a31.9,31.9,0,0,0-1.11,5.19.48.48,0,0,0,.42.55h.06a.5.5,0,0,0,.49-.43,31.45,31.45,0,0,1,1.08-5,35.05,35.05,0,0,0,9.27,1.33V41a.49.49,0,0,0,1,0V39.59a37.09,37.09,0,0,0,4.63-.34.49.49,0,1,0-.14-1Zm-5.47.33a34,34,0,0,1-9-1.28C41.61,33,44,29.74,46.71,28.4a20.5,20.5,0,0,1,2.35-.2Zm8.1-1.07a2.47,2.47,0,1,0,2.47-2.47A2.47,2.47,0,0,0,57.16,37.54Zm13.26,8A2.47,2.47,0,1,0,72.88,48,2.47,2.47,0,0,0,70.42,45.52Zm-32.49,5a2.47,2.47,0,1,0-2.47-2.47A2.47,2.47,0,0,0,37.93,50.57ZM33.59,37.18a2.47,2.47,0,1,0-2.47-2.46A2.46,2.46,0,0,0,33.59,37.18Z"/><polygon class="cls-2" points="48.78 64.01 48.28 72.19 50.83 72.19 50.32 64.01 48.78 64.01"/><path class="cls-2" d="M50.37,63.4l.75-1-.47-1.21h-2.2L48,62.35l.75,1Z"/><path class="cls-2" d="M58,60.28l-3.16-1.16-1.1-1.3a10.85,10.85,0,0,0,1-1.93A4.9,4.9,0,0,0,57,52.25c0-.37.08-1.27-.32-1.63a.77.77,0,0,0-.62-.2c1-5.13-2.35-8-6.66-8-6.6,0-6.66,6.12-6.51,8a.76.76,0,0,0-.49.2c-.41.36-.36,1.26-.32,1.63a4.85,4.85,0,0,0,2.32,3.65s0,0,.06,0a9.79,9.79,0,0,0,.89,1.84L44.2,59.12l-3.15,1.16c-.56.17-6.2,2.18-6.2,12.24a.81.81,0,0,0,.81.81l3.93,0v.07a.81.81,0,0,0,.81.81H58.66a.81.81,0,0,0,.81-.81v-.07l3.94,0a.81.81,0,0,0,.8-.81C64.21,62.46,58.57,60.45,58,60.28ZM55.58,51.7a2.65,2.65,0,0,1,.45-.27,3.91,3.91,0,0,1-.8,2.74A15.47,15.47,0,0,0,55.58,51.7Zm-12.52-.27a2.24,2.24,0,0,1,.55.35A16.11,16.11,0,0,0,44,54.3,4,4,0,0,1,43.06,51.43ZM51.67,48A5.26,5.26,0,0,0,53.94,50a7.4,7.4,0,0,1,.05.83c0,3.87-1.68,8-4.39,8s-4.34-4-4.39-7.85A10.54,10.54,0,0,0,51.67,48ZM45,60.57a.89.89,0,0,0,.34-.23l1.08-1.28a4.48,4.48,0,0,0,3.22,1.39,4.43,4.43,0,0,0,3.12-1.34l1.05,1.23a.86.86,0,0,0,.33.23l1.21.44-3.58,11.6H47.39L43.67,61Z"/></g></g></svg>