<svg xmlns="http://www.w3.org/2000/svg" viewBox="0 0 512 512"><title>document-mgmt</title><circle cx="256" cy="256" r="256" style="fill:#74a4bc"/><path d="M382.81,207.59a283.29,283.29,0,0,0-27.24-31.16,283.42,283.42,0,0,0-31.16-27.24C308.3,137.37,300.48,136,296,136H181a25,25,0,0,0-25,25V391a25,25,0,0,0,25,25H371a25,25,0,0,0,25-25V236C396,231.52,394.63,223.7,382.81,207.59ZM316,167.89a272.57,272.57,0,0,1,25.43,22.68h0A272.77,272.77,0,0,1,364.11,216H316ZM376,391a5.07,5.07,0,0,1-5,5H181a5.07,5.07,0,0,1-5-5V161a5.07,5.07,0,0,1,5-5H296v70a10,10,0,0,0,10,10h70Z" style="fill:#fff"/><path d="M284.41,109.19h0C268.3,97.37,260.48,96,256,96H141a25,25,0,0,0-25,25V351a25,25,0,0,0,20,24.5V121a5.07,5.07,0,0,1,5-5H293.15C290.13,113.53,287.2,111.23,284.41,109.19Z" style="fill:#fff"/><path d="M216,286a10,10,0,0,0,10,10H326a10,10,0,0,0,0-20H226A10,10,0,0,0,216,286Z" style="fill:#fff"/><path d="M326,316H226a10,10,0,0,0,0,20H326a10,10,0,0,0,0-20Z" style="fill:#fff"/><path d="M326,356H226a10,10,0,0,0,0,20H326a10,10,0,0,0,0-20Z" style="fill:#fff"/></svg>