<svg xmlns="http://www.w3.org/2000/svg" viewBox="0 0 512 512"><title>electronic-medical-records-mgmt</title><circle cx="256" cy="256" r="256" style="fill:#118f84"/><path d="M403.07,161.46H277l-42-42H108.93a21,21,0,0,0-21,21V371.55a21,21,0,0,0,21,21H403.07a21,21,0,0,0,21-21V182.47A21,21,0,0,0,403.07,161.46Zm0,210.1H108.93V140.45H224.49l42,42H403.07Z" style="fill:#fff"/><polygon points="234.99 203.47 234.99 245.5 192.97 245.5 192.97 287.51 234.99 287.51 234.99 329.54 277.01 329.54 277.01 287.51 319.03 287.51 319.03 245.5 277.01 245.5 277.01 203.47 234.99 203.47" style="fill:#fff"/></svg>