<svg xmlns="http://www.w3.org/2000/svg" viewBox="0 0 512 512"><title>internal-audit</title><circle cx="256" cy="256" r="256" style="fill:#3d7ea4"/><path d="M256,88A168,168,0,1,0,424,256,168,168,0,0,0,256,88ZM359.94,359.94a146.47,146.47,0,1,1,31.51-46.73A146.54,146.54,0,0,1,359.94,359.94Z" style="fill:#fff"/><path d="M336.68,188.2a10.5,10.5,0,0,0-14.84,0L225.78,284l-36.94-36.85a10.5,10.5,0,0,0-14.84,0l-14.69,14.68a10.49,10.49,0,0,0,0,14.85l59,58.9a10.5,10.5,0,0,0,14.83,0L351.36,217.73a10.49,10.49,0,0,0,0-14.85Z" style="fill:#fff"/></svg>