<svg xmlns="http://www.w3.org/2000/svg" viewBox="0 0 512 512"><title>operational-risk-mgmt</title><circle cx="256" cy="256" r="256" style="fill:#685f93"/><path d="M256,168.62a21.82,21.82,0,0,0-21.83,21.81v65.43a21.83,21.83,0,0,0,43.66,0V190.43A21.82,21.82,0,0,0,256,168.62Z" style="fill:#fff"/><path d="M256,299.48a21.82,21.82,0,0,0-21.83,21.81h0a21.83,21.83,0,0,0,43.66,0h0A21.82,21.82,0,0,0,256,299.48Z" style="fill:#fff"/><path d="M410.17,281.54l-13.69-5.39a141,141,0,0,0-.8-45.18l13.5-5.87a21.83,21.83,0,0,0,11.31-28.72l-8.7-20A21.81,21.81,0,0,0,383.07,165l-13.5,5.87a141,141,0,0,0-32.5-31.39l5.39-13.69a21.83,21.83,0,0,0-12.31-28.31l-20.31-8a21.81,21.81,0,0,0-28.31,12.31l-5.39,13.69a141,141,0,0,0-45.18.8l-5.87-13.5a21.81,21.81,0,0,0-28.72-11.31l-20,8.7A21.83,21.83,0,0,0,165,128.93l5.87,13.5a141,141,0,0,0-31.39,32.5l-13.69-5.39a21.81,21.81,0,0,0-28.31,12.31l-8,20.31a21.83,21.83,0,0,0,12.31,28.31l13.69,5.39a141,141,0,0,0,.8,45.18l-13.5,5.87a21.83,21.83,0,0,0-11.31,28.72l8.7,20A21.81,21.81,0,0,0,128.93,347l13.5-5.87a141,141,0,0,0,32.5,31.39l-5.39,13.69a21.83,21.83,0,0,0,12.31,28.31l20.31,8a21.81,21.81,0,0,0,28.31-12.31l5.39-13.69a141,141,0,0,0,45.18-.8l5.87,13.5a21.81,21.81,0,0,0,28.72,11.31l20-8.7A21.83,21.83,0,0,0,347,383.07l-5.87-13.5a141,141,0,0,0,31.39-32.5l13.69,5.39a21.81,21.81,0,0,0,28.31-12.31l8-20.31A21.83,21.83,0,0,0,410.17,281.54ZM117.84,189.84h0Zm92.32,212.32h0Zm184-80h0Zm0,0-13.69-5.39-16.07-6.33-9.86,14.19A119,119,0,0,1,328,352.09l-13.84,10.34,6.89,15.84,5.87,13.5-20,8.7L301,387l-6.89-15.84-17,3.06a119.15,119.15,0,0,1-38.18.68l-17.1-2.47-6.33,16.07-5.39,13.69-20.31-8,5.39-13.69,6.33-16.07-14.19-9.86A119,119,0,0,1,159.91,328l-10.34-13.84-15.84,6.89-13.5,5.87-8.7-20L125,301l15.84-6.89-3.06-17a119,119,0,0,1-.68-38.18l2.47-17.1-16.07-6.33-13.69-5.39,8-20.31,13.69,5.39,16.07,6.33,9.86-14.19A119,119,0,0,1,184,159.91l13.84-10.34-6.89-15.84-5.87-13.5,20-8.7L211,125l6.89,15.84,17-3.06a119.15,119.15,0,0,1,38.18-.68l17.1,2.47,6.33-16.07,5.39-13.69,20.31,8-5.39,13.69-6.33,16.07,14.19,9.86A119,119,0,0,1,352.08,184l10.34,13.84,15.84-6.89,13.5-5.87,8.7,20L387,211l-15.84,6.89,3.06,17a119,119,0,0,1,.68,38.18l-2.47,17.1,16.07,6.33,13.69,5.39Z" style="fill:#fff"/></svg>