<?xml version="1.0" encoding="utf-8"?>
<!-- Generator: Adobe Illustrator 21.1.0, SVG Export Plug-In . SVG Version: 6.00 Build 0)  -->
<svg version="1.1" id="Layer_1" xmlns="http://www.w3.org/2000/svg" xmlns:xlink="http://www.w3.org/1999/xlink" x="0px" y="0px"
	 viewBox="0 0 512 512" style="enable-background:new 0 0 512 512;" xml:space="preserve">
<style type="text/css">
	.st0{fill:#B24658;}
	.st1{fill:#FFFFFF;}
</style>
<title>performance-mgmt</title>
<g>
	<circle class="st0" cx="256" cy="256" r="256"/>
	<g>
		<g>
			<path class="st1" d="M198.9,164.7c-6.3,0-11.4-5.1-11.4-11.4v-45.6c0-6.3,5.1-11.4,11.4-11.4c6.3,0,11.4,5.1,11.4,11.4v45.6
				C210.4,159.6,205.2,164.7,198.9,164.7z"/>
		</g>
		<g>
			<path class="st1" d="M256,164.7c-6.3,0-11.4-5.1-11.4-11.4v-45.6c0-6.3,5.1-11.4,11.4-11.4s11.4,5.1,11.4,11.4v45.6
				C267.4,159.6,262.3,164.7,256,164.7z"/>
		</g>
		<g>
			<path class="st1" d="M313.1,164.7c-6.3,0-11.4-5.1-11.4-11.4v-45.6c0-6.3,5.1-11.4,11.4-11.4s11.4,5.1,11.4,11.4v45.6
				C324.5,159.6,319.4,164.7,313.1,164.7z"/>
		</g>
		<g>
			<path class="st1" d="M198.9,415.8c-6.3,0-11.4-5.1-11.4-11.4v-45.6c0-6.3,5.1-11.4,11.4-11.4c6.3,0,11.4,5.1,11.4,11.4v45.6
				C210.4,410.7,205.2,415.8,198.9,415.8z"/>
		</g>
		<g>
			<path class="st1" d="M256,415.8c-6.3,0-11.4-5.1-11.4-11.4v-45.6c0-6.3,5.1-11.4,11.4-11.4s11.4,5.1,11.4,11.4v45.6
				C267.4,410.7,262.3,415.8,256,415.8z"/>
		</g>
		<g>
			<path class="st1" d="M313.1,415.8c-6.3,0-11.4-5.1-11.4-11.4v-45.6c0-6.3,5.1-11.4,11.4-11.4s11.4,5.1,11.4,11.4v45.6
				C324.5,410.7,319.4,415.8,313.1,415.8z"/>
		</g>
		<g>
			<path class="st1" d="M404.4,210.4h-45.6c-6.3,0-11.4-5.1-11.4-11.4c0-6.3,5.1-11.4,11.4-11.4h45.6c6.3,0,11.4,5.1,11.4,11.4
				C415.8,205.2,410.7,210.4,404.4,210.4z"/>
		</g>
		<g>
			<path class="st1" d="M404.4,267.4h-45.6c-6.3,0-11.4-5.1-11.4-11.4s5.1-11.4,11.4-11.4h45.6c6.3,0,11.4,5.1,11.4,11.4
				S410.7,267.4,404.4,267.4z"/>
		</g>
		<g>
			<path class="st1" d="M404.4,324.5h-45.6c-6.3,0-11.4-5.1-11.4-11.4s5.1-11.4,11.4-11.4h45.6c6.3,0,11.4,5.1,11.4,11.4
				S410.7,324.5,404.4,324.5z"/>
		</g>
		<g>
			<path class="st1" d="M153.3,210.4h-45.6c-6.3,0-11.4-5.1-11.4-11.4s5.1-11.4,11.4-11.4h45.6c6.3,0,11.4,5.1,11.4,11.4
				S159.6,210.4,153.3,210.4z"/>
		</g>
		<g>
			<path class="st1" d="M153.3,267.4h-45.6c-6.3,0-11.4-5.1-11.4-11.4s5.1-11.4,11.4-11.4h45.6c6.3,0,11.4,5.1,11.4,11.4
				S159.6,267.4,153.3,267.4z"/>
		</g>
		<g>
			<path class="st1" d="M153.3,324.5h-45.6c-6.3,0-11.4-5.1-11.4-11.4s5.1-11.4,11.4-11.4h45.6c6.3,0,11.4,5.1,11.4,11.4
				S159.6,324.5,153.3,324.5z"/>
		</g>
		<g>
			<path class="st1" d="M210.4,210.3L210.4,210.3L210.4,210.3 M210.4,210.3L210.4,210.3L210.4,210.3 M301.6,210.4L301.6,210.4
				L301.6,210.4v91.3h-91.3v-91.3H301.6 M301.6,187.5h-91.3c-12.6,0-22.8,10.2-22.8,22.8v91.3c0,12.6,10.2,22.8,22.8,22.8h91.3
				c12.6,0,22.8-10.2,22.8-22.8v-91.3C324.5,197.7,314.3,187.5,301.6,187.5L301.6,187.5z"/>
		</g>
	</g>
</g>
</svg>
