<svg xmlns="http://www.w3.org/2000/svg" viewBox="0 0 512 512"><title>quality-mgmt</title><circle cx="256" cy="256" r="256" style="fill:#857ab9"/><path d="M376.4,214.81l-12.16-13.3a10.75,10.75,0,0,1-1.5-12.39l8.62-15.83A10.74,10.74,0,0,0,365.59,158l-16.94-6.12a10.74,10.74,0,0,1-7.08-10.27l.29-18a10.73,10.73,0,0,0-10.7-10.91,10.86,10.86,0,0,0-1.48.1l-17.84,2.46a10.71,10.71,0,0,1-11-5.8l-8.11-16.1a10.71,10.71,0,0,0-15.8-3.9L262.23,100a10.71,10.71,0,0,1-12.46,0L235.11,89.47a10.71,10.71,0,0,0-15.8,3.9l-8.11,16.1a10.71,10.71,0,0,1-11,5.8l-17.84-2.46a10.86,10.86,0,0,0-1.48-.1,10.73,10.73,0,0,0-10.7,10.91l.29,18a10.74,10.74,0,0,1-7.08,10.27L146.41,158a10.74,10.74,0,0,0-5.77,15.24l8.62,15.83a10.75,10.75,0,0,1-1.5,12.39l-12.16,13.3a10.74,10.74,0,0,0,2,16.18l15,10A10.74,10.74,0,0,1,157,252.66l-4.59,17.44a10.73,10.73,0,0,0,9.25,13.41l17.91,1.89a10.73,10.73,0,0,1,9.33,8.28l4,17.58a10.7,10.7,0,0,0,14.41,7.57L224,312.16a10.71,10.71,0,0,1,12.1,3l11.72,13.69a10.71,10.71,0,0,0,16.28,0l11.72-13.69a10.71,10.71,0,0,1,12.1-3l16.73,6.67a10.7,10.7,0,0,0,14.41-7.57l4-17.58a10.73,10.73,0,0,1,9.33-8.28l17.91-1.89a10.73,10.73,0,0,0,9.25-13.41L355,252.66A10.74,10.74,0,0,1,359.45,241l15-10A10.74,10.74,0,0,0,376.4,214.81Zm-28.88,8.31a32.24,32.24,0,0,0-13.27,35l1.4,5.33-5.44.57a32.21,32.21,0,0,0-28,24.84L301,294.21l-5.06-2a32.19,32.19,0,0,0-36.37,9L256,305.3l-3.54-4.14a32.19,32.19,0,0,0-36.37-9l-5.06,2-1.22-5.34a32.21,32.21,0,0,0-28-24.84l-5.44-.57,1.4-5.33a32.24,32.24,0,0,0-13.27-35l-4.58-3.06,3.72-4.07a32.24,32.24,0,0,0,4.51-37.16L165.49,174l5.16-1.86a32.23,32.23,0,0,0,21.26-30.82l-.09-5.49,5.4.75a32.19,32.19,0,0,0,33.16-17.42l2.46-4.88,4.43,3.17a32.19,32.19,0,0,0,37.46,0l4.42-3.16,2.46,4.88a32.19,32.19,0,0,0,33.16,17.42l5.4-.75-.09,5.49a32.23,32.23,0,0,0,21.26,30.82l5.16,1.86-2.64,4.84A32.24,32.24,0,0,0,348.38,216l3.72,4.07Z" style="fill:#fff"/><polygon points="256 157.35 240.32 189.15 205.27 194.25 230.64 219.01 224.65 253.97 256 237.46 287.35 253.97 281.36 219.01 306.73 194.25 271.68 189.15 256 157.35" style="fill:#fff"/><path d="M308.66,330.32a21.3,21.3,0,0,1-7.93-1.53L284,322.13l-11.73,13.69a21.64,21.64,0,0,1-2.39,2.38l38,86.33,20.79-32.64,38.08,6.66-37.26-84.64A21.34,21.34,0,0,1,308.66,330.32Z" style="fill:#fff"/><path d="M239.72,335.82,228,322.13l-16.73,6.67a21.42,21.42,0,0,1-28.76-14.89l-37.26,84.64,38.08-6.66,20.79,32.64,38-86.33A21.64,21.64,0,0,1,239.72,335.82Z" style="fill:#fff"/></svg>