<svg xmlns="http://www.w3.org/2000/svg" viewBox="0 0 36 36"><defs><style>.cls-1{fill:#fff;}.cls-2{fill:#0a3254;}</style></defs><title>risk-management-icon</title><g id="Layer_2" data-name="Layer 2"><g id="Layer_1-2" data-name="Layer 1"><circle class="cls-1" cx="18" cy="18" r="18"/><path class="cls-2" d="M27.33,26.25h-.74v-14A1.34,1.34,0,0,0,26,11.18L21.33,9.42V6.75A.33.33,0,0,0,21,6.42a.31.31,0,0,0-.13,0L10.14,9.9a1.33,1.33,0,0,0-.81,1.23V26.25H8.67a.67.67,0,1,0,0,1.33H27.33a.67.67,0,1,0,0-1.33ZM20,8.91h0V26.25H10.67V11.62a.67.67,0,0,1,.46-.64L20,8.13Zm5.26,17.34H21.33V10.84l3.5,1.33a.66.66,0,0,1,.43.62Z"/><rect class="cls-2" x="22.67" y="14.25" width="1.33" height="1.33"/><rect class="cls-2" x="22.67" y="16.91" width="1.33" height="1.33"/><rect class="cls-2" x="22.67" y="19.58" width="1.33" height="1.33"/><rect class="cls-2" x="22.67" y="22.25" width="1.33" height="1.33"/><rect class="cls-2" x="16" y="14.25" width="1.33" height="1.33"/><rect class="cls-2" x="16" y="16.91" width="1.33" height="1.33"/><rect class="cls-2" x="16" y="19.58" width="1.33" height="1.33"/><rect class="cls-2" x="16" y="22.25" width="1.33" height="1.33"/><rect class="cls-2" x="13.33" y="14.25" width="1.33" height="1.33"/><rect class="cls-2" x="13.33" y="16.91" width="1.33" height="1.33"/><rect class="cls-2" x="13.33" y="19.58" width="1.33" height="1.33"/><rect class="cls-2" x="13.33" y="22.25" width="1.33" height="1.33"/></g></g></svg>