<?xml version="1.0" standalone="no"?>
<!DOCTYPE svg PUBLIC "-//W3C//DTD SVG 1.1//EN" "http://www.w3.org/Graphics/SVG/1.1/DTD/svg11.dtd" >
<svg xmlns="http://www.w3.org/2000/svg">
<metadata>Generated by IcoMoon</metadata>
<defs>
<font id="icomoon" horiz-adv-x="1024">
<font-face units-per-em="1024" ascent="960" descent="-64" />
<missing-glyph horiz-adv-x="1024" />
<glyph unicode="&#x20;" horiz-adv-x="512" d="" />
<glyph unicode="&#x21;" glyph-name="image" d="M342 618c0-28-10-52-30-72s-44-30-74-30c-28 0-52 10-72 30s-30 44-30 72c0 30 10 54 30 74s44 30 72 30c30 0 54-10 74-30s30-44 30-74zM888 414v-240h-752v104l172 170 84-86 274 274zM938 790h-852c-6 0-10-2-12-6-4-4-6-8-6-12v-648c0-4 2-8 6-12 2-4 6-6 12-6h852c6 0 10 2 12 6 4 4 6 8 6 12v648c0 4-2 8-6 12-2 4-6 6-12 6zM1024 772v-648c0-24-8-44-26-60-16-18-36-26-60-26h-852c-24 0-44 8-60 26-18 16-26 36-26 60v648c0 24 8 44 26 60 16 18 36 26 60 26h852c24 0 44-8 60-26 18-16 26-36 26-60z" />
<glyph unicode="&#x22;" glyph-name="pencil" d="M280 82l52 52-134 134-52-52v-60h74v-74zM580 612c0 8-4 14-14 14-2 0-6-2-8-4l-310-310c-4-4-4-6-4-10 0-8 4-12 12-12 4 0 8 0 10 4l310 308c2 4 4 6 4 10zM548 722l238-238-476-474h-236v236zM938 668c0-20-6-38-20-52l-96-94-236 236 94 96c14 14 30 20 52 20 20 0 36-6 52-20l134-134c14-16 20-32 20-52z" />
<glyph unicode="&#x23;" glyph-name="map-marker" d="M658 594c0 40-14 76-42 104-30 28-64 42-104 42s-74-14-104-42c-28-28-42-64-42-104s14-74 42-104c30-28 64-42 104-42s74 14 104 42c28 30 42 64 42 104zM804 594c0-42-6-76-18-102l-208-442c-6-12-16-22-28-30s-24-10-38-10c-14 0-26 2-38 10s-22 18-28 30l-208 442c-12 26-18 60-18 102 0 82 28 150 86 208 56 56 126 84 206 84s150-28 206-84c58-58 86-126 86-208z" />
<glyph unicode="&#x24;" glyph-name="contrast" d="M512 138v620c-56 0-108-14-156-40-48-28-86-66-114-114-26-48-40-100-40-156s14-108 40-156c28-48 66-86 114-114 48-26 100-40 156-40zM950 448c0-80-18-154-58-220-40-68-92-120-160-160-66-40-140-58-220-58s-154 18-220 58c-68 40-120 92-160 160-40 66-58 140-58 220s18 154 58 220c40 68 92 120 160 160 66 40 140 58 220 58s154-18 220-58c68-40 120-92 160-160 40-66 58-140 58-220z" />
<glyph unicode="&#x25;" glyph-name="droplet" d="M512 302c0 14-4 26-12 40 0 0-2 4-8 12s-10 16-14 22c-6 6-10 14-16 24-4 12-8 20-12 30 0 6-4 8-12 8-6 0-10-2-12-8-2-10-6-18-12-30-4-10-10-18-14-24s-8-14-14-22c-6-8-8-12-8-12-8-14-12-26-12-40 0-20 6-38 22-52 14-14 30-22 50-22 22 0 38 8 52 22s22 32 22 52zM804 374c0-80-28-148-86-206-56-58-126-86-206-86s-150 28-206 86c-58 58-86 126-86 206 0 56 14 108 46 158 2 4 14 20 36 52 20 30 40 60 58 86 16 26 36 60 56 102s36 80 48 114c2 12 10 22 18 28 10 6 20 10 30 10s20-4 30-10c10-6 16-16 18-28 12-34 28-72 48-114s40-76 56-102c18-26 38-56 58-86 22-32 34-48 36-52 32-48 46-100 46-158z" />
<glyph unicode="&#x26;" glyph-name="pencil-edit" d="M508 284l66 66-88 86-66-66v-32h56v-54zM758 694c-6 6-12 6-18 0l-200-200c-6-6-6-12 0-18s12-6 18 0l200 200c6 6 6 12 0 18zM804 356v-110c0-44-16-84-48-116s-70-48-116-48h-476c-44 0-84 16-116 48s-48 72-48 116v476c0 46 16 84 48 116s72 48 116 48h476c24 0 46-4 66-14 6-2 10-6 12-12 0-8-2-12-6-18l-28-28c-6-4-12-6-18-4-10 2-18 4-26 4h-476c-24 0-46-10-64-28s-26-38-26-64v-476c0-24 8-46 26-64s40-26 64-26h476c26 0 46 8 64 26s28 40 28 64v72c0 6 2 10 4 14l38 36c4 6 12 8 20 4 6-4 10-8 10-16zM750 778l164-166-384-384h-164v166zM1004 702l-54-52-164 164 52 52c12 10 24 16 40 16 14 0 28-6 38-16l88-86c10-12 16-24 16-40 0-14-6-28-16-38z" />
<glyph unicode="&#x27;" glyph-name="share" d="M842 394v-148c0-44-16-84-50-116-32-32-70-48-116-48h-474c-46 0-84 16-118 48-32 32-48 72-48 116v476c0 46 16 84 48 116 34 32 72 48 118 48h144c6 0 10 0 14-4s6-8 6-14c0-10-6-16-16-18-30-10-54-22-76-34-4-2-6-2-8-2h-64c-26 0-48-10-66-28s-26-38-26-64v-476c0-24 8-46 26-64s40-26 66-26h474c26 0 48 8 66 26s26 40 26 64v124c0 6 4 12 10 16 10 4 22 12 32 20 6 6 12 8 20 6 8-4 12-10 12-18zM976 678l-218-220c-8-6-16-10-26-10-6 0-10 0-14 2-16 8-24 18-24 34v110h-90c-124 0-208-24-250-74-46-52-60-142-44-270 2-10-2-16-10-20-4-2-6-2-8-2-6 0-10 4-14 8-4 6-8 12-12 18s-12 20-22 38c-12 20-22 40-30 58s-14 40-22 64c-6 26-10 50-10 70s2 36 2 52c2 16 4 34 8 52s10 36 16 50c8 16 16 32 28 46 10 16 24 30 38 44 16 12 34 24 54 34 22 12 46 20 72 28s56 14 92 18c34 4 72 6 112 6h90v110c0 16 8 26 24 34 4 2 8 2 14 2 10 0 18-4 26-10l218-220c8-8 12-16 12-26s-4-18-12-26z" />
<glyph unicode="&#x28;" glyph-name="checkbox" d="M842 428v-182c0-44-16-84-50-116-32-32-70-48-116-48h-474c-46 0-84 16-118 48-32 32-48 72-48 116v476c0 46 16 84 48 116 34 32 72 48 118 48h474c24 0 46-4 68-14 6-2 8-6 10-12 0-8 0-12-6-18l-28-28c-4-2-8-4-12-4-2 0-4 0-6 0-8 2-18 4-26 4h-474c-26 0-48-10-66-28s-26-38-26-64v-476c0-24 8-46 26-64s40-26 66-26h474c26 0 48 8 66 26s26 40 26 64v146c0 4 2 10 6 12l36 38c4 2 8 4 12 4s6 0 8 0c8-4 12-10 12-18zM974 708l-466-466c-10-8-20-12-32-12-14 0-24 4-34 12l-244 246c-10 10-14 20-14 34 0 12 4 22 14 32l62 62c10 10 20 14 32 14 14 0 24-4 34-14l150-150 370 370c8 10 20 14 32 14s24-4 32-14l64-62c8-10 12-20 12-34 0-12-4-22-12-32z" />
<glyph unicode="&#x29;" glyph-name="move" d="M1024 448c0-10-4-18-10-26l-148-146c-6-8-14-10-24-10s-20 2-26 10c-8 8-12 16-12 26v72h-218v-218h72c10 0 18-4 26-12 8-6 10-16 10-26s-2-18-10-24l-146-148c-8-6-16-10-26-10s-18 4-26 10l-146 148c-8 6-10 14-10 24s2 20 10 26c8 8 16 12 26 12h72v218h-218v-72c0-10-4-18-12-26-6-8-16-10-26-10s-18 2-24 10l-148 146c-6 8-10 16-10 26s4 18 10 26l148 146c6 8 14 10 24 10s20-2 26-10c8-8 12-16 12-26v-72h218v218h-72c-10 0-18 4-26 12-8 6-10 16-10 26s2 18 10 24l146 148c8 6 16 10 26 10s18-4 26-10l146-148c8-6 10-14 10-24s-2-20-10-26c-8-8-16-12-26-12h-72v-218h218v72c0 10 4 18 12 26 6 8 16 10 26 10s18-2 24-10l148-146c6-8 10-16 10-26z" />
<glyph unicode="&#x2a;" glyph-name="step-backward" d="M778 880c8 6 14 10 20 6 4-2 6-8 6-18v-840c0-10-2-16-6-18-6-4-12 0-20 6l-404 406c-4 4-6 8-8 12v-388c0-10-4-18-12-26-6-8-14-10-24-10h-74c-10 0-18 2-26 10-6 8-10 16-10 26v804c0 10 4 18 10 26 8 8 16 10 26 10h74c10 0 18-2 24-10 8-8 12-16 12-26v-388c2 6 4 8 8 12z" />
<glyph unicode="&#x2b;" glyph-name="backward" d="M998 880c8 6 14 10 18 6 6-2 8-8 8-18v-840c0-10-2-16-8-18-4-4-10 0-18 6l-406 406c-2 4-6 8-6 12v-406c0-10-4-16-8-18-6-4-12 0-18 6l-406 406c-4 4-6 8-8 12v-388c0-10-4-18-10-26-8-8-16-10-26-10h-74c-10 0-18 2-26 10-6 8-10 16-10 26v804c0 10 4 18 10 26 8 8 16 10 26 10h74c10 0 18-2 26-10 6-8 10-16 10-26v-388c2 6 4 8 8 12l406 406c6 6 12 10 18 6 4-2 8-8 8-18v-406c0 6 4 8 6 12z" />
<glyph unicode="&#x2c;" glyph-name="rewind" d="M962 880c6 6 14 10 18 6 4-2 8-8 8-18v-840c0-10-4-16-8-18-4-4-12 0-18 6l-406 406c-4 4-6 8-8 12v-406c0-10-2-16-6-18-6-4-12 0-20 6l-404 406c-8 8-12 16-12 26s4 18 12 26l404 406c8 6 14 10 20 6 4-2 6-8 6-18v-406c2 6 4 8 8 12z" />
<glyph unicode="&#x2d;" glyph-name="play" d="M900 430l-758-422c-10-4-16-4-22-2-8 4-10 12-10 22v840c0 10 2 18 10 22 6 2 12 2 22-2l758-422c10-6 14-12 14-18s-4-12-14-18z" />
<glyph unicode="&#x2e;" glyph-name="pause" d="M950 850v-804c0-10-2-18-10-26s-16-10-26-10h-292c-10 0-18 2-26 10s-10 16-10 26v804c0 10 2 18 10 26s16 10 26 10h292c10 0 18-2 26-10s10-16 10-26zM438 850v-804c0-10-2-18-10-26s-16-10-26-10h-292c-10 0-18 2-26 10s-10 16-10 26v804c0 10 2 18 10 26s16 10 26 10h292c10 0 18-2 26-10s10-16 10-26z" />
<glyph unicode="&#x2f;" glyph-name="stop" d="M950 850v-804c0-10-2-18-10-26s-16-10-26-10h-804c-10 0-18 2-26 10s-10 16-10 26v804c0 10 2 18 10 26s16 10 26 10h804c10 0 18-2 26-10s10-16 10-26z" />
<glyph unicode="&#x32;" glyph-name="align-left" d="M1024 192v-74c0-10-4-18-10-24-8-8-16-12-26-12h-952c-10 0-18 4-26 12-6 6-10 14-10 24v74c0 10 4 18 10 26 8 6 16 10 26 10h952c10 0 18-4 26-10 6-8 10-16 10-26zM804 412v-74c0-10-4-18-10-26-8-6-16-10-26-10h-732c-10 0-18 4-26 10-6 8-10 16-10 26v74c0 10 4 18 10 26 8 6 16 10 26 10h732c10 0 18-4 26-10 6-8 10-16 10-26zM950 630v-72c0-10-2-18-10-26s-16-10-26-10h-878c-10 0-18 2-26 10-6 8-10 16-10 26v72c0 10 4 20 10 26 8 8 16 12 26 12h878c10 0 18-4 26-12 8-6 10-16 10-26zM732 850v-72c0-10-4-20-12-26-6-8-16-12-26-12h-658c-10 0-18 4-26 12-6 6-10 16-10 26v72c0 10 4 18 10 26 8 8 16 10 26 10h658c10 0 20-2 26-10 8-8 12-16 12-26z" />
<glyph unicode="&#x33;" glyph-name="align-center" d="M1024 192v-74c0-10-4-18-10-24-8-8-16-12-26-12h-952c-10 0-18 4-26 12-6 6-10 14-10 24v74c0 10 4 18 10 26 8 6 16 10 26 10h952c10 0 18-4 26-10 6-8 10-16 10-26zM804 412v-74c0-10-4-18-10-26-8-6-16-10-26-10h-512c-10 0-18 4-26 10-6 8-10 16-10 26v74c0 10 4 18 10 26 8 6 16 10 26 10h512c10 0 18-4 26-10 6-8 10-16 10-26zM950 630v-72c0-10-2-18-10-26s-16-10-26-10h-804c-10 0-18 2-26 10s-10 16-10 26v72c0 10 2 20 10 26 8 8 16 12 26 12h804c10 0 18-4 26-12 8-6 10-16 10-26zM732 850v-72c0-10-4-20-12-26-6-8-16-12-26-12h-364c-10 0-20 4-26 12-8 6-12 16-12 26v72c0 10 4 18 12 26 6 8 16 10 26 10h364c10 0 20-2 26-10 8-8 12-16 12-26z" />
<glyph unicode="&#x34;" glyph-name="align-right" d="M1024 192v-74c0-10-4-18-10-24-8-8-16-12-26-12h-952c-10 0-18 4-26 12-6 6-10 14-10 24v74c0 10 4 18 10 26 8 6 16 10 26 10h952c10 0 18-4 26-10 6-8 10-16 10-26zM1024 412v-74c0-10-4-18-10-26-8-6-16-10-26-10h-732c-10 0-18 4-26 10-6 8-10 16-10 26v74c0 10 4 18 10 26 8 6 16 10 26 10h732c10 0 18-4 26-10 6-8 10-16 10-26zM1024 630v-72c0-10-4-18-10-26-8-8-16-10-26-10h-878c-10 0-18 2-26 10s-10 16-10 26v72c0 10 2 20 10 26 8 8 16 12 26 12h878c10 0 18-4 26-12 6-6 10-16 10-26zM1024 850v-72c0-10-4-20-10-26-8-8-16-12-26-12h-658c-10 0-20 4-26 12-8 6-12 16-12 26v72c0 10 4 18 12 26 6 8 16 10 26 10h658c10 0 18-2 26-10 6-8 10-16 10-26z" />
<glyph unicode="&#x35;" glyph-name="justify" d="M1024 192v-74c0-10-4-18-10-24-8-8-16-12-26-12h-952c-10 0-18 4-26 12-6 6-10 14-10 24v74c0 10 4 18 10 26 8 6 16 10 26 10h952c10 0 18-4 26-10 6-8 10-16 10-26zM1024 412v-74c0-10-4-18-10-26-8-6-16-10-26-10h-952c-10 0-18 4-26 10-6 8-10 16-10 26v74c0 10 4 18 10 26 8 6 16 10 26 10h952c10 0 18-4 26-10 6-8 10-16 10-26zM1024 630v-72c0-10-4-18-10-26-8-8-16-10-26-10h-952c-10 0-18 2-26 10-6 8-10 16-10 26v72c0 10 4 20 10 26 8 8 16 12 26 12h952c10 0 18-4 26-12 6-6 10-16 10-26zM1024 850v-72c0-10-4-20-10-26-8-8-16-12-26-12h-952c-10 0-18 4-26 12-6 6-10 16-10 26v72c0 10 4 18 10 26 8 8 16 10 26 10h952c10 0 18-2 26-10 6-8 10-16 10-26z" />
<glyph unicode="&#x36;" glyph-name="bullet-list" d="M146 210v-110c0-4-2-8-6-12-2-4-8-6-12-6h-110c-4 0-8 2-12 6s-6 8-6 12v110c0 6 2 10 6 14 4 2 8 4 12 4h110c4 0 10-2 12-4 4-4 6-8 6-14zM146 430v-110c0-4-2-10-6-12-2-4-8-6-12-6h-110c-4 0-8 2-12 6-4 2-6 8-6 12v110c0 4 2 8 6 12s8 6 12 6h110c4 0 10-2 12-6 4-4 6-8 6-12zM146 650v-110c0-6-2-10-6-14-2-4-8-4-12-4h-110c-4 0-8 0-12 4s-6 8-6 14v110c0 4 2 8 6 12s8 6 12 6h110c4 0 10-2 12-6 4-4 6-8 6-12zM1024 210v-110c0-4-2-8-6-12s-8-6-12-6h-768c-6 0-10 2-14 6-2 4-4 8-4 12v110c0 6 2 10 4 14 4 2 8 4 14 4h768c4 0 8-2 12-4 4-4 6-8 6-14zM146 868v-110c0-4-2-8-6-12-2-4-8-6-12-6h-110c-4 0-8 2-12 6s-6 8-6 12v110c0 6 2 10 6 14s8 4 12 4h110c4 0 10 0 12-4 4-4 6-8 6-14zM1024 430v-110c0-4-2-10-6-12-4-4-8-6-12-6h-768c-6 0-10 2-14 6-2 2-4 8-4 12v110c0 4 2 8 4 12 4 4 8 6 14 6h768c4 0 8-2 12-6s6-8 6-12zM1024 650v-110c0-6-2-10-6-14s-8-4-12-4h-768c-6 0-10 0-14 4-2 4-4 8-4 14v110c0 4 2 8 4 12 4 4 8 6 14 6h768c4 0 8-2 12-6s6-8 6-12zM1024 868v-110c0-4-2-8-6-12s-8-6-12-6h-768c-6 0-10 2-14 6-2 4-4 8-4 12v110c0 6 2 10 4 14 4 4 8 4 14 4h768c4 0 8 0 12-4s6-8 6-14z" />
<glyph unicode="&#x39;" glyph-name="video" d="M1024 758v-620c0-16-8-28-22-34-6-2-10-4-14-4-10 0-20 4-26 12l-230 230v-96c0-44-16-84-48-116-34-32-72-48-118-48h-402c-44 0-84 16-116 48s-48 72-48 116v404c0 44 16 84 48 116s72 48 116 48h402c46 0 84-16 118-48 32-32 48-72 48-116v-96l230 230c6 8 16 12 26 12 4 0 8-2 14-4 14-6 22-18 22-34z" />
<glyph unicode="&#x3a;" glyph-name="fast-forward" d="M62 16c-6-6-14-10-18-6-4 2-8 8-8 18v840c0 10 4 16 8 18 4 4 12 0 18-6l406-406c4-4 6-6 8-12v406c0 10 2 16 6 18 6 4 12 0 20-6l404-406c8-8 12-16 12-26s-4-18-12-26l-404-406c-8-6-14-10-20-6-4 2-6 8-6 18v406c-2-4-4-8-8-12z" />
<glyph unicode="&#x3b;" glyph-name="forward" d="M26 16c-8-6-14-10-18-6-6 2-8 8-8 18v840c0 10 2 16 8 18 4 4 10 0 18-6l406-406c2-4 4-6 6-12v406c0 10 4 16 8 18 6 4 12 0 18-6l406-406c4-4 6-6 8-12v388c0 10 4 18 10 26 8 8 16 10 26 10h74c10 0 18-2 26-10 6-8 10-16 10-26v-804c0-10-4-18-10-26-8-8-16-10-26-10h-74c-10 0-18 2-26 10-6 8-10 16-10 26v388c-2-4-4-8-8-12l-406-406c-6-6-12-10-18-6-4 2-8 8-8 18v406c-2-4-4-8-6-12z" />
<glyph unicode="&#x3c;" glyph-name="step-forward" d="M246 16c-8-6-14-10-20-6-4 2-6 8-6 18v840c0 10 2 16 6 18 6 4 12 0 20-6l404-406c4-4 6-6 8-12v388c0 10 4 18 12 26 6 8 14 10 24 10h74c10 0 18-2 26-10 6-8 10-16 10-26v-804c0-10-4-18-10-26-8-8-16-10-26-10h-74c-10 0-18 2-24 10-8 8-12 16-12 26v388c-2-4-4-8-8-12z" />
<glyph unicode="&#x3d;" glyph-name="eject" d="M80 400l406 406c8 8 16 12 26 12s18-4 26-12l406-406c6-6 10-12 6-18-2-4-8-8-18-8h-840c-10 0-16 4-18 8-4 6 0 12 6 18zM914 82h-804c-10 0-18 4-26 12-8 6-10 14-10 24v148c0 10 2 18 10 24 8 8 16 12 26 12h804c10 0 18-4 26-12 8-6 10-14 10-24v-148c0-10-2-18-10-24-8-8-16-12-26-12z" />
<glyph unicode="&#x3e;" glyph-name="angle-right" d="M778 458l-424-424c-6-6-14-10-24-10s-20 4-26 10l-96 96c-6 6-10 16-10 26s4 18 10 26l304 302-304 304c-6 8-10 16-10 26s4 18 10 26l96 94c6 8 16 12 26 12s18-4 24-12l424-424c8-6 12-16 12-26s-4-18-12-26z" />
<glyph unicode="&#x3f;" glyph-name="plus" d="M768 412v72c0 10-4 20-10 26-8 8-16 12-26 12h-146v146c0 10-4 18-12 26-6 6-16 10-26 10h-72c-10 0-20-4-26-10-8-8-12-16-12-26v-146h-146c-10 0-18-4-26-12-6-6-10-16-10-26v-72c0-10 4-20 10-26 8-8 16-12 26-12h146v-146c0-10 4-18 12-26 6-6 16-10 26-10h72c10 0 20 4 26 10 8 8 12 16 12 26v146h146c10 0 18 4 26 12 6 6 10 16 10 26zM950 448c0-80-18-154-58-220-40-68-92-120-160-160-66-40-140-58-220-58s-154 18-220 58c-68 40-120 92-160 160-40 66-58 140-58 220s18 154 58 220c40 68 92 120 160 160 66 40 140 58 220 58s154-18 220-58c68-40 120-92 160-160 40-66 58-140 58-220z" />
<glyph unicode="&#x40;" glyph-name="minus" d="M768 412v72c0 10-4 20-10 26-8 8-16 12-26 12h-440c-10 0-18-4-26-12-6-6-10-16-10-26v-72c0-10 4-20 10-26 8-8 16-12 26-12h440c10 0 18 4 26 12 6 6 10 16 10 26zM950 448c0-80-18-154-58-220-40-68-92-120-160-160-66-40-140-58-220-58s-154 18-220 58c-68 40-120 92-160 160-40 66-58 140-58 220s18 154 58 220c40 68 92 120 160 160 66 40 140 58 220 58s154-18 220-58c68-40 120-92 160-160 40-66 58-140 58-220z" />
<glyph unicode="&#x41;" glyph-name="zoom-in" d="M622 502v-36c0-4-2-8-6-12s-8-6-12-6h-128v-128c0-4-2-10-6-12-4-4-8-6-12-6h-38c-4 0-8 2-12 6-4 2-6 8-6 12v128h-128c-4 0-8 2-12 6s-6 8-6 12v36c0 6 2 10 6 14s8 6 12 6h128v128c0 4 2 8 6 12s8 6 12 6h38c4 0 8-2 12-6s6-8 6-12v-128h128c4 0 8-2 12-6s6-8 6-14zM694 484c0 72-24 132-74 182s-110 74-182 74c-70 0-130-24-180-74s-76-110-76-182c0-70 26-130 76-180s110-76 180-76c72 0 132 26 182 76s74 110 74 180zM988 10c0-22-8-38-22-52s-32-22-52-22c-20 0-38 8-52 22l-196 196c-68-48-144-72-228-72-54 0-106 10-156 32s-92 50-128 86c-36 36-64 78-86 128-20 50-32 102-32 156 0 56 12 108 32 156 22 50 50 94 86 130s78 64 128 86c50 20 102 30 156 30 56 0 108-10 158-30 48-22 92-50 128-86s64-80 86-130c20-48 32-100 32-156 0-84-24-160-72-228l196-196c14-14 22-30 22-50z" />
<glyph unicode="&#x42;" glyph-name="close-thick" d="M852 204c0-14-6-28-16-38l-78-78c-10-10-24-16-40-16-14 0-28 6-38 16l-168 168-168-168c-10-10-24-16-38-16-16 0-30 6-40 16l-78 78c-10 10-16 24-16 38 0 16 6 28 16 40l168 168-168 168c-10 10-16 24-16 38 0 16 6 28 16 40l78 76c10 12 24 16 40 16 14 0 28-4 38-16l168-168 168 168c10 12 24 16 38 16 16 0 30-4 40-16l78-76c10-12 16-24 16-40 0-14-6-28-16-38l-168-168 168-168c10-12 16-24 16-40z" />
<glyph unicode="&#x43;" glyph-name="arrow-up-circle" d="M712 460c-4-8-8-12-18-12h-108v-202c0-4-2-8-6-12s-8-6-14-6h-108c-6 0-10 2-14 6s-6 8-6 12v202h-108c-6 0-10 2-14 6-4 2-6 6-6 12 0 4 2 10 6 14l182 182c6 4 10 6 14 6s8-2 14-6l182-182c6-6 8-14 4-20zM512 758c-56 0-108-14-156-40-48-28-86-66-114-114-26-48-40-100-40-156s14-108 40-156c28-48 66-86 114-114 48-26 100-40 156-40s108 14 156 40c48 28 86 66 114 114 26 48 40 100 40 156s-14 108-40 156c-28 48-66 86-114 114-48 26-100 40-156 40zM950 448c0-80-18-154-58-220-40-68-92-120-160-160-66-40-140-58-220-58s-154 18-220 58c-68 40-120 92-160 160-40 66-58 140-58 220s18 154 58 220c40 68 92 120 160 160 66 40 140 58 220 58s154-18 220-58c68-40 120-92 160-160 40-66 58-140 58-220z" />
<glyph unicode="&#x44;" glyph-name="inbox" d="M658 412h180c0 0 0 2-2 4 0 2 0 4 0 4l-122 284h-404l-122-284c0 0 0-2 0-4-2-2-2-4-2-4h180l54-110h184zM950 394v-276c0-10-2-18-10-24-8-8-16-12-26-12h-804c-10 0-18 4-26 12-8 6-10 14-10 24v276c0 24 4 48 14 70l136 316c4 10 10 18 20 24s20 10 30 10h476c10 0 20-4 30-10s16-14 20-24l136-316c10-22 14-46 14-70z" />
<glyph unicode="&#x45;" glyph-name="play-circle" d="M750 448c0-14-6-24-18-32l-312-182c-6-4-12-6-18-6s-12 2-18 6-18 18-18 32v364c0 14 6 26 18 32 12 8 24 8 36 0l312-182c12-8 18-18 18-32zM822 448c0 56-14 108-40 156-28 48-66 86-114 114-48 26-100 40-156 40s-108-14-156-40c-48-28-86-66-114-114-26-48-40-100-40-156s14-108 40-156c28-48 66-86 114-114 48-26 100-40 156-40s108 14 156 40c48 28 86 66 114 114 26 48 40 100 40 156zM950 448c0-80-18-154-58-220-40-68-92-120-160-160-66-40-140-58-220-58s-154 18-220 58c-68 40-120 92-160 160-40 66-58 140-58 220s18 154 58 220c40 68 92 120 160 160 66 40 140 58 220 58s154-18 220-58c68-40 120-92 160-160 40-66 58-140 58-220z" />
<glyph unicode="&#x46;" glyph-name="reload" d="M950 814v-256c0-10-2-18-10-26s-16-10-26-10h-256c-16 0-26 6-34 22-6 14-4 28 8 40l80 78c-56 52-124 78-200 78-40 0-78-8-114-22-36-16-66-36-92-64-28-26-48-56-64-92-14-36-22-74-22-114s8-78 22-114c16-36 36-66 64-92 26-28 56-48 92-64 36-14 74-22 114-22 46 0 88 10 128 30 40 18 76 46 102 84 4 2 8 6 14 6s10-2 14-6l78-78c4-4 6-6 6-12 0-4-2-8-4-12-42-50-92-90-152-118-58-28-120-40-186-40-60 0-116 10-170 34s-102 54-140 94c-40 38-70 86-94 140s-34 110-34 170c0 60 10 116 34 170s54 102 94 140c38 40 86 70 140 94s110 34 170 34c56 0 110-10 162-30 52-22 100-52 140-90l74 74c12 12 24 14 40 8 16-8 22-18 22-34z" />
<glyph unicode="&#x47;" glyph-name="sync" d="M936 356c0-2 0-2 0-4-24-102-76-184-154-248-76-64-168-94-272-94-56 0-110 10-162 30-52 22-98 52-138 90l-74-74c-8-6-16-10-26-10s-18 4-26 10c-8 8-10 16-10 26v256c0 10 2 18 10 26s16 10 26 10h256c10 0 18-2 26-10 6-8 10-16 10-26s-4-18-10-26l-78-78c26-24 56-44 92-58 34-14 70-20 106-20 52 0 98 12 142 36 46 26 80 60 108 102 4 8 14 30 30 68 2 8 8 12 16 12h110c6 0 10 0 14-4 2-4 4-8 4-14zM950 814v-256c0-10-2-18-10-26s-16-10-26-10h-256c-10 0-18 2-26 10-6 8-10 16-10 26s4 18 10 26l80 78c-56 52-124 78-200 78-52 0-98-12-142-36-46-26-80-60-108-102-4-8-14-30-30-68-2-8-8-12-16-12h-114c-6 0-10 0-14 4-2 4-4 8-4 14v4c24 102 76 184 154 248s170 94 274 94c56 0 110-10 162-30 52-22 100-52 140-90l74 74c8 6 16 10 26 10s18-4 26-10c8-8 10-16 10-26z" />
<glyph unicode="&#x48;" glyph-name="table" d="M220 284v-38c0-4-2-8-6-12s-8-6-12-6h-38c-4 0-8 2-12 6s-6 8-6 12v38c0 4 2 8 6 12s8 6 12 6h38c4 0 8-2 12-6s6-8 6-12zM220 430v-36c0-6-2-10-6-14s-8-6-12-6h-38c-4 0-8 2-12 6s-6 8-6 14v36c0 4 2 8 6 12s8 6 12 6h38c4 0 8-2 12-6s6-8 6-12zM220 576v-36c0-6-2-10-6-14s-8-4-12-4h-38c-4 0-8 0-12 4s-6 8-6 14v36c0 4 2 10 6 12 4 4 8 6 12 6h38c4 0 8-2 12-6 4-2 6-8 6-12zM878 284v-38c0-4-2-8-6-12s-8-6-12-6h-550c-4 0-8 2-12 6s-6 8-6 12v38c0 4 2 8 6 12s8 6 12 6h550c4 0 8-2 12-6s6-8 6-12zM878 430v-36c0-6-2-10-6-14s-8-6-12-6h-550c-4 0-8 2-12 6s-6 8-6 14v36c0 4 2 8 6 12s8 6 12 6h550c4 0 8-2 12-6s6-8 6-12zM878 576v-36c0-6-2-10-6-14s-8-4-12-4h-550c-4 0-8 0-12 4s-6 8-6 14v36c0 4 2 10 6 12 4 4 8 6 12 6h550c4 0 8-2 12-6 4-2 6-8 6-12zM950 174v476c0 4 0 8-4 12s-8 6-14 6h-840c-6 0-10-2-14-6s-4-8-4-12v-476c0-6 0-10 4-14 4-2 8-4 14-4h840c6 0 10 2 14 4 4 4 4 8 4 14zM1024 796v-622c0-26-8-46-26-64s-40-28-66-28h-840c-26 0-48 10-66 28s-26 38-26 64v622c0 24 8 46 26 64s40 26 66 26h840c26 0 48-8 66-26s26-40 26-64z" />
<glyph unicode="&#x49;" glyph-name="fontawesome-webfont-32" d="M182 814c0-28-12-48-36-64v-722c0-6-2-10-6-14-2-4-8-4-12-4h-36c-6 0-10 0-14 4s-4 8-4 14v722c-26 16-38 36-38 64 0 20 8 38 22 52s32 20 52 20c20 0 38-6 52-20s20-32 20-52zM1024 778v-436c0-10-2-18-8-22-4-6-12-12-22-16-82-44-152-66-210-66-24 0-48 4-72 12-22 8-44 18-62 28-16 10-38 18-66 26-26 8-52 14-80 14-74 0-162-28-266-84-6-4-12-6-18-6-10 0-20 4-26 12-8 6-12 16-12 26v424c0 12 6 22 18 30 8 6 24 14 46 26 90 44 170 68 240 68 42 0 80-6 114-16 36-12 78-28 126-52 14-6 30-10 50-10s42 4 68 12c24 8 44 16 62 26s34 20 50 28c16 8 26 12 32 12 10 0 18-4 26-12 6-6 10-14 10-24z" />
<glyph unicode="&#x4a;" glyph-name="fontawesome-webfont-33" d="M366 522h292v108c0 42-14 76-42 104-30 28-64 44-104 44s-74-16-104-44c-28-28-42-62-42-104zM842 466v-328c0-16-6-30-16-40-12-10-24-16-40-16h-548c-16 0-28 6-40 16-10 10-16 24-16 40v328c0 16 6 28 16 40 12 10 24 16 40 16h18v108c0 70 26 132 76 182s110 74 180 74c70 0 130-24 180-74s76-112 76-182v-108h18c16 0 28-6 40-16 10-12 16-24 16-40z" />
<glyph unicode="&#x4b;" glyph-name="fontawesome-webfont-34" d="M816 788l-304-304 304-302c6-8 10-16 10-26s-4-20-10-26l-96-96c-6-6-16-10-26-10s-18 4-24 10l-424 424c-8 8-12 16-12 26s4 20 12 26l424 424c6 8 14 12 24 12s20-4 26-12l96-94c6-8 10-16 10-26s-4-18-10-26z" />
<glyph unicode="&#x4c;" glyph-name="fontawesome-webfont-35" d="M988 454c0-64-12-124-34-180l-12-28-106-18c-8-32-26-58-52-78s-56-32-90-32v-18c0-4 0-10-4-12-4-4-8-6-14-6h-36c-6 0-10 2-14 6-2 2-4 8-4 12v330c0 6 2 10 4 12 4 4 8 6 14 6h36c6 0 10-2 14-6 4-2 4-6 4-12v-18c28 0 52-8 76-20 22-14 40-32 52-56l40 8c10 36 16 72 16 110 0 56-18 110-50 160-34 50-80 88-136 118s-116 46-180 46c-64 0-124-16-180-46s-102-68-136-118c-32-50-50-104-50-160 0-38 6-74 16-110l40-8c12 24 30 42 52 56 24 12 48 20 76 20v18c0 6 0 10 4 12 4 4 8 6 14 6h36c6 0 10-2 14-6 2-2 4-6 4-12v-330c0-4-2-10-4-12-4-4-8-6-14-6h-36c-6 0-10 2-14 6-4 2-4 8-4 12v18c-34 0-64 12-90 32s-44 46-52 78l-106 18-12 28c-22 56-34 116-34 180 0 58 14 112 38 166 26 54 60 100 104 138 42 40 92 70 152 94 58 24 118 34 182 34s124-10 182-34c60-24 110-54 152-94 44-38 78-84 104-138 24-54 38-108 38-166z" />
<glyph unicode="&#x4d;" glyph-name="fontawesome-webfont-36" d="M732 758v-620c0-10-4-20-12-26-6-8-16-12-26-12s-18 4-24 12l-192 190h-148c-10 0-20 4-26 10-8 8-12 16-12 26v220c0 10 4 18 12 26 6 6 16 10 26 10h148l192 190c6 8 14 12 24 12s20-4 26-12c8-6 12-16 12-26z" />
<glyph unicode="&#x4e;" glyph-name="fontawesome-webfont-37" d="M622 758v-620c0-10-4-20-12-26-6-8-14-12-24-12s-20 4-26 12l-190 190h-150c-10 0-20 4-26 10-8 8-12 16-12 26v220c0 10 4 18 12 26 6 6 16 10 26 10h150l190 190c6 8 16 12 26 12s18-4 24-12c8-6 12-16 12-26zM842 448c0-28-8-56-26-80-16-26-36-44-64-54-4-2-8-4-14-4-10 0-18 4-26 12-6 6-10 16-10 26 0 8 2 14 6 20 6 6 10 10 18 14 6 4 12 8 18 14 8 4 12 10 18 20 4 8 6 20 6 32s-2 24-6 32c-6 10-10 16-18 20-6 6-12 10-18 14-8 4-12 8-18 14-4 6-6 12-6 20 0 10 4 20 10 26 8 8 16 12 26 12 6 0 10-2 14-4 28-10 48-28 64-52 18-26 26-54 26-82z" />
<glyph unicode="&#x4f;" glyph-name="fontawesome-webfont-38" d="M476 758v-620c0-10-4-20-12-26-6-8-16-12-26-12s-18 4-24 12l-192 190h-148c-10 0-20 4-26 10-8 8-12 16-12 26v220c0 10 4 18 12 26 6 6 16 10 26 10h148l192 190c6 8 14 12 24 12s20-4 26-12c8-6 12-16 12-26zM694 448c0-28-8-56-24-80-16-26-38-44-64-54-4-2-8-4-14-4-10 0-18 4-26 12-6 6-10 16-10 26 0 8 2 14 6 20s10 10 16 14c8 4 14 8 20 14 6 4 12 10 16 20 6 8 8 20 8 32s-2 24-8 32c-4 10-10 16-16 20-6 6-12 10-20 14-6 4-12 8-16 14s-6 12-6 20c0 10 4 20 10 26 8 8 16 12 26 12 6 0 10-2 14-4 26-10 48-28 64-52 16-26 24-54 24-82zM842 448c0-58-18-112-50-162-32-48-74-84-128-108-4-2-10-2-14-2-10 0-20 4-26 10-8 8-12 16-12 26 0 16 8 26 22 34 22 12 36 20 44 26 28 20 50 46 66 76 16 32 24 64 24 100s-8 68-24 100c-16 30-38 56-66 76-8 6-22 14-44 26-14 8-22 18-22 34 0 10 4 18 12 26 6 6 16 10 26 10 4 0 10 0 14-2 54-24 96-60 128-108 32-50 50-104 50-162zM988 448c0-88-24-168-74-242-48-72-112-126-192-162-6-2-10-2-16-2-10 0-18 4-24 10-8 8-12 16-12 26 0 14 8 26 22 34 4 2 8 4 14 6s10 4 12 6c18 10 34 20 48 30 46 34 82 78 108 128 28 52 40 108 40 166s-12 114-40 166c-26 50-62 94-108 128-14 10-30 20-48 30-2 2-6 4-12 6s-10 4-14 6c-14 8-22 20-22 34 0 10 4 18 12 26 6 6 14 10 24 10 6 0 10 0 16-2 80-36 144-90 192-162 50-74 74-154 74-242z" />
<glyph unicode="&#x50;" glyph-name="fontawesome-webfont-39" d="M330 302v-74h-74v74zM330 740v-72h-74v72zM768 740v-72h-74v72zM182 156h220v218h-220zM182 594h220v220h-220zM622 594h220v220h-220zM476 448v-366h-366v366zM768 156v-74h-74v74zM914 156v-74h-72v74zM914 448v-220h-220v74h-72v-220h-74v366h220v-74h74v74zM476 886v-364h-366v364zM914 886v-364h-366v364z" />
<glyph unicode="&#x51;" glyph-name="fontawesome-webfont-40" d="M36 82h-36v804h36zM72 82h-18v804h18zM126 82h-18v804h18zM216 82h-18v804h18zM306 82h-36v804h36zM378 82h-18v804h18zM414 82h-18v804h18zM450 82h-18v804h18zM538 82h-36v804h36zM628 82h-36v804h36zM700 82h-36v804h36zM772 82h-36v804h36zM826 82h-36v804h36zM934 82h-54v804h54zM970 82h-18v804h18zM1024 82h-36v804h36z" />
<glyph unicode="&#x52;" glyph-name="fontawesome-webfont-41" d="M330 704c0 20-8 38-22 52s-32 22-52 22c-20 0-38-8-52-22s-22-32-22-52c0-20 8-38 22-52s32-22 52-22c20 0 38 8 52 22s22 32 22 52zM938 374c0-20-6-36-20-50l-280-282c-16-14-34-20-52-20-22 0-38 6-52 20l-408 410c-16 14-28 32-38 58-10 24-14 46-14 66v238c0 20 6 36 20 52 16 14 32 20 52 20h238c20 0 42-4 66-14 26-10 44-22 60-38l408-408c14-14 20-32 20-52z" />
<glyph unicode="&#x53;" glyph-name="fontawesome-webfont-42" d="M238 686c0 20-6 36-20 50-12 12-28 20-48 20-18 0-34-8-48-20-12-14-20-30-20-50 0-18 8-34 20-48 14-12 30-20 48-20 20 0 36 8 48 20 14 14 20 30 20 48zM808 380c0-20-6-36-20-48l-262-262c-14-14-30-20-48-20s-34 6-48 20l-382 382c-12 12-24 30-34 54-10 22-14 42-14 62v222c0 18 6 34 20 48 14 12 30 20 48 20h222c18 0 40-6 62-14 24-10 42-22 54-34l382-382c14-14 20-30 20-48zM1012 380c0-20-6-36-18-48l-262-262c-14-14-30-20-50-20-12 0-22 2-30 8-8 4-18 12-30 24l252 250c12 12 20 28 20 48 0 18-8 34-20 48l-382 382c-14 12-32 24-54 34-22 8-44 14-62 14h118c20 0 40-6 64-14 22-10 40-22 54-34l382-382c12-14 18-30 18-48z" />
<glyph unicode="&#x54;" glyph-name="fontawesome-webfont-43" d="M974 686c14-20 18-46 10-72l-158-518c-6-24-22-46-44-62s-44-24-70-24h-526c-30 0-58 10-86 30-26 20-46 46-56 74-10 26-10 50-2 74 0 0 0 6 2 14 2 10 2 16 2 22 0 4 0 8-2 12 0 6-2 10-2 12 2 4 4 8 6 12s4 8 8 12c4 6 8 10 10 14 10 14 18 32 26 52s14 38 18 52c0 4 0 10 0 18-2 8-2 12 0 16 0 4 4 10 8 16 6 6 10 10 10 14 8 12 16 30 24 52s14 38 14 52c2 2 0 8 0 18-2 8-2 14 0 16 2 4 6 10 12 16 8 8 12 12 12 14 8 10 16 26 26 48 8 22 14 40 14 56 2 2 0 8 0 14-2 6-2 12-2 14 0 4 2 8 6 12 2 2 6 8 10 12 4 6 6 10 10 12 2 4 6 10 8 18 4 6 6 14 10 20 2 6 4 12 8 20s8 14 12 18c4 6 8 10 14 14s14 6 22 6c6 0 16 0 26-2v-2c14 4 24 4 28 4h436c28 0 50-10 64-32 16-20 20-46 12-74l-158-518c-14-44-26-74-40-86-14-14-38-20-74-20h-496c-10 0-18-4-22-10s-4-14 0-24c8-26 36-40 82-40h528c10 0 20 4 32 10 10 6 16 12 20 22l170 564c4 10 4 20 4 34 14-6 26-14 34-26zM366 686c-2-6-2-10 0-14 2-2 6-4 12-4h348c4 0 8 2 14 4 4 4 8 8 10 14l12 36c0 6 0 10-2 14-2 2-6 4-12 4h-346c-6 0-10-2-16-4-4-4-8-8-8-14zM318 540c-2-6-2-10 0-14 4-4 6-4 12-4h348c4 0 10 0 14 4 6 4 8 8 10 14l12 36c2 4 0 10-2 12-2 4-6 6-10 6h-348c-6 0-10-2-14-6-6-2-8-8-10-12z" />
<glyph unicode="&#x55;" glyph-name="bookmark" d="M812 886c8 0 16 0 24-4 14-6 24-14 30-24 8-10 12-22 12-36v-736c0-12-4-24-12-36-6-10-16-18-30-22-6-4-16-6-24-6-18 0-34 6-48 20l-252 242-252-242c-14-14-30-20-48-20-8 0-16 2-24 6-14 4-24 12-30 22-8 12-12 24-12 36v736c0 14 4 26 12 36 6 10 16 18 30 24 8 4 16 4 24 4z" />
<glyph unicode="&#x56;" glyph-name="fontawesome-webfont-45" d="M256 82h512v146h-512zM256 448h512v220h-92c-14 0-28 4-38 16-10 10-16 24-16 38v92h-366zM914 412c0 10-4 18-10 26-8 6-16 10-26 10s-18-4-26-10c-8-8-10-16-10-26s2-20 10-26c8-8 16-12 26-12s18 4 26 12c6 6 10 16 10 26zM988 412v-238c0-6-2-10-6-14-4-2-8-4-12-4h-128v-92c0-16-6-28-16-38-12-12-24-16-40-16h-548c-16 0-28 4-40 16-10 10-16 22-16 38v92h-128c-4 0-8 2-12 4-4 4-6 8-6 14v238c0 30 12 56 32 76 22 22 48 34 78 34h36v310c0 16 6 28 16 38 12 12 24 16 40 16h384c14 0 32-2 50-10s32-18 44-28l86-86c10-12 20-26 28-44s12-36 12-50v-146h36c30 0 56-12 78-34 20-20 32-46 32-76z" />
<glyph unicode="&#x57;" glyph-name="fontawesome-webfont-46" d="M512 568c42 0 78-16 108-46s46-66 46-108c0-42-16-78-46-108s-66-46-108-46c-42 0-78 16-108 46s-46 66-46 108c0 42 16 78 46 108s66 46 108 46zM888 790c38 0 70-14 96-40 26-28 40-60 40-98v-478c0-36-14-68-40-96-26-26-58-40-96-40h-752c-38 0-70 14-96 40-26 28-40 60-40 96v478c0 38 14 70 40 98 26 26 58 40 96 40h120l28 72c6 18 18 32 36 44 18 14 36 20 56 20h272c20 0 38-6 56-20 18-12 30-26 36-44l28-72zM512 174c66 0 122 24 168 72 48 46 70 102 70 168s-22 122-70 168c-46 48-102 70-168 70s-122-22-168-70c-48-46-70-102-70-168s22-122 70-168c46-48 102-72 168-72z" />
<glyph unicode="&#x5b;" glyph-name="fontawesome-webfont-82" d="M730 318c0 10-4 20-12 26l-102 104 102 104c8 6 12 16 12 26s-4 18-12 26l-50 50c-8 8-16 12-26 12s-20-4-26-12l-104-102-104 102c-6 8-16 12-26 12s-18-4-26-12l-50-50c-8-8-12-16-12-26s4-20 12-26l102-104-102-104c-8-6-12-16-12-26s4-18 12-26l50-50c8-8 16-12 26-12s20 4 26 12l104 102 104-102c6-8 16-12 26-12s18 4 26 12l50 50c8 8 12 16 12 26zM950 448c0-80-18-154-58-220-40-68-92-120-160-160-66-40-140-58-220-58s-154 18-220 58c-68 40-120 92-160 160-40 66-58 140-58 220s18 154 58 220c40 68 92 120 160 160 66 40 140 58 220 58s154-18 220-58c68-40 120-92 160-160 40-66 58-140 58-220z" />
<glyph unicode="&#x5c;" glyph-name="fontawesome-webfont-91" d="M958 406c0-20-8-38-22-52l-42-44c-16-14-32-20-52-20-22 0-38 6-52 20l-168 168v-402c0-20-8-36-22-48s-32-18-52-18h-72c-20 0-38 6-52 18s-22 28-22 48v402l-168-168c-14-14-30-20-52-20-20 0-36 6-50 20l-44 44c-14 14-22 32-22 52s8 36 22 52l372 372c14 14 32 20 52 20s38-6 52-20l372-372c14-16 22-34 22-52z" />
<glyph unicode="&#x5d;" glyph-name="fontawesome-webfont-83" d="M806 540c0 12-2 20-10 26l-52 52c-6 8-16 12-26 12s-18-4-24-12l-234-232-130 128c-6 8-14 12-24 12s-20-4-26-12l-52-50c-8-8-10-16-10-26 0-12 2-20 10-26l206-208c8-6 16-10 26-10s20 4 26 10l310 310c8 8 10 16 10 26zM950 448c0-80-18-154-58-220-40-68-92-120-160-160-66-40-140-58-220-58s-154 18-220 58c-68 40-120 92-160 160-40 66-58 140-58 220s18 154 58 220c40 68 92 120 160 160 66 40 140 58 220 58s154-18 220-58c68-40 120-92 160-160 40-66 58-140 58-220z" />
<glyph unicode="&#x5e;" glyph-name="fontawesome-webfont-84" d="M586 174v110c0 4-2 10-6 12-4 4-8 6-14 6h-108c-6 0-10-2-14-6-4-2-6-8-6-12v-110c0-6 2-10 6-14 4-2 8-4 14-4h108c6 0 10 2 14 4 4 4 6 8 6 14zM732 558c0 34-12 64-32 92-22 30-48 52-80 68-32 14-64 22-96 22-94 0-164-40-212-122-6-8-4-16 4-24l76-56c2-2 6-4 10-4 6 0 12 2 14 8 20 26 38 42 50 52 12 8 30 14 48 14 20 0 36-6 50-16s22-20 22-34c0-14-4-26-12-34s-20-18-40-26c-24-10-46-26-66-50-20-22-30-46-30-70v-22c0-4 2-10 6-12 4-4 8-6 14-6h108c6 0 10 2 14 6 4 2 6 8 6 12 0 8 4 18 12 28 8 12 18 22 30 30 12 6 22 12 28 16 8 4 16 10 26 20 12 8 20 18 26 26 6 10 12 22 16 36 6 14 8 28 8 46zM950 448c0-80-18-154-58-220-40-68-92-120-160-160-66-40-140-58-220-58s-154 18-220 58c-68 40-120 92-160 160-40 66-58 140-58 220s18 154 58 220c40 68 92 120 160 160 66 40 140 58 220 58s154-18 220-58c68-40 120-92 160-160 40-66 58-140 58-220z" />
<glyph unicode="&#x5f;" glyph-name="fontawesome-webfont-85" d="M658 174v92c0 4-2 8-4 12-4 4-8 6-14 6h-54v292c0 6-2 10-6 14-4 2-8 4-14 4h-182c-6 0-10-2-14-4-2-4-4-8-4-14v-92c0-4 2-10 4-12 4-4 8-6 14-6h54v-182h-54c-6 0-10-2-14-6-2-4-4-8-4-12v-92c0-6 2-10 4-14 4-2 8-4 14-4h256c6 0 10 2 14 4 2 4 4 8 4 14zM586 686v92c0 4-2 8-6 12s-8 6-14 6h-108c-6 0-10-2-14-6s-6-8-6-12v-92c0-6 2-10 6-14 4-2 8-4 14-4h108c6 0 10 2 14 4 4 4 6 8 6 14zM950 448c0-80-18-154-58-220-40-68-92-120-160-160-66-40-140-58-220-58s-154 18-220 58c-68 40-120 92-160 160-40 66-58 140-58 220s18 154 58 220c40 68 92 120 160 160 66 40 140 58 220 58s154-18 220-58c68-40 120-92 160-160 40-66 58-140 58-220z" />
<glyph unicode="&#x60;" glyph-name="fontawesome-webfont-86" d="M700 344l-84-84c-4-4-8-6-12-6-6 0-10 2-14 6l-78 78-78-78c-4-4-8-6-14-6-4 0-8 2-12 6l-84 84c-4 4-6 8-6 12 0 6 2 10 6 14l78 78-78 78c-4 4-6 8-6 14 0 4 2 8 6 12l84 84c4 4 8 6 12 6 6 0 10-2 14-6l78-78 78 78c4 4 8 6 14 6 4 0 8-2 12-6l84-84c4-4 6-8 6-12 0-6-2-10-6-14l-78-78 78-78c4-4 6-8 6-14 0-4-2-8-6-12zM822 448c0 56-14 108-40 156-28 48-66 86-114 114-48 26-100 40-156 40s-108-14-156-40c-48-28-86-66-114-114-26-48-40-100-40-156s14-108 40-156c28-48 66-86 114-114 48-26 100-40 156-40s108 14 156 40c48 28 86 66 114 114 26 48 40 100 40 156zM950 448c0-80-18-154-58-220-40-68-92-120-160-160-66-40-140-58-220-58s-154 18-220 58c-68 40-120 92-160 160-40 66-58 140-58 220s18 154 58 220c40 68 92 120 160 160 66 40 140 58 220 58s154-18 220-58c68-40 120-92 160-160 40-66 58-140 58-220z" />
<glyph unicode="&#x61;" glyph-name="close-icon" d="M568 448l444 446c16 14 16 38 0 54s-40 16-54 0l-446-444-446 444c-14 16-38 16-54 0s-16-40 0-54l444-446-444-446c-16-14-16-38 0-54 8-8 16-12 28-12s20 4 26 12l446 444 446-444c6-8 18-12 26-12s20 4 28 12c16 16 16 40 0 54z" />
<glyph unicode="&#x62;" glyph-name="ideagen-logo" d="M80 562c-18-4-36-12-52-28s-26-40-26-62l36 4c2 10 4 18 10 26 6 16 16 40 32 60zM126 518c12 4 26 8 44 8-2 4-4 8-8 10-18 18-44 28-70 26-14-14-24-30-30-46 18 14 44 14 64 2zM152 448c10-6 20-12 30-20 14 30 12 64-6 92-16-2-30-4-42-8 2 0 2 0 4-2 16-16 22-42 14-62zM148 440c-4-4-6-10-10-12-10-10-22-16-34-18l-4-36c24 0 46 10 64 28 6 6 10 12 14 20-10 6-20 12-30 18zM130 472c0-20-16-34-34-34s-34 14-34 34c0 18 16 34 34 34s34-16 34-34zM242 546c0 4 2 8 4 12 4 4 10 4 16 4s10 0 14-4c2-4 4-8 4-12 0-6-2-10-4-14-4-4-8-4-14-4s-12 0-14 4c-4 4-6 8-6 14zM278 382h-34v130h34v-130zM290 448c0 20 4 36 14 48 8 12 20 18 36 18 14 0 24-4 32-14v66h34v-184h-30l-2 14c-10-12-20-18-34-18-16 0-28 8-36 20-10 10-14 28-14 50zM324 444c0-12 2-20 6-28 4-6 10-10 20-10s18 6 22 14v52c-4 10-12 14-22 14-18 0-26-14-26-42zM482 378c-20 0-36 6-48 18s-18 28-18 48v2c0 14 4 26 8 36 6 10 12 18 22 24 8 4 20 8 32 8 18 0 32-6 42-18 10-10 14-26 14-46v-14h-82c2-10 4-16 10-22 6-4 12-8 22-8 12 0 24 6 30 16l18-20c-6-6-12-12-22-16-8-4-18-8-28-8zM478 486c-8 0-14-2-18-8-4-4-6-10-8-20h48v4c0 8-2 14-6 18s-10 6-16 6zM618 382c-2 2-4 6-4 12-8-10-20-16-32-16-14 0-24 4-32 12-10 8-14 16-14 28 0 14 6 24 16 32 10 6 26 10 44 10h16v8c0 6-2 12-4 14-4 4-8 6-14 6s-12-2-14-4c-4-2-6-6-6-12h-34c0 8 2 16 6 22 6 6 12 10 20 14s18 6 30 6c16 0 28-4 38-12 8-8 14-20 14-34v-56c0-14 2-22 4-28v-2zM588 406c6 0 10 0 14 2 6 4 8 6 10 10v22h-12c-18 0-26-6-28-18v-2c0-4 2-8 4-10 4-4 8-4 12-4zM656 448c0 20 6 36 16 48 8 12 22 18 38 18 14 0 24-6 32-14l2 12h32v-126c0-12-2-22-8-30s-12-14-22-20c-10-4-20-6-32-6-10 0-20 2-28 6-10 4-16 8-22 14l16 22c8-10 20-14 32-14 8 0 16 2 20 6 6 6 8 12 8 22v6c-8-8-18-14-32-14s-28 8-36 20c-10 12-16 28-16 48v2zM692 444c0-12 2-20 6-28 6-6 12-10 20-10 10 0 18 4 22 12v56c-4 8-12 12-22 12-8 0-14-4-20-10-4-8-6-18-6-32zM850 378c-20 0-34 6-46 18s-18 28-18 48v2c0 14 2 26 8 36 4 10 12 18 20 24 10 4 20 8 32 8 18 0 32-6 42-18 10-10 16-26 16-46v-14h-84c2-10 6-16 10-22 6-4 14-8 22-8 14 0 24 6 32 16l16-20c-4-6-12-12-20-16-10-4-20-8-30-8zM846 486c-6 0-12-2-16-8-4-4-8-10-8-20h48v4c0 8-2 14-6 18s-10 6-18 6zM942 512l2-16c10 12 22 18 38 18 14 0 24-4 30-12s10-20 10-36v-84h-34v82c0 8-2 14-6 16-2 4-8 6-16 6s-16-4-22-12v-92h-34v130z" />
<glyph unicode="&#x63;" glyph-name="fontawesome-webfont" d="M804 412v72c0 10-4 20-10 26-8 8-16 12-26 12h-512c-10 0-18-4-26-12-6-6-10-16-10-26v-72c0-10 4-20 10-26 8-8 16-12 26-12h512c10 0 18 4 26 12 6 6 10 16 10 26zM950 722v-548c0-46-16-84-48-116s-70-48-116-48h-548c-46 0-84 16-116 48s-48 70-48 116v548c0 46 16 84 48 116s70 48 116 48h548c46 0 84-16 116-48s48-70 48-116z" />
<glyph unicode="&#x64;" glyph-name="fontawesome-webfont-1" d="M970 854c0-14-8-28-24-44l-360-362v-438h182c10 0 18-4 26-12 6-6 10-16 10-26s-4-18-10-26c-8-6-16-10-26-10h-512c-10 0-18 4-26 10-6 8-10 16-10 26s4 20 10 26c8 8 16 12 26 12h182v438l-360 362c-16 16-24 30-24 44 0 8 2 16 10 20 6 6 14 10 22 10 6 2 14 2 24 2h804c10 0 18 0 24-2 8 0 16-4 22-10 8-4 10-12 10-20z" />
<glyph unicode="&#x65;" glyph-name="search" d="M694 484c0 72-24 132-74 182s-110 74-182 74c-70 0-130-24-180-74s-76-110-76-182c0-70 26-130 76-180s110-76 180-76c72 0 132 26 182 76s74 110 74 180zM988 10c0-20-8-38-22-52s-32-22-52-22c-20 0-38 8-52 22l-196 196c-68-48-144-72-228-72-54 0-106 10-156 32s-92 50-128 86c-36 36-64 78-86 128-20 50-32 102-32 156 0 56 12 108 32 156 22 50 50 94 86 130s78 64 128 86c50 20 102 30 156 30 56 0 108-10 158-30 48-22 92-50 128-86s64-80 86-130c20-48 32-100 32-156 0-84-24-160-72-228l196-196c14-14 22-30 22-50z" />
<glyph unicode="&#x66;" glyph-name="fontawesome-webfont-3" d="M950 100v440c-12-14-24-26-38-38-102-78-184-144-244-194-20-16-36-28-48-38-12-8-28-18-48-28-22-8-42-14-60-14v0c-18 0-38 6-60 14-20 10-36 20-48 28-12 10-28 22-48 38-60 50-142 116-244 194-14 12-26 24-38 38v-440c0-4 0-8 4-12s8-6 14-6h840c6 0 10 2 14 6s4 8 4 12zM950 702v14c0 0 0 2 0 6 0 6 0 8-2 8 0 0-2 2-2 4-2 4-4 6-6 6-2-2-4-2-8 0h-840c-6 0-10-2-14-4-4-4-4-8-4-14 0-64 28-118 84-162 72-58 150-118 228-182 2-2 10-6 20-16 12-10 20-16 26-22 8-4 16-10 26-18 10-6 20-12 28-16 10-2 18-4 26-4v0c8 0 16 2 26 4 8 4 18 10 28 16 10 8 18 14 26 18 6 6 14 12 26 22 10 10 18 14 20 16 78 64 156 124 228 182 22 16 40 38 58 66s26 52 26 76zM1024 722v-622c0-24-8-46-26-64s-40-26-66-26h-840c-26 0-48 8-66 26s-26 40-26 64v622c0 26 8 46 26 64s40 28 66 28h840c26 0 48-10 66-28s26-38 26-64z" />
<glyph unicode="&#x67;" glyph-name="fontawesome-webfont-4" d="M512 10c-10 0-18 2-26 10l-356 344c-4 2-8 8-16 14-6 8-16 20-32 38-14 18-26 36-38 56-12 18-22 42-30 68-10 28-14 54-14 80 0 84 24 148 72 196s116 70 202 70c22 0 46-4 72-12 24-8 46-18 68-32s40-28 54-40c16-12 30-24 44-38 14 14 28 26 44 38 14 12 32 26 54 40s44 24 68 32c26 8 50 12 72 12 86 0 154-22 202-70s72-112 72-196c0-84-44-170-130-258l-356-342c-8-8-16-10-26-10z" />
<glyph unicode="&#x68;" glyph-name="fontawesome-webfont-5" d="M988 590c0-8-6-18-16-28l-206-202 48-286c0-2 0-6 0-10 0-8-2-16-6-20-4-6-8-10-16-10s-16 4-24 8l-256 134-256-134c-8-4-16-8-24-8s-14 4-18 10c-4 4-6 12-6 20 0 2 0 6 2 10l48 286-208 202c-8 12-14 20-14 28 0 14 12 24 32 26l288 42 128 260c8 16 16 24 28 24s20-8 28-24l128-260 288-42c20-2 32-12 32-26z" />
<glyph unicode="&#x69;" glyph-name="fontawesome-webfont-6" d="M686 386l176 170-242 36-108 218-108-218-242-36 176-170-42-240 216 114 216-114zM988 590c0-8-6-18-16-28l-206-202 48-286c0-2 0-6 0-10 0-20-6-30-22-30-8 0-16 4-24 8l-256 134-256-134c-8-4-16-8-24-8s-14 4-18 10c-4 4-6 12-6 20 0 2 0 6 2 10l48 286-208 202c-8 12-14 20-14 28 0 14 12 24 32 26l288 42 128 260c8 16 16 24 28 24s20-8 28-24l128-260 288-42c20-2 32-12 32-26z" />
<glyph unicode="&#x6a;" glyph-name="fontawesome-webfont-7" d="M914 158c0-46-14-82-42-110-28-26-64-38-110-38h-500c-46 0-82 12-110 38-28 28-42 64-42 110 0 20 0 40 2 58 2 20 4 40 8 62s8 44 14 62c6 20 16 38 26 56s22 34 34 46c14 14 30 24 50 32 18 6 40 10 64 10 2 0 10-4 24-12 12-8 26-18 42-28s36-18 62-26c26-8 50-12 76-12s50 4 76 12c26 8 46 16 62 26s30 20 42 28c14 8 22 12 24 12 24 0 46-4 64-10 20-8 36-18 50-32 12-12 24-28 34-46s20-36 26-56c6-18 10-40 14-62s6-42 8-62c2-18 2-38 2-58zM732 668c0-62-22-112-64-156-44-42-96-64-156-64s-112 22-156 64c-42 44-64 94-64 156 0 60 22 112 64 154 44 44 96 64 156 64s112-20 156-64c42-42 64-94 64-154z" />
<glyph unicode="&#x6b;" glyph-name="fontawesome-webfont-8" d="M204 72v68c0 10-2 18-10 24-6 8-14 10-24 10h-68c-8 0-16-2-24-10-6-6-10-14-10-24v-68c0-8 4-16 10-24 8-6 16-10 24-10h68c10 0 18 4 24 10 8 8 10 16 10 24zM204 278v68c0 8-2 16-10 24-6 6-14 10-24 10h-68c-8 0-16-4-24-10-6-8-10-16-10-24v-68c0-10 4-18 10-24 8-8 16-10 24-10h68c10 0 18 2 24 10 8 6 10 14 10 24zM204 482v68c0 10-2 18-10 24-6 8-14 10-24 10h-68c-8 0-16-2-24-10-6-6-10-14-10-24v-68c0-10 4-18 10-24 8-6 16-10 24-10h68c10 0 18 4 24 10 8 6 10 14 10 24zM750 72v274c0 8-2 16-10 24-6 6-14 10-24 10h-408c-10 0-18-4-24-10-8-8-10-16-10-24v-274c0-8 2-16 10-24 6-6 14-10 24-10h408c10 0 18 4 24 10 8 8 10 16 10 24zM204 686v70c0 8-2 16-10 24-6 6-14 10-24 10h-68c-8 0-16-4-24-10-6-8-10-16-10-24v-70c0-8 4-16 10-24 8-6 16-10 24-10h68c10 0 18 4 24 10 8 8 10 16 10 24zM956 72v68c0 10-4 18-10 24-8 8-16 10-24 10h-68c-10 0-18-2-24-10-8-6-10-14-10-24v-68c0-8 2-16 10-24 6-6 14-10 24-10h68c8 0 16 4 24 10 6 8 10 16 10 24zM750 482v274c0 8-2 16-10 24-6 6-14 10-24 10h-408c-10 0-18-4-24-10-8-8-10-16-10-24v-274c0-10 2-18 10-24 6-6 14-10 24-10h408c10 0 18 4 24 10 8 6 10 14 10 24zM956 278v68c0 8-4 16-10 24-8 6-16 10-24 10h-68c-10 0-18-4-24-10-8-8-10-16-10-24v-68c0-10 2-18 10-24 6-8 14-10 24-10h68c8 0 16 2 24 10 6 6 10 14 10 24zM956 482v68c0 10-4 18-10 24-8 8-16 10-24 10h-68c-10 0-18-2-24-10-8-6-10-14-10-24v-68c0-10 2-18 10-24 6-6 14-10 24-10h68c8 0 16 4 24 10 6 6 10 14 10 24zM956 686v70c0 8-4 16-10 24-8 6-16 10-24 10h-68c-10 0-18-4-24-10-8-8-10-16-10-24v-70c0-8 2-16 10-24 6-6 14-10 24-10h68c8 0 16 4 24 10 6 8 10 16 10 24zM1024 772v-716c0-24-8-44-26-60-16-18-36-26-60-26h-852c-24 0-44 8-60 26-18 16-26 36-26 60v716c0 24 8 44 26 60 16 18 36 26 60 26h852c24 0 44-8 60-26 18-16 26-36 26-60z" />
<glyph unicode="&#x6c;" glyph-name="fontawesome-webfont-9" d="M476 374v-218c0-20-8-38-22-52s-32-22-52-22h-292c-20 0-38 8-52 22s-22 32-22 52v218c0 20 8 38 22 52s32 22 52 22h292c20 0 38-8 52-22s22-32 22-52zM476 814v-220c0-20-8-36-22-52-14-14-32-20-52-20h-292c-20 0-38 6-52 20-14 16-22 32-22 52v220c0 20 8 36 22 52 14 14 32 20 52 20h292c20 0 38-6 52-20 14-16 22-32 22-52zM988 374v-218c0-20-8-38-22-52s-32-22-52-22h-292c-20 0-38 8-52 22s-22 32-22 52v218c0 20 8 38 22 52s32 22 52 22h292c20 0 38-8 52-22s22-32 22-52zM988 814v-220c0-20-8-36-22-52-14-14-32-20-52-20h-292c-20 0-38 6-52 20-14 16-22 32-22 52v220c0 20 8 36 22 52 14 14 32 20 52 20h292c20 0 38-6 52-20 14-16 22-32 22-52z" />
<glyph unicode="&#x6d;" glyph-name="fontawesome-webfont-10" d="M292 246v-108c0-16-4-30-16-40-10-10-24-16-38-16h-184c-14 0-28 6-38 16s-16 24-16 40v108c0 16 6 30 16 40s24 16 38 16h184c14 0 28-6 38-16 12-10 16-24 16-40zM292 540v-110c0-16-4-28-16-40-10-10-24-16-38-16h-184c-14 0-28 6-38 16-10 12-16 24-16 40v110c0 14 6 28 16 38s24 16 38 16h184c14 0 28-6 38-16 12-10 16-24 16-38zM658 246v-108c0-16-6-30-16-40s-24-16-38-16h-184c-14 0-28 6-38 16s-16 24-16 40v108c0 16 6 30 16 40s24 16 38 16h184c14 0 28-6 38-16s16-24 16-40zM292 832v-110c0-14-4-28-16-38-10-12-24-16-38-16h-184c-14 0-28 4-38 16-10 10-16 24-16 38v110c0 16 6 28 16 38 10 12 24 16 38 16h184c14 0 28-4 38-16 12-10 16-22 16-38zM658 540v-110c0-16-6-28-16-40-10-10-24-16-38-16h-184c-14 0-28 6-38 16-10 12-16 24-16 40v110c0 14 6 28 16 38s24 16 38 16h184c14 0 28-6 38-16s16-24 16-38zM1024 246v-108c0-16-6-30-16-40s-24-16-38-16h-184c-14 0-28 6-38 16-12 10-16 24-16 40v108c0 16 4 30 16 40 10 10 24 16 38 16h184c14 0 28-6 38-16s16-24 16-40zM658 832v-110c0-14-6-28-16-38-10-12-24-16-38-16h-184c-14 0-28 4-38 16-10 10-16 24-16 38v110c0 16 6 28 16 38 10 12 24 16 38 16h184c14 0 28-4 38-16 10-10 16-22 16-38zM1024 540v-110c0-16-6-28-16-40-10-10-24-16-38-16h-184c-14 0-28 6-38 16-12 12-16 24-16 40v110c0 14 4 28 16 38 10 10 24 16 38 16h184c14 0 28-6 38-16s16-24 16-38zM1024 832v-110c0-14-6-28-16-38-10-12-24-16-38-16h-184c-14 0-28 4-38 16-12 10-16 24-16 38v110c0 16 4 28 16 38 10 12 24 16 38 16h184c14 0 28-4 38-16 10-10 16-22 16-38z" />
<glyph unicode="&#x6e;" glyph-name="fontawesome-webfont-11" d="M292 246v-108c0-16-4-30-16-40-10-10-24-16-38-16h-184c-14 0-28 6-38 16s-16 24-16 40v108c0 16 6 30 16 40s24 16 38 16h184c14 0 28-6 38-16 12-10 16-24 16-40zM292 540v-110c0-16-4-28-16-40-10-10-24-16-38-16h-184c-14 0-28 6-38 16-10 12-16 24-16 40v110c0 14 6 28 16 38s24 16 38 16h184c14 0 28-6 38-16 12-10 16-24 16-38zM1024 246v-108c0-16-6-30-16-40s-24-16-38-16h-550c-14 0-28 6-38 16s-16 24-16 40v108c0 16 6 30 16 40s24 16 38 16h550c14 0 28-6 38-16s16-24 16-40zM292 832v-110c0-14-4-28-16-38-10-12-24-16-38-16h-184c-14 0-28 4-38 16-10 10-16 24-16 38v110c0 16 6 28 16 38 10 12 24 16 38 16h184c14 0 28-4 38-16 12-10 16-22 16-38zM1024 540v-110c0-16-6-28-16-40-10-10-24-16-38-16h-550c-14 0-28 6-38 16-10 12-16 24-16 40v110c0 14 6 28 16 38s24 16 38 16h550c14 0 28-6 38-16s16-24 16-38zM1024 832v-110c0-14-6-28-16-38-10-12-24-16-38-16h-550c-14 0-28 4-38 16-10 10-16 24-16 38v110c0 16 6 28 16 38 10 12 24 16 38 16h550c14 0 28-4 38-16 10-10 16-22 16-38z" />
<glyph unicode="&#x6f;" glyph-name="check" d="M954 636c0-14-4-28-16-38l-490-492c-12-10-24-16-40-16-14 0-28 6-38 16l-284 284c-12 12-16 24-16 40 0 14 4 28 16 38l76 78c12 10 24 16 40 16 14 0 28-6 38-16l168-168 376 376c10 10 24 16 38 16 16 0 28-6 40-16l76-78c12-12 16-24 16-40z" />
<glyph unicode="&#x70;" glyph-name="fontawesome-webfont-13" d="M714 430c0-4-2-10-6-14l-182-182c-6-4-10-6-14-6s-8 2-14 6l-182 182c-6 6-8 14-4 20 4 8 8 12 18 12h108v202c0 4 2 8 6 12s8 6 14 6h108c6 0 10-2 14-6s6-8 6-12v-202h108c6 0 10-2 14-6 4-2 6-6 6-12zM512 758c-56 0-108-14-156-40-48-28-86-66-114-114-26-48-40-100-40-156s14-108 40-156c28-48 66-86 114-114 48-26 100-40 156-40s108 14 156 40c48 28 86 66 114 114 26 48 40 100 40 156s-14 108-40 156c-28 48-66 86-114 114-48 26-100 40-156 40zM950 448c0-80-18-154-58-220-40-68-92-120-160-160-66-40-140-58-220-58s-154 18-220 58c-68 40-120 92-160 160-40 66-58 140-58 220s18 154 58 220c40 68 92 120 160 160 66 40 140 58 220 58s154-18 220-58c68-40 120-92 160-160 40-66 58-140 58-220z" />
<glyph unicode="&#x71;" glyph-name="fontawesome-webfont-14" d="M768 192c0 10-4 18-10 26-8 6-16 10-26 10s-20-4-26-10c-8-8-12-16-12-26s4-18 12-26c6-6 16-10 26-10s18 4 26 10c6 8 10 16 10 26zM914 192c0 10-4 18-10 26-8 6-16 10-26 10s-18-4-26-10c-8-8-10-16-10-26s2-18 10-26c8-6 16-10 26-10s18 4 26 10c6 8 10 16 10 26zM988 320v-182c0-16-6-30-16-40-12-10-24-16-40-16h-840c-16 0-28 6-40 16-10 10-16 24-16 40v182c0 16 6 28 16 38 12 12 24 16 40 16h266l76-76c22-22 48-32 78-32s56 10 78 32l78 76h264c16 0 28-4 40-16 10-10 16-22 16-38zM802 646c6-16 4-30-8-40l-256-256c-8-8-16-12-26-12s-18 4-26 12l-256 256c-12 10-14 24-8 40 6 14 18 22 34 22h146v256c0 10 4 18 12 26 6 6 14 10 24 10h148c10 0 18-4 24-10 8-8 12-16 12-26v-256h146c16 0 28-8 34-22z" />
<glyph unicode="&#x72;" glyph-name="fontawesome-webfont-15" d="M592 394v2l-12 172c0 4-2 8-6 12-4 2-8 4-12 4h-100c-4 0-8-2-12-4-4-4-6-8-6-12l-12-172v-2c0-4 0-8 4-10 2-2 6-4 10-4h132c4 0 8 2 10 4 4 2 4 6 4 10zM998 146c0-26-8-40-26-40h-374c4 0 8 2 12 6 2 4 4 8 4 12l-12 136c0 4-2 8-6 12-2 4-6 6-12 6h-144c-6 0-10-2-12-6-4-4-6-8-6-12l-12-136c0-4 2-8 4-12 4-4 8-6 12-6h-374c-18 0-26 14-26 40 0 18 6 40 14 62l222 556c4 8 8 12 14 18 8 4 14 8 22 8h180c-4 0-8-2-12-6s-6-8-6-12l-8-102c0-6 0-10 4-12 4-4 8-6 12-6h88c4 0 8 2 12 6 4 2 4 6 4 12l-8 102c0 4-2 8-6 12s-8 6-12 6h180c8 0 14-4 22-8 6-6 10-10 14-18l222-556c8-22 14-44 14-62z" />
<glyph unicode="&#x73;" glyph-name="fontawesome-webfont-16" d="M586 650v-256c0-6-2-10-6-14s-8-6-14-6h-182c-6 0-10 2-14 6-2 4-4 8-4 14v36c0 6 2 10 4 12 4 4 8 6 14 6h128v202c0 4 2 8 6 12 2 4 6 6 12 6h36c6 0 10-2 14-6s6-8 6-12zM822 448c0 56-14 108-40 156-28 48-66 86-114 114-48 26-100 40-156 40s-108-14-156-40c-48-28-86-66-114-114-26-48-40-100-40-156s14-108 40-156c28-48 66-86 114-114 48-26 100-40 156-40s108 14 156 40c48 28 86 66 114 114 26 48 40 100 40 156zM950 448c0-80-18-154-58-220-40-68-92-120-160-160-66-40-140-58-220-58s-154 18-220 58c-68 40-120 92-160 160-40 66-58 140-58 220s18 154 58 220c40 68 92 120 160 160 66 40 140 58 220 58s154-18 220-58c68-40 120-92 160-160 40-66 58-140 58-220z" />
<glyph unicode="&#x74;" glyph-name="fontawesome-webfont-17" d="M912 742c10-10 20-24 28-42s10-36 10-50v-660c0-14-4-28-16-38-10-10-22-16-38-16h-768c-16 0-28 6-38 16-12 10-16 24-16 38v916c0 14 4 28 16 38 10 10 22 16 38 16h512c16 0 32-4 50-12s34-16 44-26zM658 882v-214h216c-4 10-8 18-14 22l-178 180c-4 4-12 8-24 12zM878 10v584h-238c-16 0-28 6-38 16-12 10-16 24-16 40v236h-440v-876z" />
<glyph unicode="&#x75;" glyph-name="home" d="M842 394v-276c0-10-4-18-12-24-6-8-16-12-26-12h-218v220h-148v-220h-218c-10 0-20 4-26 12-8 6-12 14-12 24v276c0 0 0 0 2 0 0 2 0 2 0 2l328 272 328-272c0 0 2-2 2-2zM968 432l-34-42c-4-4-8-6-12-6h-2c-6 0-10 2-12 4l-396 330-396-330c-4-4-8-4-14-4-4 0-8 2-12 6l-34 42c-4 4-4 8-4 14s2 10 6 12l410 342c12 10 28 16 44 16s32-6 44-16l138-116v112c0 4 2 10 6 12 4 4 8 6 14 6h108c6 0 10-2 14-6 4-2 6-8 6-12v-234l124-104c4-2 6-6 6-12s0-10-4-14z" />
<glyph unicode="&#x76;" glyph-name="fontawesome-webfont-19" d="M402 540v-330c0-6-2-10-4-12-4-4-8-6-14-6h-36c-6 0-10 2-14 6-4 2-4 6-4 12v330c0 4 0 10 4 12 4 4 8 6 14 6h36c6 0 10-2 14-6 2-2 4-8 4-12zM548 540v-330c0-6-2-10-4-12-4-4-8-6-14-6h-36c-6 0-10 2-14 6-2 2-4 6-4 12v330c0 4 2 10 4 12 4 4 8 6 14 6h36c6 0 10-2 14-6 2-2 4-8 4-12zM694 540v-330c0-6 0-10-4-12-4-4-8-6-14-6h-36c-6 0-10 2-14 6-2 2-4 6-4 12v330c0 4 2 10 4 12 4 4 8 6 14 6h36c6 0 10-2 14-6 4-2 4-8 4-12zM768 126v542h-512v-542c0-8 2-16 4-24 2-6 6-12 8-14 4-4 6-6 6-6h476c0 0 2 2 6 6 2 2 6 8 8 14 2 8 4 16 4 24zM384 740h256l-28 68c-2 2-6 4-10 6h-180c-4-2-8-4-10-6zM914 722v-36c0-6-2-10-4-14-4-2-8-4-14-4h-54v-542c0-32-10-60-28-82-18-24-40-34-64-34h-476c-24 0-46 10-64 32s-28 50-28 82v544h-54c-6 0-10 2-14 4-2 4-4 8-4 14v36c0 6 2 10 4 14 4 2 8 4 14 4h176l40 96c6 14 16 26 32 36 14 10 30 14 44 14h184c14 0 30-4 44-14 16-10 26-22 32-36l40-96h176c6 0 10-2 14-4 2-4 4-8 4-14z" />
<glyph unicode="&#x77;" glyph-name="fontawesome-webfont-20" d="M658 448c0 40-14 74-42 104-30 28-64 42-104 42s-74-14-104-42c-28-30-42-64-42-104s14-74 42-104c30-28 64-42 104-42s74 14 104 42c28 30 42 64 42 104zM950 510v-126c0-6 0-10-4-14-2-4-6-6-12-8l-104-16c-8-20-16-38-24-52 14-18 34-44 62-78 4-4 6-10 6-14 0-6-2-10-6-14-10-14-28-34-56-62-28-26-46-40-54-40-4 0-10 2-14 6l-80 62c-16-10-34-16-52-22-6-52-12-88-16-106-2-12-10-16-20-16h-128c-4 0-10 0-14 4s-6 8-6 12l-16 106c-18 6-36 12-52 20l-80-60c-4-4-8-6-14-6s-10 2-14 6c-48 44-80 76-94 96-4 4-4 8-4 14 0 4 0 8 4 12 6 8 16 22 28 38 14 18 24 32 32 42-10 18-18 38-24 56l-104 16c-6 0-10 2-12 6-4 4-4 8-4 14v126c0 6 0 10 4 14 2 4 6 6 10 8l106 16c6 16 14 34 24 52-16 22-36 48-62 78-4 6-6 10-6 14s2 8 6 14c10 14 28 34 56 60 28 28 46 42 54 42 4 0 10-2 14-6l80-62c16 10 34 16 52 22 6 52 12 88 16 106 2 12 10 16 20 16h128c4 0 10 0 14-4s6-8 6-12l16-106c18-6 36-12 52-20l80 60c4 4 8 6 14 6s10-2 14-6c50-46 82-78 94-98 4-2 4-6 4-12 0-4 0-8-4-12-6-8-16-22-28-38-14-18-24-32-32-42 10-18 18-36 24-56l104-16c6 0 10-2 12-6 4-4 4-8 4-14z" />
<glyph unicode="&#x78;" glyph-name="fontawesome-webfont-21" d="M146 138v-110c0-6-2-10-4-14-4-4-8-4-14-4h-110c-6 0-10 0-12 4-4 4-6 8-6 14v110c0 4 2 8 6 12 2 4 6 6 12 6h110c6 0 10-2 14-6 2-4 4-8 4-12zM366 210v-182c0-6-2-10-6-14-2-4-8-4-12-4h-110c-6 0-10 0-14 4-2 4-4 8-4 14v182c0 6 2 10 4 14 4 2 8 4 14 4h110c4 0 10-2 12-4 4-4 6-8 6-14zM586 356v-328c0-6-2-10-6-14s-8-4-14-4h-108c-6 0-10 0-14 4s-6 8-6 14v328c0 6 2 10 6 14s8 4 14 4h108c6 0 10 0 14-4s6-8 6-14zM804 576v-548c0-6-2-10-4-14-4-4-8-4-14-4h-110c-4 0-10 0-12 4-4 4-6 8-6 14v548c0 6 2 10 6 14 2 2 8 4 12 4h110c6 0 10-2 14-4 2-4 4-8 4-14zM1024 868v-840c0-6-2-10-6-14-2-4-6-4-12-4h-110c-6 0-10 0-14 4-2 4-4 8-4 14v840c0 6 2 10 4 14 4 4 8 4 14 4h110c6 0 10 0 12-4 4-4 6-8 6-14z" />
<glyph unicode="&#x79;" glyph-name="fontawesome-webfont-22" d="M950 448c0-60-10-116-34-170s-54-102-94-140c-38-40-86-70-140-94s-110-34-170-34c-60 0-116 10-170 34s-102 54-140 94c-40 38-70 86-94 140s-34 110-34 170c0 70 14 134 46 196 30 62 72 112 128 154 16 12 36 18 56 14 20-2 36-12 46-28 14-16 18-34 14-54-2-20-12-36-28-48-36-28-66-62-86-104-20-40-30-84-30-130 0-40 8-78 22-114 16-36 36-66 64-92 26-28 56-48 92-64 36-14 74-22 114-22s78 8 114 22c36 16 66 36 92 64 28 26 48 56 64 92 14 36 22 74 22 114 0 46-10 90-30 130-20 42-50 76-86 104-16 12-26 28-28 48-4 20 0 38 14 54 10 16 26 26 48 28 20 4 38-2 54-14 56-42 98-92 128-154 32-62 46-126 46-196zM586 886v-364c0-20-8-38-22-52-16-14-32-22-52-22s-36 8-52 22c-14 14-22 32-22 52v364c0 20 8 38 22 52 16 14 32 22 52 22s36-8 52-22c14-14 22-32 22-52z" />
<glyph unicode="&#x7a;" glyph-name="fontawesome-webfont-23" d="M622 502v-36c0-4-2-8-6-12s-8-6-12-6h-330c-4 0-8 2-12 6s-6 8-6 12v36c0 6 2 10 6 14s8 6 12 6h330c4 0 8-2 12-6s6-8 6-14zM694 484c0 72-24 132-74 182s-110 74-182 74c-70 0-130-24-180-74s-76-110-76-182c0-70 26-130 76-180s110-76 180-76c72 0 132 26 182 76s74 110 74 180zM988 10c0-22-8-38-22-52s-32-22-52-22c-20 0-38 8-52 22l-196 196c-68-48-144-72-228-72-54 0-106 10-156 32s-92 50-128 86c-36 36-64 78-86 128-20 50-32 102-32 156 0 56 12 108 32 156 22 50 50 94 86 130s78 64 128 86c50 20 102 30 156 30 56 0 108-10 158-30 48-22 92-50 128-86s64-80 86-130c20-48 32-100 32-156 0-84-24-160-72-228l196-196c14-14 22-30 22-50z" />
<glyph unicode="&#x7b;" glyph-name="fontawesome-webfont-87" d="M742 496l-240-242c-8-6-16-10-26-10s-20 4-26 10l-168 168c-8 8-12 16-12 26s4 18 12 26l58 58c8 8 16 10 26 10s18-2 26-10l84-84 156 158c8 6 16 10 26 10s18-4 26-10l58-60c8-6 12-14 12-24s-4-20-12-26zM822 448c0 56-14 108-40 156-28 48-66 86-114 114-48 26-100 40-156 40s-108-14-156-40c-48-28-86-66-114-114-26-48-40-100-40-156s14-108 40-156c28-48 66-86 114-114 48-26 100-40 156-40s108 14 156 40c48 28 86 66 114 114 26 48 40 100 40 156zM950 448c0-80-18-154-58-220-40-68-92-120-160-160-66-40-140-58-220-58s-154 18-220 58c-68 40-120 92-160 160-40 66-58 140-58 220s18 154 58 220c40 68 92 120 160 160 66 40 140 58 220 58s154-18 220-58c68-40 120-92 160-160 40-66 58-140 58-220z" />
<glyph unicode="&#x7c;" glyph-name="fontawesome-webfont-88" d="M822 450c0 62-16 118-48 168l-432-430c52-34 110-50 170-50 42 0 82 8 120 24 40 16 72 38 100 66s50 62 66 100c16 38 24 80 24 122zM252 278l432 432c-52 34-110 52-172 52-56 0-108-14-156-42s-86-66-114-114c-26-48-40-100-40-156 0-62 16-118 50-172zM950 450c0-60-10-118-34-172s-54-102-94-140c-38-40-86-70-140-94s-110-34-170-34c-60 0-116 10-170 34s-102 54-140 94c-40 38-70 86-94 140s-34 112-34 172c0 60 10 116 34 170 24 56 54 102 94 142 38 38 86 70 140 92 54 24 110 36 170 36s116-12 170-36c54-22 102-54 140-92 40-40 70-86 94-142 24-54 34-110 34-170z" />
<glyph unicode="&#x7d;" glyph-name="fontawesome-webfont-89" d="M950 448v-74c0-20-6-36-18-50-12-16-28-22-48-22h-402l168-168c14-14 20-32 20-52s-6-38-20-52l-44-42c-14-14-30-22-52-22-18 0-36 8-52 22l-372 372c-14 14-20 32-20 52s6 36 20 52l372 370c16 16 32 22 52 22s38-6 52-22l44-42c14-14 20-32 20-52s-6-36-20-52l-168-166h402c20 0 36-8 48-22s18-32 18-52z" />
<glyph unicode="&#x7e;" glyph-name="fontawesome-webfont-90" d="M914 412c0-22-6-38-20-52l-372-372c-16-14-34-22-52-22-20 0-38 8-52 22l-44 42c-14 14-20 32-20 52s6 38 20 52l168 168h-402c-20 0-36 6-48 22-12 14-18 30-18 50v74c0 20 6 38 18 52s28 22 48 22h402l-168 168c-14 12-20 30-20 50 0 22 6 38 20 52l44 42c14 16 32 22 52 22s36-6 52-22l372-372c14-12 20-30 20-50z" />
<glyph unicode="&#xe000;" glyph-name="fontawesome-webfont-92" d="M958 484c0-20-8-36-22-50l-372-374c-14-14-32-20-52-20s-38 6-52 20l-372 374c-14 12-22 30-22 50s8 38 22 52l42 44c16 14 34 20 52 20 22 0 38-6 52-20l168-168v402c0 20 8 36 22 52 14 14 32 20 52 20h72c20 0 38-6 52-20 14-16 22-32 22-52v-402l168 168c14 14 30 20 52 20 18 0 36-6 52-20l42-44c14-14 22-32 22-52z" />
<glyph unicode="&#xe001;" glyph-name="fontawesome-webfont-93" d="M1024 594c0-10-4-18-10-26l-294-292c-6-8-16-10-26-10s-18 2-24 10c-8 8-12 16-12 26v146h-128c-38 0-70-2-100-4s-58-6-88-12c-30-6-54-14-76-24s-42-24-60-40c-18-16-34-36-46-58s-22-48-28-78c-6-32-10-66-10-104 0-20 2-44 4-70 0-2 0-8 0-14 2-6 2-12 2-14 0-6-2-12-4-16-4-2-8-4-14-4s-12 2-16 8c-2 4-6 8-8 14-2 4-4 10-8 16-2 8-4 12-6 14-48 108-72 194-72 258 0 76 10 140 30 190 62 154 228 230 500 230h128v146c0 10 4 20 12 26 6 8 14 12 24 12s20-4 26-12l294-292c6-8 10-16 10-26z" />
<glyph unicode="&#xe002;" glyph-name="fontawesome-webfont-94" d="M504 356c0-4-2-8-6-12l-188-190 82-82c6-8 10-16 10-26s-4-18-10-26c-8-8-16-10-26-10h-256c-10 0-18 2-26 10s-10 16-10 26v256c0 10 2 18 10 26 8 6 16 10 26 10s18-4 26-10l82-82 190 188c4 4 8 6 12 6 6 0 10-2 14-6l64-64c4-4 6-8 6-14zM950 850v-256c0-10-2-18-10-26-8-6-16-10-26-10s-18 4-26 10l-82 82-190-188c-4-4-8-6-12-6-6 0-10 2-14 6l-64 64c-4 4-6 8-6 14 0 4 2 8 6 12l188 190-82 82c-6 8-10 16-10 26s4 18 10 26c8 8 16 10 26 10h256c10 0 18-2 26-10s10-16 10-26z" />
<glyph unicode="&#xe003;" glyph-name="fontawesome-webfont-95" d="M512 412v-256c0-10-4-20-10-26-8-8-16-12-26-12s-20 4-26 12l-82 82-190-190c-4-4-8-6-14-6-4 0-8 2-12 6l-66 66c-4 4-6 8-6 12 0 6 2 10 6 14l190 190-82 82c-8 6-12 16-12 26s4 18 12 26c6 6 16 10 26 10h256c10 0 18-4 26-10 6-8 10-16 10-26zM944 796c0-6-2-10-6-14l-190-190 82-82c8-6 12-16 12-26s-4-18-12-26c-6-6-16-10-26-10h-256c-10 0-18 4-26 10-6 8-10 16-10 26v256c0 10 4 20 10 26 8 8 16 12 26 12s20-4 26-12l82-82 190 190c4 4 8 6 14 6 4 0 8-2 12-6l66-66c4-4 6-8 6-12z" />
<glyph unicode="&#xe004;" glyph-name="fontawesome-webfont-96" d="M914 540v-110c0-16-6-28-16-40-10-10-24-16-38-16h-238v-236c0-16-6-30-16-40s-24-16-40-16h-108c-16 0-30 6-40 16s-16 24-16 40v236h-238c-14 0-28 6-38 16-10 12-16 24-16 40v110c0 14 6 28 16 38s24 16 38 16h238v238c0 16 6 28 16 38 10 12 24 16 40 16h108c16 0 30-4 40-16 10-10 16-22 16-38v-238h238c14 0 28-6 38-16s16-24 16-38z" />
<glyph unicode="&#xe005;" glyph-name="fontawesome-webfont-97" d="M914 540v-110c0-16-6-28-16-40-10-10-24-16-38-16h-696c-14 0-28 6-38 16-10 12-16 24-16 40v110c0 14 6 28 16 38s24 16 38 16h696c14 0 28-6 38-16s16-24 16-38z" />
<glyph unicode="&#xe006;" glyph-name="fontawesome-webfont-98" d="M884 360c16-10 28-24 34-44 4-20 2-38-8-56l-36-62c-10-18-24-30-44-34-20-6-38-4-56 6l-152 88v-176c0-20-8-36-22-52-14-14-32-20-52-20h-72c-20 0-38 6-52 20-14 16-22 32-22 52v176l-152-88c-18-10-36-12-56-6-20 4-34 16-44 34l-36 62c-10 18-12 36-8 56 6 20 18 34 34 44l152 88-152 88c-16 10-28 24-34 44-4 20-2 38 8 56l36 62c10 18 24 30 44 34 20 6 38 4 56-6l152-88v176c0 20 8 36 22 52 14 14 32 20 52 20h72c20 0 38-6 52-20 14-16 22-32 22-52v-176l152 88c18 10 36 12 56 6 20-4 34-16 44-34l36-62c10-18 12-36 8-56-6-20-18-34-34-44l-152-88z" />
<glyph unicode="&#xe007;" glyph-name="fontawesome-webfont-99" d="M512 886c80 0 154-18 220-58 68-40 120-92 160-160 40-66 58-140 58-220s-18-154-58-220c-40-68-92-120-160-160-66-40-140-58-220-58s-154 18-220 58c-68 40-120 92-160 160-40 66-58 140-58 220s18 154 58 220c40 68 92 120 160 160 66 40 140 58 220 58zM586 174v108c0 6-2 10-6 14s-8 6-12 6h-110c-6 0-10-2-14-6s-6-8-6-14v-108c0-4 2-10 6-12 4-4 8-6 14-6h110c4 0 8 2 12 4 4 4 6 8 6 14zM584 370l10 356c0 4-2 8-6 10-4 4-8 4-14 4h-124c-6 0-10 0-14-4-4-2-6-6-6-10l10-356c0-2 2-6 6-10 2-2 8-4 12-4h106c6 0 10 2 14 4 4 4 6 8 6 10z" />
<glyph unicode="&#xe008;" glyph-name="fontawesome-webfont-100" d="M604 186v408h-184v-408c0-10 4-18 10-22 8-6 16-8 28-8h108c12 0 20 2 28 8 6 4 10 12 10 22zM342 668h112l-72 92c-10 12-22 18-40 18-14 0-28-6-38-16-10-12-16-24-16-40 0-14 6-28 16-38 10-12 24-16 38-16zM736 722c0 16-6 28-16 40-10 10-24 16-38 16-18 0-30-6-40-18l-72-92h112c14 0 28 4 38 16 10 10 16 24 16 38zM950 576v-182c0-6 0-10-4-14s-8-6-14-6h-54v-236c0-16-6-30-16-40s-24-16-40-16h-620c-16 0-30 6-40 16s-16 24-16 40v236h-54c-6 0-10 2-14 6s-4 8-4 14v182c0 6 0 10 4 14 4 2 8 4 14 4h250c-34 0-64 12-90 38-24 24-38 54-38 90s14 66 38 90c26 26 56 38 90 38 42 0 74-14 96-44l74-94 74 94c22 30 54 44 96 44 34 0 64-12 90-38 24-24 38-54 38-90s-14-66-38-90c-26-26-56-38-90-38h250c6 0 10-2 14-4 4-4 4-8 4-14z" />
<glyph unicode="&#xe009;" glyph-name="fontawesome-webfont-101" d="M732 558c0 10-4 18-12 26-6 6-16 10-26 10-64 0-126-10-180-28-56-18-106-44-150-76-42-32-88-74-134-126-6-8-10-16-10-26s4-18 10-26c8-6 16-10 26-10s18 4 26 10c10 10 24 24 42 42s30 30 38 36c52 48 104 82 154 102s110 30 178 30c10 0 20 2 26 10 8 8 12 16 12 26zM1024 670c0-36-4-72-12-110-16-84-52-158-104-218-54-60-122-112-206-154-80-40-164-62-250-62-56 0-110 10-162 28-6 2-24 10-52 24-26 14-46 20-54 20-6 0-14-6-22-18-10-12-18-24-26-40-8-14-18-28-30-40s-24-18-34-18c-12 0-22 2-30 6s-14 10-18 14c-4 6-8 14-14 24-2 2-2 4-4 6-2 4-2 6-4 6 0 2 0 4-2 6 0 2 0 4 0 8 0 12 6 26 18 42 12 14 24 26 38 36 14 12 28 22 40 32 12 12 18 22 18 28 0 2-4 10-8 22-6 12-10 22-10 26-4 18-6 38-6 58 0 44 10 86 26 126s38 76 68 106c28 30 60 56 98 80 36 22 74 40 116 54 20 6 48 12 82 14 34 4 70 4 104 6 34 0 68 2 102 2 34 2 64 8 92 14 28 8 50 18 66 32l16 18c0 0 6 6 18 16 10 10 16 14 14 12 0-4 6 0 22 8 14 10 22 10 24 2 16 0 28-8 40-26 12-16 22-38 28-64 6-24 10-48 14-70 2-22 4-40 4-56z" />
<glyph unicode="&#xe00a;" glyph-name="fontawesome-webfont-102" d="M914-10v-36c0-4-2-8-6-12-2-4-8-6-12-6h-768c-4 0-10 2-12 6-4 4-6 8-6 12v36c0 6 2 10 6 14 2 4 8 6 12 6h768c4 0 10-2 12-6 4-4 6-8 6-14zM768 594c0-30-4-56-14-82s-22-46-36-64c-16-18-32-34-50-50s-38-32-56-44c-18-14-34-28-50-42-14-14-26-30-36-46-10-18-14-36-14-56 0-36 12-78 38-128h-2c-34 16-64 32-90 48-28 16-54 34-80 56s-48 46-64 70c-18 26-32 54-42 86-10 34-16 68-16 106 0 30 4 58 14 82 10 26 22 46 36 64 16 18 32 36 50 50 18 16 38 32 56 46 18 12 34 26 50 40 14 14 26 30 36 46 10 18 14 36 14 56 0 36-12 78-38 128h2c34-16 64-32 90-48 28-16 54-34 80-56s48-46 64-70c18-26 32-54 42-86 10-34 16-68 16-106z" />
<glyph unicode="&#xe00b;" glyph-name="fontawesome-webfont-103" d="M950 412c-58 90-130 156-216 202 22-40 34-84 34-130 0-70-26-130-76-180s-110-76-180-76c-70 0-130 26-180 76s-76 110-76 180c0 46 12 90 34 130-86-46-158-112-216-202 50-78 114-140 190-188 76-46 158-68 248-68s172 22 248 68c76 48 140 110 190 188zM540 630c0 8-4 14-8 20-6 6-12 8-20 8-48 0-88-16-122-50s-52-76-52-124c0-8 2-14 8-18 6-6 12-8 20-8s14 2 20 8c4 4 8 10 8 18 0 34 10 62 34 84 24 24 52 36 84 36 8 0 14 2 20 8 4 4 8 12 8 18zM1024 412c0-14-4-26-12-40-52-88-124-158-214-210-90-54-186-80-286-80s-196 26-286 80c-90 52-162 122-214 210-8 14-12 26-12 40 0 12 4 26 12 38 52 88 124 158 214 212 90 52 186 78 286 78s196-26 286-78c90-54 162-124 214-212 8-12 12-26 12-38z" />
<glyph unicode="&#xe00c;" glyph-name="fontawesome-webfont-104" d="M318 198l44 80c-34 24-60 54-78 90-18 38-28 76-28 116 0 46 12 90 34 130-86-46-158-112-216-202 62-98 144-170 244-214zM540 630c0 8-4 14-8 20-6 6-12 8-20 8-48 0-88-16-122-50s-52-76-52-124c0-8 2-14 8-18 6-6 12-8 20-8s14 2 20 8c4 4 8 10 8 18 0 34 10 62 34 84 24 24 52 36 84 36 8 0 14 2 20 8 4 4 8 12 8 18zM746 740c0-2 0-4 0-6-40-70-100-178-180-322s-140-252-180-324l-28-52c-4-6-10-8-16-8-4 0-30 12-76 40-6 4-10 8-10 16 0 4 8 20 26 50-56 24-106 56-152 98s-86 88-118 140c-8 12-12 24-12 40 0 14 4 28 12 38 58 90 130 162 216 212 88 52 182 78 284 78 34 0 68-2 102-10l32 56c4 6 8 10 16 10 2 0 6-2 10-4s10-6 18-8c6-4 12-8 18-12 6-2 12-6 18-10s10-6 12-6c6-4 8-10 8-16zM768 484c0-52-16-100-46-144s-70-76-118-94l160 286c2-16 4-32 4-48zM1024 412c0-14-4-28-12-40-14-24-36-52-62-82-56-66-124-118-198-154-76-36-156-54-240-54l42 76c82 6 156 32 224 78 70 46 126 104 172 176-42 68-96 124-160 168l36 64c36-24 70-54 104-88s60-68 82-106c8-12 12-26 12-38z" />
<glyph unicode="&#xe00d;" glyph-name="fontawesome-webfont-105" d="M586 174v108c0 6-2 10-6 14s-8 6-14 6h-108c-6 0-10-2-14-6s-6-8-6-14v-108c0-6 2-10 6-14 4-2 8-4 14-4h108c6 0 10 2 14 4 4 4 6 8 6 14zM584 388l10 262c0 4-2 8-6 12s-8 6-14 6h-124c-6 0-10-2-14-6s-6-8-6-12l10-262c0-4 2-6 6-10 2-2 8-4 12-4h106c6 0 10 2 14 4 4 4 6 6 6 10zM576 922l438-804c14-24 14-48 0-72-6-12-16-20-26-28-12-6-24-8-38-8h-876c-14 0-26 2-38 8-10 8-20 16-26 28-14 24-14 48 0 72l438 804c6 12 16 20 26 28 12 6 24 10 38 10s26-4 38-10c10-8 20-16 26-28z" />
<glyph unicode="&#xe00e;" glyph-name="fontawesome-webfont-106" d="M896 868c16-20 20-48 6-84-12-36-32-70-60-98l-92-92 90-398c2-8 0-14-6-18l-74-56c-2-2-6-4-10-4-2 0-4 2-4 2-6 0-10 4-12 8l-160 290-148-148 30-110c2-6 0-12-4-18l-54-54c-4-4-8-6-14-6h-2c-4 2-10 4-12 8l-108 144-144 108c-6 2-8 6-8 12s2 10 4 16l56 54c4 4 8 6 12 6s4 0 6 0l110-32 148 148-290 160c-6 4-8 8-10 14 0 6 2 12 6 16l72 72c6 6 12 8 18 6l380-92 92 92c28 28 60 50 98 62 36 12 64 10 84-8z" />
<glyph unicode="&#xe00f;" glyph-name="calendar-grid" d="M110 10h164v164h-164zM310 10h184v164h-184zM110 210h164v184h-164zM310 210h184v184h-184zM110 430h164v164h-164zM530 10h184v164h-184zM310 430h184v164h-184zM750 10h164v164h-164zM530 210h184v184h-184zM330 704v164c0 6-2 10-6 14s-8 4-14 4h-36c-4 0-8 0-12-4s-6-8-6-14v-164c0-4 2-10 6-12 4-4 8-6 12-6h36c6 0 10 2 14 6 4 2 6 8 6 12zM750 210h164v184h-164zM530 430h184v164h-184zM750 430h164v164h-164zM768 704v164c0 6-2 10-6 14s-8 4-12 4h-36c-6 0-10 0-14-4s-6-8-6-14v-164c0-4 2-10 6-12 4-4 8-6 14-6h36c4 0 8 2 12 6 4 2 6 8 6 12zM988 740v-730c0-20-8-38-22-52s-32-22-52-22h-804c-20 0-38 8-52 22s-22 32-22 52v730c0 20 8 38 22 52s32 22 52 22h72v54c0 26 10 48 28 66s40 26 64 26h36c26 0 48-8 66-26s26-40 26-66v-54h220v54c0 26 8 48 26 66s40 26 66 26h36c24 0 46-8 64-26s28-40 28-66v-54h72c20 0 38-8 52-22s22-32 22-52z" />
<glyph unicode="&#xe010;" glyph-name="fontawesome-webfont-108" d="M380 686c-22-36-48-88-78-156-8 16-16 30-20 40-6 12-14 24-24 36-10 14-20 26-30 34-8 6-20 14-36 20-14 4-28 8-46 8h-128c-6 0-10 2-12 4-4 4-6 8-6 14v110c0 4 2 10 6 12 2 4 6 6 12 6h128c96 0 174-44 234-128zM1024 228c0-4-2-10-6-12l-182-184c-4-2-8-4-14-4-4 0-8 2-12 4-4 4-6 8-6 14v110c-12 0-28 0-48 0-20-2-36-2-46-2s-24 0-42 2c-18 0-30 0-40 2s-22 4-38 6c-14 2-26 6-36 10-8 4-20 10-32 16-12 8-24 14-34 24-10 8-20 18-32 30-10 12-22 26-32 40 24 36 48 88 78 156 8-18 16-30 22-42 6-10 12-22 22-36s20-24 30-32c10-8 22-14 36-20s30-8 46-8h146v110c0 4 2 10 6 12 4 4 8 6 12 6 6 0 10-2 14-6l182-182c4-4 6-8 6-14zM1024 740c0-4-2-10-6-12l-182-184c-4-2-8-4-14-4-4 0-8 2-12 4-4 4-6 8-6 14v110h-146c-18 0-34-4-50-10-14-4-28-14-38-24-12-12-22-24-30-36s-16-26-26-44c-12-24-26-56-44-98-12-26-20-46-28-64-8-16-18-36-32-60-12-22-24-42-36-56-12-16-26-32-42-48s-34-30-52-40c-18-8-38-16-60-24-24-6-48-8-74-8h-128c-6 0-10 2-12 4-4 4-6 8-6 14v110c0 4 2 10 6 12 2 4 6 6 12 6h128c18 0 36 2 50 8s28 14 40 26c10 12 20 24 28 36s18 26 26 44c12 24 28 56 44 98 12 24 22 46 30 62 6 18 18 38 30 60 12 24 24 42 36 58 12 14 26 30 42 48 18 16 34 28 52 38s38 18 62 24c22 6 46 10 72 10h146v110c0 4 2 10 6 12 4 4 8 6 12 6 6 0 10-2 14-6l182-182c4-4 6-8 6-14z" />
<glyph unicode="&#xe011;" glyph-name="fontawesome-webfont-109" d="M1024 448c0-66-22-128-68-184s-108-100-186-132c-80-34-166-50-258-50-26 0-54 2-82 4-76-66-164-112-264-138-18-4-40-8-64-12-8 0-14 0-18 6-6 4-8 8-10 16v0c-2 2-2 4 0 8 0 2 0 4 0 4 0 2 2 4 4 6l2 6c0 0 2 2 4 4 4 4 4 6 6 6 2 2 8 10 16 20 10 10 16 16 20 20 4 6 10 12 18 24 8 10 14 20 18 28 6 10 10 20 16 34s10 28 16 44c-60 34-108 76-142 126s-52 102-52 160c0 50 14 96 40 142 28 46 64 84 110 116 46 34 100 60 164 78 62 20 128 30 198 30 92 0 178-16 258-50 78-32 140-76 186-132s68-118 68-184z" />
<glyph unicode="&#xe012;" glyph-name="fontawesome-webfont-110" d="M950 484v-72c0-78-18-146-56-208-36-60-90-108-156-144-66-34-142-50-226-50s-160 16-226 50c-66 36-120 84-156 144-38 62-56 130-56 208v72c0 10 2 20 10 26 8 8 16 12 26 12h220c10 0 18-4 24-12 8-6 12-16 12-26v-72c0-20 4-38 14-52 8-14 18-26 30-32 12-8 24-14 40-18s28-6 36-8c10 0 18 0 26 0s16 0 26 0c8 2 20 4 36 8s28 10 40 18c12 6 22 18 30 32 10 14 14 32 14 52v72c0 10 4 20 12 26 6 8 14 12 24 12h220c10 0 18-4 26-12 8-6 10-16 10-26zM366 850v-220c0-10-4-18-12-24-6-8-14-12-24-12h-220c-10 0-18 4-26 12-8 6-10 14-10 24v220c0 10 2 18 10 26s16 10 26 10h220c10 0 18-2 24-10 8-8 12-16 12-26zM950 850v-220c0-10-2-18-10-24-8-8-16-12-26-12h-220c-10 0-18 4-24 12-8 6-12 14-12 24v220c0 10 4 18 12 26 6 8 14 10 24 10h220c10 0 18-2 26-10s10-16 10-26z" />
<glyph unicode="&#xe013;" glyph-name="fontawesome-webfont-111" d="M962 200l-96-94c-6-8-14-12-24-12s-20 4-26 12l-304 302-304-302c-6-8-16-12-26-12s-18 4-24 12l-96 94c-6 6-10 16-10 26s4 18 10 26l424 422c8 8 16 12 26 12s18-4 26-12l424-422c6-8 10-16 10-26s-4-20-10-26z" />
<glyph unicode="&#xe014;" glyph-name="fontawesome-webfont-112" d="M962 498l-424-424c-8-6-16-10-26-10s-18 4-26 10l-424 424c-6 8-10 16-10 26s4 20 10 26l96 94c6 8 14 12 24 12s20-4 26-12l304-302 304 302c6 8 16 12 26 12s18-4 24-12l96-94c6-6 10-16 10-26s-4-18-10-26z" />
<glyph unicode="&#xe015;" glyph-name="fontawesome-webfont-113" d="M682 124c0-4-2-8-4-12-4-4-8-6-12-6h-512c-4 0-6 2-8 2s-4 2-4 4c-2 2-2 2-4 4 0 0 0 2 0 6-2 2-2 4-2 6v320h-102c-10 0-18 4-24 10s-10 14-10 24c0 8 2 16 8 22l170 204c8 8 16 12 26 12 12 0 20-4 26-12l172-204c4-6 8-14 8-22 0-10-4-18-10-24-8-6-16-10-24-10h-102v-204h306c6 0 10-2 14-6l84-104c4-2 4-6 4-10zM1024 346c0-8-2-16-8-22l-170-206c-8-8-16-12-26-12-12 0-20 4-26 12l-172 206c-4 6-8 14-8 22s4 16 10 24c8 6 16 10 24 10h102v204h-306c-6 0-10 2-14 6l-84 104c-4 2-4 6-4 10s2 8 4 12c4 4 8 6 12 6h512c4 0 6-2 8-2s4-2 4-4c2-2 2-2 4-4 0-2 0-4 0-6 2-4 2-6 2-6v-320h102c10 0 18-4 24-10 6-8 10-16 10-24z" />
<glyph unicode="&#xe016;" glyph-name="fontawesome-webfont-114" d="M402 82c0-20-6-36-22-52-14-14-32-20-50-20-20 0-38 6-52 20-14 16-22 32-22 52s8 38 22 52c14 14 32 22 52 22 18 0 36-8 50-22 16-14 22-32 22-52zM914 82c0-20-6-36-22-52-14-14-32-20-50-20-20 0-38 6-52 20-14 16-22 32-22 52s8 38 22 52c14 14 32 22 52 22 18 0 36-8 50-22 16-14 22-32 22-52zM988 704v-292c0-10-4-18-10-24-6-8-14-12-24-14l-596-68c6-24 8-38 8-40 0-6-4-20-14-38h526c10 0 18-4 26-10 6-8 10-16 10-26s-4-18-10-26c-8-6-16-10-26-10h-586c-10 0-18 4-26 10-6 8-10 16-10 26 0 4 2 10 4 18 4 8 6 14 10 20 2 6 6 14 12 24 6 8 8 14 8 16l-100 470h-116c-10 0-20 4-26 12-8 6-12 16-12 26s4 18 12 24c6 8 16 12 26 12h146c6 0 10-2 16-4 4-2 8-6 10-8 4-4 6-8 8-14s4-12 4-16c2-4 2-10 4-16 2-8 2-12 2-16h686c10 0 20-4 26-10 8-8 12-16 12-26z" />
<glyph unicode="&#xe017;" glyph-name="fontawesome-webfont-115" d="M988 612v-402c0-34-14-64-38-90-26-26-56-38-90-38h-696c-34 0-64 12-90 38-24 26-38 56-38 90v548c0 36 14 66 38 92 26 24 56 36 90 36h184c34 0 64-12 90-36 24-26 38-56 38-92v-18h384c34 0 64-12 90-38 24-24 38-54 38-90z" />
<glyph unicode="&#xe018;" glyph-name="fontawesome-webfont-116" d="M1002 418c0-10-6-22-16-36l-180-210c-14-18-36-34-64-46-28-14-52-20-76-20h-580c-12 0-24 2-32 8-10 4-16 12-16 22 0 12 6 24 18 36l178 210c16 20 38 34 64 48 28 12 54 18 78 18h580c12 0 22-2 32-6 10-6 14-14 14-24zM820 602v-86h-444c-34 0-68-8-106-26-36-16-66-38-88-62l-178-212-4-4c0 2 0 4 0 8 0 2 0 4 0 6v512c0 32 12 60 36 84 22 24 50 36 84 36h170c32 0 60-12 84-36s36-52 36-84v-16h290c32 0 60-12 84-36s36-52 36-84z" />
<glyph unicode="&#xe019;" glyph-name="fontawesome-webfont-117" d="M694 778c0-10-2-20-10-26-8-8-16-12-26-12h-72v-584h72c10 0 18-4 26-12 8-6 10-16 10-26s-2-18-10-24l-146-148c-8-6-16-10-26-10s-18 4-26 10l-146 148c-8 6-10 14-10 24s2 20 10 26c8 8 16 12 26 12h72v584h-72c-10 0-18 4-26 12-8 6-10 16-10 26s2 18 10 24l146 148c8 6 16 10 26 10s18-4 26-10l146-148c8-6 10-14 10-24z" />
<glyph unicode="&#xe01a;" glyph-name="fontawesome-webfont-118" d="M1024 448c0-10-4-18-10-26l-148-146c-6-8-14-10-24-10s-20 2-26 10c-8 8-12 16-12 26v72h-584v-72c0-10-4-18-12-26-6-8-16-10-26-10s-18 2-24 10l-148 146c-6 8-10 16-10 26s4 18 10 26l148 146c6 8 14 10 24 10s20-2 26-10c8-8 12-16 12-26v-72h584v72c0 10 4 18 12 26 6 8 16 10 26 10s18-2 24-10l148-146c6-8 10-16 10-26z" />
<glyph unicode="&#xe01b;" glyph-name="fontawesome-webfont-119" d="M320 448v-256h-128v256zM512 704v-512h-128v512zM1024 128v-64h-1024v768h64v-704zM704 576v-384h-128v384zM896 768v-576h-128v576z" />
<glyph unicode="&#xe01c;" glyph-name="fontawesome-webfont-120" d="M804 612c-20-10-44-16-68-20 26 16 44 38 52 66-24-14-50-24-76-28-24 24-52 38-88 38-32 0-60-12-84-36s-36-52-36-84c0-12 2-20 4-28-50 2-96 16-138 38-44 22-80 50-110 88-12-20-18-40-18-60 0-44 18-78 52-100-18 0-36 4-56 14v-2c0-28 10-54 28-76 20-22 42-36 70-40-10-4-20-6-28-6-6 0-12 2-22 2 8-24 22-42 42-58s44-24 70-24c-46-34-94-52-150-52-10 0-20 0-28 2 56-36 118-54 184-54 42 0 82 6 120 20 36 14 68 32 96 54 26 24 50 50 68 78 20 30 34 62 44 94 8 32 14 64 14 96 0 6-2 12-2 16 24 16 44 38 60 62zM950 722v-548c0-46-16-84-48-116s-70-48-116-48h-548c-46 0-84 16-116 48s-48 70-48 116v548c0 46 16 84 48 116s70 48 116 48h548c46 0 84-16 116-48s48-70 48-116z" />
<glyph unicode="&#xe01d;" glyph-name="fontawesome-webfont-121" d="M786 886c46 0 84-16 116-48s48-70 48-116v-548c0-46-16-84-48-116s-70-48-116-48h-108v340h114l18 132h-132v84c0 22 6 38 14 48 10 10 26 16 52 16h70v120c-24 2-58 4-102 4-52 0-92-14-124-46-30-30-46-72-46-128v-98h-114v-132h114v-340h-304c-46 0-84 16-116 48s-48 70-48 116v548c0 46 16 84 48 116s70 48 116 48z" />
<glyph unicode="&#xe01e;" glyph-name="fontawesome-webfont-122" d="M530 484c0 6-2 10-4 14-4 4-8 4-14 4-26 0-46-8-64-26s-28-40-28-64c0-6 2-10 6-14s8-4 12-4c6 0 10 0 14 4s6 8 6 14c0 14 4 28 16 38 10 10 22 16 38 16 6 0 10 2 14 6 2 2 4 8 4 12zM658 410c0-40-14-74-42-104-30-28-64-42-104-42s-74 14-104 42c-28 30-42 64-42 104s14 76 42 104c30 28 64 42 104 42s74-14 104-42c28-28 42-64 42-104zM74 82h876v74h-876zM732 410c0 60-22 112-64 156-44 42-96 64-156 64s-112-22-156-64c-42-44-64-96-64-156s22-112 64-154c44-44 96-66 156-66s112 22 156 66c42 42 64 94 64 154zM146 778h220v72h-220zM74 668h876v146h-472l-36-74h-368zM1024 814v-732c0-20-8-38-22-52s-30-20-52-20h-876c-22 0-38 6-52 20s-22 32-22 52v732c0 20 8 38 22 52s30 20 52 20h876c22 0 38-6 52-20s22-32 22-52z" />
<glyph unicode="&#xe01f;" glyph-name="fontawesome-webfont-123" d="M476 668c0 30-12 56-32 78-22 20-48 32-78 32s-56-12-78-32c-22-22-32-48-32-78 0-16 4-32 10-48-14 8-30 10-46 10-32 0-56-10-78-32-22-20-32-46-32-76 0-32 10-58 32-78 22-22 46-32 78-32 30 0 56 10 78 32 20 20 32 46 32 78 0 16-4 30-12 46 16-6 32-10 48-10 30 0 56 10 78 32 20 22 32 46 32 78zM962 266c0-8-10-20-28-38-18-20-32-28-38-28-4 0-8 2-16 8s-14 12-22 20c-6 6-12 14-22 22-8 10-12 14-14 16l-54-56 126-126c10-10 16-24 16-38 0-16-8-32-22-46-16-16-30-22-46-22s-30 4-40 16l-384 382c-66-50-136-74-208-74-62 0-112 20-152 58-38 40-58 90-58 152 0 60 18 120 54 178 36 60 84 106 142 142s118 54 178 54c62 0 114-18 152-58 40-38 60-90 60-152 0-72-26-140-76-208l204-202 54 54c-2 2-6 6-14 14-10 8-18 16-24 22s-12 14-18 20c-6 8-10 14-10 18 0 6 10 18 28 36 18 20 32 28 38 28 4 0 10-2 14-4 2-4 10-12 26-26 14-14 30-30 46-46s32-32 50-48c16-18 30-32 42-46 10-12 16-20 16-22z" />
<glyph unicode="&#xe020;" glyph-name="products" d="M478 448c0 38-14 70-40 96-26 28-58 40-96 40s-70-12-98-40c-26-26-40-58-40-96s14-70 40-96c28-28 60-40 98-40s70 12 96 40c26 26 40 58 40 96zM888 174c0 20-8 36-20 48-14 14-30 22-48 22-20 0-36-8-48-22-14-12-22-28-22-48 0-18 8-34 20-48 14-12 30-20 50-20 18 0 34 8 48 20 12 14 20 30 20 48zM888 722c0 18-8 34-20 48-14 12-30 20-48 20-20 0-36-8-48-20-14-14-22-30-22-48 0-20 8-36 20-50 14-12 30-20 50-20 18 0 34 8 48 20 12 14 20 30 20 50zM682 496v-98c0-4 0-8-4-10-2-4-4-6-8-6l-82-12c-4-14-10-26-18-42 12-16 28-36 48-60 4-4 4-8 4-12s0-8-4-10c-8-10-22-26-44-48-20-20-34-32-42-32-4 0-6 2-10 4l-62 48c-12-6-26-12-40-16-4-38-8-66-14-82-2-10-6-14-16-14h-98c-4 0-8 2-10 4-4 4-6 6-6 10l-12 82c-12 4-26 8-40 16l-64-48c-2-2-6-4-10-4s-8 2-12 6c-50 46-76 74-76 84 0 4 2 8 4 10 4 6 10 16 22 28 10 14 18 26 24 34-8 16-14 30-18 44l-82 12c-2 0-6 2-8 6-2 2-4 6-4 10v98c0 4 2 8 4 10 2 4 6 6 8 6l82 12c4 14 10 26 18 42-12 16-28 36-48 60-2 4-4 8-4 12s2 8 4 10c8 10 22 26 44 48 22 20 36 32 42 32 4 0 8-2 12-4l60-48c12 6 26 12 42 16 4 38 8 66 12 82 2 10 8 14 16 14h98c4 0 8-2 12-4 2-4 4-6 4-10l14-82c12-4 24-8 40-16l62 48c2 2 6 4 10 4s8-2 12-6c52-46 76-74 76-84 0-4 0-8-2-10-6-6-12-16-24-30-10-12-18-24-24-32 8-16 14-32 18-44l82-12c4 0 6-2 8-6 4-2 4-6 4-10zM1024 212v-74c0-6-26-12-80-16-4-10-10-20-16-28 18-40 28-66 28-74 0-2 0-2-2-4-44-26-66-38-66-38-4 0-12 8-26 26-12 16-22 28-26 36-8-2-14-2-16-2-4 0-10 0-16 2-6-8-16-20-28-36-14-18-22-26-26-26 0 0-22 12-66 38 0 2-2 2-2 4 0 8 10 34 28 74-6 8-12 18-16 28-54 4-80 10-80 16v74c0 6 26 12 80 16 4 12 10 20 16 28-18 40-28 66-28 74 0 2 2 2 2 4 2 0 8 4 20 10 10 6 20 12 30 18s16 10 16 10c4 0 12-10 26-26 12-16 22-28 28-36 6 2 12 2 16 2 2 0 8 0 16-2 18 26 34 46 48 60l4 2c0 0 22-14 66-38 2-2 2-2 2-4 0-8-10-34-28-74 6-8 12-16 16-28 54-4 80-10 80-16zM1024 758v-74c0-6-26-12-80-16-4-10-10-20-16-28 18-40 28-66 28-74 0-2 0-2-2-4-44-26-66-38-66-38-4 0-12 8-26 26-12 16-22 28-26 36-8-2-14-2-16-2-4 0-10 0-16 2-6-8-16-20-28-36-14-18-22-26-26-26 0 0-22 12-66 38 0 2-2 2-2 4 0 8 10 34 28 74-6 8-12 18-16 28-54 4-80 10-80 16v74c0 6 26 12 80 16 4 12 10 20 16 28-18 40-28 66-28 74 0 2 2 2 2 4 2 0 8 4 20 10 10 8 20 14 30 18 10 6 16 10 16 10 4 0 12-8 26-26 12-16 22-28 28-36 6 2 12 2 16 2 2 0 8 0 16-2 18 26 34 46 48 60l4 2c0 0 22-14 66-38 2-2 2-2 2-4 0-8-10-34-28-74 6-8 12-16 16-28 54-4 80-10 80-16z" />
<glyph unicode="&#xe021;" glyph-name="fontawesome-webfont-125" d="M804 522c0-54-18-102-54-148-34-44-84-80-146-106s-128-40-202-40c-32 0-66 4-100 10-48-34-100-58-160-74-12-2-30-6-48-8h-2c-4 0-8 0-12 4s-6 8-6 12c0 2 0 2 0 4s0 2 0 4c0 0 0 2 0 2l2 4c0 0 0 0 2 2s2 4 2 4c0 0 2 0 2 2 2 2 4 4 4 4 2 2 6 6 12 14 8 6 12 12 16 16 2 4 6 10 12 16 6 8 10 16 14 22 4 8 8 16 12 26-48 28-84 62-112 102-26 40-40 82-40 128 0 52 18 102 54 146s84 80 146 106c62 26 130 40 202 40 74 0 140-14 202-40s112-62 146-106c36-44 54-94 54-146zM1024 374c0-44-14-88-40-128-28-40-64-72-112-100 4-10 8-18 12-26s8-14 14-22c6-6 10-12 12-16 4-4 8-10 16-16 6-8 10-12 12-16 2 0 2 0 4-2 0-2 2-2 2-2 0-2 2-2 2-4 0 0 2-2 2-2l2-4c0 0 0 0 0-2 2-4 2-4 0-4 0 0 0-2 0-4 0-6-4-10-8-12-2-4-8-6-12-4-18 2-36 4-48 8-60 16-112 40-160 74-34-6-68-10-100-10-104 0-194 26-270 76 22-2 38-2 50-2 62 0 120 8 176 26 58 16 108 40 152 72 48 36 84 76 110 122 24 46 38 94 38 146 0 28-4 58-14 86 50-28 88-60 118-102 28-40 42-84 42-132z" />
<glyph unicode="&#xe022;" glyph-name="fontawesome-webfont-126" d="M220 192c0 10-4 18-12 26-6 6-16 10-26 10s-18-4-24-10c-8-8-12-16-12-26s4-18 12-26c6-6 14-10 24-10s20 4 26 10c8 8 12 16 12 26zM878 522c0 18-8 36-22 50-16 14-32 22-52 22h-200c0 22 8 52 26 92 20 38 28 68 28 92 0 36-6 64-18 82s-36 26-74 26c-10-10-16-26-20-48-6-22-12-46-18-72-8-24-18-46-34-62-8-8-24-26-44-52-2-2-6-8-14-18-6-8-12-16-18-22-4-6-10-14-20-24-8-10-16-20-22-26s-14-14-22-20c-8-8-16-12-22-16-8-4-16-4-22-4h-18v-366h18c6 0 12-2 18-2 8-2 14-2 20-4s12-4 22-6c8-4 16-6 20-6 4-2 10-4 20-8 8-4 14-6 16-6 80-28 146-42 196-42h68c74 0 110 32 110 96 0 10 0 20-2 32 12 6 20 16 26 30 8 14 10 28 10 42s-2 26-10 40c20 18 30 40 30 68 0 8-2 20-4 30-4 12-10 22-16 28 14 0 24 10 32 26 8 18 12 34 12 48zM950 522c0-34-8-66-28-94 4-12 6-26 6-38 0-30-8-58-22-84 2-8 2-16 2-24 0-38-12-72-34-102 0-52-16-94-48-124-34-32-76-46-130-46h-74c-36 0-72 4-108 12s-78 22-124 38c-44 14-70 22-80 22h-164c-20 0-38 8-52 22s-20 32-20 52v366c0 20 6 36 20 50 14 16 32 22 52 22h156c14 10 40 38 80 88 22 30 42 54 60 74 10 10 16 26 20 48 4 24 10 48 18 74 8 24 20 44 36 60 14 14 32 22 50 22 32 0 62-6 88-18 24-12 44-32 58-58 12-26 20-62 20-106 0-36-10-72-28-110h100c40 0 74-16 104-44 28-28 42-64 42-102z" />
<glyph unicode="&#xe023;" glyph-name="fontawesome-webfont-127" d="M220 704c0 10-4 18-12 26-6 6-16 10-26 10s-18-4-24-10c-8-8-12-16-12-26s4-18 12-26c6-6 14-10 24-10s20 4 26 10c8 8 12 16 12 26zM878 374c0 14-4 30-12 48-8 16-18 26-32 26 6 6 12 16 16 28 2 10 4 22 4 30 0 28-10 50-30 68 8 14 10 26 10 40s-2 28-10 42c-6 14-14 24-26 30 2 12 2 22 2 32 0 32-8 56-28 72-18 16-44 24-78 24h-72c-50 0-116-14-196-42-2 0-8-2-16-6-10-4-16-6-20-8-4 0-12-2-20-6-10-2-16-4-22-6s-12-2-20-4c-6 0-12-2-18-2h-18v-366h18c6 0 14 0 22-4 6-4 14-8 22-16 8-6 16-14 22-20s14-16 22-26c10-10 16-18 20-24 6-6 12-14 18-22 8-10 12-16 14-18 20-26 36-44 44-52 16-16 26-38 34-62 6-26 12-50 18-72 4-22 10-38 20-48 38 0 62 8 74 26s18 46 18 82c0 24-8 54-28 92-18 40-26 70-26 92h200c20 0 36 8 52 22 14 14 22 32 22 50zM950 374c0-38-14-74-42-102-30-28-64-44-104-44h-100c18-38 28-74 28-110 0-44-8-80-20-106-14-26-34-46-58-58-26-12-56-18-88-18-18 0-36 8-50 22-14 12-24 28-32 46s-12 36-14 52c-2 16-6 32-10 48s-10 28-18 36c-18 20-38 44-60 74-40 50-66 78-80 88h-156c-20 0-38 6-52 22-14 14-20 30-20 50v366c0 20 6 38 20 52s32 22 52 22h164c10 0 36 8 80 22 48 18 90 30 128 38 36 8 74 12 114 12h64c52 0 96-14 128-44 34-30 50-72 50-124v-2c22-30 34-64 34-102 0-8 0-16-2-24 14-26 22-54 22-84 0-12-2-26-6-38 20-28 28-60 28-94z" />
<glyph unicode="&#xe024;" glyph-name="fontawesome-webfont-128" d="M732 942v-766l-258-134c-8-4-16-8-22-8-8 0-14 4-18 10-4 4-6 12-6 20 0 2 0 6 2 10l48 286-208 202c-10 12-14 20-14 28 0 14 10 24 32 26l286 42 130 260c6 16 16 24 28 24z" />
<glyph unicode="&#xe025;" glyph-name="fontawesome-webfont-129" d="M758 374h-64c-10 0-18 4-24 12-8 6-12 16-12 26v72c0 10 4 20 12 26 6 8 14 12 24 12h64c-14 40-34 76-66 106-30 32-66 52-106 66v-64c0-10-4-18-12-24-6-8-16-12-26-12h-72c-10 0-20 4-26 12-8 6-12 14-12 24v64c-40-14-76-34-106-66-32-30-52-66-66-106h64c10 0 18-4 24-12 8-6 12-16 12-26v-72c0-10-4-20-12-26-6-8-14-12-24-12h-64c14-40 34-76 66-106 30-32 66-52 106-66v64c0 10 4 18 12 24 6 8 16 12 26 12h72c10 0 20-4 26-12 8-6 12-14 12-24v-64c40 14 76 34 106 66 32 30 52 66 66 106zM950 484v-72c0-10-2-20-10-26-8-8-16-12-26-12h-82c-14-60-42-114-88-158-44-46-98-74-158-88v-82c0-10-4-18-12-26-6-8-16-10-26-10h-72c-10 0-20 2-26 10-8 8-12 16-12 26v82c-60 14-114 42-158 88-46 44-74 98-88 158h-82c-10 0-18 4-26 12-8 6-10 16-10 26v72c0 10 2 20 10 26 8 8 16 12 26 12h82c14 60 42 114 88 158 44 46 98 74 158 88v82c0 10 4 18 12 26 6 8 16 10 26 10h72c10 0 20-2 26-10 8-8 12-16 12-26v-82c60-14 114-42 158-88 46-44 74-98 88-158h82c10 0 18-4 26-12 8-6 10-16 10-26z" />
<glyph unicode="&#xe026;" glyph-name="fontawesome-webfont-130" d="M950 620c0 30-4 58-12 82-8 22-18 42-30 56-14 14-30 24-48 34-18 8-36 14-54 18-16 2-36 4-56 4-18 0-40-6-64-14-22-10-44-22-62-38-20-14-36-28-50-40-14-14-24-26-34-36-6-8-16-12-28-12s-22 4-28 12c-10 10-20 22-34 36-14 12-30 26-50 40-18 16-40 28-62 38-24 8-46 14-64 14-20 0-40-2-56-4-18-4-36-10-54-18-18-10-34-20-48-34-12-14-22-34-30-56-8-24-12-52-12-82 0-64 34-132 106-204l332-320 332 320c72 72 106 140 106 204zM1024 620c0-84-44-170-130-258l-356-342c-8-8-16-10-26-10s-18 2-26 10l-356 344c-4 2-8 8-16 14-6 8-16 20-32 38-14 18-26 36-38 56-12 18-22 42-30 68-10 28-14 54-14 80 0 84 24 148 72 196s116 70 202 70c22 0 46-4 72-12 24-8 46-18 68-32s40-28 54-40c16-12 30-24 44-38 14 14 28 26 44 38 14 12 32 26 54 40s44 24 68 32c26 8 50 12 72 12 86 0 154-22 202-70s72-112 72-196z" />
<glyph unicode="&#xe027;" glyph-name="fontawesome-webfont-131" d="M402 138c0-2 0-6 0-12 2-6 2-12 2-16-2-4-2-8-2-12-2-6-4-10-6-12-4-2-8-4-12-4h-182c-46 0-84 16-118 48-32 32-48 72-48 116v404c0 44 16 84 48 116 34 32 72 48 118 48h182c4 0 10-2 12-6 4-4 6-8 6-12 0-2 0-6 0-12 2-6 2-12 2-16-2-4-2-8-2-12-2-6-4-10-6-12-4-2-8-4-12-4h-182c-26 0-48-8-66-26s-26-40-26-64v-404c0-24 8-46 26-64s40-26 66-26h178c0 0 2 0 6-2 4 0 6 0 6 0 0-2 2-2 6-4 2-2 4-4 4-6-2-2 0-4 0-6zM932 448c0-10-4-18-10-26l-312-310c-6-8-14-12-24-12s-20 4-26 12c-8 6-12 16-12 26v164h-256c-10 0-18 4-26 10-6 8-10 16-10 26v220c0 10 4 18 10 26 8 6 16 10 26 10h256v164c0 10 4 20 12 26 6 8 16 12 26 12s18-4 24-12l312-310c6-8 10-16 10-26z" />
<glyph unicode="&#xe028;" glyph-name="fontawesome-webfont-132" d="M208 152h132v396h-132zM350 670c-2 20-8 38-22 50-12 12-30 20-52 20s-40-8-54-20c-14-12-22-30-22-50 0-18 8-34 20-48 14-14 32-20 54-20v0c22 0 40 6 54 20s22 30 22 48zM684 152h132v228c0 58-14 102-42 132s-64 46-110 46c-52 0-92-22-120-68h2v58h-132c0-24 0-156 0-396h132v222c0 14 0 24 4 32 4 14 14 24 24 34 12 10 26 14 44 14 44 0 66-30 66-90zM950 722v-548c0-46-16-84-48-116s-70-48-116-48h-548c-46 0-84 16-116 48s-48 70-48 116v548c0 46 16 84 48 116s70 48 116 48h548c46 0 84-16 116-48s48-70 48-116z" />
<glyph unicode="&#xe029;" glyph-name="fontawesome-webfont-133" d="M458 466v256c0 6-2 10-6 14-4 2-8 4-14 4-4 0-8-2-12-4-4-4-6-8-6-14v-256c0-6 2-10 6-12 4-4 8-6 12-6 6 0 10 2 14 6 4 2 6 6 6 12zM842 266c0-10-4-20-12-26-6-8-16-12-26-12h-244l-30-276c0-4-2-8-6-12-2-2-6-4-12-4v0c-10 0-16 6-18 16l-44 276h-230c-10 0-20 4-26 12-8 6-12 16-12 26 0 46 16 88 46 126s64 56 102 56v292c-20 0-38 8-52 22s-22 32-22 52c0 20 8 36 22 52 14 14 32 20 52 20h364c20 0 38-6 52-20 14-16 22-32 22-52s-8-38-22-52c-14-14-32-22-52-22v-292c38 0 72-18 102-56s46-80 46-126z" />
<glyph unicode="&#xe02a;" glyph-name="fontawesome-webfont-134" d="M804 430v-184c0-44-16-84-48-116s-70-48-116-48h-476c-44 0-84 16-116 48s-48 72-48 116v476c0 46 16 84 48 116s72 48 116 48h402c6 0 10 0 14-4s6-8 6-14v-36c0-6-2-10-6-14-4-2-8-4-14-4h-402c-24 0-46-10-64-28s-26-38-26-64v-476c0-24 8-46 26-64s40-26 64-26h476c26 0 46 8 64 26s28 40 28 64v184c0 6 2 10 4 12 4 4 8 6 14 6h36c6 0 10-2 14-6 2-2 4-6 4-12zM1024 924v-294c0-10-4-18-10-24-8-8-16-12-26-12s-20 4-26 12l-100 100-374-372c-4-4-8-6-12-6-6 0-10 2-14 6l-64 64c-4 4-6 8-6 14 0 4 2 8 6 12l372 374-100 100c-8 6-12 16-12 26s4 18 12 26c6 6 14 10 24 10h294c10 0 18-4 26-10 6-8 10-16 10-26z" />
<glyph unicode="&#xe02b;" glyph-name="fontawesome-webfont-135" d="M750 448c0-10-4-18-12-26l-310-310c-8-8-16-12-26-12s-18 4-26 12c-6 6-10 16-10 26v164h-256c-10 0-18 4-26 10-8 8-10 16-10 26v220c0 10 2 18 10 26 8 6 16 10 26 10h256v164c0 10 4 20 10 26 8 8 16 12 26 12s18-4 26-12l310-310c8-8 12-16 12-26zM950 650v-404c0-44-16-84-48-116s-70-48-116-48h-182c-6 0-10 2-14 6s-4 8-4 12c0 2-2 6-2 12s0 12 0 16c0 4 2 8 2 12 0 6 2 10 6 12 2 2 6 4 12 4h182c26 0 46 8 64 26s28 40 28 64v404c0 24-10 46-28 64s-38 26-64 26h-178c0 0-2 0-6 2-4 0-8 0-8 0 0 2 0 2-4 4-2 2-4 4-4 6s0 4 0 6c0 2-2 6-2 12s0 12 0 16c0 4 2 8 2 12 0 6 2 10 6 12 2 2 6 4 12 4h182c46 0 84-16 116-48s48-72 48-116z" />
<glyph unicode="&#xe02c;" glyph-name="fontawesome-webfont-136" d="M298 456c-28 62-42 132-42 212h-146v-56c0-30 18-60 54-92s80-54 134-64zM914 612v56h-146c0-80-14-150-42-212 54 10 98 32 134 64s54 62 54 92zM988 686v-74c0-26-8-54-24-82-16-26-38-52-64-74-28-22-60-40-100-56-38-14-80-22-122-24-16-22-34-40-54-54-16-14-26-28-30-42-6-14-8-32-8-52s4-38 16-52c12-14 30-20 56-20 28 0 54-10 76-26 22-18 34-40 34-66v-36c0-6-2-10-6-14-2-4-6-4-12-4h-476c-6 0-10 0-12 4-4 4-6 8-6 14v36c0 26 12 48 34 66 22 16 48 26 76 26 26 0 44 6 56 20s16 32 16 52c0 20-2 38-8 52-4 14-14 28-30 42-20 14-38 32-54 54-42 2-84 10-122 24-40 16-72 34-100 56-26 22-48 48-64 74-16 28-24 56-24 82v74c0 14 6 28 16 38 12 12 24 16 40 16h164v56c0 24 8 46 26 64s40 26 66 26h328c26 0 48-8 66-26s26-40 26-64v-56h164c16 0 28-4 40-16 10-10 16-24 16-38z" />
<glyph unicode="&#xe02d;" glyph-name="fontawesome-webfont-137" d="M298 188c-2-4-6-4-12 2-4 4-4 6-2 10 4 4 8 2 12-2s6-8 2-10zM274 222c4-4 4-8 0-10-2-2-6-2-10 4-2 4-2 8 0 10 4 2 8 2 10-4zM240 256c-2-2-4-2-8 0s-6 4-4 6c2 2 4 2 8 2 4-2 4-4 4-8zM258 238c-4-4-6-2-10 0-4 6-4 8-2 10 4 2 6 2 10-2s4-6 2-8zM330 174c0-6-4-6-10-4s-8 4-8 8c2 4 6 6 12 4s8-4 6-8zM366 170c0-4-2-6-8-6s-10 2-10 6c0 4 4 6 10 6 6 2 8 0 8-6zM400 176c0-4-2-6-8-8s-10 0-10 4c-2 6 2 8 8 10 6 0 10-2 10-6zM950 722v-548c0-46-16-84-48-116s-70-48-116-48h-128c-6 0-10 0-14 0-2 0-6 2-10 2-6 2-8 4-10 8s-2 10-2 16v138c0 36-10 64-30 80 22 2 40 6 58 10 18 6 36 12 54 22 18 12 34 24 46 38 12 16 22 36 30 60 8 26 12 54 12 86 0 46-16 86-46 118 14 36 14 74-4 118-10 2-26 0-46-8-20-6-38-16-52-24l-22-14c-36 10-72 14-110 14s-74-4-110-14c-6 4-14 10-24 16s-26 12-48 22c-22 8-38 10-48 8-18-44-18-82-4-118-30-32-46-72-46-118 0-32 4-60 12-84 8-26 18-46 30-60 12-16 28-28 46-40 18-10 36-16 54-22 16-4 36-8 58-10-16-14-24-34-28-58-8-4-16-8-26-10-8-2-20-2-32-2s-26 4-38 12c-12 8-22 20-32 36-6 12-16 22-28 30-10 8-20 12-28 14l-10 2c-8 0-14-2-18-4-2-2-4-4-2-6 0-2 2-6 4-8 4-2 6-4 8-6l4-4c8-4 16-10 26-22 8-10 14-20 18-28l4-14c6-14 14-26 26-34 12-10 24-16 38-18s28-4 40-4c12 0 24 0 32 2l12 2c0-14 0-34 2-58 0-26 0-38 0-40 0-8-2-14-6-18-6-4-10-8-14-8s-10 0-18 0h-128c-46 0-84 16-116 48s-48 70-48 116v548c0 46 16 84 48 116s70 48 116 48h548c46 0 84-16 116-48s48-70 48-116z" />
<glyph unicode="&#xe02e;" glyph-name="upload" d="M768 118c0 10-4 20-10 26-8 8-16 12-26 12s-20-4-26-12c-8-6-12-16-12-26s4-18 12-24c6-8 16-12 26-12s18 4 26 12c6 6 10 14 10 24zM914 118c0 10-4 20-10 26-8 8-16 12-26 12s-18-4-26-12c-8-6-10-16-10-26s2-18 10-24c8-8 16-12 26-12s18 4 26 12c6 6 10 14 10 24zM988 246v-182c0-16-6-28-16-38-12-12-24-16-40-16h-840c-16 0-28 4-40 16-10 10-16 22-16 38v182c0 16 6 30 16 40 12 10 24 16 40 16h244c8-22 20-40 40-52 18-14 40-22 62-22h148c22 0 44 8 62 22 20 12 32 30 40 52h244c16 0 28-6 40-16 10-10 16-24 16-40zM802 618c-6-16-18-24-34-24h-146v-256c0-10-4-18-12-26-6-6-14-10-24-10h-148c-10 0-18 4-24 10-8 8-12 16-12 26v256h-146c-16 0-28 8-34 24-6 14-4 28 8 38l256 256c8 8 16 12 26 12s18-4 26-12l256-256c12-10 14-24 8-38z" />
<glyph unicode="&#xe02f;" glyph-name="fontawesome-webfont-139" d="M878 488c0 16-2 38-4 64-4 28-6 46-12 56-4 12-6 20-8 26-2 4-4 12-6 20s-2 18-2 28c0 8 0 22 2 38 2 18 4 32 4 40 0 14-2 24-6 30-2 2-4 2-8 2-6 0-18-2-32-4-16 0-26-2-34-2-24 0-56 4-102 14-44 10-76 14-100 14-16 0-34-2-54-6-18-6-34-10-48-14-12-4-30-12-50-20-54-20-92-40-116-58-36-28-68-64-92-108-24-46-40-90-50-136s-14-92-14-142c0-14 2-38 8-68 4-30 6-54 6-70 0-8-2-20-6-38-4-16-6-28-6-36 0-10 2-16 6-22 6-6 12-8 20-8 10 0 24 2 42 6s32 6 42 6c22 0 54-2 96-8 44-6 76-10 98-10 68 0 122 8 162 22 48 16 94 46 134 86 40 42 72 88 96 140 22 54 34 106 34 158zM950 490c0-64-14-126-40-188s-64-116-112-164c-48-48-102-82-160-104-48-16-110-24-186-24-22 0-54 2-98 8-42 4-74 8-96 8-10 0-24-4-42-8-18-6-32-8-42-8-28 0-52 10-70 30-20 22-30 46-30 74 0 10 2 22 8 40 4 16 6 28 6 38 0 14-2 38-8 68-4 30-6 54-6 70 0 42 2 84 10 124 6 40 16 80 30 120 14 38 34 76 58 110 24 36 52 64 86 90 30 22 74 46 132 68 74 30 134 44 180 44 24 0 58-4 102-12 44-10 76-14 98-14 8 0 18 0 32 2 16 2 26 4 34 4 30 0 54-10 68-30 14-18 20-44 20-76 0-10 0-22-2-40-2-16-4-30-4-38 0-4 2-8 2-10 0-4 0-8 2-10 0-4 0-6 2-8 0-2 2-6 4-10 0-4 2-6 2-10 6-14 12-36 16-66 2-30 4-56 4-78z" />
<glyph unicode="&#xe030;" glyph-name="fontawesome-webfont-140" d="M914 252c0-10-2-24-6-40-4-18-8-30-12-40-8-20-30-40-70-60-34-20-70-30-106-30-10 0-20 0-30 2s-20 4-32 8c-12 2-22 6-28 8s-16 6-32 12c-14 6-24 8-28 10-36 14-70 28-100 48-48 30-98 70-150 122s-94 102-124 152c-18 28-34 62-46 100-2 2-6 12-12 28-4 14-8 26-10 32s-6 14-10 26c-2 12-4 24-6 34-2 8-2 18-2 30 0 34 10 70 28 106 22 38 42 62 62 70 8 4 22 8 38 12 18 2 30 4 40 4 6 0 10 0 12 0 8-4 18-18 32-44 4-8 10-18 16-32 8-12 14-24 20-36 6-10 12-20 18-30 2-2 4-6 10-14s10-16 12-20c2-6 4-12 4-16 0-8-6-18-16-30-10-10-22-22-36-30-12-10-24-20-34-32-12-10-18-18-18-26 0-2 2-8 4-12 2-6 4-10 4-12 2-2 4-8 8-14s6-10 8-10c28-52 62-98 98-134 38-38 82-72 134-100 2 0 6-2 12-6s10-8 14-8c2-2 6-4 12-6 4-2 8-2 12-2 6 0 16 4 26 16 10 10 22 22 30 36 10 12 20 24 32 34 12 12 20 16 28 16 6 0 12 0 16-4 6-2 14-6 22-12 8-4 12-8 14-10 8-6 20-12 30-18s22-12 36-20c14-6 24-12 32-16 26-14 40-24 42-30 2-4 2-8 2-12z" />
<glyph unicode="&#xe031;" glyph-name="fontawesome-webfont-141" d="M750 814h-476c-24 0-46-10-64-28s-28-38-28-64v-476c0-24 10-46 28-64s40-26 64-26h476c24 0 46 8 64 26s28 40 28 64v476c0 26-10 46-28 64s-40 28-64 28zM914 722v-476c0-44-16-84-48-116s-70-48-116-48h-476c-46 0-84 16-116 48s-48 72-48 116v476c0 46 16 84 48 116s70 48 116 48h476c46 0 84-16 116-48s48-70 48-116z" />
<glyph unicode="&#xe032;" glyph-name="fontawesome-webfont-142" d="M804 814h-584v-710l292 280 50-48 242-232zM812 886c8 0 16 0 24-4 14-6 24-14 30-24 8-10 12-22 12-36v-736c0-12-4-24-12-36-6-10-16-18-30-22-6-4-16-6-24-6-18 0-34 6-48 20l-252 242-252-242c-14-14-30-20-48-20-8 0-16 2-24 6-14 4-24 12-30 22-8 12-12 24-12 36v736c0 14 4 26 12 36 6 10 16 18 30 24 8 4 16 4 24 4z" />
<glyph unicode="&#xe033;" glyph-name="fontawesome-webfont-143" d="M804 278c0 4 0 8 0 10-2 2-10 8-22 16-14 8-30 18-52 28l-30 18c-2 0-4 2-10 6s-10 8-14 10c-4 2-8 2-12 2-8 0-16-6-28-18-10-12-22-26-32-38s-20-18-26-18c-2 0-4 0-8 2-4 0-8 2-10 2-2 2-4 4-10 6-4 2-6 4-8 6-36 20-70 44-96 72-28 26-52 60-72 96-2 2-4 4-6 8-2 6-4 8-6 10 0 2-2 6-2 10-2 4-2 6-2 8 0 6 4 12 10 20 8 8 18 16 26 22 10 6 18 14 26 22s12 16 12 22c0 4 0 8-2 12s-6 8-10 14c-4 6-6 8-6 10-2 2-4 8-10 16-4 10-8 18-14 26-4 10-10 18-14 28-6 10-10 18-16 24-4 6-6 8-8 10-2 0-6 0-10 0-18 0-38-4-58-12-16-8-32-26-46-54-12-28-18-52-18-74 0-6 0-14 0-20 2-6 2-12 4-18 0-4 2-10 4-18 4-8 6-14 6-18 2-2 4-8 8-18s6-14 6-18c22-62 64-122 124-182s120-102 182-124c4 0 8-2 18-6s16-6 18-8c4 0 10-2 18-6 8-2 14-4 18-4 6-2 12-2 18-4 6 0 14 0 20 0 22 0 46 6 74 18 28 14 46 30 54 46 8 20 12 40 12 58zM950 722v-548c0-46-16-84-48-116s-70-48-116-48h-548c-46 0-84 16-116 48s-48 70-48 116v548c0 46 16 84 48 116s70 48 116 48h548c46 0 84-16 116-48s48-70 48-116z" />
<glyph unicode="&#xe034;" glyph-name="fontawesome-webfont-144" d="M962 726c-26-36-56-68-92-94 0-6 0-14 0-24 0-50-6-100-22-148-14-50-36-98-66-142-28-46-64-86-104-122-42-34-90-62-148-82-58-22-120-32-184-32-104 0-198 28-284 84 14-2 28-4 44-4 86 0 162 28 230 80-40 0-76 12-108 36s-54 54-66 92c14-2 26-4 36-4 16 0 32 2 48 8-42 8-78 30-106 62-28 34-42 74-42 118v2c26-14 54-22 84-22-26 16-46 38-60 64-16 28-22 58-22 88 0 34 8 66 24 94 46-56 102-102 168-136s138-54 214-58c-4 16-6 30-6 44 0 50 18 94 54 130s80 54 132 54c52 0 98-20 134-58 42 8 80 22 118 44-14-44-42-78-82-102 36 4 70 14 106 28z" />
<glyph unicode="&#xe035;" glyph-name="fontawesome-webfont-145" d="M768 954v-152h-90c-34 0-56-6-66-20-12-14-18-34-18-62v-108h168l-22-170h-146v-432h-174v432h-146v170h146v124c0 72 20 126 58 166 40 38 94 58 160 58 56 0 98-2 130-6z" />
<glyph unicode="&#xe036;" glyph-name="fontawesome-webfont-146" d="M950 448c0-96-28-182-82-258-56-76-128-130-218-158-10-2-16-2-22 4-4 4-6 10-6 16v122c0 36-10 64-30 80 22 2 40 6 58 10 18 6 36 12 54 22 18 12 34 24 46 38 12 16 22 36 30 60 8 26 12 54 12 86 0 46-16 86-46 118 14 36 14 74-4 118-10 2-26 0-46-8-20-6-38-16-52-24l-22-14c-36 10-72 14-110 14s-74-4-110-14c-6 4-14 10-24 16s-26 12-48 22c-22 8-38 10-48 8-18-44-18-82-4-118-30-32-46-72-46-118 0-32 4-60 12-84 8-26 18-46 30-60 12-16 28-28 46-40 18-10 36-16 54-22 16-4 36-8 58-10-16-14-24-34-28-58-8-4-16-8-26-10-8-2-20-2-32-2s-26 4-38 12c-12 8-22 20-32 36-6 12-16 22-28 30-10 8-20 12-28 14l-10 2c-8 0-14-2-18-4-2-2-4-4-2-6 0-2 2-6 4-8 4-2 6-4 8-6l4-4c8-4 16-10 26-22 8-10 14-20 18-28l4-14c6-14 14-26 26-34 12-10 24-16 38-18s28-4 40-4c12 0 24 0 32 2l12 2c0-14 0-32 2-50 0-20 0-30 0-32 0-6-4-12-8-16-4-6-12-6-22-4-90 28-162 82-218 158-54 76-82 162-82 258 0 80 18 154 58 220 40 68 92 120 160 160 66 40 140 58 220 58s154-18 220-58c68-40 120-92 160-160 40-66 58-140 58-220z" />
<glyph unicode="&#xe037;" glyph-name="fontawesome-webfont-147" d="M988 630v-146c0-10-4-18-12-26-6-6-16-10-26-10h-36c-10 0-18 4-26 10-6 8-10 16-10 26v146c0 42-14 76-44 104-28 28-62 44-102 44s-76-16-104-44c-28-28-42-62-42-104v-108h54c16 0 28-6 38-16 12-12 16-24 16-40v-328c0-16-4-30-16-40-10-10-22-16-38-16h-548c-16 0-28 6-40 16-10 10-16 24-16 40v328c0 16 6 28 16 40 12 10 24 16 40 16h384v108c0 72 24 132 74 182s110 74 182 74c70 0 130-24 180-74s76-110 76-182z" />
<glyph unicode="&#xe038;" glyph-name="fontawesome-webfont-148" d="M938 858c24 0 44-8 60-26 18-16 26-36 26-60v-648c0-24-8-44-26-60-16-18-36-26-60-26h-852c-24 0-44 8-60 26-18 16-26 36-26 60v648c0 24 8 44 26 60 16 18 36 26 60 26zM86 790c-6 0-10-2-12-6-4-4-6-8-6-12v-120h888v120c0 4-2 8-6 12-2 4-6 6-12 6zM938 106c6 0 10 2 12 6 4 4 6 8 6 12v324h-888v-324c0-4 2-8 6-12 2-4 6-6 12-6zM136 174v70h138v-70zM342 174v70h204v-70z" />
<glyph unicode="&#xe039;" glyph-name="fontawesome-webfont-149" d="M330 192c0-30-12-56-32-78-22-22-48-32-78-32-32 0-56 10-78 32s-32 48-32 78c0 30 10 56 32 78s46 32 78 32c30 0 56-10 78-32 20-22 32-48 32-78zM622 122c0-10-2-20-10-28-6-8-16-12-26-12h-78c-10 0-18 4-24 10-8 6-12 14-12 24-8 86-44 162-106 224s-136 96-224 104c-8 2-16 6-22 12-8 6-10 16-10 24v78c0 10 4 20 12 26 6 8 14 10 24 10h4c60-4 118-20 174-46s104-60 148-104c44-42 78-92 104-148s40-114 46-174zM914 120c2-10-2-18-10-26-6-8-16-12-26-12h-82c-10 0-18 4-26 10-6 6-10 16-10 24-6 82-24 160-58 234s-78 138-132 192c-54 54-118 98-192 132s-152 54-234 58c-10 0-18 4-24 12-6 6-10 16-10 24v82c0 10 4 20 12 26 6 8 14 10 24 10h2c100-4 196-26 286-68 92-40 172-96 244-168 70-70 126-152 168-242 40-92 64-188 68-288z" />
<glyph unicode="&#xe03a;" glyph-name="fontawesome-webfont-150" d="M668 266c0-14-6-24-14-34-8-8-20-12-32-12s-24 4-32 12c-10 10-14 20-14 34 0 12 4 22 14 32 8 8 20 12 32 12s24-4 32-12c8-10 14-20 14-32zM814 266c0-14-4-24-14-34-8-8-20-12-32-12s-24 4-32 12c-10 10-14 20-14 34 0 12 4 22 14 32 8 8 20 12 32 12s24-4 32-12c10-10 14-20 14-32zM878 174v182c0 6-2 10-6 14s-8 4-12 4h-696c-4 0-8 0-12-4s-6-8-6-14v-182c0-6 2-10 6-14 4-2 8-4 12-4h696c4 0 8 2 12 4 4 4 6 8 6 14zM174 448h676l-90 276c-2 4-6 8-10 12-4 2-10 4-14 4h-448c-4 0-10-2-14-4-4-4-8-8-10-12zM950 356v-182c0-26-8-46-26-64s-40-28-64-28h-696c-24 0-46 10-64 28s-26 38-26 64v182c0 10 2 24 8 44l112 346c8 20 20 36 36 48 18 14 38 20 58 20h448c20 0 40-6 58-20 16-12 28-28 36-48l112-346c6-20 8-34 8-44z" />
<glyph unicode="&#xe03b;" glyph-name="fontawesome-webfont-151" d="M950 594c22 0 38-6 52-22 14-14 22-30 22-50 0-22-8-38-22-52s-30-22-52-22v-220c0-20-6-36-20-50-16-16-32-22-52-22-160 132-314 204-464 216-22-6-40-20-52-38s-18-36-18-56c0-20 8-38 22-54-6-12-12-24-12-36-2-14 0-24 4-34 2-10 8-20 18-32 10-10 18-20 28-28 8-8 20-18 34-28-10-22-32-38-62-48-32-10-64-12-98-6-32 4-58 14-74 30-4 10-8 26-18 50-8 26-14 44-18 54-4 12-8 30-12 52-6 22-8 42-10 58 0 16 0 34 2 56s6 42 14 62h-70c-26 0-48 10-66 28s-26 40-26 64v110c0 26 8 46 26 64s40 28 66 28h274c166 0 336 72 512 218 20 0 36-6 52-20 14-16 20-32 20-52zM878 250v544c-150-114-296-180-440-196v-154c144-16 290-80 440-194z" />
<glyph unicode="&#xe03c;" glyph-name="fontawesome-webfont-152" d="M522-10c0 6-4 10-10 10-22 0-42 8-58 24s-24 36-24 58c0 6-4 10-10 10s-8-4-8-10c0-28 10-52 28-70 20-20 44-30 72-30 6 0 10 2 10 8zM140 156h744c-102 114-152 272-152 474 0 20-6 40-14 60-10 22-22 42-40 60-16 18-40 34-70 46-28 12-60 18-96 18s-68-6-96-18c-30-12-54-28-70-46-18-18-30-38-40-60-8-20-14-40-14-60 0-202-50-360-152-474zM988 156c0-20-8-38-22-52s-32-22-52-22h-256c0-40-14-74-42-104-30-28-64-42-104-42s-74 14-104 42c-28 30-42 64-42 104h-256c-20 0-38 8-52 22s-22 32-22 52c20 16 36 32 52 50s32 40 50 68c16 28 30 58 42 90s20 72 28 118c8 46 12 96 12 148 0 58 22 112 66 162s104 80 176 90c-4 8-4 16-4 24 0 14 4 28 16 38 10 10 22 16 38 16s28-6 38-16c12-10 16-24 16-38 0-8 0-16-4-24 72-10 132-40 176-90s66-104 66-162c0-52 4-102 12-148s16-86 28-118c12-32 26-62 42-90 18-28 34-50 50-68s32-34 52-50z" />
<glyph unicode="&#xe03d;" glyph-name="fontawesome-webfont-153" d="M860 448l78-78c12-10 16-24 12-40-4-14-14-24-30-28l-108-28 30-106c6-16 2-28-10-40s-24-16-40-10l-106 30-28-108c-4-16-14-26-28-30-6 0-10 0-12 0-12 0-22 4-28 12l-78 78-78-78c-10-12-24-16-40-12-14 4-24 14-28 30l-28 108-106-30c-16-6-28-2-40 10s-16 24-10 40l30 106-108 28c-16 4-26 14-30 28-4 16 0 30 12 40l78 78-78 78c-12 10-16 24-12 40 4 14 14 24 30 28l108 28-30 106c-6 16-2 28 10 40s24 16 40 10l106-30 28 108c4 16 14 26 28 30 16 4 30 0 40-12l78-80 78 80c10 12 24 16 40 12 14-4 24-14 28-30l28-108 106 30c16 6 28 2 40-10s16-24 10-40l-30-106 108-28c16-4 26-14 30-28 4-16 0-30-12-40z" />
<glyph unicode="&#xe03e;" glyph-name="fontawesome-webfont-154" d="M146 192c0 10-4 18-10 26-8 6-16 10-26 10s-18-4-26-10c-8-8-10-16-10-26s2-18 10-26c8-6 16-10 26-10s18 4 26 10c6 8 10 16 10 26zM950 522c0 18-6 36-22 50-14 14-32 22-50 22h-330c0 8 4 18 10 28 4 10 12 22 18 32s14 22 18 38c6 16 10 32 10 48 0 26-10 44-26 56s-38 18-66 18c-10 0-26-26-52-80-8-16-16-28-20-36-16-26-38-52-64-84-28-30-46-50-58-60-26-22-54-32-80-32h-18v-366h18c28 0 58-6 96-18 36-14 72-26 110-38s72-18 102-18c72 0 108 32 108 96 0 10 0 20-2 32 10 6 20 16 26 30 8 14 10 28 10 42s-2 26-10 40c20 18 30 40 30 68 0 8-2 20-6 30-2 12-8 22-14 28h190c20 0 36 8 52 22 14 14 20 32 20 52zM1024 522c0-40-14-74-44-104-28-28-62-44-102-44h-96c-2-22-10-46-22-68 2-8 2-16 2-24 0-38-12-72-34-102 0-52-16-94-50-124-32-32-76-46-128-46s-112 12-184 38c-64 24-106 34-128 34h-164c-22 0-38 8-52 22s-22 32-22 52v366c0 20 8 36 22 50 14 16 30 22 52 22h164c4 0 8 2 12 2 4 2 8 6 14 8 4 4 8 8 12 12 4 2 8 6 14 12s10 10 12 12c2 4 6 8 10 12 6 6 8 10 8 10 26 28 44 54 58 74 4 8 10 20 18 36s16 28 22 40c6 12 14 24 22 36 10 12 20 22 32 28 12 8 26 10 40 10 48 0 86-12 118-38 32-24 46-60 46-108 0-26-4-50-12-72h214c40 0 74-16 102-44 30-28 44-64 44-102z" />
<glyph unicode="&#xe03f;" glyph-name="fontawesome-webfont-155" d="M786 156h18v366h-18c-14 0-26 2-38 6s-24 12-36 22c-12 8-20 18-28 26s-18 18-28 30c-2 2-2 2-2 2-2 2-2 2-2 4-2 0-2 2-4 2-26 32-48 58-64 84-4 8-12 20-22 38 0 2-2 6-6 12-2 8-6 16-10 22s-6 12-12 20c-4 6-8 12-12 18-4 4-6 6-10 6-28 0-50-6-66-18s-26-30-26-56c0-16 4-32 10-48 4-16 12-28 18-38s14-22 18-32c6-10 10-20 10-28h-330c-18 0-36-8-50-22-16-14-22-32-22-50 0-20 6-38 20-52 16-14 32-22 52-22h190c-6-6-12-16-14-28-4-10-6-22-6-30 0-28 10-50 30-68-8-14-10-26-10-40s2-28 10-42c6-14 16-24 26-30 0-10-2-20-2-32 0-32 10-56 28-72s44-24 78-24c32 0 66 6 104 18s74 24 110 38c38 12 68 18 96 18zM950 192c0 10-2 18-10 26-8 6-16 10-26 10s-18-4-26-10c-6-8-10-16-10-26s4-18 10-26c8-6 16-10 26-10s18 4 26 10c8 8 10 16 10 26zM1024 522v-366c0-20-8-38-22-52s-30-22-52-22h-164c-22 0-64-10-128-34-72-26-132-38-180-38-54 0-98 14-132 44-34 28-50 70-50 124l2 2c-24 30-36 64-36 102 0 8 0 16 2 24-12 22-20 46-22 68h-96c-40 0-74 16-102 44-30 30-44 64-44 104 0 38 14 74 44 102 28 28 62 44 102 44h214c-8 22-12 46-12 72 0 48 14 84 46 108 32 26 70 38 118 38 14 0 28-2 40-10 12-6 22-16 32-28 8-12 16-24 22-36s14-24 22-40c8-16 14-28 18-36 14-20 32-46 58-74 0 0 2-4 8-10 4-4 8-8 10-12 2-2 6-6 12-12s10-10 14-12c4-4 8-8 12-12 6-2 10-6 14-8 4 0 8-2 12-2h164c22 0 38-6 52-22 14-14 22-30 22-50z" />
</font>
</defs>
</svg>
