<svg xmlns="http://www.w3.org/2000/svg" viewBox="0 0 512 512"><title>capa-mgmt</title><circle cx="256" cy="256" r="256" style="fill:#b0447d"/><path d="M127.51,245.29a10.71,10.71,0,0,0,10.71-10.71V138.21h75v21.42l32.12-32.12L213.17,95.38V116.8h-75a21.42,21.42,0,0,0-21.42,21.42v96.37A10.71,10.71,0,0,0,127.51,245.29Z" style="fill:#fff"/><path d="M277.42,138.21h96.37v75H352.37l32.12,32.12,32.13-32.12H395.2v-75a21.42,21.42,0,0,0-21.42-21.42H277.42a10.71,10.71,0,0,0-10.71,10.71h0A10.71,10.71,0,0,0,277.42,138.21Z" style="fill:#fff"/><path d="M384.49,266.71a10.71,10.71,0,0,0-10.71,10.71v96.37h-75V352.37l-32.12,32.12,32.12,32.13V395.2h75a21.42,21.42,0,0,0,21.42-21.42V277.42A10.71,10.71,0,0,0,384.49,266.71Z" style="fill:#fff"/><path d="M234.58,373.79H138.21v-75h21.42l-32.12-32.12L95.38,298.83H116.8v75a21.42,21.42,0,0,0,21.42,21.42h96.37a10.71,10.71,0,0,0,10.71-10.71h0A10.71,10.71,0,0,0,234.58,373.79Z" style="fill:#fff"/><path d="M234.58,191.67v64.19a21.42,21.42,0,0,0,42.83,0V191.67a21.42,21.42,0,0,0-42.83,0Z" style="fill:#fff"/><path d="M277.42,320.05h0a21.42,21.42,0,0,0-42.83,0h0a21.42,21.42,0,0,0,42.83,0Z" style="fill:#fff"/></svg>