<?xml version="1.0" encoding="utf-8"?>
<!-- Generator: Adobe Illustrator 21.1.0, SVG Export Plug-In . SVG Version: 6.00 Build 0)  -->
<svg version="1.1" id="Layer_1" xmlns="http://www.w3.org/2000/svg" xmlns:xlink="http://www.w3.org/1999/xlink" x="0px" y="0px"
	 viewBox="0 0 150 150" style="enable-background:new 0 0 150 150;" xml:space="preserve">
<style type="text/css">
	.st0{fill:#0B5B61;}
	.st1{fill:#FFFFFF;}
</style>
<g>
	<circle class="st0" cx="75" cy="75" r="75"/>
	<g>
		<g>
			<g>
				<path class="st1" d="M112.2,60.8c-2-2.8-4.9-6-8-9.1c-3.1-3.1-6.4-5.9-9.1-8c-4.7-3.5-7-3.9-8.3-3.9H53c-4,0-7.3,3.3-7.3,7.3
					v67.4c0,4,3.3,7.3,7.3,7.3h55.7c4,0,7.3-3.3,7.3-7.3V69.1C116,67.8,115.6,65.5,112.2,60.8z M92.6,49.2c2.1,1.6,4.6,3.8,7.5,6.6
					h0c2.8,2.8,5,5.3,6.6,7.5H92.6V49.2z M110.2,114.6c0,0.8-0.7,1.5-1.5,1.5H53c-0.8,0-1.5-0.7-1.5-1.5V47.2c0-0.8,0.7-1.5,1.5-1.5
					c0,0,33.7,0,33.7,0v20.5c0,1.6,1.3,2.9,2.9,2.9h20.5V114.6z"/>
			</g>
			<g>
				<path class="st1" d="M83.3,32L83.3,32c-4.7-3.5-7-3.9-8.3-3.9H41.3c-4,0-7.3,3.3-7.3,7.3v67.4c0,3.5,2.5,6.5,5.9,7.2V35.4
					c0-0.8,0.7-1.5,1.5-1.5h44.6C85,33.3,84.1,32.6,83.3,32z"/>
			</g>
		</g>
		<path class="st1" d="M66.2,110.2c-0.9,0-1.7-0.4-2.3-1.1c-1-1.3-0.8-3.1,0.5-4.1l29.3-23.4c1.3-1,3.1-0.8,4.1,0.5
			c1,1.3,0.8,3.1-0.5,4.1L68,109.5C67.5,109.9,66.9,110.2,66.2,110.2z"/>
		<path class="st1" d="M95.5,110.2c-0.6,0-1.3-0.2-1.8-0.6L64.4,86.1c-1.3-1-1.5-2.9-0.5-4.1c1-1.3,2.9-1.5,4.1-0.5l29.3,23.4
			c1.3,1,1.5,2.9,0.5,4.1C97.2,109.8,96.4,110.2,95.5,110.2z"/>
	</g>
</g>
</svg>
