<?xml version="1.0" encoding="utf-8"?>
<!-- Generator: Adobe Illustrator 21.1.0, SVG Export Plug-In . SVG Version: 6.00 Build 0)  -->
<svg version="1.1" id="Layer_1" xmlns="http://www.w3.org/2000/svg" xmlns:xlink="http://www.w3.org/1999/xlink" x="0px" y="0px"
	 viewBox="0 0 150 150" style="enable-background:new 0 0 150 150;" xml:space="preserve">
<style type="text/css">
	.st0{fill:#476D85;}
	.st1{fill:#FFFFFF;}
</style>
<g>
	<circle class="st0" cx="75" cy="75" r="75"/>
	<g>
		<g>
			<g>
				<path class="st1" d="M113.6,60.8c-2-2.8-4.9-6-8-9.1c-3.1-3.1-6.4-5.9-9.1-8c-4.7-3.5-7-3.9-8.3-3.9H54.5c-4,0-7.3,3.3-7.3,7.3
					v67.4c0,4,3.3,7.3,7.3,7.3h55.7c4,0,7.3-3.3,7.3-7.3V69.1C117.5,67.8,117.1,65.5,113.6,60.8z M94,49.2c2.1,1.6,4.6,3.8,7.5,6.6
					h0c2.8,2.8,5,5.3,6.6,7.5H94V49.2z M111.6,114.6c0,0.8-0.7,1.5-1.5,1.5H54.5c-0.8,0-1.5-0.7-1.5-1.5V47.2c0-0.8,0.7-1.5,1.5-1.5
					c0,0,33.7,0,33.7,0v20.5c0,1.6,1.3,2.9,2.9,2.9h20.5V114.6z"/>
			</g>
			<g>
				<path class="st1" d="M81.9,32L81.9,32c-4.7-3.5-7-3.9-8.3-3.9H39.8c-4,0-7.3,3.3-7.3,7.3v67.4c0,3.5,2.5,6.5,5.9,7.2V35.4
					c0-0.8,0.7-1.5,1.5-1.5h44.6C83.5,33.3,82.7,32.6,81.9,32z"/>
			</g>
			<g>
				<path class="st1" d="M58.9,83.8c0,1.6,1.3,2.9,2.9,2.9h11.7c1.6,0,2.9-1.3,2.9-2.9s-1.3-2.9-2.9-2.9H61.8
					C60.2,80.9,58.9,82.2,58.9,83.8z"/>
			</g>
			<g>
				<path class="st1" d="M73.5,92.6H61.8c-1.6,0-2.9,1.3-2.9,2.9s1.3,2.9,2.9,2.9h11.7c1.6,0,2.9-1.3,2.9-2.9S75.2,92.6,73.5,92.6z"
					/>
			</g>
			<g>
				<path class="st1" d="M73.5,104.3H61.8c-1.6,0-2.9,1.3-2.9,2.9c0,1.6,1.3,2.9,2.9,2.9h11.7c1.6,0,2.9-1.3,2.9-2.9
					C76.5,105.6,75.2,104.3,73.5,104.3z"/>
			</g>
			<g>
				<path class="st1" d="M88.2,83.8c0,1.6,1.3,2.9,2.9,2.9h11.7c1.6,0,2.9-1.3,2.9-2.9s-1.3-2.9-2.9-2.9H91.1
					C89.5,80.9,88.2,82.2,88.2,83.8z"/>
			</g>
			<g>
				<path class="st1" d="M102.8,92.6H91.1c-1.6,0-2.9,1.3-2.9,2.9s1.3,2.9,2.9,2.9h11.7c1.6,0,2.9-1.3,2.9-2.9
					S104.5,92.6,102.8,92.6z"/>
			</g>
			<g>
				<path class="st1" d="M102.8,104.3H91.1c-1.6,0-2.9,1.3-2.9,2.9c0,1.6,1.3,2.9,2.9,2.9h11.7c1.6,0,2.9-1.3,2.9-2.9
					C105.8,105.6,104.5,104.3,102.8,104.3z"/>
			</g>
		</g>
		<path class="st1" d="M82.3,113.1c-1.6,0-2.9-1.3-2.9-2.9V75c0-1.6,1.3-2.9,2.9-2.9c1.6,0,2.9,1.3,2.9,2.9v35.2
			C85.3,111.8,83.9,113.1,82.3,113.1z"/>
	</g>
</g>
</svg>
