<svg xmlns="http://www.w3.org/2000/svg" viewBox="0 0 512 512"><title>ehs-mgmt</title><circle cx="256" cy="256" r="256" style="fill:#2e4856"/><path d="M256,106.25a2.08,2.08,0,0,1,1.92,1.11l73.34,119.95L402.59,344a2.35,2.35,0,0,1,0,2.59,2.05,2.05,0,0,1-2,1.19H111.33a2,2,0,0,1-2-1.19,2.35,2.35,0,0,1,0-2.59l71.33-116.66,73.34-119.95a2.08,2.08,0,0,1,1.92-1.11m0-21a23.06,23.06,0,0,0-19.84,11.16L162.82,216.36,91.49,333c-9.55,15.62,1.62,35.73,19.84,35.73H400.67c18.22,0,29.39-20.11,19.84-35.73L349.18,216.36,275.84,96.41A23.06,23.06,0,0,0,256,85.25Z" style="fill:#fff"/><path d="M245.18,263.73c-7.94-10.88-9.82-28.23,6.88-44.88,13.08-13,35.32-13.33,47.52-12.32A105.51,105.51,0,0,0,283,216.36a112.48,112.48,0,0,0-20.47,19.06A116.17,116.17,0,0,0,245.18,263.73Z" style="fill:#fff"/><path d="M213.77,267.74a75.59,75.59,0,0,1,17.67,12.56c2-8.56-1.24-19.46-15.53-25.19-11.2-4.5-24.68,1-31.77,4.73a69.09,69.09,0,0,1,12.46,1.68A73.44,73.44,0,0,1,213.77,267.74Z" style="fill:#fff"/><path d="M308.5,207.53a32.7,32.7,0,0,0-4.32,6.42h0a64.2,64.2,0,0,0-7,23.48c-1.88,16.82-4.58,23.24-11.27,29.9-10.08,10-23.87,10.38-34.09,3q-1.26,3.13-2.22,6l-.32,1-.28.87-.28.93c-.09.31-.18.61-.27.92l-.21.74c-.1.36-.19.72-.29,1.07l-.19.73q-.37,1.47-.66,2.87-.07.31-.13.63c0,.21-.09.42-.12.63s-.07.37-.1.55-.09.47-.13.7l-.1.62q-.05.3-.1.61c0,.22-.07.44-.1.66a.37.37,0,0,0,0,.08c0,.18-.05.35-.07.53s0,.29-.06.43-.05.41-.07.61-.06.52-.08.78,0,.38-.05.57c0,.47-.08.93-.11,1.38,0,.14,0,.28,0,.42s0,.43,0,.64,0,.48,0,.72,0,.37,0,.55c0,1.46,0,2.84.11,4.16h0a35.69,35.69,0,0,0,1.62,8.48h0c3.44,10.57,10.78,14.2,10.92,14.26l-3.66,7.85a30.06,30.06,0,0,1-10.54-9.48,35.71,35.71,0,0,1-2.93-4.91c-.16-.32-.31-.64-.46-1a44.6,44.6,0,0,1-3.73-19.48c0-.28,0-.57,0-.86h0l-.22-.35-.26-.39-.2-.3-.24-.35-.24-.34q-.53-.77-1.13-1.56l-.3-.39-.44-.57-.31-.39-.4-.49L233,290l-.39-.46-.45-.51q-1.32-1.51-2.87-3.07A16.81,16.81,0,0,1,208,292.9c-5.73-2.3-9-5.48-14.38-15.13a41.85,41.85,0,0,0-10.15-12.37h0a21.38,21.38,0,0,0-4.23-2.76s27.69-2.72,51.39,20.67a20.27,20.27,0,0,0,1-3l1,1a73.09,73.09,0,0,1,5.39,5.89,98.63,98.63,0,0,1,6.39-21.51c.28-.67.56-1.34.85-2a31,31,0,0,0,3.14,3.66C267.89,220.24,308.5,207.53,308.5,207.53Z" style="fill:#fff"/></svg>