<svg xmlns="http://www.w3.org/2000/svg" viewBox="0 0 512 512"><title>emergency-dept-mgmt</title><circle cx="256" cy="256" r="256" style="fill:#419fa4"/><polygon points="277 161.51 235 161.51 235 203.5 193 203.5 193 245.5 235 245.5 235 287.5 277 287.5 277 245.5 319 245.5 319 203.5 277 203.5 277 161.51" style="fill:#fff"/><path d="M413.49,382H403V151a21,21,0,0,0-21-21H319a21,21,0,0,0-21-21H214a21,21,0,0,0-21,21H130a21,21,0,0,0-21,21V382H98.51a10.5,10.5,0,0,0,0,21h315a10.5,10.5,0,0,0,0-21ZM382,256V382H340V340a21,21,0,0,0-21-21H193a21,21,0,0,0-21,21v42H130V151h63l21,0V130h84v21h84Z" style="fill:#fff"/></svg>