<svg xmlns="http://www.w3.org/2000/svg" viewBox="0 0 512 512"><title>enterprise-risk-mgmt</title><circle cx="256" cy="256" r="256" style="fill:#0b5d7f"/><path d="M397.31,396h-11.2V184.76a20.19,20.19,0,0,0-9-16.8l-70.65-26.74V100.86a5,5,0,0,0-7-4.64L137,148.52a20.19,20.19,0,0,0-12.23,18.55V396H114.69a10.09,10.09,0,0,0,0,20.19H397.31a10.09,10.09,0,0,0,0-20.19Zm-111-262.42h0V396H145V174.52a10.09,10.09,0,0,1,7-9.61l134.31-43.25ZM365.92,396H306.47V162.8l52.93,20a10.09,10.09,0,0,1,6.52,9.44Z" style="fill:#fff"/><rect x="326.65" y="214.33" width="20.19" height="20.19" style="fill:#fff"/><rect x="326.65" y="254.7" width="20.19" height="20.19" style="fill:#fff"/><rect x="326.65" y="295.07" width="20.19" height="20.19" style="fill:#fff"/><rect x="326.65" y="335.45" width="20.19" height="20.19" style="fill:#fff"/><rect x="225.72" y="214.33" width="20.19" height="20.19" style="fill:#fff"/><rect x="225.72" y="254.7" width="20.19" height="20.19" style="fill:#fff"/><rect x="225.72" y="295.07" width="20.19" height="20.19" style="fill:#fff"/><rect x="225.72" y="335.45" width="20.19" height="20.19" style="fill:#fff"/><rect x="185.35" y="214.33" width="20.19" height="20.19" style="fill:#fff"/><rect x="185.35" y="254.7" width="20.19" height="20.19" style="fill:#fff"/><rect x="185.35" y="295.07" width="20.19" height="20.19" style="fill:#fff"/><rect x="185.35" y="335.45" width="20.19" height="20.19" style="fill:#fff"/></svg>