<svg xmlns="http://www.w3.org/2000/svg" viewBox="0 0 512 512"><title>incident-mgmt</title><circle cx="256" cy="256" r="256" style="fill:#7b5a9c"/><path d="M422.09,239.7,272.1,89.84a22.79,22.79,0,0,0-32.21,0L89.91,239.7a22.74,22.74,0,0,0,0,32.18l150,149.86a22.79,22.79,0,0,0,32.21,0l150-149.86A22.74,22.74,0,0,0,422.09,239.7ZM256,405.65h0L106,255.79,256,105.94,406,255.79Z" style="fill:#fff"/><path d="M233.23,187.53v68.27a22.77,22.77,0,0,0,45.55,0V187.53a22.77,22.77,0,0,0-45.55,0Z" style="fill:#fff"/><path d="M256,301.3a22.76,22.76,0,0,0-22.77,22.76h0a22.77,22.77,0,0,0,45.55,0h0A22.76,22.76,0,0,0,256,301.3Z" style="fill:#fff"/></svg>