<svg xmlns="http://www.w3.org/2000/svg" viewBox="0 0 512 512"><title>iso-standards</title><circle cx="256" cy="256" r="256" style="fill:#6cc4ef"/><path d="M374.15,137.85a9.85,9.85,0,0,0-9.85,9.85V384a9.85,9.85,0,0,1-9.85,9.85H167.38a19.69,19.69,0,0,1-19.69-19.69V354.46a19.69,19.69,0,0,1,19.69-19.69H324.92a19.69,19.69,0,0,0,19.69-19.69V118.15a19.69,19.69,0,0,0-19.69-19.69H147.69A19.69,19.69,0,0,0,128,118.15V384a29.54,29.54,0,0,0,29.54,29.54H364.31A19.69,19.69,0,0,0,384,393.85V147.69A9.85,9.85,0,0,0,374.15,137.85ZM147.69,118.15H324.92V315.08H147.69Z" style="fill:#fff"/><rect x="167.38" y="354.46" width="177.23" height="19.69" rx="9.85" ry="9.85" style="fill:#fff"/></svg>