<svg xmlns="http://www.w3.org/2000/svg" viewBox="0 0 512 512"><title>operational-audit</title><circle cx="256" cy="256" r="256" style="fill:#13609a"/><path d="M417.21,285l-23.39-9.22a138.34,138.34,0,0,0-.78-44.32l23.07-10a10.71,10.71,0,0,0,5.55-14.09L404.58,168a10.7,10.7,0,0,0-14.09-5.55l-23.07,10a138.34,138.34,0,0,0-31.88-30.8l9.22-23.39a10.71,10.71,0,0,0-6-13.89l-39.85-15.7a10.7,10.7,0,0,0-13.89,6l-9.21,23.39a138.32,138.32,0,0,0-44.32.78l-10-23.07a10.7,10.7,0,0,0-14.09-5.55L168,107.42a10.71,10.71,0,0,0-5.55,14.09l10,23.07a138.34,138.34,0,0,0-30.8,31.88l-23.39-9.21a10.7,10.7,0,0,0-13.89,6l-15.7,39.85a10.71,10.71,0,0,0,6,13.89l23.39,9.21a138.34,138.34,0,0,0,.78,44.32l-23.07,10a10.71,10.71,0,0,0-5.55,14.09L107.42,344a10.7,10.7,0,0,0,14.09,5.55l23.07-10a138.34,138.34,0,0,0,31.88,30.8l-9.22,23.39a10.71,10.71,0,0,0,6,13.89l39.85,15.7a10.7,10.7,0,0,0,13.89-6l9.22-23.39a138.31,138.31,0,0,0,44.32-.78l10,23.07a10.7,10.7,0,0,0,14.09,5.55L344,404.58a10.71,10.71,0,0,0,5.55-14.09l-10-23.07a138.34,138.34,0,0,0,30.8-31.88l23.39,9.22a10.7,10.7,0,0,0,13.89-6l15.7-39.85A10.71,10.71,0,0,0,417.21,285ZM391.55,320.9l-13.43-5.29-15.77-6.21-9.67,13.92a116.76,116.76,0,0,1-26,26.95l-13.57,10.15L319.83,376l5.76,13.25L306,397.75,300.2,384.5,293.44,369l-16.68,3a116.89,116.89,0,0,1-37.46.66l-16.77-2.42L216.31,386,211,399.4l-19.93-7.85,5.29-13.43,6.21-15.77-13.92-9.67a116.75,116.75,0,0,1-26.95-26l-10.15-13.57L136,319.83l-13.25,5.76L114.25,306l13.25-5.76L143,293.44l-3-16.68a116.75,116.75,0,0,1-.66-37.46l2.42-16.77L126,216.31,112.6,211l7.85-19.93,13.43,5.29,15.77,6.21,9.67-13.92a116.76,116.76,0,0,1,26-26.95l13.57-10.15L192.17,136l-5.76-13.25L206,114.25l5.76,13.25L218.56,143l16.68-3a116.9,116.9,0,0,1,37.46-.66l16.77,2.42L295.69,126,301,112.6l19.93,7.85-5.29,13.43-6.21,15.77,13.92,9.67a116.76,116.76,0,0,1,26.95,26l10.15,13.57L376,192.17l13.25-5.76L397.75,206,384.5,211.8,369,218.56l3,16.68a116.75,116.75,0,0,1,.66,37.46l-2.42,16.77L386,295.69,399.4,301Z" style="fill:#fff"/><path d="M308.61,214.46a7,7,0,0,0-9.72,0l-62.93,61L211.77,252a7,7,0,0,0-9.72,0l-9.62,9.34a6.54,6.54,0,0,0,0,9.45l38.67,37.48a7,7,0,0,0,9.71,0l77.41-75a6.54,6.54,0,0,0,0-9.45Z" style="fill:#fff"/></svg>