<svg xmlns="http://www.w3.org/2000/svg" viewBox="0 0 512 512"><title>order-mgmt</title><circle cx="256" cy="256" r="256" style="fill:#486f85"/><path d="M358.13,92.59H153.87A20.43,20.43,0,0,0,133.45,113V399a20.43,20.43,0,0,0,20.43,20.43H358.13A20.43,20.43,0,0,0,378.55,399V113A20.43,20.43,0,0,0,358.13,92.59Zm0,40.85V399H153.87V113h40.85v10.21a10.21,10.21,0,0,0,10.21,10.21h10.21v10.21a10.21,10.21,0,0,0,10.21,10.21h61.28a10.21,10.21,0,0,0,10.21-10.21V133.45h10.21a10.21,10.21,0,0,0,10.21-10.21V113h40.85Z" style="fill:#fff"/><path d="M184.51,215.15a10.21,10.21,0,0,0-10.21,10.21h0a10.21,10.21,0,1,0,20.43,0h0A10.21,10.21,0,0,0,184.51,215.15Z" style="fill:#fff"/><path d="M184.51,256a10.21,10.21,0,0,0-10.21,10.21h0a10.21,10.21,0,0,0,20.43,0h0A10.21,10.21,0,0,0,184.51,256Z" style="fill:#fff"/><path d="M184.51,296.85a10.21,10.21,0,0,0-10.21,10.21h0a10.21,10.21,0,1,0,20.43,0h0A10.21,10.21,0,0,0,184.51,296.85Z" style="fill:#fff"/><path d="M184.51,337.7a10.21,10.21,0,0,0-10.21,10.21h0a10.21,10.21,0,1,0,20.43,0h0A10.21,10.21,0,0,0,184.51,337.7Z" style="fill:#fff"/><rect x="215.15" y="215.15" width="122.55" height="20.43" rx="10.21" ry="10.21" style="fill:#fff"/><path d="M184.51,174.3a10.21,10.21,0,0,0-10.21,10.21h0a10.21,10.21,0,1,0,20.43,0h0A10.21,10.21,0,0,0,184.51,174.3Z" style="fill:#fff"/><rect x="215.15" y="174.3" width="122.55" height="20.43" rx="10.21" ry="10.21" style="fill:#fff"/><rect x="215.15" y="296.85" width="122.55" height="20.43" rx="10.21" ry="10.21" style="fill:#fff"/><path d="M327.49,337.88H225.36a10.21,10.21,0,1,0,0,20.43H327.49a10.21,10.21,0,0,0,0-20.43Z" style="fill:#fff"/><rect x="215.15" y="256" width="122.55" height="20.43" rx="10.21" ry="10.21" style="fill:#fff"/></svg>