<svg xmlns="http://www.w3.org/2000/svg" viewBox="0 0 512 512"><title>performance-mgmt</title><circle cx="256" cy="256" r="256" style="fill:#0c5e63"/><path d="M256,141.25c-105.35,0-190.75,84.81-190.75,189.43q0,7.1.52,14.07c6.66-83.6,77.08-149.38,163-149.38a163.68,163.68,0,0,1,76.95,19.07l54.69-32.6,1.43,1-13,64.74A161.41,161.41,0,0,1,390,330.68c0,18,56.76,18,56.76,0C446.75,226.06,361.35,141.25,256,141.25Z" style="fill:#fff"/><path d="M350.78,195l-120.65,105h0a40.18,40.18,0,1,0,63.64,44.82h0l58.19-149ZM282.68,340.42l0,.06,0,.06a28.18,28.18,0,0,1-3.33,6.25,28.6,28.6,0,0,1-39.63,6.93,28,28,0,0,1-7-39.14,28.32,28.32,0,0,1,5.06-5.47l12-10-.3-.21,74.83-65.11Z" style="fill:#fff"/></svg>