<svg xmlns="http://www.w3.org/2000/svg" viewBox="0 0 512 512"><title>safety-mgmt</title><circle cx="256" cy="256" r="256" style="fill:#f15e6b"/><path d="M356.17,107.25a20.18,20.18,0,0,0-4.9.61l-48.1,12a20.07,20.07,0,0,1-13.7-1.46l-25.11-12.36A20.1,20.1,0,0,0,256,104h-.49a20,20,0,0,0-9.06,2.17l-23.82,12.1a20,20,0,0,1-13.93,1.57l-48-12a20,20,0,0,0-24.88,19.42V312.53a20,20,0,0,0,7.2,15.39l100.13,83.44a20,20,0,0,0,25.64,0l100.13-83.44a20,20,0,0,0,7.2-15.39V127.28A20,20,0,0,0,356.17,107.25ZM256,396h0L155.87,312.53v-50.7H256V124.26l24.63,12.12a40.1,40.1,0,0,0,27.4,2.92l48.1-12V261.84H256V396Z" style="fill:#fff"/></svg>