<svg xmlns="http://www.w3.org/2000/svg" viewBox="0 0 512 512"><title>supplier-mgmt</title><circle cx="256" cy="256" r="256" style="fill:#3e79bd"/><path d="M196.43,291.35a58.42,58.42,0,0,1,9.67-1.51l-37-152.5a29.26,29.26,0,0,0-35.34-21.54l-9.48,2.3a9.76,9.76,0,0,0,4.6,19l9.48-2.3a9.75,9.75,0,0,1,11.78,7.18l37,152.5A58.43,58.43,0,0,1,196.43,291.35Z" style="fill:#fff"/><path d="M321.68,311.11l-57.66,14a58.68,58.68,0,0,1,4.6,19l57.66-14a9.76,9.76,0,0,0-4.6-19Z" style="fill:#fff"/><path d="M372.18,188.39,201.57,229.85,216.18,290a58.4,58.4,0,0,1,21.69,6.67l-12.74-52.46L357.83,212l13.81,56.89L243.38,300a58.43,58.43,0,0,1,15.88,16.22l135.94-33Z" style="fill:#fff"/><path d="M332,188.12l-13.81-56.89L185.46,163.48l13.81,56.89ZM303.8,154.8l4.6,19-94.78,23-4.6-19Z" style="fill:#fff"/><path d="M210.29,299.44a48.8,48.8,0,1,0,47.35,37.28A48.87,48.87,0,0,0,210.29,299.44Zm6.86,77.22a29.09,29.09,0,0,1-24.84-5.33,28.92,28.92,0,0,1-10.46-16.19,29.23,29.23,0,0,1,46.35-30,28.93,28.93,0,0,1,10.46,16.19A29.28,29.28,0,0,1,217.14,376.66Z" style="fill:#fff"/></svg>