<svg xmlns="http://www.w3.org/2000/svg" viewBox="0 0 512 512"><title>training-and-competence-mgmt</title><circle cx="256" cy="256" r="256" style="fill:#d97329"/><path d="M398.8,107.94H113.2a9.52,9.52,0,0,0-9.52,9.52V298.34a9.52,9.52,0,0,0,9.52,9.52h65.52L137.5,390.28a9.52,9.52,0,1,0,17,8.51L200,307.86h46.48V365a9.51,9.51,0,0,0,9.6,9.52,9.68,9.68,0,0,0,9.44-9.76V307.86H312l45.47,90.94a9.52,9.52,0,1,0,17-8.51l-41.22-82.43H398.8a9.52,9.52,0,0,0,9.52-9.52V117.46A9.52,9.52,0,0,0,398.8,107.94Zm-9.52,180.88H122.72V127H389.28Z" style="fill:#fff"/><rect x="179.84" y="222.18" width="38.08" height="38.08" style="fill:#fff"/><rect x="236.96" y="184.1" width="38.08" height="76.16" style="fill:#fff"/><rect x="294.08" y="165.06" width="38.08" height="95.2" style="fill:#fff"/></svg>