<svg xmlns="http://www.w3.org/2000/svg" viewBox="0 0 100 100"><defs><style>.cls-1{fill:#0a3254;}.cls-2{fill:#fff;}.cls-3{fill:#e65133;}</style></defs><title>improve-resilience</title><g id="Layer_2" data-name="Layer 2"><g id="Layer_1-2" data-name="Layer 1"><circle class="cls-1" cx="50" cy="50" r="50"/><circle class="cls-2" cx="83.75" cy="87.5" r="10"/><circle class="cls-3" cx="83.75" cy="87.5" r="7.5"/><path class="cls-2" d="M88.39,86a.44.44,0,0,1-.14.27l-2,2L86.7,91a.34.34,0,0,1,0,.11.32.32,0,0,1-.06.2.19.19,0,0,1-.17.08.46.46,0,0,1-.22-.06l-2.51-1.32-2.51,1.32a.49.49,0,0,1-.22.06.17.17,0,0,1-.17-.08.32.32,0,0,1-.06-.2.54.54,0,0,1,0-.11l.48-2.79-2-2a.39.39,0,0,1-.14-.27c0-.14.1-.23.31-.26l2.8-.41,1.26-2.53c.07-.16.16-.23.27-.23s.2.07.27.23l1.26,2.53,2.8.41C88.29,85.78,88.39,85.87,88.39,86Z"/><path class="cls-2" d="M41.6,38.67V35.76a8,8,0,1,1,16,0v2.9c.93.39,1.94.76,3,1.09v-4a11,11,0,1,0-22,0v4C39.66,39.43,40.67,39.06,41.6,38.67Z"/><path class="cls-2" d="M66.13,42.76a36,36,0,0,1-16.51-6.52,35.9,35.9,0,0,1-16.5,6.52s-4.13,18.61,16.5,30C70.25,61.37,66.13,42.76,66.13,42.76Zm-16.47-.87L39.84,56.73a22.62,22.62,0,0,1-.94-2.12l7.17-10.83c1.38-.66,2.58-1.33,3.55-1.91Zm-6.12,3-5.23,7.91a22.31,22.31,0,0,1-.85-6A39.17,39.17,0,0,0,43.54,44.88Zm6.08,22.39a27.38,27.38,0,0,1-9-9L51,42.63a41.35,41.35,0,0,0,10.83,4.15C61.77,51.4,60.23,60.42,49.62,67.27Z"/></g></g></svg>