<svg xmlns="http://www.w3.org/2000/svg" viewBox="0 0 100 100"><defs><style>.cls-1{fill:#0a3254;}.cls-2{fill:#fff;}.cls-3{fill:#e65133;}</style></defs><title>minimise-risk</title><g id="Layer_2" data-name="Layer 2"><g id="Layer_1-2" data-name="Layer 1"><circle class="cls-1" cx="50" cy="50" r="50"/><circle class="cls-2" cx="84.12" cy="87.5" r="10"/><circle class="cls-3" cx="84.12" cy="87.5" r="7.5"/><path class="cls-2" d="M88.76,86a.44.44,0,0,1-.14.27l-2,2L87.07,91s0,.06,0,.11a.32.32,0,0,1-.06.2.19.19,0,0,1-.17.08.53.53,0,0,1-.23-.06l-2.5-1.32-2.51,1.32a.49.49,0,0,1-.22.06.19.19,0,0,1-.18-.08.39.39,0,0,1,0-.2.54.54,0,0,1,0-.11l.48-2.79-2-2a.39.39,0,0,1-.14-.27c0-.14.1-.23.31-.26l2.8-.41,1.26-2.53c.07-.16.16-.23.27-.23s.2.07.27.23l1.26,2.53,2.8.41C88.66,85.78,88.76,85.87,88.76,86Z"/><polygon class="cls-2" points="32.51 69.02 32.51 35.52 37.55 39.59 37.55 69.02 42.5 69.02 42.5 43.57 44.95 45.55 47.54 44.51 47.54 69.02 52.48 69.02 52.48 42.51 55.11 41.45 57.52 43.13 57.52 69.02 62.47 69.02 62.47 46.58 67.51 50.1 67.51 69.02 72.57 69.02 72.57 71.4 27.72 71.4 27.72 69.02 32.51 69.02"/><path class="cls-2" d="M75.53,52.28l-5.43.09a.19.19,0,0,1-.15-.31l1.53-1.88a.18.18,0,0,0,0-.27L55.8,38.08a.91.91,0,0,0-.91-.14l-9,3.65a.94.94,0,0,1-.86-.1L28.66,30.05a1,1,0,0,1-.39-.72.91.91,0,0,1,1.43-.77L45.23,39.39a.91.91,0,0,0,.86.1l9.11-3.67a.88.88,0,0,1,.91.13L72.63,48.47a.18.18,0,0,0,.27,0l1.47-1.8a.19.19,0,0,1,.34.08l1,5.33A.18.18,0,0,1,75.53,52.28Z"/></g></g></svg>