<svg xmlns="http://www.w3.org/2000/svg" viewBox="0 0 100 100"><defs><style>.cls-1{fill:#0a3254;}.cls-2{fill:#fff;}.cls-3{fill:#e65133;}</style></defs><title>resource-planning</title><g id="Layer_2" data-name="Layer 2"><g id="Layer_1-2" data-name="Layer 1"><circle class="cls-1" cx="50" cy="50" r="50"/><circle class="cls-2" cx="84.12" cy="87.5" r="10"/><circle class="cls-3" cx="84.12" cy="87.5" r="7.5"/><path class="cls-2" d="M88.76,86a.44.44,0,0,1-.14.27l-2,2L87.07,91s0,.06,0,.11a.32.32,0,0,1-.06.2.19.19,0,0,1-.17.08.53.53,0,0,1-.23-.06l-2.5-1.32-2.51,1.32a.49.49,0,0,1-.22.06.19.19,0,0,1-.18-.08.39.39,0,0,1,0-.2.54.54,0,0,1,0-.11l.48-2.79-2-2a.39.39,0,0,1-.14-.27c0-.14.1-.23.31-.26l2.8-.41,1.26-2.53c.07-.16.16-.23.27-.23s.2.07.27.23l1.26,2.53,2.8.41C88.66,85.78,88.76,85.87,88.76,86Z"/><path class="cls-2" d="M50.56,47.65l3.59-2.52,3.59,2.52V25H50.56ZM65.78,58V54.85H64.32V58H61.15v1.46h3.17v3.17h1.46V59.48H69V58Z"/><path class="cls-2" d="M73.12,58.75a8.09,8.09,0,0,0-6.9-8v-24h-6v2.43h3.61V50.79a8.06,8.06,0,0,0,0,15.92v3.85H36.25V29.23H48.11V26.8H28.29V73H66.22V66.72A8.07,8.07,0,0,0,73.12,58.75Zm-8.07,5.63a5.63,5.63,0,1,1,5.63-5.63A5.63,5.63,0,0,1,65.05,64.38Z"/></g></g></svg>