<svg xmlns="http://www.w3.org/2000/svg" viewBox="0 0 100 100"><defs><style>.cls-1{fill:#0a3254;}.cls-2{fill:#fff;}.cls-3{fill:#f05133;}</style></defs><title>analyse-report-icon</title><g id="Layer_2" data-name="Layer 2"><g id="Layer_1-2" data-name="Layer 1"><circle class="cls-1" cx="50" cy="50" r="50"/><circle class="cls-2" cx="84.88" cy="87.5" r="10"/><circle class="cls-3" cx="84.88" cy="87.5" r="7.5"/><path class="cls-2" d="M89.53,86a.41.41,0,0,1-.15.27l-2,2L87.83,91a.34.34,0,0,1,0,.11.32.32,0,0,1-.06.2.18.18,0,0,1-.17.08.49.49,0,0,1-.22-.06l-2.51-1.32-2.5,1.32a.56.56,0,0,1-.23.06.19.19,0,0,1-.17-.08.32.32,0,0,1-.06-.2.54.54,0,0,1,0-.11l.48-2.79-2-2a.44.44,0,0,1-.14-.27c0-.14.1-.23.31-.26l2.8-.41,1.26-2.53c.07-.16.16-.23.27-.23s.21.07.28.23l1.25,2.53,2.8.41C89.42,85.78,89.53,85.87,89.53,86Z"/><path class="cls-2" d="M43.82,63.37v-5a1.07,1.07,0,0,0-1.06-1.06H35.92a1.06,1.06,0,0,0-1.06,1.06v5Z"/><path class="cls-2" d="M58.06,63.37V53.08A1.06,1.06,0,0,0,57,52H50.16a1.05,1.05,0,0,0-1.06,1.06V63.37Z"/><path class="cls-2" d="M72.3,63.37V47.79a1.07,1.07,0,0,0-1.06-1.06H64.4a1.06,1.06,0,0,0-1.06,1.06V63.37Z"/><path class="cls-2" d="M52.44,36.83,40.91,25.3a2.22,2.22,0,0,0-3.14,0L26.23,36.83a2.23,2.23,0,0,0,0,3.15L37.77,51.51a2.22,2.22,0,0,0,3.14,0L52.44,40A2.23,2.23,0,0,0,52.44,36.83ZM39.34,49.35,28.4,38.41,39.34,27.47,50.28,38.41Z"/><circle class="cls-2" cx="39.34" cy="44.03" r="1.6"/><path class="cls-2" d="M39.34,31.19A1.32,1.32,0,0,0,38,32.52V39a1.33,1.33,0,0,0,2.66,0V32.52A1.33,1.33,0,0,0,39.34,31.19Z"/><path class="cls-2" d="M29.58,68.65V50.05l-4-4V71.59a1.06,1.06,0,0,0,1.06,1.06H72.52a1.06,1.06,0,0,0,1.06-1.06V69.71a1.06,1.06,0,0,0-1.06-1.06Z"/></g></g></svg>