<svg xmlns="http://www.w3.org/2000/svg" viewBox="0 0 100 100"><defs><style>.cls-1{fill:#0a3254;}.cls-2{fill:#fff;}.cls-3{fill:#f05133;}</style></defs><title>improve-awareness-icon</title><g id="Layer_2" data-name="Layer 2"><g id="Layer_1-2" data-name="Layer 1"><circle class="cls-1" cx="50" cy="50" r="50"/><path class="cls-2" d="M67.08,34.38a.16.16,0,0,0-.06-.13.12.12,0,0,0-.13,0l-3.69.67a.13.13,0,0,0-.1.11.16.16,0,0,0,0,.14l.82.67.71.59-5.84,6.35a1.67,1.67,0,0,0-.83-.23,1.69,1.69,0,0,0-1.45.85l-8.38-2.83a.69.69,0,0,0,0-.13A1.68,1.68,0,1,0,45,41l-7.36,5a1.64,1.64,0,0,0-1.17-.48,1.68,1.68,0,1,0,1.68,1.68,1.42,1.42,0,0,0,0-.36l7.47-5a1.7,1.7,0,0,0,1,.33,1.68,1.68,0,0,0,1.32-.66l8.5,2.88a1.68,1.68,0,0,0,3.35-.11,1.61,1.61,0,0,0-.19-.75L65.43,37l.63.51.82.68a.16.16,0,0,0,.15,0,.14.14,0,0,0,.09-.12Z"/><path class="cls-2" d="M55.7,63.65a1,1,0,1,0,0-1.92H45.62a1,1,0,0,0,0,1.92ZM72.31,26.4H29.24A2.22,2.22,0,0,0,27,28.61V61.68a2.22,2.22,0,0,0,2.22,2.21H33a1.2,1.2,0,1,0,0-2.4H29.42V28.8H72.13V61.49H68.29a1.2,1.2,0,1,0,0,2.4h4a2.21,2.21,0,0,0,2.21-2.21V28.61A2.21,2.21,0,0,0,72.31,26.4Zm-27.09,39-3-.87-.45-.7a11.75,11.75,0,0,0,1.37-2.39c1.32-1.45,1-2.54.75-3.09.76-3.86-1.5-6-4.44-6-5.06,0-4.4,5.8-4.35,6.23-.25.6-.34,1.65.93,3a11.49,11.49,0,0,0,1.31,2.28h0l-.46.71-3,.87c-.34.11-4.13,1.45-4.13,6.73a.45.45,0,0,0,.43.46h2.79v.63a.45.45,0,0,0,.43.46H45.7a.45.45,0,0,0,.42-.46v-.63h2.8a.45.45,0,0,0,.42-.46C49.34,66.93,45.55,65.48,45.22,65.37Zm22.56,0-3-.87-.45-.7a11.72,11.72,0,0,0,1.36-2.39C67,60,66.7,58.87,66.4,58.32c.76-3.86-1.5-6-4.44-6-5.07,0-4.4,5.8-4.35,6.23-.25.6-.34,1.65.93,3a12,12,0,0,0,1.3,2.28h0l-.46.71-3,.87c-.34.11-4.13,1.45-4.13,6.73a.45.45,0,0,0,.43.46h2.79v.63a.45.45,0,0,0,.43.46H68.26a.45.45,0,0,0,.42-.46v-.63h2.8a.45.45,0,0,0,.42-.46C71.9,66.93,68.11,65.48,67.78,65.37Z"/><circle class="cls-2" cx="83.75" cy="87.5" r="10"/><circle class="cls-3" cx="83.75" cy="87.5" r="7.5"/><path class="cls-2" d="M88.39,86a.44.44,0,0,1-.14.27l-2,2L86.7,91a.34.34,0,0,1,0,.11.32.32,0,0,1-.06.2.19.19,0,0,1-.17.08.46.46,0,0,1-.22-.06l-2.51-1.32-2.51,1.32a.49.49,0,0,1-.22.06.17.17,0,0,1-.17-.08.32.32,0,0,1-.06-.2.54.54,0,0,1,0-.11l.48-2.79-2-2a.39.39,0,0,1-.14-.27c0-.14.1-.23.31-.26l2.8-.41,1.26-2.53c.07-.16.16-.23.27-.23s.2.07.27.23l1.26,2.53,2.8.41C88.29,85.78,88.39,85.87,88.39,86Z"/></g></g></svg>