<svg xmlns="http://www.w3.org/2000/svg" viewBox="0 0 100 100"><defs><style>.cls-1{fill:#0a3254;}.cls-2{fill:#fff;}.cls-3{fill:#e65133;}</style></defs><title>audit-ready</title><g id="Layer_2" data-name="Layer 2"><g id="Layer_1-2" data-name="Layer 1"><circle class="cls-1" cx="50" cy="50" r="50"/><path class="cls-2" d="M67.5,34.46a.17.17,0,0,0,0-.12.14.14,0,0,0-.14,0L63.58,35a.13.13,0,0,0-.1.11.16.16,0,0,0,.05.14l.83.68.72.59-5.9,6.42a1.73,1.73,0,0,0-.84-.23,1.69,1.69,0,0,0-1.47.86L48.4,40.7a.68.68,0,0,0,0-.14,1.7,1.7,0,0,0-3.4,0,1.73,1.73,0,0,0,.12.6l-7.44,5a1.7,1.7,0,1,0,.52,1.22,2.21,2.21,0,0,0,0-.37l7.55-5.09a1.64,1.64,0,0,0,1,.33,1.68,1.68,0,0,0,1.33-.66l8.6,2.91A1.69,1.69,0,0,0,60,44.4a1.61,1.61,0,0,0-.19-.76l6-6.51.64.52.83.68a.12.12,0,0,0,.15,0,.13.13,0,0,0,.09-.12Z"/><path class="cls-2" d="M56,64a1,1,0,0,0,0-1.94H45.82a1,1,0,0,0,0,1.94ZM72.79,26.4H29.26A2.24,2.24,0,0,0,27,28.63V62.05a2.24,2.24,0,0,0,2.24,2.23h3.83a1.21,1.21,0,0,0,0-2.42H29.45v-33H72.6v33H68.73a1.21,1.21,0,0,0,0,2.42h4.06A2.23,2.23,0,0,0,75,62.05V28.63A2.23,2.23,0,0,0,72.79,26.4ZM45.41,65.78l-3.08-.88-.46-.7a11.82,11.82,0,0,0,1.38-2.42c1.35-1.46,1.07-2.57.77-3.12.77-3.9-1.52-6.11-4.49-6.11-5.12,0-4.45,5.86-4.39,6.3-.26.61-.35,1.66.93,3a12.21,12.21,0,0,0,1.32,2.3h0l-.47.72-3.07.88c-.34.11-4.17,1.46-4.17,6.8a.45.45,0,0,0,.43.47h2.82v.63a.46.46,0,0,0,.44.47H45.89a.45.45,0,0,0,.43-.47v-.63h2.83a.45.45,0,0,0,.43-.47C49.58,67.35,45.75,65.89,45.41,65.78Zm22.8,0-3.08-.88-.46-.7a12.31,12.31,0,0,0,1.38-2.42c1.34-1.46,1.07-2.57.76-3.12.77-3.9-1.51-6.11-4.49-6.11-5.11,0-4.44,5.86-4.39,6.3-.25.61-.35,1.66.94,3a12.21,12.21,0,0,0,1.32,2.3h0l-.47.72-3.07.88c-.34.11-4.17,1.46-4.17,6.8a.45.45,0,0,0,.43.47h2.82v.63a.45.45,0,0,0,.43.47H68.69a.45.45,0,0,0,.43-.47v-.63h2.82a.45.45,0,0,0,.43-.47C72.37,67.35,68.54,65.89,68.21,65.78Z"/><circle class="cls-2" cx="83.75" cy="87.5" r="10"/><circle class="cls-3" cx="83.75" cy="87.5" r="7.5"/><path class="cls-2" d="M88.39,86a.44.44,0,0,1-.14.27l-2,2L86.7,91a.34.34,0,0,1,0,.11.32.32,0,0,1-.06.2.19.19,0,0,1-.17.08.46.46,0,0,1-.22-.06l-2.51-1.32-2.51,1.32a.49.49,0,0,1-.22.06.17.17,0,0,1-.17-.08.32.32,0,0,1-.06-.2.54.54,0,0,1,0-.11l.48-2.79-2-2a.39.39,0,0,1-.14-.27c0-.14.1-.23.31-.26l2.8-.41,1.26-2.53c.07-.16.16-.23.27-.23s.2.07.27.23l1.26,2.53,2.8.41C88.29,85.78,88.39,85.87,88.39,86Z"/></g></g></svg>