<svg xmlns="http://www.w3.org/2000/svg" viewBox="0 0 100 100"><defs><style>.cls-1{fill:#0a3254;}.cls-2{fill:#fff;}.cls-3{fill:#e65133;}</style></defs><title>controlled-document-changes</title><g id="Layer_2" data-name="Layer 2"><g id="Layer_1-2" data-name="Layer 1"><circle class="cls-1" cx="50" cy="50" r="50"/><circle class="cls-2" cx="83.75" cy="87.5" r="10"/><circle class="cls-3" cx="83.75" cy="87.5" r="7.5"/><path class="cls-2" d="M88.39,86a.44.44,0,0,1-.14.27l-2,2L86.7,91a.34.34,0,0,1,0,.11.32.32,0,0,1-.06.2.19.19,0,0,1-.17.08.46.46,0,0,1-.22-.06l-2.51-1.32-2.51,1.32a.49.49,0,0,1-.22.06.17.17,0,0,1-.17-.08.32.32,0,0,1-.06-.2.54.54,0,0,1,0-.11l.48-2.79-2-2a.39.39,0,0,1-.14-.27c0-.14.1-.23.31-.26l2.8-.41,1.26-2.53c.07-.16.16-.23.27-.23s.2.07.27.23l1.26,2.53,2.8.41C88.29,85.78,88.39,85.87,88.39,86Z"/><path class="cls-2" d="M70.19,34.89l-8.6-8.61a1,1,0,0,0-.71-.29h-21a1,1,0,0,0-1,1v6.5h-6.5a1,1,0,0,0-1,1V63.36l.46-.06,1.24-2.37.3-.58V35.49H51.57V43a1.85,1.85,0,0,0,.28,1,1.91,1.91,0,0,0,1.65.94H61V70.77h-19l-.14.13L42,72.32l.07.45H62a1,1,0,0,0,1-1v-6.5h6.5a1,1,0,0,0,1-1V35.6A1,1,0,0,0,70.19,34.89Zm-9.11-6.28,6.79,6.79H61.08Zm-7.5,14.3V36.1l6.66,6.68.13.13ZM68.47,63.26H63V43.1a.87.87,0,0,0-.06-.32,1,1,0,0,0-.23-.39l-8.6-8.61a1,1,0,0,0-.7-.29H40.85V28H59.08v7.49A1.92,1.92,0,0,0,61,37.4h7.47Z"/><polygon class="cls-2" points="39.04 72.77 39.22 73.99 37.03 72.77 35.5 71.93 33.8 72.77 31.69 73.82 31.91 72.67 32.5 69.65 31.35 68.48 29.52 66.61 31.35 66.38 33.35 66.14 33.75 66.09 35.71 62.32 37.51 66.17 41.71 66.87 38.59 69.78 38.74 70.77 39.04 72.77"/><path class="cls-2" d="M45.67,64.87a.64.64,0,0,0,.5.25h1Z"/><path class="cls-2" d="M56.7,50H37.64a.6.6,0,0,0-.61.6.6.6,0,0,0,.61.6H56.7a.6.6,0,0,0,.6-.6A.61.61,0,0,0,56.7,50Zm0,7H37.64a.61.61,0,1,0,0,1.21H56.7a.61.61,0,0,0,0-1.21Zm0,7H46.17a.61.61,0,0,0-.6.61.57.57,0,0,0,.1.34h0a.64.64,0,0,0,.5.25H56.7a.61.61,0,0,0,.6-.6A.62.62,0,0,0,56.7,63.91ZM45.19,43H37.64a.6.6,0,1,0,0,1.19h7.55a.6.6,0,1,0,0-1.19Z"/><path class="cls-2" d="M63.89,56.72H63v1.21h.91a.61.61,0,0,0,.6-.61A.6.6,0,0,0,63.89,56.72Zm0-7H63V51h.91a.6.6,0,0,0,.6-.6A.61.61,0,0,0,63.89,49.74Zm0-7h-1a.87.87,0,0,1,.06.32V44h.91a.6.6,0,1,0,0-1.19Z"/></g></g></svg>