<svg xmlns="http://www.w3.org/2000/svg" viewBox="0 0 100 100"><defs><style>.cls-1{fill:#0a3254;}.cls-2{fill:#fff;}.cls-3{fill:#e65133;}</style></defs><title>controlled-documents</title><g id="Layer_2" data-name="Layer 2"><g id="Layer_1-2" data-name="Layer 1"><circle class="cls-1" cx="50" cy="50" r="50"/><circle class="cls-2" cx="82.36" cy="87.5" r="10"/><circle class="cls-3" cx="82.36" cy="87.5" r="7.5"/><path class="cls-2" d="M87,86a.44.44,0,0,1-.14.27l-2,2L85.31,91s0,.06,0,.11a.32.32,0,0,1-.06.2.19.19,0,0,1-.17.08.53.53,0,0,1-.23-.06l-2.5-1.32-2.51,1.32a.49.49,0,0,1-.22.06.19.19,0,0,1-.18-.08.39.39,0,0,1,0-.2.54.54,0,0,1,0-.11l.48-2.79-2-2a.39.39,0,0,1-.14-.27c0-.14.1-.23.31-.26l2.8-.41,1.26-2.53c.07-.16.16-.23.27-.23s.2.07.27.23l1.26,2.53,2.8.41C86.9,85.78,87,85.87,87,86Z"/><path class="cls-2" d="M70,35.33l-9.44-9.45a1.1,1.1,0,0,0-.77-.32H36.7a1.1,1.1,0,0,0-1.1,1.1V48.88a7.63,7.63,0,0,1,1.18-.08,8.72,8.72,0,0,1,1,.06V27.76h20V36a2.13,2.13,0,0,0,2.12,2.12h8.2V66.48h-20v2.2H69.22a1.1,1.1,0,0,0,1.1-1.1V36.11A1.1,1.1,0,0,0,70,35.33ZM60,35.9V28.43l7.45,7.47Z"/><path class="cls-2" d="M43.86,59.94H42.69V57.88a5.93,5.93,0,0,0-4.89-5.82,5.77,5.77,0,0,0-1-.09,6.47,6.47,0,0,0-1.18.11,5.93,5.93,0,0,0-4.74,5.8v2.06H29.69a1.1,1.1,0,0,0-1.09,1.11V72.46a1.09,1.09,0,0,0,1.09,1.1H43.86a1.1,1.1,0,0,0,1.1-1.1V61.05A1.11,1.11,0,0,0,43.86,59.94Zm-10.8-2.06a3.72,3.72,0,0,1,2.54-3.52,3.52,3.52,0,0,1,1.18-.19,3.81,3.81,0,0,1,1,.14,3.73,3.73,0,0,1,2.69,3.57v2.06H33.06Zm9.7,13.48h-12V62.14h12Z"/><path class="cls-2" d="M38.63,65.58a1.8,1.8,0,0,1-.23.9,1.92,1.92,0,0,1-.74.73v1.53a.88.88,0,1,1-1.76,0V67.21a1.57,1.57,0,0,1-.3-.2,1.85,1.85,0,0,1,1.18-3.28,1.81,1.81,0,0,1,1,.31A1.85,1.85,0,0,1,38.63,65.58Z"/><path class="cls-2" d="M42.5,45H63.42a.66.66,0,1,0,0-1.32H42.5a.66.66,0,0,0,0,1.32Zm20.92,6.34H42.5a.66.66,0,0,0,0,1.32H63.42a.66.66,0,0,0,0-1.32Zm0,7.65H51.87a.66.66,0,0,0,0,1.32H63.42a.66.66,0,0,0,0-1.32ZM42.5,37.32h8.29a.66.66,0,0,0,0-1.32H42.5a.66.66,0,0,0,0,1.32Z"/></g></g></svg>