<svg xmlns="http://www.w3.org/2000/svg" viewBox="0 0 100 100"><defs><style>.cls-1{fill:#0a3254;}.cls-2{fill:#fff;}.cls-3{fill:#e65133;}</style></defs><title>distribute-revisions</title><g id="Layer_2" data-name="Layer 2"><g id="Layer_1-2" data-name="Layer 1"><circle class="cls-1" cx="50" cy="50" r="50"/><circle class="cls-2" cx="83.75" cy="87.5" r="10"/><circle class="cls-3" cx="83.75" cy="87.5" r="7.5"/><path class="cls-2" d="M88.39,86a.44.44,0,0,1-.14.27l-2,2L86.7,91a.34.34,0,0,1,0,.11.32.32,0,0,1-.06.2.19.19,0,0,1-.17.08.46.46,0,0,1-.22-.06l-2.51-1.32-2.51,1.32a.49.49,0,0,1-.22.06.17.17,0,0,1-.17-.08.32.32,0,0,1-.06-.2.54.54,0,0,1,0-.11l.48-2.79-2-2a.39.39,0,0,1-.14-.27c0-.14.1-.23.31-.26l2.8-.41,1.26-2.53c.07-.16.16-.23.27-.23s.2.07.27.23l1.26,2.53,2.8.41C88.29,85.78,88.39,85.87,88.39,86Z"/><path class="cls-2" d="M48.25,34.8a15.05,15.05,0,0,1,2.9,0V30.47h2.38L49.7,26l-3.83,4.47h2.38Z"/><path class="cls-2" d="M34.86,37.22l3.06,3.06A15.42,15.42,0,0,1,40,38.22l-3.06-3.06,1.68-1.68L32.73,33l.45,5.87Z"/><path class="cls-2" d="M34.43,50a13.81,13.81,0,0,1,.07-1.45H30.19V46.17L25.7,50l4.49,3.83V51.45H34.5A13.81,13.81,0,0,1,34.43,50Z"/><path class="cls-2" d="M59.42,38.22a15.42,15.42,0,0,1,2.06,2.06l3.06-3.06,1.68,1.68L66.67,33l-5.87.45,1.68,1.68Z"/><path class="cls-2" d="M73.7,50l-4.47-3.83v2.38H64.9a15.05,15.05,0,0,1,0,2.9h4.33v2.38Z"/><path class="cls-2" d="M64.53,62.77l-3.05-3.05a15.42,15.42,0,0,1-2.06,2.06l3,3-1.68,1.68,5.88.46-.46-5.88Z"/><path class="cls-2" d="M51.15,65.2a15.05,15.05,0,0,1-2.9,0v4.31H45.87L49.7,74l3.83-4.49H51.15Z"/><path class="cls-2" d="M40,61.78a15.42,15.42,0,0,1-2.06-2.06l-3.05,3.05-1.68-1.68L32.73,67l5.88-.46-1.68-1.68Z"/><path class="cls-2" d="M49.7,36.12A13.88,13.88,0,1,0,63.58,50,13.89,13.89,0,0,0,49.7,36.12ZM38.67,47a.54.54,0,0,0,0,.11c-.06.06,0,.25-.14.26Zm12.38,4.26c-.39,0-.76-.49-1.1-.14a1.2,1.2,0,0,1,0,.19c-.13.08-.25-.1-.28-.19a3.46,3.46,0,0,1-.47-.2c0-.17,0-.25,0-.51s-.24-.08-.35-.13a.24.24,0,0,1-.31,0c-.27.19-.75.22-1,.37-.07-.08-.18-.15-.28-.06-.05.27-.25.37-.37.56l0,.3c0,.09-.12.13-.15.22a1.7,1.7,0,0,0-.37.45c0,.19-.19.32-.2.5s0,.11.05.19,0,.23,0,.35a2.24,2.24,0,0,1,0,.63c0,.28.11.32.22.42.1.33.36.4.45.75.11,0,.15.2.19.27a.46.46,0,0,0,.4.12.33.33,0,0,1,.41,0,1.36,1.36,0,0,0,.62-.24s.08,0,.17,0c.08.19.25.22.46.21,0,.06.07.15.11.21a1.16,1.16,0,0,1-.09.52c.14.36.47.48.48.92a1.21,1.21,0,0,1,.18.33c.17.55-.25.87-.13,1.37a3.12,3.12,0,0,0,.18.42,2,2,0,0,1,.15.58,7.62,7.62,0,0,0,.28,1c.11,0,.16.24.19.43a.41.41,0,0,0,.35.23c-.38,0-.77,0-1.16,0a11.42,11.42,0,0,1-6.34-1.92,3.25,3.25,0,0,1,.46-.22,3.78,3.78,0,0,1,.2-1c0-.15,0-.28,0-.45l.19-.11a2,2,0,0,1,0-.25c.2,0,.17-.33.23-.52s-.07-.15-.1-.23a3.76,3.76,0,0,1-.47-.3c-.21-.1-.32-.25-.5-.18-.18-.16-.4-.25-.59-.39-.13,0-.2.09-.32.08a1,1,0,0,1,.15-.33c0-.19-.15-.25-.22-.38-.26-.06-.46-.39-.76-.45-.05-.08-.12-.13-.17-.21s-.07,0-.11,0a.6.6,0,0,0-.48-.3c-.15.12-.17,0-.33,0s-.13,0-.16,0-.09-.15-.17-.14-.09.25-.2.21a1,1,0,0,0,0-.28c-.15,0-.19.24-.35.33s-.18,0-.27.13-.06-.12-.12-.12h-.07a10.37,10.37,0,0,1-.58-1.84c.23.09.54.08.72.32a.59.59,0,0,0,.33-.1,1.92,1.92,0,0,0-.75-.35c-.1,0-.26-.14-.35-.08-.07-.33-.12-.66-.16-1h0c0,.05,0,0,.05.05a1.45,1.45,0,0,0,.39.63c.11-.26-.11-.52-.13-.84a.82.82,0,0,0,.09-.29.73.73,0,0,0,.41-.92c.08,0,.09,0,.14,0a.32.32,0,0,1,0-.14c.07-.27.32-.36.46-.58,0,0,0-.09,0-.18.3,0,.31-.35.6-.37.09-.07,0-.34,0-.42s.2-.19.18-.41c-.26,0-.48.23-.75.23.16,0,.24-.3.41-.35s.45.08.64,0,.12-.14.19-.17.24-.07.3-.27a.56.56,0,0,0,0-.32c-.09,0-.2,0-.28,0s.11-.07.1-.17-.09,0-.13,0c-.06-.16-.18-.22-.27-.32-.15-.39-.2-.8-.55-.86,0,.16,0,.36-.25.4s-.15-.46-.28-.62-.21-.1-.29-.17h0c0-.08.09-.17.13-.26.24.1.38.46.67.34,0-.22-.22-.19-.28-.36.14-.07.18.09.33.07a.24.24,0,0,0-.18-.42,2.31,2.31,0,0,1-.1-.28c.18-.07.31.15.49.15s.09-.25.15-.37-.17-.1-.22-.21a1,1,0,0,0-.17-.1,11.52,11.52,0,0,1,1-1.25.55.55,0,0,0,.13.37c.3-.24.52.26.53.58,0,.06-.15.15-.07.25-.09.13-.29.2-.29.38s.25.32.33.45c0,.31.11.43.15.75.23.11.52.12.63.44l.18,0,.1-.12a3.72,3.72,0,0,1,.09-.61c.19-.16.16-.49.41-.52,0,0,.08,0,.11,0s.1-.19.17-.26.21-.08.29-.17,0-.15.08-.18a2,2,0,0,0,1-.44c0-.06-.05-.16-.09-.18s-.2,0-.24,0,.24,0,.41,0c0-.21-.18-.34-.16-.63,0,0-.14.05-.13-.08s.2.13.34.09a.93.93,0,0,0,.13-.37c0-.07,0-.14,0-.21s0-.07,0-.1,0-.23-.06-.35l.21-.09a.37.37,0,0,0-.28-.34c-.08-.35.18-.47.25-.7a1,1,0,0,0,.6-.6c0-.06-.11,0-.2,0-.19-.24-.75,0-.92.09,0-.06,0-.08,0-.15l0,0A11.45,11.45,0,0,1,57.4,41.55l-.08.06c-.19.14-.51.13-.6.31s.05.12,0,.23-.54.05-.69.2.06.08,0,.17c.21,0,.34.31.3.57a2.71,2.71,0,0,0-.21-.37c-.14-.11-.48-.23-.57,0s.16.11.18.27-.17,0-.23-.07a.42.42,0,0,0,0-.27c-.12,0-.15,0-.21.11s0,.25,0,.25a3.17,3.17,0,0,1,.17.52s.2-.11.25,0c-.14,0-.19.07-.25.11a.7.7,0,0,1,0,.25c-.12,0-.19.25-.33.23a1.83,1.83,0,0,0,.17-.53,2.44,2.44,0,0,1-.14-.46c0-.16.13-.29.06-.53a.52.52,0,0,0-.18-.23c-.11,0-.31.2-.35.29a.9.9,0,0,0-.07.14c0,.27.13.58.16.8-.11,0-.22-.1-.3-.19s-.19,0-.3,0-.29-.29-.46-.21.19.18.11.39a.5.5,0,0,1-.19,0c-.14.19-.25,0-.37,0l-.22,0c-.12,0-.19.13-.28.19a1.63,1.63,0,0,1-.19.09c-.11.07-.17.28-.29.18s.07-.14.06-.26-.22-.25-.34-.12,0,.38-.06.5-.27.26-.36.44c-.07,0-.11,0-.18,0s0,.17-.09.18-.07-.08-.09-.17-.24-.21-.29-.43a.49.49,0,0,0,.8-.27c-.08-.13-.18-.11-.28-.18a.62.62,0,0,0-.65-.39c-.07-.08-.13-.07-.21-.1a.58.58,0,0,0-.1-.12c-.14,0-.23,0-.33,0-.19.1-.45,0-.61.2,0,0-.07,0-.12,0-.14.29-.53.37-.63.66a.59.59,0,0,0-.31.67,1.37,1.37,0,0,1-.51.74,3.67,3.67,0,0,1,.08.75c0,.1.14,0,.21.08s0,.08.09.08.18-.12.28-.21a.37.37,0,0,0,.23.1.41.41,0,0,0,.24.24,2.32,2.32,0,0,0,.23-.66,1.84,1.84,0,0,0-.17-.22c-.11-.47.39-.52.42-1,.06-.08.2-.24.31-.12s0,.07,0,.13a1.09,1.09,0,0,0-.31,1c.08,0,.15.14.27.16s.24-.08.34-.08,0,0,0,0,.09-.07.1,0,0,0,0,.08-.44,0-.43.19.11.11.13.18c0,.22-.12.27-.27.15s-.08.24-.08.4-.34.11-.62.15c-.09-.2-.19-.51-.37-.58s-.22.08-.3.16c-.06.29.29.79-.14.75-.1.18-.29.26-.34.5-.21.06-.25.3-.43.39,0,0,0,0-.07,0,0,.19-.27,0-.29.25a1.16,1.16,0,0,1,.38.46c0,.1,0,.26,0,.37-.24,0-.64-.07-.84.14a1.9,1.9,0,0,1,.07.45c0,.16,0,.32,0,.53a1.88,1.88,0,0,0,.42.23s0-.07.07-.07c.32.07.6-.2.51-.62l.09-.07a.58.58,0,0,0,.25-.44c.16,0,.23-.11.38,0s.22-.24.37-.22.35.36.32.59a.27.27,0,0,1,.08.1c.07.13.12.31.3.26a.25.25,0,0,0,0-.24l0,0s.07,0,.06-.09a.72.72,0,0,1-.22-.47c.19-.07.34.13.36.44l.1.12a1.33,1.33,0,0,1,.27.61c.22,0,.19-.38.13-.58l0,0c.08-.08.17-.17.29-.13a.53.53,0,0,0,0,.13c0,.12,0,.22,0,.38s.15.18.21.27.44,0,.58.06.11-.1.21-.11a2.17,2.17,0,0,1-.07.81c-.12.06-.23,0-.35,0S51.12,51.22,51.05,51.24Zm1.87-2.44c.15-.17.46-.39.68-.24,0,.19-.27.15-.27.36a2.42,2.42,0,0,1,.27.6c0,.07,0,.17,0,.24h-.41a.52.52,0,0,0,0-.11C53.22,49.32,52.91,49.14,52.92,48.8Zm-.65.67c-.09,0-.15.13-.28.1s-.17-.15-.26-.19a1.85,1.85,0,0,0-.69.06c-.06,0-.08.15-.2.13.08-.11,0-.17-.05-.28s0-.12.08-.23.09-.38.25-.44a.17.17,0,0,0,.17.12,1,1,0,0,0,0,.2c.11,0,.19,0,.28-.11s0-.09,0-.19.27,0,.31-.14c.05.1,0,.16-.06.24a1.64,1.64,0,0,0,.49.6C52.32,49.41,52.25,49.4,52.27,49.47ZM59,55.53c0,.07.07.18.12.25s.12.12.16.2l.07.09a11.42,11.42,0,0,1-8.07,5.25l.41-.12a1.11,1.11,0,0,1,0-.17,2.46,2.46,0,0,0,.5-.81c0-.18,0-.18,0-.34s.16-.11.19-.21,0-.33-.07-.46.16-.32.25-.44a2.15,2.15,0,0,1,.19-.22c.21-.18.15-.39.12-.77-.07-.06,0-.16-.09-.24s-.2-.28-.18-.53a6,6,0,0,1,.17-.7c.07-.13.28-.3.42-.48s.2-.32.3-.45a2.82,2.82,0,0,1,.21-.71.8.8,0,0,1,.14-.47c-.31-.19-.45.16-.67.17s-.18-.1-.26-.17a1.37,1.37,0,0,1-.36-.36c0-.09-.08-.19-.09-.28a1.92,1.92,0,0,1-.35-.65c-.14-.37-.31-.72-.42-1,0,0-.06,0-.07,0,.15-.13.26.21.34.35s.33.27.31.58c.1.14.22.23.32.35a3.14,3.14,0,0,1,.2.84c.23.27.51-.09.83-.09a1.15,1.15,0,0,1,.7-.53c.08-.28.31-.41.26-.83a1.38,1.38,0,0,0-.3-.24c-.06-.1-.1-.21-.21-.23-.05.14-.1.24-.21.24s-.17-.17-.27-.22-.09,0-.16,0,0-.15,0-.23-.19-.13-.2-.32c.26-.08.34.39.57.48a.55.55,0,0,0,.33,0s.06.06.1.11a3.49,3.49,0,0,0,1.1.15.55.55,0,0,0,.43.33c0,.21,0,.37.21.33s0-.12.07-.16.07,0,.08.1,0,0,0,0a1.12,1.12,0,0,1,.07.47,1.37,1.37,0,0,1,.08.43c.17.41.26.56.4.93,0,0,.07.08.12.09a1.51,1.51,0,0,0,.21-.23,3.26,3.26,0,0,0,.07-.93,2.67,2.67,0,0,0,.67-1,.38.38,0,0,0,.35-.14c.12.31.47.45.38.86a.25.25,0,0,0,.43,0,2.49,2.49,0,0,1,.18,1,6.54,6.54,0,0,1,.39,1c-.12,0-.2-.12-.33-.14s-.2-.26-.3-.13A1.76,1.76,0,0,0,59,55.53Zm.62.09a1.13,1.13,0,0,1-.12-.21.64.64,0,0,1,.17.13A.56.56,0,0,0,59.65,55.62Zm.19-.34a1.29,1.29,0,0,0-.27-.52s-.08,0-.11-.08c-.17-.24-.33-.55-.14-.77.15.09.28.21.42.31s0,.21.13.25.06-.24.22-.17c.06-.14.22-.17.25-.36s-.11-.39-.16-.6-.14-.09-.2-.16-.12-.3-.08-.49a.51.51,0,0,1,.28-.15s0,.07.07.11.26-.13.32-.27,0,0,.09,0l.25-.15A11.32,11.32,0,0,1,59.84,55.28ZM61,49.77a.37.37,0,0,1,.16-.22c0,.11,0,.22,0,.32a.42.42,0,0,1-.16,0A.45.45,0,0,1,61,49.77ZM53.06,43c.07.08,0,.15.11.2s.34.07.36-.18c0,0-.05,0-.09,0a.51.51,0,0,1,.19-.73c0-.26.26-.3.39-.46,0,.05,0,0,.07,0,.21-.23.49-.16.7-.34,0-.12-.06-.15-.09-.24-.18-.12-.28.08-.42.15s-.15,0-.22,0-.24.16-.37.21-.23,0-.3,0-.1.16-.15.25-.08.12-.09.15,0,0,0,0a1,1,0,0,0-.2.36s0,.11,0,.13-.13.11-.12.22S53,42.9,53.06,43Zm7.06,9.92c.11.18.31-.06.24-.22C60.23,52.74,60.13,52.73,60.12,52.9Zm-13.19-6a.5.5,0,0,1,.13.2.25.25,0,0,1,.17.06s0,.08,0,.14-.06.07-.11.1-.06.16,0,.24.09,0,.09.07-.18.09-.17.24.12,0,.2,0,.31-.12.51-.16a.39.39,0,0,0-.1-.61c0-.29-.23-.37-.35-.54a.71.71,0,0,0,0-.34s-.08,0-.14,0a.13.13,0,0,0,0-.12.35.35,0,0,0-.37.26.64.64,0,0,0,.14.23A.65.65,0,0,1,46.93,46.88Zm6.89,10.86c-.13,0-.07.29-.19.36s0,.09,0,.13,0,0,0,0c-.2,0-.28.18-.33.37s0,.69,0,1c.11.09.13.34.26.34s.18-.34.26-.5c-.06-.34.16-.53.14-.89a4.11,4.11,0,0,0,.13-.53C54,57.93,53.93,57.73,53.82,57.74ZM46.91,47c-.16-.26-.29.12-.45.13a1.05,1.05,0,0,1,0,.4s.07.08.11.12.24-.12.36-.16S46.86,47.16,46.91,47Zm10.18,7.45c0,.07,0,.19-.09.22s0,.24.12.33.15,0,.22-.06C57.33,54.64,57.25,54.53,57.09,54.45ZM45.3,44.31c-.29-.46-.5.36-.1.41.1.42.49.16.7.13,0-.13.08-.24.2-.27a1.15,1.15,0,0,0,0-.36A3.17,3.17,0,0,1,45.3,44.31Zm-5.61,8.74a.75.75,0,0,0,.33.06S40,53,40,53s.08,0,.12,0S39.67,52.74,39.69,53.05Zm1.83-5.2a.27.27,0,0,1,0-.26c-.26-.27-.43.25-.41.61a.45.45,0,0,1,.38.14c.13-.07.25,0,.35,0C41.7,48.15,41.74,47.75,41.52,47.85Zm-.6.44a.28.28,0,0,1-.35.26c0,.25.26,0,.4,0s0-.17,0-.26Z"/></g></g></svg>