<svg xmlns="http://www.w3.org/2000/svg" viewBox="0 0 100 100"><defs><style>.cls-1{fill:#0a3254;}.cls-2{fill:#fff;}.cls-3{fill:#e65133;}</style></defs><title>lower-costs</title><g id="Layer_2" data-name="Layer 2"><g id="Layer_1-2" data-name="Layer 1"><circle class="cls-1" cx="50" cy="50" r="50"/><circle class="cls-2" cx="84.12" cy="87.5" r="10"/><circle class="cls-3" cx="84.12" cy="87.5" r="7.5"/><path class="cls-2" d="M88.76,86a.44.44,0,0,1-.14.27l-2,2L87.07,91s0,.06,0,.11a.32.32,0,0,1-.06.2.19.19,0,0,1-.17.08.53.53,0,0,1-.23-.06l-2.5-1.32-2.51,1.32a.49.49,0,0,1-.22.06.19.19,0,0,1-.18-.08.39.39,0,0,1,0-.2.54.54,0,0,1,0-.11l.48-2.79-2-2a.39.39,0,0,1-.14-.27c0-.14.1-.23.31-.26l2.8-.41,1.26-2.53c.07-.16.16-.23.27-.23s.2.07.27.23l1.26,2.53,2.8.41C88.66,85.78,88.76,85.87,88.76,86Z"/><path class="cls-2" d="M73.46,64,70,58.25V36.51A2.48,2.48,0,0,0,67.47,34H32.38a2.49,2.49,0,0,0-2.48,2.49V58.25l-3.6,5.9a2.52,2.52,0,0,0-.36,1.54V66a2.65,2.65,0,0,0,2.65,2.65H71.27A2.65,2.65,0,0,0,73.91,66s0-.4,0-.5A2.47,2.47,0,0,0,73.46,64ZM32.09,36.51a.3.3,0,0,1,.29-.31H67.47a.3.3,0,0,1,.3.31V58H32.09ZM71.73,66a.46.46,0,0,1-.46.47H28.59a.46.46,0,0,1-.46-.47,4,4,0,0,1,0-.67l3.68-6H68l3.61,5.9.06.09a.29.29,0,0,1,.06.17Zm-8.06-5.86.42.8h3l-.51-.8Zm-19.11,3-.64,2.12h11.9l-.64-2.12Z"/><path class="cls-2" d="M34.21,38.35V55.94H65.65V38.35ZM53.38,50.09a2.82,2.82,0,0,1-.18.29,3.5,3.5,0,0,1-2.31,1.22h0V53H49V51.58A3.73,3.73,0,0,1,47.26,51a2.67,2.67,0,0,1-1-2.07h1.86q0,1.47,2,1.47A2.15,2.15,0,0,0,51.34,50a1.16,1.16,0,0,0,.2-.18,1,1,0,0,0,.14-.21c.69-1.73-2-1.55-3.06-2l-.24-.08-.24-.09a3.36,3.36,0,0,1-.86-.46,2.32,2.32,0,0,1-.61-.71,2.41,2.41,0,0,1,.68-2.86,2,2,0,0,1,.48-.3,3.34,3.34,0,0,1,.58-.23L49,42.7V41.29h1.86v1.42a3.64,3.64,0,0,1,1.61.55,2.23,2.23,0,0,1,.93,1.85H51.57c0-.75-.56-1.14-1.54-1.17H49.9a1.87,1.87,0,0,0-1.38.49.48.48,0,0,0-.09.11c-.43.76.1,1.21,1.08,1.45l1,.25c.55.14,1,.29,1.44.43a3.33,3.33,0,0,1,1,.51A2.51,2.51,0,0,1,53.38,50.09Z"/></g></g></svg>