<svg xmlns="http://www.w3.org/2000/svg" viewBox="0 0 100 100"><defs><style>.cls-1{fill:#0a3254;}.cls-2{fill:#fff;}.cls-3{fill:#e65133;}</style></defs><title>notify-users</title><g id="Layer_2" data-name="Layer 2"><g id="Layer_1-2" data-name="Layer 1"><circle class="cls-1" cx="50" cy="50" r="50"/><circle class="cls-2" cx="84.12" cy="87.5" r="10"/><circle class="cls-3" cx="84.12" cy="87.5" r="7.5"/><path class="cls-2" d="M88.76,86a.44.44,0,0,1-.14.27l-2,2L87.07,91s0,.06,0,.11a.32.32,0,0,1-.06.2.19.19,0,0,1-.17.08.53.53,0,0,1-.23-.06l-2.5-1.32-2.51,1.32a.49.49,0,0,1-.22.06.19.19,0,0,1-.18-.08.39.39,0,0,1,0-.2.54.54,0,0,1,0-.11l.48-2.79-2-2a.39.39,0,0,1-.14-.27c0-.14.1-.23.31-.26l2.8-.41,1.26-2.53c.07-.16.16-.23.27-.23s.2.07.27.23l1.26,2.53,2.8.41C88.66,85.78,88.76,85.87,88.76,86Z"/><path class="cls-2" d="M55.76,69.74c-.76,0-1.54.07-2.36.09a3,3,0,0,1-.8,2.94,3,3,0,0,1-2.15.87,3,3,0,0,1-3-3.06,2.87,2.87,0,0,1,.11-.77l-2.36-.11a4.94,4.94,0,0,0-.08.87A5.37,5.37,0,0,0,50.43,76h0a5.36,5.36,0,0,0,5.37-5.32A5.5,5.5,0,0,0,55.76,69.74Z"/><path class="cls-2" d="M72.24,64.41c0-.12-.45-2.86-3.86-5.1-.75-.5-2.81-3-5.71-15L62.6,44c-1-4.21-2.87-7.12-8.14-8.09a4.83,4.83,0,0,0,1-3,4.89,4.89,0,1,0-8.81,2.89c-5.67.82-7.68,3.82-8.76,8l-.08.32c-3.08,12-5.18,14.46-5.94,14.94C28.49,61.23,28,64,28,64.08l-.14.85.78.38c.28.14,7,3.28,21.45,3.38h.8c14.47,0,20.48-3,20.74-3.09l.74-.37ZM50.63,30.3a2.56,2.56,0,1,1-2.56,2.56A2.56,2.56,0,0,1,50.63,30.3ZM40.12,44.67l.08-.31c.92-3.59,2.34-6.57,10.11-6.51s9.12,2.92,10,6.66l.07.3c1.75,7.27,3.42,12.11,5.09,14.67a84.46,84.46,0,0,1-16.4,1.6,54.7,54.7,0,0,1-14.27-1.83C36.52,56.72,38.27,51.9,40.12,44.67Zm10,21.69c-10.85-.08-17.18-1.93-19.47-2.76A7.09,7.09,0,0,1,33.18,61a3.47,3.47,0,0,0,.69-.57,54.91,54.91,0,0,0,15.21,2h.53a87.22,87.22,0,0,0,16.85-1.76,5.1,5.1,0,0,0,.64.54,7,7,0,0,1,2.53,2.65C67.43,64.7,61.3,66.45,50.1,66.36Z"/></g></g></svg>