<svg xmlns="http://www.w3.org/2000/svg" viewBox="0 0 100 100"><defs><style>.cls-1{fill:#0a3254;}.cls-2{fill:#fff;}.cls-3{fill:#e65133;}</style></defs><title>training-response</title><g id="Layer_2" data-name="Layer 2"><g id="Layer_1-2" data-name="Layer 1"><circle class="cls-1" cx="50" cy="50" r="50"/><circle class="cls-2" cx="83.75" cy="87.5" r="10"/><circle class="cls-3" cx="83.75" cy="87.5" r="7.5"/><path class="cls-2" d="M88.39,86a.44.44,0,0,1-.14.27l-2,2L86.7,91a.34.34,0,0,1,0,.11.32.32,0,0,1-.06.2.19.19,0,0,1-.17.08.46.46,0,0,1-.22-.06l-2.51-1.32-2.51,1.32a.49.49,0,0,1-.22.06.17.17,0,0,1-.17-.08.32.32,0,0,1-.06-.2.54.54,0,0,1,0-.11l.48-2.79-2-2a.39.39,0,0,1-.14-.27c0-.14.1-.23.31-.26l2.8-.41,1.26-2.53c.07-.16.16-.23.27-.23s.2.07.27.23l1.26,2.53,2.8.41C88.29,85.78,88.39,85.87,88.39,86Z"/><path class="cls-2" d="M50.77,57.57l.69-1L51,55.49H49l-.43,1.11.68,1Zm-1.46.56-.46,7.51h2.34l-.46-7.51Z"/><path class="cls-2" d="M63.27,62.87c-1-6.59-5-8-5.47-8.17l-2.9-1.07-1-1.19a9.42,9.42,0,0,0,.88-1.77,4.47,4.47,0,0,0,2.11-3.34c0-.35.08-1.17-.29-1.51a.73.73,0,0,0-.57-.18c.89-4.72-2.16-7.37-6.12-7.37-6.07,0-6.12,5.62-6,7.37a.73.73,0,0,0-.45.18c-.37.34-.32,1.16-.28,1.51a4.43,4.43,0,0,0,2.12,3.35l.06,0a8.8,8.8,0,0,0,.81,1.69L45.1,53.63,42.2,54.7c-.44.14-4.47,1.57-5.47,8.13A18.21,18.21,0,0,1,31.93,52h3.48a.3.3,0,0,0,.23-.5L30.07,45a.3.3,0,0,0-.46,0l-5.54,6.51a.31.31,0,0,0,.23.5h3.8a21.95,21.95,0,0,0,40.83,9.62l-3.87-1A17.65,17.65,0,0,1,63.27,62.87Zm-7.71-16a2.66,2.66,0,0,1,.41-.26,3.58,3.58,0,0,1-.74,2.53A14.27,14.27,0,0,0,55.56,46.82Zm-11.5-.26a2.66,2.66,0,0,1,.5.33,14.91,14.91,0,0,0,.34,2.32A3.6,3.6,0,0,1,44.06,46.56Zm2-.41A9.67,9.67,0,0,0,52,43.43a4.71,4.71,0,0,0,2.08,1.77,6.51,6.51,0,0,1,0,.77c0,3.56-1.54,7.4-4,7.4S46.08,49.66,46,46.15ZM52,66H48L44.62,55.4,45.8,55a.77.77,0,0,0,.31-.22l1-1.17a4,4,0,0,0,5.82,0l1,1.13a.77.77,0,0,0,.31.22l1.11.4ZM75.7,49H71.9a22,22,0,0,0-40.83-9.61l3.87,1A18.32,18.32,0,0,1,50,32.4a18.08,18.08,0,0,1,4.62.6A18.33,18.33,0,0,1,68.07,49H64.59a.3.3,0,0,0-.23.5L69.93,56a.3.3,0,0,0,.46,0l5.54-6.52A.3.3,0,0,0,75.7,49Z"/></g></g></svg>