<svg xmlns="http://www.w3.org/2000/svg" viewBox="0 0 100 100"><defs><style>.cls-1{fill:#0a3254;}.cls-2{fill:#fff;}.cls-3{fill:#e75133;}</style></defs><title>improve-incident-reporting</title><g id="Layer_2" data-name="Layer 2"><g id="Layer_1-2" data-name="Layer 1"><circle class="cls-1" cx="50" cy="50" r="50"/><circle class="cls-2" cx="82.36" cy="87.5" r="10"/><circle class="cls-3" cx="82.36" cy="87.5" r="7.5"/><path class="cls-2" d="M87,86a.44.44,0,0,1-.14.27l-2,2L85.31,91s0,.06,0,.11a.32.32,0,0,1-.06.2.19.19,0,0,1-.17.08.53.53,0,0,1-.23-.06l-2.5-1.32-2.51,1.32a.49.49,0,0,1-.22.06.19.19,0,0,1-.18-.08.39.39,0,0,1,0-.2.54.54,0,0,1,0-.11l.48-2.79-2-2a.39.39,0,0,1-.14-.27c0-.14.1-.23.31-.26l2.8-.41,1.26-2.53c.07-.16.16-.23.27-.23s.2.07.27.23l1.26,2.53,2.8.41C86.9,85.78,87,85.87,87,86Z"/><path class="cls-2" d="M76.1,68.82,51.75,24.56a1.81,1.81,0,0,0-3.17,0L24.22,68.82a1.81,1.81,0,0,0,1.59,2.68H74.52a1.8,1.8,0,0,0,1.58-2.68Zm-47.22-.94L50.16,29.19,71.45,67.88Z"/><path class="cls-2" d="M47.89,42.13V55.22a2.27,2.27,0,0,0,4.54,0V42.13a2.27,2.27,0,1,0-4.54,0Z"/><path class="cls-2" d="M50.16,59.85a2.39,2.39,0,1,0,2.4,2.39,2.4,2.4,0,0,0-2.4-2.39Z"/></g></g></svg>