<svg xmlns="http://www.w3.org/2000/svg" viewBox="0 0 100 100"><defs><style>.cls-1{fill:#0a3254;}.cls-2{fill:#fff;}.cls-3{fill:#e75133;}</style></defs><title>improve-operational-efficiency</title><g id="Layer_2" data-name="Layer 2"><g id="Layer_1-2" data-name="Layer 1"><circle class="cls-1" cx="50" cy="50" r="50"/><circle class="cls-2" cx="83.75" cy="87.5" r="10"/><circle class="cls-3" cx="83.75" cy="87.5" r="7.5"/><path class="cls-2" d="M88.39,86a.44.44,0,0,1-.14.27l-2,2L86.7,91a.34.34,0,0,1,0,.11.32.32,0,0,1-.06.2.19.19,0,0,1-.17.08.46.46,0,0,1-.22-.06l-2.51-1.32-2.51,1.32a.49.49,0,0,1-.22.06.17.17,0,0,1-.17-.08.32.32,0,0,1-.06-.2.54.54,0,0,1,0-.11l.48-2.79-2-2a.39.39,0,0,1-.14-.27c0-.14.1-.23.31-.26l2.8-.41,1.26-2.53c.07-.16.16-.23.27-.23s.2.07.27.23l1.26,2.53,2.8.41C88.29,85.78,88.39,85.87,88.39,86Z"/><path class="cls-2" d="M59.47,51.6c-.11-.37-.22-.73-.35-1.1s-.36-.91-.56-1.34a1.38,1.38,0,0,0-1.45-.78L54,48.81a13.4,13.4,0,0,0-2.82-3.05l.71-3a1.39,1.39,0,0,0-.68-1.54,18.22,18.22,0,0,0-2.37-1.1,1.41,1.41,0,0,0-1.6.47l-1.86,2.47a13.15,13.15,0,0,0-4.1-.19l-1.62-2.62a1.39,1.39,0,0,0-1.54-.61,12.4,12.4,0,0,0-1.27.4c-.42.15-.83.32-1.24.51A1.39,1.39,0,0,0,34.82,42l.43,3a13.68,13.68,0,0,0-3.07,2.76l-3-.71a1.38,1.38,0,0,0-1.52.67,15.5,15.5,0,0,0-1.13,2.36A1.38,1.38,0,0,0,27,51.73l2.41,1.82a13.38,13.38,0,0,0-.3,2.85q0,.69.06,1.38l-2.6,1.61A1.39,1.39,0,0,0,26,60.92c.12.46.26.93.42,1.39s.28.72.44,1.06a1.37,1.37,0,0,0,1.46.81l3-.42A13.69,13.69,0,0,0,34.19,67l-.71,3a1.4,1.4,0,0,0,.66,1.53,19.83,19.83,0,0,0,2.28,1.09A1.42,1.42,0,0,0,38,72.14l1.84-2.44a14,14,0,0,0,2.84.3,13.3,13.3,0,0,0,1.55-.1l1.63,2.64a1.39,1.39,0,0,0,1.54.61c.41-.11.81-.23,1.22-.38a12,12,0,0,0,1.17-.48,1.4,1.4,0,0,0,.8-1.45l-.43-3.09a13.65,13.65,0,0,0,3.2-3l3,.72A1.41,1.41,0,0,0,58,64.83,17.72,17.72,0,0,0,59,62.53a1.4,1.4,0,0,0-.47-1.6l-2.5-1.88a13.69,13.69,0,0,0,.27-2.65,12.36,12.36,0,0,0-.11-1.62l2.65-1.63A1.41,1.41,0,0,0,59.47,51.6ZM42.72,66.08A9.68,9.68,0,1,1,52.4,56.4,9.68,9.68,0,0,1,42.72,66.08ZM73.54,38.16l-3.08-1.89a6.68,6.68,0,0,0-.41-1.64l1.72-3.19a.79.79,0,0,0-.08-.88,9.18,9.18,0,0,0-.72-.82,9.07,9.07,0,0,0-.81-.72.81.81,0,0,0-.88-.08l-3.19,1.72a6.66,6.66,0,0,0-1.64-.4l-1.89-3.08a.81.81,0,0,0-.82-.37,10.1,10.1,0,0,0-2.13.6.79.79,0,0,0-.5.74l0,3.64c-.18.15-.37.27-.54.44a5.52,5.52,0,0,0-.43.53l-3.64,0a.82.82,0,0,0-.74.51,10,10,0,0,0-.6,2.12.8.8,0,0,0,.36.82l3.08,1.89A7.38,7.38,0,0,0,57,39.78L55.26,43a.79.79,0,0,0,.08.88,9.18,9.18,0,0,0,.72.82,9.07,9.07,0,0,0,.81.72.81.81,0,0,0,.88.08l3.19-1.72a6.63,6.63,0,0,0,1.65.4l1.88,3.08a.81.81,0,0,0,.82.37,11.45,11.45,0,0,0,2.13-.6.79.79,0,0,0,.5-.74l0-3.64c.18-.15.37-.27.54-.44s.29-.36.44-.54l3.64,0a.79.79,0,0,0,.73-.5A9.93,9.93,0,0,0,73.9,39,.79.79,0,0,0,73.54,38.16ZM66.34,40a4,4,0,1,1,0-5.66A4,4,0,0,1,66.34,40ZM43.52,62.67V64a.41.41,0,0,1-.43.39h-.75a.4.4,0,0,1-.42-.39V62.79a7.78,7.78,0,0,1-3.4-.81.38.38,0,0,1-.18-.46l.48-1.37A.32.32,0,0,1,39,60a.38.38,0,0,1,.31,0l.11.06a5.74,5.74,0,0,0,2.76.7c1.43,0,2.28-.59,2.28-1.58,0-.74-.36-1.32-2.17-1.92-2.52-.81-3.74-2-3.74-3.68s1.32-3,3.33-3.42V48.79a.41.41,0,0,1,.42-.39h.75a.42.42,0,0,1,.43.39V50a6.84,6.84,0,0,1,2.85.61.39.39,0,0,1,.2.48l-.51,1.33a.35.35,0,0,1-.21.2.42.42,0,0,1-.31,0l-.1-.06a4.91,4.91,0,0,0-2.23-.49c-1.48,0-2,.72-2,1.33,0,.82.54,1.26,2.31,1.87s3.61,1.56,3.61,3.79C47.12,60.63,46,62.23,43.52,62.67Z"/></g></g></svg>