<svg xmlns="http://www.w3.org/2000/svg" viewBox="0 0 100 100"><defs><style>.cls-1{fill:#0a3254;}.cls-2{fill:#fff;}.cls-3{fill:#e75133;}</style></defs><title>improve-risk-management</title><g id="Layer_2" data-name="Layer 2"><g id="Layer_1-2" data-name="Layer 1"><circle class="cls-1" cx="50" cy="50" r="50"/><polygon class="cls-2" points="68.92 69.42 68.92 34.11 63.6 38.39 63.6 69.42 58.39 69.42 58.39 42.59 55.8 44.68 53.08 43.58 53.08 69.42 47.86 69.42 47.86 41.48 45.09 40.36 42.55 42.13 42.55 69.42 37.34 69.42 37.34 45.77 32.03 49.48 32.03 69.42 26.69 69.42 26.69 71.94 73.97 71.94 73.97 69.42 68.92 69.42"/><path class="cls-2" d="M72.26,26.7l-5.71-.11a.21.21,0,0,0-.16.34l1.61,2a.21.21,0,0,1,0,.29L55.49,39.25a1,1,0,0,1-1,.14L45,35.55a1,1,0,0,0-.91.11L26.88,47.72a.94.94,0,0,0-.41.75,1,1,0,0,0,1.51.82L44.35,37.87a.94.94,0,0,1,.9-.11l9.61,3.87a1,1,0,0,0,1-.14L69.2,30.71a.21.21,0,0,1,.29,0L71,32.64a.2.2,0,0,0,.36-.09l1.06-5.61A.2.2,0,0,0,72.26,26.7Z"/><circle class="cls-2" cx="84.08" cy="87.5" r="10"/><circle class="cls-3" cx="84.08" cy="87.5" r="7.5"/><path class="cls-2" d="M88.72,86a.39.39,0,0,1-.14.27l-2,2L87,91a.34.34,0,0,1,0,.11.32.32,0,0,1-.06.2.19.19,0,0,1-.17.08.49.49,0,0,1-.22-.06l-2.51-1.32-2.5,1.32a.56.56,0,0,1-.23.06.18.18,0,0,1-.17-.08.32.32,0,0,1-.06-.2.54.54,0,0,1,0-.11l.48-2.79-2-2a.39.39,0,0,1-.14-.27c0-.14.1-.23.31-.26l2.8-.41,1.26-2.53c.07-.16.16-.23.27-.23s.2.07.28.23l1.25,2.53,2.8.41C88.62,85.78,88.72,85.87,88.72,86Z"/></g></g></svg>