<svg xmlns="http://www.w3.org/2000/svg" viewBox="0 0 100 100"><defs><style>.cls-1{fill:#0a3254;}.cls-2{fill:#fff;}.cls-3{fill:#e75133;}</style></defs><title>surface-consolodate-analyse-report</title><g id="Layer_2" data-name="Layer 2"><g id="Layer_1-2" data-name="Layer 1"><circle class="cls-1" cx="50" cy="50" r="50"/><circle class="cls-2" cx="84.12" cy="87.5" r="10"/><circle class="cls-3" cx="84.12" cy="87.5" r="7.5"/><path class="cls-2" d="M88.76,86a.44.44,0,0,1-.14.27l-2,2L87.07,91s0,.06,0,.11a.32.32,0,0,1-.06.2.19.19,0,0,1-.17.08.53.53,0,0,1-.23-.06l-2.5-1.32-2.51,1.32a.49.49,0,0,1-.22.06.19.19,0,0,1-.18-.08.39.39,0,0,1,0-.2.54.54,0,0,1,0-.11l.48-2.79-2-2a.39.39,0,0,1-.14-.27c0-.14.1-.23.31-.26l2.8-.41,1.26-2.53c.07-.16.16-.23.27-.23s.2.07.27.23l1.26,2.53,2.8.41C88.66,85.78,88.76,85.87,88.76,86Z"/><path class="cls-2" d="M73.73,26.46H26.27a3,3,0,0,0-3,2.95v42.1a3,3,0,0,0,3,2.95H73.73a3,3,0,0,0,3-2.95V29.41A3,3,0,0,0,73.73,26.46ZM71.1,30a1.79,1.79,0,1,1-1.81,1.79A1.8,1.8,0,0,1,71.1,30Zm-6.66,0a1.79,1.79,0,1,1-1.81,1.79A1.8,1.8,0,0,1,64.44,30Zm-6.65,0A1.79,1.79,0,1,1,56,31.78,1.8,1.8,0,0,1,57.79,30ZM74,71.51a.26.26,0,0,1-.27.25H26.27a.26.26,0,0,1-.27-.25V35.92H74ZM66.07,48.25H65V64.51h1.08ZM45.89,54.7H44.81v9.79h1.08ZM56,55.24H54.87v9.25H56ZM35.77,61.08H34.69v3.41h1.08Z"/><path class="cls-2" d="M31.71,66v1.61h37V66Zm3.52-6.61a2.11,2.11,0,0,0,2.13-2.09,2.48,2.48,0,0,0,0-.27l7-4.64a2.12,2.12,0,0,0,2.88-.73l6.3.62a2.13,2.13,0,0,0,2,1.31,2.1,2.1,0,0,0,2.12-2.09,2,2,0,0,0-.08-.56l6.93-6.16.65.72.88,1a.2.2,0,0,0,.19.06.21.21,0,0,0,.13-.13l.68-4.58a.16.16,0,0,0,0-.16.15.15,0,0,0-.15-.06L62,41.73a.2.2,0,0,0-.15.12.17.17,0,0,0,0,.18l.88,1,.52.58-6.87,6.1a2.07,2.07,0,0,0-1-.27,2.11,2.11,0,0,0-1.94,1.25l-6.1-.6a2.12,2.12,0,1,0-4.1,1l-6.79,4.53a2.16,2.16,0,0,0-1.28-.43,2.1,2.1,0,1,0,0,4.19Z"/></g></g></svg>