<svg xmlns="http://www.w3.org/2000/svg" viewBox="0 0 36 36"><defs><style>.cls-1{fill:#fff;}.cls-2{fill:#0a3254;}</style></defs><title>npi-icon</title><g id="Layer_2" data-name="Layer 2"><g id="Layer_1-2" data-name="Layer 1"><circle class="cls-1" cx="18" cy="18" r="18"/><path class="cls-2" d="M24.73,24.07H25.8V21.68h.63L25.84,21l-.58-.65-.58.65-.58.65h.63Zm-3.55.6v.81h5.44v-.81Zm.82-.6h1.08V21.68h.62L23.12,21l-.58-.65L22,21l-.58.65H22Z"/><path class="cls-2" d="M25.75,8.25H10.25L6.8,13.6V27.8H29.2V13.6Zm-6,1.14h5.36l2.6,4h-8Zm-8.9,0h5.36v4h-8ZM28.06,26.66H7.94V14.11h8.29v4.17l.58-.56h0l.59.56.59-.56h0l.59.56.59-.56h0l.58.56V14.11h8.29Z"/></g></g></svg>