<?xml version="1.0" encoding="utf-8"?>
<!-- Generator: Adobe Illustrator 21.0.0, SVG Export Plug-In . SVG Version: 6.00 Build 0)  -->
<svg version="1.1" id="Layer_1" xmlns="http://www.w3.org/2000/svg" xmlns:xlink="http://www.w3.org/1999/xlink" x="0px" y="0px"
	 viewBox="0 0 300 304" style="enable-background:new 0 0 300 304;" xml:space="preserve">
<style type="text/css">
	.st0{fill:#FFFFFF;}
</style>
<g>
	<path class="st0" d="M150,0C67.2,0,0,68.1,0,152c0,84,67.2,152,150,152c82.8,0,150-68.1,150-152C300,68.1,232.8,0,150,0z M147.2,44
		l21.7,67.7H55.2L147.2,44z M46.7,121.9h70.3L81.8,231.5L46.7,121.9z M88.7,242.8l21.7-67.7l92,67.7H88.7z M215.2,239.7l-56.8-41.9
		l92-67.7L215.2,239.7z M194.5,158.7L159.3,49.1l92,67.7L194.5,158.7z"/>
</g>
</svg>
