<?xml version="1.0" encoding="utf-8"?>
<!-- Generator: Adobe Illustrator 21.0.2, SVG Export Plug-In . SVG Version: 6.00 Build 0)  -->
<svg version="1.1" id="Layer_1" xmlns="http://www.w3.org/2000/svg" xmlns:xlink="http://www.w3.org/1999/xlink" x="0px" y="0px"
	 viewBox="0 0 90 90" style="enable-background:new 0 0 90 90;" xml:space="preserve">
<style type="text/css">
	.st0{fill:#F05133;}
	.st1{fill:#0A3254;}
</style>
<g>
	<path class="st0" d="M40.5,33.4c0,0-1.1-4.2,4.3-9.6C57.3,11.3,42.6,0,42.6,0c6.9,8.7,2.2,15.8-1.8,22.2
		C36.8,28.6,40.5,33.4,40.5,33.4z M37.7,19.8c5.6-8.8-3.9-16.1-3.9-16.1s4.8,6.2,0,14C28.8,26,33,34.1,35.4,36.7
		C35.4,36.7,31.5,29.7,37.7,19.8z"/>
	<g>
		<path class="st1" d="M81.6,45.6c-2.4-2.5-6.7-4.5-14.1-1.1l0-1.8c0-0.6-0.2-1.1-0.6-1.5c-0.4-0.4-0.9-0.6-1.5-0.6H7.8
			c-0.6,0-1.1,0.2-1.5,0.6c-0.4,0.4-0.6,0.9-0.6,1.5l0,14c0,8.1,2.8,15,8.4,20.5c1.1,1.1,2.2,2.2,3.1,3.2c1.8,1.9,2,2.1,2.3,2.3
			c0.4,0.3,0.8,0.4,1.3,0.4h31.7c0.5,0,0.9-0.1,1.3-0.4c0.3-0.2,0.5-0.4,2.3-2.3c0.9-0.9,2-2.1,3.1-3.2c1.8-1.8,3.3-3.9,4.4-5.9
			c14.2-1.6,18.6-9.7,19.9-13.1C85.1,53.6,84.4,48.6,81.6,45.6z M53,77.6c-0.5,0.5-1,1-1.4,1.4h-30c-0.4-0.4-0.9-0.9-1.4-1.4
			c-0.5-0.5-1.1-1.1-1.7-1.7h36.1C54,76.5,53.5,77,53,77.6z M63.2,56.8c0,0.1-0.1,9.5-6.1,16.5h-41C12,68.8,9.9,63.2,9.9,56.8
			l0-11.9h53.3L63.2,56.8z M79.4,56.9c-0.9,2.5-4,8.1-13.8,10c1.9-5.3,1.9-9.7,1.9-10l0-7.5c5.2-2.9,8.8-3.2,11.1-0.8
			C80.2,50.3,80.6,53.8,79.4,56.9z"/>
		<path class="st1" d="M63.3,85.8H9.6c-1.2,0-2.1,1-2.1,2.1s1,2.1,2.1,2.1h53.8c1.2,0,2.1-1,2.1-2.1S64.5,85.8,63.3,85.8z"/>
	</g>
</g>
</svg>
