<?xml version="1.0" encoding="utf-8"?>
<!-- Generator: Adobe Illustrator 21.0.2, SVG Export Plug-In . SVG Version: 6.00 Build 0)  -->
<svg version="1.1" id="Layer_1" xmlns="http://www.w3.org/2000/svg" xmlns:xlink="http://www.w3.org/1999/xlink" x="0px" y="0px"
	 viewBox="0 0 90 90" style="enable-background:new 0 0 90 90;" xml:space="preserve">
<style type="text/css">
	.st0{fill:#0A3254;}
	.st1{fill:#F05133;}
</style>
<g>
	<path class="st0" d="M56.7,52.8c0.2,0.8,0.9,1.3,1.7,1.1l30.4-6.1c0.8-0.2,1.3-0.9,1.1-1.7c-0.2-0.8-0.9-1.3-1.7-1.1l-30.4,6.1
		C57.1,51.3,56.6,52.1,56.7,52.8z M32.9,32.7l-1.2,1.9L0,85l58.4-22.6L32.9,32.7z M15.5,74 M45.7,52.8 M20.6,73.5
		c-5.6,2.2-10.3,4-12.6,4.9c1.2-1.9,3.6-5.8,6.5-10.4l0.5-0.7c3.1-4.9,6.7-10.7,9.9-15.7l0.5-0.8c3.9-6.2,7.1-11.3,7.9-12.5
		c1.8,2.1,10.9,12.7,16.2,18.8l0.6,0.7c1.3,1.5,2.3,2.7,2.8,3.3c-0.7,0.3-2.4,0.9-4.9,1.9l-0.6,0.2C41.1,65.6,30.7,69.6,22,73
		L20.6,73.5z M24.7,68.2 M41.4,34.1c-0.3,0.7,0.1,1.6,0.8,1.9c0.8,0.3,1.6-0.1,1.9-0.8L55.6,7c0.3-0.7-0.1-1.6-0.8-1.9
		c-0.8-0.3-1.6,0.1-1.9,0.8L41.4,34.1z M60,32.2c0.3-0.4,0.2-1-0.2-1.3c-0.4-0.3-1-0.3-1.4,0.1l-12,14.6c-0.3,0.4-0.3,0.9,0,1.2
		c0.3,0.3,0.8,0.4,1.2,0.2l16.8-9c0.5-0.3,0.6-0.8,0.4-1.3c-0.3-0.5-0.9-0.6-1.3-0.4c0,0-7.8,4.2-12.5,6.7C54.4,39,60,32.2,60,32.2
		C60,32.2,60,32.2,60,32.2z"/>
	<g>
		<path class="st1" d="M77.2,26.3c0.4-0.9,3.7-7.7,3.7-7.7l-2.4,0.6c0,0-5,1.3-6,1.6c-0.8-0.7-6.2-5.3-6.2-5.3s-0.7,7.2-0.8,8.2
			C64.6,24.2,58,28,58,28s6.8,2.6,7.8,2.9c0.2,1,1.6,8,1.6,8s5-5.7,5.7-6.4c1,0.1,8.4,0.6,8.4,0.6S77.7,27.2,77.2,26.3z M72.1,30.2
			c0,0-2,2.2-3.3,3.7c-0.4-1.9-0.9-4.7-0.9-4.7s-2.7-1-4.5-1.7c1.7-1,4.3-2.5,4.3-2.5s0.3-3,0.5-4.9c1.5,1.3,3.7,3.2,3.7,3.2
			l0.6-0.2c0,0,2.2-0.6,4.2-1.1c-0.8,1.8-2.1,4.4-2.1,4.4s1.5,2.5,2.5,4.1C75.1,30.4,72.1,30.2,72.1,30.2z"/>
	</g>
	<g>
		<path class="st1" d="M83.1,59.8c0,0-3.7-2.1-4.3-2.4c0-0.7-0.3-4.5-0.3-4.5L77,54c0,0-1.7,1.3-2.2,1.8c-0.7-0.2-4.8-1.2-4.8-1.2
			s1.6,3.6,1.9,4.3c-0.4,0.6-2.7,3.9-2.7,3.9s4.2-0.3,4.9-0.4c0.5,0.5,3.1,3.5,3.1,3.5s0.9-3.7,1.1-4.4
			C79.1,61.2,83.1,59.8,83.1,59.8z M76.3,61.9c-0.5-0.5-1.3-1.4-1.3-1.4s-1.2,0.1-1.9,0.1c0.3-0.5,1-1.5,1-1.5s-0.5-1.1-0.7-1.6
			c0.7,0.2,1.4,0.3,1.4,0.3l0.5,0.1c0,0,1-0.8,1.5-1.2c0,0.7,0.1,1.9,0.1,1.9s1.1,0.6,1.6,0.9c-0.6,0.2-1.7,0.6-1.7,0.6
			S76.5,61.2,76.3,61.9z"/>
	</g>
	<g>
		<path class="st1" d="M42.4,18c0.5-0.5,3.6-3,3.6-3s-3.8-0.9-4.5-1.1c-0.3-0.7-1.7-4.6-1.7-4.6l-1,1.8c0,0-1.1,1.8-1.5,2.4
			c-0.7,0-4.6,0.3-4.6,0.3s2.6,3.1,3,3.6c-0.2,0.7-1.2,4.7-1.2,4.7s3.7-1.6,4.4-1.9c0.6,0.4,4,2.6,4,2.6S42.4,18.7,42.4,18z
			 M39,18.1c0,0-1.1,0.5-1.7,0.7c0.2-0.7,0.5-1.8,0.5-1.8S37,16,36.5,15.5c0.7,0,1.4-0.1,1.4-0.1l0.5,0c0,0,0.6-1,0.9-1.6
			c0.2,0.6,0.6,1.7,0.6,1.7s1.2,0.3,1.8,0.4c-0.5,0.5-1.5,1.2-1.5,1.2s0.1,1.2,0.1,1.9C40,18.7,39,18.1,39,18.1z"/>
	</g>
</g>
</svg>
