<?xml version="1.0" encoding="utf-8"?>
<!-- Generator: Adobe Illustrator 21.0.2, SVG Export Plug-In . SVG Version: 6.00 Build 0)  -->
<svg version="1.1" id="Layer_1" xmlns="http://www.w3.org/2000/svg" xmlns:xlink="http://www.w3.org/1999/xlink" x="0px" y="0px"
	 viewBox="0 0 90 90" style="enable-background:new 0 0 90 90;" xml:space="preserve">
<style type="text/css">
	.st0{fill:#0A3254;}
	.st1{fill:#F05133;}
</style>
<g>
	<g>
		<path class="st0" d="M82.2,18h-19v-6.1c0-6-4.9-10.9-10.9-10.9H37.7c-6,0-10.9,4.9-10.9,10.9V18h-19C3.5,18,0,21.6,0,25.9v55.2
			C0,85.5,3.5,89,7.8,89h74.3c4.3,0,7.8-3.5,7.8-7.9V25.9C90,21.6,86.5,18,82.2,18z M31.4,11.9c0-3.5,2.8-6.3,6.3-6.3h14.7
			c3.5,0,6.3,2.8,6.3,6.3V18H31.4V11.9z M82.2,84.4H7.8c-1.8,0-3.3-1.5-3.3-3.3V53c0.8,0.4,1.6,0.6,2.4,0.6h16.1
			c2.3,0,2.3-3.7,0-3.7L7,49.9c-0.8,0-1.8-0.8-2.4-1.9V25.9c0-1.8,1.5-3.3,3.3-3.3h74.3c1.8,0,3.3,1.5,3.3,3.3v22
			c-0.6,1.2-1.8,2-3.3,2l-14.7,0c-2.4,0-2.4,3.7,0,3.7h14.7c1.2,0,2.3-0.3,3.3-0.8v28.3C85.4,82.9,83.9,84.4,82.2,84.4z"/>
	</g>
	<path class="st1" d="M33,56.2h7.7v7.7c0,1.2,1,2.2,2.2,2.2H47c1.2,0,2.2-1,2.2-2.2v-7.7h7.7c1.2,0,2.2-1,2.2-2.2v-4.2
		c0-1.2-1-2.2-2.2-2.2h-7.7v-7.7c0-1.2-1-2.2-2.2-2.2h-4.2c-1.2,0-2.2,1-2.2,2.2v7.7H33c-1.2,0-2.2,1-2.2,2.2V54
		C30.7,55.2,31.7,56.2,33,56.2z"/>
</g>
</svg>
