<svg xmlns="http://www.w3.org/2000/svg" viewBox="0 0 100 100"><defs><style>.cls-1{fill:#0a3254;}.cls-2,.cls-4{fill:#fff;}.cls-3{fill:#1abc11;}.cls-4{font-size:10px;font-family:FontAwesome, FontAwesome;}</style></defs><title>incident-reporting</title><g id="Layer_2" data-name="Layer 2"><g id="Layer_1-2" data-name="Layer 1"><circle class="cls-1" cx="50" cy="50" r="50"/><circle class="cls-2" cx="82.12" cy="87.49" r="10"/><circle class="cls-3" cx="82.12" cy="87.49" r="7.5"/><text class="cls-4" transform="translate(77.13 90.96)"></text><path class="cls-2" d="M41,56.41a1.6,1.6,0,1,0-1.6,1.6A1.59,1.59,0,0,0,41,56.41Z"/><path class="cls-2" d="M39.42,52.69a1.32,1.32,0,0,0,1.33-1.33v-8a1.33,1.33,0,1,0-2.65,0v8A1.32,1.32,0,0,0,39.42,52.69Z"/><path class="cls-2" d="M70.14,38.29,59,27.16A4,4,0,0,0,56.21,26H38a4,4,0,0,0-4,4v8.28L24.1,48.16a2.6,2.6,0,0,0,0,3.68L34,61.76V70a4,4,0,0,0,4,4H67.34a4,4,0,0,0,4-4V41.1A4,4,0,0,0,70.14,38.29ZM56.25,30.05l11,11h-11ZM39.48,36.56l13.38,13.5L39.42,63.38,26,49.94ZM67.31,70H38v-4.4a2.56,2.56,0,0,0,3.25-.28L54.75,51.84a2.6,2.6,0,0,0,0-3.68L41.26,34.67A2.56,2.56,0,0,0,38,34.39V30H53.64V43.64H67.31Z"/></g></g></svg>