<svg xmlns="http://www.w3.org/2000/svg" viewBox="0 0 100 100"><defs><style>.cls-1{fill:#0a3254;}.cls-2,.cls-4{fill:#fff;}.cls-3{fill:#1abc11;}.cls-4{font-size:10px;font-family:FontAwesome, FontAwesome;}</style></defs><title>risk-modelling-documentation</title><g id="Layer_2" data-name="Layer 2"><g id="Layer_1-2" data-name="Layer 1"><circle class="cls-1" cx="50" cy="50" r="50"/><circle class="cls-2" cx="82.78" cy="87.49" r="10"/><circle class="cls-3" cx="82.78" cy="87.49" r="7.5"/><text class="cls-4" transform="translate(77.78 90.96)"></text><rect class="cls-2" x="41.79" y="43.77" width="4.05" height="4.05" rx="0.23" ry="0.23"/><rect class="cls-2" x="47.98" y="43.77" width="4.05" height="4.05" rx="0.23" ry="0.23"/><rect class="cls-2" x="54.16" y="43.77" width="4.05" height="4.05" rx="0.23" ry="0.23"/><rect class="cls-2" x="41.79" y="49.95" width="4.05" height="4.05" rx="0.23" ry="0.23"/><rect class="cls-2" x="47.98" y="49.95" width="4.05" height="4.05" rx="0.23" ry="0.23"/><rect class="cls-2" x="54.16" y="49.95" width="4.05" height="4.05" rx="0.23" ry="0.23"/><rect class="cls-2" x="41.79" y="56.14" width="4.05" height="4.05" rx="0.23" ry="0.23"/><rect class="cls-2" x="47.98" y="56.14" width="4.05" height="4.05" rx="0.23" ry="0.23"/><rect class="cls-2" x="54.16" y="56.14" width="4.05" height="4.05" rx="0.23" ry="0.23"/><path class="cls-2" d="M70,34.64H48.41l-5.86-4.27a4,4,0,0,0-2.34-.77H30a4,4,0,0,0-4,4V65.41a4,4,0,0,0,4,4H70a4,4,0,0,0,4-4V38.62A4,4,0,0,0,70,34.64Zm0,30.72H30V33.64H40.21l6.88,5H70Z"/></g></g></svg>