<?xml version="1.0" encoding="utf-8"?>
<!-- Generator: Adobe Illustrator 21.0.2, SVG Export Plug-In . SVG Version: 6.00 Build 0)  -->
<svg version="1.1" id="Layer_1" xmlns="http://www.w3.org/2000/svg" xmlns:xlink="http://www.w3.org/1999/xlink" x="0px" y="0px"
	 viewBox="0 0 90 90" style="enable-background:new 0 0 90 90;" xml:space="preserve">
<style type="text/css">
	.st0{fill:#0A3254;}
	.st1{fill:#F05133;}
</style>
<g>
	<path class="st0" d="M69,30h-7v-11c0-1.1-0.9-2-2-2c-1.1,0-2,0.9-2,2v11H47v-11c0-1.1-0.9-2-2-2c-1.1,0-2,0.9-2,2v11H32v-11
		c0-1.1-0.9-2-2-2c-1.1,0-2,0.9-2,2v11h-7C13.3,30,7,36.3,7,44v7.8c0,1.1,0.9,2,2,2c1.9,0,2.9,0.7,4,1.8V80c0,1.1,0.9,2,2,2h60
		c1.1,0,2-0.9,2-2V55.7c1.1-1.1,2.1-1.9,4-1.9c1.1,0,2-0.9,2-2V44C83,36.3,76.7,30,69,30z M73,78H17V59c1.1,0.5,2.4,0.9,4,0.9
		c3.8,0,5.8-2,7.4-3.6c1.4-1.4,2.4-2.4,4.6-2.4c2.2,0,3.2,1,4.6,2.4c1.6,1.6,3.6,3.6,7.4,3.6c3.8,0,5.8-2,7.4-3.6
		c1.4-1.4,2.4-2.4,4.6-2.4c2.2,0,3.2,1,4.6,2.4c1.6,1.6,3.6,3.6,7.4,3.6c1.6,0,2.9-0.3,3.9-0.9V78z M79,50c-2.6,0.5-4.1,2.1-5.4,3.4
		c-1.4,1.4-2.4,2.4-4.5,2.4c-2.2,0-3.2-1-4.6-2.4c-1.6-1.6-3.6-3.6-7.4-3.6c-3.8,0-5.8,2-7.4,3.6c-1.4,1.4-2.4,2.4-4.6,2.4
		c-2.2,0-3.2-1-4.6-2.4c-1.6-1.6-3.6-3.6-7.4-3.6c-3.8,0-5.8,2-7.4,3.6c-1.4,1.4-2.4,2.4-4.6,2.4c-2.2,0-3.2-1-4.6-2.4
		c-1.3-1.3-2.9-2.9-5.4-3.4c0-2.1,0-6,0-6c0-5.5,4.5-10,10-10h48c5.5,0,10,4.5,10,10C79,44,79,47.9,79,50z M81,86H9
		c-1.1,0-2,0.9-2,2c0,1.1,0.9,2,2,2h72c1.1,0,2-0.9,2-2C83,86.9,82.1,86,81,86z"/>
	<g>
		<path class="st1" d="M63.4,4.1c-1.1-1.6-2.2-2.8-2.3-2.9L60,0l-1.1,1.2c0,0.1-1.2,1.3-2.3,2.9c-1.7,2.3-2.5,4.1-2.5,5.4
			c0,3.2,2.6,5.9,5.8,5.9c3.2,0,5.9-2.6,5.9-5.9C65.8,8.2,65,6.4,63.4,4.1z M60,12.4c-1.6,0-2.8-1.3-2.8-2.9c0-0.9,1.3-3,2.8-4.9
			c1.5,1.9,2.9,4.1,2.9,4.9C62.8,11.1,61.6,12.4,60,12.4z"/>
		<path class="st1" d="M46.1,1.2L45,0l-1.1,1.2c0,0.1-1.2,1.3-2.3,2.9c-1.7,2.3-2.5,4.1-2.5,5.4c0,3.2,2.6,5.9,5.8,5.9
			s5.8-2.6,5.8-5.9c0-1.3-0.8-3.1-2.5-5.4C47.3,2.5,46.2,1.3,46.1,1.2z M45,12.4c-1.6,0-2.9-1.3-2.9-2.9c0-0.9,1.3-3,2.9-4.9
			c1.5,1.9,2.9,4.1,2.9,4.9C47.9,11.1,46.6,12.4,45,12.4z"/>
		<path class="st1" d="M31.1,1.2L30,0l-1.1,1.2c0,0.1-1.2,1.3-2.3,2.9c-1.7,2.3-2.5,4.1-2.5,5.4c0,3.2,2.6,5.9,5.9,5.9
			c3.2,0,5.8-2.6,5.8-5.9c0-1.3-0.8-3.1-2.5-5.4C32.3,2.5,31.2,1.3,31.1,1.2z M30,12.4c-1.6,0-2.9-1.3-2.9-2.9c0-0.9,1.3-3,2.9-4.9
			c1.5,1.9,2.8,4.1,2.8,4.9C32.8,11.1,31.6,12.4,30,12.4z"/>
	</g>
</g>
</svg>
