<?xml version="1.0" encoding="utf-8"?>
<!-- Generator: Adobe Illustrator 21.0.2, SVG Export Plug-In . SVG Version: 6.00 Build 0)  -->
<svg version="1.1" id="Layer_1" xmlns="http://www.w3.org/2000/svg" xmlns:xlink="http://www.w3.org/1999/xlink" x="0px" y="0px"
	 viewBox="0 0 90 90" style="enable-background:new 0 0 90 90;" xml:space="preserve">
<style type="text/css">
	.st0{fill:#F05133;}
	.st1{fill:#0A3254;}
</style>
<g>
	<g>
		<path class="st0" d="M25.8,20c1.3-0.5,2.6-1,4-1.4c0-0.1,0-0.1,0-0.2l-2.6-6.6l9.4,4.4c0.6,0.3,1.3,0.2,1.8,0
			c0.4-0.2,0.8-0.4,1-0.8L45,6.2l5.6,9.2c0.1,0.2,0.2,0.3,0.4,0.4c0.1,0.1,0.1,0.1,0.2,0.1c0,0,0,0,0.1,0c0.6,0.5,1.4,0.6,2.2,0.2
			l9.4-4.4l-2.6,6.6c0,0.1,0,0.1,0,0.2c1.4,0.4,2.8,0.9,4,1.4l4.5-11.5c0.3-0.8,0.1-1.7-0.5-2.3c-0.6-0.6-1.6-0.8-2.4-0.4l-12.5,5.8
			L46.8,1c-0.4-0.6-1.1-1-1.8-1c0,0,0,0,0,0c-0.7,0-1.4,0.4-1.8,1l-6.4,10.6L24.2,5.8c-0.8-0.4-1.7-0.2-2.4,0.4
			c-0.6,0.6-0.8,1.5-0.5,2.3L25.8,20z"/>
	</g>
	<path class="st1" d="M45,57.2c-1.5,0-2.7,1.1-2.7,2.3c0,1.3,2.3,5.1,2.3,5.1c0.2,0.4,0.6,0.4,0.8,0c0,0,2.3-3.8,2.3-5.1
		C47.7,58.3,46.5,57.2,45,57.2z"/>
	<path class="st1" d="M57.4,57.3c-1.5-0.2-2.8,0.6-3,1.9c-0.2,1.3,1.5,5.4,1.5,5.4c0.2,0.4,0.5,0.5,0.8,0.1c0,0,2.9-3.4,3.1-4.7
		C59.9,58.8,58.9,57.5,57.4,57.3z"/>
	<path class="st1" d="M32.6,57.3c-1.5,0.2-2.5,1.5-2.3,2.7c0.2,1.3,3.1,4.7,3.1,4.7c0.3,0.3,0.6,0.3,0.8-0.1c0,0,1.7-4.1,1.5-5.4
		C35.4,57.9,34,57.1,32.6,57.3z"/>
	<path class="st1" d="M45.4,38.8c0,0,2.3-3.8,2.3-5.1c0-1.3-1.2-2.3-2.7-2.3c-1.5,0-2.7,1.1-2.7,2.3c0,1.3,2.3,5.1,2.3,5.1
		C44.8,39.1,45.2,39.1,45.4,38.8z"/>
	<path class="st1" d="M57.4,31.4c-1.5-0.2-2.8,0.6-3,1.9c-0.2,1.3,1.5,5.4,1.5,5.4c0.2,0.4,0.5,0.5,0.8,0.1c0,0,2.9-3.4,3.1-4.7
		C59.9,32.9,58.9,31.7,57.4,31.4z"/>
	<path class="st1" d="M32.6,31.4c-1.5,0.2-2.5,1.5-2.3,2.7c0.2,1.3,3.1,4.7,3.1,4.7c0.3,0.3,0.6,0.3,0.8-0.1c0,0,1.7-4.1,1.5-5.4
		C35.4,32.1,34,31.2,32.6,31.4z"/>
	<path class="st1" d="M50.4,70.2c-1.5-0.2-2.8,0.6-3,1.9c-0.2,1.3,1.5,5.4,1.5,5.4c0.2,0.4,0.5,0.5,0.8,0.1c0,0,2.9-3.4,3.1-4.7
		C52.9,71.7,51.9,70.4,50.4,70.2z"/>
	<path class="st1" d="M39.6,70.2c-1.5,0.2-2.5,1.5-2.3,2.7c0.2,1.3,3.1,4.7,3.1,4.7c0.3,0.3,0.6,0.3,0.8-0.1c0,0,1.7-4.1,1.5-5.4
		C42.4,70.8,41.1,70,39.6,70.2z"/>
	<path class="st1" d="M63.7,44.4c-1.5-0.2-2.8,0.6-3,1.9c-0.2,1.3,1.5,5.4,1.5,5.4c0.2,0.4,0.5,0.5,0.8,0.1c0,0,2.9-3.4,3.1-4.7
		C66.2,45.8,65.1,44.6,63.7,44.4z"/>
	<path class="st1" d="M26.3,44.4c-1.5,0.2-2.5,1.5-2.3,2.7c0.2,1.3,3.1,4.7,3.1,4.7c0.3,0.3,0.6,0.3,0.8-0.1c0,0,1.7-4.1,1.5-5.4
		C29.1,45,27.8,44.1,26.3,44.4z"/>
	<path class="st1" d="M39.3,51.7c0,0,2.3-3.8,2.3-5.1c0-1.3-1.2-2.3-2.7-2.3c-1.5,0-2.7,1.1-2.7,2.3c0,1.3,2.3,5.1,2.3,5.1
		C38.7,52.1,39.1,52.1,39.3,51.7z"/>
	<path class="st1" d="M51.1,44.3c-1.5,0-2.7,1.1-2.7,2.3c0,1.3,2.3,5.1,2.3,5.1c0.2,0.4,0.6,0.4,0.8,0c0,0,2.3-3.8,2.3-5.1
		C53.8,45.3,52.6,44.3,51.1,44.3z"/>
	<path class="st1" d="M72.3,30c-6.4-8.3-19.6-9.7-26.9-9.8c-0.1,0-0.1,0-0.2,0l-0.3,0c0,0-0.1,0-0.1,0c-0.1,0-0.1,0-0.2,0
		c-7.4,0.1-20.5,1.4-26.9,9.8c-3.8,4.9-4.6,11.3-2.6,19.1c4.2,16.1,8.9,24.3,10.8,27.1c5.3,7.9,9.8,13.6,18.7,13.9
		c0.1,0,0.3,0,0.5,0c0,0,0.2,0,0.2,0c0.1,0,0.2,0,0.3,0c8.1-0.3,12.7-4.9,18.7-13.9c1.8-2.8,6.6-10.9,10.8-27
		C76.9,41.3,76,34.9,72.3,30z M70.8,48c-4,15.5-8.5,23.2-10.2,25.8c-5.3,8-9,11.8-15.4,12c0,0-0.1,0-0.1,0c0,0,0,0,0,0l0,0
		c0,0-0.1,0-0.1,0c-6.5-0.1-9.9-3.6-15.4-12c-1.7-2.6-6.2-10.3-10.2-25.8c-1.7-6.4-1-11.6,1.9-15.4c5.3-6.9,17.2-8,23.7-8.1
		c0,0,0.1,0,0.1,0c0,0,0.1,0,0.1,0l0.1,0c0,0,0.1,0,0.1,0c6.6,0,18.4,1.1,23.7,8.1C71.8,36.4,72.4,41.6,70.8,48z"/>
</g>
</svg>
