<?xml version="1.0" encoding="utf-8"?>
<!-- Generator: Adobe Illustrator 21.0.2, SVG Export Plug-In . SVG Version: 6.00 Build 0)  -->
<svg version="1.1" id="Layer_1" xmlns="http://www.w3.org/2000/svg" xmlns:xlink="http://www.w3.org/1999/xlink" x="0px" y="0px"
	 viewBox="0 0 90 90" style="enable-background:new 0 0 90 90;" xml:space="preserve">
<style type="text/css">
	.st0{fill:none;}
	.st1{fill:#0A3254;}
	.st2{fill:#F05133;}
</style>
<g>
	<path class="st0" d="M34.1,46.6l6.1-22.7c0.2-0.7,0.8-1.2,1.6-1.2c0.7,0,1.4,0.5,1.6,1.2L51.8,56l7.8-18c0.2-0.6,0.8-0.9,1.4-1
		c0.6,0,1.2,0.3,1.5,0.9l4.4,8.7h5.4c0.9,0,1.6,0.7,1.6,1.6c0,0.9-0.7,1.6-1.6,1.6h-6.4c-0.6,0-1.2-0.3-1.4-0.9l-3.3-6.5l-8.3,19.1
		c-0.3,0.6-0.8,1-1.5,1c0,0-0.1,0-0.1,0c-0.7,0-1.3-0.5-1.4-1.2l-8.1-30.8l-4.9,18c-0.2,0.7-0.8,1.2-1.6,1.2h-10h-0.4l26.5,26.4
		l29.9-29.8v0c3.6-3.8,5.4-8.8,5.4-13.7c0-5-1.8-10-5.5-13.8c-3.6-3.8-8.4-5.7-13.1-5.7c-4.7,0-9.5,1.9-13.1,5.7
		c-0.9,0.9-1.7,1.9-2.4,3c-0.3,0.5-0.8,0.7-1.4,0.7c-0.6,0-1.1-0.3-1.4-0.7c-0.7-1.1-1.5-2.1-2.4-3c-3.6-3.8-8.4-5.7-13.1-5.7
		c-4.7,0-9.5,1.9-13.1,5.7c-3.6,3.8-5.5,8.8-5.5,13.8c0,5,1.8,10,5.4,13.7l0.2,0.2h1H34.1z"/>
	<path class="st1" d="M90,32.6c0-5.8-2.1-11.5-6.4-16c-4.2-4.4-9.8-6.6-15.4-6.6c-5.6,0-11.2,2.2-15.4,6.6c-0.5,0.5-0.9,1-1.4,1.6
		c-0.4-0.5-0.9-1.1-1.4-1.6c-4.2-4.4-9.8-6.6-15.4-6.6c-5.6,0-11.2,2.2-15.4,6.6c-4.2,4.4-6.4,10.2-6.4,16c0,4.9,1.6,9.9,4.7,14h4.2
		l-0.2-0.2c-3.6-3.8-5.4-8.7-5.4-13.7c0-5,1.8-10,5.5-13.8c3.6-3.8,8.4-5.7,13.1-5.7c4.7,0,9.4,1.9,13.1,5.7c0.9,0.9,1.7,1.9,2.4,3
		c0.3,0.5,0.8,0.7,1.4,0.7c0.6,0,1.1-0.3,1.4-0.7c0.7-1.1,1.5-2.1,2.4-3c3.6-3.8,8.4-5.7,13.1-5.7c4.7,0,9.5,1.9,13.1,5.7
		c3.6,3.8,5.5,8.8,5.5,13.8c0,5-1.8,10-5.4,13.7v0L51.4,76.2L24.9,49.8h-4.5l29.9,29.8c0.3,0.3,0.7,0.5,1.1,0.5
		c0.4,0,0.8-0.2,1.1-0.5l31.1-30.9l-1.1-1.1l1.2,1.1C87.9,44.1,90,38.4,90,32.6z"/>
	<path class="st2" d="M25.4,49.8h10c0.7,0,1.4-0.5,1.6-1.2l4.9-18l8.1,30.8c0.2,0.7,0.7,1.1,1.4,1.2c0,0,0.1,0,0.1,0
		c0.6,0,1.2-0.4,1.5-1l8.3-19.1l3.3,6.5c0.3,0.5,0.8,0.9,1.4,0.9h6.4c0.9,0,1.6-0.7,1.6-1.6c0-0.9-0.7-1.6-1.6-1.6h-5.4l-4.4-8.7
		C62.2,37.4,61.6,37,61,37c-0.6,0-1.2,0.4-1.4,1l-7.8,18l-8.5-32.1c-0.2-0.7-0.8-1.2-1.6-1.2c-0.7,0-1.4,0.5-1.6,1.2l-6.1,22.7H22.8
		h-1h-4.2H1.6c-0.9,0-1.6,0.7-1.6,1.6c0,0.9,0.7,1.6,1.6,1.6h18.8h4.5H25.4z"/>
</g>
</svg>
