<?xml version="1.0" encoding="utf-8"?>
<!-- Generator: Adobe Illustrator 22.1.0, SVG Export Plug-In . SVG Version: 6.00 Build 0)  -->
<svg version="1.1" id="Layer_1" xmlns="http://www.w3.org/2000/svg" xmlns:xlink="http://www.w3.org/1999/xlink" x="0px" y="0px"
	 viewBox="0 0 90 90" style="enable-background:new 0 0 90 90;" xml:space="preserve">
<style type="text/css">
	.st0{fill:#0A3254;}
	.st1{fill:#F05133;}
</style>
<title>long-service-rewards</title>
<g>
	<g>
		<g>
			<g>
				<path class="st0" d="M75.3,80.9L65,60.4l-2.4-4.8l-0.6,4.9l2.1,4.3l7.8,15.7l-6.4-1c-0.8-0.1-1.5,0.3-1.9,0.9l-3.1,5.7L51.1,67
					l-1.4-2.9l-1.8,2.4l1.4,2.9L59.1,89c0.7,1.3,2.5,1.3,3.2,0.1l3.6-6.7l7.5,1.1C74.8,83.7,75.9,82.2,75.3,80.9z"/>
			</g>
			<g>
				<path class="st0" d="M41.2,62.9l-1.4,2.9L29.6,86.2l-3.1-5.7c-0.4-0.7-1.1-1-1.9-0.9l-6.4,1l8.8-17.7l2.2-4.5L28.1,55L28,55
					l-1.6,3.3L15.1,80.9c-0.7,1.3,0.4,2.8,1.9,2.6l7.5-1.1l3.6,6.7c0.7,1.3,2.6,1.3,3.2-0.1l10.4-20.9l1.4-2.9L41.2,62.9z"/>
			</g>
		</g>
	</g>
	<path class="st0" d="M78.5,30.6l-5.4-4.5l1.9-6.8c0.6-2.2-0.8-4.5-3.1-4.9l-6.9-1.2l-1.8-6.8C62.6,4.2,60.2,3,58,3.7l-6.6,2.4
		l-4.9-5c-1.6-1.6-4.3-1.5-5.8,0.2l-4.5,5.4l-6.8-1.9C27.2,4.3,25,5.8,24.6,8l-1.2,6.9l-6.8,1.8c-2.2,0.6-3.5,2.9-2.7,5.1l2.4,6.6
		l-5,4.9c-1.6,1.6-1.5,4.3,0.2,5.8l5.4,4.5l-1.9,6.8c-0.6,2.2,0.8,4.5,3.1,4.9l6.9,1.2l1.8,6.8c0.6,2.2,2.9,3.5,5.1,2.7l6.6-2.4
		l4.9,5c1.6,1.6,4.3,1.5,5.8-0.2l4.5-5.4l6.8,1.9c2.2,0.6,4.5-0.8,4.9-3.1l1.2-6.9l6.8-1.8c2.2-0.6,3.5-2.9,2.7-5.1l-2.4-6.6l5-4.9
		C80.3,34.7,80.2,32.1,78.5,30.6z M63.1,52.3L61.8,60c-0.1,0.6-0.7,0.9-1.2,0.8L53,58.7c-0.4-0.1-0.8,0-1,0.3l-5,6
		c-0.4,0.4-1,0.5-1.4,0.1L40,59.5c-0.3-0.3-0.7-0.4-1-0.2L31.6,62c-0.5,0.2-1.1-0.1-1.3-0.7l-2-7.6c-0.1-0.4-0.4-0.6-0.8-0.7
		l-7.7-1.4c-0.6-0.1-0.9-0.7-0.8-1.2l2.1-7.6c0.1-0.4,0-0.8-0.3-1l-6-5c-0.4-0.4-0.5-1-0.1-1.4l6-6l-2.9-7.9
		c-0.2-0.5,0.1-1.1,0.7-1.3l7.6-2c0.4-0.1,0.6-0.4,0.7-0.8l1.4-7.7c0.1-0.6,0.7-0.9,1.2-0.8L37,11c0.4,0.1,0.8,0,1-0.3l5-6
		c0.4-0.4,1-0.5,1.4-0.1l5.5,5.6c0.3,0.3,0.7,0.4,1,0.2l7.4-2.7c0.5-0.2,1.1,0.1,1.3,0.7l2,7.6c0.1,0.4,0.4,0.6,0.8,0.7l7.7,1.4
		c0.6,0.1,0.9,0.7,0.8,1.2l-2.1,7.6c-0.1,0.4,0,0.8,0.3,1l6,5c0.4,0.4,0.5,1,0.1,1.4l-5.6,5.5c-0.3,0.3-0.4,0.7-0.2,1l2.7,7.4
		c0.2,0.5-0.1,1.1-0.7,1.3l-7.6,2C63.5,51.6,63.2,51.9,63.1,52.3z"/>
	<path class="st1" d="M64.6,32.4l-3.1-2.6l1.1-4c0.4-1.3-0.5-2.6-1.8-2.8l-4-0.7l-1-4c-0.3-1.3-1.7-2-3-1.6l-3.9,1.4l-2.9-2.9
		c-0.9-1-2.5-0.9-3.4,0.1l-2.6,3.1l-4-1.1c-1.3-0.4-2.6,0.5-2.8,1.8l-0.7,4l-4,1c-1.3,0.3-2,1.7-1.6,3l1.4,3.9L25.3,34
		c-1,0.9-0.9,2.5,0.1,3.4l3.1,2.6l-1.1,4c-0.4,1.3,0.5,2.6,1.8,2.8l4,0.7l1,4c0.3,1.3,1.7,2,3,1.6l3.9-1.4l2.9,2.9
		c0.9,1,2.5,0.9,3.4-0.1l2.6-3.1l4,1.1c1.3,0.4,2.6-0.5,2.8-1.8l0.7-4l4-1c1.3-0.3,2-1.7,1.6-3l-1.4-3.9l2.9-2.9
		C65.7,34.8,65.6,33.2,64.6,32.4z M55.6,45l-0.8,4.5c-0.1,0.3-0.4,0.5-0.7,0.5l-4.4-1.2c-0.2-0.1-0.4,0-0.6,0.2l-2.9,3.5
		c-0.2,0.3-0.6,0.3-0.8,0l-3.2-3.3c-0.2-0.2-0.4-0.2-0.6-0.1l-4.3,1.6c-0.3,0.1-0.7-0.1-0.7-0.4l-1.2-4.4c-0.1-0.2-0.2-0.4-0.5-0.4
		l-4.5-0.8c-0.3-0.1-0.5-0.4-0.5-0.7l1.2-4.4c0.1-0.2,0-0.4-0.2-0.6L27.4,36c-0.3-0.2-0.3-0.6,0-0.8l3.5-3.5l-1.7-4.6
		c-0.1-0.3,0.1-0.7,0.4-0.7l4.4-1.2c0.2-0.1,0.4-0.2,0.4-0.5l0.8-4.5c0.1-0.3,0.4-0.5,0.7-0.5l4.4,1.2c0.2,0.1,0.4,0,0.6-0.2
		l2.9-3.5c0.2-0.3,0.6-0.3,0.8,0l3.2,3.3c0.2,0.2,0.4,0.2,0.6,0.1l4.3-1.6c0.3-0.1,0.7,0.1,0.7,0.4l1.2,4.4c0.1,0.2,0.2,0.4,0.5,0.4
		l4.5,0.8c0.3,0.1,0.5,0.4,0.5,0.7l-1.2,4.4c-0.1,0.2,0,0.4,0.2,0.6l3.5,2.9c0.3,0.2,0.3,0.6,0,0.8l-3.3,3.2
		c-0.2,0.2-0.2,0.4-0.1,0.6l1.6,4.3c0.1,0.3-0.1,0.7-0.4,0.7L56,44.6C55.8,44.6,55.6,44.8,55.6,45z"/>
</g>
</svg>
