<?xml version="1.0" encoding="utf-8"?>
<!-- Generator: Adobe Illustrator 21.0.2, SVG Export Plug-In . SVG Version: 6.00 Build 0)  -->
<svg version="1.1" id="Layer_1" xmlns="http://www.w3.org/2000/svg" xmlns:xlink="http://www.w3.org/1999/xlink" x="0px" y="0px"
	 viewBox="0 0 90 90" style="enable-background:new 0 0 90 90;" xml:space="preserve">
<style type="text/css">
	.st0{fill:#0A3254;}
	.st1{fill:#F05133;}
</style>
<g>
	<path class="st0" d="M44.1,46.4H13.8c-1.3,0-2.3,1-2.3,2.3c0,1.2,1,2.3,2.3,2.3h30.3c1.3,0,2.3-1,2.3-2.3
		C46.4,47.4,45.4,46.4,44.1,46.4z M13.3,25.7h63.4c0.8,0,1.4-0.6,1.4-1.3c0-0.7-0.6-1.4-1.4-1.4H13.3c-0.8,0-1.4,0.6-1.4,1.4
		C12,25.1,12.6,25.7,13.3,25.7z M13.3,33.2h63.4c0.8,0,1.4-0.6,1.4-1.4c0-0.7-0.6-1.3-1.4-1.3H13.3c-0.8,0-1.4,0.6-1.4,1.3
		C12,32.6,12.6,33.2,13.3,33.2z M44.1,57.5H13.8c-1.3,0-2.3,1-2.3,2.3c0,1.2,1,2.3,2.3,2.3h30.3c1.3,0,2.3-1,2.3-2.3
		C46.4,58.5,45.4,57.5,44.1,57.5z M85,9H5c-2.8,0-5,2.2-5,4.9v62.1C0,78.8,2.2,81,5,81h80c2.8,0,5-2.2,5-4.9V13.9
		C90,11.2,87.8,9,85,9z M85.5,76.1c0,0.2-0.2,0.4-0.5,0.4H5c-0.3,0-0.5-0.2-0.5-0.4V13.9c0-0.2,0.2-0.4,0.5-0.4h80
		c0.3,0,0.5,0.2,0.5,0.4V76.1z"/>
	<g>
		<path class="st1" d="M79.2,52c0-1.1-0.6-2.1-1.5-2.7L77.3,49l0.2-0.4c0.4-1,0.4-2.2-0.2-3.1c-0.6-0.9-1.6-1.5-2.7-1.6l-0.4,0
			l0-0.4c-0.1-1.1-0.8-2.1-1.8-2.6c-0.5-0.3-1-0.4-1.6-0.4c-0.5,0-1.1,0.1-1.5,0.4l-0.4,0.2l-0.3-0.3c-0.6-0.9-1.7-1.4-2.7-1.4
			l-0.1,0c-1.1,0-2.1,0.6-2.7,1.5l-0.2,0.4l-0.4-0.2c-0.4-0.2-0.9-0.3-1.4-0.3c-0.6,0-1.2,0.2-1.8,0.5c-0.9,0.6-1.5,1.6-1.6,2.7
			l0,0.4l-0.4,0c-1.1,0.1-2.1,0.8-2.6,1.7c-0.5,1-0.5,2.1,0,3.1l0.2,0.4L54.3,50c-0.9,0.7-1.4,1.7-1.4,2.8c0,1.1,0.6,2.1,1.5,2.7
			l0.4,0.2l-0.2,0.4c-0.4,1-0.4,2.2,0.2,3.1c0.6,0.9,1.6,1.5,2.7,1.6l0.4,0l0,0.4c0.1,0.6,0.3,1.1,0.6,1.5l-2.4,5.5
			c-0.1,0.3-0.1,0.7,0.1,1c0.2,0.3,0.5,0.4,0.9,0.4c0,0,0.1,0,0.1,0l1.5-0.1c0.1,0,0.2,0.1,0.3,0.1l0.9,1.2c0.2,0.3,0.5,0.4,0.8,0.4
			c0,0,0.1,0,0.1,0c0.4,0,0.7-0.3,0.8-0.6l2.6-5.9c0.6,0.4,1.2,0.6,1.9,0.6l0.1,0c0.5,0,0.9-0.1,1.4-0.3l2.5,5.6
			c0.2,0.3,0.5,0.6,0.8,0.6c0,0,0.1,0,0.1,0c0.3,0,0.6-0.2,0.8-0.4l0.9-1.2c0.1-0.1,0.2-0.1,0.3-0.1l1.5,0.1c0,0,0.1,0,0.1,0
			c0.3,0,0.7-0.2,0.9-0.4c0.2-0.3,0.3-0.7,0.1-1L73.6,63c0.6-0.6,1-1.4,1-2.2l0-0.4l0.4,0c1.1-0.1,2.1-0.8,2.6-1.7
			c0.5-1,0.5-2.1,0-3.1L77.5,55l0.3-0.3C78.7,54.1,79.2,53.1,79.2,52z M76.4,52.9l-1.9,1.4l1.1,2.1c0.2,0.3,0.2,0.7,0,1
			c-0.2,0.3-0.5,0.5-0.8,0.5l-2.4,0.3l-0.1,2.4c0,0.3-0.2,0.7-0.5,0.8c-0.2,0.1-0.4,0.2-0.6,0.2c-0.1,0-0.3,0-0.4-0.1l-2.2-1l-1.3,2
			c-0.2,0.3-0.5,0.5-0.9,0.5c0,0,0,0,0,0c-0.3,0-0.7-0.2-0.9-0.4l-1.4-1.9l-2.1,1.1c-0.2,0.1-0.3,0.1-0.5,0.1c-0.2,0-0.3,0-0.5-0.1
			c-0.3-0.2-0.5-0.5-0.6-0.8l-0.3-2.4l-2.4-0.1c-0.3,0-0.7-0.2-0.9-0.5c-0.2-0.3-0.2-0.7-0.1-1l1-2.2l-2-1.3
			c-0.3-0.2-0.5-0.5-0.5-0.9c0-0.3,0.2-0.7,0.4-0.9l1.9-1.4l-1.1-2.1c-0.2-0.3-0.2-0.7,0-1c0.2-0.3,0.5-0.5,0.8-0.5l2.4-0.3l0.1-2.4
			c0-0.3,0.2-0.7,0.5-0.8c0.2-0.1,0.4-0.2,0.6-0.2c0.1,0,0.3,0,0.4,0.1l2.2,1l1.3-2c0.2-0.3,0.5-0.5,0.9-0.5c0,0,0,0,0,0
			c0.3,0,0.7,0.2,0.9,0.4l1.4,1.9l2.1-1.1c0.2-0.1,0.3-0.1,0.5-0.1c0.2,0,0.3,0,0.5,0.1c0.3,0.2,0.5,0.5,0.6,0.8l0.3,2.4l2.4,0.1
			c0.3,0,0.7,0.2,0.9,0.5c0.2,0.3,0.2,0.7,0.1,1l-1,2.2l2,1.3c0.3,0.2,0.5,0.5,0.5,0.9C76.9,52.4,76.7,52.7,76.4,52.9z"/>
		<path class="st1" d="M66.1,58.8c-3.5,0-6.4-2.8-6.4-6.3c0-3.5,2.9-6.3,6.4-6.3c3.5,0,6.4,2.8,6.4,6.3
			C72.4,55.9,69.6,58.8,66.1,58.8z"/>
	</g>
</g>
</svg>
