<svg xmlns="http://www.w3.org/2000/svg" xmlns:xlink="http://www.w3.org/1999/xlink" viewBox="0 0 365.87 337.77"><defs><style>.cls-1,.cls-12,.cls-13,.cls-14,.cls-15,.cls-16,.cls-17,.cls-18,.cls-19,.cls-20,.cls-21,.cls-22,.cls-23,.cls-24,.cls-25,.cls-30,.cls-32,.cls-34,.cls-35,.cls-4,.cls-5,.cls-6,.cls-7,.cls-8,.cls-9{opacity:0.5;}.cls-1,.cls-10,.cls-12,.cls-13,.cls-14,.cls-15,.cls-16,.cls-17,.cls-18,.cls-19,.cls-20,.cls-22,.cls-23,.cls-24,.cls-25,.cls-27,.cls-28,.cls-30,.cls-32,.cls-34,.cls-35,.cls-4,.cls-5,.cls-6,.cls-7,.cls-8,.cls-9{isolation:isolate;}.cls-1{fill:url(#linear-gradient);}.cls-2{fill:#fff;}.cls-3{fill:#f5f5f5;}.cls-4{fill:url(#linear-gradient-2);}.cls-5{fill:url(#linear-gradient-3);}.cls-6{fill:url(#linear-gradient-4);}.cls-7{fill:url(#linear-gradient-5);}.cls-8{fill:url(#linear-gradient-6);}.cls-9{fill:url(#linear-gradient-7);}.cls-10,.cls-11{fill:#0a3254;}.cls-12{fill:url(#linear-gradient-8);}.cls-13{fill:url(#linear-gradient-9);}.cls-14{fill:url(#linear-gradient-10);}.cls-15{fill:url(#linear-gradient-11);}.cls-16{fill:url(#linear-gradient-12);}.cls-17{fill:url(#linear-gradient-13);}.cls-18{fill:url(#linear-gradient-14);}.cls-19{fill:url(#linear-gradient-15);}.cls-20{fill:url(#linear-gradient-16);}.cls-21,.cls-22{fill:#bf1919;}.cls-23{fill:#3ad29f;}.cls-24{fill:#e09612;}.cls-25{fill:url(#linear-gradient-17);}.cls-26{fill:#e6e6e6;}.cls-27{opacity:0.03;}.cls-28{opacity:0.05;}.cls-29{fill:url(#linear-gradient-18);}.cls-30{fill:url(#linear-gradient-19);}.cls-31{fill:url(#linear-gradient-20);}.cls-32{fill:url(#linear-gradient-21);}.cls-33{fill:url(#linear-gradient-22);}.cls-34{fill:url(#linear-gradient-23);}.cls-35,.cls-38{fill:none;stroke-miterlimit:10;stroke-width:3px;}.cls-35{stroke:#0a3254;stroke-dasharray:12;}.cls-36{fill:url(#linear-gradient-24);}.cls-37{fill:#333;}.cls-38{stroke:#333;}.cls-39{fill:url(#linear-gradient-25);}.cls-40{fill:url(#linear-gradient-26);}.cls-41{fill:url(#linear-gradient-27);}</style><linearGradient id="linear-gradient" x1="182.94" y1="-4549.54" x2="182.94" y2="-4327.41" gradientTransform="matrix(1, 0, 0, -1, 0, -4269.59)" gradientUnits="userSpaceOnUse"><stop offset="0" stop-color="gray" stop-opacity="0.25"/><stop offset="0.54" stop-color="gray" stop-opacity="0.12"/><stop offset="1" stop-color="gray" stop-opacity="0.1"/></linearGradient><linearGradient id="linear-gradient-2" x1="112.96" y1="-4380.01" x2="112.96" y2="-4358.37" xlink:href="#linear-gradient"/><linearGradient id="linear-gradient-3" x1="55.52" y1="-4409.15" x2="55.52" y2="-4387.51" xlink:href="#linear-gradient"/><linearGradient id="linear-gradient-4" x1="178.12" y1="-4438.73" x2="178.12" y2="-4417.09" xlink:href="#linear-gradient"/><linearGradient id="linear-gradient-5" x1="91.1" y1="-4467.88" x2="91.1" y2="-4446.24" xlink:href="#linear-gradient"/><linearGradient id="linear-gradient-6" x1="34.95" y1="-4497.03" x2="34.95" y2="-4475.39" xlink:href="#linear-gradient"/><linearGradient id="linear-gradient-7" x1="148.54" y1="-4526.17" x2="148.54" y2="-4504.54" xlink:href="#linear-gradient"/><linearGradient id="linear-gradient-8" x1="247.42" y1="-4464.64" x2="247.42" y2="-4444.78" xlink:href="#linear-gradient"/><linearGradient id="linear-gradient-9" x1="286.75" y1="-4464.64" x2="286.75" y2="-4444.78" xlink:href="#linear-gradient"/><linearGradient id="linear-gradient-10" x1="326.08" y1="-4464.64" x2="326.08" y2="-4444.78" xlink:href="#linear-gradient"/><linearGradient id="linear-gradient-11" x1="247.42" y1="-4494.83" x2="247.42" y2="-4474.96" xlink:href="#linear-gradient"/><linearGradient id="linear-gradient-12" x1="286.75" y1="-4494.83" x2="286.75" y2="-4474.96" xlink:href="#linear-gradient"/><linearGradient id="linear-gradient-13" x1="326.08" y1="-4494.83" x2="326.08" y2="-4474.96" xlink:href="#linear-gradient"/><linearGradient id="linear-gradient-14" x1="247.42" y1="-4525.01" x2="247.42" y2="-4505.14" xlink:href="#linear-gradient"/><linearGradient id="linear-gradient-15" x1="286.75" y1="-4525.01" x2="286.75" y2="-4505.14" xlink:href="#linear-gradient"/><linearGradient id="linear-gradient-16" x1="326.08" y1="-4525.01" x2="326.08" y2="-4505.14" xlink:href="#linear-gradient"/><linearGradient id="linear-gradient-17" x1="198.69" y1="-4629.33" x2="350.21" y2="-4629.33" gradientTransform="matrix(1, 0, 0, -1, -173.22, -4327.59)" xlink:href="#linear-gradient"/><linearGradient id="linear-gradient-18" x1="297.27" y1="-4315.22" x2="297.27" y2="-4285.03" xlink:href="#linear-gradient"/><linearGradient id="linear-gradient-19" x1="470.49" y1="-4360.11" x2="470.49" y2="-4356.15" gradientTransform="matrix(1, 0, 0, -1, -173.22, -4327.59)" xlink:href="#linear-gradient"/><linearGradient id="linear-gradient-20" x1="266.63" y1="-4315.22" x2="266.63" y2="-4285.03" xlink:href="#linear-gradient"/><linearGradient id="linear-gradient-21" x1="439.85" y1="-4360.11" x2="439.85" y2="-4356.15" gradientTransform="matrix(1, 0, 0, -1, -173.22, -4327.59)" xlink:href="#linear-gradient"/><linearGradient id="linear-gradient-22" x1="279.43" y1="-4313.85" x2="279.43" y2="-4283.66" xlink:href="#linear-gradient"/><linearGradient id="linear-gradient-23" x1="452.65" y1="-4358.74" x2="452.65" y2="-4354.78" gradientTransform="matrix(1, 0, 0, -1, -173.22, -4327.59)" xlink:href="#linear-gradient"/><linearGradient id="linear-gradient-24" x1="264.68" y1="-4384.48" x2="264.68" y2="-4350.93" xlink:href="#linear-gradient"/><linearGradient id="linear-gradient-25" x1="308.83" y1="-4384.48" x2="308.83" y2="-4350.93" xlink:href="#linear-gradient"/><linearGradient id="linear-gradient-26" x1="264.68" y1="-4423.92" x2="264.68" y2="-4390.36" xlink:href="#linear-gradient"/><linearGradient id="linear-gradient-27" x1="308.83" y1="-4423.92" x2="308.83" y2="-4390.36" xlink:href="#linear-gradient"/></defs><title>fmea-illustration</title><g id="Layer_2" data-name="Layer 2"><g id="Layer_1-2" data-name="Layer 1"><rect class="cls-1" y="57.82" width="365.87" height="222.13"/><rect class="cls-2" x="3.2" y="61.64" width="359.47" height="214.49"/><rect class="cls-3" x="19.67" y="96.4" width="187.05" height="6.4"/><circle class="cls-4" cx="112.96" cy="99.6" r="10.82"/><circle class="cls-5" cx="55.52" cy="128.75" r="10.82"/><circle class="cls-6" cx="178.12" cy="158.32" r="10.82"/><circle class="cls-7" cx="91.1" cy="187.47" r="10.82"/><circle class="cls-8" cx="34.95" cy="216.62" r="10.82"/><circle class="cls-9" cx="148.54" cy="245.77" r="10.82"/><circle class="cls-10" cx="112.96" cy="99.6" r="8.23"/><rect class="cls-3" x="19.67" y="125.67" width="187.05" height="6.4"/><circle class="cls-10" cx="55.34" cy="128.87" r="8.23"/><rect class="cls-3" x="19.67" y="154.94" width="187.05" height="6.4"/><circle class="cls-11" cx="177.9" cy="158.14" r="8.23"/><rect class="cls-3" x="19.67" y="184.21" width="187.05" height="6.4"/><circle class="cls-11" cx="91.01" cy="187.41" r="8.23"/><rect class="cls-3" x="19.67" y="213.48" width="187.05" height="6.4"/><circle class="cls-10" cx="34.76" cy="216.68" r="8.23"/><rect class="cls-3" x="19.67" y="242.75" width="187.05" height="6.4"/><circle class="cls-11" cx="148.64" cy="245.95" r="8.23"/><rect class="cls-12" x="232.78" y="175.19" width="29.27" height="19.86"/><rect class="cls-13" x="272.12" y="175.19" width="29.27" height="19.86"/><rect class="cls-14" x="311.45" y="175.19" width="29.27" height="19.86"/><rect class="cls-15" x="232.78" y="205.38" width="29.27" height="19.86"/><rect class="cls-16" x="272.12" y="205.38" width="29.27" height="19.86"/><rect class="cls-17" x="311.45" y="205.38" width="29.27" height="19.86"/><rect class="cls-18" x="232.78" y="235.56" width="29.27" height="19.86"/><rect class="cls-19" x="272.12" y="235.56" width="29.27" height="19.86"/><rect class="cls-20" x="311.45" y="235.56" width="29.27" height="19.86"/><rect class="cls-21" x="234.61" y="176.43" width="25.61" height="17.38"/><rect class="cls-21" x="273.95" y="176.43" width="25.61" height="17.38"/><rect class="cls-22" x="313.28" y="176.43" width="25.61" height="17.38"/><rect class="cls-23" x="234.61" y="206.62" width="25.61" height="17.38"/><rect class="cls-24" x="273.95" y="206.62" width="25.61" height="17.38"/><rect class="cls-22" x="313.28" y="206.62" width="25.61" height="17.38"/><rect class="cls-23" x="234.61" y="236.8" width="25.61" height="17.38"/><rect class="cls-23" x="273.95" y="236.8" width="25.61" height="17.38"/><rect class="cls-23" x="313.28" y="236.8" width="25.61" height="17.38"/><path class="cls-25" d="M160.07,294c-2.57,0-4.48.43-5.83,2.79H99.09v-5.95c0-1.54-2-1-3.27-1H94.75c-1.29,0-2.36-.58-2.36,1v1.33H30.46c-3.21,0-4.48,2.81-4.92,6.47a2.4,2.4,0,0,0,0-.28c0,.26,0,.53,0,.79v4c0,4.17,1.48,7.54,5,7.54H92.39v2c0,1.54,1.06,1,2.36,1h1.08c1.28,0,3.27.57,3.27-1v-5.86h55.48a8.41,8.41,0,0,0,.83,1c2.37,1.21,2.41,1.47,4.58,1.47l17-.68V294.91Z"/><rect class="cls-26" x="71.34" y="297.63" width="85.06" height="8.23"/><path class="cls-27" d="M153.61,301.74h0a7.23,7.23,0,0,0,1.29,4.12H156v-8.23H154.9A7.2,7.2,0,0,0,153.61,301.74Z"/><path class="cls-26" d="M176.53,307.34l-15.16,1.71a7.28,7.28,0,0,1-7.29-7.28h0a7.29,7.29,0,0,1,7.29-7.29h0l15.16,1.68Z"/><path class="cls-28" d="M154.88,303.12h-84v2.28h84a7.29,7.29,0,0,0,6,3.19l15.17-1.68v-2.28l-15.17,1.68A7.32,7.32,0,0,1,154.88,303.12Z"/><path class="cls-11" d="M32.15,293.85H93.78V309H32.15a5.78,5.78,0,0,1-5.79-5.78v-3.61A5.79,5.79,0,0,1,32.15,293.85Z"/><rect class="cls-11" x="92.66" y="290.48" width="5.62" height="22.47" rx="2.14" ry="2.14"/><rect class="cls-28" x="91.54" y="293.85" width="1.12" height="15.17"/><rect class="cls-28" x="35.93" y="296.66" width="51.67" height="1.12"/><rect class="cls-28" x="35.93" y="300.59" width="51.67" height="1.12"/><rect class="cls-28" x="35.93" y="304.52" width="51.67" height="1.12"/><path class="cls-28" d="M96,308.37H95a2.29,2.29,0,0,1-2.29-2.28h0v-1.65H32.56a6.17,6.17,0,0,1-6.14-5.52,4.63,4.63,0,0,0,0,.65v2.81a6.18,6.18,0,0,0,6.18,6.18h60.1v1.64a2.29,2.29,0,0,0,2.28,2.29h1a2.29,2.29,0,0,0,2.28-2.29h0v-4.11A2.28,2.28,0,0,1,96,308.37Z"/><polygon class="cls-29" points="297.27 15.45 285.48 22.26 285.48 25.2 285.48 35.88 285.48 38.83 297.27 45.63 309.06 38.83 309.06 35.88 309.06 25.2 309.06 22.26 297.27 15.45"/><path class="cls-30" d="M297.27,32.52a3.46,3.46,0,0,1-3.13-2,3.46,3.46,0,0,1,4.61-1.64,3.42,3.42,0,0,1,1.65,1.64A3.46,3.46,0,0,1,297.27,32.52Z"/><path class="cls-26" d="M297.27,19.24l-11,6.33V38.25l11,6.33,11-6.34V25.58Zm0,15.86a3.21,3.21,0,1,1,3.2-3.2h0a3.19,3.19,0,0,1-3.18,3.21h0Z"/><path class="cls-2" d="M297.27,16.49l-11,6.34V35.5l11,6.34,11-6.34V22.83Zm0,15.86a3.2,3.2,0,1,1,3.2-3.2,3.2,3.2,0,0,1-3.2,3.2h0Z"/><polygon class="cls-31" points="266.63 15.45 254.83 22.26 254.83 25.2 254.83 35.88 254.83 38.83 266.63 45.63 278.42 38.83 278.42 35.88 278.42 25.2 278.42 22.26 266.63 15.45"/><path class="cls-32" d="M266.63,32.52a3.46,3.46,0,0,1-3.13-2,3.46,3.46,0,0,1,4.61-1.64,3.42,3.42,0,0,1,1.65,1.64A3.46,3.46,0,0,1,266.63,32.52Z"/><path class="cls-26" d="M266.63,19.24l-11,6.33V38.25l11,6.33,11-6.34V25.58Zm0,15.86a3.21,3.21,0,1,1,3.2-3.2h0a3.19,3.19,0,0,1-3.18,3.21h0Z"/><path class="cls-2" d="M266.63,16.49l-11,6.34V35.5l11,6.34,11-6.34V22.83Zm0,15.86a3.2,3.2,0,1,1,3.2-3.2h0a3.2,3.2,0,0,1-3.18,3.22h0Z"/><polygon class="cls-33" points="279.43 14.08 267.64 20.89 267.64 23.83 267.64 34.51 267.64 37.45 279.43 44.26 291.23 37.45 291.23 34.51 291.23 23.83 291.23 20.89 279.43 14.08"/><path class="cls-34" d="M279.43,31.15a3.48,3.48,0,0,1-3.13-2,3.46,3.46,0,0,1,6.26,0A3.46,3.46,0,0,1,279.43,31.15Z"/><path class="cls-26" d="M279.43,17.87l-11,6.33V36.86l11,6.34,11-6.34V24.21Zm0,15.86a3.21,3.21,0,1,1,3.21-3.21h0a3.21,3.21,0,0,1-3.19,3.22h0Z"/><path class="cls-2" d="M279.43,15.12l-11,6.34V34.13l11,6.34,11-6.34V21.46Zm0,15.86a3.2,3.2,0,1,1,3.21-3.2h0A3.21,3.21,0,0,1,279.45,31h0Z"/><polyline class="cls-35" points="69.06 44.72 69.06 8.13 220.89 8.13"/><circle class="cls-35" cx="235.76" cy="7.9" r="6.4"/><polyline class="cls-35" points="348.49 293.05 348.49 329.64 196.65 329.64"/><circle class="cls-35" cx="181.79" cy="329.87" r="6.4"/><circle class="cls-36" cx="264.68" cy="98.12" r="16.78"/><circle class="cls-2" cx="264.68" cy="98.12" r="15.73"/><circle class="cls-37" cx="264.68" cy="98.12" r="1.05"/><line class="cls-38" x1="264.68" y1="98.12" x2="274.11" y2="88.68"/><path class="cls-28" d="M267.4,97.7a15.73,15.73,0,0,0,7.05,13.11,15.73,15.73,0,0,0,2.93-22,15.92,15.92,0,0,0-3.81-3.56A15.73,15.73,0,0,0,267.4,97.7Z"/><circle class="cls-39" cx="308.83" cy="98.12" r="16.78"/><circle class="cls-2" cx="308.83" cy="98.12" r="15.73"/><circle class="cls-37" cx="308.83" cy="98.12" r="1.05"/><line class="cls-38" x1="308.83" y1="98.12" x2="318.26" y2="88.68"/><path class="cls-28" d="M311.55,97.7a15.73,15.73,0,0,0,7.05,13.11,15.73,15.73,0,0,0,2.93-22,15.92,15.92,0,0,0-3.81-3.56A15.73,15.73,0,0,0,311.55,97.7Z"/><circle class="cls-40" cx="264.68" cy="137.55" r="16.78"/><circle class="cls-2" cx="264.68" cy="137.55" r="15.73"/><circle class="cls-37" cx="264.68" cy="137.55" r="1.05"/><line class="cls-38" x1="264.68" y1="137.55" x2="254.65" y2="147.58"/><path class="cls-28" d="M267.4,137.13a15.72,15.72,0,0,0,7.05,13.11,15.71,15.71,0,0,0-.88-25.59A15.71,15.71,0,0,0,267.4,137.13Z"/><circle class="cls-41" cx="308.83" cy="137.55" r="16.78"/><circle class="cls-2" cx="308.83" cy="137.55" r="15.73"/><circle class="cls-37" cx="308.83" cy="137.55" r="1.05"/><line class="cls-38" x1="308.83" y1="137.55" x2="318.26" y2="128.12"/><path class="cls-28" d="M311.55,137.13a15.72,15.72,0,0,0,7.05,13.11,15.71,15.71,0,0,0-.88-25.59A15.71,15.71,0,0,0,311.55,137.13Z"/></g></g></svg>