<svg xmlns="http://www.w3.org/2000/svg" viewBox="0 0 36 36"><defs><style>.cls-1{fill:#fff;}.cls-2{fill:#0a3254;}</style></defs><title>ppap-icon</title><g id="Layer_2" data-name="Layer 2"><g id="Layer_1-2" data-name="Layer 1"><circle class="cls-1" cx="18" cy="18" r="18"/><g id="_Group_" data-name="&lt;Group&gt;"><g id="_Group_2" data-name="&lt;Group&gt;"><g id="_Group_3" data-name="&lt;Group&gt;"><polygon class="cls-2" points="18 17.64 18 17.64 18 17.64 18 17.64"/><polygon class="cls-2" points="18 17.64 18 17.64 18 17.64 18 17.64"/></g><g id="_Group_4" data-name="&lt;Group&gt;"><path class="cls-2" d="M18,17.64Z"/><path class="cls-2" d="M18,5.42,7,11.71V24.29l11,6.29,11-6.29V11.71Zm-.8,2.29.42-.24.14-.08L18,7.26l.24.13.14.08.42.24,7.76,4.44-4.51,2.41-3.26-1.77L18,12.37h0l-.77.42L14,14.56,9.44,12.15Zm0,20.58L9.45,23.86,9,23.61l-.2-.11h0l-.23-.13V13.5L13.2,16V21l0,0,.66.36,3.31,1.81Zm0-6.89-2.41-1.32V16.82l2.41,1.29Zm.8-3.76Zm-2.37-2.18L18,14.17l2.37,1.29L18,16.73Zm5.58,1.36v3.26L18.8,21.4V18.11Zm6.2,6.55-.23.13h0l-.2.11-.43.25L18.8,28.29V23.21l3.3-1.8.67-.37,0,0V16l4.6-2.46Z"/><polygon class="cls-2" points="18 17.64 18 17.64 18 17.64 18 17.64"/><polygon class="cls-2" points="18 17.64 18 17.64 18 17.64 18 17.64"/></g><g id="_Group_5" data-name="&lt;Group&gt;"><polygon class="cls-2" points="18 17.64 18 17.64 18 17.64 18 17.64"/><polygon class="cls-2" points="18 17.64 18 17.64 18 17.64 18 17.64"/></g></g><g id="_Group_6" data-name="&lt;Group&gt;"><g id="_Group_7" data-name="&lt;Group&gt;"><g id="_Group_8" data-name="&lt;Group&gt;"><path id="_Compound_Path_" data-name="&lt;Compound Path&gt;" class="cls-2" d="M23.63,21l-.35.66.63.34.35-.67Zm1.27.67-.35.67.64.33.35-.66Zm1.88,1-.61-.32-.35.67.53.28.11.06.09-.17h0l.23-.44,0-.06Z"/></g></g><g id="_Group_9" data-name="&lt;Group&gt;"><g id="_Group_10" data-name="&lt;Group&gt;"><path id="_Compound_Path_2" data-name="&lt;Compound Path&gt;" class="cls-2" d="M9.9,22.24l-.61.32,0,0,0,.06.23.44h0l.09.17.11-.06.53-.28Zm1.27-.67-.64.34.35.66.64-.33Zm1.27-.67-.63.33.35.67.63-.34Z"/></g></g><g id="_Group_11" data-name="&lt;Group&gt;"><g id="_Group_12" data-name="&lt;Group&gt;"><path id="_Compound_Path_3" data-name="&lt;Compound Path&gt;" class="cls-2" d="M17.62,11.07v.71h.76v-.71Zm0-1.42v.71h.76V9.65Zm0-1.42v.71h.76V8.23Z"/></g></g></g></g></g></g></svg>