<svg xmlns="http://www.w3.org/2000/svg" viewBox="0 0 100 100"><defs><style>.cls-1{fill:#0a3254;}.cls-2{fill:#fff;}.cls-3{fill:#e65133;}</style></defs><title>improved-confidentiality</title><g id="Layer_2" data-name="Layer 2"><g id="Layer_1-2" data-name="Layer 1"><circle class="cls-1" cx="50" cy="50" r="50"/><circle class="cls-2" cx="84.12" cy="87.5" r="10"/><circle class="cls-3" cx="84.12" cy="87.5" r="7.5"/><path class="cls-2" d="M88.76,86a.44.44,0,0,1-.14.27l-2,2L87.07,91s0,.06,0,.11a.32.32,0,0,1-.06.2.19.19,0,0,1-.17.08.53.53,0,0,1-.23-.06l-2.5-1.32-2.51,1.32a.49.49,0,0,1-.22.06.19.19,0,0,1-.18-.08.39.39,0,0,1,0-.2.54.54,0,0,1,0-.11l.48-2.79-2-2a.39.39,0,0,1-.14-.27c0-.14.1-.23.31-.26l2.8-.41,1.26-2.53c.07-.16.16-.23.27-.23s.2.07.27.23l1.26,2.53,2.8.41C88.66,85.78,88.76,85.87,88.76,86Z"/><path class="cls-2" d="M31.13,58.5H34V36.12H31.13Zm14.09,0h2.85V36.12H45.22Zm17.46-23-2.78.63,5,21.82,2.78-.63Z"/><path class="cls-2" d="M37.44,32H27.69a1.19,1.19,0,0,0-1.19,1.2v35.6A1.19,1.19,0,0,0,27.69,70h9.75a1.19,1.19,0,0,0,1.19-1.19V33.21A1.19,1.19,0,0,0,37.44,32ZM36.25,67.62H28.88V34.4h7.37Zm-3.76-3A1.66,1.66,0,1,0,30.83,63,1.66,1.66,0,0,0,32.49,64.63ZM51.52,32H41.77a1.19,1.19,0,0,0-1.19,1.2v35.6A1.19,1.19,0,0,0,41.77,70h9.75a1.19,1.19,0,0,0,1.19-1.19V33.21A1.19,1.19,0,0,0,51.52,32ZM50.33,67.62H43V34.4h7.37Zm-3.75-3A1.66,1.66,0,1,0,44.91,63,1.66,1.66,0,0,0,46.58,64.63Zm27.89,1.75L66.56,31.66a1.2,1.2,0,0,0-.53-.74,1.19,1.19,0,0,0-.9-.15l-9.51,2.16a1.19,1.19,0,0,0-.89,1.43l7.91,34.72A1.18,1.18,0,0,0,63.8,70l.26,0,9.51-2.16a1.15,1.15,0,0,0,.74-.53A1.19,1.19,0,0,0,74.47,66.38Zm-9.78,1L57.31,35l7.19-1.64,7.38,32.4Zm2.87-3.72a1.66,1.66,0,1,0-2-1.25A1.66,1.66,0,0,0,67.56,63.67Z"/></g></g></svg>