<svg xmlns="http://www.w3.org/2000/svg" viewBox="0 0 100 100"><defs><style>.cls-1{fill:#0a3254;}.cls-2{fill:#fff;}.cls-3{fill:#e65133;}</style></defs><title>mitigation-of-risk</title><g id="Layer_2" data-name="Layer 2"><g id="Layer_1-2" data-name="Layer 1"><circle class="cls-1" cx="50" cy="50" r="50"/><circle class="cls-2" cx="84.12" cy="87.5" r="10"/><circle class="cls-3" cx="84.12" cy="87.5" r="7.5"/><path class="cls-2" d="M88.76,86a.44.44,0,0,1-.14.27l-2,2L87.07,91s0,.06,0,.11a.32.32,0,0,1-.06.2.19.19,0,0,1-.17.08.53.53,0,0,1-.23-.06l-2.5-1.32-2.51,1.32a.49.49,0,0,1-.22.06.19.19,0,0,1-.18-.08.39.39,0,0,1,0-.2.54.54,0,0,1,0-.11l.48-2.79-2-2a.39.39,0,0,1-.14-.27c0-.14.1-.23.31-.26l2.8-.41,1.26-2.53c.07-.16.16-.23.27-.23s.2.07.27.23l1.26,2.53,2.8.41C88.66,85.78,88.76,85.87,88.76,86Z"/><path class="cls-2" d="M69.82,35.28H59.71V32a5.79,5.79,0,0,0-5.8-5.78H46.09A5.79,5.79,0,0,0,40.29,32v3.25H30.18A4.19,4.19,0,0,0,26,39.46v29.3a4.18,4.18,0,0,0,4.18,4.18H69.82A4.18,4.18,0,0,0,74,68.76V39.46A4.19,4.19,0,0,0,69.82,35.28ZM42.74,32a3.34,3.34,0,0,1,3.35-3.33h7.82A3.35,3.35,0,0,1,57.26,32v3.25H42.74ZM69.82,70.49H30.18a1.73,1.73,0,0,1-1.73-1.73V53.85a3,3,0,0,0,1.27.31H43.35v-2H29.72a1.7,1.7,0,0,1-1.27-1V39.46a1.74,1.74,0,0,1,1.73-1.73H69.82a1.74,1.74,0,0,1,1.73,1.73V51.15a2,2,0,0,1-1.73,1.05H56.93v2H69.82a3.87,3.87,0,0,0,1.73-.41v15A1.73,1.73,0,0,1,69.82,70.49Z"/><rect class="cls-2" x="45.47" y="49.99" width="9.06" height="6.03"/></g></g></svg>