<svg xmlns="http://www.w3.org/2000/svg" viewBox="0 0 100 100"><defs><style>.cls-1{fill:#0a3254;}.cls-2{fill:#fff;}.cls-3{fill:#e65133;}</style></defs><title>streamline-redaction-process</title><g id="Layer_2" data-name="Layer 2"><g id="Layer_1-2" data-name="Layer 1"><circle class="cls-1" cx="50" cy="50" r="50"/><circle class="cls-2" cx="83.75" cy="87.5" r="10"/><circle class="cls-3" cx="83.75" cy="87.5" r="7.5"/><path class="cls-2" d="M88.39,86a.44.44,0,0,1-.14.27l-2,2L86.7,91a.34.34,0,0,1,0,.11.32.32,0,0,1-.06.2.19.19,0,0,1-.17.08.46.46,0,0,1-.22-.06l-2.51-1.32-2.51,1.32a.49.49,0,0,1-.22.06.17.17,0,0,1-.17-.08.32.32,0,0,1-.06-.2.54.54,0,0,1,0-.11l.48-2.79-2-2a.39.39,0,0,1-.14-.27c0-.14.1-.23.31-.26l2.8-.41,1.26-2.53c.07-.16.16-.23.27-.23s.2.07.27.23l1.26,2.53,2.8.41C88.29,85.78,88.39,85.87,88.39,86Z"/><path class="cls-2" d="M69,36.88,58.46,26.36A1.22,1.22,0,0,0,57.6,26H31.9a1.23,1.23,0,0,0-1.23,1.22V72.78A1.23,1.23,0,0,0,31.9,74H68.1a1.23,1.23,0,0,0,1.23-1.22v-35A1.22,1.22,0,0,0,69,36.88ZM57.84,29.2l8.29,8.31H57.84ZM33.12,71.55V28.45H55.39v9.14A2.37,2.37,0,0,0,57.75,40h9.13V71.55Z"/><path class="cls-2" d="M62,42.26H37.62a.39.39,0,0,0-.39.4V51.2a.38.38,0,0,0,.39.39H62a.39.39,0,0,0,.4-.39V42.66A.4.4,0,0,0,62,42.26Zm-2.29.79L49.8,46.52l-9.88-3.47ZM38,43.21l10.61,3.72L38,50.65Zm1.91,7.6,9.88-3.47,9.89,3.47Zm21.67-.16L51,46.93l10.6-3.72Z"/><path class="cls-2" d="M62,56.26H37.62a.39.39,0,0,0-.39.4V65.2a.38.38,0,0,0,.39.39H62a.39.39,0,0,0,.4-.39V56.66A.4.4,0,0,0,62,56.26Zm-2.29.79L49.8,60.52l-9.88-3.47ZM38,57.21l10.61,3.72L38,64.65Zm1.91,7.6,9.88-3.47,9.89,3.47Zm21.67-.16L51,60.93l10.6-3.72Z"/></g></g></svg>