<svg xmlns="http://www.w3.org/2000/svg" viewBox="0 0 58.62 73.99"><defs><style>.cls-1{fill:#0054a4;}.cls-2{fill:#fff;}</style></defs><title>babcock-logo</title><g id="Layer_2" data-name="Layer 2"><g id="Layer_1-2" data-name="Layer 1"><path class="cls-1" d="M6.43,0S48,15.39,58.62,54.78c-.06-.31-29.5,34.73-51.25,10.9,0,0-15.93-13.91-.94-65.68"/><path class="cls-2" d="M6.73,44.93a2,2,0,0,0-1,.25.77.77,0,0,0-.44.79v3c0,.87.75,1.1,1.48,1.1a2,2,0,0,0,1.46-.59,2.77,2.77,0,0,0,.59-2c0-1.36-.53-2.55-2.08-2.55M7,51.29A2.83,2.83,0,0,1,5.76,51a1.21,1.21,0,0,0-.63-.23c0,.17,0,.36-.21.36H3.7A.19.19,0,0,1,3.51,51v-9.9a.2.2,0,0,1,.19-.2H5.09a.2.2,0,0,1,.19.2v3.08a1.23,1.23,0,0,0,.6-.14,3.35,3.35,0,0,1,1.43-.31c2.11,0,3.26,1.78,3.26,3.74A3.53,3.53,0,0,1,7,51.29Z"/><path class="cls-2" d="M15.38,47.34l-1.12.37c-.64.2-1.52.51-1.52,1.32s.67,1,1.33,1a1.57,1.57,0,0,0,1-.28.88.88,0,0,0,.31-.81V47.34M17,51.17H15.74c-.24,0-.21-.2-.2-.36h-.13a1.6,1.6,0,0,0-.7.22,2.93,2.93,0,0,1-1.36.29A2.11,2.11,0,0,1,11,49.18c0-1.52,1.06-2,2.34-2.42l1.51-.5c.31-.1.58-.13.58-.52,0-.67-.74-.81-1.27-.81a5.33,5.33,0,0,0-2.32.6.61.61,0,0,1-.24.07c-.13,0-.16-.13-.16-.23v-.81c0-.24.09-.29.3-.38a7.2,7.2,0,0,1,2.67-.47c1.39,0,2.77.39,2.77,2V51A.19.19,0,0,1,17,51.17Z"/><path class="cls-2" d="M21.06,44.93a2,2,0,0,0-1,.25.77.77,0,0,0-.44.79v3c0,.87.75,1.1,1.49,1.1a2,2,0,0,0,1.45-.59,2.73,2.73,0,0,0,.59-2c0-1.36-.53-2.55-2.07-2.55m.28,6.36A2.8,2.8,0,0,1,20.09,51a1.28,1.28,0,0,0-.64-.23c0,.17.05.36-.2.36H18a.19.19,0,0,1-.19-.19v-9.9a.2.2,0,0,1,.19-.2h1.38a.2.2,0,0,1,.19.2v3.08a1.23,1.23,0,0,0,.6-.14,3.38,3.38,0,0,1,1.43-.31c2.12,0,3.26,1.78,3.26,3.74A3.53,3.53,0,0,1,21.34,51.29Z"/><path class="cls-2" d="M31.34,50.88a5.78,5.78,0,0,1-2.14.41,3.38,3.38,0,0,1-3.64-3.73,3.58,3.58,0,0,1,3.69-3.88,5.81,5.81,0,0,1,1.62.22c.28.07.72.14.72.51v.8c0,.08,0,.17-.14.17a.55.55,0,0,1-.28-.09,3.65,3.65,0,0,0-1.62-.39c-1.63,0-2.22,1.07-2.22,2.58S27.86,50,29.46,50a3.81,3.81,0,0,0,1.75-.44.54.54,0,0,1,.25-.09c.21,0,.13.83.13,1s0,.3-.25.4"/><path class="cls-2" d="M35.53,44.9c-1.44,0-1.85,1.41-1.85,2.6s.4,2.66,1.85,2.66,1.83-1.43,1.83-2.6S37,44.9,35.53,44.9M38,50.6a3.39,3.39,0,0,1-2.47.8,3.33,3.33,0,0,1-2.44-.8,3.94,3.94,0,0,1-1.14-3.07,3.87,3.87,0,0,1,1.16-3.07,3.43,3.43,0,0,1,2.53-.78c2.42,0,3.51,1.59,3.51,3.88A3.82,3.82,0,0,1,38,50.6Z"/><path class="cls-2" d="M45.5,50.88a5.83,5.83,0,0,1-2.15.41,3.38,3.38,0,0,1-3.64-3.73,3.59,3.59,0,0,1,3.7-3.88A5.92,5.92,0,0,1,45,43.9c.28.07.72.14.72.51v.8a.16.16,0,0,1-.15.17.58.58,0,0,1-.28-.09,3.65,3.65,0,0,0-1.62-.39c-1.63,0-2.22,1.07-2.22,2.58S42,50,43.61,50a3.82,3.82,0,0,0,1.76-.44.54.54,0,0,1,.25-.09c.2,0,.13.83.13,1s0,.3-.25.4"/><path class="cls-2" d="M52.7,51.17H51.13c-.25,0-.28-.05-.41-.25l-2.13-3.1c-.09-.13-.22-.1-.37-.1V51a.19.19,0,0,1-.19.19H46.65a.19.19,0,0,1-.2-.19v-9.9a.2.2,0,0,1,.2-.2H48a.2.2,0,0,1,.19.2v5.57h.17a.27.27,0,0,0,.23-.11L50.84,44c.11-.13.17-.22.35-.22h1.35c.09,0,.21.06.21.17s-.11.2-.17.28L50,47l2.76,3.72a.53.53,0,0,1,.15.31c0,.12-.15.14-.24.14"/></g></g></svg>