<svg xmlns="http://www.w3.org/2000/svg" viewBox="0 0 240.23 36.14"><defs><style>.cls-1{fill:#e43417;}.cls-2{fill:#002d69;}</style></defs><title>brussels-airlines-logo</title><g id="Layer_2" data-name="Layer 2"><g id="Layer_1-2" data-name="Layer 1"><path class="cls-1" d="M7.83,33.25c0,1.6-1.76,2.89-3.92,2.89S0,34.85,0,33.25s1.75-2.89,3.91-2.89S7.83,31.66,7.83,33.25Z"/><path class="cls-1" d="M10.56,26.38c0,1.33-1.53,2.41-3.43,2.41S3.7,27.71,3.7,26.38,5.23,24,7.13,24,10.56,25.05,10.56,26.38Z"/><path class="cls-1" d="M12.8,20.65c0,1.07-1.31,1.93-2.92,1.93S7,21.72,7,20.65s1.3-1.95,2.92-1.95S12.8,19.57,12.8,20.65Z"/><path class="cls-1" d="M18.77,5c0,.42-.68.76-1.52.76S15.72,5.4,15.72,5s.69-.77,1.53-.77S18.77,4.55,18.77,5Z"/><path class="cls-1" d="M20.53.55c0,.3-.51.55-1.14.55S18.24.85,18.24.55,18.75,0,19.39,0,20.53.24,20.53.55Z"/><path class="cls-1" d="M19.7,2.66c0,.35-.59.63-1.32.63S17.06,3,17.06,2.66,17.65,2,18.38,2,19.7,2.3,19.7,2.66Z"/><path class="cls-1" d="M14.7,15.61c0,.86-1.12,1.56-2.49,1.56s-2.49-.7-2.49-1.56,1.12-1.56,2.49-1.56S14.7,14.75,14.7,15.61Z"/><path class="cls-1" d="M16.33,11.4c0,.69-.95,1.25-2.12,1.25s-2.12-.56-2.12-1.25.95-1.26,2.12-1.26S16.33,10.71,16.33,11.4Z"/><path class="cls-1" d="M17,32.77c0,1.44-1.58,2.6-3.55,2.6s-3.55-1.16-3.55-2.6,1.59-2.6,3.55-2.59S17,31.34,17,32.77Z"/><path class="cls-1" d="M24.76,30.61c0,1.27-1.43,2.29-3.2,2.29s-3.2-1-3.2-2.29,1.43-2.29,3.2-2.29S24.76,29.35,24.76,30.61Z"/><path class="cls-1" d="M28.75,26.22c0,1-1.17,1.81-2.62,1.81s-2.62-.81-2.62-1.81,1.17-1.8,2.62-1.8S28.75,25.22,28.75,26.22Z"/><path class="cls-1" d="M24.94,18.38c0,.66-.86,1.2-1.91,1.2s-1.91-.54-1.91-1.2S22,17.19,23,17.19,24.94,17.73,24.94,18.38Z"/><path class="cls-1" d="M17.75,7.89c0,.56-.81,1-1.81,1s-1.8-.44-1.8-1,.81-1,1.8-1S17.75,7.34,17.75,7.89Z"/><path class="cls-1" d="M28.05,21.67c0,.8-1,1.45-2.23,1.45s-2.22-.65-2.22-1.45,1-1.46,2.22-1.46S28.05,20.87,28.05,21.67Z"/><path class="cls-2" d="M40.49,32.65V11.33H43.9V19.2A9.28,9.28,0,0,1,47,18.62,6.07,6.07,0,0,1,52,20.74a7.28,7.28,0,0,1,1.53,4.81,6.81,6.81,0,0,1-2.59,5.83,10.19,10.19,0,0,1-6.26,1.7A24,24,0,0,1,40.49,32.65ZM43.9,21.81v8.43a8.28,8.28,0,0,0,1.32.12q4.77,0,4.77-4.58a4.42,4.42,0,0,0-1.18-3.36,3.82,3.82,0,0,0-2.77-1A6.52,6.52,0,0,0,43.9,21.81Z"/><path class="cls-2" d="M57,32.9v-13a15.69,15.69,0,0,1,6-1.21,9.4,9.4,0,0,1,2.74.39v2.88a7.09,7.09,0,0,0-2.39-.4,8.32,8.32,0,0,0-3,.54V32.9Z"/><path class="cls-2" d="M68,18.88h3.42v8.36a3,3,0,0,0,.73,2.39,3.31,3.31,0,0,0,2.17.55,10.83,10.83,0,0,0,2.28-.27v-11H80V32.41a31.35,31.35,0,0,1-6,.67q-3.24,0-4.72-1.3A3.89,3.89,0,0,1,68.25,30,10.47,10.47,0,0,1,68,27.39Z"/><path class="cls-2" d="M83.76,32.41v-3.1a7.29,7.29,0,0,0,3.82,1.26c1.51,0,2.27-.48,2.27-1.42q0-1-1.35-1.59l-1.37-.65A6.82,6.82,0,0,1,84.45,25a3.52,3.52,0,0,1-.69-2.18,3.64,3.64,0,0,1,1.64-3.17,6.33,6.33,0,0,1,3.71-1,8.77,8.77,0,0,1,3.62.78v2.93a6.42,6.42,0,0,0-3.38-1.06c-1.52,0-2.27.45-2.27,1.34a1.1,1.1,0,0,0,.46.91,12.9,12.9,0,0,0,1.95,1,9.61,9.61,0,0,1,2.81,1.89,4,4,0,0,1-.75,5.83,6.69,6.69,0,0,1-3.85,1A9.2,9.2,0,0,1,83.76,32.41Z"/><path class="cls-2" d="M96,32.41v-3.1a7.23,7.23,0,0,0,3.81,1.26c1.52,0,2.27-.48,2.27-1.42,0-.64-.45-1.17-1.34-1.59l-1.38-.65A6.9,6.9,0,0,1,96.64,25,3.52,3.52,0,0,1,96,22.79a3.61,3.61,0,0,1,1.64-3.17,6.29,6.29,0,0,1,3.7-1,8.77,8.77,0,0,1,3.62.78v2.93a6.42,6.42,0,0,0-3.38-1.06c-1.51,0-2.27.45-2.27,1.34a1.1,1.1,0,0,0,.46.91,12.9,12.9,0,0,0,2,1,9.84,9.84,0,0,1,2.82,1.89,4,4,0,0,1-.76,5.83,6.63,6.63,0,0,1-3.84,1A9.17,9.17,0,0,1,96,32.41Z"/><path class="cls-2" d="M120.94,26.53h-9.63c.15,2.61,1.59,3.91,4.34,3.91A7.61,7.61,0,0,0,120.23,29v2.86a9.75,9.75,0,0,1-5.09,1.43,7,7,0,0,1-5.5-2.14,7.36,7.36,0,0,1-1.64-5,7.67,7.67,0,0,1,2.12-5.7,6.47,6.47,0,0,1,4.72-1.81,6.24,6.24,0,0,1,3.5,1,5.35,5.35,0,0,1,1.94,2.27,12.39,12.39,0,0,1,.66,4.67Zm-9.41-2.44h6.11c-.15-1.95-1.1-2.93-2.85-2.93a3,3,0,0,0-2.26.89A3.59,3.59,0,0,0,111.53,24.09Z"/><path class="cls-2" d="M124.46,32.9V11.33h3.42V32.9Z"/><path class="cls-2" d="M131.65,32.41v-3.1a7.28,7.28,0,0,0,3.81,1.26c1.52,0,2.28-.48,2.28-1.42q0-1-1.35-1.59L135,26.91A6.78,6.78,0,0,1,132.34,25a3.52,3.52,0,0,1-.69-2.18,3.64,3.64,0,0,1,1.64-3.17,6.29,6.29,0,0,1,3.7-1,8.73,8.73,0,0,1,3.62.78v2.93a6.39,6.39,0,0,0-3.38-1.06c-1.51,0-2.27.45-2.27,1.34a1.12,1.12,0,0,0,.46.91,12.9,12.9,0,0,0,2,1,9.84,9.84,0,0,1,2.82,1.89,4,4,0,0,1-.76,5.83,6.63,6.63,0,0,1-3.84,1A9.17,9.17,0,0,1,131.65,32.41Z"/><path class="cls-2" d="M150.4,23V20.06a11.43,11.43,0,0,1,5.46-1.44c2,0,3.33.6,3.94,1.78a8,8,0,0,1,.47,3.33v8.89a44.31,44.31,0,0,1-5.91.51,5.4,5.4,0,0,1-3.78-1.08,3.79,3.79,0,0,1-1-2.88,4.12,4.12,0,0,1,2.42-4A15.41,15.41,0,0,1,156.83,24l.3,0v-.51a2.15,2.15,0,0,0-.51-1.67,2.33,2.33,0,0,0-1.52-.39A8.82,8.82,0,0,0,150.4,23Zm6.78,7.3V26.56a8.68,8.68,0,0,0-3.61.8,1.71,1.71,0,0,0-.86,1.57c0,1.06.63,1.58,1.87,1.58A18.62,18.62,0,0,0,157.18,30.29Z"/><path class="cls-2" d="M164.43,16.23V12.59H168v3.64Zm0,16.67v-14h3.42v14Z"/><path class="cls-2" d="M172.31,32.9v-13a15.74,15.74,0,0,1,6-1.21,9.45,9.45,0,0,1,2.74.39v2.88a7.11,7.11,0,0,0-2.4-.4,8.31,8.31,0,0,0-2.94.54V32.9Z"/><path class="cls-2" d="M183.81,32.9V11.33h3.41V32.9Z"/><path class="cls-2" d="M191.61,16.23V12.59h3.52v3.64Zm0,16.67v-14h3.42v14Z"/><path class="cls-2" d="M199.49,32.9V19.59a23.06,23.06,0,0,1,6.36-.94c2.21,0,3.77.47,4.67,1.43a5.48,5.48,0,0,1,1.12,3.82v9h-3.41V24.14A2.77,2.77,0,0,0,207.5,22a3.27,3.27,0,0,0-2.07-.53,8.68,8.68,0,0,0-2.52.39V32.9Z"/><path class="cls-2" d="M228,26.53h-9.63q.21,3.91,4.34,3.91A7.61,7.61,0,0,0,227.24,29v2.86a9.75,9.75,0,0,1-5.09,1.43,7,7,0,0,1-5.5-2.14,7.36,7.36,0,0,1-1.64-5,7.64,7.64,0,0,1,2.12-5.7,6.47,6.47,0,0,1,4.72-1.81,6.24,6.24,0,0,1,3.5,1,5.35,5.35,0,0,1,1.94,2.27,12.39,12.39,0,0,1,.66,4.67Zm-9.41-2.44h6.11c-.15-1.95-1.1-2.93-2.85-2.93a3,3,0,0,0-2.26.89A3.59,3.59,0,0,0,218.54,24.09Z"/><path class="cls-2" d="M230.78,32.41v-3.1a7.25,7.25,0,0,0,3.81,1.26c1.52,0,2.28-.48,2.28-1.42q0-1-1.35-1.59l-1.38-.65A6.78,6.78,0,0,1,231.47,25a3.52,3.52,0,0,1-.69-2.18,3.61,3.61,0,0,1,1.64-3.17,6.29,6.29,0,0,1,3.7-1,8.73,8.73,0,0,1,3.62.78v2.93a6.39,6.39,0,0,0-3.38-1.06c-1.51,0-2.27.45-2.27,1.34a1.12,1.12,0,0,0,.46.91,12.9,12.9,0,0,0,1.95,1,9.84,9.84,0,0,1,2.82,1.89,4,4,0,0,1-.76,5.83,6.63,6.63,0,0,1-3.84,1A9.17,9.17,0,0,1,230.78,32.41Z"/></g></g></svg>