<svg xmlns="http://www.w3.org/2000/svg" xmlns:xlink="http://www.w3.org/1999/xlink" viewBox="0 0 109 51.69"><defs><style>.cls-1{fill:url(#linear-gradient);}.cls-2{fill:url(#radial-gradient);}.cls-3{fill:url(#linear-gradient-2);}.cls-4{fill:url(#linear-gradient-3);}.cls-5{fill:url(#radial-gradient-2);}.cls-6{fill:url(#radial-gradient-3);}.cls-7{fill:url(#radial-gradient-4);}.cls-8{fill:url(#linear-gradient-4);}.cls-9{fill:url(#linear-gradient-5);}.cls-10{fill:#004892;}</style><linearGradient id="linear-gradient" x1="-27.92" y1="-376.46" x2="-27.73" y2="-376.46" gradientTransform="matrix(57.83, 0, 0, -57.83, 1684.03, -21768.95)" gradientUnits="userSpaceOnUse"><stop offset="0" stop-color="#8d215c"/><stop offset="0" stop-color="#93215f"/><stop offset="0" stop-color="#ae1f6a"/><stop offset="0.01" stop-color="#c41d74"/><stop offset="0.01" stop-color="#d51c7b"/><stop offset="0.01" stop-color="#e01c80"/><stop offset="0.02" stop-color="#e71b83"/><stop offset="0.04" stop-color="#e91b84"/><stop offset="0.44" stop-color="#e93a91"/><stop offset="1" stop-color="#e93a91"/></linearGradient><radialGradient id="radial-gradient" cx="-30.46" cy="-375.83" r="0.18" gradientTransform="matrix(56.89, 0, 0, -56.89, 1832.15, -21364.89)" gradientUnits="userSpaceOnUse"><stop offset="0" stop-color="#fff395"/><stop offset="0.04" stop-color="#fff083"/><stop offset="0.16" stop-color="#ffe95b"/><stop offset="0.28" stop-color="#ffe43a"/><stop offset="0.4" stop-color="#ffdf21"/><stop offset="0.53" stop-color="#ffdc0e"/><stop offset="0.66" stop-color="#ffdb04"/><stop offset="0.81" stop-color="#ffda00"/><stop offset="1" stop-color="#efbb38"/></radialGradient><linearGradient id="linear-gradient-2" x1="-28.03" y1="-373.2" x2="-27.85" y2="-373.2" gradientTransform="matrix(68.43, 0, 0, -68.43, 2012.56, -25522.26)" gradientUnits="userSpaceOnUse"><stop offset="0" stop-color="#ffda00"/><stop offset="0.18" stop-color="#fdd504"/><stop offset="0.41" stop-color="#f7c611"/><stop offset="0.65" stop-color="#edae26"/><stop offset="0.9" stop-color="#e08c43"/><stop offset="1" stop-color="#da7d50"/></linearGradient><linearGradient id="linear-gradient-3" x1="-34.32" y1="-358.07" x2="-34.14" y2="-358.07" gradientTransform="matrix(33.81, -58.57, -58.57, -33.81, -19715.67, -14103.72)" gradientUnits="userSpaceOnUse"><stop offset="0" stop-color="#ed5b52"/><stop offset="0.01" stop-color="#ed5b52"/><stop offset="0.21" stop-color="#e54d48"/><stop offset="0.71" stop-color="#d42f32"/><stop offset="1" stop-color="#ce232a"/></linearGradient><radialGradient id="radial-gradient-2" cx="-22.41" cy="-366.22" r="0.18" gradientTransform="matrix(142.46, 0.18, 0.17, -137.08, 3336.97, -50163.86)" gradientUnits="userSpaceOnUse"><stop offset="0" stop-color="#c9c1de"/><stop offset="0" stop-color="#c9c1de"/><stop offset="0.06" stop-color="#bdb5d7"/><stop offset="0.3" stop-color="#8c86bc"/><stop offset="0.49" stop-color="#6e69aa"/><stop offset="0.59" stop-color="#635ea4"/><stop offset="1" stop-color="#635ea4"/></radialGradient><radialGradient id="radial-gradient-3" cx="-21.81" cy="-365.93" r="0.18" gradientTransform="matrix(153.76, 0, 0, -153.76, 3425.43, -56244.43)" gradientUnits="userSpaceOnUse"><stop offset="0" stop-color="#57adda"/><stop offset="0.13" stop-color="#54a4d4"/><stop offset="0.34" stop-color="#4b8cc3"/><stop offset="0.6" stop-color="#3d67a9"/><stop offset="0.92" stop-color="#1f3e78"/><stop offset="1" stop-color="#1f3e78"/></radialGradient><radialGradient id="radial-gradient-4" cx="-23.35" cy="-368.1" r="0.18" gradientTransform="matrix(110.22, 0, 0, -110.22, 2647.25, -40551.09)" gradientUnits="userSpaceOnUse"><stop offset="0" stop-color="#5590c6"/><stop offset="0.06" stop-color="#538cc3"/><stop offset="0.68" stop-color="#3f65a9"/><stop offset="1" stop-color="#37569f"/></radialGradient><linearGradient id="linear-gradient-4" x1="-32.43" y1="-347.21" x2="-32.24" y2="-347.21" gradientTransform="matrix(0, -49.01, -49.01, 0, -16932.07, -1537.53)" gradientUnits="userSpaceOnUse"><stop offset="0" stop-color="#00662e"/><stop offset="0.06" stop-color="#006f36"/><stop offset="0.29" stop-color="#008a4e"/><stop offset="0.52" stop-color="#009d5f"/><stop offset="0.76" stop-color="#00a96a"/><stop offset="1" stop-color="#00ad6d"/></linearGradient><linearGradient id="linear-gradient-5" x1="-35.9" y1="-353.9" x2="-35.72" y2="-353.9" gradientTransform="matrix(16.73, -45.96, -45.96, -16.73, -15588.87, -7519.35)" gradientUnits="userSpaceOnUse"><stop offset="0" stop-color="#00585b"/><stop offset="0.11" stop-color="#00585b"/><stop offset="0.21" stop-color="#007375"/><stop offset="0.34" stop-color="#008d8e"/><stop offset="0.46" stop-color="#009d9d"/><stop offset="0.54" stop-color="#00a3a2"/><stop offset="1" stop-color="#00b7c3"/></linearGradient></defs><title>bt-logo</title><g id="Layer_2" data-name="Layer 2"><g id="Layer_1-2" data-name="Layer 1"><path class="cls-1" d="M80.07.92c.33.83-1.76,2.41-4.65,3.54S69.92,5.83,69.6,5s1.76-2.41,4.66-3.53S79.75.09,80.07.92Z"/><path class="cls-2" d="M107,20.77a5,5,0,0,1-2.43,4.34c-2.78,1.4-6.78-.94-8.94-5.23a10.65,10.65,0,0,1-1.07-7.41h0c.23.23.47.46.72.68,4.6,4.26,9.2,7.18,11.72,7.62Z"/><path class="cls-3" d="M107,20.77c-2.52-.44-7.12-3.36-11.72-7.62-.25-.22-.49-.45-.72-.68h0a4.38,4.38,0,0,1,2.18-2.88c2.78-1.4,6.78.94,8.94,5.23A11.58,11.58,0,0,1,107,20.77Z"/><path class="cls-4" d="M107,20.77a11.58,11.58,0,0,0-1.32-5.95c-2.16-4.29-6.16-6.63-8.94-5.23a4.38,4.38,0,0,0-2.18,2.88h0C89.05,7.15,85.69,1.82,87,.37A1.7,1.7,0,0,1,88.53,0h0a26.07,26.07,0,0,1,20.34,18.66h0a1.87,1.87,0,0,1-.17,1.77,1.79,1.79,0,0,1-1.66.31Z"/><path class="cls-5" d="M83.42,40.81a12.3,12.3,0,1,0-7.17-22.73,32.38,32.38,0,0,1,3.36,6C81.66,28.82,83.71,35.36,83.42,40.81Z"/><path class="cls-6" d="M74.25,45.57A40.23,40.23,0,0,1,83,43.87c.09-.42.18-.86.25-1.32s.15-1.15.19-1.74l-.68,0a12.3,12.3,0,0,1-6.49-22.75,23.32,23.32,0,0,0-6.84-6.65C66.93,10,63.05,9,60.53,13.94A25.64,25.64,0,0,0,57.79,25.6,26.09,26.09,0,0,0,72.55,49.11C70.76,48.22,70.1,47.1,74.25,45.57Z"/><path class="cls-7" d="M70.44,28.53a12.3,12.3,0,0,0,12.3,12.3l.68,0c.29-5.45-1.76-12-3.81-16.73a32.38,32.38,0,0,0-3.36-6A12.3,12.3,0,0,0,70.44,28.53Z"/><path class="cls-8" d="M95.27,43.78A51.7,51.7,0,0,0,83,43.87c-1.66,7.33-6.14,7-8.71,6-.58-.23-1.11-.46-1.68-.73h0a25.44,25.44,0,0,0,11.27,2.56,26,26,0,0,0,14.82-4.62C100.3,46,100.52,44.65,95.27,43.78Z"/><path class="cls-9" d="M83,43.87a40.23,40.23,0,0,0-8.73,1.7c-4.15,1.53-3.49,2.65-1.7,3.54.57.27,1.14.52,1.72.75C76.84,50.88,81.32,51.2,83,43.87Z"/><path class="cls-10" d="M23,27.31c4.24-2.58,3.42-10.18-4.2-10.18H2.34A2.35,2.35,0,0,0,0,19.46v18a2.35,2.35,0,0,0,2.34,2.33H16.7C28.12,39.79,29.54,29.63,23,27.31ZM8.6,20.68h8.87c5.05,0,4.8,5.48-.68,5.48H8.6ZM15.75,36H8.6V29.73h9.16C23,29.73,23,36,15.75,36Z"/><path class="cls-10" d="M52,17.14H28.06A2.11,2.11,0,0,0,25.94,19a2.1,2.1,0,0,0,2.12,1.89H36V37.46a2.36,2.36,0,0,0,2.35,2.33h3.71a2.35,2.35,0,0,0,2.34-2.33V20.92H52A2.1,2.1,0,0,0,54.09,19,2.11,2.11,0,0,0,52,17.14Z"/></g></g></svg>