<svg xmlns="http://www.w3.org/2000/svg" viewBox="0 0 36 36"><defs><style>.cls-1{fill:#fff;}.cls-2{fill:#0a3254;}</style></defs><title>FAIR-icon</title><g id="Layer_2" data-name="Layer 2"><g id="Layer_1-2" data-name="Layer 1"><circle class="cls-1" cx="18" cy="18" r="18"/><path class="cls-2" d="M27.3,12.18H15.54A1.54,1.54,0,0,0,14,13.72v9.12h1.24V13.72a.32.32,0,0,1,.31-.31H27.3a.33.33,0,0,1,.31.31v9.6H23.27a.61.61,0,0,0-.62.61v4.34H15.54a.31.31,0,0,1-.31-.31H14a1.54,1.54,0,0,0,1.55,1.54h7.11a3.07,3.07,0,0,0,1.76-.81A17.25,17.25,0,0,0,26.34,27,16.4,16.4,0,0,0,28,25.07a3.05,3.05,0,0,0,.81-1.75v-9.6A1.54,1.54,0,0,0,27.3,12.18Zm-1.83,14c-.3.29-.58.56-.85.79s-.51.44-.73.61v-3h3A16.8,16.8,0,0,1,25.47,26.13Z"/><path class="cls-2" d="M22.72,7.5H11A1.56,1.56,0,0,0,9.41,9.05V21.82h1.24V9.05A.31.31,0,0,1,11,8.74H22.72a.31.31,0,0,1,.31.31v1.46h1.23V9.05A1.55,1.55,0,0,0,22.72,7.5Z"/><path class="cls-2" d="M20.11,16.34a3.22,3.22,0,0,0-2.29,5.49,0,0,0,0,0,0,0h0a3.22,3.22,0,0,0,5.48-2.29.13.13,0,0,0-.13-.13h-3v-3A.13.13,0,0,0,20.11,16.34Z"/><path class="cls-2" d="M16.61,24.5H11.47v1.77h5.14v1.46l2.74-2.34-2.74-2.34Z"/><path class="cls-2" d="M21.8,14.78v3.1h3.09A3.09,3.09,0,0,0,21.8,14.78Z"/></g></g></svg>