<svg xmlns="http://www.w3.org/2000/svg" viewBox="0 0 100 100">
  <title>collaborate-securely</title>
  <g id="Layer_2" data-name="Layer 2">
    <g id="Layer_1-2" data-name="Layer 1">
      <g>
        <circle cx="50" cy="50" r="50" fill="#0a3254"/>
        <g>
          <circle cx="84.12" cy="87.5" r="10" fill="#fff"/>
          <circle cx="84.12" cy="87.5" r="7.5" fill="#e65133"/>
          <path d="M88.76,86a.44.44,0,0,1-.14.27l-2,2L87.07,91s0,.06,0,.11a.32.32,0,0,1-.06.2.19.19,0,0,1-.17.08.53.53,0,0,1-.23-.06l-2.5-1.32-2.51,1.32a.49.49,0,0,1-.22.06.19.19,0,0,1-.18-.08.39.39,0,0,1,0-.2.54.54,0,0,1,0-.11l.48-2.79-2-2a.39.39,0,0,1-.14-.27c0-.14.1-.23.31-.26l2.8-.41,1.26-2.53c.07-.16.16-.23.27-.23s.2.07.27.23l1.26,2.53,2.8.41C88.66,85.78,88.76,85.87,88.76,86Z" fill="#fff"/>
        </g>
        <g>
          <path d="M40.3,62.4h-.8V59.69a3.38,3.38,0,0,0-6.75,0V62.4H32a1.22,1.22,0,0,0-1.22,1.22v6.49A1.22,1.22,0,0,0,32,71.33H40.3a1.22,1.22,0,0,0,1.22-1.22V63.62A1.22,1.22,0,0,0,40.3,62.4ZM38,62.4H34.29V59.69a1.83,1.83,0,0,1,3.66,0Z" fill="#fff"/>
          <g>
            <path d="M72.42,52.35H51.71A1.65,1.65,0,0,0,50.06,54V72.36A1.65,1.65,0,0,0,51.71,74H72.42a1.65,1.65,0,0,0,1.64-1.64V54A1.65,1.65,0,0,0,72.42,52.35Zm-.24,19.77H52V56.83H72.18Z" fill="#fff"/>
            <line x1="55.67" y1="61" x2="68.67" y2="61" fill="none" stroke="#fff" stroke-linecap="round" stroke-miterlimit="10"/>
            <line x1="55.67" y1="65" x2="68.67" y2="65" fill="none" stroke="#fff" stroke-linecap="round" stroke-miterlimit="10"/>
            <line x1="55.67" y1="69" x2="68.67" y2="69" fill="none" stroke="#fff" stroke-linecap="round" stroke-miterlimit="10"/>
          </g>
          <path d="M69.46,43.19l-3.11,3.65-3.12-3.65h2.13v-6.9h-6.9v2.13L54.81,35.3l3.65-3.12v2.15h7.88a1,1,0,0,1,1,1v7.88Z" fill="#fff"/>
          <path d="M41.5,37.75l1.23-.69,0-.13a3.81,3.81,0,0,0-.17-.51,4.8,4.8,0,0,0-.26-.57l-.06-.12-1.37.34a3.76,3.76,0,0,0-.62-.64l.39-1.36L40.49,34a4.57,4.57,0,0,0-1.06-.47l-.13,0-.73,1.21a3.7,3.7,0,0,0-.88,0L37,33.46l-.13,0-.52.17a4,4,0,0,0-.56.26l-.12.06L36,35.35a3.36,3.36,0,0,0-.63.62L34,35.58l-.07.11a4.8,4.8,0,0,0-.46,1.07l0,.13,1.2.73a3.7,3.7,0,0,0,0,.88l-1.24.69,0,.13a4.32,4.32,0,0,0,.16.51,4.8,4.8,0,0,0,.26.57l.07.12,1.37-.34a3.32,3.32,0,0,0,.61.63l-.39,1.36.12.07a4.61,4.61,0,0,0,1.07.46l.12,0,.74-1.2a3.24,3.24,0,0,0,.88,0l.69,1.24.13,0a4.32,4.32,0,0,0,.51-.16,4.8,4.8,0,0,0,.57-.26l.12-.07-.34-1.37a3.36,3.36,0,0,0,.64-.61l1.36.39.06-.12a4.57,4.57,0,0,0,.47-1.06l0-.13-1.21-.73A3.7,3.7,0,0,0,41.5,37.75Zm-2.88,1.84a1.57,1.57,0,1,1,.91-2A1.56,1.56,0,0,1,38.62,39.59Z" fill="#fff"/>
        </g>
      </g>
    </g>
  </g>
</svg>
