<svg xmlns="http://www.w3.org/2000/svg" viewBox="0 0 100 100">
  <title>cut-time-gathering-comments</title>
  <g id="Layer_2" data-name="Layer 2">
    <g id="Layer_1-2" data-name="Layer 1">
      <g>
        <circle cx="50" cy="50" r="50" fill="#0a3254"/>
        <g>
          <circle cx="83.75" cy="87.5" r="10" fill="#fff"/>
          <circle cx="83.75" cy="87.5" r="7.5" fill="#e65133"/>
          <path d="M88.39,86a.44.44,0,0,1-.14.27l-2,2L86.7,91a.34.34,0,0,1,0,.11.32.32,0,0,1-.06.2.19.19,0,0,1-.17.08.46.46,0,0,1-.22-.06l-2.51-1.32-2.51,1.32a.49.49,0,0,1-.22.06.17.17,0,0,1-.17-.08.32.32,0,0,1-.06-.2.54.54,0,0,1,0-.11l.48-2.79-2-2a.39.39,0,0,1-.14-.27c0-.14.1-.23.31-.26l2.8-.41,1.26-2.53c.07-.16.16-.23.27-.23s.2.07.27.23l1.26,2.53,2.8.41C88.29,85.78,88.39,85.87,88.39,86Z" fill="#fff"/>
        </g>
        <g>
          <path d="M49.65,59.75A3.92,3.92,0,0,1,48.81,52a4,4,0,0,1,.84-.09,3.87,3.87,0,0,1,2.64,1l5.91-3.26a.89.89,0,0,1,.45-.12.93.93,0,0,1,.8.46l0,.06a.93.93,0,0,1-.31,1.26l-5.72,3.57a3.69,3.69,0,0,1-.29,2.57A4,4,0,0,1,50,59.73Zm0-6a2.33,2.33,0,0,0-.53.06,2.14,2.14,0,0,0-1.53,1.53A2.17,2.17,0,0,0,48,57.14a2.13,2.13,0,0,0,1.68.82,2,2,0,0,0,.53-.07,2.13,2.13,0,0,0,1.14-3.38A2.11,2.11,0,0,0,49.65,53.7Z" fill="#fff"/>
          <path d="M61.55,41l.53-.81.61.39,2.22-3.44-3.48-2.25-2.22,3.44.62.4-.48.74a18.83,18.83,0,0,0-7.85-2.58v-1a6.56,6.56,0,1,0-3.76,0v1a18.82,18.82,0,0,0-7.8,2.55l-.54-.86.62-.39-2.19-3.47-3.5,2.22,2.19,3.46.62-.39.6.95a19.1,19.1,0,1,0,23.81,0ZM44.2,29.58a5.43,5.43,0,1,1,7.3,5.09V33.06h1V29.29H46.72v3.77h1v1.61A5.43,5.43,0,0,1,44.2,29.58ZM58.16,70l-.65-1.14a.39.39,0,0,0-.34-.19.41.41,0,0,0-.2.06.38.38,0,0,0-.14.53l.65,1.13a16.39,16.39,0,0,1-7.46,2V71a.39.39,0,0,0-.4-.39.38.38,0,0,0-.39.39v1.3a16.4,16.4,0,0,1-7.47-2l.66-1.13a.45.45,0,0,0,0-.3.39.39,0,0,0-.2-.24.38.38,0,0,0-.19,0,.39.39,0,0,0-.34.19L41.08,70a16.59,16.59,0,0,1-5.49-5.5l1.16-.67a.39.39,0,0,0,.13-.54.36.36,0,0,0-.33-.19.35.35,0,0,0-.2.05l-1.16.67a16.36,16.36,0,0,1-2-7.49h1.34a.4.4,0,0,0,.39-.4.39.39,0,0,0-.39-.39H33.18a16.53,16.53,0,0,1,2-7.5l1.17.68a.46.46,0,0,0,.2,0,.4.4,0,0,0,.2-.74l-1.17-.68a16.63,16.63,0,0,1,5.48-5.49L41.73,43a.39.39,0,0,0,.34.19.42.42,0,0,0,.21-.06.39.39,0,0,0,.14-.53l-.68-1.18a16.33,16.33,0,0,1,7.49-2v1.35a.38.38,0,0,0,.39.39h0a.39.39,0,0,0,.39-.39V39.41a16.2,16.2,0,0,1,7.48,2l-.67,1.17a.39.39,0,0,0,.15.54.45.45,0,0,0,.19,0,.39.39,0,0,0,.34-.19l.68-1.18a16.72,16.72,0,0,1,5.48,5.49L62.5,48a.39.39,0,0,0-.14.54.4.4,0,0,0,.34.2.41.41,0,0,0,.19,0L64.06,48a16.4,16.4,0,0,1,2,7.5H64.72a.4.4,0,0,0,0,.79h1.34a16.37,16.37,0,0,1-2,7.49l-1.16-.67a.32.32,0,0,0-.19-.05.41.41,0,0,0-.35.2.39.39,0,0,0,.15.53l1.16.67A16.62,16.62,0,0,1,58.16,70Z" fill="#fff"/>
        </g>
      </g>
    </g>
  </g>
</svg>
