<svg xmlns="http://www.w3.org/2000/svg" viewBox="0 0 100 100">
  <title>faster-document-turnaround</title>
  <g id="Layer_2" data-name="Layer 2">
    <g id="Layer_1-2" data-name="Layer 1">
      <g>
        <circle cx="50" cy="50" r="50" fill="#0a3254"/>
        <g>
          <circle cx="84.12" cy="87.5" r="10" fill="#fff"/>
          <circle cx="84.12" cy="87.5" r="7.5" fill="#e65133"/>
          <path d="M88.76,86a.44.44,0,0,1-.14.27l-2,2L87.07,91s0,.06,0,.11a.32.32,0,0,1-.06.2.19.19,0,0,1-.17.08.53.53,0,0,1-.23-.06l-2.5-1.32-2.51,1.32a.49.49,0,0,1-.22.06.19.19,0,0,1-.18-.08.39.39,0,0,1,0-.2.54.54,0,0,1,0-.11l.48-2.79-2-2a.39.39,0,0,1-.14-.27c0-.14.1-.23.31-.26l2.8-.41,1.26-2.53c.07-.16.16-.23.27-.23s.2.07.27.23l1.26,2.53,2.8.41C88.66,85.78,88.76,85.87,88.76,86Z" fill="#fff"/>
        </g>
        <g>
          <g>
            <path d="M68.17,37.88,59,28.68a1.08,1.08,0,0,0-.76-.31H35.77a1.06,1.06,0,0,0-1.07,1.07v26.2A10.5,10.5,0,0,1,36.84,55V30.51H56.3v8a2.07,2.07,0,0,0,2.06,2.07h8V68.19H50.05l.51,2.14H67.41a1.07,1.07,0,0,0,1.07-1.07V38.64A1.07,1.07,0,0,0,68.17,37.88Zm-9.73.55V31.16l7.25,7.27Z" fill="#fff"/>
            <line x1="41.82" y1="38.85" x2="49.36" y2="38.85" fill="none" stroke="#fff" stroke-linecap="round" stroke-miterlimit="10" stroke-width="2"/>
            <line x1="41.82" y1="45.85" x2="61.36" y2="45.85" fill="none" stroke="#fff" stroke-linecap="round" stroke-miterlimit="10" stroke-width="2"/>
            <line x1="41.82" y1="52.85" x2="61.36" y2="52.85" fill="none" stroke="#fff" stroke-linecap="round" stroke-miterlimit="10" stroke-width="2"/>
            <line x1="49.82" y1="59.85" x2="62.36" y2="59.85" fill="none" stroke="#fff" stroke-linecap="round" stroke-miterlimit="10" stroke-width="2"/>
          </g>
          <path d="M49.3,72.43l-2-.59A9.93,9.93,0,0,1,29.5,69.36q-.11-.35-.18-.69a1,1,0,0,1,.21-.89,1.06,1.06,0,0,1,.56-.35l.23,0h0a1,1,0,0,1,.81.41.88.88,0,0,1,.18.39,7.87,7.87,0,0,0,13.92,3l-1.83-.55.36-.34L46,68.19l1.19-1.12.65-.62.15.62.26,1.12.51,2.14Z" fill="#fff"/>
          <path d="M48.42,65a1,1,0,0,1-.55.34l-.1,0h-.14a1,1,0,0,1-.76-.34,1,1,0,0,1-.23-.45,7.84,7.84,0,0,0-7.65-6,7.7,7.7,0,0,0-2.15.3,7.53,7.53,0,0,0-2.14,1,7.74,7.74,0,0,0-2,1.82l1.84.55-3.73,3.52-.74.7-.17-.72-1.25-5.26,2,.59a10,10,0,0,1,4-3.55,9.18,9.18,0,0,1,2.14-.74A9.64,9.64,0,0,1,39,56.53a9.87,9.87,0,0,1,9.48,7,5.5,5.5,0,0,1,.16.58A1,1,0,0,1,48.42,65Z" fill="#fff"/>
          <circle cx="38.95" cy="66.74" r="3.07" fill="#fff"/>
        </g>
      </g>
    </g>
  </g>
</svg>
