<svg xmlns="http://www.w3.org/2000/svg" viewBox="0 0 100 100">
  <title>improved-document-quality</title>
  <g id="Layer_2" data-name="Layer 2">
    <g id="Layer_1-2" data-name="Layer 1">
      <g>
        <circle cx="50" cy="50" r="50" fill="#0a3254"/>
        <g>
          <circle cx="84.12" cy="87.5" r="10" fill="#fff"/>
          <circle cx="84.12" cy="87.5" r="7.5" fill="#e65133"/>
          <path d="M88.76,86a.44.44,0,0,1-.14.27l-2,2L87.07,91s0,.06,0,.11a.32.32,0,0,1-.06.2.19.19,0,0,1-.17.08.53.53,0,0,1-.23-.06l-2.5-1.32-2.51,1.32a.49.49,0,0,1-.22.06.19.19,0,0,1-.18-.08.39.39,0,0,1,0-.2.54.54,0,0,1,0-.11l.48-2.79-2-2a.39.39,0,0,1-.14-.27c0-.14.1-.23.31-.26l2.8-.41,1.26-2.53c.07-.16.16-.23.27-.23s.2.07.27.23l1.26,2.53,2.8.41C88.66,85.78,88.76,85.87,88.76,86Z" fill="#fff"/>
        </g>
        <g>
          <path d="M67.86,37.83,58.5,28.45a1.14,1.14,0,0,0-.78-.32H34.82a1.09,1.09,0,0,0-1.09,1.09V57a5.9,5.9,0,0,1,.87-.61,7.4,7.4,0,0,1,1.31-.61V30.31H55.75v8.15a2.11,2.11,0,0,0,2.11,2.11H66V68.73H47.22c0,.21-.09.42-.14.64a13.24,13.24,0,0,1-.47,1.55H67.08a1.1,1.1,0,0,0,1.1-1.1V38.6A1.1,1.1,0,0,0,67.86,37.83Zm-9.92.56V31l7.39,7.41Z" fill="#fff"/>
          <path d="M45.41,65.24l-2.17-.58a16.26,16.26,0,0,1-2.09-.73l-1-.41-.11-.06a14,14,0,0,1-1.72-1.07,14,14,0,0,1-1.72,1.07l-.11.06-.91.39-.07,0a17.11,17.11,0,0,1-2.08.72l-.29.08-1.88.5c-.19,2-.1,8,7.06,12a13.61,13.61,0,0,0,5.9-5.84,12,12,0,0,0,.89-2.45A11.64,11.64,0,0,0,45.41,65.24Zm-2.1,3.67a9.88,9.88,0,0,1-1.08,2.45,11.92,11.92,0,0,1-3.88,3.79,12,12,0,0,1-3.88-3.79A9.65,9.65,0,0,1,33.17,68a9.25,9.25,0,0,1-.16-1.9l.16,0,.76-.19a16.5,16.5,0,0,0,1.68-.57l.1,0a18.27,18.27,0,0,0,2.64-1.33A18.82,18.82,0,0,0,41,65.26a17.64,17.64,0,0,0,1.78.6c.3.08.61.16.92.22A9.19,9.19,0,0,1,43.31,68.91Z" fill="#fff"/>
          <path d="M43.75,62.77a13,13,0,0,1-1.83-.64,4.21,4.21,0,0,0-.16-.61,3.63,3.63,0,0,0-6.15-1.13,3.54,3.54,0,0,0-.67,1.14,3,3,0,0,0-.16.61,12.62,12.62,0,0,1-1.61.56l-.21.07a4.43,4.43,0,0,1,0-.52,4.5,4.5,0,0,1,.19-1,5.39,5.39,0,0,1,10.55,1A4.41,4.41,0,0,1,43.75,62.77Z" fill="#fff"/>
          <line x1="40.91" y1="39.14" x2="48.45" y2="39.14" fill="none" stroke="#fff" stroke-linecap="round" stroke-miterlimit="10" stroke-width="2"/>
          <line x1="40.91" y1="46.14" x2="60.45" y2="46.14" fill="none" stroke="#fff" stroke-linecap="round" stroke-miterlimit="10" stroke-width="2"/>
          <line x1="40.91" y1="53.14" x2="60.45" y2="53.14" fill="none" stroke="#fff" stroke-linecap="round" stroke-miterlimit="10" stroke-width="2"/>
          <line x1="48.91" y1="60.14" x2="61.45" y2="60.14" fill="none" stroke="#fff" stroke-linecap="round" stroke-miterlimit="10" stroke-width="2"/>
        </g>
      </g>
    </g>
  </g>
</svg>
