<svg xmlns="http://www.w3.org/2000/svg" viewBox="0 0 100 100">
  <title>less-travel</title>
  <g id="Layer_2" data-name="Layer 2">
    <g id="Layer_1-2" data-name="Layer 1">
      <g>
        <circle cx="50" cy="50" r="50" fill="#0a3254"/>
        <g>
          <circle cx="83.75" cy="87.5" r="10" fill="#fff"/>
          <circle cx="83.75" cy="87.5" r="7.5" fill="#e65133"/>
          <path d="M88.39,86a.44.44,0,0,1-.14.27l-2,2L86.7,91a.34.34,0,0,1,0,.11.32.32,0,0,1-.06.2.19.19,0,0,1-.17.08.46.46,0,0,1-.22-.06l-2.51-1.32-2.51,1.32a.49.49,0,0,1-.22.06.17.17,0,0,1-.17-.08.32.32,0,0,1-.06-.2.54.54,0,0,1,0-.11l.48-2.79-2-2a.39.39,0,0,1-.14-.27c0-.14.1-.23.31-.26l2.8-.41,1.26-2.53c.07-.16.16-.23.27-.23s.2.07.27.23l1.26,2.53,2.8.41C88.29,85.78,88.39,85.87,88.39,86Z" fill="#fff"/>
        </g>
        <g>
          <path d="M51.28,25.52a9.27,9.27,0,0,0-8.51,12.92.56.56,0,0,0,0,.12l7.7,16.31a.84.84,0,0,0,.76.49.83.83,0,0,0,.76-.49l7.7-16.31s0,0,0-.05a9.27,9.27,0,0,0-8.47-13Zm0,13.56A4.73,4.73,0,1,1,56,34.35,4.73,4.73,0,0,1,51.28,39.08ZM62.52,53.55v4.29h4.27V53.55Z" fill="#fff"/>
          <path d="M72.61,33.52H64.83a1.22,1.22,0,1,0,0,2.43h7.78a.23.23,0,0,1,.24.23V48.74H59.53A1.21,1.21,0,0,0,58.32,50V61.66H40.52a2.08,2.08,0,0,0-1.28-1.28V51.16H43a1.21,1.21,0,1,0,0-2.42H29.7V36.18a.23.23,0,0,1,.24-.23h7.57a1.22,1.22,0,1,0,0-2.43H29.94a2.66,2.66,0,0,0-2.66,2.66V69.66a2.66,2.66,0,0,0,2.66,2.65H72.61a2.67,2.67,0,0,0,2.67-2.65V36.18A2.67,2.67,0,0,0,72.61,33.52ZM60.74,51.16H72.85v10.5H60.74ZM39.24,64.35a2.17,2.17,0,0,0,1.27-1.23H58.32v6.77H39.24ZM37.78,51.16v9.25a2.13,2.13,0,0,0-1.21,1.25H29.7V51.16ZM29.7,69.66V63.12h6.89a2.13,2.13,0,0,0,1.19,1.2v5.57H29.94A.24.24,0,0,1,29.7,69.66Zm42.91.23H60.74V63.12H72.85v6.54A.24.24,0,0,1,72.61,69.89Z" fill="#fff"/>
        </g>
      </g>
    </g>
  </g>
</svg>
