<svg xmlns="http://www.w3.org/2000/svg" viewBox="0 0 100 100"><defs><style>.cls-1{fill:#0a3254;}.cls-2{fill:#fff;}.cls-3{fill:#1abc11;}</style></defs><title>kri-monitoring</title><g id="Layer_2" data-name="Layer 2"><g id="Layer_1-2" data-name="Layer 1"><circle class="cls-1" cx="50" cy="50" r="50"/><circle class="cls-2" cx="83.91" cy="87.49" r="10"/><circle class="cls-3" cx="83.91" cy="87.49" r="7.5"/><path class="cls-2" d="M88.24,85.54a.49.49,0,0,1-.16.38l-4,4-.76.76a.49.49,0,0,1-.38.16.52.52,0,0,1-.38-.16L81.77,90l-2-2a.49.49,0,0,1-.16-.38.51.51,0,0,1,.16-.38l.76-.76a.51.51,0,0,1,.37-.15.52.52,0,0,1,.38.15l1.64,1.65,3.66-3.67a.55.55,0,0,1,.38-.15.52.52,0,0,1,.38.15l.76.76A.51.51,0,0,1,88.24,85.54Z"/><path class="cls-2" d="M72.56,47.32,52.43,27.19a3.88,3.88,0,0,0-5.48,0L26.83,47.32a3.88,3.88,0,0,0,0,5.48L47,72.92a3.88,3.88,0,0,0,5.48,0L72.56,52.8A3.88,3.88,0,0,0,72.56,47.32ZM49.69,70l-20-20L49.78,30l20,20.13Z"/><circle class="cls-2" cx="49.69" cy="59.62" r="2.38"/><path class="cls-2" d="M49.69,38.11a2,2,0,0,0-2,2v12a2,2,0,0,0,4,0v-12A2,2,0,0,0,49.69,38.11Z"/></g></g></svg>