<svg xmlns="http://www.w3.org/2000/svg" viewBox="0 0 100 100"><defs><style>.cls-1{fill:#0a3254;}.cls-2,.cls-4{fill:#fff;}.cls-3{fill:#1abc11;}.cls-4{font-size:10px;font-family:FontAwesome, FontAwesome;}</style></defs><title>real-time-reporting</title><g id="Layer_2" data-name="Layer 2"><g id="Layer_1-2" data-name="Layer 1"><circle class="cls-1" cx="50" cy="50" r="50"/><circle class="cls-2" cx="82.46" cy="87.49" r="10"/><ellipse class="cls-3" cx="82.46" cy="87.49" rx="6.59" ry="7.66" transform="translate(-37.71 83.93) rotate(-45)"/><text class="cls-4" transform="translate(77.46 90.96)"></text><path class="cls-2" d="M57.62,36.51c-16.39-6.35-31.74,9-25.38,25.38A17.79,17.79,0,0,0,42.38,72c16.38,6.36,31.74-9,25.38-25.38A17.82,17.82,0,0,0,57.62,36.51Zm-.71,31c-13.32,6.17-26.33-6.84-20.16-20.15A13.09,13.09,0,0,1,43.08,41c13.32-6.19,26.35,6.83,20.16,20.16A13.07,13.07,0,0,1,56.91,67.52Z"/><path class="cls-2" d="M56,46.27l-5.22,5.22a2.77,2.77,0,0,0-.82-.15,3.27,3.27,0,0,0-2.52,1.47H42.73v2.91h4.74A3.24,3.24,0,0,0,50,57.19a2.91,2.91,0,0,0,2.91-2.92,3.18,3.18,0,0,0-.09-.69l5.26-5.27Z"/><path class="cls-2" d="M29.1,31.24a8.87,8.87,0,0,0-1,12.5L41.6,32.22A8.87,8.87,0,0,0,29.1,31.24Z"/><path class="cls-2" d="M70.9,31.24a8.87,8.87,0,0,0-12.5,1L71.87,43.74A8.87,8.87,0,0,0,70.9,31.24Z"/></g></g></svg>