<svg xmlns="http://www.w3.org/2000/svg" viewBox="0 0 120 120.16"><defs><style>.cls-1{fill:#ffcf00;}.cls-2{fill:#231f1f;}.cls-3{fill:#231e1f;}</style></defs><title>ADAC_2</title><g id="Layer_2" data-name="Layer 2"><g id="svg127772"><g id="layer1"><g id="g128879"><path id="path7384" class="cls-1" d="M0,0H120V120.16H0Z"/><path id="path7386" class="cls-2" d="M5.77,42.69H13l1.55-7.51h8.1L24,42.69H33L25.53,6.32H14Zm13-28.86h.08l2.57,15H15.81l3-15"/><path id="path7390" class="cls-3" d="M35.38,42.69H46.25c10.9,0,15.13-8.7,15.13-19,0-10.68-5.17-17.4-16.24-17.4H35.38Zm9-30h.75c6,0,6.56,6.72,6.56,10.67,0,4.74,0,12.65-6.32,12.65h-1V12.65"/><path id="path7394" class="cls-3" d="M60.32,42.69h7.51l1.58-7.51h8.34l1.42,7.51h9.21L80.67,6.32H68.77ZM73.75,13.83h.12l2.61,15H70.67l3.08-15"/><path id="path7398" class="cls-3" d="M106.05,19c0-2.37-.64-6.72-3.88-6.72-3.79,0-4.34,5.54-4.34,12.26,0,7.51.35,11.85,4.54,11.85,3.32,0,4.07-2.76,4.27-7.11l7.79.79c0,7.9-4.67,13-12.45,13C91.07,43.08,88.1,34,88.1,24.51c0-9.1,2.93-19,13.88-19,8.61,0,12.45,5.93,12.45,13.44h-8.38"/></g></g></g></g></svg>