<svg xmlns="http://www.w3.org/2000/svg" viewBox="0 0 509.89 300.36"><defs><style>.cls-1{fill:#11c3f4;}.cls-2{fill:#0e5b9b;}</style></defs><title>air-transat</title><g id="Layer_2" data-name="Layer 2"><g id="Layer_1-2" data-name="Layer 1"><path id="_Path_" data-name="&lt;Path&gt;" class="cls-1" d="M71.73,139.56s-17,49.07-20.24,81.22c11.67-28,34-67.11,47.62-85.59-19.17-15.66-54.56-32.12-54.56-32.12s28-12,84.52-15c0,0,23.54-45.48,84.25-88.11C176.63,11.78,141.9,43.15,106.6,77.41,61.42,79.74,12.5,97.87,7.27,100.19c52.05,26.91,64.46,39.37,64.46,39.37"/><path id="_Path_2" data-name="&lt;Path&gt;" class="cls-1" d="M276.35,103.71C232.16,85.9,177.63,81.3,177.63,81.3s-1.21-13.94,3-40.8c-5.19,11.18-14.66,35.11-16.25,53,39.72,3.08,66.87,12.1,66.87,12.1S191,120.82,168.68,138.4c4.06,9.92,13,38.71,18.17,61-8.78-7.91-34.7-29.31-53.49-40.68C108.25,168.46,38.94,237,0,300.36c16.85-17.54,66.23-73.28,133.08-113.58,13.66,8.05,77.27,49.66,77.27,49.66s-13.93-74-19.12-90.85c19.93-13.6,53.49-32.15,85.12-41.88"/><path id="_Path_3" data-name="&lt;Path&gt;" class="cls-2" d="M260.34,160.54h-4.88s-8.24,13.93-8.49,14.77l-6.13.27V183h5.45v22.13c0,5,1.31,8.88,3.84,11.58s6.07,4.08,10.43,4.08a46.47,46.47,0,0,0,5.93-.39,20.51,20.51,0,0,0,5.15-1.27L272,219v-8.15l-.82.28a18,18,0,0,1-2.69.65,17.53,17.53,0,0,1-3,.25c-2.06,0-3.44-.45-4.1-1.35a8,8,0,0,1-1.05-4.66V183.12h12.09v-8H260.34Z"/><path id="_Path_4" data-name="&lt;Path&gt;" class="cls-2" d="M497.78,160.54h-4.86s-8.24,13.93-8.49,14.77c-.77,0-6.13.27-6.13.27V183h5.46v22.13c0,5,1.28,8.88,3.83,11.58s6.07,4.08,10.43,4.08a46.59,46.59,0,0,0,5.93-.39,20.62,20.62,0,0,0,5.15-1.27l.39-.15v-8.15l-.82.28a18.41,18.41,0,0,1-2.7.65,17.29,17.29,0,0,1-3,.25c-2,0-3.43-.45-4.09-1.35a8,8,0,0,1-1.07-4.66V183.12h12.11v-8H497.78Z"/><rect id="_Path_5" data-name="&lt;Path&gt;" class="cls-2" x="349.63" y="175.08" width="14.09" height="45.1"/><path id="_Path_6" data-name="&lt;Path&gt;" class="cls-2" d="M365.73,186.49a10.17,10.17,0,0,1,1.61-.9,12.64,12.64,0,0,1,4.94-1,5.15,5.15,0,0,1,3.32,1.05c.85.66,1.29,2.07,1.29,4.16v30.34H391V188.83c0-5.4-1.11-9.23-3.29-11.41a12.22,12.22,0,0,0-9-3.27,20.32,20.32,0,0,0-8.37,1.61l-4.89,10.48Z"/><path id="_Path_7" data-name="&lt;Path&gt;" class="cls-2" d="M426.78,196.81c-2-2.34-5.58-4.24-10.62-5.65a45.4,45.4,0,0,1-7.35-2.49,2.65,2.65,0,0,1-1.34-2.57,2.84,2.84,0,0,1,1.83-2.51,11.89,11.89,0,0,1,5.4-1.06,33.07,33.07,0,0,1,6.23.63,24.15,24.15,0,0,1,2.5.61l3.31-7.1-.33-.16a26.53,26.53,0,0,0-5.41-1.73,36.62,36.62,0,0,0-7-.59c-6,0-10.45,1.29-13.26,3.81a12.12,12.12,0,0,0-4.28,9.38,15.17,15.17,0,0,0,2.38,8.81c1.58,2.28,4.6,4.06,8.91,5.29,5.43,1.57,7.39,2.6,8.09,3.2a3.91,3.91,0,0,1,1.41,3.14,3.68,3.68,0,0,1-2.14,3.22,13.25,13.25,0,0,1-6.73,1.39,23.77,23.77,0,0,1-6.85-1,30.49,30.49,0,0,1-5.19-2l-.73-.37-.2.2h0v8.81l.31.19a16.73,16.73,0,0,0,5.48,1.79,43.88,43.88,0,0,0,8.17.7c7.21,0,12.46-1.42,15.66-4.23a13.7,13.7,0,0,0,4.84-10.63,13.31,13.31,0,0,0-3.08-9.1"/><path id="_Path_8" data-name="&lt;Path&gt;" class="cls-2" d="M339.78,178.2c-2.95-2.66-7.55-4-13.64-4a44.94,44.94,0,0,0-9.62.89l-2.84.71-4.69,10,.24.24.65-.35a25.75,25.75,0,0,1,5.61-2.15,29.55,29.55,0,0,1,7.4-.86,9.53,9.53,0,0,1,5.73,1.46,4.1,4.1,0,0,1,1.91,3.42v3.19a12.75,12.75,0,0,0-3-1.33,19.9,19.9,0,0,0-5.46-.78c-6,0-10.89,1.39-14.47,4.12s-5.51,6.76-5.51,11.83v.77c0,5.11,1.4,9,4.16,11.55s6.77,3.84,12,3.84a20.08,20.08,0,0,0,6-.89l4.17-9.35-.26-.27a7.89,7.89,0,0,1-4.58,1.45,9.44,9.44,0,0,1-5.3-1.37c-1.28-.85-1.93-2.66-1.93-5.39v-1.19c0-2.63.63-4.57,1.9-5.73a7.39,7.39,0,0,1,5.24-1.8,7.06,7.06,0,0,1,5.35,1.89,8,8,0,0,1,1.78,5.55v16.56h13.62v-29.3c0-5.79-1.52-10.08-4.49-12.74"/><path id="_Path_9" data-name="&lt;Path&gt;" class="cls-2" d="M471,178.2c-3-2.67-7.55-4-13.65-4a45.23,45.23,0,0,0-9.63.89c-1,.24-1.91.46-2.82.71l-4.68,10,.23.24.66-.35a24.88,24.88,0,0,1,5.62-2.15,29.22,29.22,0,0,1,7.36-.86,9.59,9.59,0,0,1,5.75,1.46,4.07,4.07,0,0,1,1.89,3.42v3.19a12,12,0,0,0-3-1.33,19.9,19.9,0,0,0-5.45-.79c-6,0-10.88,1.4-14.48,4.13s-5.49,6.76-5.49,11.83v.77c0,5.11,1.39,9,4.14,11.55s6.77,3.84,12,3.84a20,20,0,0,0,6-.89l4.17-9.35-.25-.27a7.9,7.9,0,0,1-4.57,1.45,9.4,9.4,0,0,1-5.31-1.37c-1.29-.85-1.94-2.66-1.94-5.39v-1.19c0-2.63.64-4.57,1.89-5.73a7.43,7.43,0,0,1,5.27-1.8,7.09,7.09,0,0,1,5.33,1.88,7.92,7.92,0,0,1,1.79,5.56l0,16.56h13.63v-29.3c0-5.79-1.51-10.08-4.48-12.74"/><path id="_Path_10" data-name="&lt;Path&gt;" class="cls-2" d="M308.84,176.66A11.88,11.88,0,0,0,301,174.2a12.18,12.18,0,0,0-7.17,2.16l-.18.15a14.45,14.45,0,0,0-3.53,3.83c-.08-2.06-.21-5.26-.21-5.26H276.36v45.17h14.1V191.94a7.61,7.61,0,0,1,3.94-6.61l.13-.08a8.56,8.56,0,0,1,4.08-1l.18,0a8.34,8.34,0,0,1,4.93,1.69l.63.47,4.51-9.71Z"/><path class="cls-1" d="M321.73,160.54H311.6l-3.68-9.07H290.1l-3.61,9.07H276.36l18-46.09h9.33Zm-28.41-17.75h11.44L299,127.73Z"/><path class="cls-1" d="M330.93,113.73a5.43,5.43,0,1,1,0,10.85,5.43,5.43,0,0,1,0-10.85Zm-4.67,14.59h9.41v32.22h-9.41Z"/><path class="cls-1" d="M362.76,136.94h-1.45c-5.19,0-8.94,3.29-8.94,10.12v13.48H343V128.32h9.2v2.9a10.42,10.42,0,0,1,8-3.36c1.12,0,1.58,0,2.5.07Z"/></g></g></svg>