<svg xmlns="http://www.w3.org/2000/svg" viewBox="0 0 146.45 70"><defs><style>.cls-1{fill:#2d5f9e;}.cls-2{fill:#00a5dd;}.cls-3{fill:#714083;}</style></defs><title>alexander-dennis</title><g id="Layer_2" data-name="Layer 2"><g id="Layer_1-2" data-name="Layer 1"><path class="cls-1" d="M73.42,0A16.57,16.57,0,1,0,90,16.57,16.59,16.59,0,0,0,73.42,0Z"/><path class="cls-1" d="M0,52.52,6.41,40H11l6.3,12.49H13.35l-1.13-2.08H5.06L3.91,52.52Zm10.92-5.09L8.64,43,6.41,47.43Z"/><path class="cls-1" d="M30,49.49v3H18.54V40h3.59v9.46Z"/><path class="cls-1" d="M35.12,43.07V45h8.71v2.63H35.12v1.9h9.39v3h-13V40H44.36v3Z"/><path class="cls-1" d="M51.23,46.18,45.88,40h4.48L54,44.41,57.69,40H62l-5.19,6.15,5.64,6.34H57.86L54,48.14l-3.89,4.38H45.45Z"/><path class="cls-1" d="M62.81,52.52,69.23,40h4.58l6.3,12.49h-4L75,50.44H67.87l-1.15,2.08Zm10.93-5.09L71.46,43l-2.23,4.41Z"/><path class="cls-1" d="M91.86,52.52l-7-9.09v9.09H81.23V40h5.31l7,9.16V40h3.57V52.52Z"/><path class="cls-1" d="M115,44.22v4.29c0,2.77-1.24,4-4.09,4H99.55V40h10.31C113.35,40,115,41.23,115,44.22ZM103.14,43.1v6.38h6.07c1.52,0,2.2-.64,2.2-2v-2.2c0-1.47-.85-2.13-2.65-2.13Z"/><path class="cls-1" d="M120.67,43.07V45h8.71v2.63h-8.71v1.9h9.39v3h-13V40h12.82v3Z"/><path class="cls-1" d="M146.45,44.12c0,2.06-.49,3.09-2,3.47A2.23,2.23,0,0,1,146.35,50v2.56h-3.59V50.61c0-1.07-.43-1.29-1.61-1.29H135.8v3.2h-3.61V40h9.44C145.19,40,146.45,40.87,146.45,44.12Zm-10.65-1V46.2h5.7c1,0,1.3-.47,1.3-1.65,0-1-.37-1.41-1.3-1.41Z"/><path class="cls-2" d="M44.57,61.55v4.29c0,2.77-1.24,4-4.09,4H29.12V57.35H39.43C42.92,57.35,44.57,58.56,44.57,61.55ZM32.71,60.43v6.38h6.07c1.52,0,2.2-.64,2.2-2v-2.2c0-1.48-.85-2.13-2.65-2.13Z"/><path class="cls-2" d="M50.24,60.4v1.88H59v2.63H50.24v1.91h9.39v3h-13V57.35H59.48v3Z"/><path class="cls-2" d="M72.26,69.84l-7.05-9.08v9.08H61.62V57.35h5.32l7,9.16V57.35h3.57V69.84Z"/><path class="cls-2" d="M90.48,69.84l-7-9.08v9.08H79.85V57.35h5.32l7,9.16V57.35h3.57V69.84Z"/><path class="cls-2" d="M98.21,69.84V57.35h3.59V69.84Z"/><path class="cls-2" d="M107.73,65.69v.22c0,1,.44,1.2,1.68,1.2h4.51c.85,0,1.23-.27,1.23-1s-.57-1-1.73-1.08l-5.65-.19c-2.73-.08-3.59-.86-3.59-3.73a4.1,4.1,0,0,1,.81-2.92c.86-.88,2.16-1,4.05-1h5.48c2.66,0,3.83.94,3.83,3.35,0,.21,0,.45,0,.69h-3.47v-.05c0-.83-.38-1.24-1.17-1.24h-4.14c-1.11,0-1.7.1-1.7,1s.42,1,1.41,1l5.9.15c2.69.07,3.66,1.14,3.66,4.06,0,1.58-.27,2.51-1.32,3.23-.73.5-1.92.6-3.64.6h-4.78c-3.64,0-4.93-.58-4.93-3.32,0-.13,0-.48,0-1Z"/><path class="cls-2" d="M73.42,0a18.09,18.09,0,0,0,0,33.11Z"/><path class="cls-3" d="M73.42.07a25.79,25.79,0,0,0,0,33Z"/><path class="cls-3" d="M73.42,0a18.1,18.1,0,0,1,0,33.11Z"/><path class="cls-2" d="M73.42.07a25.79,25.79,0,0,1,0,33Z"/></g></g></svg>