<svg xmlns="http://www.w3.org/2000/svg" viewBox="0 0 160.63 76.77"><defs><style>.cls-1{fill:#231f20;}.cls-2{fill:#fff;}</style></defs><title>anthony-nolan</title><g id="Layer_2" data-name="Layer 2"><g id="Layer_1-2" data-name="Layer 1"><path class="cls-1" d="M160.63,60.87H0V0H160.63ZM0,75.35H3.11c1.44,0,2.28-.63,2.28-1.67h0A1.46,1.46,0,0,0,4.2,72.19a1.39,1.39,0,0,0,.93-1.34v0a1.37,1.37,0,0,0-.39-1,2.25,2.25,0,0,0-1.65-.53H0Zm3.48-4.16c0,.36-.29.53-.8.53H1.63V70.66H2.72c.49,0,.76.18.76.52Zm.24,2.24v0c0,.35-.28.55-.8.55H1.63V72.89H2.9C3.46,72.89,3.72,73.11,3.72,73.43Zm5,1.92h4.9V73.92H10.37V73h2.9V71.65h-2.9v-.92h3.2V69.32H8.72Zm11.06,0h1.75L22,74.26H24.3l.43,1.09h1.79L24,69.27H22.34ZM22.45,73l.69-1.71L23.81,73Zm10.44,2.39h1.64V71.89l1.53,2.35h0l1.55-2.36v3.47H39.3v-6H37.53l-1.44,2.33-1.44-2.33H32.89Zm9.56,0H44.2l.43-1.09H47l.43,1.09h1.79l-2.57-6.08H45ZM45.13,73l.68-1.71L46.48,73ZM53,75.35h1.68V70.78h1.81V69.32H51.23v1.46H53Zm9.43.12a3,3,0,0,0,2.66-1.37l-1.25-.89a1.66,1.66,0,0,1-1.36.73,1.49,1.49,0,0,1-1.44-1.61v0a1.49,1.49,0,0,1,1.44-1.6,1.61,1.61,0,0,1,1.31.71l1.26-1a3,3,0,0,0-2.56-1.25,3.1,3.1,0,0,0-3.17,3.14v0A3.07,3.07,0,0,0,62.46,75.47Zm5.95-.12h1.67v-2.3h2.14v2.3H73.9v-6H72.22v2.25H70.08V69.32H68.41Zm8,1.42c1.06,0,1.76-.48,1.76-1.75V73.65H76.51v1.68h.65c0,.46-.28.75-.86.81Zm10.39-1.32c1.46,0,2.44-.73,2.44-2h0c0-1.13-.86-1.58-2.24-1.88-.85-.19-1-.31-1-.59h0c0-.23.19-.39.6-.39a3,3,0,0,1,1.69.59L89.1,70a3.8,3.8,0,0,0-2.48-.8c-1.45,0-2.33.81-2.33,1.93v0c0,1.23,1,1.59,2.27,1.89.83.19,1,.32,1,.58v0c0,.26-.24.41-.7.41a3.12,3.12,0,0,1-2-.72L84,74.45A4.25,4.25,0,0,0,86.83,75.45Zm5.2-.1h1.75l.43-1.09h2.34L97,75.35h1.79l-2.56-6.08H94.59ZM94.7,73l.69-1.71L96.06,73ZM103,75.39h1.55L107,69.32h-1.83l-1.38,3.81-1.37-3.81h-1.86Zm7.14,0h4.9V73.92h-3.24V73h2.89V71.65h-2.89v-.92H115V69.32h-4.85Zm11.07,0H123l.43-1.09h2.33l.43,1.09H128l-2.56-6.08h-1.61ZM123.9,73l.68-1.71.67,1.71Zm10.43,2.39h4.6V73.88H136V69.32h-1.68Zm7.92,0h1.67v-6h-1.67Zm5.34,0h1.67V73.19h2.85V71.81h-2.85v-1h3.15V69.32h-4.82Zm8.15,0h4.89V73.92h-3.24V73h2.89V71.65h-2.89v-.92h3.2V69.32h-4.85Z"/><path class="cls-2" d="M145.49,33.77h3.71v17H146L137.75,40V50.82h-3.7V34.58l-36.25-10L84,26.51,68.33,34l4.92,2.51V33.77h3V38L99.64,50l6.89-16.3h4.55l7.26,17.17h-5.06l-1.24-3h-6.58l-1.22,3h-5l-23-11.72v9h9v2.73h-12V37.57l-6-3.06-8.88,4.25a8.82,8.82,0,0,1,.72,3.49v0a8.93,8.93,0,0,1-9.21,8.86,8.85,8.85,0,0,1-9.16-8.82v0a8.94,8.94,0,0,1,9.21-8.87,9,9,0,0,1,8,4.49l8.24-4-7.8-4L26.58,34.35V50.82H23.39L15.14,40V50.82H11.43v-17h3.46l8,10.5V33.77h1l33.07-4.52L38.77,20v1.22H36.24V18.71L20.77,10.83l4.35,10.39H20.89l-.62-1.56H16.2l-.6,1.56H11.43L16.35,9.48h3.86l16,8.17V9.57h2.37l5.46,7.17V9.57H46.6L62.52,14V12.4H59V9.57H69.25V12.4h-3.5v2.43L79,18.48V9.57h2.57v4.61h4.72V9.57h2.57V21.18l2.57.71,8.82-4.23a5.91,5.91,0,0,1-.44-2.23v0a6.17,6.17,0,0,1,6.38-6.08,6.11,6.11,0,0,1,6.34,6v0a6.16,6.16,0,0,1-6.37,6.07,6.34,6.34,0,0,1-5.49-3l-7.85,3.76,5,1.38,23.77-3.25V9.57H124l5.46,7.17V9.57H132V21.22H129.8l-5.65-7.41v7.41h-1.48l-22.49,3.07,34.48,9.48h2.85l8,10.5ZM103.75,15.4A2.49,2.49,0,0,0,106.19,18a2.46,2.46,0,0,0,2.41-2.6v0a2.49,2.49,0,0,0-2.44-2.64,2.46,2.46,0,0,0-2.41,2.6ZM19.31,16.89l-1.07-2.83-1.06,2.83Zm34.18,25.4a3.64,3.64,0,0,0-3.6-3.78,3.57,3.57,0,0,0-3.54,3.74v0a3.64,3.64,0,0,0,3.58,3.79,3.58,3.58,0,0,0,3.56-3.75Zm53.36,1.81h3.82l-1.9-4.85ZM81.57,19.18l4.72,1.3V16.54H81.57ZM58.57,29,83.7,25.59l6.43-3.08-8.56-2.35v1.06H79V19.46L65.75,15.81v5.41H62.52V14.93L46.6,10.55V21.22H44.42l-5.65-7.41v5.13Zm22.33-2.1L60,29.78l7.23,3.68ZM95.47,24l-4-1.09-4.76,2.28ZM149.61,9.56,146.8,14.2,144,9.56h-3l4.47,7v4.61h2.57V16.55l4.47-7Z"/></g></g></svg>