<svg xmlns="http://www.w3.org/2000/svg" viewBox="0 0 283.48 68.75"><defs><style>.cls-1{fill:#860052;}.cls-2{fill:#fcaf17;}</style></defs><title>astra-zenica</title><g id="Layer_2" data-name="Layer 2"><g id="Layer_1-2" data-name="Layer 1"><path class="cls-1" d="M9,55l4.7-12.6,4.4,12.7H9Zm13.7,12.8H27L15.8,37.33H11.6L0,67.83H4.3l3.4-9.4H19.3ZM43,61.33c0,2.5-2,3.8-5.5,3.8-2.8,0-4.6-.8-5.7-2.6l-4.1.7c1.6,3.3,4.9,4.8,9.6,4.8,6.4,0,9.7-3.5,9.7-7.3,0-4.8-4.5-6.1-9.6-7.2-2.5-.5-5.4-1.4-5.4-3.6,0-1.6,1.5-3.4,4.6-3.4a5.83,5.83,0,0,1,5.3,3L45.5,48c-1.7-3.2-5-4.4-8.4-4.4-5.4,0-8.9,2.6-8.9,6.8,0,4.8,4.1,5.7,8.1,6.6C39.7,57.93,43,58.73,43,61.33Zm12.6-24-4,1.7v5.6H47.9v3.2h3.7v14.9c-.1,3-.1,5.2,4.5,5.2a26,26,0,0,0,3.8-.4v-3.1a12.29,12.29,0,0,1-2.5.5c-1.7,0-1.7-1.2-1.7-3.9V47.83h4.2v-3.2H55.7v-7.3Zm7.7,7.3v23.2h3.9V57.13c0-2-.1-4.3,1-6,1.3-2.1,3.1-2.8,7-2.9v-4c-1.6.1-5.7.1-7.9,4.5v-4.1Zm34.8-7.3v3.8h17.4L98.2,63.93v4h22.3v-3.7H102.8l17.3-23v-3.8h-22Zm46.8,7.3v23.2h3.9V54.63c0-1.7,0-3.5,1.7-5.2a6,6,0,0,1,4.4-1.8,5,5,0,0,1,5,3.2,15.9,15.9,0,0,1,.2,3.8v13.1H164V54.13a16.1,16.1,0,0,0-.4-4.7,7.66,7.66,0,0,0-7.6-5.3,8,8,0,0,0-7.2,4.1v-3.5h-3.9Zm60.4,17.6c-.8,1.6-2.3,3-5.4,3-2.6,0-7-1.6-7-9.3,0-2.1.4-9.3,6.8-9.3a5.54,5.54,0,0,1,5.4,3.3l3.6-1.5c-2.2-3.7-6.3-4.6-9.2-4.6-7.4,0-11,5.9-11,12.5,0,5.7,3.1,12,11.3,12a9.73,9.73,0,0,0,8.8-4.6Zm-79.2-8.4h12.3c-.3-6.1-3.8-7.1-6.2-7.1C128.9,46.73,126.6,49.13,126.1,53.83Zm15.5,9.6c-1.3,2.3-3.9,4.8-8.9,4.8-6.8,0-10.8-4.6-10.8-12.4,0-8.7,5.7-12,10.6-12,4.3,0,8.3,2.4,9.7,8.2a23.07,23.07,0,0,1,.4,4.7H126c-.1,3.9,1.5,8.8,7,8.7a5.6,5.6,0,0,0,4.8-2.6Zm28.8-9.6h12.3c-.3-6.1-3.8-7.1-6.2-7.1C173.1,46.73,170.8,49.13,170.4,53.83Zm15.4,9.6c-1.3,2.3-3.9,4.8-8.9,4.8-6.8,0-10.8-4.6-10.8-12.4,0-8.7,5.7-12,10.6-12,4.3,0,8.3,2.4,9.7,8.2a23.07,23.07,0,0,1,.4,4.7H170.1c-.1,3.9,1.5,8.8,7,8.7a5.6,5.6,0,0,0,4.8-2.6Zm44.3,4.4H226a20.49,20.49,0,0,1-.5-3.4,10.18,10.18,0,0,1-7.8,3.7c-4.5,0-7.8-2.7-7.8-6.6a6.2,6.2,0,0,1,1-3.5c1.3-2,3.8-3.5,10.7-4.1l3.7-.3V53c0-2.4,0-6.4-5.2-6.4-3.2,0-4.4,1.6-4.7,3l-3.6-1.5c.1-.1.1-.3.2-.4,1.4-2.5,4.1-4.1,8-4.1a11,11,0,0,1,6.7,2c2.6,2,2.5,5.8,2.5,5.8l.2,11.9A19,19,0,0,0,230.1,67.83Zm-5.4-6.4c.6-1.3.6-1.8.6-5.2a58.32,58.32,0,0,0-6.1,1.1c-4.3.9-5,2.6-5,4.2,0,1.9,1.5,3.4,4.4,3.4C221.3,64.93,223.6,63.83,224.7,61.43ZM95.4,67.83h-4a20.49,20.49,0,0,1-.5-3.4,10.18,10.18,0,0,1-7.8,3.7c-4.5,0-7.9-2.7-7.9-6.6a6.2,6.2,0,0,1,1-3.5c1.3-2,3.8-3.5,10.7-4.1l3.7-.3V53c0-2.4,0-6.4-5.2-6.4-3.3,0-4.4,1.6-4.7,3l-3.6-1.5c.1-.1.1-.3.2-.4,1.4-2.5,4.1-4.1,8-4.1a11,11,0,0,1,6.7,2c2.6,2,2.5,5.8,2.5,5.8l.1,11.9C94.7,63.43,94.9,66.83,95.4,67.83Zm-5.3-6.4c.6-1.3.6-1.8.6-5.2a58.32,58.32,0,0,0-6.1,1.1c-4.3.9-5,2.6-5,4.2,0,1.9,1.5,3.4,4.4,3.4A6.45,6.45,0,0,0,90.1,61.43Z"/><path class="cls-2" d="M255.4,48.33l-1.8,1.2c-7-3.9-22-11.4-23.3-12s-3.8-1.7-3.5-4c.4-3.2,6.1-10.3,8.5-13.3,13-15.8,18.8-20.7,22.6-20.2,4.1.5,6.4,4.8,6.7,24.6q-3.45-1.05-7.5-2.1c-.2-2.9-.8-7.2-1-8.7-.2-1.7-.6-2.3-1.2-2.4-.8-.1-2.7,1.7-4.4,3.5-.8.8-3,3-5.4,5.5-2-.1-3.4.3-4.1,1.3a4,4,0,0,0-.4,3.3l-3.2,3.2c-2.7,2.7-5.6,4.9-5.7,6-.1.9,1.2,1.8,3.2,3C239.5,39.73,251.2,46.13,255.4,48.33Zm18.2-19.8c-4.6-1.6-15.9-5.8-27.8-7.4-4.1-.5-5.7.9-4.1,4.8s6,10.3,10.5,15.2,9.4,6.1,11-1.3c.1-.3.1-.5.2-.8a39.26,39.26,0,0,0,.8-5.4c-2-.9-4.3-1.9-6.5-2.8.1,1.7.3,4.7.4,6.9v.8c.1,3.7-1.1,3.7-3.2,2.2-2.4-1.7-9.9-11.6-10.8-16,0-.3.1-.3.2-.2s.1,0,.2.1h0c1.7.7,7.3,2.9,13,5.3,2.3,1,4.6,1.9,6.6,2.9s3.8,1.8,5.2,2.5c2.5,1.3,3.4,2.2,2.4,3.3-5.1,5.2-23.1,12.6-29.3,21.8l-.1.1c-.1.1-.1.2-.2.3a.1.1,0,0,1-.1.1,9.35,9.35,0,0,0-.9,2.7c-.3,2,.8,3.8,3.7,4.6a14.43,14.43,0,0,0,2.4.5h.5c5.5.3,19.9-2.9,24.2-4.8,4.5-2,3.2-4,1.9-5-1-.8-6-3.6-8.4-4.9a11.27,11.27,0,0,0-1.8,1.2c4.1,2.5,5.8,3.8,6.8,4.5.4.3.2.6-.4.7h-.4c-3.9.3-11.4.8-14.9,1-.5,0-1.1.1-1.4.1.9-.8,1.8-1.5,2.3-1.9,7.5-5.3,20-12.7,23.7-15.9C282.1,41.23,289.5,34,273.6,28.53Z"/></g></g></svg>