<svg xmlns="http://www.w3.org/2000/svg" viewBox="0 0 161.13 50"><defs><style>.cls-1{fill:#004b93;}</style></defs><title>bbva</title><g id="Layer_2" data-name="Layer 2"><g id="Layer_1-2" data-name="Layer 1"><path class="cls-1" d="M128.3,31.86l6.84-22.8,6.92,22.8ZM146,5.08C144.58,1,143.8,0,139.89,0h-9.55L115.05,50h7.78l3.29-10.76h18.16L147.58,50h13.55Z"/><path class="cls-1" d="M54.06,43.32V6.51h6.42a5.78,5.78,0,0,1,5.77,5.64A5.8,5.8,0,0,1,65,15.76L60.82,22c4.36,1,7.27,4.36,7.27,10.56,0,7.54-4.51,10.75-10.47,10.75ZM70.23,19.59,72.68,16c5.16-7.66,1.61-16-8.59-16H42.3V50h21c18.48,0,24-21.52,6.92-30.41"/><path class="cls-1" d="M15.31,43.32H11.79V6.51h6.39A5.8,5.8,0,0,1,24,12.15a5.66,5.66,0,0,1-1.28,3.61L18.5,22c4.37,1,7.28,4.36,7.28,10.56,0,7.54-4.5,10.75-10.47,10.75M27.93,19.59,30.36,16C35.54,8.32,32,0,21.76,0H0V50H21c18.46,0,24-21.52,6.92-30.41"/><path class="cls-1" d="M92.22,6.51C90.44.88,89.53,0,86.12,0H77.3L93.65,50h12L120.89,0H113L101.71,38Z"/><path class="cls-1" d="M0,0H21"/></g></g></svg>