<svg xmlns="http://www.w3.org/2000/svg" viewBox="0 0 111.97 43"><defs><style>.cls-1{fill:#1c4f99;}.cls-2{fill:#eb293d;}</style></defs><title>bdo-logo</title><g id="Layer_2" data-name="Layer 2"><g id="Layer_1-2" data-name="Layer 1"><g id="layer1"><path id="path48" class="cls-1" d="M94.79,0C88,0,77.6,3.62,77.6,16.53S88,33.06,94.79,33.06,112,29.43,112,16.53,101.54,0,94.79,0ZM13.51.36,14.71,3V30.37l6.53-4.57v-8h3.9c6.41,0,9.67,1.4,9.67,5.15,0,3.33-2.61,4.73-6.72,4.73H21.84l-7.13,5H28c8,0,13.35-2.88,13.35-9.53,0-5.8-4.75-8.07-9-8.07A6.8,6.8,0,0,0,38.79,8c0-4.45-4.08-7.65-8.72-7.65H13.51Zm30.9,0L45.61,3V30.37l6.53-4.57V5.36h4.44c1.84,0,11.2.46,11.2,11.17,0,12.22-11.2,11.17-11.2,11.17H52.74l-7.13,5H58.42c8,0,16.16-4.91,16.16-16.17,0-10-7.14-16.17-16.16-16.17ZM94.79,4.81c4.08,0,10.38,2.57,10.38,11.72s-6.3,11.72-10.38,11.72S84.41,25.67,84.41,16.53,90.71,4.81,94.79,4.81Zm-73.55.55h6.84c1.88,0,4.26.44,4.26,3.63s-3.4,4.49-5.92,4.49H21.24Z"/><path id="path60" class="cls-2" d="M0,.36V40.67l6.38-4.46V.36ZM7.57,37.7,0,43H111.62V37.7Z"/></g></g></g></svg>