<svg xmlns="http://www.w3.org/2000/svg" xmlns:xlink="http://www.w3.org/1999/xlink" viewBox="0 0 260 34.18"><defs><style>.cls-1{fill:url(#radial-gradient);}.cls-2{fill:url(#radial-gradient-2);}.cls-3{fill:url(#radial-gradient-3);}.cls-4{fill:url(#radial-gradient-4);}</style><radialGradient id="radial-gradient" cx="-371.54" cy="-423.77" r="0.46" gradientTransform="matrix(66.41, 0, 0, -66.41, 24925.5, -28111.16)" gradientUnits="userSpaceOnUse"><stop offset="0" stop-color="#fedf33"/><stop offset="0.44" stop-color="#fbb809"/><stop offset="0.9" stop-color="#ee960d"/><stop offset="1" stop-color="#e17a10"/></radialGradient><radialGradient id="radial-gradient-2" cx="-371.39" cy="-424.3" r="0.46" gradientTransform="matrix(66.46, 0, 0, -66.46, 24926.32, -28197.01)" xlink:href="#radial-gradient"/><radialGradient id="radial-gradient-3" cx="-371" cy="-423.91" r="0.46" gradientTransform="matrix(66.43, 0, 0, -66.43, 24868.07, -28138.06)" xlink:href="#radial-gradient"/><radialGradient id="radial-gradient-4" cx="-371.54" cy="-423.72" r="0.46" gradientTransform="matrix(66.62, 0, 0, -66.62, 25003.05, -28195.75)" gradientUnits="userSpaceOnUse"><stop offset="0" stop-color="#fedf33"/><stop offset="0.44" stop-color="#fbb809"/><stop offset="0.9" stop-color="#ee960d"/><stop offset="1" stop-color="#d87301"/></radialGradient></defs><title>commerzbank</title><g id="Layer_2" data-name="Layer 2"><g id="Layer_1-2" data-name="Layer 1"><g id="layer1"><g id="g3651"><path id="path201" class="cls-1" d="M245.55,0c-.72,0-2.85,0-5.32,3h0l.1.12h0a10.51,10.51,0,0,1,2.29-2.06h0a6,6,0,0,1,2.46-.93h0c.55-.06,2.38,0,4.46,0h0L249.51,0h-4Z"/><path id="path225" class="cls-2" d="M231.05,0h0l-7.74,13.41-2.43,4.2-.28.49,0,.07v0h0L227.92,31v0c-.16-.29-.28-.52-.34-.66h0a6,6,0,0,1-.43-2.61h0a14.26,14.26,0,0,1,2.1-6h0l4.54-7.88h0l4.55-7.89h0A14.49,14.49,0,0,1,242.54,1h0A6.18,6.18,0,0,1,245,.06h0c.56-.06,2.4-.06,4.48-.06H231.05Z"/><path id="path249" class="cls-3" d="M220.61,18.3l.34.6h0ZM257.7,22a6,6,0,0,1-2,1.68h0a14.51,14.51,0,0,1-6.3,1.21h-18.2a14.45,14.45,0,0,1-6.29-1.21h0a6,6,0,0,1-2-1.68h0c-.29-.39-1-1.64-1.89-3.14h0l1.85,3.21,7,12.06h21l9.13-15.83c-1,1.75-1.89,3.27-2.21,3.7"/><path id="path273" class="cls-4" d="M245,.06a6.18,6.18,0,0,0-2.47.93h0a10.4,10.4,0,0,0-2.27,2.06h0a19.37,19.37,0,0,1,1.93,2.78h0l4.55,7.89h0l4.55,7.88h0a14.41,14.41,0,0,1,2.09,6h0a6.12,6.12,0,0,1-.43,2.61h0c-.21.49-1.06,2-2.05,3.68h0L260,18.19h0L249.51,0h0c-2.08,0-3.92,0-4.48.06"/><path id="path177" d="M9.33,9.31A9.43,9.43,0,0,0,0,18.94c0,5.6,4.07,9.48,9.08,9.48a8.57,8.57,0,0,0,6.79-3l-2.51-2.57a5.25,5.25,0,0,1-4,1.72c-2.94,0-4.93-2.47-4.93-5.75s2-5.72,4.86-5.72a5.34,5.34,0,0,1,3.8,1.56L15.65,12A8.48,8.48,0,0,0,9.33,9.31Zm17.58,0a9.52,9.52,0,0,0-9.64,9.63,9.19,9.19,0,0,0,9.51,9.48,9.51,9.51,0,0,0,9.63-9.63A9.18,9.18,0,0,0,26.91,9.31Zm14,.3-1.8,18.47H42.9l.85-10c.18-1.93.19-3.94.19-3.94H44s.42,2,1,3.85l3.12,10.06h3.63l3.12-10.15c.56-1.76,1-3.76,1-3.76h.06s0,2,.22,4l.82,9.9H61L59.22,9.61H53.87l-2.81,9.15c-.45,1.49-.92,3.39-.92,3.39s-.49-1.9-1-3.42L46.32,9.61Zm25.74,0L64.85,28.08h3.82l.83-10c.17-1.93.21-3.94.21-3.94h.06s.46,2,1,3.85L73.9,28.08h3.64l3.09-10.15c.55-1.76,1-3.76,1-3.76h.06s0,2,.21,4l.83,9.9H86.8L85,9.61H79.65l-2.81,9.15c-.45,1.49-.92,3.39-.92,3.39s-.5-1.9-1-3.42L72.1,9.61Zm24.59,0V28.08h12V24.53h-8v-4H102V17H95.24V13.13h7.86V9.61Zm16.75,0V28.08h4V21.35h1.25l3.94,6.73H122l-4.55-7.43a5.31,5.31,0,0,0,3.73-5.13c0-3.74-2.11-5.91-7.68-5.91Zm16.57,0v3.52H132L124.35,25v3.06h12.87V24.53h-7.83L137,12.64v-3Zm16.85,0V28.08h7.06c3.29,0,6.94-1.48,6.94-5.32a4.17,4.17,0,0,0-3.94-4.31v0a4.09,4.09,0,0,0,3.09-4.07c0-4-3.54-4.74-6.76-4.74Zm21.92,0-6.57,18.47h4l1.29-3.76h7.18l1.29,3.76h4.34L168.29,9.61Zm14.07,0V28.08h3.73V19.31c0-1.66-.13-3.37-.13-3.37s.87,1.49,1.84,2.94l6.27,9.2h3.57V9.61h-3.76V18c0,1.66.13,3.33.13,3.33s-.87-1.48-1.84-2.93l-6-8.78Zm19.72,0V28.08h4V19.43l5.9,8.65h5l-6.79-9.9,6.14-8.57h-4.64l-5.57,8.29V9.61ZM26.84,13.07c3.19,0,5.23,2.52,5.23,5.81,0,3.11-2,5.78-5.23,5.78s-5.22-2.53-5.22-5.81C21.62,15.74,23.59,13.07,26.84,13.07Zm85.16,0h1.65c2.14,0,3.39.65,3.39,2.45S115.9,18,113.65,18H112Zm33.38,0h2.33c1.28,0,2.57.4,2.57,1.93s-1.11,2.07-2.39,2.07h-2.51Zm20.28.27s.34,1.25.79,2.6l1.62,4.9h-4.83L164.86,16C165.31,14.59,165.66,13.34,165.66,13.34Zm-20.28,7.13h3c1.8,0,3,.56,3,2s-.93,2.14-3,2.14h-3Z"/></g></g></g></g></svg>