<svg xmlns="http://www.w3.org/2000/svg" viewBox="0 0 141.18 175.75"><defs><style>.cls-1{fill:#26ac70;}.cls-1,.cls-2{fill-rule:evenodd;}.cls-2{fill:#fcd832;}</style></defs><title>dairy-crest</title><g id="Layer_2" data-name="Layer 2"><g id="Layer_1-2" data-name="Layer 1"><polygon class="cls-1" points="72.06 96.19 72.06 137.67 62.92 137.67 62.92 143.18 78.27 143.18 78.27 96.19 72.06 96.19 72.06 96.19"/><path class="cls-2" d="M71.47,71.24A35.62,35.62,0,1,0,35.85,35.62,35.6,35.6,0,0,0,71.47,71.24Z"/><path class="cls-1" d="M16.29,96.19H1.17v47H16.05s14.18,0,14.18-23.67S16.29,96.19,16.29,96.19Zm-5.16,39.14V104.16s8.08-3.4,8.08,16.29C19.21,120.45,20.5,135.21,11.13,135.33Z"/><path class="cls-1" d="M51.44,96.19H37.61l-9,47h9.14l2.34-10h9l2.23,10h9.14Zm-6.92,28.12H41.36L44.52,111l3.17,13.35Z"/><path class="cls-1" d="M105.92,121s5.27-3.51,5.27-13.12-7-11.72-8.9-11.72H83.66v47h10v-19.1s1.18-.94,1.76.82,7.74,18.28,7.74,18.28h11.24Zm-5.39-11.71c0,8.78-6.8,7.61-6.8,7.61V102.52C100.88,102.52,100.53,109.32,100.53,109.32Z"/><polygon class="cls-1" points="125.25 143.18 130.64 143.18 130.64 121.15 141.19 96.19 131.11 96.19 125.25 111.54 119.39 96.19 109.31 96.19 119.74 121.15 119.74 143.18 125.25 143.18 125.25 143.18"/><path class="cls-1" d="M0,161.22c0,9.73,7.85,14.53,15.93,14.53s11.6-5.39,11.6-5.39l-5.27-4.69s-2.46,3.4-6.33,3.4-5.85-3.63-5.85-7.85,2-7.73,5.85-7.73,6.33,3.39,6.33,3.39l5.27-4.68s-3.51-5.39-11.6-5.39S0,151.61,0,161.22Z"/><path class="cls-1" d="M50.62,163.45s5.27-1.29,5.27-8.21a7.53,7.53,0,0,0-6.21-7.73H30.11V175H39V164.38s2.81-.82,3.51.94S47,175,47,175h9Zm-4.81-5H39v-4.92l6.56.11a2,2,0,0,1,2.11,2.23A2.46,2.46,0,0,1,45.81,158.41Z"/><polygon class="cls-1" points="81.67 161.1 81.67 157.94 69.13 157.94 69.13 154.07 84.24 154.07 84.24 147.51 59.64 147.51 59.64 161.22 59.64 175.04 84.24 175.04 84.24 168.48 69.13 168.48 69.13 164.73 81.78 164.73 81.78 161.1 81.67 161.1 81.67 161.1"/><path class="cls-1" d="M108.26,155.36l4.81-5.15s-2.35-4.1-12.78-4.1-12.53,5.27-12.53,9.95,3,7.15,10,8.32,6.67,1.53,6.67,2.93-2.22,2.11-4.68,2.11-7.85-2.22-8.55-4.1l-5,5.16s2.11,5,14.53,5,12.42-8.2,12.42-11-2.7-5.51-9.38-7.15-6.79-1.52-6.79-3.16,2.22-2.23,5.27-1.52a12.28,12.28,0,0,1,6.09,2.69Z"/><polygon class="cls-1" points="127.71 175.04 132.51 175.04 132.51 153.49 140.95 153.49 140.95 147.51 114.59 147.51 114.59 153.49 123.02 153.49 123.02 175.04 127.71 175.04 127.71 175.04"/><polygon class="cls-2" points="62.92 137.67 72.17 137.67 72.17 96.19 62.92 96.19 62.92 137.67 62.92 137.67"/><path class="cls-1" d="M103,19.1A35.55,35.55,0,0,1,46.16,60.57,35.58,35.58,0,1,0,103,19.1Z"/></g></g></svg>