<svg xmlns="http://www.w3.org/2000/svg" viewBox="0 0 157.23 70"><defs><style>.cls-1{fill:#231f20;}.cls-2{fill:#ef4123;}</style></defs><title>dawn</title><g id="Layer_2" data-name="Layer 2"><g id="Layer_1-2" data-name="Layer 1"><g id="g2993"><g id="g3424"><g id="g3049"><path id="path3051" class="cls-1" d="M11.54,21.65H19c10.94,0,15.22,6.72,15.22,14.65C34.17,43.09,30.7,51,19.08,51H11.54ZM0,13.16V59.44H19.15c18.48,0,26.9-9.77,26.9-23.07,0-12.69-8.69-23.21-25.61-23.21Z"/></g><g id="g3053"><path id="path3055" class="cls-1" d="M62.53,51.74a8.31,8.31,0,0,1-5.43,2.38,3.26,3.26,0,0,1-3.19-3.33c0-3.12,2.78-4.48,8.62-6.58Zm15.25-.13c-2.32,1.63-3.07,1.76-3.75,1.76-1,0-1.63-.61-1.63-2.17V37c0-6.85-5.38-9.5-13.27-9.5a25.49,25.49,0,0,0-13.58,3.8v8A17.13,17.13,0,0,1,57.1,34c4.27,0,5.63,2.31,5.43,5.23-13.1,4.07-18.61,5.56-18.61,13,0,4,3.74,7.71,8.77,7.71,3.39,0,6.51-1,10.32-3.56C63.69,59,65.25,60,68.52,60a20.56,20.56,0,0,0,9.26-2.87Z"/></g><g id="g3057"><path id="path3059" class="cls-1" d="M87.22,60H82.6L68.44,28H78.51l6.6,17.29,7-17.29h6l6.94,17.29L111.66,28h10.08l-14.1,32H103L95.12,42.92Z"/></g><g id="g3061"><path id="path3063" class="cls-1" d="M128.85,32.54c3.13-3.6,6.2-5.09,10.23-5.09,4.9,0,11.43,2.78,11.43,12v20h-9.86V40.3c0-4.43-2.12-6.27-4.92-6.27-2.45,0-4.29,1.29-6.88,5.18V59.44H119V28h9.87Z"/></g><g id="g3065"><path id="path3067" class="cls-1" d="M153.78,32.68a3.06,3.06,0,1,1,3-3.06,3,3,0,0,1-3,3.06m0,.41a3.47,3.47,0,1,0-3.47-3.47,3.45,3.45,0,0,0,3.47,3.47m.55-3.32c.69,0,1.23-.29,1.23-1.06a1,1,0,0,0-.44-.83,1.81,1.81,0,0,0-.94-.19H152.5v3.87H153V29.77h.87l1.11,1.79h.56ZM153,29.41V28h1.11c.48,0,1,.07,1,.67,0,.8-.85.71-1.39.71Z"/></g><g id="g3069"><path id="path3071" class="cls-2" d="M47.41,27.05a28.54,28.54,0,0,1,11.74-2.47,27.18,27.18,0,0,1,5.83.61s.75.15,1.52.39a22.44,22.44,0,0,0,.27-3.5C66.77,9.89,57.17,0,45.32,0A21.35,21.35,0,0,0,26.93,10.7c10,1.75,17.41,7.63,20.48,16.35"/></g><g id="g3073"><path id="path3075" class="cls-1" d="M3.84,64H1.11V65.6H3.84v.75H1.11v2.71H.1V63.23H3.84Z"/></g><g id="g3077"><path id="path3079" class="cls-1" d="M8.53,66.14c0-1.28,1.17-2.22,2.73-2.22S14,64.86,14,66.14s-1.16,2.22-2.73,2.22-2.73-1-2.73-2.22m-1,0c0,1.58,1.44,3,3.74,3s3.79-1.42,3.79-3-1.46-3-3.77-3-3.76,1.37-3.76,3"/></g><g id="g3081"><path id="path3083" class="cls-1" d="M20,66.14c0-1.28,1.16-2.22,2.72-2.22s2.74.94,2.74,2.22-1.17,2.22-2.74,2.22A2.44,2.44,0,0,1,20,66.14m-1,0c0,1.58,1.45,3,3.74,3s3.79-1.42,3.79-3-1.45-3-3.77-3-3.76,1.37-3.76,3"/></g><g id="g3085"><path id="path3087" class="cls-1" d="M31.58,64h1.55c2,0,2.86,1,2.86,2.16,0,.72-.52,2.17-2.81,2.17h-1.6Zm-1,5.08h2.74c2.31,0,3.72-1.42,3.72-2.92s-1.14-2.91-3.73-2.91H30.57Z"/></g><g id="g3089"><path id="path3091" class="cls-1" d="M47.13,64h1.18c.91,0,1.19.46,1.19.89s-.48.91-1.23.91H47.13Zm-1-.75v5.83h1V66.53h1c1.62,0,2.36-.71,2.36-1.63s-.7-1.67-2.23-1.67Z"/></g><g id="g3093"><path id="path3095" class="cls-1" d="M55.35,64H56c1,0,1.37.34,1.38.88s-.29,1-1.38,1h-.64Zm-1-.72v5.83h1V66.53h.42c.51,0,.93.14,1.86,1.33l.92,1.2h1.21c-.49-.56-.66-.75-1-1.15a5,5,0,0,0-1.56-1.62,1.48,1.48,0,0,0,1.17-1.42c0-1-.88-1.64-2.3-1.64Z"/></g><g id="g3097"><path id="path3099" class="cls-1" d="M63.57,66.14c0-1.28,1.16-2.22,2.73-2.22S69,64.86,69,66.14s-1.16,2.22-2.73,2.22-2.73-1-2.73-2.22m-1,0c0,1.58,1.44,3,3.74,3s3.79-1.42,3.79-3-1.46-3-3.77-3-3.76,1.37-3.76,3"/></g><g id="g3101"><path id="path3103" class="cls-1" d="M75.22,64h1.55c2,0,2.86,1,2.86,2.16,0,.72-.53,2.17-2.81,2.17h-1.6Zm-1,5.08h2.73c2.32,0,3.72-1.42,3.72-2.92s-1.14-2.91-3.73-2.91H74.21Z"/></g><g id="g3105"><path id="path3107" class="cls-1" d="M90.71,66.77c0,1.42-1,2.36-3.12,2.36-1.49,0-2.93-.69-2.93-2.28V63.23h1v3.44a1.33,1.33,0,0,0,.42,1.2,2.33,2.33,0,0,0,1.52.49,2.57,2.57,0,0,0,1.65-.47,1.5,1.5,0,0,0,.44-1.27V63.23h1Z"/></g><g id="g3109"><path id="path3111" class="cls-1" d="M101,64.53a5.28,5.28,0,0,0-2.41-.61c-1.61,0-2.8,1-2.8,2.23s1.15,2.21,2.84,2.21a5.38,5.38,0,0,0,2.45-.65v.91a6,6,0,0,1-2.54.51c-2.64,0-3.78-1.68-3.78-2.9,0-1.78,1.61-3.07,3.84-3.07a6.93,6.93,0,0,1,2.4.48Z"/></g><g id="g3113"><path id="path3115" class="cls-1" d="M110.42,64H108v5.08h-1V64h-2.42v-.75h5.86Z"/></g><g id="g3117"><path id="path3119" class="cls-1" d="M117.6,64.51a2.64,2.64,0,0,0-1.64-.6c-.65,0-1.11.28-1.11.69,0,1.12,3,1.1,3,3,0,.91-.83,1.58-2,1.58a3.5,3.5,0,0,1-2-.54V67.53a2.51,2.51,0,0,0,1.85.85c.78,0,1.14-.41,1.14-.74,0-1.2-3-1.34-3-2.93,0-.95.84-1.55,2.13-1.55a3.25,3.25,0,0,1,1.56.41Z"/></g><g id="g3121"><path id="path3123" class="cls-1" d="M121,69l-.72,1h-.39l.55-.94h-.55v-.92H121Z"/></g><path id="path3125" class="cls-1" d="M129.23,69.06h-1V63.23h1Z"/><g id="g3127"><path id="path3129" class="cls-1" d="M140.25,69.06h-.87l-4.67-4.49v4.49h-1V63.23h.8l4.74,4.51V63.23h.95Z"/></g><g id="g3131"><path id="path3133" class="cls-1" d="M150.64,64.53a5.28,5.28,0,0,0-2.41-.61c-1.61,0-2.8,1-2.8,2.23s1.15,2.21,2.84,2.21a5.38,5.38,0,0,0,2.45-.65v.91a6,6,0,0,1-2.54.51c-2.63,0-3.78-1.68-3.78-2.9,0-1.78,1.61-3.07,3.84-3.07a6.93,6.93,0,0,1,2.4.48Z"/></g><path id="path3135" class="cls-1" d="M152.88,68.07h.94v1h-.94Z"/></g></g></g></g></svg>