<svg xmlns="http://www.w3.org/2000/svg" viewBox="0 0 380 101.51"><defs><style>.cls-1{fill:#0063be;}</style></defs><title>fresenius-kabi</title><g id="Layer_2" data-name="Layer 2"><g id="svg2816"><g id="g2826"><g id="g2984"><path id="path2836" class="cls-1" d="M27.94,0h14.9l.75.75.55.74C46.52,6,46.42,6.36,46.75,11.73c0,7.93-4.44,16.54.56,23.85,4,4.45,9.88,6.3,14.9,9.31l1.68,1.49,1.49,1.49,1.49,1.86L68,51.78,69.1,54.2l.56,3,.56,3.36.19,3.72v37.25H55.32v-41l-.56-3.36L54,54.39,52.9,52l-1.12-2.24-1.49-1.67L48.8,46.57c-4.23-4.15-10.34-5.11-15.27-9.69C23.68,26.33,38.23,11.75,27.94,0"/><path id="path2838" class="cls-1" d="M0,0H14.71l.75.75.56.74c1.54,3.16,2.84,6.65,2.42,10.24.14,7.34-3.63,15.08-.19,22.17,2.41,5.54,10.81,7.71,15.65,11l3.35,3,1.31,1.86,1.11,2.05,1.12,2.42.56,3,.56,3.36.19,3.72v37.25H27.19V64.26L27,60.54l-.56-3.36-.56-2.79C23.56,49,23.3,49,19,45.08c-4.8-3.32-10.92-4.83-14.72-9.5C-.19,29.64,3,20.74,3.54,14V8.75L3,6.33l-.37-2L1.86,2.79l-.74-1.3L.56.75,0,.19V0"/><path id="path2840" class="cls-1" d="M55.88,0h14.9L71,.19l.37.56.56.74.74,1.3.75,1.49.74,2.05.37,2.42c1.15,8.4-4.18,17-.37,25.15,2.8,5.35,10.64,7.78,15.83,11l1.49,1.49,1.68,1.49,1.49,1.86,1.12,2.05,1.12,2.42.55,3,.75,3.36v41H83.07v-41l-.56-3.36-.74-2.79c-2.17-6.19-2.58-5.08-6.71-9.31-4.88-3.2-11-4.72-14.71-9.5-4.79-6-1.49-14.59-.93-21.61l.18-2.24-.18-3-.37-2.42-.56-2-.75-1.49L57,1.49,56.44.75,55.88.19V0"/><path id="path2842" class="cls-1" d="M211.59,88.29V95h8.57l.93-.74.75-.56.37-.93.19-1.31-.19-1.3L221.65,89l-1.3-.56-1.49-.18ZM185.52,79l-3.17,10h6.15l-3-10Zm26.07-2.24v5.4h6.9l1.49-.37.93-.37.56-.93.18-1.12-.18-.75-.38-.74-.56-.56-.93-.37-1.11-.19Zm23.66-6.33h8v31.1h-8Zm-31.29,0h14.9l2.79.18,2.42.56,2.05.75,1.49,1.3.93,1.31c1.68,3.82,1.14,8-2.79,10,4.52,2.36,4.75,4.52,4.28,9.5l-.74,2L228,98l-1.67,1.49-2.05,1.12-2.61.56-3,.37H204V70.41Zm-22.54,0h8l11.36,31.1h-8.38l-1.86-6.14H180.12l-1.68,6.14h-8.38l11.36-31.1Zm-41,0h8V82.14l9.31-11.73h9.5L158,81.21l10.8,20.3h-9.5l-7.07-14-3.73,4.66v9.31h-8V70.41"/><path id="path2844" class="cls-1" d="M174.53,30.36v7.08h7.63l1.12-.56.93-.74.38-1.12.18-1.31-.18-1.11-.38-.93-.93-.75-1.12-.37-1.49-.19ZM325,23.66h8V43.4l.55,1.49.75,1.49.93.93,1.49.75,1.68.18,1.49-.18,1.3-.75,1.12-.93.74-1.49.38-1.49.18-2V23.66h8c-.86,11.85,4.9,31.35-13.22,31.47-18.32,0-12.56-19.48-13.41-31.47Zm-13.23,0h8v31.1h-8Zm-32.41,0h7.08l12.11,17V23.66H306v31.1H299.7L287,36.88V54.76h-7.64V23.66Zm-27.38,0h22.54v6.89H259.84V35h9.87v6.7h-9.87v6.34h15.83v6.7H252V23.66Zm-54.95,0H219.6v6.89H204.89V35h9.87v6.7h-9.87v6.34h15.83v6.7H197.06V23.66Zm-30.36,0h16.58l2.42.55,1.87.75,1.86.93,1.3,1.49,1.12,1.68c1.8,5.44.66,11.35-5,13.78L193,54.76h-8.76L179,44h-4.47v10.8H166.7V23.66Zm-26.26,0h23.28v6.89H148.26V35.2h11v7.08h-11V54.76h-7.82Zm227.05-.56c5.48.17,7.48.66,11.93,3.91l-4.1,6-2.05-1.31-1.86-.93-2.05-.37-2.24-.19h-1.49l-1.12.38-.55.56-.38.55-.18.75.18.56.56.74.93.38c3.47,1.14,7,1.81,10.43,3.35,5.69,2.81,5.82,11.43,1.31,15.27-5.67,4.23-17.22,2.71-22.35-1.86l4.28-5.59c11.48,7.43,19.62-.59,7.45-2.79-16.28-2.1-12.58-20,1.3-19.37Zm-132.24,0c5.95.2,7.19.71,12.11,3.91l-4.29,6-1.86-1.31-2.05-.93-2-.37-2.23-.19h-1.49l-1.12.38-.56.56-.37.55-.19.75.19.56.56.74,1.11.38c3.27,1.2,6.9,1.81,10.25,3.35,5.63,2.73,6,11.69,1.12,15.27-5.55,4.31-17.16,2.59-22.17-1.86l4.47-5.59,1.68,1.12,2.23.93,2.42.75,2.42.18h1.68l1.31-.18.74-.56c2.85-3.6-3-4.37-5.22-5-15.9-2-12.95-19.86,1.31-19.37"/></g></g></g></g></svg>