<svg xmlns="http://www.w3.org/2000/svg" viewBox="0 0 218.95 50.08"><defs><style>.cls-1{fill:#00541c;}.cls-1,.cls-2{fill-rule:evenodd;}.cls-2{fill:#ed1c24;}</style></defs><title>heineken</title><g id="Layer_2" data-name="Layer 2"><g id="Layer_1-2" data-name="Layer 1"><path class="cls-1" d="M90.33,23.36V50.08h5.73V35.29c1.18.87,8.64,14.27,10,14.79h4.54c1-.18,1.44-1,1.43-2.39V22.56h-6c0,3.16-.28,11.77.24,14.4-.64-.24-.42,0-1.42-1.68L101,29.19c-3.71-5.88-3.23-6.55-9.91-6.55-.55,0-.72.17-.72.72Z"/><path class="cls-1" d="M196.37,50h5.68l-.2-14.79c1.37.91,6.32,10.47,10.26,14.79h4.24c1.09-.15,1.48-.64,1.5-2.13.05-3.21-.51-21.91,0-23a1.34,1.34,0,0,1,1.08-1.07l.06-1.24h-6.84V36.88c-.66-.48-7.6-11.63-7.77-11.8a5.12,5.12,0,0,0-4.16-2.52h-3.81V50Z"/><path class="cls-1" d="M143.53,23.36V48.65c0,.87.9,1.27,2.13,1.43h5.5V38.63c1,.26.41.12,1.53,1.81L156.88,47c1.59,2.25,2.54,2.92,4.43,3.1h6.55c-.2-.86-9.75-15.42-10.26-16.23A26.72,26.72,0,0,0,160,31.23c.8-1.05,1.7-1.66,2.52-2.72.53-.69.71-.8,1.22-1.41l3.41-4.46c-8.06,0-6.51-1.05-12.71,6.37a21.77,21.77,0,0,1-3.27,3.17V22.64h-6.92c-.55,0-.71.17-.71.72Z"/><path class="cls-1" d="M50.73,47.69c-.09,1.76.77,2.33,2.62,2.39H67.19c.93,0,1.47-.59,1.67-1.67V45.07H59.8c-.82,0-1.33-.23-1.44-1V38.39h8.35V33.14H58.36V27.89h10.5c0-2.8.6-4.73-1.43-5.25H50.73v25Z"/><path class="cls-1" d="M75.54,48.88c0,.77.87,1.2,1.67,1.2h5.73V22.64h-7.4V48.88Z"/><path class="cls-1" d="M119.42,47.69c-.08,1.76.78,2.33,2.63,2.39h13.83c.93,0,1.48-.59,1.67-1.67V45.07h-9.06c-.82,0-1.33-.23-1.43-1V38.39h8.35V33.14h-8.35V27.89h10.49c0-2.8.61-4.73-1.43-5.25h-16.7v25Z"/><path class="cls-1" d="M171.58,47.69c-.09,1.76.77,2.33,2.62,2.39H188c.93,0,1.47-.59,1.67-1.67V45.07h-9.06c-.82,0-1.34-.23-1.44-1V38.39h8.35V33.14h-8.35V27.89h10.5c0-2.8.6-4.73-1.43-5.25h-16.7v25Z"/><path class="cls-1" d="M22,25.19l-.11,24.48h7.46V37.82h6.47l0,11.86h7.39V22.56H35.75v9.79c0,.45-.2.74-.72.71H30c-.48,0-.71-.23-.71-.71V22.56H20.72c-.11,1.83,1.29,1,1.24,2.63Z"/><path class="cls-2" d="M10.39,17.56l5.24,3.9-2.06,7.13c-2,1.45-4.11,2.89-6.1,4.34-.76.24-.75-.39-.36-1.47l3.45-10.95L.2,12.79c-.35-.29-.31-.72.66-.73l12.57.14L17.25.52c.26-.74.74-.62.95-.07L22,12.35h12.9c.36,0,.44.28.17.49l-6.31,4.51H21.66l-2-6.05c-.13-.34-.36-.34-.47,0l-2.05,6-6.73,0c-.31,0-.3.11-.06.25Z"/></g></g></svg>