<svg xmlns="http://www.w3.org/2000/svg" viewBox="0 0 180 69.33">
  <title>international-energy-agency</title>
  <g id="Layer_2" data-name="Layer 2">
    <g id="Layer_1-2" data-name="Layer 1">
      <g id="Layer_2-2" data-name="Layer 2">
        <g id="svg10310">
          <path id="path9806" d="M19,53V50.28a24.26,24.26,0,0,1,2.93-.4V39.55c-.81-.13-2-.27-2.93-.33v-2.7a49.86,49.86,0,0,1,7.23-.31V49.88a23,23,0,0,1,2.73.4V53Zm5.06-18.92a2.62,2.62,0,1,1,.16-5.23,2.6,2.6,0,0,1,2.53,2.6,2.67,2.67,0,0,1-2.69,2.63M44.45,45.32H34.06C34,48.45,35.58,50,38.68,50a11.9,11.9,0,0,0,4.89-1L44,52.27a16.9,16.9,0,0,1-6,1.08c-5.32,0-8.3-2.66-8.3-8.57,0-5.13,2.84-8.9,7.86-8.9s7,3.34,7,7.48a14.23,14.23,0,0,1-.13,2m-7-6.27c-1.79,0-3,1.32-3.28,3.34h6.18c.06-2.09-1.08-3.34-2.9-3.34M60.06,49.71v-8c0-3.68-1.52-5.87-6.94-5.87a21.18,21.18,0,0,0-5.87.88v4.92H50c.14-.74.27-1.52.34-2.19a8.94,8.94,0,0,1,2.36-.31c2.36,0,3.07.92,3.07,2.7v1c-5.7.07-9.68,2.06-9.68,6.08,0,2.69,1.75,4.42,4.79,4.42a5.69,5.69,0,0,0,5.36-3.21l0,0a21.11,21.11,0,0,0-.17,2.86c1.56.05,3.32,0,4.9-.1.66-.93,1.28-1.89,1.85-2.89h0c-.88-.07-1.95-.2-2.77-.34M55.75,46a3.84,3.84,0,0,1-3.58,4.05,1.77,1.77,0,0,1-2-1.8c0-1.62,1.52-2.63,5.58-2.63V46Z" fill="#4cbd38"/>
          <path id="path9810" d="M0,33.36v.57A33.62,33.62,0,0,0,59.41,55.24H54.62a26.41,26.41,0,1,1,8-25.09,27.54,27.54,0,0,1-1.29,17.73l2.68.33A33.64,33.64,0,1,0,0,33.36" fill="#94d677"/>
          <path id="path9938" d="M176.28,31.83c-1,2.78-1.92,3.64-3.93,3.64a7,7,0,0,1-1.2-.13l.14-1.68a3.6,3.6,0,0,0,1.17.2c.9,0,1.4-.41,1.95-1.94l.36-1-3.33-8.91h2.16l1.45,4.07c.29.79.5,1.58.7,2.34h0c.18-.72.56-1.87.89-2.78l1.27-3.62H180Zm-7.71-.72c-2.29,0-4-1.13-4-4.3,0-2.83,1.45-4.9,4.52-4.9a7,7,0,0,1,1.94.27l-.2,1.67a5.27,5.27,0,0,0-1.8-.34c-1.63,0-2.46,1.2-2.46,3.08,0,1.63.59,2.88,2.37,2.88a4.5,4.5,0,0,0,1.94-.43l.16,1.63a7.24,7.24,0,0,1-2.52.45M161.34,31V25.23c0-1.11-.31-1.75-1.33-1.75-1.34,0-2.34,1.41-2.34,3.19V31h-1.9V22.06h1.83a11.32,11.32,0,0,1-.13,1.74l0,0a3.26,3.26,0,0,1,3.1-1.94c2,0,2.65,1.27,2.65,2.85V31Zm-7.08-4.33h-5.68c-.05,2.06.86,3,2.63,3a6.2,6.2,0,0,0,2.61-.57l.18,1.52a8.15,8.15,0,0,1-3.09.57c-2.78,0-4.3-1.43-4.3-4.57,0-2.69,1.47-4.69,4.07-4.69s3.64,1.74,3.64,3.85c0,.3,0,.6,0,.9m-3.66-3.34a2,2,0,0,0-2,2h3.78a1.74,1.74,0,0,0-1.8-2m-9.47,12.27c-2.34,0-3.78-.9-3.78-2.62a2.59,2.59,0,0,1,1.44-2.24,1.47,1.47,0,0,1-.88-1.33,1.67,1.67,0,0,1,1-1.52,2.7,2.7,0,0,1-1.33-2.52c0-1.88,1.44-3.46,4-3.46a6.1,6.1,0,0,1,1.47.18h3v1.5h-1.36a1.9,1.9,0,0,1,.61,1.49c0,1.93-1.35,3.29-3.86,3.29a5.86,5.86,0,0,1-1-.09.75.75,0,0,0-.52.67c0,.45.39.63,1.47.63h1.52c1.94,0,3,.91,3,2.58,0,1.9-1.93,3.42-4.8,3.42m1.26-4.44h-1.67l-.48,0a1.74,1.74,0,0,0-1,1.49c0,1,.9,1.48,2.19,1.48,1.66,0,2.6-.72,2.6-1.68,0-.77-.52-1.27-1.65-1.27m-.9-7.82a1.83,1.83,0,0,0-2,1.86,2,2,0,0,0,4,0,1.78,1.78,0,0,0-2-1.88M134.89,31,134,28.3h-4.91L128.14,31h-2l4.33-12.1h2.16l4.4,12.1Zm-2.84-8a15.19,15.19,0,0,1-.54-1.86h0a15.51,15.51,0,0,1-.56,1.91l-1.36,3.75h3.87l-1.38-3.8Zm-13,8.9c-1,2.78-1.92,3.64-3.92,3.64a7,7,0,0,1-1.21-.13l.15-1.68a3.54,3.54,0,0,0,1.16.2c.9,0,1.4-.41,2-1.94l.36-1-3.34-8.91h2.16l1.45,4.07c.29.79.5,1.58.7,2.34h0c.18-.72.56-1.87.88-2.78l1.27-3.62h2.06Zm-10.49,3.73c-2.34,0-3.78-.9-3.78-2.62a2.62,2.62,0,0,1,1.44-2.24,1.47,1.47,0,0,1-.88-1.33,1.68,1.68,0,0,1,1-1.52,2.71,2.71,0,0,1-1.33-2.52c0-1.88,1.44-3.46,4-3.46a7.21,7.21,0,0,1,1.47.18h3v1.51h-1.36a1.86,1.86,0,0,1,.61,1.49c0,1.93-1.35,3.29-3.86,3.29a5.86,5.86,0,0,1-1-.09.75.75,0,0,0-.52.67c0,.45.4.63,1.47.63h1.53c1.93,0,3,.91,3,2.58,0,1.9-1.94,3.42-4.81,3.42m1.26-4.44h-1.67l-.48,0a1.74,1.74,0,0,0-1,1.49c0,1,.9,1.48,2.19,1.48,1.67,0,2.6-.72,2.6-1.68,0-.77-.52-1.27-1.65-1.27m-.9-7.82a1.83,1.83,0,0,0-2,1.86,2,2,0,0,0,4,0,1.78,1.78,0,0,0-2-1.88m-4.51.47c-1.78-.33-2.64.91-2.64,3.58V31H99.87v-8.9h1.83a13.25,13.25,0,0,1-.18,2h0a2.75,2.75,0,0,1,3-2.16Zm-6.06,2.87H92.67c0,2.06.86,3,2.64,3a6.16,6.16,0,0,0,2.6-.58l.18,1.53a8.13,8.13,0,0,1-3.08.57c-2.78,0-4.31-1.44-4.31-4.57,0-2.69,1.48-4.7,4.07-4.7s3.64,1.74,3.64,3.86c0,.3,0,.6,0,.9M94.7,23.3a2,2,0,0,0-2,2h3.78a1.73,1.73,0,0,0-1.8-2M87.43,31V25.23c0-1.11-.3-1.75-1.33-1.75-1.34,0-2.33,1.41-2.33,3.19V31h-1.9V22.06H83.7a11.32,11.32,0,0,1-.13,1.74l0,0a3.25,3.25,0,0,1,3.1-1.94c2,0,2.66,1.27,2.66,2.85V31ZM73.64,31V18.87H80V20.5H75.61v3.44h4.22v1.6H75.61V29.3H80V31Zm91.72-17.43h1.92V.45h-1.9Zm-3.91,0a11.41,11.41,0,0,1,.09-1.65l0,0a3.11,3.11,0,0,1-3,1.85,2.22,2.22,0,0,1-2.49-2.28c0-2,2-3.24,5.25-3.24V7.64c0-1.11-.46-1.69-1.86-1.69a5.48,5.48,0,0,0-2.65.72L156.63,5a9.05,9.05,0,0,1,3.13-.59c2.73,0,3.48,1.18,3.48,3V11.1c0,.77,0,1.68.06,2.44Zm-.13-4c-2.79,0-3.4.85-3.4,1.62a1.08,1.08,0,0,0,1.22,1.1,2.39,2.39,0,0,0,2.18-2.53Zm-8.58,4V7.8c0-1.11-.3-1.76-1.33-1.76-1.34,0-2.34,1.42-2.34,3.19v4.31h-1.91V4.62H149a12.5,12.5,0,0,1-.12,1.74l0,0A3.23,3.23,0,0,1,152,4.45c2,0,2.66,1.27,2.66,2.85v6.24Zm-11.37.18c-2.47,0-4.08-1.39-4.08-4.53a4.4,4.4,0,0,1,4.44-4.74c2.39,0,4.07,1.32,4.07,4.46,0,2.74-1.8,4.81-4.43,4.81m.2-7.66c-1.16,0-2.3.9-2.3,2.94s.79,3.06,2.28,3.06c1.24,0,2.28-1,2.28-3,0-1.9-.74-3-2.26-3M134.65,3.3a1.23,1.23,0,0,1-1.24-1.2A1.23,1.23,0,0,1,134.65.9a1.2,1.2,0,0,1,0,2.4m.95,10.24h-1.92V4.63h1.91Zm-5.4.16c-1.9,0-2.47-.73-2.47-2.72V6.11H126V4.63h1.7V1.8l1.9-.52V4.63H132V6.11h-2.34v4.27c0,1.33.27,1.68,1.17,1.68a4.68,4.68,0,0,0,1.17-.14V13.5a9.71,9.71,0,0,1-1.78.2m-6.92-.16a11.26,11.26,0,0,1,.09-1.65l0,0a3.11,3.11,0,0,1-3,1.85,2.22,2.22,0,0,1-2.49-2.28c0-2,2-3.24,5.25-3.24V7.64c0-1.11-.46-1.69-1.86-1.69a5.52,5.52,0,0,0-2.66.72L118.45,5a9.15,9.15,0,0,1,3.14-.59c2.72,0,3.48,1.18,3.48,3V11.1c0,.77,0,1.68.05,2.44Zm-.13-4c-2.8,0-3.4.84-3.4,1.62A1.08,1.08,0,0,0,121,12.21a2.39,2.39,0,0,0,2.19-2.53V9.5Zm-8.6,4V7.8c0-1.11-.3-1.76-1.32-1.76-1.35,0-2.34,1.42-2.34,3.19v4.31H109V4.62h1.83a11.14,11.14,0,0,1-.13,1.74l0,0a3.25,3.25,0,0,1,3.1-1.93c2,0,2.66,1.27,2.66,2.85v6.24Zm-7-7.21c-1.78-.32-2.64.91-2.64,3.58v3.63H103V4.63h1.83a13,13,0,0,1-.18,2h0a2.74,2.74,0,0,1,3-2.15Zm-6.42,2.88H95.42c0,2.06.86,3,2.64,3a6.31,6.31,0,0,0,2.6-.57l.18,1.52a8,8,0,0,1-3.09.57c-2.77,0-4.3-1.43-4.3-4.57,0-2.7,1.47-4.69,4.07-4.69s3.64,1.74,3.64,3.85c0,.3,0,.6,0,.9M97.45,5.86a2,2,0,0,0-2,2h3.78a1.74,1.74,0,0,0-1.8-2M90.69,13.7c-1.9,0-2.47-.74-2.47-2.73V6.11H86.51V4.63h1.71V1.8l1.9-.52V4.63h2.35V6.11H90.13v4.27c0,1.33.27,1.68,1.16,1.68a4.57,4.57,0,0,0,1.17-.14V13.5a9.61,9.61,0,0,1-1.78.2m-7-.16V7.8c0-1.11-.31-1.76-1.33-1.76C81,6,80,7.46,80,9.23v4.31H78.07V4.62H79.9a11.14,11.14,0,0,1-.13,1.74l0,0a3.25,3.25,0,0,1,3.1-1.93c2,0,2.66,1.27,2.66,2.85v6.24Zm-10,0h2V1.44h-2Z" fill="#3e9b2d"/>
          <path id="path10002" d="M150.63,50.27a1.48,1.48,0,0,0-1.42,1.45h2.72a1.27,1.27,0,0,0-1.3-1.45m2.34,2.2h-3.79c-.05,1.51.59,2.18,1.83,2.18a4.07,4.07,0,0,0,1.65-.35l.15.83a5.28,5.28,0,0,1-2,.36c-1.76,0-2.72-.93-2.72-3,0-1.73.95-3,2.59-3A2.19,2.19,0,0,1,153,51.93a4.26,4.26,0,0,1,0,.54m-7.38-5.58h1v8.5h-1Zm-3.87,3.46c-1.05,0-1.59,1.23-1.59,2.23V54.5a3.28,3.28,0,0,0,1,.14c1.1,0,1.84-.67,1.84-2.34,0-1.24-.41-1.95-1.28-1.95m-.64,5.11a7.85,7.85,0,0,1-2-.23V46.89h1v2.8a4.83,4.83,0,0,1-.1,1.08l0,0a2,2,0,0,1,1.91-1.3c1.37,0,2.13,1,2.13,2.73,0,2-1.15,3.25-3,3.25m-5-2.8c-1.91,0-2.46.53-2.46,1.11a.85.85,0,0,0,.8.88.14.14,0,0,0,.09,0A1.74,1.74,0,0,0,136,52.82Zm.06,2.72a7.45,7.45,0,0,1,.06-1.16h0a2.06,2.06,0,0,1-2,1.26,1.5,1.5,0,0,1-1.61-1.56c0-1.24,1.27-2,3.48-2v-.38c0-.81-.31-1.25-1.27-1.25a3.73,3.73,0,0,0-1.67.43l-.23-.85a5.86,5.86,0,0,1,2.06-.41c1.68,0,2.16.79,2.16,1.92v2.32c0,.55,0,1.17,0,1.67Zm-6.1,0V51.66c0-.82-.22-1.3-1-1.3-1,0-1.65,1-1.65,2.26v2.77h-1V49.6h1a7.08,7.08,0,0,1-.09,1.22h0a2.13,2.13,0,0,1,2.05-1.32c1.33,0,1.75.82,1.75,1.85v4Zm-6.71-5.79h1v5.79h-1Zm.52-1.15a.69.69,0,0,1-.7-.67h0a.7.7,0,1,1,.73.67h0m-3.56,4.22c-1.91,0-2.46.53-2.46,1.11a.85.85,0,0,0,.8.88.14.14,0,0,0,.09,0,1.74,1.74,0,0,0,1.57-1.84Zm.07,2.72a7.52,7.52,0,0,1,.06-1.16h0a2.05,2.05,0,0,1-2,1.26,1.5,1.5,0,0,1-1.6-1.56c0-1.24,1.27-2,3.48-2v-.38c0-.81-.32-1.25-1.27-1.25a3.77,3.77,0,0,0-1.68.43l-.22-.85a5.86,5.86,0,0,1,2.06-.41c1.68,0,2.16.79,2.16,1.92v2.32c0,.55,0,1.17,0,1.67Zm-5.63.09c-1.19,0-1.55-.49-1.55-1.73V50.42H112V49.6h1.18V47.73l1.05-.29v2.15h1.62v.82h-1.62v3c0,1,.18,1.21.83,1.21a3,3,0,0,0,.73-.09l.11.86a5.82,5.82,0,0,1-1.17.13m-5.8,0a5.53,5.53,0,0,1-1.28-.15l.09-.94a3.56,3.56,0,0,0,1.29.24c.74,0,1.25-.34,1.25-.89,0-1.3-2.69-.49-2.69-2.53,0-1,.76-1.73,2.3-1.73a5.26,5.26,0,0,1,1.12.12l-.08.86a3.66,3.66,0,0,0-1.13-.18c-.77,0-1.13.33-1.13.83,0,1.28,2.7.54,2.7,2.51,0,1.06-.94,1.86-2.45,1.86m-3.91-.1a8.25,8.25,0,0,1,.09-1.22h0a2.12,2.12,0,0,1-2,1.32c-1.32,0-1.73-.82-1.73-1.85v-4h1v3.73c0,.83.23,1.3,1,1.3,1,0,1.65-1,1.65-2.26V49.6h1v5.79Zm-8.17.1a6.25,6.25,0,0,1-1.72-.22l.13-1a4.64,4.64,0,0,0,1.65.31c.9,0,1.7-.37,1.7-1.34,0-1.77-3.55-1.08-3.55-3.57,0-1.3,1-2.23,2.75-2.23a6.78,6.78,0,0,1,1.42.15l-.13,1a4.43,4.43,0,0,0-1.35-.21c-1.08,0-1.58.47-1.58,1.22,0,1.7,3.59,1.08,3.59,3.55,0,1.41-1.15,2.41-2.91,2.41M104,39.31a1.48,1.48,0,0,0-1.42,1.45h2.72a1.27,1.27,0,0,0-1.3-1.45m2.34,2.2h-3.79c0,1.51.59,2.18,1.83,2.18a4.07,4.07,0,0,0,1.65-.35l.15.84a5.62,5.62,0,0,1-2,.36c-1.76,0-2.71-.94-2.71-3,0-1.74.94-3,2.58-3A2.18,2.18,0,0,1,106.4,41c0,.14,0,.31,0,.54m-5.64-1.93c-1.22-.22-1.8.68-1.8,2.53v2.34H97.88v-5.8h1A9,9,0,0,1,98.77,40h0a1.84,1.84,0,0,1,2-1.48l0,1Zm-5.85,4.85a10.2,10.2,0,0,1,.1-1.22h0a2.12,2.12,0,0,1-2,1.33c-1.32,0-1.73-.83-1.73-1.85v-4h1v3.72c0,.83.24,1.31,1,1.31,1,0,1.66-1,1.66-2.26V38.65h1v5.78Zm-6.74.1c-1.39,0-2.54-.67-2.54-2.8,0-1.86,1-3.18,2.82-3.18a4,4,0,0,1,1.42.25l-.2.9a3.27,3.27,0,0,0-1.31-.27c-1,0-1.62.9-1.62,2.16s.36,2,1.64,2a3.14,3.14,0,0,0,1.35-.27l.16.87a4.81,4.81,0,0,1-1.72.32m-5.92-5.22a1.49,1.49,0,0,0-1.42,1.46h2.72a1.27,1.27,0,0,0-1.3-1.46m2.34,2.2H80.77c0,1.52.59,2.18,1.83,2.18a4.07,4.07,0,0,0,1.65-.35l.15.84a5.49,5.49,0,0,1-2,.36c-1.76,0-2.72-.93-2.72-3,0-1.74.95-3,2.59-3A2.19,2.19,0,0,1,84.59,41a4.26,4.26,0,0,1,0,.54m-8.81,3A6.26,6.26,0,0,1,74,44.32l.13-1a4.44,4.44,0,0,0,1.65.31c.9,0,1.7-.37,1.7-1.34C77.5,40.5,74,41.2,74,38.7c0-1.29,1-2.23,2.75-2.23a6.78,6.78,0,0,1,1.42.15l-.13,1a4.43,4.43,0,0,0-1.35-.21c-1.08,0-1.58.48-1.58,1.22,0,1.7,3.59,1.08,3.59,3.55,0,1.41-1.15,2.42-2.91,2.42M180,61.49c-1.23-.22-1.8.68-1.8,2.53v2.34H177.1v-5.8h1a7.84,7.84,0,0,1-.12,1.37h0a1.84,1.84,0,0,1,2-1.48l-.05,1Zm-6.75-.26a1.48,1.48,0,0,0-1.42,1.45h2.71a1.26,1.26,0,0,0-1.29-1.45m2.34,2.2h-3.8c-.05,1.51.59,2.17,1.83,2.17a3.9,3.9,0,0,0,1.65-.34l.15.83a5.28,5.28,0,0,1-2,.36c-1.76,0-2.71-.93-2.71-3,0-1.73.94-3,2.58-3a2.19,2.19,0,0,1,2.32,2.44c0,.14,0,.3,0,.54m-7.38,2.92V62.62c0-.83-.22-1.31-1-1.31-.95,0-1.64,1-1.64,2.26v2.78h-1.05V57.84h1.05v2.75a5.53,5.53,0,0,1-.1,1.15l0,0a2.09,2.09,0,0,1,2-1.31c1.33,0,1.75.83,1.75,1.85v4Zm-6.22.09c-1.18,0-1.54-.48-1.54-1.73V61.37H159.2v-.81h1.19V58.68l1-.29v2.16h1.62v.81h-1.62v3c0,1,.18,1.21.83,1.21a2.68,2.68,0,0,0,.74-.09l.1.86a5.06,5.06,0,0,1-1.17.13m-5.67-5.21a1.48,1.48,0,0,0-1.42,1.45h2.72a1.27,1.27,0,0,0-1.3-1.45m2.34,2.2h-3.78c0,1.51.6,2.17,1.83,2.17a4.06,4.06,0,0,0,1.65-.34l.16.83a5.3,5.3,0,0,1-2,.36c-1.75,0-2.71-.93-2.71-3,0-1.73.94-3,2.59-3a2.18,2.18,0,0,1,2.31,2.44c0,.14,0,.3,0,.54M150,61.23a1.26,1.26,0,0,0-1.38,1.29A1.19,1.19,0,0,0,150,63.79a1.2,1.2,0,0,0,1.34-1.27,1.18,1.18,0,0,0-1.3-1.29m.65,5.09-1.12,0h-.34a1.45,1.45,0,0,0-.74,1.14c0,.69.65,1.09,1.56,1.09,1.17,0,1.83-.53,1.83-1.24s-.38-.91-1.19-.93m-.82,3c-1.49,0-2.43-.61-2.43-1.73a1.81,1.81,0,0,1,1-1.54.94.94,0,0,1-.57-.86,1.14,1.14,0,0,1,.64-1,1.78,1.78,0,0,1-.85-1.6,2.21,2.21,0,0,1,2.46-2.16,3.23,3.23,0,0,1,.82.1h2v.83h-1a1.35,1.35,0,0,1,.46,1.08c0,1.19-.8,2.1-2.44,2.1a2.57,2.57,0,0,1-.62-.08.55.55,0,0,0-.37.48c0,.33.29.42,1,.46l1.06,0c1.24,0,1.94.63,1.94,1.68,0,1.22-1.24,2.2-3,2.2m-6.08-8c-.84,0-1.63.64-1.63,2.08s.57,2.15,1.63,2.15c.86,0,1.61-.67,1.61-2.15,0-1.32-.54-2.09-1.61-2.09m-.13,5.13c-1.57,0-2.59-.91-2.59-2.95a2.82,2.82,0,0,1,2.82-3.06c1.47,0,2.6.82,2.6,2.9a2.86,2.86,0,0,1-2.83,3.1m-5.52-7.07v7h-1.08V59.38H134.8v-.9h5.6v.9Z" fill="#231f20"/>
        </g>
      </g>
    </g>
  </g>
</svg>
