<svg xmlns="http://www.w3.org/2000/svg" viewBox="0 0 298.3 126.9"><defs><style>.cls-1{fill:#cf4037;}.cls-2{fill:#fff;}</style></defs><title>IPL-plastics</title><g id="Layer_2" data-name="Layer 2"><g id="Calque_1" data-name="Calque 1"><polygon class="cls-1" points="298.3 63.5 149.1 126.9 0 63.5 149.1 0 298.3 63.5"/><path class="cls-2" d="M149.1,12.9c7.2,3,85.1,36.2,118.9,50.6-33.8,14.4-111.8,47.6-118.9,50.6-7.2-3-85.1-36.2-118.9-50.6C64,49.1,142,15.9,149.1,12.9Z"/><path d="M102.9,41l-20,39.3h20l20-39.3Z"/><path d="M204.6,41H187.2l-20,39.3h37.3l5.7-11.1H191.7C192.8,66.9,206,41,206,41Z"/><path d="M129.2,41l-20,39.3h20s6.6-12.1,7.1-12.9h15.9c12.4,0,20.1-4.5,22.2-13h0l.3-1.1.1-.6h0a10.87,10.87,0,0,0,.1-1.8,8.72,8.72,0,0,0-1.9-5.7c-2.2-2.7-6.1-4.1-11.3-4.1H129.2Zm23.6,10.8a4.05,4.05,0,0,1,2.9.9,5.64,5.64,0,0,0-.1.7,3,3,0,0,1-.6,1.2c-.9.8-2.7,1-5,1h-8.3c.7-1.3,1.6-3.1,1.9-3.7C144.6,51.8,152.8,51.8,152.8,51.8Z"/><path d="M281.36,40.5V32.17h-3V30.48h8v1.69h-3V40.5Z"/><path d="M287.63,40.5v-10h3l1.82,6.83,1.79-6.83h3v10h-1.88V32.61l-2,7.89h-1.95l-2-7.89V40.5Z"/></g></g></svg>