<svg xmlns="http://www.w3.org/2000/svg" viewBox="0 0 262.13 68.71"><defs><style>.cls-1{fill-rule:evenodd;}.cls-2,.cls-3{stroke:#000;}.cls-2{stroke-miterlimit:3.86;stroke-width:0.64px;}.cls-3{fill:none;stroke-width:0.84px;}</style></defs><title>johnson-matthey_1</title><g id="Layer_2" data-name="Layer 2"><g id="Layer_1-2" data-name="Layer 1"><path d="M6.52,37.37c3.87.28,4.29.56,4.29,3.07V52.33c0,3.59-.21,5-.91,6.13a4.43,4.43,0,0,1-3.8,1.82c-2.58,0-4.74-1.43-4.74-3.18,0-.41.17-.69.49-.69a3.28,3.28,0,0,1,.35.07,1.76,1.76,0,0,0,.38,0,2,2,0,0,0,1.88-1.95A2.07,2.07,0,0,0,2.37,52.5C1,52.5,0,53.65,0,55.33c0,3.24,2.65,5.4,6.52,5.4a10.77,10.77,0,0,0,2.37-.24A7.66,7.66,0,0,0,11.4,59.4C13.49,58,14,56.62,14,51.94V40.44c0-2.48.42-2.79,4-3.07V37H6.52v.35Z"/><path d="M6.52,37.37c3.87.28,4.29.56,4.29,3.07V52.33c0,3.59-.21,5-.91,6.13a4.43,4.43,0,0,1-3.8,1.82c-2.58,0-4.74-1.43-4.74-3.18,0-.41.17-.69.49-.69a3.28,3.28,0,0,1,.35.07,1.76,1.76,0,0,0,.38,0,2,2,0,0,0,1.88-1.95A2.07,2.07,0,0,0,2.37,52.5C1,52.5,0,53.65,0,55.33c0,3.24,2.65,5.4,6.52,5.4a10.77,10.77,0,0,0,2.37-.24A7.66,7.66,0,0,0,11.4,59.4C13.49,58,14,56.62,14,51.94V40.44c0-2.48.42-2.79,4-3.07V37H6.52v.35Z"/><path class="cls-1" d="M25.18,43.67a8.56,8.56,0,0,0,0,17.12,8.56,8.56,0,0,0,0-17.12Zm0,16.67c-3.45,0-4.85-2.3-4.85-8.09s1.4-8.12,4.85-8.12S30,46.43,30,52.25s-1.36,8.09-4.84,8.09Z"/><path d="M25.18,43.67a8.56,8.56,0,0,0,0,17.12,8.56,8.56,0,0,0,0-17.12Zm0,16.67c-3.45,0-4.85-2.3-4.85-8.09s1.4-8.12,4.85-8.12S30,46.43,30,52.25s-1.36,8.09-4.84,8.09Z"/><path d="M39.22,36.63l-.18,0c-1.32.18-4,.35-6.13.42H32.8v.39c3.21.21,3.38.35,3.38,2.86V57.2c0,2.09-.55,2.54-3.38,2.79v.35h9.73l0-.35c-2.89-.28-3.34-.66-3.34-2.79V54.86c0-3.62.21-5,1.11-6.79a5.35,5.35,0,0,1,4.85-3.46c2.26,0,2.61.74,2.61,5.37V57.2c0,2.09-.52,2.54-3.38,2.79v.35h9.83V60c-2.86-.25-3.38-.7-3.38-2.79V49.81c0-3-.14-3.66-1-4.64A5.4,5.4,0,0,0,46,43.67a6.71,6.71,0,0,0-4.39,1.64,9.16,9.16,0,0,0-2.4,3.87V36.63Z"/><path d="M39.22,36.63l-.18,0c-1.32.18-4,.35-6.13.42H32.8v.39c3.21.21,3.38.35,3.38,2.86V57.2c0,2.09-.55,2.54-3.38,2.79v.35h9.73l0-.35c-2.89-.28-3.34-.66-3.34-2.79V54.86c0-3.62.21-5,1.11-6.79a5.35,5.35,0,0,1,4.85-3.46c2.26,0,2.61.74,2.61,5.37V57.2c0,2.09-.52,2.54-3.38,2.79v.35h9.83V60c-2.86-.25-3.38-.7-3.38-2.79V49.81c0-3-.14-3.66-1-4.64A5.4,5.4,0,0,0,46,43.67a6.71,6.71,0,0,0-4.39,1.64,9.16,9.16,0,0,0-2.4,3.87V36.63Z"/><path d="M61.49,43.68c-1.61.18-4.74.35-6.56.38v.39c3.35.21,3.52.35,3.52,2.82v9.87c0,2.09-.55,2.54-3.38,2.79v.35h9.8v-.35c-2.82-.25-3.38-.7-3.38-2.79V54.77c0-3.42.21-4.81,1-6.77a5.52,5.52,0,0,1,4.92-3.45c2.26,0,2.61.74,2.61,5.37v7.22c0,2.09-.52,2.54-3.38,2.79v.35h9.83v-.35c-2.86-.25-3.38-.7-3.38-2.79V49.75c0-3-.14-3.66-1-4.64a5.39,5.39,0,0,0-3.83-1.5,6.77,6.77,0,0,0-4.4,1.64,7.77,7.77,0,0,0-2.4,4.11V43.68Z"/><path d="M61.49,43.68c-1.61.18-4.74.35-6.56.38v.39c3.35.21,3.52.35,3.52,2.82v9.87c0,2.09-.55,2.54-3.38,2.79v.35h9.8v-.35c-2.82-.25-3.38-.7-3.38-2.79V54.77c0-3.42.21-4.81,1-6.77a5.52,5.52,0,0,1,4.92-3.45c2.26,0,2.61.74,2.61,5.37v7.22c0,2.09-.52,2.54-3.38,2.79v.35h9.83v-.35c-2.86-.25-3.38-.7-3.38-2.79V49.75c0-3-.14-3.66-1-4.64a5.39,5.39,0,0,0-3.83-1.5,6.77,6.77,0,0,0-4.4,1.64,7.77,7.77,0,0,0-2.4,4.11V43.68Z"/><path d="M89.49,43.86c-.35,1-.49,1.18-.8,1.18s-.31-.07-.91-.42a7.35,7.35,0,0,0-3.76-1c-3.31,0-5.86,2.09-5.86,4.78a3.76,3.76,0,0,0,2,3.24,17,17,0,0,0,3.66,1.46C88,54.45,88.69,55,88.69,56.86a3.75,3.75,0,0,1-4,3.42c-3.14,0-5.33-2.31-6.66-6.94h-.38v7.28H78l.28-.83.17-.49c.14-.45.32-.66.56-.66a.57.57,0,0,1,.32.1l1.18.8a7.84,7.84,0,0,0,4.12,1.19c3.59,0,6.41-2.37,6.41-5.4a4.31,4.31,0,0,0-1.88-3.63,16.77,16.77,0,0,0-3.7-1.5c-4.15-1.36-5-1.92-5-3.45S82,44.06,84,44.06c2.82,0,4.88,2.13,5.47,5.72h.35V43.86Z"/><path d="M89.49,43.86c-.35,1-.49,1.18-.8,1.18s-.31-.07-.91-.42a7.35,7.35,0,0,0-3.76-1c-3.31,0-5.86,2.09-5.86,4.78a3.76,3.76,0,0,0,2,3.24,17,17,0,0,0,3.66,1.46C88,54.45,88.69,55,88.69,56.86a3.75,3.75,0,0,1-4,3.42c-3.14,0-5.33-2.31-6.66-6.94h-.38v7.28H78l.28-.83.17-.49c.14-.45.32-.66.56-.66a.57.57,0,0,1,.32.1l1.18.8a7.84,7.84,0,0,0,4.12,1.19c3.59,0,6.41-2.37,6.41-5.4a4.31,4.31,0,0,0-1.88-3.63,16.77,16.77,0,0,0-3.7-1.5c-4.15-1.36-5-1.92-5-3.45S82,44.06,84,44.06c2.82,0,4.88,2.13,5.47,5.72h.35V43.86Z"/><path class="cls-1" d="M100.94,43.61a8.56,8.56,0,1,0,8.37,8.58,8.75,8.75,0,0,0-8.37-8.58Zm0,16.67c-3.45,0-4.85-2.31-4.85-8.09s1.4-8.13,4.85-8.13,4.84,2.31,4.84,8.13-1.36,8.09-4.84,8.09Z"/><path d="M100.94,43.61a8.56,8.56,0,1,0,8.37,8.58,8.75,8.75,0,0,0-8.37-8.58Zm0,16.67c-3.45,0-4.85-2.31-4.85-8.09s1.4-8.13,4.85-8.13,4.84,2.31,4.84,8.13-1.36,8.09-4.84,8.09Z"/><path d="M115,43.68c-1.61.18-4.74.35-6.56.38v.39c3.35.21,3.52.35,3.52,2.82v9.87c0,2.09-.55,2.54-3.38,2.79v.35h9.8v-.35c-2.83-.25-3.38-.7-3.38-2.79V54.77c0-3.42.21-4.81,1-6.77a5.52,5.52,0,0,1,4.92-3.45c2.26,0,2.61.74,2.61,5.37v7.22c0,2.09-.52,2.54-3.38,2.79v.35H130v-.35c-2.86-.25-3.38-.7-3.38-2.79V49.75c0-3-.14-3.66-1-4.64a5.39,5.39,0,0,0-3.83-1.5,6.77,6.77,0,0,0-4.4,1.64,7.77,7.77,0,0,0-2.4,4.11V43.68Z"/><path d="M115,43.68c-1.61.18-4.74.35-6.56.38v.39c3.35.21,3.52.35,3.52,2.82v9.87c0,2.09-.55,2.54-3.38,2.79v.35h9.8v-.35c-2.83-.25-3.38-.7-3.38-2.79V54.77c0-3.42.21-4.81,1-6.77a5.52,5.52,0,0,1,4.92-3.45c2.26,0,2.61.74,2.61,5.37v7.22c0,2.09-.52,2.54-3.38,2.79v.35H130v-.35c-2.86-.25-3.38-.7-3.38-2.79V49.75c0-3-.14-3.66-1-4.64a5.39,5.39,0,0,0-3.83-1.5,6.77,6.77,0,0,0-4.4,1.64,7.77,7.77,0,0,0-2.4,4.11V43.68Z"/><path d="M159.68,38.28V56.93c0,2.47-.31,2.72-3.83,3v.35H166.9v-.35c-3.56-.28-3.87-.56-3.87-3V40.37c0-2.44.35-2.72,3.87-3V37h-7.6l-6.14,17.64L146.89,37h-7.81v.35c3.73.28,4.11.56,4.11,3V53.93c0,4-1,5.44-4.35,6v.35h9.3v-.35a4,4,0,0,1-1.81-.46c-1.88-.9-2.37-2.09-2.37-5.54V38.28l7.81,22.55,7.91-22.55Z"/><path d="M159.68,38.28V56.93c0,2.47-.31,2.72-3.83,3v.35H166.9v-.35c-3.56-.28-3.87-.56-3.87-3V40.37c0-2.44.35-2.72,3.87-3V37h-7.6l-6.14,17.64L146.89,37h-7.81v.35c3.73.28,4.11.56,4.11,3V53.93c0,4-1,5.44-4.35,6v.35h9.3v-.35a4,4,0,0,1-1.81-.46c-1.88-.9-2.37-2.09-2.37-5.54V38.28l7.81,22.55,7.91-22.55Z"/><path class="cls-1" d="M177,50.93l-3,.6c-4.46.9-6.83,2.75-6.83,5.33,0,2.37,1.74,3.9,4.42,3.9A6,6,0,0,0,175.86,59a6.39,6.39,0,0,0,1.6-2.61c.07,3.31.77,4.32,3,4.32s3.39-1.43,3.39-4.46V56h-.46c-.07,2.68-.66,3.87-1.92,3.87-.73,0-1-.49-1-1.89V49.4c0-2.3-.52-3.63-1.75-4.5a8.42,8.42,0,0,0-4.7-1.29c-3.42,0-6.17,1.81-6.17,4.08a1.86,1.86,0,0,0,1.85,1.92A1.68,1.68,0,0,0,171.5,48a1.35,1.35,0,0,0-.66-1.22c-.63-.38-.66-.45-.66-.77,0-1,1.81-1.92,3.72-1.92,2.69,0,3.56,1.09,3.56,4.4v2.37l-.49.1Zm.49,1.43c0,3.1-.17,4-1.11,5.41a4.62,4.62,0,0,1-3.49,2.16c-1.36,0-2.16-1.22-2.16-3.28A4.56,4.56,0,0,1,172,53.16c1.08-1,2.4-1.46,5.47-1.88v1.08Z"/><path d="M177,50.93l-3,.6c-4.46.9-6.83,2.75-6.83,5.33,0,2.37,1.74,3.9,4.42,3.9A6,6,0,0,0,175.86,59a6.39,6.39,0,0,0,1.6-2.61c.07,3.31.77,4.32,3,4.32s3.39-1.43,3.39-4.46V56h-.46c-.07,2.68-.66,3.87-1.92,3.87-.73,0-1-.49-1-1.89V49.4c0-2.3-.52-3.63-1.75-4.5a8.42,8.42,0,0,0-4.7-1.29c-3.42,0-6.17,1.81-6.17,4.08a1.86,1.86,0,0,0,1.85,1.92A1.68,1.68,0,0,0,171.5,48a1.35,1.35,0,0,0-.66-1.22c-.63-.38-.66-.45-.66-.77,0-1,1.81-1.92,3.72-1.92,2.69,0,3.56,1.09,3.56,4.4v2.37l-.49.1Zm.49,1.43c0,3.1-.17,4-1.11,5.41a4.62,4.62,0,0,1-3.49,2.16c-1.36,0-2.16-1.22-2.16-3.28A4.56,4.56,0,0,1,172,53.16c1.08-1,2.4-1.46,5.47-1.88v1.08Z"/><path d="M188.57,36.57l0,.42c-.25,2.72-.74,4.36-1.57,5.37a6.33,6.33,0,0,1-4.46,1.78v.48h3.38v12a4.74,4.74,0,0,0,.42,2,4.27,4.27,0,0,0,3.94,2.06,4.14,4.14,0,0,0,4-2.2,8.14,8.14,0,0,0,.74-4.15v-.45h-.46l0,.31c-.18,4.15-1,5.58-3.28,5.58-1.85,0-2.3-.83-2.3-4.11V44.62h5.19v-.56h-5.19V36.57Z"/><path d="M188.57,36.57l0,.42c-.25,2.72-.74,4.36-1.57,5.37a6.33,6.33,0,0,1-4.46,1.78v.48h3.38v12a4.74,4.74,0,0,0,.42,2,4.27,4.27,0,0,0,3.94,2.06,4.14,4.14,0,0,0,4-2.2,8.14,8.14,0,0,0,.74-4.15v-.45h-.46l0,.31c-.18,4.15-1,5.58-3.28,5.58-1.85,0-2.3-.83-2.3-4.11V44.62h5.19v-.56h-5.19V36.57Z"/><path d="M201.52,36.57l0,.42c-.24,2.72-.73,4.36-1.57,5.37a6.31,6.31,0,0,1-4.46,1.78v.48h3.38v12a4.74,4.74,0,0,0,.42,2,4.28,4.28,0,0,0,3.94,2.06,4.16,4.16,0,0,0,4-2.2,8.15,8.15,0,0,0,.73-4.15v-.45h-.45l0,.31c-.17,4.15-1,5.58-3.27,5.58-1.85,0-2.3-.83-2.3-4.11V44.62h5.19v-.56h-5.19V36.57Z"/><path d="M201.52,36.57l0,.42c-.24,2.72-.73,4.36-1.57,5.37a6.31,6.31,0,0,1-4.46,1.78v.48h3.38v12a4.74,4.74,0,0,0,.42,2,4.28,4.28,0,0,0,3.94,2.06,4.16,4.16,0,0,0,4-2.2,8.15,8.15,0,0,0,.73-4.15v-.45h-.45l0,.31c-.17,4.15-1,5.58-3.27,5.58-1.85,0-2.3-.83-2.3-4.11V44.62h5.19v-.56h-5.19V36.57Z"/><path d="M214.07,36.57l-.17,0c-1.33.18-4,.35-6.14.42h-.11v.39c3.21.21,3.39.35,3.39,2.85V57.14c0,2.09-.56,2.54-3.39,2.79v.35h9.73l0-.35c-2.9-.28-3.35-.66-3.35-2.79V54.8c0-3.62.21-4.95,1.11-6.8A5.35,5.35,0,0,1,220,44.55c2.27,0,2.62.74,2.62,5.37v7.22c0,2.09-.53,2.54-3.39,2.79v.35h9.84v-.35c-2.86-.25-3.39-.7-3.39-2.79V49.75c0-3-.14-3.66-1-4.64a5.36,5.36,0,0,0-3.83-1.5,6.71,6.71,0,0,0-4.4,1.64,9.16,9.16,0,0,0-2.4,3.87V36.57Z"/><path d="M214.07,36.57l-.17,0c-1.33.18-4,.35-6.14.42h-.11v.39c3.21.21,3.39.35,3.39,2.85V57.14c0,2.09-.56,2.54-3.39,2.79v.35h9.73l0-.35c-2.9-.28-3.35-.66-3.35-2.79V54.8c0-3.62.21-4.95,1.11-6.8A5.35,5.35,0,0,1,220,44.55c2.27,0,2.62.74,2.62,5.37v7.22c0,2.09-.53,2.54-3.39,2.79v.35h9.84v-.35c-2.86-.25-3.39-.7-3.39-2.79V49.75c0-3-.14-3.66-1-4.64a5.36,5.36,0,0,0-3.83-1.5,6.71,6.71,0,0,0-4.4,1.64,9.16,9.16,0,0,0-2.4,3.87V36.57Z"/><path class="cls-1" d="M243,50.77c0-4.22-2.82-7.18-6.83-7.18-4.32,0-8.12,4-8.12,8.57a8.34,8.34,0,0,0,8.4,8.51,6.28,6.28,0,0,0,6.62-5.82h-.55c-.56,3.48-2.65,5.33-6,5.33s-5.08-2.2-5.08-6.9c0-.59,0-.94,0-1.85H243a5.74,5.74,0,0,0,0-.66ZM236.06,44c2.51,0,3.8,1.64,3.8,4.85,0,2-.14,2.09-3.32,2.09h-5c.25-5,1.5-6.94,4.54-6.94Z"/><path d="M243,50.77c0-4.22-2.82-7.18-6.83-7.18-4.32,0-8.12,4-8.12,8.57a8.34,8.34,0,0,0,8.4,8.51,6.28,6.28,0,0,0,6.62-5.82h-.55c-.56,3.48-2.65,5.33-6,5.33s-5.08-2.2-5.08-6.9c0-.59,0-.94,0-1.85H243a5.74,5.74,0,0,0,0-.66ZM236.06,44c2.51,0,3.8,1.64,3.8,4.85,0,2-.14,2.09-3.32,2.09h-5c.25-5,1.5-6.94,4.54-6.94Z"/><path d="M249.3,47.2l-.28-.76a1.62,1.62,0,0,1-.14-.7c0-.8.69-1.12,2.75-1.29v-.39h-9.24l0,.39c2.37.21,2.82.56,3.73,2.89l5.75,14.57-.66,1.85c-1.08,3-2.44,4.36-4.46,4.36-.6,0-1-.28-1-.59,0-.14.18-.28.49-.53a1.61,1.61,0,0,0,.73-1.42,1.73,1.73,0,0,0-1.74-1.85,2,2,0,0,0-2,2.09,3.12,3.12,0,0,0,3.35,2.89,4.65,4.65,0,0,0,3.31-1.46,10.38,10.38,0,0,0,1.92-3.38l5.89-15c1.32-3.35,2.16-4.18,4.43-4.46v-.39h-7v.39c2,.24,2.58.73,2.58,1.92a15.35,15.35,0,0,1-1.25,4.14l-2.93,7.36L249.3,47.2Z"/><path d="M249.3,47.2l-.28-.76a1.62,1.62,0,0,1-.14-.7c0-.8.69-1.12,2.75-1.29v-.39h-9.24l0,.39c2.37.21,2.82.56,3.73,2.89l5.75,14.57-.66,1.85c-1.08,3-2.44,4.36-4.46,4.36-.6,0-1-.28-1-.59,0-.14.18-.28.49-.53a1.61,1.61,0,0,0,.73-1.42,1.73,1.73,0,0,0-1.74-1.85,2,2,0,0,0-2,2.09,3.12,3.12,0,0,0,3.35,2.89,4.65,4.65,0,0,0,3.31-1.46,10.38,10.38,0,0,0,1.92-3.38l5.89-15c1.32-3.35,2.16-4.18,4.43-4.46v-.39h-7v.39c2,.24,2.58.73,2.58,1.92a15.35,15.35,0,0,1-1.25,4.14l-2.93,7.36L249.3,47.2Z"/><line class="cls-2" x1="130.43" y1="0.37" x2="130.43" y2="24.21"/><polygon class="cls-3" points="96.59 0.42 163.79 0.42 163.79 24.21 96.59 24.21 96.59 0.42 96.59 0.42"/><path d="M142,3.89a14.19,14.19,0,0,1,2.6,2.49c0,.29-1.92,2-1.92,2.2a11.72,11.72,0,0,0,1.18,1.26,26,26,0,0,0,2.76,2.57c.13,0,.74-.65.88-.79.82-.79,4.16-3.91,4.16-4.14s-.78-1-.78-1.19a5.4,5.4,0,0,1,1.57-1.55c.37,0,.93.89,1.17.89a1.85,1.85,0,0,1,.36-.07c.36,0,.64.08.64.53a4.65,4.65,0,0,1-.22.64,11.54,11.54,0,0,1,.82,2.76v.72c0,.2-.16,1.4-.6,1.4h-.21c-.27,0-1.39-3.08-1.85-3.08-.31,0-1.61,1.32-1.74,1.44a33.69,33.69,0,0,0-3.3,3.3c0,.39,5.35,5,5.35,5.64a.52.52,0,0,1-.54.53c-.45,0-5.44-5.23-5.74-5.23a23.76,23.76,0,0,0-3,2.82c-.66.73-1.9,1.85-2.57,2.47a3.09,3.09,0,0,1-.51.15c-.28,0-.36-.4-.36-.53a.35.35,0,0,1,.13-.35c.68-.73,1.46-1.48,2.19-2.19s3.19-3,3.19-3.3c0-.12-1.61-1.64-2.16-2.18a17.19,17.19,0,0,0-1.81-1.59c-.15,0-2,1.94-2.19,1.94s-.55-.44-.71-.57-1.9-1.62-1.9-1.91,2-2,2-2.27a2.77,2.77,0,0,1-.21-.61.5.5,0,0,1,.5-.51,2.09,2.09,0,0,1,.56.23c.37,0,1.93-1.92,2.23-1.92Z"/><path d="M130.32,24.15V.25h33.07v23.9Zm16.29-2.51c8.11,0,14.69-4.27,14.69-9.53s-6.58-9.52-14.69-9.52-14.68,4.26-14.68,9.52,6.58,9.53,14.68,9.53Z"/><path class="cls-1" d="M108,5.13h0c.11,0,.14,0,0,0h.44v10c0,3-3,4-5.11,4a6.54,6.54,0,0,1-2.65-.56l0,0s0,0,0,0c-1.73-1-1.89-2.92-1.89-4.21,0-.35-.16-.77.13-.94a7.46,7.46,0,0,1,1.86-.57,1.83,1.83,0,0,0,.25-.08,16.91,16.91,0,0,1-.13,1.69c0,1.75.91,3,2.78,3,.12,0,.49,0,.51,0h.09l.18,0c1.39,0,2-1.95,2-2.68V5.13Z"/><path d="M111.2,5.18h3.09c1.19,2.52,4.33,9.38,4.57,10a3.15,3.15,0,0,0,.18.43c0,.08.17.38.24.52,1.82-3.72,3.39-7.15,5.1-11h1.89s0,0,0,0h1V19h-2V7.82l-2.62,5.71,0,.05,0,0a.2.2,0,0,1,0,.06l-2.5,5.4h-1.6c-1-2.22-2.17-4.8-3.14-7L113.44,8V19c-1.77.05-2,0-2.24,0V5.18Z"/></g></g></svg>