<svg xmlns="http://www.w3.org/2000/svg" viewBox="0 0 283.46 65.29"><defs><style>.cls-1{fill:#e31837;fill-rule:evenodd;}</style></defs><title>LS-starrett</title><g id="Layer_2" data-name="Layer 2"><g id="Layer_1-2" data-name="Layer 1"><path class="cls-1" d="M151.55,32.66l.09.76.46-1-.55.27Z"/><path class="cls-1" d="M151.55,32.66l.09.76.46-1-.55.27Z"/><path class="cls-1" d="M152.1,32.39,153.73,29l2.18-4.68a13,13,0,0,0-2.18-1.16c-4.81-2.1-9.57-.89-14.2,3.52l-.63-3.61a135.3,135.3,0,0,1-16,9.36,2.18,2.18,0,0,1-.5.22l.36,3.61h.14c2.13-.63,3.54-.14,3.58,2.63V60.29a22.11,22.11,0,0,1-.18,3.51,120.29,120.29,0,0,1,19.51-9.58V47.63c-1.41,3-6.4,3.43-6.4-.89V40.28c0-4.5,2.13-6.42,2.77-7,1.63-1.43,3.85-.8,4,1.42a11,11,0,0,1-1.18,5.44l2.81,1.16,3.76-7.84-.09-.76.55-.27Z"/><path class="cls-1" d="M152.1,32.39,153.73,29l2.18-4.68a13,13,0,0,0-2.18-1.16c-4.81-2.1-9.57-.89-14.2,3.52l-.63-3.61a135.3,135.3,0,0,1-16,9.36,2.18,2.18,0,0,1-.5.22l.36,3.61h.14c2.13-.63,3.54-.14,3.58,2.63V60.29a22.11,22.11,0,0,1-.18,3.51,120.29,120.29,0,0,1,19.51-9.58V47.63c-1.41,3-6.4,3.43-6.4-.89V40.28c0-4.5,2.13-6.42,2.77-7,1.63-1.43,3.85-.8,4,1.42a11,11,0,0,1-1.18,5.44l2.81,1.16,3.76-7.84-.09-.76.55-.27Z"/><path class="cls-1" d="M98,62.4l-1.7,1a6.94,6.94,0,0,1-5,.49c-7.8-2-11.88-7.3-13.2-15.37a39.94,39.94,0,0,1-.5-6.77,26.06,26.06,0,0,1,.5-4.63c2-9.67,10.16-15.55,19.55-14.8a24.71,24.71,0,0,1,10.39,3.48c4.13-3.74,9.39-4,14.88-1.12a4.57,4.57,0,0,0,.55.27,2.36,2.36,0,0,1-.55.58,15.41,15.41,0,0,0-2,2.72c-1.81-.67-3.81,0-3.81,2.54V47.32c0,3.79,4.54,3.87,5.67.89v6a114.69,114.69,0,0,0-18.91,9.45l0-4.81L98,62.4ZM91.36,42.64c.09,4.92,1.59,9.59,5.76,10.7a7.19,7.19,0,0,0,1.95.29c2.83,0,4.62-1.82,5-5V37c-.28-3.74-2.68-5.3-5.68-5.08l-.68.09c-4.4.63-6.44,4.55-6.3,10.65Z"/><path class="cls-1" d="M52.17,35.6,20.82,17.78c-1.13-5.17,5.81-10.7,14.06-8,6.22,2.09,7.26,6.68,5.58,13.94l5.81,3.35a106.77,106.77,0,0,1,5.9-15.47c.77-1.51,1.49-3,2.26-4.5a19.36,19.36,0,0,0-2.26-1.2C40.69-.09,27.94-2,17.1,3,6.35,8.33,2.18,17.2,4,28.65L34,45.89a2.07,2.07,0,0,1,1.18,2.86c-2,5.7-12.43,10.46-18.2,2.22-2.08-2.89-2-7.35-1.49-11.58l-5.45-3C7.76,42.91,4.17,49.64,0,56.81c10.66,6.59,23.82,10.56,35.38,7.35,8.17-2.32,14.2-7.71,16.79-14.39a22.65,22.65,0,0,0,.95-13.72l-.95-.45Z"/><path class="cls-1" d="M52.17,35.6,20.82,17.78c-1.13-5.17,5.81-10.7,14.06-8,6.22,2.09,7.26,6.68,5.58,13.94l5.81,3.35a106.77,106.77,0,0,1,5.9-15.47c.77-1.51,1.49-3,2.26-4.5a19.36,19.36,0,0,0-2.26-1.2C40.69-.09,27.94-2,17.1,3,6.35,8.33,2.18,17.2,4,28.65L34,45.89a2.07,2.07,0,0,1,1.18,2.86c-2,5.7-12.43,10.46-18.2,2.22-2.08-2.89-2-7.35-1.49-11.58l-5.45-3C7.76,42.91,4.17,49.64,0,56.81c10.66,6.59,23.82,10.56,35.38,7.35,8.17-2.32,14.2-7.71,16.79-14.39a22.65,22.65,0,0,0,.95-13.72l-.95-.45Z"/><path class="cls-1" d="M70.45,46.74v-16L76,30.65l2.08-4.85.46-1.16a2.75,2.75,0,0,1-.46.27,8.57,8.57,0,0,1-5.58,1c-1.09-.13-2.08-1.6-2.08-3.65V13.1c-5.27,4.32-11.34,9.49-18.28,13.54-.68.41-1.46.81-2.18,1.16l1.27,2.32a1.26,1.26,0,0,0,.91.62h5.44l0,29.55a22.11,22.11,0,0,1-.18,3.51,122.34,122.34,0,0,1,19.51-9.58V47.63c-1.41,3-6.44,3.43-6.44-.89Z"/><path class="cls-1" d="M70.45,46.74v-16L76,30.65l2.08-4.85.46-1.16a2.75,2.75,0,0,1-.46.27,8.57,8.57,0,0,1-5.58,1c-1.09-.13-2.08-1.6-2.08-3.65V13.1c-5.27,4.32-11.34,9.49-18.28,13.54-.68.41-1.46.81-2.18,1.16l1.27,2.32a1.26,1.26,0,0,0,.91.62h5.44l0,29.55a22.11,22.11,0,0,1-.18,3.51,122.34,122.34,0,0,1,19.51-9.58V47.63c-1.41,3-6.44,3.43-6.44-.89Z"/><path class="cls-1" d="M274.44,1.2a7.91,7.91,0,0,0-6.53,3.43,7.92,7.92,0,0,0-1.27,4.24,8,8,0,0,0,1.27,4.18,7.91,7.91,0,0,0,6.53,3.44h.27a7.76,7.76,0,0,0,7.53-7.62,7.77,7.77,0,0,0-7.53-7.67h-.27Zm0-1.2h.27a9,9,0,0,1,8.75,8.86,9,9,0,0,1-8.75,8.82h-.27a9,9,0,0,1-6.53-2.85,8.56,8.56,0,0,1,0-12A8.92,8.92,0,0,1,274.44,0Z"/><path class="cls-1" d="M274.71,4.23H271v9.14h1.27V9.45h2.4V8.38h-2.4v-3h2.4V4.23Zm3.49,8.07,0-1.7c0-1.29-.59-1.51-1.09-1.73a2.18,2.18,0,0,0,1.31-2.14c0-2-1.58-2.5-3-2.5h-.63V5.35h.68c.64,0,1.68,0,1.68,1.42s-.95,1.61-1.86,1.61h-.5V9.45h.63c1.46,0,1.59.89,1.59,1.64a14.4,14.4,0,0,0,.23,2.28h1.54v-.18c-.41-.22-.41-.45-.5-.89Z"/><path class="cls-1" d="M274.71,5.35h-2.4v3h2.9c.91,0,1.86-.18,1.86-1.61s-1-1.42-1.68-1.42Zm0-1.12h.63c1.46,0,3,.54,3,2.5a2.18,2.18,0,0,1-1.31,2.14c.5.22,1.09.44,1.09,1.73l0,1.7c.09.44.09.67.5.89v.18h-1.54a14.4,14.4,0,0,1-.23-2.28c0-.75-.13-1.64-1.59-1.64h-3v3.92H271V4.23Z"/><path class="cls-1" d="M177.05,41.26l5.85-12.08,2.31-4.85a20.13,20.13,0,0,0-2.31-1.25c-4.81-2-9.62-.8-14.25,3.61L168,23.08a143.56,143.56,0,0,1-14.29,8.56c-.5.26-1.09.48-1.63.75l-.46,1,.27,2.85a5.94,5.94,0,0,1,1.82-.27c1.22.13,1.91,1,1.91,2.9V60.29a17.36,17.36,0,0,1-.23,3.51A124.92,124.92,0,0,1,175,54.22V47.63c-1.4,3-6.44,3.43-6.44-.89V40.28c0-4.5,2.14-6.42,2.82-7,1.63-1.43,3.81-.8,4,1.42a11.24,11.24,0,0,1-1.13,5.44l2.77,1.16Z"/><path class="cls-1" d="M177.05,41.26l5.85-12.08,2.31-4.85a20.13,20.13,0,0,0-2.31-1.25c-4.81-2-9.62-.8-14.25,3.61L168,23.08a143.56,143.56,0,0,1-14.29,8.56c-.5.26-1.09.48-1.63.75l-.46,1,.27,2.85a5.94,5.94,0,0,1,1.82-.27c1.22.13,1.91,1,1.91,2.9V60.29a17.36,17.36,0,0,1-.23,3.51A124.92,124.92,0,0,1,175,54.22V47.63c-1.4,3-6.44,3.43-6.44-.89V40.28c0-4.5,2.14-6.42,2.82-7,1.63-1.43,3.81-.8,4,1.42a11.24,11.24,0,0,1-1.13,5.44l2.77,1.16Z"/><path class="cls-1" d="M267.86,30.65l.05-.22,2.4-5.79c-.91.45-1.68.8-2.4,1.07a7.34,7.34,0,0,1-3.59.22c-1.09-.13-2-1.6-2.13-3.65l.09-9.18c-4.53,3.61-9.89,8-15.47,11.58-2.4,1.16-3.67,1.61-6,1.25-1-.13-2-1.6-2.09-3.65V13.1c-5.21,4.23-11.16,9.36-18,13.32a28.39,28.39,0,0,1-2.54,1.38l1.27,2.32a1.14,1.14,0,0,0,1.09.62h5.26V60.29a30.17,30.17,0,0,1-.18,3.51,121.38,121.38,0,0,1,19.46-9.58V47.63c-1.32,3-6.4,3.43-6.35-.89v-16h10.61V60.29a29.91,29.91,0,0,1-.22,3.51,135.82,135.82,0,0,1,18.78-9.35c.22-.09.5-.14.72-.23V47.63a3.87,3.87,0,0,1-.72,1.07c-1.91,2-5.63,1.78-5.63-2v-16l5.58-.09Z"/><path class="cls-1" d="M267.86,30.65l.05-.22,2.4-5.79c-.91.45-1.68.8-2.4,1.07a7.34,7.34,0,0,1-3.59.22c-1.09-.13-2-1.6-2.13-3.65l.09-9.18c-4.53,3.61-9.89,8-15.47,11.58-2.4,1.16-3.67,1.61-6,1.25-1-.13-2-1.6-2.09-3.65V13.1c-5.21,4.23-11.16,9.36-18,13.32a28.39,28.39,0,0,1-2.54,1.38l1.27,2.32a1.14,1.14,0,0,0,1.09.62h5.26V60.29a30.17,30.17,0,0,1-.18,3.51,121.38,121.38,0,0,1,19.46-9.58V47.63c-1.32,3-6.4,3.43-6.35-.89v-16h10.61V60.29a29.91,29.91,0,0,1-.22,3.51,135.82,135.82,0,0,1,18.78-9.35c.22-.09.5-.14.72-.23V47.63a3.87,3.87,0,0,1-.72,1.07c-1.91,2-5.63,1.78-5.63-2v-16l5.58-.09Z"/><path class="cls-1" d="M199.86,21.83a20.35,20.35,0,0,0-17,11.68,23.47,23.47,0,0,0-2.41,10,20.51,20.51,0,0,0,19.37,20.45h1a27.26,27.26,0,0,0,19.82-8.65,14.61,14.61,0,0,0,2.54-3.43l-2.54-3.38-1.82-2.41a18.73,18.73,0,0,1-12.38,8,10.79,10.79,0,0,1-6.67-1.51A10.61,10.61,0,0,1,196.6,49l3.26-1.25,20.87-7.93.59-.18c-.14-.76-.36-1.51-.59-2.36-2.54-8.82-10.07-15.46-19.46-15.46-.45,0-.91,0-1.41,0Zm0,9.09h-.45c-5.12.09-8,6.73-5.44,11.45l5.89-2.09,6.85-2.41c-1.09-3.87-3.31-6.64-6.85-6.95Z"/></g></g></svg>