<svg xmlns="http://www.w3.org/2000/svg" viewBox="0 0 515.12 95.29"><defs><style>.cls-1{fill:#58595b;}.cls-2{fill:#231f20;}.cls-3{fill:none;stroke:#fff;stroke-width:0.57px;}.cls-4{fill:#fff;}</style></defs><title>midland-aerospace</title><g id="Layer_2" data-name="Layer 2"><g id="Layer_1-2" data-name="Layer 1"><path class="cls-1" d="M95.87,92.38A2.88,2.88,0,0,1,93,95.29H4.7a2.88,2.88,0,0,1-2.83-2.91V80.23A2.87,2.87,0,0,1,4.7,77.32H93a2.87,2.87,0,0,1,2.84,2.91Z"/><path class="cls-1" d="M2.77,55.15c.78-4.9,3.79-6.61,10.85-6.61,6.8,0,10.72,1.33,10.72,5.7v10.9c0,1.44,0,2.32,1.55,2.32a7.66,7.66,0,0,0,2.05-.31v1.52a9.17,9.17,0,0,1-2.55.31c-2.87,0-2.87-1.67-2.87-4.26h-.1c-2.59,4-8.07,4.49-11.12,4.49-2,0-9.58,0-9.58-5.93,0-4,4.06-5.36,8.8-5.59l8.17-.45c2.41-.15,3.55-.38,3.55-2.78,0-2.62-1.78-4.4-8.66-4.4-6.16,0-8.07,1.59-8.71,5.09Zm19.47,2.58h-.09a6.56,6.56,0,0,1-3.74,1l-7.89.45c-3.92.23-6.7,1.14-6.7,4.07,0,4,4.79,4.41,7.62,4.41,4.65,0,10.8-1.75,10.8-6.39Z"/><path class="cls-1" d="M30.31,59.25c.14,4.86,4.11,8.44,11.13,8.44,7.25,0,9.12-3.8,9.94-5.55h2.1c-2,4.9-6.07,7.07-12.27,7.07-8,0-13-4-13-10.49,0-4.07,3.1-10.18,13-10.18C49.37,48.54,54,53,54.11,59.25Zm21.43-1.52c-.86-5.32-5.33-7.67-10.71-7.67-6,0-9.8,3-10.72,7.67Z"/><path class="cls-1" d="M56.9,49.14H59v4.6h.09c1.55-3.42,5.1-5.2,9.66-5.2a6.92,6.92,0,0,1,1.74.22v1.75a8.24,8.24,0,0,0-2.42-.23C62,50.28,59,54.12,59,58.07V68.6H56.9Z"/><path class="cls-1" d="M84.21,48.54c8.35,0,13.18,4.86,13.18,10.33S92.56,69.21,84.21,69.21,71,64.34,71,58.87,75.87,48.54,84.21,48.54Zm0,19.15c7.39,0,11.08-4.37,11.08-8.82s-3.69-8.81-11.08-8.81-11.08,4.37-11.08,8.81S76.83,67.69,84.21,67.69Z"/><path class="cls-1" d="M118.55,54.84c-.32-3.23-2.78-4.78-8.85-4.78-5.74,0-7.61,1.86-7.61,3.87s1.91,3,4.69,3.31l7.44.83c4.37.5,7.34,1.83,7.34,5.32,0,5.28-7.21,5.82-11.17,5.82-6.43,0-11.08-1.83-11.4-6.69h2.09c.28,2,.78,5.17,9.85,5.17,6.16,0,8.53-1.52,8.53-4.3,0-2.24-2-3.23-4.7-3.53l-8.2-.91c-2.88-.31-6.57-1.45-6.57-4.9,0-2.21,1.87-5.51,9.8-5.51,8.67,0,10.58,3.26,10.85,6.3Z"/><path class="cls-1" d="M124.52,49.14h2.1V53.4h.09c1.1-2.32,4.33-4.86,10.35-4.86,8.21,0,12.45,4.86,12.45,10.37,0,6.19-5.34,10.3-12.45,10.3-5.74,0-9-2.63-10.35-4.75h-.09V76.27h-2.1Zm1.83,9.54c0,6.84,5.92,9,10.67,9,5.38,0,10.39-2.82,10.39-8.74,0-5.59-4.33-8.89-10.12-8.89C128.53,50.06,126.35,55.22,126.35,58.68Z"/><path class="cls-1" d="M152.38,55.15c.78-4.9,3.79-6.61,10.86-6.61,6.79,0,10.71,1.33,10.71,5.7v10.9c0,1.44,0,2.32,1.55,2.32a7.66,7.66,0,0,0,2.05-.31v1.52A9.17,9.17,0,0,1,175,69c-2.87,0-2.87-1.67-2.87-4.26H172c-2.59,4-8.07,4.49-11.12,4.49-2,0-9.57,0-9.57-5.93,0-4,4-5.36,8.79-5.59l8.17-.45c2.41-.15,3.55-.38,3.55-2.78,0-2.62-1.78-4.4-8.66-4.4-6.16,0-8.07,1.59-8.71,5.09Zm19.47,2.58h-.09a6.56,6.56,0,0,1-3.74,1l-7.89.45c-3.92.23-6.7,1.14-6.7,4.07,0,4,4.79,4.41,7.62,4.41,4.65,0,10.8-1.75,10.8-6.39Z"/><path class="cls-1" d="M200.9,55.26c-.28-2.47-4.29-5.2-9.9-5.2-7.38,0-11.07,4.37-11.07,9,0,3.15,2.64,8.63,11.07,8.63,4.7,0,9.17-1.87,10.22-5.89h2.09c-1.23,5.09-6.42,7.41-12.31,7.41-7.66,0-13.17-4.11-13.17-10.15,0-6.84,6-10.52,13.17-10.52s11.72,3.42,12,6.72Z"/><path class="cls-1" d="M207.24,59.25c.14,4.86,4.1,8.44,11.12,8.44,7.25,0,9.12-3.8,9.94-5.55h2.1c-2,4.9-6.06,7.07-12.26,7.07-8,0-13-4-13-10.49,0-4.07,3.1-10.18,13-10.18C226.3,48.54,231,53,231,59.25Zm21.43-1.52c-.87-5.32-5.34-7.67-10.72-7.67-6,0-9.8,3-10.71,7.67Z"/><path class="cls-1" d="M0,0H21.83l6.44,22.82h.11L34.81,0H56.64V39.26H42.56v-28h-.11l-8.24,28H22.44l-8.25-28h-.11v28H0Z"/><path class="cls-1" d="M61.93,0H77.44V39.26H61.93Z"/><path class="cls-1" d="M82.72,0h30.19c13.31,0,20.35,5.17,20.35,19.63,0,13.81-7,19.63-20,19.63H82.72ZM98.23,29.37h8.91c7.09,0,10-3.52,10-9.74s-2.86-9.73-10-9.73H98.23Z"/><path class="cls-1" d="M136.29,0H151.8V28.71h25.54V39.26H136.29Z"/><path class="cls-1" d="M188.7,0h19l16.72,39.26H208l-1.65-4.5H190.13l-1.65,4.5H172Zm9.57,11.88h-.11l-4.62,13.31h9.35Z"/><path class="cls-1" d="M224,0h17.71l15.72,21.78h.17V0h14.85V39.26h-17l-16.49-22h-.11v22H224Z"/><path class="cls-1" d="M277.53,0h30.19C321,0,328.07,5.17,328.07,19.63c0,13.81-7,19.63-20,19.63H277.53ZM293,29.37h8.9c7.1,0,10-3.52,10-9.74S309,9.9,301.94,9.9H293Z"/><path class="cls-1" d="M95.62,81.39s-.08-.84.47-.87c12.84-.73,137.28,10.45,282-26a68.87,68.87,0,0,1,0,8C271.62,93.22,95.62,81.39,95.62,81.39Z"/><path class="cls-2" d="M338.37,9.22S353.12,18,367.62,21.47,400,26.71,400,26.71l-34.59,6Z"/><path class="cls-2" d="M385.62,31.22,383.37,66s26.54-19.68,35.75-25.25c9.5-5.75,39.75-22,39.75-22Z"/><path class="cls-2" d="M463.87,16.72s21.75-8,26.25-8.75,25-1,25-1-20.5,5-25.25,5.75S463.87,16.72,463.87,16.72Z"/><path class="cls-3" d="M31.65,81.67A6.48,6.48,0,0,1,36,80"/><path class="cls-3" d="M41.63,89.73a6.49,6.49,0,1,1-10-8.06"/><path class="cls-3" d="M36,80a6.55,6.55,0,0,1,5.6,3.2"/><path class="cls-3" d="M33.1,89.47a7.76,7.76,0,0,1-1.4,1.81"/><path class="cls-3" d="M31.67,81.61a8.59,8.59,0,0,1,1.57,1.83"/><path class="cls-3" d="M27.36,93a6.49,6.49,0,1,1,0-13"/><line class="cls-3" x1="27.2" y1="79.97" x2="36.03" y2="79.97"/><line class="cls-3" x1="27.3" y1="92.95" x2="36.23" y2="92.95"/><line class="cls-3" x1="32.88" y1="89.59" x2="41.88" y2="89.59"/><line class="cls-3" x1="33.02" y1="83.29" x2="41.85" y2="83.29"/><path class="cls-4" d="M35.25,85.52a.65.65,0,0,0-.68.69.62.62,0,0,0,.65.67,1.29,1.29,0,0,0,.78-.32l0,1.31a2.21,2.21,0,0,1-.82.16A1.87,1.87,0,0,1,34,87.68a1.83,1.83,0,0,1,1.14-3.29,2.1,2.1,0,0,1,.81.17v1.29A1,1,0,0,0,35.25,85.52Z"/><path class="cls-4" d="M37.27,84.47h1.39l1.21,3.47H38.53l-.11-.43h-.94l-.11.43H36Zm.94,2.21-.11-.39a3.57,3.57,0,0,1-.14-.77h0a4.32,4.32,0,0,1-.14.77l-.11.39Z"/><path class="cls-4" d="M40,84.47h1.25v2.35H42.5v1.12H40Z"/><path class="cls-4" d="M42.86,84.47h1a3.23,3.23,0,0,1,1.38.22,1.7,1.7,0,0,1,.21,2.91,2.84,2.84,0,0,1-1.68.34h-.92Zm2,1.74c0-.46-.25-.67-.76-.67h0v1.34C44.65,86.87,44.91,86.68,44.91,86.21Z"/><path class="cls-4" d="M46.68,84.47H49v.94H47.9v.34h1v.89h-1V87H49v.94H46.68Z"/><path class="cls-4" d="M49.5,84.47h1.57c.93,0,1.41.43,1.41,1.17a.81.81,0,0,1-.67.89l.92,1.41h-1.4l-.6-1.14v1.14H49.5ZM50.73,86h.19c.24,0,.37-.12.37-.33s-.12-.34-.37-.34h-.19Z"/><path class="cls-4" d="M56.26,86.7v-.82h1.92a2.35,2.35,0,0,1,0,.26,1.91,1.91,0,0,1-.36,1.19,2,2,0,0,1-2.83.19,1.77,1.77,0,0,1-.53-1.31,1.8,1.8,0,0,1,.53-1.3,1.83,1.83,0,0,1,1.33-.52,1.8,1.8,0,0,1,1.62.92l-1.11.41a.55.55,0,0,0-.49-.28c-.36,0-.61.29-.61.77s.24.78.64.78c.24,0,.4-.11.42-.29Z"/><path class="cls-4" d="M58.62,84.47h1.57c.92,0,1.4.43,1.4,1.17a.81.81,0,0,1-.67.89l.93,1.41h-1.4l-.61-1.14v1.14H58.62ZM59.84,86H60a.34.34,0,1,0,0-.67h-.2Z"/><path class="cls-4" d="M65.13,87.51a2,2,0,0,1-2.66,0,1.78,1.78,0,0,1-.52-1.3,1.76,1.76,0,0,1,.52-1.29,1.93,1.93,0,0,1,2.66,0,1.76,1.76,0,0,1,.53,1.29A1.79,1.79,0,0,1,65.13,87.51Zm-.75-1.3a.59.59,0,0,0-.58-.66.66.66,0,0,0,0,1.32A.59.59,0,0,0,64.38,86.21Z"/><path class="cls-4" d="M66.12,84.47h1.24v1.9c0,.36.06.57.35.57s.35-.21.35-.57v-1.9H69.3v1.88a1.81,1.81,0,0,1-.2,1,1.58,1.58,0,0,1-1.39.67,1.6,1.6,0,0,1-1.4-.67,1.9,1.9,0,0,1-.19-1Z"/><path class="cls-4" d="M69.92,84.47h1.5c1,0,1.51.37,1.51,1.27s-.44,1.18-1.36,1.18h-.4v1H69.92ZM71.18,86h.19c.24,0,.37-.11.37-.29s-.13-.29-.37-.29h-.19Z"/></g></g></svg>