<svg xmlns="http://www.w3.org/2000/svg" viewBox="0 0 175.75 71.13"><defs><style>.cls-1{fill:#007ac2;}.cls-1,.cls-2{fill-rule:evenodd;}.cls-2{fill:#fff;}</style></defs><title>nhs</title><g id="Layer_2" data-name="Layer 2"><g id="Layer_1-2" data-name="Layer 1"><polygon class="cls-1" points="175.75 71.13 175.75 0 0 0 0 71.13 175.75 71.13 175.75 71.13"/><polygon class="cls-2" points="17.19 6.86 36.29 6.86 48.02 46.57 48.19 46.57 56.22 6.86 70.66 6.86 58.53 64.12 39.49 64.12 27.52 24.5 27.36 24.5 19.39 64.12 4.96 64.12 17.19 6.86 17.19 6.86"/><polygon class="cls-2" points="76.32 6.86 91.65 6.86 87.15 28.77 105.27 28.77 109.78 6.86 125.12 6.86 113.22 64.12 97.89 64.12 102.97 39.6 84.84 39.6 79.76 64.12 64.42 64.12 76.32 6.86 76.32 6.86"/><path class="cls-2" d="M165.47,19.83a28.84,28.84,0,0,0-12.63-2.62c-6.07,0-11,.89-11,5.49,0,8.12,22.23,5.09,22.23,22.48,0,15.83-14.69,19.93-28,19.93a64,64,0,0,1-17.72-3L122,50.5c3,2,9.11,3.29,14.11,3.29,4.76,0,12.22-.91,12.22-6.81,0-9.19-22.23-5.75-22.23-21.9,0-14.77,13-19.2,25.51-19.2,7.06,0,13.7.75,17.56,2.55l-3.7,11.4Z"/></g></g></svg>