<svg xmlns="http://www.w3.org/2000/svg" viewBox="0 0 126.6 70"><defs><style>.cls-1{fill:#001c71;}</style></defs><title>obekan</title><g id="Layer_2" data-name="Layer 2"><g id="Layer_1-2" data-name="Layer 1"><path class="cls-1" d="M119.77,30.15h-5L121.47,0h5.13Zm-95-24a12.7,12.7,0,0,0-2.52.16c-.41,1.47-.82,3-1.22,4.4a12.27,12.27,0,0,1,5.4.19l.14.06.82-4.46A11.83,11.83,0,0,0,24.8,6.13Zm15.06,7.23L54,0h6L47.65,11.61l.29,0c3,.22,6.37,2.07,7.36,5.16,1.07,3.37-.18,6.9-2.34,9.45.18.29.65.31.71.32,3.3.36,6.73-.44,8.38-3.56l.19-.45L64.67,12h5.18l-2.23,10.3c-.14,1.19-.13,2.47.86,3.27a4.67,4.67,0,0,0,4.22.62,5.11,5.11,0,0,0,3.63-3.91C77.08,18.85,78.76,12,78.76,12h5s-1.53,6.79-2.21,10.17c-.2,1.17-.28,2.69.77,3.43,1.84,1.41,4.61.91,6.42-.12a11,11,0,0,0,2.64-2.29l.14-.36h-7a3.77,3.77,0,0,1,0-1.7c1-4.37,5.36-8.08,9.53-9.25,4-1.08,8.63-.68,11.49,2.52a7.47,7.47,0,0,1,1.67,6.46,5.51,5.51,0,0,1-.68,2H98.54c.13.93,1.07,1.77,1.73,2.46a5.61,5.61,0,0,0,5.3,1c2.38-.5,3.55-3,4-5.14L114.1,0h5.29l-6.68,30.15H107.9s.11-.75.17-1.38c-2.52,1.78-6.55,2.42-9.4.95a9.49,9.49,0,0,1-3.86-4.18c-3.6,3.83-8.41,6.8-13.92,5.05a8.43,8.43,0,0,1-4.51-2.91c-.86.61-1.57,1.18-2.4,1.66a9.72,9.72,0,0,1-8.8.35,9.74,9.74,0,0,1-2.91-2.53l-.13.14c-3.23,2.93-7.69,4.55-12.1,3.15l-1.76-.73c-3.54,1.38-8.55,1.87-11.57-1l-.37-.39-.44,1.79H30.82l.8-3.34-.65.47a20.85,20.85,0,0,1-9,3.67,23.15,23.15,0,0,1,2.63.87,13.91,13.91,0,0,1,5,3.69c.12-.45,1-4.25,1-4.25h5.1l-1.78,7.62a13,13,0,0,1,1.75-1c3.3-1.52,8.14-1.87,11.17.44a7.45,7.45,0,0,1,3.06,5.1v.16a14.87,14.87,0,0,1,15.19-6.74c2.72.6,5.58,2.63,6.41,5.43.09.3.18.61.28.93.54-1.95,1.45-5.91,1.45-5.91h5l-1.67,8.13c2.94-2.5,8.6-8.13,8.6-8.13h6l-9.73,9c1.3,1.76,2.71,3.75,4.09,5.38a11.9,11.9,0,0,1-.44-3.43c0-4.18,3-8,6.71-9.91,3.21-1.79,8.34-2.53,11.47,0a12.68,12.68,0,0,1,1.26,1.16l.56-2.15H110a11.59,11.59,0,0,0-.27,1.29A15.26,15.26,0,0,1,113.25,37a8.64,8.64,0,0,1,8.65,2.19c2.35,3.18.18,7.08-.21,10.39l-1.42,6h-5.21s1.55-6.88,2.2-10.34a5,5,0,0,0-.29-2.81A3.77,3.77,0,0,0,113.25,41c-1.76.17-3.82,1.41-4.24,2.91C108,48,106.12,55.58,106.12,55.58h-5.06l.74-2.3c-3.17,2.44-7.63,3.81-11.7,2.44a12.08,12.08,0,0,1-2.4-1.23c.24.48.42.76.59,1.1H81.52C79.69,53,78,50.08,76.16,47.44l-1.88,8.14-5.1,0,1.57-7.32H54a4.36,4.36,0,0,0,2.2,2.94c2.55,1.23,5.86.48,8.08-1h5.59a5.17,5.17,0,0,1-1.48,1.83c-3.91,3.47-9.68,5.2-14.78,3.12a7.89,7.89,0,0,1-4.77-5.87l0-.25a13.69,13.69,0,0,1-13.46,7,6.91,6.91,0,0,1-4.9-2.65l-.48,2.17H25l1-4.16-.5.42a20.29,20.29,0,0,1-10.62,4.34c-5.34.52-10.73-1.13-13.28-6.09-2-4-.53-8.75,2-12.05a20.33,20.33,0,0,1,12.5-7.2l-.37-.11a11.68,11.68,0,0,1-8.43-6.25c-1.92-4.16-.19-8.77,2.58-12a18.09,18.09,0,0,1,9-5.6c-.55,1.71-1.07,3.44-1.74,5.09-3.15,2.06-5.57,5.31-5,9.15a6.89,6.89,0,0,0,4.38,5,12.36,12.36,0,0,0,12.16-2.56c2.43-2.17,3.71-5.08,2.91-8.26a7.25,7.25,0,0,0-2-3.06l1.09-5a12.54,12.54,0,0,1,4.55,3.2l.21.29L37.8,0H43S39.83,13.3,39.86,13.36ZM42,16.48c-1.91.79-3.92,2.57-4.26,4.69a4.56,4.56,0,0,0,1,3.81c1.78,1.87,4.91,1.93,7.24,1.1a7,7,0,0,0,4.46-4.9,4.57,4.57,0,0,0-.93-3.82C47.49,15.47,44.3,15.59,42,16.48ZM23.35,37c-3.16-2.72-8.4-2-11.76-.19-3.42,2.09-6.19,5.67-5.35,9.84A7,7,0,0,0,11,51.44a12.42,12.42,0,0,0,12.15-3.57c2.22-2.23,3.27-5.67,2.08-8.53A6.4,6.4,0,0,0,23.35,37Zm40.83,4.44a8,8,0,0,0-8.55,1.93c-.21.3-.66.63-.56,1H66.6c.05-.24-.13-.51-.19-.72A4.31,4.31,0,0,0,64.18,41.41ZM99.89,16.13a8.33,8.33,0,0,0-8.19,1.45c-.39.39-1.06.92-1.08,1.48h11.61a2.29,2.29,0,0,0-.32-1.07A4.57,4.57,0,0,0,99.89,16.13Zm-.4,25A8.21,8.21,0,0,0,92,43.61a5.62,5.62,0,0,0-1.32,5.57,4.61,4.61,0,0,0,3.07,2.54,7.9,7.9,0,0,0,8.3-3c1-1.51,1.57-3.87.52-5.56A4.4,4.4,0,0,0,99.49,41.12Zm-63.32.54c-1.9.79-3.91,2.57-4.25,4.69a4.49,4.49,0,0,0,1,3.81c1.78,1.87,4.91,1.93,7.23,1.1a7,7,0,0,0,4.47-4.9,4.6,4.6,0,0,0-.93-3.82C41.72,40.65,38.53,40.77,36.17,41.66Z"/><polygon class="cls-1" points="61.35 31.18 60.61 35.11 55.51 35.11 56.26 31.18 61.35 31.18"/><polygon class="cls-1" points="67.7 31.18 66.96 35.11 61.86 35.11 62.61 31.18 67.7 31.18"/><polygon class="cls-1" points="79.59 31.18 78.85 35.11 73.75 35.11 74.5 31.18 79.59 31.18"/><path class="cls-1" d="M2.83,61.78,1.44,68.34H0l1.38-6.56Z"/><path class="cls-1" d="M7.82,63.59l-.14.66h0a2,2,0,0,1,1.66-.79c.92,0,1.39.43,1.39,1.28a1.76,1.76,0,0,1,0,.19c0,.07,0,.15,0,.23s0,.15,0,.22a.75.75,0,0,0,0,.17L10,68.34H8.72l.57-2.79c0-.07,0-.17.06-.29a1.91,1.91,0,0,0,0-.28.41.41,0,0,0-.2-.35.67.67,0,0,0-.43-.14,1.24,1.24,0,0,0-.52.11,1.4,1.4,0,0,0-.38.3,1.73,1.73,0,0,0-.27.43,2.7,2.7,0,0,0-.16.48l-.53,2.53H5.59l1-4.75Z"/><path class="cls-1" d="M15.15,68.34l-.62-4.75h1.34L16.16,67h0l1.68-3.38h1.38l-2.6,4.75Z"/><path class="cls-1" d="M23.31,66.36v.2a.9.9,0,0,0,.26.67,1.07,1.07,0,0,0,.79.25.9.9,0,0,0,.34-.06,1.17,1.17,0,0,0,.27-.15,1.34,1.34,0,0,0,.2-.21l.16-.23h1.3a3.14,3.14,0,0,1-.36.71,2.06,2.06,0,0,1-.51.51,2,2,0,0,1-.68.31,4,4,0,0,1-.91.1,2.94,2.94,0,0,1-.87-.13,1.81,1.81,0,0,1-.66-.39,1.85,1.85,0,0,1-.43-.65,2.5,2.5,0,0,1-.15-.9,3.43,3.43,0,0,1,.18-1.1,3.24,3.24,0,0,1,.52-.93,2.55,2.55,0,0,1,.83-.66,2.39,2.39,0,0,1,1.09-.24,2.84,2.84,0,0,1,.9.13,1.77,1.77,0,0,1,.7.39,1.8,1.8,0,0,1,.45.65,2.31,2.31,0,0,1,.16.91,3.93,3.93,0,0,1-.07.74h-3.5A.25.25,0,0,0,23.31,66.36Zm2.29-1.27a.93.93,0,0,0-.12-.33.69.69,0,0,0-.27-.23,1,1,0,0,0-.46-.09,1.3,1.3,0,0,0-.49.09,1,1,0,0,0-.36.22,1.14,1.14,0,0,0-.26.32,1.88,1.88,0,0,0-.18.38h2.17A2.19,2.19,0,0,0,25.6,65.09Z"/><path class="cls-1" d="M33.24,64.5a.77.77,0,0,0-.55-.17,1.36,1.36,0,0,0-.58.11.36.36,0,0,0-.22.36.34.34,0,0,0,.13.27,1.54,1.54,0,0,0,.46.21l.66.21c.17.06.34.12.49.19A1.62,1.62,0,0,1,34,66a.94.94,0,0,1,.27.38,1.29,1.29,0,0,1,.1.51,1.4,1.4,0,0,1-.2.75,1.66,1.66,0,0,1-.52.5,2.12,2.12,0,0,1-.73.27,3.72,3.72,0,0,1-.81.09,3.43,3.43,0,0,1-.71-.08,2.19,2.19,0,0,1-.65-.24,1.35,1.35,0,0,1-.47-.45,1.28,1.28,0,0,1-.18-.7V66.8h1.2V67a.55.55,0,0,0,.08.29.82.82,0,0,0,.22.19,1,1,0,0,0,.3.12,1.29,1.29,0,0,0,.33,0l.3,0a.79.79,0,0,0,.27-.1A.77.77,0,0,0,33,67.3a.47.47,0,0,0,.07-.28.39.39,0,0,0-.13-.34,1.08,1.08,0,0,0-.34-.18l-1-.32a2.93,2.93,0,0,1-.43-.18,1.12,1.12,0,0,1-.33-.22,1.27,1.27,0,0,1-.2-.34,1.5,1.5,0,0,1-.07-.47,1.24,1.24,0,0,1,.2-.71,1.65,1.65,0,0,1,.51-.47,2.64,2.64,0,0,1,.68-.25,3.69,3.69,0,0,1,.72-.08,3.64,3.64,0,0,1,.74.07,1.75,1.75,0,0,1,.63.23,1.27,1.27,0,0,1,.43.46,1.57,1.57,0,0,1,.14.76H33.42A.65.65,0,0,0,33.24,64.5Z"/><path class="cls-1" d="M41.39,63.59l-.2.87h-.93l-.48,2.36a.7.7,0,0,0,0,.14.28.28,0,0,0,0,.08.37.37,0,0,0,0,.2.38.38,0,0,0,.11.11l.14,0h.15a3.59,3.59,0,0,0,.47,0l-.22,1-.4,0h-.42a2.28,2.28,0,0,1-.45,0,1.34,1.34,0,0,1-.41-.15.71.71,0,0,1-.28-.29.94.94,0,0,1-.1-.47,1.65,1.65,0,0,1,0-.21,2,2,0,0,1,0-.24L39,64.46h-.85l.2-.87h.83l.3-1.44h1.3l-.29,1.44Z"/><path class="cls-1" d="M46.38,63.59l-.15.67h0a1.82,1.82,0,0,1,.72-.61,2.39,2.39,0,0,1,.94-.19,1.5,1.5,0,0,1,.76.19.87.87,0,0,1,.39.64,1.24,1.24,0,0,1,.31-.34,2,2,0,0,1,.39-.26,2.2,2.2,0,0,1,.45-.17,1.82,1.82,0,0,1,.46-.06,2,2,0,0,1,.54.07,1.42,1.42,0,0,1,.46.23,1,1,0,0,1,.32.37,1.12,1.12,0,0,1,.12.53,2.28,2.28,0,0,1,0,.45c0,.15-.07.29-.1.44l-.58,2.79H50.08l.63-3a2,2,0,0,0,0-.34.43.43,0,0,0-.16-.35.56.56,0,0,0-.41-.15.9.9,0,0,0-.46.12,1.38,1.38,0,0,0-.36.32,1.87,1.87,0,0,0-.25.41,2.37,2.37,0,0,0-.15.45l-.53,2.55H47.11l.62-3a1.37,1.37,0,0,0,0-.34.46.46,0,0,0-.16-.35.59.59,0,0,0-.41-.15.94.94,0,0,0-.47.12,1.52,1.52,0,0,0-.35.32,1.91,1.91,0,0,0-.26.41,3.26,3.26,0,0,0-.14.45l-.54,2.55H44.15l1-4.75Z"/><path class="cls-1" d="M56.87,66.36v.2a.9.9,0,0,0,.26.67,1.07,1.07,0,0,0,.79.25.9.9,0,0,0,.34-.06,1.17,1.17,0,0,0,.27-.15,1.34,1.34,0,0,0,.2-.21l.16-.23h1.3a3.14,3.14,0,0,1-.36.71,2.06,2.06,0,0,1-.51.51,2,2,0,0,1-.68.31,4,4,0,0,1-.91.1,3,3,0,0,1-.87-.13,1.81,1.81,0,0,1-.66-.39,1.85,1.85,0,0,1-.43-.65,2.5,2.5,0,0,1-.15-.9,3.43,3.43,0,0,1,.18-1.1,3.24,3.24,0,0,1,.52-.93,2.63,2.63,0,0,1,.82-.66,2.47,2.47,0,0,1,1.1-.24,2.84,2.84,0,0,1,.9.13,1.84,1.84,0,0,1,.7.39,1.8,1.8,0,0,1,.45.65,2.31,2.31,0,0,1,.16.91,3.93,3.93,0,0,1-.07.74h-3.5A.25.25,0,0,0,56.87,66.36Zm2.29-1.27a.93.93,0,0,0-.12-.33.69.69,0,0,0-.27-.23,1,1,0,0,0-.46-.09,1.3,1.3,0,0,0-.49.09,1,1,0,0,0-.36.22,1.14,1.14,0,0,0-.26.32,2.64,2.64,0,0,0-.18.38h2.17A2.19,2.19,0,0,0,59.16,65.09Z"/><path class="cls-1" d="M65.88,63.59l-.15.66h0a2,2,0,0,1,1.66-.79c.93,0,1.39.43,1.39,1.28a1.76,1.76,0,0,1,0,.19c0,.07,0,.15,0,.23s0,.15,0,.22a1.39,1.39,0,0,1,0,.17l-.59,2.79h-1.3l.58-2.79c0-.07,0-.17.05-.29a1.91,1.91,0,0,0,0-.28.41.41,0,0,0-.2-.35.66.66,0,0,0-.42-.14,1.21,1.21,0,0,0-.52.11,1.45,1.45,0,0,0-.39.3,1.7,1.7,0,0,0-.26.43,2.74,2.74,0,0,0-.17.48l-.53,2.53H63.65l1-4.75Z"/><path class="cls-1" d="M75.8,63.59l-.2.87h-.93l-.49,2.36,0,.14V67a.37.37,0,0,0,0,.2.35.35,0,0,0,.1.11l.14,0h.15a3.48,3.48,0,0,0,.47,0l-.22,1-.4,0H74a2.32,2.32,0,0,1-.46,0,1.28,1.28,0,0,1-.4-.15.74.74,0,0,1-.29-.29.84.84,0,0,1-.09-.47,1.55,1.55,0,0,1,0-.21c0-.08,0-.16,0-.24l.53-2.55h-.85l.2-.87h.84l.29-1.44h1.31l-.3,1.44Z"/><path class="cls-1" d="M89.06,67.67a1.94,1.94,0,0,1-.75.63,2.33,2.33,0,0,1-.9.18,3,3,0,0,1-2.16-.74,2.9,2.9,0,0,1-.75-2.15,4.68,4.68,0,0,1,.24-1.51,4.07,4.07,0,0,1,.72-1.27A3.29,3.29,0,0,1,86.58,62a3.37,3.37,0,0,1,1.5-.33,4.2,4.2,0,0,1,1.08.14,2.48,2.48,0,0,1,.88.42,2.11,2.11,0,0,1,.6.72A2.29,2.29,0,0,1,90.86,64H89.42a1.06,1.06,0,0,0-.38-.86,1.58,1.58,0,0,0-1-.25,1.76,1.76,0,0,0-1,.25,2,2,0,0,0-.67.65,2.74,2.74,0,0,0-.39.89,3.63,3.63,0,0,0-.13,1,2.75,2.75,0,0,0,.08.65,1.56,1.56,0,0,0,.27.53,1.2,1.2,0,0,0,.46.37,1.42,1.42,0,0,0,.68.14,2.17,2.17,0,0,0,.71-.1,1.58,1.58,0,0,0,.51-.29,1.78,1.78,0,0,0,.36-.45,3,3,0,0,0,.23-.57H87.73L88,64.79h2.78L90,68.34h-.91v-.67Z"/><path class="cls-1" d="M96.2,63.59l-.2.85,0,0a1.58,1.58,0,0,1,.67-.75,2,2,0,0,1,1-.25,2.69,2.69,0,0,1,.4,0l-.27,1.27-.27-.06a1.27,1.27,0,0,0-.28,0,1.55,1.55,0,0,0-.64.13,1.36,1.36,0,0,0-.44.35,2,2,0,0,0-.28.5,3.66,3.66,0,0,0-.17.59l-.44,2.1H94l1-4.75Z"/><path class="cls-1" d="M100.71,65.27a3.12,3.12,0,0,1,.54-.94,2.46,2.46,0,0,1,.86-.63,2.64,2.64,0,0,1,1.14-.24,3.26,3.26,0,0,1,.9.12,2.06,2.06,0,0,1,.7.38,1.68,1.68,0,0,1,.45.62,2.21,2.21,0,0,1,.16.89,3.42,3.42,0,0,1-.19,1.17,2.54,2.54,0,0,1-.54,1,2.66,2.66,0,0,1-.87.64,2.86,2.86,0,0,1-1.16.23,2.37,2.37,0,0,1-1.59-.51,1.92,1.92,0,0,1-.59-1.53A3.34,3.34,0,0,1,100.71,65.27Zm1.18,1.55a1,1,0,0,0,.18.34.76.76,0,0,0,.29.24,1,1,0,0,0,.4.08,1,1,0,0,0,.63-.2,1.45,1.45,0,0,0,.43-.49,2.33,2.33,0,0,0,.26-.65,3.11,3.11,0,0,0,.08-.65,1.18,1.18,0,0,0-.22-.76.87.87,0,0,0-.74-.29,1,1,0,0,0-.62.2,1.66,1.66,0,0,0-.42.49,2.37,2.37,0,0,0-.25.64,2.56,2.56,0,0,0-.08.65A1.34,1.34,0,0,0,101.89,66.82Z"/><path class="cls-1" d="M112,68.34l.14-.66h0a2,2,0,0,1-1.66.78c-.92,0-1.39-.43-1.39-1.27a1.76,1.76,0,0,1,0-.19l0-.23c0-.08,0-.16,0-.23s0-.12,0-.17l.59-2.78h1.3l-.57,2.78a.47.47,0,0,0,0,.14s0,.1,0,.15a1.11,1.11,0,0,0,0,.17.57.57,0,0,0,0,.12.42.42,0,0,0,.2.35.76.76,0,0,0,.43.14,1.11,1.11,0,0,0,.52-.12,1,1,0,0,0,.38-.3,1.51,1.51,0,0,0,.27-.42,3,3,0,0,0,.16-.48l.53-2.53h1.31l-1,4.75Z"/><path class="cls-1" d="M119.47,63.59l-.13.59,0,0a1.37,1.37,0,0,1,.6-.57,2,2,0,0,1,.82-.17,1.7,1.7,0,0,1,1.33.51,1.88,1.88,0,0,1,.47,1.36,4.37,4.37,0,0,1-.15,1.15,3.2,3.2,0,0,1-.48,1,2.41,2.41,0,0,1-.81.71,2.29,2.29,0,0,1-1.14.27,2,2,0,0,1-.41,0,1.57,1.57,0,0,1-.38-.14,1.24,1.24,0,0,1-.32-.23,1,1,0,0,1-.22-.34h0l-.49,2.3h-1.3l1.36-6.41Zm.25,1a1.67,1.67,0,0,0-.45.5,2.12,2.12,0,0,0-.26.66,2.6,2.6,0,0,0-.09.65,1.09,1.09,0,0,0,.23.75.84.84,0,0,0,.7.28,1.06,1.06,0,0,0,.65-.19,1.6,1.6,0,0,0,.44-.49,2.6,2.6,0,0,0,.26-.64,3.13,3.13,0,0,0,.08-.66,1.29,1.29,0,0,0-.06-.4.92.92,0,0,0-.18-.34.84.84,0,0,0-.69-.32A1,1,0,0,0,119.72,64.64Z"/><path class="cls-1" d="M74.55,7.22a3.22,3.22,0,0,1-1.9,2.49l-.05-.37a2.37,2.37,0,0,0,1.27-1.82l.54-2.37.17-1.27.8-.25Z"/><path class="cls-1" d="M76.63,7.62h-.48c-.56,0-.78-.53-.58-1.41L76.31,3l.17-1.21.78-.25L76.23,6c-.12.52,0,.77.27.77h.33Z"/><path class="cls-1" d="M80.47,7.62H80a.56.56,0,0,1-.52-.29,1.75,1.75,0,0,1-1.28.82c-.34,0-.55-.24-.63-.7a.86.86,0,0,1-.5.17h-.64l.2-.85h.47c.28,0,.47-.21.57-.62C78,4.8,78.81,4,79.74,4a1.79,1.79,0,0,1,.85.22l-.3,1-.2.85c-.12.5,0,.75.28.75h.3ZM79.27,7l.4-1.73.07-.53a.52.52,0,0,0-.28-.06c-.51,0-.89.49-1.11,1.48-.19.79-.08,1.26.22,1.26A1,1,0,0,0,79.27,7Z"/><path class="cls-1" d="M82.7,7.62h-.46a.57.57,0,0,1-.54-.28,1,1,0,0,1-.66.28h-.73l.19-.85h.58c.3,0,.5-.25.62-.75l.21-.91.16-1.23.79-.25L82.31,6q-.18.75.27.75h.31Zm-.33-5.51c-.07.32-.3.57-.51.57s-.32-.24-.24-.57.31-.57.5-.57S82.45,1.78,82.37,2.11ZM83.2.65c-.07.3-.29.57-.5.57S82.37,1,82.45.65s.3-.58.51-.58S83.27.32,83.2.65Zm.15,1.46c-.07.32-.29.57-.5.57s-.32-.24-.24-.57.3-.57.5-.57S83.43,1.78,83.35,2.11Z"/><path class="cls-1" d="M84.92,7.62h-.47a.58.58,0,0,1-.54-.28,1,1,0,0,1-.65.28h-.73l.19-.85h.57q.45,0,.63-.75l.21-.91.15-1.23.79-.25L84.52,6c-.12.5,0,.75.27.75h.32Zm-.34-5.51c-.07.32-.29.57-.51.57s-.31-.24-.23-.57.29-.57.49-.57S84.65,1.78,84.58,2.11Zm1,0c-.07.32-.29.57-.5.57s-.32-.24-.24-.57.3-.57.5-.57S85.64,1.78,85.56,2.11Z"/><path class="cls-1" d="M89.86,6.25c-.19.83-.67,1.37-1.21,1.37a.74.74,0,0,1-.71-.54,1.06,1.06,0,0,1-.87.54.77.77,0,0,1-.71-.57,1.06,1.06,0,0,1-.16.21,1,1,0,0,1-.74.36h-.72l.2-.85h.56c.3,0,.51-.25.62-.75l.43-1.82L87.21,4l-.55,2.36,0,.1a.49.49,0,0,0,.47.33c.29,0,.5-.25.61-.75l.42-1.83L88.79,4l-.56,2.44a.48.48,0,0,0,.45.35c.29,0,.5-.25.61-.75l.21-.92.18-1.23.78-.25Z"/><path class="cls-1" d="M93.65,7.62h-.41a.64.64,0,0,1-.57-.28.87.87,0,0,1-.63.28H90.29l.46-.85H92l-.45-3-.35-1.1h.82l.55,3.75.77-3.37.15-1.27.82-.25-1,4.27c-.15.64-.07,1,.23,1h.26Z"/><path class="cls-1" d="M95.87,6.21c-.2.88-.67,1.41-1.24,1.41H93.48l.19-.85h1c.3,0,.51-.25.63-.77L96,3l.18-1.24L97,1.48Z"/></g></g></svg>