<svg xmlns="http://www.w3.org/2000/svg" viewBox="0 0 157.11 48.44"><defs><style>.cls-1,.cls-2{fill-rule:evenodd;}.cls-2{fill:#7ebe46;}</style></defs><title>porvair</title><g id="Layer_2" data-name="Layer 2"><g id="Layer_1-2" data-name="Layer 1"><path class="cls-1" d="M137.78,2.58a2.61,2.61,0,0,1-2.58,2.59,2.64,2.64,0,0,1-2.7-2.59A2.71,2.71,0,0,1,135.2,0a2.61,2.61,0,0,1,2.58,2.58Z"/><path class="cls-1" d="M30.79,21A13.27,13.27,0,1,1,44.05,34.28,13.25,13.25,0,0,1,30.79,21Zm4.27,0a9,9,0,1,0,18,0c0-5.17-3.7-9.33-9-9.33s-9,4.16-9,9.33Z"/><path class="cls-2" d="M36,21a8.38,8.38,0,0,0,2.36,6.06,7.61,7.61,0,0,0,5.73,2.36,8,8,0,0,0,5.74-2.36A8.38,8.38,0,0,0,52.15,21a8.14,8.14,0,0,0-2.48-6.19,8,8,0,0,0-5.62-2.36C39.45,12.47,36,16.18,36,21Z"/><path class="cls-1" d="M54.51,48.32a1,1,0,0,1-1.13-.89,2.51,2.51,0,0,1-1.91.89A1.37,1.37,0,0,1,50.12,47c0-1.13,1.13-1.91,3.26-2.36v-.34c0-.68-.22-.9-.79-.9a3.26,3.26,0,0,0-1.79.79l-.45-.79c.22-.23.33-.23.56-.45a3.7,3.7,0,0,1,2-.56,1.47,1.47,0,0,1,1.35.67c.23.23.23.56.23,1.35v2.47a.67.67,0,0,0,.11.45c0,.12.11.12.34.12h.22l.22.67a1.51,1.51,0,0,1-.89.22ZM53.38,45.4c-1.46.34-2,.79-2,1.35a.52.52,0,0,0,.56.56,2.32,2.32,0,0,0,1.46-.78V45.4Z"/><path class="cls-1" d="M60.24,48.21v-.9c-.12.12-.23.23-.23.34a3.17,3.17,0,0,1-1.91.79c-1.23,0-2.25-1.24-2.25-2.93,0-1.91,1.13-3.14,2.59-3.14a2,2,0,0,1,1.8.9V39.56h1.12v8.65Zm0-3.71a1.9,1.9,0,0,0-1.69-1.12c-.79,0-1.46.79-1.46,2s.67,1.91,1.46,1.91a2,2,0,0,0,1.69-1V44.5Z"/><polygon class="cls-1" points="65.86 48.21 64.62 48.21 62.37 42.48 63.61 42.48 65.3 46.86 66.98 42.48 68.22 42.48 65.86 48.21 65.86 48.21"/><path class="cls-1" d="M72.94,48.32a.92.92,0,0,1-1-.89,2.51,2.51,0,0,1-1.91.89A1.29,1.29,0,0,1,68.67,47c0-1.13,1-1.91,3.14-2.36v-.34c0-.68-.22-.9-.67-.9a3,3,0,0,0-1.8.79l-.56-.79a3.11,3.11,0,0,1,.67-.45,3.71,3.71,0,0,1,2-.56,1.58,1.58,0,0,1,1.34.67,2.74,2.74,0,0,1,.23,1.35v2.92a.39.39,0,0,0,.34.12h.33l.12.67a1.39,1.39,0,0,1-.9.22ZM71.81,45.4c-1.35.34-2,.79-2,1.35a.52.52,0,0,0,.56.56,1.92,1.92,0,0,0,1.46-.78V45.4Z"/><path class="cls-1" d="M78.44,48.21v-4a.76.76,0,0,0-.78-.79,3.06,3.06,0,0,0-1.69,1v3.82H74.73V42.48h1.13v.9a3.39,3.39,0,0,1,2.25-1,1.29,1.29,0,0,1,1.12.45c.34.33.45.78.45,1.68v3.71Z"/><path class="cls-1" d="M83.5,48.44c-1.46,0-2.58-1.24-2.58-3a2.86,2.86,0,0,1,2.92-3,3.56,3.56,0,0,1,1.8.45l-.34.78a4,4,0,0,0-1.46-.33c-.9,0-1.58.9-1.58,2.13s.57,1.91,1.58,1.91a2.65,2.65,0,0,0,1.57-.56l.45.68a3.45,3.45,0,0,1-2.36,1Z"/><path class="cls-1" d="M89.12,48.44a2.71,2.71,0,0,1-2.59-2.93,2.89,2.89,0,0,1,2.93-3.14c1.46,0,2.24,1,2.24,2.81v.22H87.88c0,1.35.56,2,1.46,2a2.6,2.6,0,0,0,1.13-.34,2.85,2.85,0,0,0,.78-.45l.57.67a4.38,4.38,0,0,1-2.7,1.13Zm.22-5.29a1.5,1.5,0,0,0-1.46,1.47h2.7c-.11-.9-.56-1.47-1.24-1.47Z"/><path class="cls-1" d="M97.1,48.21v-.9l-.34.34a2.65,2.65,0,0,1-1.8.79c-1.35,0-2.24-1.24-2.24-2.93,0-1.91,1-3.14,2.47-3.14a1.93,1.93,0,0,1,1.8.9V39.56h1.23v8.65ZM97,44.5a1.91,1.91,0,0,0-1.69-1.12c-.79,0-1.35.79-1.35,2s.56,1.91,1.35,1.91a2,2,0,0,0,1.69-1V44.5Z"/><path class="cls-1" d="M109.57,48.21V43.94a.7.7,0,0,0-.67-.56,1.2,1.2,0,0,0-.79.34,2.34,2.34,0,0,0-.78.67v3.82H106.2V44.84c0-.45,0-.67-.11-.79,0-.45-.23-.67-.56-.67a3.06,3.06,0,0,0-1.69,1v3.82h-1.12V42.48h1.12v.9a2.94,2.94,0,0,1,2-1,1.32,1.32,0,0,1,1.35,1,2.67,2.67,0,0,1,2-1,1.36,1.36,0,0,1,1,.34,1.39,1.39,0,0,1,.45.89v4.61Z"/><path class="cls-1" d="M116.32,48.32a.92.92,0,0,1-1-.89,2.68,2.68,0,0,1-1.91.89A1.29,1.29,0,0,1,112.05,47c0-1.13,1-1.91,3.14-2.36v-.34c0-.68-.22-.9-.78-.9a3.25,3.25,0,0,0-1.8.79l-.45-.79a3.11,3.11,0,0,1,.67-.45,3.61,3.61,0,0,1,1.91-.56,1.35,1.35,0,0,1,1.35.67c.23.23.23.56.23,1.35v2.47c0,.12.11.34.11.45a.39.39,0,0,0,.34.12h.33l.12.67a1.55,1.55,0,0,1-.9.22Zm-1.13-2.92c-1.35.34-2,.79-2,1.35a.52.52,0,0,0,.56.56,2.1,2.1,0,0,0,1.46-.78V45.4Z"/><path class="cls-1" d="M120,48.32a3.38,3.38,0,0,1-1.12-.22c-.11-.23-.34-.34-.34-.56s-.11-.34-.11-1V43.38h-1v-.9h1V40.79h1.12v1.69h1.58v.9h-1.58v3a4.9,4.9,0,0,0,.12.57c0,.33.33.45.78.45a1.59,1.59,0,0,0,.68-.12v.9a4.78,4.78,0,0,1-1.13.11Z"/><path class="cls-1" d="M124.52,48.44a2.64,2.64,0,0,1-2.58-2.93c0-1.91,1.12-3.14,2.8-3.14,1.47,0,2.36,1,2.36,2.81v.22h-3.93c0,1.35.56,2,1.46,2a2,2,0,0,0,1.13-.34,3.13,3.13,0,0,0,.9-.45l.44.67a4.06,4.06,0,0,1-2.58,1.13Zm.11-5.29c-.67,0-1.23.57-1.46,1.47h2.7c0-.9-.45-1.47-1.24-1.47Z"/><path class="cls-1" d="M131.49,43.6c-.23-.11-.23-.11-.34-.11-.56,0-1.12.68-1.57,1.58v3.14h-1.24V42.48h1.24V43.6a2,2,0,0,1,1.68-1.23,1.21,1.21,0,0,1,.56.11l-.33,1.12Z"/><path class="cls-1" d="M133.29,41.36a.73.73,0,0,1-.68-.68.75.75,0,0,1,.68-.78c.45,0,.67.33.67.78a.65.65,0,0,1-.67.68Zm-.57,1.12h1.13v5.73h-1.13V42.48Z"/><path class="cls-1" d="M139.47,48.32a1,1,0,0,1-1-.89,2.54,2.54,0,0,1-1.91.89A1.29,1.29,0,0,1,135.2,47c0-1.13,1.12-1.91,3.14-2.36v-.34c0-.68-.11-.9-.67-.9a3.28,3.28,0,0,0-1.8.79l-.45-.79a2.44,2.44,0,0,1,.56-.45,3.71,3.71,0,0,1,2-.56,1.45,1.45,0,0,1,1.34.67,2.74,2.74,0,0,1,.23,1.35v2.92c.11.12.22.12.45.12h.22l.12.67a1.39,1.39,0,0,1-.9.22Zm-1.13-2.92c-1.35.34-1.91.79-1.91,1.35a.51.51,0,0,0,.45.56,1.92,1.92,0,0,0,1.46-.78V45.4Z"/><polygon class="cls-1" points="141.38 39.56 142.61 39.56 142.61 48.21 141.38 48.21 141.38 39.56 141.38 39.56"/><path class="cls-1" d="M145.31,48.32a3.89,3.89,0,0,1-1.57-.22l.22-.79a4.75,4.75,0,0,0,1.24.12c.9,0,1.57-.34,1.57-.79s-.34-.56-1-.9A5.12,5.12,0,0,1,144.3,45a1.25,1.25,0,0,1-.34-.9c0-1,.9-1.68,2.36-1.68a7.58,7.58,0,0,1,1.46.11l-.22.9a5.17,5.17,0,0,0-1.24-.11c-.67,0-1.12.22-1.12.56s.34.56,1,.9c1.24.45,1.8,1,1.8,1.8,0,1.12-1,1.79-2.7,1.79Z"/><path class="cls-1" d="M14.72,7.64a13,13,0,0,0-9.21,3.82,4.69,4.69,0,0,0-3.6-4L0,11.46c1.24,1,1.46,2.25,1.46,3.94V48.21H5.73V30.79a13.36,13.36,0,0,0,9,3.49,13.32,13.32,0,0,0,0-26.64Zm0,22.7a9,9,0,0,1-9-9.32c0-5.17,3.71-9.33,9-9.33s9,4.16,9,9.33a9,9,0,0,1-9,9.32Z"/><path class="cls-1" d="M126.32,26.63V8.43h-4.38v2.7a13.1,13.1,0,0,0-8.88-3.49A13.24,13.24,0,0,0,99.8,21a13.14,13.14,0,0,0,13.26,13.26,13.38,13.38,0,0,0,9.21-3.71,4.55,4.55,0,0,0,3.6,3.93l1.8-3.93c-1.24-1-1.35-2.36-1.35-3.94Zm-13.26,3.71c-5.4,0-9-4.27-9-9.32s3.59-9.33,9-9.33,8.88,4.16,8.88,9.33-3.6,9.32-8.88,9.32Z"/><path class="cls-1" d="M65,11.46V8.32H60.57V33.6H65V19.22c0-4.95,2.92-10.68,9.21-6V8.77c-5-2.59-7.64.22-9.21,2.69Z"/><path class="cls-1" d="M147.9,11.46V8.32h-4.39V33.6h4.39V19.22c0-4.95,2.92-10.68,9.21-6V8.77c-4.94-2.59-7.64.22-9.21,2.69Z"/><polygon class="cls-1" points="133.06 33.6 137.33 33.6 137.33 8.32 133.06 8.32 133.06 33.6 133.06 33.6"/><polygon class="cls-1" points="88.33 24.5 95.86 8.32 100.69 8.32 88.33 34.5 75.86 8.32 80.8 8.32 88.33 24.5 88.33 24.5"/></g></g></svg>