<svg xmlns="http://www.w3.org/2000/svg" viewBox="0 0 109.51 50"><defs><style>.cls-1{fill:#0073af;}.cls-2{fill:#040607;}</style></defs><title>senior-aerospace</title><g id="Layer_2" data-name="Layer 2"><g id="Layer_1-2" data-name="Layer 1"><path class="cls-1" d="M0,7.34A7.18,7.18,0,0,1,7,.27H17.84V5.53H7.16A1.82,1.82,0,0,0,5.34,7.34,1.63,1.63,0,0,0,6.88,9.06l5.62.9a7.13,7.13,0,0,1,5.89,7,7.1,7.1,0,0,1-7.07,6.88H.27V18.48h11A1.7,1.7,0,0,0,13,16.85,1.79,1.79,0,0,0,11.5,15l-5.7-.82A6.84,6.84,0,0,1,0,7.34Z"/><path class="cls-1" d="M24.37,9.87a6.55,6.55,0,0,1,6.24-4.62,6.78,6.78,0,0,1,6.25,4.62Zm18.2,2.18A12.05,12.05,0,1,0,39,20.56l-3.71-3.8a6.64,6.64,0,0,1-10.78-1.9H42.3c.09-.91.27-1.91.27-2.81Z"/><path class="cls-1" d="M53.8,5.25A4.74,4.74,0,0,0,49.09,10V23.82H43.66V10.14a10.15,10.15,0,0,1,20.29,0V23.82H58.51V10A4.74,4.74,0,0,0,53.8,5.25Z"/><path class="cls-1" d="M64.94.27h5.44V5.53H64.94V.27Zm0,6.07h5.44V23.82H64.94V6.34Z"/><path class="cls-1" d="M108.42,0h1.09V5.25h-1.09a6.83,6.83,0,0,0-6.61,6.89V23.82H96.47V12.05a12,12,0,0,1,12-12Z"/><path class="cls-2" d="M83.42,0a12,12,0,1,0,12,12.05,12.1,12.1,0,0,0-12-12Zm0,22.83A10.78,10.78,0,1,1,94.2,12.05,10.81,10.81,0,0,1,83.42,22.83Z"/><path class="cls-2" d="M83.42,2a10,10,0,1,0,0,20,10,10,0,0,0,0-20Zm0,18.84a8.79,8.79,0,1,1,8.79-8.78,8.79,8.79,0,0,1-8.79,8.78Z"/><path class="cls-1" d="M83.42,4.08a8,8,0,1,0,8,8,8,8,0,0,0-8-8Zm0,14.67a6.76,6.76,0,0,1-6.79-6.7,6.84,6.84,0,0,1,6.79-6.8,6.77,6.77,0,0,1,6.71,6.8,6.69,6.69,0,0,1-6.71,6.7Z"/><path class="cls-2" d="M4.26,40.4c.63-1.72,1.17-3.26,1.72-5.16H6c.63,1.9,1.18,3.44,1.72,5.16Zm1-7.7L0,45.47H2.26l1.27-3.53H8.06l1.18,3.53h2.9L7.34,32.7Z"/><path class="cls-2" d="M18.3,39.76a1.93,1.93,0,0,1,2-2.26c1.18,0,1.63.91,1.54,2.26Zm5.79,1.36c.18-2.71-1-5-3.8-5a4.35,4.35,0,0,0-4.62,4.53,4.61,4.61,0,0,0,4.8,5,7,7,0,0,0,3.53-1l-.63-1.27a5.22,5.22,0,0,1-2.45.72,2.79,2.79,0,0,1-2.71-3Z"/><path class="cls-2" d="M31.25,38h.09l.45-.72c.27-.36.82-1.09,1.54-1.09A2.16,2.16,0,0,1,35,37l-.9,1.63A2.21,2.21,0,0,0,33,38.31c-.91,0-1.72.64-1.72,2.63v4.53H28.89V36.32h2.36V38Z"/><path class="cls-2" d="M43.21,44.29c-1.82,0-2.27-1.9-2.27-3.53,0-1.45.55-3.26,2.27-3.26s2.17,1.81,2.17,3.26c0,1.63-.45,3.53-2.17,3.53Zm0,1.36A4.69,4.69,0,0,0,48,40.76a4.8,4.8,0,1,0-4.8,4.89Z"/><path class="cls-2" d="M57.61,38a2.93,2.93,0,0,0-1.54-.54c-.55,0-1.09.27-1.09.91s.82,1.17,1.9,1.9A3.31,3.31,0,0,1,58.51,43c0,1.26-1.36,2.62-3.35,2.62a5.46,5.46,0,0,1-3.08-1l.73-1.27a3.5,3.5,0,0,0,2,.81c.72,0,1.36-.36,1.36-1.08s-1-1.36-1.81-2a2.91,2.91,0,0,1-1.81-2.53c0-1.36,1.44-2.45,3.17-2.45a4.35,4.35,0,0,1,2.71.82L57.61,38Z"/><path class="cls-2" d="M67.93,37.59c1.36,0,2.09,1.54,2.09,3.08s-.55,3.53-2.18,3.53c-1.36,0-2.26-1.27-2.26-3.17,0-2.17.81-3.44,2.35-3.44Zm-2.35-1.27H63.13V50h2.45V44.29a3.6,3.6,0,0,0,2.72,1.36c2.62,0,4.25-2.53,4.25-5,0-2-1.18-4.53-4-4.53a3.63,3.63,0,0,0-2.9,1.45h-.09V36.32Z"/><path class="cls-2" d="M82.34,40.13c.18,2.71-1.09,3.89-2,3.89a1.24,1.24,0,0,1-1.17-1.36A2.18,2.18,0,0,1,81,40.58l1.36-.45Zm0,4a3.31,3.31,0,0,0,.18,1.36h2.62a4.84,4.84,0,0,1-.45-2.26V39.49c0-2.81-2-3.35-3.71-3.35a5,5,0,0,0-3.45,1.18l.73,1.18a3.48,3.48,0,0,1,2.45-.91A1.65,1.65,0,0,1,82.34,39l-2.18.63c-2.08.64-3.35,1.54-3.35,3.36a2.59,2.59,0,0,0,2.63,2.71,4.31,4.31,0,0,0,2.35-1.08l.55-.46Z"/><path class="cls-2" d="M96.92,44.93a5.16,5.16,0,0,1-2.54.72,4.73,4.73,0,0,1-5.07-4.71,4.81,4.81,0,0,1,5.16-4.8,4.65,4.65,0,0,1,2.36.63l-.55,1.36-.81-.27a2.55,2.55,0,0,0-.82-.09,2.76,2.76,0,0,0-2.81,3c0,1.9,1.09,3.26,2.81,3.26a3.56,3.56,0,0,0,1.81-.45l.46,1.36Z"/><path class="cls-2" d="M103.35,39.76a2,2,0,0,1,2-2.26c1.27,0,1.72.91,1.63,2.26Zm5.89,1.36c.18-2.71-1-5-3.81-5a4.43,4.43,0,0,0-4.71,4.53,4.66,4.66,0,0,0,4.8,5,7.38,7.38,0,0,0,3.63-1l-.73-1.27a4.88,4.88,0,0,1-2.44.72,2.73,2.73,0,0,1-2.63-3Z"/></g></g></svg>