<svg xmlns="http://www.w3.org/2000/svg" viewBox="0 0 161.57 14.44"><defs><style>.cls-1{fill:#121617;}.cls-2{fill:#d71635;}.cls-3{fill:#2d2a26;}</style></defs><title>terex-trucks</title><g id="Layer_2" data-name="Layer 2"><g id="Lager_1" data-name="Lager 1"><path class="cls-1" d="M.68,13.54V.91A.22.22,0,0,1,.9.68h15a.23.23,0,0,1,.23.23V13.54a.23.23,0,0,1-.23.23H.9a.23.23,0,0,1-.22-.23M.9,0A.91.91,0,0,0,0,.91V13.54a.9.9,0,0,0,.9.9h15a.9.9,0,0,0,.91-.9V.91A.91.91,0,0,0,15.87,0Z"/><path class="cls-2" d="M13.68,8.65H9.46a.52.52,0,0,1-.52-.52A.53.53,0,0,1,9,7.82l2.16-2.16a.43.43,0,0,1,.37-.16.51.51,0,0,1,.33.12L14.1,7.84a.52.52,0,0,1,.09.29.51.51,0,0,1-.51.52m-6.34,0H3.12a.52.52,0,0,1-.43-.81L4.9,5.62a.56.56,0,0,1,.34-.12.4.4,0,0,1,.36.16L7.76,7.82a.54.54,0,0,1,.1.3.52.52,0,0,1-.52.52M14.69,2,11.91,4.72h0a.46.46,0,0,1-.36.16.44.44,0,0,1-.34-.17L8.39,1.9,5.58,4.72a.46.46,0,0,1-.71,0L2.09,2l0,0V12.59H14.71V1.93Z"/><polygon class="cls-1" points="25.52 12.58 25.52 4.18 21.27 4.18 21.27 1.93 32.65 1.93 32.65 4.18 28.64 4.18 28.64 12.58 25.52 12.58"/><polygon class="cls-1" points="34.09 12.58 34.09 1.93 44.34 1.93 44.34 4.26 36.81 4.26 36.81 6.28 44.18 6.28 44.18 8.38 36.81 8.38 36.81 10.48 44.34 10.48 44.34 12.58 34.09 12.58"/><polygon class="cls-1" points="59.8 12.58 59.8 1.93 70.06 1.93 70.06 4.26 62.52 4.26 62.52 6.28 69.89 6.28 69.89 8.38 62.52 8.38 62.52 10.48 70.06 10.48 70.06 12.58 59.8 12.58"/><polygon class="cls-1" points="84.45 12.6 79.49 6.98 83.95 1.93 80.23 1.93 77.62 4.87 75.02 1.93 71.3 1.93 75.74 6.98 70.77 12.58 74.54 12.58 77.61 9.1 80.69 12.6 84.45 12.6"/><path class="cls-1" d="M46.34,1.93V12.58h2.81v-4h2.76l3.08,4h3.37s-3.09-4.08-3-4c3.45.08,4.74-6.61-1.12-6.61ZM49.17,4.1h5a1.1,1.1,0,1,1,.06,2.18h-5Z"/><path class="cls-1" d="M86.28,12.42A1.38,1.38,0,1,1,87.63,11a1.36,1.36,0,0,1-1.35,1.38M84.64,11A1.64,1.64,0,1,0,86.28,9.4,1.63,1.63,0,0,0,84.64,11m1.28-.1v-.58h.39c.21,0,.42,0,.42.28s-.23.3-.5.3ZM85.62,12h.3v-.8h.31l.53.8h.29l-.55-.83a.51.51,0,0,0,.52-.53c0-.38-.23-.56-.65-.56h-.75Z"/><path class="cls-3" d="M99.24,3.28h-4V1.9h9.68V3.28h-4V12.6H99.24Z"/><path class="cls-3" d="M106.1,1.9h6.63a2.69,2.69,0,0,1,2.93,2.84,2.55,2.55,0,0,1-1.8,2.64v0c.94.14,1.5,1,1.56,2.28.09,2,.15,2.49.51,2.91h-1.68c-.26-.3-.26-.75-.33-2-.11-1.92-.75-2.5-2.07-2.5h-4.16V12.6H106.1Zm6,4.78c1.56,0,1.94-.95,1.94-1.7,0-1-.62-1.7-1.89-1.7h-4.49v3.4Z"/><path class="cls-3" d="M117.4,1.9H119V8.75c0,1.93,1.29,2.74,3.25,2.74s3.25-.81,3.25-2.74V1.9h1.59V8.55c0,2.87-1.59,4.32-4.84,4.32s-4.84-1.45-4.84-4.32Z"/><path class="cls-3" d="M138.17,5.75C137.93,4.26,136.76,3,134.51,3c-2.54,0-4.14,1.45-4.14,4.37a3.79,3.79,0,0,0,4,4.11,3.51,3.51,0,0,0,3.75-3h1.59a5.07,5.07,0,0,1-5.36,4.36c-2.7,0-5.62-1.48-5.62-5.65a5.26,5.26,0,0,1,5.61-5.59c2.14,0,5.1.91,5.37,4.12Z"/><path class="cls-3" d="M145.18,7.38l-1.94,1.73V12.6h-1.59V1.9h1.59V7.28l6-5.38h2.25l-5.09,4.43,5.37,6.27h-2.19Z"/><path class="cls-3" d="M153.64,9.08c0,1.92,1.83,2.41,3.45,2.41s2.9-.64,2.9-1.81c0-1-.77-1.38-2-1.59l-2.43-.41c-1.27-.21-3.18-.72-3.18-2.8s1.55-3.25,4.29-3.25c2.15,0,4.41.78,4.56,3.35h-1.59c-.13-.83-.61-2-3.18-2C155.29,3,154,3.5,154,4.76c0,.66.44,1.18,1.76,1.41l2.62.45c.84.15,3.22.55,3.22,2.74,0,2.73-2.44,3.51-4.6,3.51-2.41,0-4.92-.84-4.92-3.79Z"/><rect class="cls-3" x="89.85" width="0.68" height="14.44"/></g></g></svg>