<svg xmlns="http://www.w3.org/2000/svg" xmlns:xlink="http://www.w3.org/1999/xlink" viewBox="0 0 264 38.55"><defs><style>.cls-1{fill:none;}.cls-2{clip-path:url(#clip-path);}.cls-3{fill:#253d8d;}.cls-4{clip-path:url(#clip-path-2);}</style><clipPath id="clip-path" transform="translate(0 -4.52)"><rect class="cls-1" x="0.02" width="263.98" height="47.52"/></clipPath><clipPath id="clip-path-2" transform="translate(0 -4.52)"><rect class="cls-1" width="264" height="47.52"/></clipPath></defs><title>utc-aerospace</title><g id="Layer_2" data-name="Layer 2"><g id="svg3573"><g id="layer1"><g id="g12"><g class="cls-2"><g id="g14"><g id="g20"><g id="g22"><path id="path24" class="cls-3" d="M26.24,41.67,25,37.15l.16-.06,2.45,4A15,15,0,0,0,31,38.92l-2.25-3.64.13-.11L32,38a15.66,15.66,0,0,0,2.77-3.18L31.88,32.2l.09-.14,3.58,1.62a15.12,15.12,0,0,0,1.83-4.1l-3.24-1.51,0-.16,3.55.42a16.91,16.91,0,0,0,.53-4.54H26.54a7.35,7.35,0,1,1-8.36-7.36L15.2,5a10.45,10.45,0,0,0-2,.54l3,10.75L16,16.3,10.5,6.61A11.37,11.37,0,0,0,8.55,7.76l5.42,9-.13.11L6.39,9.45A11.05,11.05,0,0,0,4.76,11.1L12,18l-.11.13-8.62-5A11.5,11.5,0,0,0,2,15.3l8.24,4.56-.06.16L1.08,17.48a12.76,12.76,0,0,0-.69,2.58L9,22.19l0,.17H.08c0,.43-.08,1-.08,1.41s.05.95.07,1.37l8.4-.07,0,.16L.34,27.29a13.92,13.92,0,0,0,.74,2.82L8.65,28l.07.16L1.85,32a15.86,15.86,0,0,0,1.51,2.65L9.59,31l.1.13L4.53,36.2a15.52,15.52,0,0,0,2.21,2.23l4.64-4.62.13.1L8.2,39.57A15.44,15.44,0,0,0,11,41.22L14,36l.16.07-1.55,5.77a15,15,0,0,0,3.27.88l1.45-5.34.16,0,0,5.53c.53,0,1.06.09,1.61.09s1.29-.06,1.92-.12V37.81l.17,0,1.39,4.93a15.3,15.3,0,0,0,3.6-1M20.18,4.56c-.31,0-.71,0-1,0s-.67,0-.95,0l.11,11.85a8.49,8.49,0,0,1,.88-.05,8.69,8.69,0,0,1,.89.05Zm.11,11.88a7.5,7.5,0,0,1,1.64.45l3.19-11.4A11.23,11.23,0,0,0,23.29,5Zm1.92.57a7.83,7.83,0,0,1,1.4.83L29.68,7.72a9.59,9.59,0,0,0-1.57-.94ZM33.5,11.07a11.29,11.29,0,0,0-1.17-1.23L24,18.12a7.38,7.38,0,0,1,1,1.07ZM25.4,19.8a7.34,7.34,0,0,1,.53,1l10.31-5.65a9.77,9.77,0,0,0-.67-1.23Zm1.05,2.79a6.29,6.29,0,0,0-.25-1.06l11.37-2.92a7.8,7.8,0,0,1,.29,1.25Z" transform="translate(0 -4.52)"/></g></g></g></g></g><g id="g26"><g id="g28"><path id="path30" class="cls-3" d="M96.21,31.64l-.52-3.06H92.82l-.44,3.06H88.69l3.09-15.72h5.29l2.84,15.72Zm-3-5.83h2.12l-1-7h0Z" transform="translate(0 -4.52)"/></g></g><g class="cls-4"><g id="g34"><g id="g40"><g id="g42"><path id="path44" class="cls-3" d="M115.17,19.9l0,1.51h0a2.5,2.5,0,0,1,2.56-1.85v3.78a5.87,5.87,0,0,0-1-.09c-.85,0-1.38.53-1.38,1.56v6.83h-3.62V19.9Z" transform="translate(0 -4.52)"/></g></g><g id="g46"><g id="g48"><path id="path50" class="cls-3" d="M156.87,25.94l-.84.38a1.82,1.82,0,0,0-1.1,2c0,.68.34,1.15.94,1.15.8,0,1-.67,1-1.18Zm.12,4.65A3.33,3.33,0,0,1,154.17,32c-1.87,0-2.86-1.18-2.86-3.05v-.76A3.52,3.52,0,0,1,154,24.9l1.23-.48c.89-.34,1.68-.63,1.68-1.57a.75.75,0,0,0-.85-.73.84.84,0,0,0-.87.87v.81h-3.64v-.57c0-2.32,2.11-3.67,4.21-3.67,3.52,0,4.81,1.83,4.81,4v5.7a8,8,0,0,0,.27,2.42h-3.71Z" transform="translate(0 -4.52)"/></g></g><g id="g52"><g id="g54"><path id="path56" class="cls-3" d="M192.34,26.14v1.6c0,.85.31,1.27,1.08,1.27s1.09-.55,1.09-1.32a2.79,2.79,0,0,0-1.73-2.42c-.37-.22-1.28-.76-1.61-1A5.48,5.48,0,0,1,188.38,20c0-2.9,1.88-4.48,5-4.48,3.57,0,5.12,1.91,5.12,4.6v.92h-4V19.84c0-.72-.26-1.3-1.09-1.3a1,1,0,0,0-1.08,1.08,1.93,1.93,0,0,0,1,1.74l2.33,1.4a5,5,0,0,1,2.82,4.56c0,3-1.69,4.7-5.24,4.7-3.11,0-4.89-1.73-4.89-4.61V26.14Z" transform="translate(0 -4.52)"/></g></g><g id="g58"><g id="g60"><path id="path62" class="cls-3" d="M205.31,27.67h0l1.17-7.77h3.38l-2.79,11.33c-.64,2.88-1.39,5.33-4.81,5.33a13.11,13.11,0,0,1-1.47-.11V33.7a3.67,3.67,0,0,0,.71.07,1.28,1.28,0,0,0,1.38-.93c0-.21.13-.73.13-.73L200,19.9h3.82Z" transform="translate(0 -4.52)"/></g></g><g id="g64"><g id="g66"><path id="path68" class="cls-3" d="M220.73,22.31V19.9H222V16.55h3.66V19.9h1.58v2.41H225.7v6.07a.83.83,0,0,0,.89.93,4.86,4.86,0,0,0,.69-.06V31.6a8.82,8.82,0,0,1-1.95.21c-2.52,0-3.29-1.29-3.29-3.15V22.31Z" transform="translate(0 -4.52)"/></g></g><g id="g70"><g id="g72"><path id="path74" class="cls-3" d="M247.43,21h.1a3.09,3.09,0,0,1,2.64-1.43,2.84,2.84,0,0,1,2.94,3.1v9h-3.66V23.43a.82.82,0,0,0-.8-.94.86.86,0,0,0-.83.9v8.25h-3.66V23.43a.81.81,0,0,0-.79-.94.86.86,0,0,0-.84.9v8.25H238.9V19.91h3.2l.08,1.05h.06a3.23,3.23,0,0,1,2.7-1.43A2.64,2.64,0,0,1,247.43,21" transform="translate(0 -4.52)"/></g></g><g id="g76"><g id="g78"><path id="path80" class="cls-3" d="M50,15.92h4V27.67c0,.78.21,1.34,1.08,1.34s1.09-.46,1.09-1.34V15.92h4V27.29C60.13,30,58.79,32,55,32c-3.1,0-5-1.5-5-4.73Z" transform="translate(0 -4.52)"/></g></g><g id="g82"><g id="g84"><path id="path86" class="cls-3" d="M82.91,21.87V20.26c0-2.66-1.33-4.72-5.08-4.72-3.11,0-5,1.49-5,4.72v7c0,3.23,1.94,4.73,5,4.73,3.75,0,5.08-2.06,5.08-4.73v-1.6h-4v2c0,.88-.31,1.34-1.08,1.34s-1.11-.56-1.09-1.34V19.89c0-.78.21-1.35,1.09-1.35s1.08.46,1.08,1.35v2Z" transform="translate(0 -4.52)"/></g></g><g id="g88"><g id="g90"><path id="path92" class="cls-3" d="M236.83,27.63v.42c0,2.37-1.38,4-4.29,4-2.69,0-4.34-1.37-4.34-4V23.6c0-2.67,1.65-4,4.34-4,3,0,4.31,1.62,4.31,4v3h-5.13v2.1a.81.81,0,0,0,.82.82.82.82,0,0,0,.81-.82V27.63Zm-3.48-3.38V22.89a.82.82,0,0,0-1.63,0v1.34Z" transform="translate(0 -4.52)"/></g></g><g id="g94"><g id="g96"><path id="path98" class="cls-3" d="M182.15,27.63v.42c0,2.37-1.37,4-4.29,4-2.69,0-4.34-1.37-4.34-4V23.6c0-2.67,1.65-4,4.34-4,3,0,4.31,1.62,4.31,4v3h-5.12v2.1a.8.8,0,0,0,.81.82.81.81,0,0,0,.81-.82V27.63Zm-3.48-3.38V22.89a.81.81,0,0,0-1.62,0v1.34Z" transform="translate(0 -4.52)"/></g></g><g id="g100"><g id="g102"><path id="path104" class="cls-3" d="M109.74,27.63v.42c0,2.37-1.38,4-4.3,4-2.69,0-4.33-1.37-4.33-4V23.6c0-2.67,1.64-4,4.33-4,3,0,4.32,1.62,4.32,4v3h-5.13v2.1a.8.8,0,0,0,.81.82.82.82,0,0,0,.82-.82V27.63Zm-3.48-3.38V22.89a.8.8,0,0,0-.82-.8.79.79,0,0,0-.81.82v1.34Z" transform="translate(0 -4.52)"/></g></g><g id="g106"><g id="g108"><path id="path110" class="cls-3" d="M62,15.92h9.5v3.15H68.72V31.64H64.57V19.07H62Z" transform="translate(0 -4.52)"/></g></g><g id="g112"><g id="g114"><path id="path116" class="cls-3" d="M171.66,27.15V28c0,2.41-1.58,4-4.54,4-2.69,0-4.54-1.37-4.54-4V23.6c0-2.67,1.85-4,4.54-4,3,0,4.54,1.62,4.54,4v.73h-3.77v-1.4a.78.78,0,1,0-1.56,0v5.75a.78.78,0,0,0,1.56,0V27.15Z" transform="translate(0 -4.52)"/></g></g><g id="g118"><g id="g120"><path id="path122" class="cls-3" d="M118.74,23.6c0-2.67,1.81-4,4.5-4,3,0,4.52,1.62,4.52,4V28c0,2.41-1.54,4-4.52,4-2.67,0-4.5-1.35-4.5-4Zm3.65,5.08a.83.83,0,0,0,.86.8.81.81,0,0,0,.85-.8V22.93a.81.81,0,0,0-.85-.82.82.82,0,0,0-.86.8Z" transform="translate(0 -4.52)"/></g></g><g id="g124"><g id="g126"><path id="path128" class="cls-3" d="M263.67,23.7h-3.42V23a1,1,0,0,0-1-1c-.64,0-.94.32-.94.78s.32.88,1.16,1.29l1.73.85c2.23,1.08,2.78,2,2.78,3.4,0,2.11-1.53,3.74-4.71,3.74s-4.55-1.55-4.55-4v-.44h3.46v.94a1,1,0,0,0,1.09,1.05,1,1,0,0,0,1-.94c0-.29,0-.78-1.36-1.42l-1.26-.62c-1.61-.79-2.72-1.49-2.72-3.54s1.55-3.53,4.36-3.53c3.21,0,4.36,1.8,4.36,3.82Z" transform="translate(0 -4.52)"/></g></g><g id="g130"><g id="g132"><path id="path134" class="cls-3" d="M219.84,23.7h-3.42V23a1,1,0,0,0-1-1c-.64,0-.94.32-.94.78s.32.88,1.16,1.29l1.73.85c2.23,1.08,2.78,2,2.78,3.4,0,2.11-1.53,3.74-4.71,3.74s-4.55-1.55-4.55-4v-.44h3.46v.94a1,1,0,0,0,1.09,1.05,1,1,0,0,0,1-.94c0-.29,0-.78-1.36-1.42l-1.26-.62c-1.61-.79-2.72-1.49-2.72-3.54s1.55-3.53,4.36-3.53c3.21,0,4.36,1.8,4.36,3.82Z" transform="translate(0 -4.52)"/></g></g><g id="g136"><g id="g138"><path id="path140" class="cls-3" d="M138.35,23.7h-3.42V23a1,1,0,0,0-1-1c-.63,0-.93.32-.93.78s.32.88,1.16,1.29l1.72.85c2.23,1.08,2.79,2,2.79,3.4,0,2.11-1.53,3.74-4.72,3.74-3,0-4.54-1.55-4.54-4v-.44h3.46v.94A1,1,0,0,0,134,29.62a1,1,0,0,0,1-.94c0-.29,0-.78-1.36-1.42l-1.27-.62c-1.6-.79-2.71-1.49-2.71-3.54s1.54-3.53,4.36-3.53c3.21,0,4.35,1.8,4.35,3.82Z" transform="translate(0 -4.52)"/></g></g><g id="g142"><g id="g144"><path id="path146" class="cls-3" d="M144.09,28.68a.86.86,0,0,0,1.71,0V22.93a.81.81,0,0,0-.86-.82.8.8,0,0,0-.85.79Zm-.27-8.78,0,1h0c.25-.41.61-1.31,2.56-1.31,2.19,0,3,1.51,3,3.24v5.9c0,1.69-.7,3.32-3.06,3.32a2.38,2.38,0,0,1-2.27-1h0V35.6h-3.65V19.9Z" transform="translate(0 -4.52)"/></g></g></g></g></g></g></g></svg>