<svg xmlns="http://www.w3.org/2000/svg" viewBox="0 0 114.53 70"><defs><style>.cls-1{fill:#ed1c24;}.cls-2{fill:#221e1f;}</style></defs><title>whyte-and-mackay</title><g id="Layer_2" data-name="Layer 2"><g id="Layer_1-2" data-name="Layer 1"><path class="cls-1" d="M88.46,11.05c0,.22,0,.47,0,.71A11.53,11.53,0,0,1,88.25,14l.1,0h.08a11.25,11.25,0,0,0,.25-2.26,3.61,3.61,0,0,0-1.45-3.29,3.67,3.67,0,0,1,1.23,2.58"/><path class="cls-1" d="M88.54,14.84l-2.78-.39,0,.19,3,.41.1-.69-.19,0-.06.51"/><path class="cls-1" d="M2.81,19l.38-.28-.41-.6-.14.12c.11.18.25.37.29.44l-.23.15a.35.35,0,0,0-.14.19v0l7.16,8.29-.34-.68L2.76,19s0,0,.05,0"/><path class="cls-1" d="M7,15.74l-.23.16c-.12.07-.15.15-.15.19v.05L14,24.3l-.34-.65L6.83,16.09l0,0,.39-.27-.4-.58-.16.1.3.43"/><path class="cls-1" d="M8.65,14.66l.12.16L9,14.66c-.05-.11-.17-.11-.27-.05Z"/><path class="cls-1" d="M24.16,10.44l-.27.1-.23.13.08.09,3.58,3.82,0-.27L24,10.71l.44-.17-.27-.68L24,9.94c.08.19.17.42.19.5"/><path class="cls-1" d="M109,21.34l-.22-.18c-.17-.14-.26,0-.26,0l-1.35,5.11.24-.14s1.2-4.56,1.26-4.8l.36.29.43-.57-.14-.11-.32.42"/><path class="cls-1" d="M45,6.65l-.53.1,0,.19.71-.13-.45-2.55-.19,0c.13.71.4,2.25.42,2.37"/><path class="cls-1" d="M44,6.28l-3.19.57-.09,0,.7,3.94.19,0S41,7.2,41,7l3.22-.58c0-.14-.13-.17-.16-.17"/><path class="cls-1" d="M44.44,13.18l.69-.13L44.57,10l-.19,0s.49,2.72.53,2.9L44.4,13Z"/><path class="cls-1" d="M44.08,12.75c0-.17-.1-.21-.14-.22h0l-2.1.39,1,5.66.18,0s-.94-5.3-1-5.48l1.84-.34c.08,0,.2,0,.2,0"/><path class="cls-1" d="M40.6,21.36c1.19-.28,2.39-.53,3.59-.75s2.4-.41,3.61-.57l.49-.06-.45-2.54-.19,0s.38,2.15.41,2.34l-.29,0c-1.2.16-2.43.35-3.63.57s-2.39.48-3.58.75Z"/><polygon class="cls-1" points="55.03 18.29 54.91 18.47 55.11 18.48 55.29 18.47 55.13 18.15 55.03 18.29"/><path class="cls-1" d="M65.84,8.1S64.47,1.19,64.43,1l.39,0,.07-.72H64.7c0,.2,0,.43-.06.52l-.27,0h-.18l0,.12L65.7,8.42Z"/><path class="cls-1" d="M71.63,1.63l-.28,0c-.17,0-.24,0-.25.07v0l-1.86,18,.2,0s1.82-17.86,1.83-18a.14.14,0,0,1,.07,0l.47.05.07-.67-.18,0c0,.19,0,.41-.06.49"/><polygon class="cls-1" points="68.24 7.43 65.14 14.87 65.2 15.21 68.17 8.08 68.24 7.43"/><polygon class="cls-1" points="73.47 15.44 73.65 15.47 75.24 11.87 75.26 11.37 74.31 13.51 73.47 15.44"/><polygon class="cls-1" points="100.46 21.94 98.62 23.92 97.46 25.18 97.62 25.28 100.28 22.41 100.46 21.94"/><path class="cls-1" d="M94.08,12.3l-.26-.12c-.15-.08-.23,0-.26,0h0l-2.38,5,.33-.28s2.15-4.51,2.2-4.6l.06,0,.42.22.32-.66-.17-.08c-.09.19-.2.4-.23.48"/><path class="cls-1" d="M98.77,14.69l-.25-.13a.41.41,0,0,0-.46,0L93.56,18l0,0-.92,9.25.21-.23s.88-8.83.9-8.91l4.45-3.34c.13-.07.17-.09.28,0l.41.21.31-.62L99,14.23c-.09.18-.19.38-.22.46"/><path class="cls-1" d="M89.57,27.34c.82.42,1.62.85,2.4,1.3l.34.19.35.2.09-.17h0l-.34-.2a3.54,3.54,0,0,1-.33-.19c-.28-.14-.54-.29-.81-.44-.53-.3-1.07-.58-1.61-.86Z"/><path class="cls-1" d="M14.6,32.26,9.92,23l-.48-.53,5,9.81a.17.17,0,0,0,.2,0"/><path class="cls-1" d="M12.89,34.8c.76-.6,1.55-1.2,2.34-1.76l.37-.29-.38-.56-.16.11c.12.17.24.35.29.41l-.24.17c-.78.56-1.57,1.17-2.34,1.77Z"/><path class="cls-1" d="M19,29.3,11,13.41s.06,0,.06,0l.38-.27-.37-.56-.16.09c.1.18.24.35.27.42l-.23.16a.29.29,0,0,0-.14.21l0,.07s6.68,13.27,8,15.82a.2.2,0,0,0,.21,0"/><path class="cls-1" d="M17.17,31.67c.81-.53,1.63-1.07,2.44-1.57l.43-.27-.28-.42-.1-.16-.18.1.11.17.18.25-.26.16c-.82.51-1.65,1-2.45,1.59Z"/><path class="cls-1" d="M32.06,22.93c-.34-.85-2.29-6-2.31-6s.18-8.24.18-8.24.06-.18.17-.23l0,0,0-.17-.07,0a.41.41,0,0,0-.27.38s-.2,8.29-.2,8.29v0l2.29,6a.22.22,0,0,0,.22,0"/><path class="cls-1" d="M29.71,24.91,31,24.38h0l1.82-.7.09,0-.17-.46L32.65,23l-.16.06.07.2.09.27c-.15.07-1.71.66-1.71.66l-1.3.53Z"/><path class="cls-1" d="M57.88,18.48c-.22-.44-1.31-2.67-1.33-2.73.24-.66.5-1.46.86-2.54l.28-1h.07l.44.18.25-.68-.16-.07-.2.5-.26-.11c-.15-.05-.23,0-.26,0l0,0-.32,1c-.35,1.1-.61,1.9-.87,2.57l0,0,1.27,2.58a.36.36,0,0,0,.28.14"/><path class="cls-1" d="M62.39,18.67,63.51,7.84l-.14-.65-1,9.5-.19,1.91a.25.25,0,0,0,.18.07"/><path class="cls-1" d="M59.59,19.48c.92,0,1.86.09,2.79.15l.44,0L62.9,19h-.19c0,.2,0,.41-.05.48l-.27,0c-.93-.07-1.87-.12-2.79-.16Z"/><path class="cls-1" d="M72.61,17.36l0,.06-1.07,2.43s.06.09.16.11c.23-.53,1-2.28,1-2.39l2.32.54v-.19Z"/><path class="cls-1" d="M72,20.32c0,.2-.09.42-.11.49l-.26,0c-.59-.13-1.2-.24-1.79-.35l-.67-.12-.2,0-.39-.07L66.7,19.9l0,.19c.82.12,1.62.24,2.43.38s1.65.3,2.45.47L72,21l.15-.68Z"/><path class="cls-1" d="M78.35,6.78l.17-.69-.2,0c0,.2-.09.43-.11.51l-.28-.06-.16,0v.11s-.35,12.13-.44,14.67h0c0,.1,0,.15.18.19.06-2,.44-14.55.45-14.74l.39.09"/><path class="cls-1" d="M74.48,21.62c1,.24,1.88.5,2.81.78l.48.14.16-.68-.18-.06c0,.2-.09.42-.11.5l-.29-.09c-.93-.27-1.87-.54-2.82-.78Z"/><path class="cls-1" d="M90.92,20.14l0-.23-1.68,1.22,0,0-1.88,3.94c0,.06,0,.1.15.14.27-.58,1.87-3.92,1.88-4s1.52-1.13,1.52-1.13"/><path class="cls-1" d="M84.46,25c.89.38,1.8.78,2.7,1.2l.42.21.2-.43.09-.21-.16-.08-.1.2-.12.26L87.24,26c-.9-.41-1.81-.82-2.7-1.2Z"/><path class="cls-1" d="M96,26.71l0,.05-1.8,1.95c0,.05,0,.1.11.15L96.07,27l2,1.29.08-.18Z"/><path class="cls-1" d="M93.87,29.75l.37.23.38-.58-.16-.1-.27.41L94,29.58l-1.21-.72-.09.17Z"/><path class="cls-1" d="M105.07,17.93l-.27.44-.24-.15-.14-.08L99.22,32c0,.1,0,.16.11.25.35-.91,5.11-13.59,5.19-13.79l.35.22.36-.6-.16-.1"/><path class="cls-1" d="M96.42,31.36c.82.54,1.63,1.11,2.4,1.68l.42.28.36-.58-.15-.11c-.12.18-.23.35-.27.43l-.25-.18c-.78-.57-1.59-1.14-2.41-1.68Z"/><path class="cls-1" d="M114.39,25.07l-.3.39-.22-.17a.39.39,0,0,0-.47,0s-3.66,2.15-3.66,2.15l-3.41,2-3.84,5.1c0,.07,0,.13.09.19.56-.75,3.86-5.11,3.87-5.14l7-4.12c.13-.05.18-.05.26,0l.38.29.4-.53-.14-.13"/><path class="cls-1" d="M99.7,33.68l1.12.86s.32.24,1.51,1.2l.08.06.29-.38.13-.17-.15-.11-.12.16s-.12.14-.18.23c-.14-.1-1.44-1.14-1.44-1.14l-1.13-.87Z"/><path class="cls-1" d="M37.39,8.38l.66-.18-.69-2.55-.18,0c.19.7.61,2.24.64,2.37l-.48.14Z"/><path class="cls-1" d="M37,8c-.05-.2-.26-.27-1.14,0l-.53.14-.09,0,3.45,12.6c0,.05.1.06.21,0-.41-1.5-3.38-12.34-3.42-12.51l.44-.11C36.59,8,37,8,37,8"/><path class="cls-1" d="M36.36,22.52l1.41-.42,1.89-.51-.13-.47-.05-.2-.18,0,.06.2s0,.18.07.28l-1.7.46-1.41.42Z"/><path class="cls-1" d="M16.09,14.49l.06,0,.42-.22-.33-.64-.16.08a4.64,4.64,0,0,0,.24.47l-.25.14c-.16.08-.18.17-.18.19v0L17,16.59l.17-.09c-.2-.38-1-1.93-1-2"/><path class="cls-1" d="M17.9,18,20,16.91,20,16.74l-.95.5L17.64,18l.53,1,.17-.09c-.12-.23-.39-.75-.44-.87"/><path class="cls-1" d="M22.35,27.22a.25.25,0,0,0,.21,0c-.52-1-3.13-6.19-3.21-6.34l2.15-1.12-.09-.17-1.6.83-.72.38Z"/><path class="cls-1" d="M23,27.33c.1.18.2.38.24.44l-.25.14c-.85.46-1.73,1-2.57,1.47l.09.17c.86-.51,1.73-1,2.57-1.47l.41-.22-.31-.62Z"/><path class="cls-1" d="M27.72,25l-.16.08c.09.18.18.38.22.45l-.26.13c-.91.41-1.81.84-2.67,1.28l.08.17c.86-.44,1.75-.86,2.66-1.28l.45-.2Z"/><path class="cls-1" d="M26.87,24.94c.05.06.12.07.22,0-.38-.78-6.42-12.65-6.47-12.75l.06,0L21,12l.2-.08a.54.54,0,0,1,.27,0,.4.4,0,0,0-.44-.09l-.11,0-.34.17c-.14.09-.17.17-.17.21v0Z"/><path class="cls-1" d="M13.54,15.7l-.07,0,.09.17.24-.13a.18.18,0,0,0-.26-.08"/><path class="cls-1" d="M18.25,13.35a.19.19,0,0,0-.27-.08l-.07.05.09.16Z"/><path class="cls-1" d="M27.59,9.29a.19.19,0,0,0-.26-.1l-.07,0,.06.18Z"/><path class="cls-1" d="M38.16,6.2c0-.11-.12-.17-.24-.14h-.08l0,.19Z"/><path class="cls-1" d="M61.73.78c0-.11-.07-.21-.17-.22h-.08l0,.19Z"/><path class="cls-1" d="M75.26,6c0-.11.1-.17,0-.19l-.08,0,0,.19Z"/><path class="cls-1" d="M91.28,11.24c.07-.09,0-.21-.09-.26l-.07,0-.09.17Z"/><path class="cls-1" d="M106.38,19.71c0-.11,0-.25-.09-.31l-.06-.06-.11.15Z"/><path class="cls-1" d="M111.62,23.64c.08,0,.16-.12.08-.18l-.08-.05-.11.15Z"/><path class="cls-1" d="M95.78,13.34c.11-.08.15-.14,0-.19l-.08,0-.08.18Z"/><path class="cls-1" d="M102.18,16.9c.07-.09.14-.12,0-.18l-.07,0-.1.17Z"/><path class="cls-1" d="M68.61,1.39c0-.11.08-.18,0-.2H68.5l0,.2Z"/><path class="cls-1" d="M32.25,9c-.68.19-.9.35-1,.45l0,.07,0,.1.09.28-.51.14.05.18.69-.2-.14-.45v0a2.06,2.06,0,0,1,.83-.35L32.93,9l-.06-.19Z"/><path class="cls-1" d="M58.44,18.94v-.17h-.18V19s0,.19,0,.3H58c-.91,0-1.85,0-2.77,0l-.28,0c0-.14,0-.78,0-.78l-.2.22-.34.36-.49.37-.13.07a3.07,3.07,0,0,1-1.51.43H51.9a3.12,3.12,0,0,1-2-.85h0a4.9,4.9,0,0,1-1.26-2.88,4.72,4.72,0,0,0,1.14,3,3.3,3.3,0,0,0,2.41.89,3.39,3.39,0,0,0,1.61-.45l.11-.08.51-.38s.16-.15.26-.27c0,.19,0,.51,0,.51h.45c.92,0,1.86,0,2.77,0h.49Z"/><path class="cls-1" d="M55.94,4.12a1.4,1.4,0,0,0,.1-.54V3.52a1.24,1.24,0,0,0-1.23-1.17,1.26,1.26,0,0,1,1,1.14v.09a1.07,1.07,0,0,1-.1.47l-2.19,5.7-.06.18,0,0L55,13.05c0-.09,0-.18.08-.26-.44-.91-1.37-2.77-1.4-2.83a.62.62,0,0,0,.06-.14Z"/><path class="cls-1" d="M51.38,4.6l.86,0h0l1.07,0c0-.07,0-.13.07-.19l-1.15.06h0l-1.14.07,1.17,2.86a2.24,2.24,0,0,1,.1-.26c-.28-.69-.91-2.26-1-2.43"/><path class="cls-1" d="M52.21,17.82h0a1.33,1.33,0,0,1-.57-.39,2.39,2.39,0,0,1-.54-1.5v0a8,8,0,0,1,1.16-3.45c-.05-.08-.07-.15-.11-.21A8.7,8.7,0,0,0,51,15.87v.05a2.64,2.64,0,0,0,.6,1.64.75.75,0,0,0,.66.26"/><path class="cls-1" d="M80.78,20.53c-.22-1,.1-2.82,1-5.32,1-2.83,1.93-4.48,2.84-4.94a1.3,1.3,0,0,1,.89,0,1.22,1.22,0,0,1,.66.61,1.11,1.11,0,0,0-.69-.79A1,1,0,0,0,85.1,10a1.36,1.36,0,0,0-.61.13c-1,.47-1.95,2.17-2.93,5.05-.07.19-.14.37-.2.56-.56,1.77-1,3.72-.58,4.82"/><path class="cls-1" d="M86.32,19.69c-1.54,3.29-3.41,4.58-5.58,3.8a3.64,3.64,0,0,1-2.42-3.34h0v0c.2,1.9,1,3,2.36,3.51,2.28.81,4.24-.51,5.81-3.91Z"/><path class="cls-2" d="M86.14,19.55l-1.57-.91,0,.16a7.86,7.86,0,0,1-1.47,2.28,1.49,1.49,0,0,1-1.57.5c-1.4-.5-1.46-2.68-.15-6.51,1-2.94,2-4.68,3.07-5.18a1.36,1.36,0,0,1,1.1-.07c1,.34,1.22,1.61.73,3.77-.06.19-.14.35-.4.31l-.06,0,0,.33,2.6.36,0-.32h-.06c-.15,0-.32-.12-.31-.3l0-.06a.1.1,0,0,1,0,0c.6-3.14,0-5.07-1.94-5.75a3.42,3.42,0,0,0-3.69,1,12.52,12.52,0,0,0-2.93,5.18,14,14,0,0,0-.94,5.88,3.42,3.42,0,0,0,2.27,3.15c2,.73,3.83-.51,5.3-3.68ZM19.25,29.42l0,0a.57.57,0,0,1-.45.11.26.26,0,0,1-.16-.12l-8-15.84a.48.48,0,0,1-.05-.19.47.47,0,0,1,.25-.4l0,0-.18-.27,0,0c-.79.47-1.55.95-2.3,1.43l0,0,0,0,.15.23.05,0A.48.48,0,0,1,9,14.35a.24.24,0,0,1,.16.11S14.69,25.13,15,25.82L6.43,16.28a.28.28,0,0,1,0-.16.51.51,0,0,1,.26-.41l0,0-.17-.27-1.27.87L4.18,17l.18.27,0,0a.53.53,0,0,1,.39-.11.26.26,0,0,1,.19.12s5.39,10.87,5.73,11.57L2.36,19.19a.23.23,0,0,1,0-.15v0a.51.51,0,0,1,.27-.37l0,0-.19-.28,0,0c-.77.58-1.55,1.2-2.34,1.85l0,0,.18.27,0,0a.43.43,0,0,1,.61,0l11.8,13.15a.25.25,0,0,1,0,.21.49.49,0,0,1-.25.37l0,0,.18.27,0,0c.78-.61,1.58-1.21,2.37-1.8l0,0-.18-.26,0,0a.52.52,0,0,1-.44.1.24.24,0,0,1-.16-.11S8.8,21.68,8.44,21C9,21.57,17,30.49,17,30.49a.23.23,0,0,1,.05.15v.05a.55.55,0,0,1-.25.36l-.05,0,.18.27.05,0c.79-.54,1.62-1.08,2.45-1.59l.05,0,0-.05Zm8.07-4.29-.06,0a.52.52,0,0,1-.4.06.34.34,0,0,1-.18-.15L20.21,12.33a.45.45,0,0,1,0-.23.51.51,0,0,1,.28-.31l.05,0-.16-.28h0c-.92.43-1.81.87-2.67,1.31l-.05,0,.14.29,0,0c.31-.16.54,0,.6.09l1.16,2.29-2.72,1.43-1.17-2.29a.27.27,0,0,1,0-.13.37.37,0,0,1,0-.11.52.52,0,0,1,.28-.3l.05,0-.15-.29,0,0c-.84.46-1.72,1-2.6,1.46l0,0,.14.29,0,0a.55.55,0,0,1,.41-.06.37.37,0,0,1,.19.15l6.46,12.73a.28.28,0,0,1,0,.24.58.58,0,0,1-.28.3l0,0,.14.3.06,0c.85-.52,1.72-1,2.58-1.47l.05,0-.14-.29-.06,0a.53.53,0,0,1-.4.07.33.33,0,0,1-.19-.15l-3.35-6.61,2.72-1.43c0,.1,3.35,6.61,3.35,6.61a.42.42,0,0,1,0,.13.47.47,0,0,1-.3.41l-.05,0,.15.29,0,0c.87-.44,1.77-.87,2.68-1.29l0,0,0-.05ZM18.06,19.3c0-.09-.69-1.36-.73-1.45l2.72-1.43c.05.09.69,1.37.74,1.45s-2.63,1.39-2.73,1.43m14.18,3.81h-.05a.51.51,0,0,1-.4,0,.27.27,0,0,1-.16-.17l-2.3-6,.19-8.36A.65.65,0,0,1,29.94,8l0,0-.11-.28h0c-.93.3-1.87.63-2.8,1h0l.12.31,0,0a.54.54,0,0,1,.48,0,.2.2,0,0,1,.08.13s-.16,5.78-.16,6c-.18-.18-4-4.28-4-4.28a.22.22,0,0,1-.11-.18v0c0-.12.17-.26.37-.34h.05L23.74,10l0,0c-1,.4-1.93.82-2.86,1.24l-.05,0,.11.28.05,0a.65.65,0,0,1,.7.14l6,6.33,2.16,5.67c0,.13,0,.38-.32.51l-.06,0,.12.31.05,0L30.86,24l1.51-.56,0-.06Zm82,1.74c-.74-.64-1.5-1.29-2.28-1.91l0,0-.18.25,0,0a.6.6,0,0,1,.26.39h0a.19.19,0,0,1-.07.14l-5.15,3c.07-.24,1.51-5.71,1.51-5.71a.22.22,0,0,1,.12-.2.54.54,0,0,1,.47.15l.06,0,.19-.26,0,0c-.84-.63-1.69-1.25-2.53-1.84l0,0-.18.25,0,0a.7.7,0,0,1,.25.68l-2.22,8.45-3.65,4.83c-.09.11-.32.2-.6,0l0,0-.2.26,1.18.9,1.25,1,0,0,.18-.22,0,0c-.28-.22-.27-.47-.17-.59l3.85-5.11L113.3,25a.69.69,0,0,1,.72.07l0,0,.19-.25ZM39.06,21,39,21c-.35.09-.52-.08-.56-.21L35,8l.85-.22c1.06-.3,1.32-.17,1.42.18V8l.31-.09-.6-2.19h0c-1.12.27-2.24.56-3.35.88s-2.22.64-3.31,1l-.05,0,.6,2.19.3-.09V9.67a1,1,0,0,1,0-.16.35.35,0,0,1,.05-.18c.1-.21.46-.39,1.08-.57L33,8.51l3.5,12.81s0,0,0,.06-.1.33-.39.41l0,0,.09.31h.05l1.43-.42,1.47-.4v-.05Zm8.35-3.52-.32.06v0a.76.76,0,0,1,0,.15A.51.51,0,0,1,47,18a.34.34,0,0,1-.19.15l-3.06.51s-.91.18-1.14.21c0-.09-1.07-6-1.09-6.12l2.32-.43a.39.39,0,0,1,.24.06.56.56,0,0,1,.19.36v.06l.32-.06L44.15,10l-.31.06v0a.36.36,0,0,1,0,.14.44.44,0,0,1-.07.27.39.39,0,0,1-.2.15l-2.32.42c0-.1-.77-4.29-.79-4.4L44,6.06a.29.29,0,0,1,.24.05.52.52,0,0,1,.2.36v.06l.32-.06-.39-2.19h-.06c-1,.15-2,.33-3,.5-1.18.21-2.4.46-3.6.74h0l0,.32h0c.36-.06.53.13.55.26l2.51,14.09a.33.33,0,0,1,0,.23.5.5,0,0,1-.36.21H40.4l.05.32h.06c1.19-.29,2.4-.54,3.61-.76s2.41-.42,3.62-.58h.06L47.51,18ZM57.33,12c.05-.13.25-.29.58-.15H58l.11-.3-2.59-1-.12.3,0,0a.5.5,0,0,1,.32.27.32.32,0,0,1,0,.14.34.34,0,0,1,0,.1l-.29,1L55,13.67c0-.06-1.8-3.65-1.81-3.69s.13-.32.13-.32L55.54,4a1,1,0,0,0,.08-.39v0a1,1,0,0,0-1-1L53,2.63c-1,.05-2,.12-3.08.19a1,1,0,0,0-.93,1v0a1,1,0,0,0,.12.43l2.27,5.62s-.26.44-.26.44l-.34.57c-.81,1.38-1.83,3.09-1.88,4.73v.1a4.75,4.75,0,0,0,1.22,3.16,2.89,2.89,0,0,0,2.11.77,2.8,2.8,0,0,0,1.41-.39l.11-.07.47-.35a5.21,5.21,0,0,0,1-1.19l.36.71v.06a.44.44,0,0,1,0,.1.43.43,0,0,1-.32.13h-.06l0,.33h0c.92,0,1.86,0,2.77,0h0v-.33h0a.66.66,0,0,1-.62-.36l-.57-1.16s-.66-1.36-.69-1.4c.27-.68.55-1.5.92-2.69ZM50.78,4.22c.14,0,1.44-.1,1.44-.1l1.56-.07c-.06.14-1.42,3.65-1.51,3.87-.08-.22-1.44-3.57-1.49-3.7m2.43,13.39a1.26,1.26,0,0,1-1,.45,1,1,0,0,1-.84-.33,2.88,2.88,0,0,1-.65-1.81v-.05a9.9,9.9,0,0,1,1.49-4.15c.07.17,2,4.14,2.06,4.19a7.84,7.84,0,0,1-1.07,1.7m22-12.32v0l0,.25h0a.39.39,0,0,1,.29.2.22.22,0,0,1,0,.22L69.61,19.45a.45.45,0,0,1-.34.26.35.35,0,0,1-.23-.35L70.86,1.67c0-.14.16-.34.52-.3h.05l0-.32,0,0L68.57.63h0l0,.33h.06a.44.44,0,0,1,.35.18.34.34,0,0,1,0,.1.22.22,0,0,1,0,.09s-3.14,7.58-3.28,7.88C65.54,8.88,64,.83,64,.83a.15.15,0,0,1,0-.06A.2.2,0,0,1,64,.63a.41.41,0,0,1,.36-.11h0l0-.33h0c-1-.09-1.92-.15-2.87-.2h0l0,.31h.06c.36,0,.47.27.45.41l-1.82,17.7a.33.33,0,0,1-.12.2.48.48,0,0,1-.39.1h-.06l0,.33h.06c.93,0,1.87.09,2.79.16h.06l0-.31h0a.48.48,0,0,1-.36-.19.3.3,0,0,1-.08-.2h0S63.23,6.28,63.31,5.6c.13.66,1.71,9,1.71,9s3.36-8,3.61-8.65C68.56,6.57,67.28,19,67.28,19a.33.33,0,0,1-.12.21.51.51,0,0,1-.41.1h0l0,.33h0c.82.11,1.65.23,2.46.37s1.65.3,2.46.48h0l.07-.31H71.7a.53.53,0,0,1-.37-.27.25.25,0,0,1,0-.12v-.06s1.15-2.6,1.18-2.68,2.72.63,2.8.66-.09,2.93-.09,2.93a.19.19,0,0,1-.09.15.54.54,0,0,1-.46.07H74.6l-.07.31h0c1,.23,1.9.5,2.84.78h0l.08-.32h-.06a.43.43,0,0,1-.39-.47l.45-14.69a.23.23,0,0,1,.08-.2c.07-.08.19-.09.36,0H78L78.12,6l-1.44-.35Zm.1,10.81-2.19-.51,2.37-5.4c0,.5-.17,5.79-.18,5.91M99,31.84l5.17-13.73a.27.27,0,0,1,.14-.17.41.41,0,0,1,.35.08l.06,0,.16-.27-1.24-.8-1.25-.78,0,0-.13.22,0,0a.4.4,0,0,1,.22.29.23.23,0,0,1-.08.2L92.52,27.68a.52.52,0,0,1-.17.12.76.76,0,0,1,0-.15v-.07s1-9.65,1-9.71,4.61-3.44,4.61-3.44a.68.68,0,0,1,.71-.08l0,0,.13-.29,0,0c-.9-.48-1.81-1-2.73-1.43l0,0-.15.29,0,0c.17.09.27.2.28.32v0a.16.16,0,0,1-.07.13l-5.63,4.67c.21-.42,2.86-6,2.86-6a.31.31,0,0,1,.19-.16.51.51,0,0,1,.4.05l0,0,.15-.29,0,0c-.9-.43-1.82-.84-2.71-1.23l0,0-.13.29,0,0a.44.44,0,0,1,.28.53l-6.15,12.9a.36.36,0,0,1-.19.15.49.49,0,0,1-.41,0l0,0-.14.31h0c.91.38,1.83.78,2.72,1.21l0,0,.14-.29,0,0a.51.51,0,0,1-.31-.41.19.19,0,0,1,0-.12s1.88-3.92,1.88-4l2.18-1.62c0,.24-.86,7.15-.86,7.15-.06.15-.18.3-.49.15l0,0-.14.3,0,0c.8.42,1.61.85,2.4,1.3s1.3.73,1.92,1.12l0,0,.18-.28-.06,0a.61.61,0,0,1-.28-.37v-.05a.17.17,0,0,1,0-.13l2-2.14L98.44,28l-1,2.74a.2.2,0,0,1-.15.11.49.49,0,0,1-.44-.08l0,0-.18.28,0,0c.82.55,1.64,1.12,2.43,1.68l.05,0,.17-.28-.05,0a.44.44,0,0,1-.22-.57M97.1,25.22l4-4.31c-.18.46-2,5.42-2.08,5.53-.1-.06-1.82-1.15-1.91-1.22"/><path class="cls-2" d="M41.28,29.23h-.85a.21.21,0,0,0-.12,0,.57.57,0,0,0-.06.15h-.09v-1h.09a.57.57,0,0,0,.06.15.21.21,0,0,0,.12,0h1.65v.09a.22.22,0,0,0-.13.08.2.2,0,0,0,0,.14v.86A.2.2,0,0,0,42,30a.22.22,0,0,0,.13.08v.07a3.43,3.43,0,0,1-1.92.68,2,2,0,0,1-1.38-.48,2.43,2.43,0,0,1-.07-3.25,2,2,0,0,1,1.5-.56,2.12,2.12,0,0,1,.57.07,4,4,0,0,1,.6.21.58.58,0,0,0,.24.08.14.14,0,0,0,.12-.06l.08,0-.4,1-.08,0a.28.28,0,0,0,0-.15.16.16,0,0,0-.09-.1,1.18,1.18,0,0,0-.45-.24,2,2,0,0,0-.57-.1,1.19,1.19,0,0,0-.9.36,1.48,1.48,0,0,0-.41,1.09,1.42,1.42,0,0,0,.4,1.06,1.21,1.21,0,0,0,1,.38A1.82,1.82,0,0,0,40.8,30a1.41,1.41,0,0,0,.48-.22v-.56Z"/><path class="cls-2" d="M44.73,30h2.12c.06,0,.1,0,.12,0a.53.53,0,0,0,.07-.15h.08v1.06H47a.6.6,0,0,0-.07-.14s-.06,0-.12,0h-3v-.1c.06,0,.1-.05.12-.09a.2.2,0,0,0,0-.14V26.9a.18.18,0,0,0,0-.14.23.23,0,0,0-.12-.08v-.09h1.08v.09a.32.32,0,0,0-.13.08.24.24,0,0,0,0,.14Z"/><path class="cls-2" d="M51.35,29.67H49.78l-.23.58a.59.59,0,0,0,0,.19c0,.09.06.15.17.19v.1H48.52v-.1a.28.28,0,0,0,.16-.09.7.7,0,0,0,.11-.23l1.28-3.19a.69.69,0,0,0,.06-.24.21.21,0,0,0-.15-.2v-.09h1.23v.09a.17.17,0,0,0-.14.18.54.54,0,0,0,0,.2l1.32,3.19a.76.76,0,0,0,.16.28.23.23,0,0,0,.15.1v.1H51.47v-.1a.18.18,0,0,0,.16-.19.54.54,0,0,0,0-.19Zm-.22-.57-.56-1.47L50,29.1Z"/><path class="cls-2" d="M57.41,26.93l-.41,1-.07,0V27.8q0-.09-.15-.21a1.59,1.59,0,0,0-1.05-.38,1.34,1.34,0,0,0-.48.08.52.52,0,0,0-.25.18.51.51,0,0,0-.09.26.31.31,0,0,0,.23.32,4.13,4.13,0,0,0,.54.1l.39,0a2.51,2.51,0,0,1,.58.13,1.16,1.16,0,0,1,.39.22,1.13,1.13,0,0,1,.27.39,1.39,1.39,0,0,1-.14,1.3,1.19,1.19,0,0,1-.66.45,2.41,2.41,0,0,1-.72.12,2.58,2.58,0,0,1-1.36-.4l-.17-.08s-.06,0-.1.07l-.08-.05.38-1,.06.05v0a.37.37,0,0,0,.12.25,1.35,1.35,0,0,0,.51.31,2,2,0,0,0,.66.13,1.18,1.18,0,0,0,.58-.14.83.83,0,0,0,.22-.2.66.66,0,0,0,.06-.27.3.3,0,0,0-.18-.29,1.64,1.64,0,0,0-.52-.11l-.4-.05a4.24,4.24,0,0,1-.56-.1,1.06,1.06,0,0,1-.31-.14,1,1,0,0,1-.37-.4,1.48,1.48,0,0,1-.11-.57,1.25,1.25,0,0,1,.29-.87,1.52,1.52,0,0,1,1.19-.45,2.07,2.07,0,0,1,.62.08,4.9,4.9,0,0,1,.72.29.56.56,0,0,0,.18.08s.07,0,.12-.08Z"/><path class="cls-2" d="M62.16,29.23H61.3a.25.25,0,0,0-.12,0,.57.57,0,0,0-.06.15H61v-1h.09a.36.36,0,0,0,.06.15.25.25,0,0,0,.13,0h1.63v.09a.36.36,0,0,0-.12.08.2.2,0,0,0,0,.14v.86a.2.2,0,0,0,0,.14.28.28,0,0,0,.12.08v.07a3.37,3.37,0,0,1-1.9.68,1.94,1.94,0,0,1-1.37-.48A2.12,2.12,0,0,1,59,28.65a2.18,2.18,0,0,1,.58-1.58,2.09,2.09,0,0,1,1.5-.56,2.12,2.12,0,0,1,.57.07,3.34,3.34,0,0,1,.6.21.54.54,0,0,0,.24.08.17.17,0,0,0,.13-.06l.06,0-.39,1-.08,0a.49.49,0,0,0,0-.15.27.27,0,0,0-.09-.1,1.23,1.23,0,0,0-.46-.24,2,2,0,0,0-.57-.1,1.22,1.22,0,0,0-.9.36,1.52,1.52,0,0,0-.41,1.09,1.47,1.47,0,0,0,.4,1.06,1.22,1.22,0,0,0,.94.38,1.9,1.9,0,0,0,.58-.09,1.41,1.41,0,0,0,.48-.22v-.56Z"/><path class="cls-2" d="M66.58,26.51A1.86,1.86,0,0,1,68,27.1a2.24,2.24,0,0,1,.55,1.58,2.44,2.44,0,0,1-.26,1.1,1.8,1.8,0,0,1-1.73,1,1.87,1.87,0,0,1-1.44-.59,2.18,2.18,0,0,1-.42-.75,2.42,2.42,0,0,1-.14-.81,2.46,2.46,0,0,1,.28-1.14,1.8,1.8,0,0,1,1.71-1m0,.7a1.09,1.09,0,0,0-.83.35,1.53,1.53,0,0,0-.39,1.09,1.57,1.57,0,0,0,.39,1.1,1.09,1.09,0,0,0,.83.35,1.11,1.11,0,0,0,.83-.35,1.42,1.42,0,0,0,.3-.52,1.5,1.5,0,0,0,.1-.56,1.54,1.54,0,0,0-.4-1.11,1.18,1.18,0,0,0-.83-.35"/><path class="cls-2" d="M72.73,27.81l-.79,2.39a1.05,1.05,0,0,0-.07.24c0,.08.07.15.19.19v.1H70.94v-.1a.2.2,0,0,0,.17-.21.82.82,0,0,0-.07-.27l-1-3a1.35,1.35,0,0,0-.14-.31.32.32,0,0,0-.17-.11v-.09h1.19v.09a.18.18,0,0,0-.16.18.71.71,0,0,0,0,.2l.69,2.19L72.25,27a.53.53,0,0,0,0-.18c0-.1,0-.16-.17-.18v-.09h1.26v.09c-.11,0-.17.1-.17.2a.48.48,0,0,0,0,.18L74,29.25l.69-2.16a1,1,0,0,0,0-.23q0-.15-.18-.18v-.09H75.7v.09a.28.28,0,0,0-.17.11,1.24,1.24,0,0,0-.12.3l-1,3.06a1.3,1.3,0,0,0-.08.29c0,.1.06.16.19.19v.1H73.39v-.1a.2.2,0,0,0,.18-.21,1,1,0,0,0-.08-.27Z"/><polygon class="cls-2" points="103.31 34.84 103.7 35.16 103.64 35.25 103.5 35.14 103.04 35.7 102.94 35.61 103.39 35.05 103.24 34.94 103.31 34.84"/><polygon class="cls-2" points="103.76 35.21 103.92 35.34 103.67 35.92 104.18 35.56 104.33 35.68 103.81 36.34 103.7 36.25 104.15 35.7 103.55 36.13 103.48 36.06 103.77 35.38 103.33 35.94 103.24 35.87 103.76 35.21"/><path class="cls-1" d="M53,65.9a3.17,3.17,0,0,1,1.33-.47c0-.33,0-.66,0-1,2.07,0,3.57-1.15,3.57-3.15,0-1.48-1.13-2.62-2.63-3.64s-5-2.85-5-5.49a2.16,2.16,0,0,1,2.39-2.31,1.77,1.77,0,0,0,1.87,1.32c.9-.1,2.13-1.87,3.55-1.17-.67-1.34-1.6-.7-2.56-1.42a2,2,0,0,0-2.86.52c-.87.17-3,.49-3,3.22s2.57,4.4,4.9,5.88,2.31,2.45,2.31,3.05a2.07,2.07,0,0,1-2,2,.9.9,0,0,1-.52-.15c-.32-3.62-1.88-5.46-5.31-6-2.35-.37-5.16-.73-5.06-4.15a2.92,2.92,0,0,0,2.64.41A2.18,2.18,0,0,1,45,51.28c0-.14,0-.27,0-.4.51.64,1.37,1.13,3.16.51a2.16,2.16,0,0,1-1.83-1.89,5.45,5.45,0,0,0-.17-.67c.57.64,1.5,1.16,3.34.24a2.09,2.09,0,0,1-2-1.36l.48,0a1.46,1.46,0,0,1-.61-.34,4.08,4.08,0,0,0-.17-.42v0c.66.45,1.59.66,3.12-.38a2.12,2.12,0,0,1-2.25-1.35L48,45a4.09,4.09,0,0,0,.7,0,1.76,1.76,0,0,1-.9-.73,2.79,2.79,0,0,0,2.63-1,2.1,2.1,0,0,1-2.39-1,2,2,0,0,1-.18-.25c.69.12,1.54-.09,2.56-1.28A2.09,2.09,0,0,1,48,40.14a3.71,3.71,0,0,0,1.32-1.6,2,2,0,0,1-2.19.18,2.48,2.48,0,0,0-.55-1.57c0,.51-.53.53-1.15.63a2.48,2.48,0,0,0-.55-1.37c0,.7-1,.46-1.82.83a12.06,12.06,0,0,0-3.27.15c-.3,0-1.15.08-.88.68s.28.75-.21.71-3-.44-2.81.61a9.9,9.9,0,0,0,.73,2.23,2.1,2.1,0,0,0,.3,1.11,2.14,2.14,0,0,1,.4-1.19l.3,0a1.79,1.79,0,0,0,.12,1,2,2,0,0,1,.48-1l.39.07a1.59,1.59,0,0,0-.08.88,2,2,0,0,1,.52-.69,2.29,2.29,0,0,1,1.13,1.79,8.29,8.29,0,0,0-4.28-.75,2.57,2.57,0,0,1-.74-.11s.06-.08.06-.12v-.84c0-.29-.8-.91-2.52-1.33a5.54,5.54,0,0,1,1,.81c-.29.09-.7.14-1,.27a6.38,6.38,0,0,1,1.83.49.14.14,0,0,0-.1.13v.91c0,.24.58.57,1.5.52,1.24-.06,3.17-.14,4.31.47a1.49,1.49,0,0,1,0,.21,2.76,2.76,0,0,1-1.64.39,2.18,2.18,0,0,1-.29-.79,1.9,1.9,0,0,0-.17.78l-.44,0a2.33,2.33,0,0,1-.28-1,2.22,2.22,0,0,0-.31,1H37c-.15.15-.17,1.13.46,1.25a5.58,5.58,0,0,0,2.35-.19,7.68,7.68,0,0,1,1.3-.09,23.27,23.27,0,0,1-2.82,1,9.68,9.68,0,0,0-2.24.75,1.89,1.89,0,0,1-.92-.08c-1.1-.43-2.71-1.29-3-2.59a8.73,8.73,0,0,0-.5-2.36A3.66,3.66,0,0,0,30,40.87a1.33,1.33,0,0,0-2,.83c.38-.39.65-.33.83-.25-.19.41.3.52.69.73a1,1,0,0,1,.5.58,1.83,1.83,0,0,0-1.69-.58,1.27,1.27,0,0,0-1,1.35A1,1,0,0,1,28,43c0,.37.39.42.74.48a1.6,1.6,0,0,1,.86.45,1.78,1.78,0,0,0-1.49-.11,1.08,1.08,0,0,0-.31,1.75c-.06-.48.1-.73.22-.79.2.3.46.21.92.17a1,1,0,0,1,1,.87,4.7,4.7,0,0,0,.22.78,1.44,1.44,0,0,0-.51,1.65c.05-.41.5-.81.86-.72a2.29,2.29,0,0,0,.07,1.86,1.25,1.25,0,0,1,.78-.75,2.46,2.46,0,0,0-.08,1.53,1.1,1.1,0,0,1,1-.85,1.45,1.45,0,0,0-.2,1.58,1.88,1.88,0,0,1,1.22-.79,1.83,1.83,0,0,0-.5,2,2,2,0,0,1,.67-.71,9.53,9.53,0,0,0-.27,1.5,3.64,3.64,0,0,1-2.92-.06c-.86-.54-1.19-1.07-2-1.31a3.46,3.46,0,0,0-2.16.23,1.37,1.37,0,0,0-.82,2c0-.55.22-.7.4-.78.16.43.6.16,1,0a1.08,1.08,0,0,1,.75,0,1.81,1.81,0,0,0-1.59.82,1.26,1.26,0,0,0,.23,1.66,1,1,0,0,1,.13-.85c.29.26.56,0,.87-.18a1.5,1.5,0,0,1,.93-.3c-.69.3-1,.56-1.14,1a1.07,1.07,0,0,0,1,1.46c-.38-.29-.43-.59-.39-.72.34.07.47-.17.76-.53a1,1,0,0,1,1.32-.11,3.67,3.67,0,0,0,.68.39,1.45,1.45,0,0,0,.79,1.54.86.86,0,0,1,.1-1.13,2.19,2.19,0,0,0,1.36,1.26,1.24,1.24,0,0,1,0-1.07,2.28,2.28,0,0,0,1,1.12,1.17,1.17,0,0,1,0-1.23c.11.31.24.63.39,1,1,1.94,1.12,2.78,6.61,3.54,3,.41,6.12,1.26,6.54,4.85a7.91,7.91,0,0,1,1.45-.2c1.41-.09,3.58,0,4.35.57"/><path class="cls-1" d="M82,65.33a14.8,14.8,0,0,1,2.87.11c0-.34,0-.67,0-1,2.08,0,3.57-1.15,3.57-3.15,0-1.48-1.13-2.62-2.63-3.64s-5-2.84-5-5.48a2.16,2.16,0,0,1,2.39-2.32,1.77,1.77,0,0,0,1.89,1.32c.89-.1,2.11-1.87,3.54-1.17-.68-1.34-1.6-.7-2.56-1.42a2,2,0,0,0-2.87.52c-.87.17-3,.49-3,3.22s2.56,4.4,4.91,5.88,2.29,2.45,2.29,3.05a2.06,2.06,0,0,1-2,2,.93.93,0,0,1-.53-.15c-.31-3.62-1.88-5.46-5.31-6-2.34-.37-5.15-.73-5-4.15a2.92,2.92,0,0,0,2.64.41,2.16,2.16,0,0,1-1.58-2.12c0-.14,0-.27,0-.4.52.64,1.37,1.13,3.15.51a2.14,2.14,0,0,1-1.83-1.89,2.74,2.74,0,0,0-.17-.67c.58.64,1.5,1.16,3.35.24a2.08,2.08,0,0,1-2-1.36l.48,0a1.55,1.55,0,0,1-.62-.34,4.08,4.08,0,0,0-.18-.42l0,0c.66.45,1.61.66,3.13-.38a2.13,2.13,0,0,1-2.26-1.34c0-.05-.05-.11-.07-.17a4.08,4.08,0,0,0,.7,0,1.72,1.72,0,0,1-.9-.73,2.77,2.77,0,0,0,2.62-1,2.12,2.12,0,0,1-2.4-1c0-.08-.1-.17-.16-.25.68.12,1.53-.09,2.56-1.28a2.1,2.1,0,0,1-2.42-.61,3.78,3.78,0,0,0,1.32-1.6,2,2,0,0,1-2.19.18,2.48,2.48,0,0,0-.55-1.57c0,.51-.53.53-1.15.63a2.62,2.62,0,0,0-.54-1.37c0,.7-1,.46-1.84.83a12,12,0,0,0-3.26.15c-.3,0-1.15.08-.88.68s.3.75-.2.71-3-.44-2.83.61a11.93,11.93,0,0,0,.73,2.23,2.12,2.12,0,0,0,.32,1.11,2.06,2.06,0,0,1,.39-1.19l.3,0a1.89,1.89,0,0,0,.12,1,2.08,2.08,0,0,1,.47-1l.39.07a1.68,1.68,0,0,0-.07.88,1.86,1.86,0,0,1,.52-.69,2.35,2.35,0,0,1,1.14,1.79,8.37,8.37,0,0,0-4.3-.75,2.55,2.55,0,0,1-.73-.11.25.25,0,0,0,.07-.12v-.84c0-.29-.82-.91-2.54-1.33a5.21,5.21,0,0,1,1,.81c-.29.09-.69.14-1,.27a6.46,6.46,0,0,1,1.84.49.13.13,0,0,0-.1.13v.91c0,.24.58.57,1.52.53,1.22-.06,3.17-.15,4.29.46a1.49,1.49,0,0,1,0,.21,2.66,2.66,0,0,1-1.63.39,2.38,2.38,0,0,1-.29-.79,1.91,1.91,0,0,0-.18.78l-.44,0a2.61,2.61,0,0,1-.26-1,2,2,0,0,0-.32,1h-.08c-.16.15-.18,1.13.44,1.25a5.57,5.57,0,0,0,2.35-.19,7.68,7.68,0,0,1,1.3-.09,21.88,21.88,0,0,1-2.81,1,9.45,9.45,0,0,0-2.23.75,1.83,1.83,0,0,1-.92-.08c-1.12-.43-2.72-1.29-3-2.59a9.12,9.12,0,0,0-.5-2.36,3.59,3.59,0,0,0-1.69-1.4,1.33,1.33,0,0,0-2,.83c.38-.39.66-.33.83-.25-.19.41.32.52.72.73a1.08,1.08,0,0,1,.49.58,1.84,1.84,0,0,0-1.69-.58,1.27,1.27,0,0,0-1,1.35,1,1,0,0,1,.67-.49c0,.37.38.42.74.49a1.46,1.46,0,0,1,.86.44,1.76,1.76,0,0,0-1.48-.11,1.07,1.07,0,0,0-.31,1.75c-.07-.48.1-.73.21-.79.21.3.47.21.92.17a1,1,0,0,1,1,.87,4.7,4.7,0,0,0,.22.78,1.45,1.45,0,0,0-.52,1.65c.06-.41.51-.81.87-.72a2.22,2.22,0,0,0,.07,1.86,1.27,1.27,0,0,1,.77-.74,2.35,2.35,0,0,0-.06,1.52,1.09,1.09,0,0,1,1-.85,1.47,1.47,0,0,0-.2,1.58,1.93,1.93,0,0,1,1.22-.79,1.85,1.85,0,0,0-.5,2,2.18,2.18,0,0,1,.67-.71,10.87,10.87,0,0,0-.26,1.5,3.62,3.62,0,0,1-2.91-.06c-.87-.54-1.2-1.07-2-1.31a3.43,3.43,0,0,0-2.15.23,1.37,1.37,0,0,0-.83,2c0-.55.24-.7.41-.78.15.43.59.16,1,0a1.1,1.1,0,0,1,.76,0,1.81,1.81,0,0,0-1.6.82,1.26,1.26,0,0,0,.23,1.66,1.12,1.12,0,0,1,.15-.85c.27.26.56,0,.86-.18a1.49,1.49,0,0,1,.92-.3,1.83,1.83,0,0,0-1.14,1,1.07,1.07,0,0,0,1,1.46c-.37-.29-.44-.59-.39-.72.34.07.47-.17.77-.53a1,1,0,0,1,1.3-.11,4.61,4.61,0,0,0,.71.4,1.44,1.44,0,0,0,.78,1.53.85.85,0,0,1,.11-1.13,2.17,2.17,0,0,0,1.34,1.27,1.29,1.29,0,0,1,0-1.08,2.23,2.23,0,0,0,1,1.12,1.13,1.13,0,0,1,0-1.22,9,9,0,0,0,.39.94c1,1.94,1.13,2.78,6.6,3.54,2.92.41,6,1.24,6.53,4.7a4.69,4.69,0,0,1,2,.52A4.88,4.88,0,0,1,82,65.33"/><path class="cls-1" d="M28.63,65.73a4.5,4.5,0,0,0-2.06.45l1.49,1.63L29.15,69c.37.41,2.38.68,4.2.57a4.64,4.64,0,0,0,2.06-.45L32.83,66.3h0c-.38-.4-2.38-.67-4.2-.56"/><path class="cls-1" d="M35.31,65.73a4.5,4.5,0,0,0-2.06.45L35.83,69c.37.41,2.38.68,4.19.57a4.6,4.6,0,0,0,2.06-.45L39.51,66.3h0c-.38-.4-2.38-.67-4.19-.56"/><path class="cls-1" d="M42,65.73a4.46,4.46,0,0,0-2.06.45L42.51,69c.37.41,2.37.68,4.18.57a4.6,4.6,0,0,0,2.06-.45L46.18,66.3h0c-.38-.4-2.37-.67-4.19-.56"/><path class="cls-1" d="M48.66,65.73a4.5,4.5,0,0,0-2.06.45L49.17,69c.39.41,2.38.68,4.2.57a4.64,4.64,0,0,0,2.06-.45L52.86,66.3h0c-.38-.4-2.38-.67-4.2-.56"/><path class="cls-1" d="M55.33,65.73a4.58,4.58,0,0,0-2.06.45c.26.26,2.58,2.83,2.58,2.83.38.41,2.38.68,4.2.57a4.54,4.54,0,0,0,2.05-.45L59.53,66.3h0c-.37-.4-2.38-.67-4.2-.56"/><path class="cls-1" d="M62,65.73a4.46,4.46,0,0,0-2.06.45L62.53,69c.38.41,2.37.68,4.19.57a4.79,4.79,0,0,0,2.07-.45L66.22,66.3h0c-.36-.4-2.36-.67-4.18-.56"/><path class="cls-1" d="M68.69,65.73a4.5,4.5,0,0,0-2.06.45L69.2,69c.38.41,2.37.68,4.2.57a4.6,4.6,0,0,0,2.06-.45l-2.23-2.44-.35-.4c-.38-.4-2.38-.67-4.19-.56"/><path class="cls-1" d="M75.36,65.73a4.5,4.5,0,0,0-2.06.45L75.89,69c.37.41,2.37.68,4.19.57a4.62,4.62,0,0,0,2-.45L79.56,66.3h0c-.37-.4-2.37-.67-4.19-.56"/><path class="cls-1" d="M82,65.73a4.5,4.5,0,0,0-2.06.45c.25.26,2.57,2.83,2.57,2.83.39.41,2.38.68,4.2.57a4.54,4.54,0,0,0,2-.45l-1.81-2-.76-.85c-.37-.4-2.38-.67-4.19-.56"/><path class="cls-1" d="M92.17,66h0a11.82,11.82,0,0,0-2.61-.26,6.39,6.39,0,0,0-2.9.47L89.22,69a4.47,4.47,0,0,0,2.57.43,1.58,1.58,0,0,0,1.38-1.67s0-.1,0-.14c0-.77-.34-1.55-1-1.66"/><path class="cls-1" d="M26.15,66.3a4.36,4.36,0,0,0-2.56-.44,1.59,1.59,0,0,0-1.39,1.68v.13c0,.77.34,1.56,1,1.67h0a10.78,10.78,0,0,0,2.61.26,6.26,6.26,0,0,0,2.9-.47L26.15,66.3"/><path class="cls-2" d="M37.16,41.74l-.46.07h-.09a2.09,2.09,0,0,0,.21.77h.09a2.92,2.92,0,0,1,.25-.86"/><path class="cls-2" d="M37.72,42.5a2.14,2.14,0,0,1,.32-.77h-.45a1.55,1.55,0,0,0,.13.78"/><path class="cls-2" d="M38.51,42.5a2,2,0,0,1,.36-.55,2,2,0,0,0-.34-.13,1.58,1.58,0,0,0,0,.68"/><path class="cls-2" d="M37.45,43.81H37.3a2.39,2.39,0,0,0-.17.61l.52.07a3.31,3.31,0,0,1-.2-.68"/><path class="cls-2" d="M38.16,44.52h.38a2.05,2.05,0,0,1-.22-.66,1.53,1.53,0,0,0-.16.66"/><path class="cls-2" d="M67.73,41.74l-.47.07h-.08a1.77,1.77,0,0,0,.22.77h.09a2.41,2.41,0,0,1,.24-.86"/><path class="cls-2" d="M68.29,42.5a2,2,0,0,1,.32-.77h-.45a1.55,1.55,0,0,0,.13.78"/><path class="cls-2" d="M69.08,42.5a2,2,0,0,1,.36-.55,1.71,1.71,0,0,0-.34-.13,1.32,1.32,0,0,0,0,.68"/><path class="cls-2" d="M68,43.81h-.16a2.39,2.39,0,0,0-.17.61l.51.07a2.73,2.73,0,0,1-.18-.68"/><path class="cls-2" d="M68.72,44.52h.38a2,2,0,0,1-.21-.66,1.53,1.53,0,0,0-.17.66"/><path class="cls-2" d="M33.31,51.37a2.26,2.26,0,0,0-.43.47,2.07,2.07,0,0,1,.39-1.62s0,0,0-.07h0a1.25,1.25,0,0,0-1.2.61,1.89,1.89,0,0,1,.26-1.44,1,1,0,0,0-1.11.61,1.82,1.82,0,0,1,.26-1.28.91.91,0,0,0-1,.59,2.65,2.65,0,0,1,0-1.71.73.73,0,0,0-.95.57,1.24,1.24,0,0,1,.61-1.29c.07,0,.11-.12.06-.25a4,4,0,0,1-.2-.74,1.18,1.18,0,0,0-1.22-1h-.07a1.37,1.37,0,0,1-.54,0c-.11,0-.06-.38-.1-.38s-.07.29-.15.33a.68.68,0,0,0-.34.53.89.89,0,0,1,.4-1.27,1,1,0,0,0,.09-.07,1.69,1.69,0,0,1,1.44.06,1.15,1.15,0,0,0-.87-.59c-.43-.09-.58-.18-.58-.27s.14-.37.08-.4-.15.22-.2.22a.89.89,0,0,0-.6.3,1,1,0,0,1,.78-.88s.1-.06.14-.07l.14,0a1.82,1.82,0,0,1,1.49.5,1.69,1.69,0,0,0-.67-.89c-.2-.11-.37-.18-.4-.26s.16-.45.09-.53-.1.18-.24.15a.88.88,0,0,0-.6.16.8.8,0,0,1,.43-.5,1.17,1.17,0,0,1,.46-.07c.06,0,.14,0,.2,0a2.45,2.45,0,0,1,.58.22,3.23,3.23,0,0,1,1.58,1.31,3.07,3.07,0,0,1,.33,1.27,7.93,7.93,0,0,0,.16,1c.34,1.44,2.11,2.33,3.15,2.74a1.77,1.77,0,0,0,.33.08c.2-.15.4-.28.58-.39a1.55,1.55,0,0,1-.78-.06c-1-.37-2.61-1.2-2.9-2.46a6.63,6.63,0,0,1-.15-1,3.7,3.7,0,0,0-.37-1.42A3.8,3.8,0,0,0,30,40.69a1.72,1.72,0,0,0-1.47,0,1.12,1.12,0,0,0-.58,1,.71.71,0,0,1,.64-.14.32.32,0,0,0,0,.22.41.41,0,0,0,.14.19,1.89,1.89,0,0,0-.44,0c-.75.18-1,.78-1,1.58.14-.21.47-.26.58-.3a.65.65,0,0,0,.37.32l-.21.07a1.18,1.18,0,0,0-.71.84,1.26,1.26,0,0,0,.51,1.14.89.89,0,0,1,.19-.58,1.2,1.2,0,0,0,.85.12H29a.79.79,0,0,1,.79.71,4.33,4.33,0,0,0,.17.68c-.82.58-.43,1.55-.29,1.94,0-.16.28-.65.57-.7a2,2,0,0,0,.37,1.69,1.38,1.38,0,0,1,.59-.61,1.36,1.36,0,0,0,.11,1.37c.12-.33.54-.73.75-.7-.48.53-.07,1.41.08,1.57a2.6,2.6,0,0,1,.74-.69,1.78,1.78,0,0,0,0,1.91,1.24,1.24,0,0,1,.38-.55c0-.15.07-.3.1-.44"/><path class="cls-2" d="M63.88,51.37a2.34,2.34,0,0,0-.44.47,2,2,0,0,1,.4-1.62l.06-.07h0a1.21,1.21,0,0,0-1.2.61A1.87,1.87,0,0,1,63,49.31a.93.93,0,0,0-1.08.61,1.73,1.73,0,0,1,.24-1.28.9.9,0,0,0-1,.59,2.86,2.86,0,0,1,0-1.71c-.45-.21-.9.25-.94.57a1.24,1.24,0,0,1,.61-1.29c.07,0,.11-.12.06-.25a3.68,3.68,0,0,1-.21-.74,1.14,1.14,0,0,0-1.2-1h-.08a1.43,1.43,0,0,1-.55,0c-.09,0,0-.38-.09-.38s-.07.29-.16.33a.68.68,0,0,0-.32.53A.87.87,0,0,1,58.7,44l.08-.07a1.66,1.66,0,0,1,1.43.06,1.1,1.1,0,0,0-.85-.59c-.45-.09-.58-.18-.58-.27s.12-.37.06-.4-.14.22-.2.22a.89.89,0,0,0-.6.3,1,1,0,0,1,.79-.88l.14-.07.14,0a1.79,1.79,0,0,1,1.48.5,1.65,1.65,0,0,0-.65-.89c-.22-.11-.38-.18-.41-.26s.16-.45.1-.53-.11.18-.25.15a.84.84,0,0,0-.59.16.72.72,0,0,1,.43-.5,1,1,0,0,1,.45-.07s.13,0,.19,0a2.36,2.36,0,0,1,.59.22A3.18,3.18,0,0,1,62,42.37a2.66,2.66,0,0,1,.32,1.27,8.12,8.12,0,0,0,.17,1c.33,1.44,2.11,2.33,3.15,2.74a1.77,1.77,0,0,0,.33.08,3.85,3.85,0,0,1,.6-.39,1.61,1.61,0,0,1-.8-.06c-1-.37-2.6-1.2-2.9-2.46a6.74,6.74,0,0,1-.16-1,3.35,3.35,0,0,0-.36-1.42,3.77,3.77,0,0,0-1.79-1.48,1.7,1.7,0,0,0-1.46,0,1.12,1.12,0,0,0-.59,1,.73.73,0,0,1,.64-.14.39.39,0,0,0,0,.22c0,.07.07.13.11.19a1.73,1.73,0,0,0-.41,0c-.77.18-1,.78-1,1.58.13-.21.46-.26.57-.3a.65.65,0,0,0,.37.32l-.21.07a1.16,1.16,0,0,0-.71.84,1.33,1.33,0,0,0,.49,1.14,1,1,0,0,1,.2-.58,1.24,1.24,0,0,0,.86.12h.08a.78.78,0,0,1,.79.71,5.41,5.41,0,0,0,.18.68c-.81.58-.44,1.55-.3,1.94,0-.16.3-.65.58-.7a2.09,2.09,0,0,0,.37,1.69,1.33,1.33,0,0,1,.59-.61,1.38,1.38,0,0,0,.11,1.37c.12-.33.53-.73.74-.7a1.36,1.36,0,0,0,.09,1.57,2.6,2.6,0,0,1,.74-.69,1.76,1.76,0,0,0,0,1.91,1.24,1.24,0,0,1,.38-.55c0-.15.06-.3.1-.44"/><path class="cls-2" d="M31.69,45.57a1.42,1.42,0,0,1,0,1.09.9.9,0,0,1-.1.09,1.19,1.19,0,0,1-.94.43A1.1,1.1,0,0,0,31,46.7c0-.06.18,0,.2-.06s-.09-.07-.25-.15a.63.63,0,0,1-.3-.72c0-.22.16-.34.55-.29-.46-.2-.67-.1-.82.17a.81.81,0,0,0,.29,1,1.35,1.35,0,0,1-.44.59A1.34,1.34,0,0,0,31.68,47,1.29,1.29,0,0,0,32,45.63c-.09-.35-.33-.27-.26-.06"/><path class="cls-2" d="M30.66,44.38a1.21,1.21,0,0,1-.36-1.31.76.76,0,0,0,.36,1.31"/><path class="cls-2" d="M29.69,44.16c-.1.53,0,1,.82,1.09a1.27,1.27,0,0,1-.82-1.09"/><path class="cls-2" d="M62.27,45.57a1.52,1.52,0,0,1,0,1.09s-.09.06-.11.09a1.17,1.17,0,0,1-.94.43,1.06,1.06,0,0,0,.42-.48c0-.06.2,0,.22-.06s-.1-.07-.26-.15a.64.64,0,0,1-.31-.72c.06-.22.18-.34.55-.29-.44-.2-.66-.1-.81.17a.81.81,0,0,0,.29,1,1.43,1.43,0,0,1-.44.59A1.36,1.36,0,0,0,62.26,47a1.26,1.26,0,0,0,.25-1.41c-.08-.35-.33-.27-.24-.06"/><path class="cls-2" d="M61.21,44.38a1.26,1.26,0,0,1-.35-1.31.77.77,0,0,0,.35,1.31"/><path class="cls-2" d="M60.25,44.16c-.1.53,0,1,.82,1.09a1.29,1.29,0,0,1-.82-1.09"/><path class="cls-2" d="M54.49,63.46a1,1,0,0,0,.31,0A2.24,2.24,0,0,0,57,61.27v0c0-.62,0-1.66-2.41-3.18-2.13-1.35-4.87-3.1-4.87-5.78a2.86,2.86,0,0,1,2.83-2.94.29.29,0,0,0,.24-.1,2.29,2.29,0,0,1,1.28-.91,1.59,1.59,0,0,1,1.24.37,2.81,2.81,0,0,0,1.28.43,1.83,1.83,0,0,1,1.25.69,2.72,2.72,0,0,0-2.36.67,2.79,2.79,0,0,1-1,.52,1.61,1.61,0,0,1-1.68-1.2.2.2,0,0,0-.17-.13,2.39,2.39,0,0,0-2.52,2.51c0,2.41,2.59,4.1,4.34,5.21l.69.45c1.76,1.19,2.54,2.26,2.54,3.47a2.68,2.68,0,0,1-.94,2.15,3.78,3.78,0,0,1-2.25.78v.4a4.26,4.26,0,0,0,2.5-.86,3.13,3.13,0,0,0,1.08-2.47c0-1.76-1.55-3-2.72-3.81l-.69-.44C53,56,50.47,54.37,50.47,52.19A2.07,2.07,0,0,1,52.6,50a1.92,1.92,0,0,0,2,1.4,2.93,2.93,0,0,0,1.15-.59c.68-.47,1.46-1,2.28-.61l.52.26-.26-.52a1.86,1.86,0,0,0-1.57-1.1,2.09,2.09,0,0,1-1-.39A2.14,2.14,0,0,0,54,48a2.38,2.38,0,0,0-1.38,1l0,0c-.93.18-3.17.52-3.17,3.3s2.76,4.65,5,6,2.21,2.24,2.21,2.81v.07A1.89,1.89,0,0,1,54.8,63.1a.78.78,0,0,1-.34-.07c0,.14,0,.28,0,.43"/><path class="cls-2" d="M55.62,49.85c-1.21,1-2,.62-2.53.1.18.44,1.18,1.52,2.73-.07a1.49,1.49,0,0,1,1.09-.27,1.35,1.35,0,0,0-1.29.24"/><path class="cls-2" d="M55.51,49.66c.7-.53,1.15-.38,1.87-.1a2,2,0,0,0-2.07,0c-1.19.66-1.53.43-2.23,0,.34.35,1,1.17,2.43.06"/><path class="cls-2" d="M54.4,49.67c.35,0,.66-.38.94-.47a1.23,1.23,0,0,1,.73,0,1.07,1.07,0,0,0-1.12.06,1.46,1.46,0,0,1-1.64,0,1.5,1.5,0,0,1,1.56-.5,1.42,1.42,0,0,0-1.71.52,1.24,1.24,0,0,0,1.24.44"/><path class="cls-2" d="M54.07,49.1a.32.32,0,0,0-.41,0,1.11,1.11,0,0,0,1.16-.1.44.44,0,0,1,.41-.13.53.53,0,0,0-.52.08.76.76,0,0,1-.64.12"/><path class="cls-2" d="M85.07,63.46a.89.89,0,0,0,.3,0,2.23,2.23,0,0,0,2.21-2.22v0c0-.62,0-1.66-2.39-3.18C83,56.7,80.31,55,80.31,52.27c0-2.46,2-2.8,2.83-2.94a.29.29,0,0,0,.24-.1,2.36,2.36,0,0,1,1.28-.91,1.64,1.64,0,0,1,1.26.37,2.71,2.71,0,0,0,1.27.43,1.8,1.8,0,0,1,1.23.69,2.72,2.72,0,0,0-2.36.67,2.76,2.76,0,0,1-1,.52,1.58,1.58,0,0,1-1.67-1.2.2.2,0,0,0-.19-.13,2.38,2.38,0,0,0-2.51,2.51c0,2.41,2.59,4.1,4.35,5.21l.68.45c1.75,1.19,2.53,2.26,2.53,3.47a2.65,2.65,0,0,1-.94,2.15,3.72,3.72,0,0,1-2.23.78c0,.13,0,.27,0,.4a4.24,4.24,0,0,0,2.47-.86,3.1,3.1,0,0,0,1.08-2.47c0-1.76-1.55-3-2.71-3.81l-.7-.44C83.57,56,81,54.37,81,52.19A2.09,2.09,0,0,1,83.17,50a1.91,1.91,0,0,0,2,1.4,2.75,2.75,0,0,0,1.15-.59c.69-.47,1.47-1,2.29-.61l.52.26-.27-.52a1.85,1.85,0,0,0-1.57-1.1,2.09,2.09,0,0,1-1-.39A2.16,2.16,0,0,0,84.6,48a2.37,2.37,0,0,0-1.39,1l0,0c-.92.18-3.17.52-3.17,3.3s2.76,4.65,5,6,2.2,2.24,2.2,2.81v.07a1.88,1.88,0,0,1-1.82,1.83A.74.74,0,0,1,85,63l0,.43"/><path class="cls-2" d="M86.19,49.85c-1.21,1-2,.62-2.54.1.19.44,1.18,1.52,2.74-.07a1.47,1.47,0,0,1,1.07-.27,1.33,1.33,0,0,0-1.27.24"/><path class="cls-2" d="M86.09,49.66a1.55,1.55,0,0,1,1.84-.1,1.94,1.94,0,0,0-2,0c-1.2.66-1.55.43-2.25,0,.34.35,1,1.17,2.45.06"/><path class="cls-2" d="M85,49.67c.35,0,.67-.38,1-.47a1.23,1.23,0,0,1,.73,0,1.09,1.09,0,0,0-1.13.06,1.46,1.46,0,0,1-1.64,0,1.5,1.5,0,0,1,1.56-.5,1.41,1.41,0,0,0-1.71.52,1.23,1.23,0,0,0,1.23.44"/><path class="cls-2" d="M84.65,49.1c-.17-.07-.31-.1-.41,0a1.07,1.07,0,0,0,1.14-.1.45.45,0,0,1,.41-.13.52.52,0,0,0-.51.08.74.74,0,0,1-.63.12"/><path class="cls-2" d="M47.19,65.48l.19,0c0-.16-.05-.33-.08-.47l-.19.07-.06-.31.18-.06a3.22,3.22,0,0,0-.14-.44l-.17.08c0-.11-.09-.21-.12-.31l.18-.05a3.5,3.5,0,0,0-.29-.54l-.17.07-.2-.28.2-.07a3.62,3.62,0,0,0-.36-.42l-.18.07-.28-.27a1.66,1.66,0,0,0,.21-.06l-.39-.33-.22.09a2.25,2.25,0,0,0-.36-.24l.24-.08-.42-.25-.23.1-.47-.22.29-.08-.45-.19-.26.11a5.08,5.08,0,0,0-.59-.18l.34-.1L43,60.93c-.09,0-.21.08-.3.12l-.72-.16c.15,0,.27-.07.41-.11l-.42-.09-.35.13-.87-.13.49-.13-.39-.06-.39.14-.94-.14.5-.12-.31-.05-.38.14-.91-.17c.15,0,.31-.06.48-.11l-.25,0-.36.13c-.3-.06-.58-.13-.83-.2l.42-.09a1.16,1.16,0,0,0-.22-.06l-.33.12-.71-.24.37-.08-.21-.08-.29.11a3.81,3.81,0,0,1-.57-.27l.3-.07-.21-.1-.25.08a2.55,2.55,0,0,1-.41-.3l.25-.06-.19-.16-.21.08c-.11-.11-.2-.22-.29-.32a1.41,1.41,0,0,1,.22-.06,1.81,1.81,0,0,1-.18-.23l-.2.07c-.06-.12-.13-.22-.19-.35L34.7,58l-.16-.29-.18.07c-.06-.11-.11-.23-.17-.35l.19-.06s0,0,0-.05a1.07,1.07,0,0,1-.67-.88.27.27,0,0,0-.1.14l.28.64.12.24c.88,1.83,1.28,2.66,6.63,3.41,3.11.43,6,1.32,6.38,4.69l.19,0v0Z"/><path class="cls-2" d="M33.47,52.64s0-.06,0-.09l-.2.1c0-.11,0-.2,0-.31l.21-.07.07-.33-.22.1c0-.1,0-.2.05-.3l.22-.07.06-.23a.61.61,0,0,1,0-.13l-.22.11v0a2.61,2.61,0,0,1,.06-.27l.22-.07c0-.12.05-.23.09-.35a1.67,1.67,0,0,1-.23.12c0-.09.05-.18.08-.28l.22-.08c0-.12.08-.23.13-.35l-.26.13c0-.1.07-.19.1-.29l.25-.08c.06-.15.12-.28.19-.42l-.28.15a1.66,1.66,0,0,1,.13-.27,1.52,1.52,0,0,1,.28-.09l.21-.36a2.63,2.63,0,0,1-.34.18,1.74,1.74,0,0,1,.2-.3l.31-.11.22-.28a4.72,4.72,0,0,1,2.82-1.52l.46-.12a13.08,13.08,0,0,0,2.53-1l-.62,0c-.62.21-1.34.45-2,.63l-.45.12a8,8,0,0,0-1.8.62,6,6,0,0,0-.59.39,3.87,3.87,0,0,0-.64.64,7.05,7.05,0,0,0-1.47,3.22s0,0,0,0-.06.29-.1.44q-.09.46-.15,1l.41-.13"/><path class="cls-2" d="M43.87,53.16l-.15,0a1.62,1.62,0,0,0,0,.22l.18-.09c0,.12,0,.23,0,.33l-.18.06a1.6,1.6,0,0,0,0,.23c.06,0,.12-.06.17-.1l.06.34-.18.07c0,.05,0,.11,0,.16l.08,0a.3.3,0,0,0,.11-.06,1.23,1.23,0,0,0,.11.34l-.09,0a.28.28,0,0,1-.11,0,1.89,1.89,0,0,0,.11.25l.05,0,.13-.06.17.31-.16.07h0a1.77,1.77,0,0,1,.16.22l.18-.09.23.26s0,0,0,0l-.15.06.19.19.21-.1a1.33,1.33,0,0,0,.3.23l-.22.09.29.2.22-.11.38.18a0,0,0,0,1,0,0l-.24.1.42.18.27-.13a3.37,3.37,0,0,0,.48.15l-.11,0-.2.07.45.12.3-.13.56.1-.26.11-.08,0,.42.09L48.3,57l.6.09a2,2,0,0,1-.33.15l.19,0,.17,0,.07,0,.29-.14.55.11a2.55,2.55,0,0,1-.29.13l.46.13.27-.14.46.16-.12.06-.14.06.32.12.23-.11.39.18,0,0-.2.08.32.18.23-.1.31.22-.22.08.27.2a1.76,1.76,0,0,0,.2-.09l.25.23-.2.07.21.22.19-.08.21.24-.2.07a2.56,2.56,0,0,1,.2.26l.17-.09.18.27-.19.07a2,2,0,0,1,.14.25.41.41,0,0,1,0,.09l.19-.09c0,.1.08.19.13.29l-.19.07a2,2,0,0,1,.15.38.6.6,0,0,0,.18-.09l.12.31-.2.06c0,.12.08.25.11.37l.18-.08a2.38,2.38,0,0,1,.07.31.85.85,0,0,1-.17.06c0,.12.05.23.07.35a1,1,0,0,0,.18-.09c0,.11,0,.22.05.33l-.18.07c0,.1,0,.2,0,.31a1.11,1.11,0,0,1,.19-.09c0,.11,0,.23,0,.34l-.19.07a1.84,1.84,0,0,0,0,.33l.18-.1h0c0,.12,0,.23,0,.36l-.2.07c0,.1,0,.2,0,.3l.14-.07,0,0c0,.12,0,.25,0,.37a.84.84,0,0,1-.2.08c0,.09,0,.18,0,.26h0l.18-.09v.39h0a.55.55,0,0,1-.18.06v.24l.21-.11c0,.13,0,.26,0,.4a1.38,1.38,0,0,1,.2,0c0-.26,0-.51,0-.77v-.39c0-.27,0-.54,0-.79s0-.28,0-.43c-.34-3.75-2-5.54-5.46-6.08l-.18,0c-2.28-.36-4.62-.73-4.7-3.58a1,1,0,0,1-.25-.18"/><path class="cls-2" d="M64,52.64s0-.06,0-.09l-.22.1c0-.11,0-.2,0-.31l.2-.07.06-.33-.22.1c0-.1,0-.2.07-.3l.21-.07a1.55,1.55,0,0,0,.05-.23.65.65,0,0,0,0-.13l-.23.11s0,0,0,0a2.61,2.61,0,0,1,.06-.27l.23-.07c0-.12,0-.23.08-.35l-.23.12a1.64,1.64,0,0,1,.07-.28l.23-.08c0-.12.08-.23.12-.35l-.25.13c0-.1.07-.19.1-.29l.24-.08c.07-.15.13-.28.21-.42l-.3.15c0-.09.09-.18.14-.27l.27-.09c.07-.12.15-.25.23-.36l-.35.18a2.49,2.49,0,0,1,.19-.3l.32-.11c.06-.09.14-.18.22-.28a4.72,4.72,0,0,1,2.81-1.52l.47-.12a13.35,13.35,0,0,0,2.53-1l-.62,0c-.63.21-1.34.45-2,.63l-.46.12a7.7,7.7,0,0,0-1.78.62,3.88,3.88,0,0,0-1.24,1,6.85,6.85,0,0,0-1.47,3.22v0c0,.14-.07.29-.1.44q-.09.46-.15,1l.41-.13"/><path class="cls-2" d="M78,65.41c0-.16,0-.31-.09-.45l-.18.07a2.82,2.82,0,0,0-.07-.31l.19-.06c0-.15-.08-.3-.13-.44l-.19.08a2.88,2.88,0,0,0-.13-.31l.2-.05a4.68,4.68,0,0,0-.3-.54l-.17.07a2,2,0,0,0-.2-.28l.2-.07a4.78,4.78,0,0,0-.34-.42l-.2.07-.28-.27a1.29,1.29,0,0,0,.21-.06,3.37,3.37,0,0,0-.39-.33l-.2.09A2.45,2.45,0,0,0,75.5,62l.25-.08-.42-.25-.23.1-.48-.22a2.45,2.45,0,0,0,.29-.08c-.15-.07-.3-.12-.43-.19l-.28.11a5.58,5.58,0,0,0-.58-.18l.34-.1-.44-.14-.3.12-.73-.16.42-.11-.44-.09a2.68,2.68,0,0,1-.34.13l-.86-.13.48-.13-.39-.06-.38.14c-.34,0-.64-.09-.94-.14.17,0,.32-.07.5-.12l-.32-.05-.37.14-.91-.17c.15,0,.3-.06.47-.11l-.25,0-.35.13c-.31-.06-.58-.13-.83-.2L68.4,60l-.22-.06-.33.12-.71-.24.36-.08-.21-.08-.3.11a4.88,4.88,0,0,1-.56-.27l.3-.07-.21-.1-.25.08a3.08,3.08,0,0,1-.41-.3c.09,0,.17-.05.26-.06a1.75,1.75,0,0,1-.2-.16l-.21.08-.3-.32.23-.06-.18-.23-.18.07a2.43,2.43,0,0,1-.2-.35l.2-.05a2.75,2.75,0,0,1-.17-.29l-.18.07c-.05-.11-.12-.23-.17-.35l.19-.06,0-.05a1.09,1.09,0,0,1-.67-.88s-.07.07-.09.14.18.42.28.64l.11.24c.89,1.83,1.29,2.66,6.63,3.41,3,.42,5.89,1.28,6.37,4.49a2.71,2.71,0,0,1,.4,0"/><path class="cls-2" d="M74.43,53.16l-.15,0a1.62,1.62,0,0,0,0,.22l.2-.09a1.72,1.72,0,0,0,0,.33l-.2.06a1.6,1.6,0,0,0,0,.23l.19-.1a3.43,3.43,0,0,0,.06.34l-.19.07a.94.94,0,0,1,0,.16l.08,0a.21.21,0,0,0,.1-.06,2.72,2.72,0,0,0,.11.34l-.07,0-.11,0a1.86,1.86,0,0,0,.1.25l0,0,.13-.06a2.38,2.38,0,0,0,.17.31l-.16.07h0l.17.22a.61.61,0,0,0,.16-.09l.24.26s0,0,0,0l-.16.06.2.19.2-.1a1.39,1.39,0,0,0,.31.23l-.23.09.29.2.22-.11c.13.06.25.13.38.18h0l-.24.1.43.18L77,56.6a3.82,3.82,0,0,0,.48.15l-.1,0-.2.07a3.74,3.74,0,0,0,.45.12l.28-.13.57.1-.25.11-.08,0,.42.09a3,3,0,0,1,.31-.15l.6.09a1.75,1.75,0,0,1-.34.15l.2,0,.17,0,.06,0,.31-.14.54.11-.29.13.46.13.26-.14.46.16-.11.06-.15.06.33.12.23-.11.39.18,0,0-.21.08.33.18.21-.1.32.22-.22.08.27.2.2-.09.25.23-.2.07.21.22.19-.08a1.59,1.59,0,0,1,.2.24l-.18.07.18.26.18-.09a2,2,0,0,1,.17.27l-.18.07a2,2,0,0,1,.14.25.36.36,0,0,1,0,.09l.19-.09.14.29-.19.07c0,.13.11.25.16.38a.61.61,0,0,0,.16-.09c.05.11.08.21.12.31l-.18.06c0,.12.06.25.1.37l.18-.08c0,.09,0,.2.08.31l-.19.06c0,.12,0,.23.08.35l.18-.09c0,.11,0,.22,0,.33l-.19.07a2.87,2.87,0,0,1,0,.31,1,1,0,0,1,.18-.09c0,.11,0,.23,0,.34l-.18.07c0,.11,0,.22,0,.33l.18-.1h0a2.11,2.11,0,0,1,0,.36l-.18.07v.3a.61.61,0,0,0,.14-.07l.06,0c0,.12,0,.25,0,.37a.84.84,0,0,1-.2.08,2.35,2.35,0,0,1,0,.26h0l.16-.09v.39h0a.58.58,0,0,1-.17.06c0,.08,0,.16,0,.24l.2-.11c0,.14,0,.27,0,.41a1.52,1.52,0,0,1,.21,0c0-.29,0-.57,0-.84s0-.26,0-.39,0-.54,0-.79L85,63C84.69,59.28,83,57.5,79.57,57l-.18,0c-2.28-.36-4.63-.73-4.72-3.58l-.24-.18"/><path class="cls-2" d="M48.68,63.36c-.2.07-.91.33-1.7.58L46.8,64c0,.1.08.2.12.31l.17-.08a5.48,5.48,0,0,0,1.59-.86"/><path class="cls-2" d="M48.73,64.16c-.18.06-.8.28-1.49.5l-.19.06.06.31L47.3,65a5.5,5.5,0,0,0,1.43-.8"/><path class="cls-2" d="M48.76,65l-1.38.48-.19,0v0a7.09,7.09,0,0,1,.94-.16,2.1,2.1,0,0,0,.63-.42"/><path class="cls-2" d="M48.3,62.52c-.19.07-1,.35-1.78.6l-.2.07.2.28.17-.07a5.53,5.53,0,0,0,1.61-.88"/><path class="cls-2" d="M47.79,61.82c-.21.07-1,.36-1.88.62a1.66,1.66,0,0,1-.21.06l.28.27.18-.07a5.9,5.9,0,0,0,1.63-.88"/><path class="cls-2" d="M47.13,61.23c-.2.08-1.06.38-2,.65l-.24.08a2.25,2.25,0,0,1,.36.24l.22-.09a5.68,5.68,0,0,0,1.61-.88"/><path class="cls-2" d="M46.37,60.76c-.23.08-1.12.4-2,.67l-.29.08.47.22.23-.1a5.49,5.49,0,0,0,1.61-.87"/><path class="cls-2" d="M45.51,60.36c-.22.09-1.18.43-2.12.71l-.34.1a5.08,5.08,0,0,1,.59.18l.26-.11a5.53,5.53,0,0,0,1.61-.88"/><path class="cls-2" d="M44.6,60c-.25.09-1.29.46-2.26.74l-.41.11.72.16.3-.12A5.64,5.64,0,0,0,44.6,60"/><path class="cls-2" d="M43.63,59.77c-.24.08-1.42.5-2.45.79l-.48.13.87.13.34-.13a6.27,6.27,0,0,0,1.72-.92"/><path class="cls-2" d="M42.65,59.53c-.28.09-1.6.57-2.68.85l-.5.12.94.14.39-.14a6.48,6.48,0,0,0,1.85-1"/><path class="cls-2" d="M41.67,59.3c-.29.1-1.72.61-2.82.89a4.85,4.85,0,0,1-.49.11l.92.17.38-.14a7.05,7.05,0,0,0,2-1"/><path class="cls-2" d="M40.72,59.06c-.31.11-1.78.64-2.89.92l-.42.09c.25.07.53.14.82.2l.37-.12a7.43,7.43,0,0,0,2.12-1.09"/><path class="cls-2" d="M39.8,58.81c-.29.11-1.76.64-2.86.91l-.37.08c.22.08.44.16.71.24l.33-.12a7.45,7.45,0,0,0,2.19-1.11"/><path class="cls-2" d="M39,58.53c-.27.1-1.68.6-2.78.88l-.3.07a2.53,2.53,0,0,0,.57.27l.29-.11A7.76,7.76,0,0,0,39,58.53"/><path class="cls-2" d="M38.2,58.18c-.28.1-1.58.56-2.66.85-.08,0-.16,0-.24.06a2.55,2.55,0,0,0,.41.3l.25-.08a7.7,7.7,0,0,0,2.24-1.13"/><path class="cls-2" d="M37.56,57.76c-.25.09-1.46.52-2.49.81l-.21.06a4,4,0,0,0,.28.32l.22-.08a7.55,7.55,0,0,0,2.2-1.11"/><path class="cls-2" d="M36.94,57.29l-.84.28a.88.88,0,0,0,.07.23,4.12,4.12,0,0,0,.82-.49l-.05,0"/><path class="cls-2" d="M35.77,57.69c-.33.11-.7.22-1.07.32l-.19.05c.06.13.13.23.19.35l.19-.07a11.66,11.66,0,0,0,1.23-.53,1.32,1.32,0,0,1-.35-.12"/><path class="cls-2" d="M36.33,56.76l-.2.07c0,.06,0,.13,0,.21l.33-.18-.09-.1"/><path class="cls-2" d="M35.16,57.15l-.36.11c0,.09,0,.18,0,.23a1.2,1.2,0,0,1-.39-.12h0l-.19.06c.06.12.11.24.16.35l.19-.07c.28-.11.57-.22.83-.34a1.55,1.55,0,0,1-.21-.23"/><path class="cls-2" d="M43.72,53.2l.15,0a1.62,1.62,0,0,1-.18-.19c-.45.18-.82.29-.92.36a3.44,3.44,0,0,0,.95-.13"/><path class="cls-2" d="M43.75,53.72l.18-.06a3.25,3.25,0,0,1,0-.33l-.18.09c-.7.31-1.32.5-1.49.6a4.79,4.79,0,0,0,1.51-.3"/><path class="cls-2" d="M43.83,54.25l.18-.06L44,53.85l-.17.09c-.74.35-1.45.56-1.62.67a5.67,5.67,0,0,0,1.67-.36"/><path class="cls-2" d="M44,54.73a.28.28,0,0,0,.11,0l.09,0a1.23,1.23,0,0,1-.11-.34.3.3,0,0,1-.11.06l-.08,0c-.79.41-1.63.65-1.82.76A5.42,5.42,0,0,0,44,54.73"/><path class="cls-2" d="M44.24,55.28h0l.16-.08a2.91,2.91,0,0,1-.17-.3l-.13.06-.05,0c-.8.42-1.65.66-1.86.78a5.8,5.8,0,0,0,2-.48"/><path class="cls-2" d="M44.62,55.76l.15-.06s0,0,0,0l-.23-.26-.18.09c-.74.36-1.49.58-1.68.69a5.8,5.8,0,0,0,1.9-.43"/><path class="cls-2" d="M45.1,56.17l.22-.09a2.37,2.37,0,0,1-.3-.23l-.21.1c-.69.32-1.34.51-1.52.62a5.86,5.86,0,0,0,1.81-.4"/><path class="cls-2" d="M45.74,56.54a2.34,2.34,0,0,0,.24-.09,0,0,0,0,0,0,0c-.13,0-.26-.12-.38-.18l-.22.1c-.67.3-1.29.48-1.46.58a5.8,5.8,0,0,0,1.81-.4"/><path class="cls-2" d="M46.6,56.87l.2-.07.11,0a3.37,3.37,0,0,1-.48-.15l-.27.13c-.64.28-1.24.46-1.4.56a5.41,5.41,0,0,0,1.84-.42"/><path class="cls-2" d="M47.57,57.1l.08,0,.26-.11-.56-.1c-.12,0-.2.09-.3.13-.66.3-1.28.48-1.44.58a5.48,5.48,0,0,0,2-.47"/><path class="cls-2" d="M48.55,57.29h0a3.31,3.31,0,0,0,.33-.15L48.3,57l-.31.14c-.68.32-1.32.51-1.48.61a5.77,5.77,0,0,0,2-.5"/><path class="cls-2" d="M49.51,57.47a0,0,0,0,0,0,0l.29-.13-.55-.12-.29.15c-.71.32-1.36.52-1.54.61a5.42,5.42,0,0,0,2-.49"/><path class="cls-2" d="M50.47,57.71l.14-.06.13,0-.46-.16-.27.13c-.67.3-1.28.48-1.44.58a5.74,5.74,0,0,0,1.9-.44"/><path class="cls-2" d="M51.18,58l.2-.08,0,0L51,57.73l-.23.11c-.67.3-1.29.48-1.46.58A5.52,5.52,0,0,0,51.18,58"/><path class="cls-2" d="M51.82,58.39l.22-.08-.31-.22-.23.1c-.66.3-1.27.48-1.44.58a5.32,5.32,0,0,0,1.76-.38"/><path class="cls-2" d="M52.34,58.8l.2-.07a2.73,2.73,0,0,1-.25-.23l-.2.09c-.64.29-1.23.45-1.39.56a5.45,5.45,0,0,0,1.64-.35"/><path class="cls-2" d="M52.75,59.25l.2-.07-.21-.24-.19.08c-.65.29-1.22.45-1.39.55a5.13,5.13,0,0,0,1.59-.32"/><path class="cls-2" d="M53.11,59.76l.19-.07-.18-.27a1.4,1.4,0,0,0-.17.09c-.68.3-1.31.49-1.47.58a5.21,5.21,0,0,0,1.63-.33"/><path class="cls-2" d="M53.43,60.37l.19-.07c-.06-.1-.08-.19-.14-.29l-.18.09c-.69.32-1.34.5-1.5.61a5.44,5.44,0,0,0,1.63-.34"/><path class="cls-2" d="M53.68,61l.19-.06c0-.1-.08-.21-.11-.31l-.18.09c-.69.32-1.34.52-1.53.61A4.92,4.92,0,0,0,53.68,61"/><path class="cls-2" d="M53.87,61.69a.85.85,0,0,0,.17-.06,3,3,0,0,0-.07-.32l-.18.09c-.7.33-1.38.52-1.55.63a5.08,5.08,0,0,0,1.63-.34"/><path class="cls-2" d="M52.34,63.35A5.28,5.28,0,0,0,54.06,63l.2-.07c0-.12,0-.23,0-.35l-.19.1c-.76.37-1.51.58-1.69.69"/><path class="cls-2" d="M54,62.35l.18-.07a1.75,1.75,0,0,0-.06-.33l-.17.09c-.73.34-1.43.54-1.6.65A5.53,5.53,0,0,0,54,62.35"/><path class="cls-2" d="M52.37,64a5.52,5.52,0,0,0,1.74-.38l.2-.07a2.31,2.31,0,0,0,0-.37h0l-.19.09c-.76.39-1.53.6-1.72.72"/><path class="cls-2" d="M52.35,64.68a5.6,5.6,0,0,0,1.79-.39l.2-.08c0-.12,0-.25,0-.37l-.06,0-.13.07c-.78.4-1.58.63-1.78.74"/><path class="cls-2" d="M52.26,65.34a5.67,5.67,0,0,0,1.88-.43.49.49,0,0,0,.17-.06h0v-.39l-.17.09h0c-.81.43-1.68.67-1.88.79"/><path class="cls-2" d="M54.14,65.15l-.11,0a11,11,0,0,1-1.29.56,1.83,1.83,0,0,1,.24.13h0a3,3,0,0,1,1.31-.46,2.55,2.55,0,0,0,0-.39l-.2.11"/><path class="cls-2" d="M34.53,51.92c-.13.06-.52.19-1,.35l-.21.07c0,.11,0,.2,0,.31l.2-.1a3.41,3.41,0,0,0,1.05-.63"/><path class="cls-2" d="M34.53,51.36l-.89.31-.22.07c0,.1,0,.2-.05.3l.22-.1a3.05,3.05,0,0,0,.94-.58"/><path class="cls-2" d="M34.53,50.8l-.74.26-.22.07a2.61,2.61,0,0,0-.06.27v0a2.39,2.39,0,0,0,.22-.12,2.83,2.83,0,0,0,.8-.5"/><path class="cls-2" d="M34.64,50.23l-.69.24-.22.08c0,.1,0,.19-.08.28l.23-.12a2.75,2.75,0,0,0,.76-.48"/><path class="cls-2" d="M34.75,49.67l-.58.21-.25.08a2.47,2.47,0,0,0-.1.29l.26-.13a2.28,2.28,0,0,0,.67-.45"/><path class="cls-2" d="M34.86,49.11a2.87,2.87,0,0,0-.37.14l-.28.08a2.28,2.28,0,0,0-.13.28l.28-.15a1.48,1.48,0,0,0,.5-.35"/><path class="cls-2" d="M35.19,48.54l-.32.12a2.33,2.33,0,0,0-.31.11,1.74,1.74,0,0,0-.2.3c.13-.07.25-.12.34-.18a1.87,1.87,0,0,0,.49-.35"/><path class="cls-2" d="M79.24,63.36c-.19.07-.91.33-1.69.58l-.2.05a2.88,2.88,0,0,1,.13.31l.19-.08a5.14,5.14,0,0,0,1.57-.86"/><path class="cls-2" d="M79.29,64.16c-.18.06-.79.28-1.49.5l-.19.06a2.82,2.82,0,0,1,.07.31l.18-.07a5.32,5.32,0,0,0,1.43-.8"/><path class="cls-2" d="M79.34,65,78,65.41l.49.07a3.16,3.16,0,0,0,.86-.53"/><path class="cls-2" d="M79.36,65.73h0a0,0,0,0,0,0,0h0"/><path class="cls-2" d="M78.87,62.52c-.19.07-1,.35-1.79.6l-.2.07a2,2,0,0,1,.2.28l.17-.07a5.48,5.48,0,0,0,1.62-.88"/><path class="cls-2" d="M78.35,61.82c-.21.07-1,.36-1.88.62a1.29,1.29,0,0,1-.21.06l.28.27.2-.07a5.53,5.53,0,0,0,1.61-.88"/><path class="cls-2" d="M77.7,61.23c-.21.08-1.07.38-2,.65L75.5,62a2.45,2.45,0,0,1,.38.24l.2-.09a5.63,5.63,0,0,0,1.62-.88"/><path class="cls-2" d="M76.93,60.76c-.22.08-1.11.4-2,.67a2.45,2.45,0,0,1-.29.08l.47.22.24-.1a5.53,5.53,0,0,0,1.6-.87"/><path class="cls-2" d="M76.08,60.36c-.22.09-1.19.43-2.12.71l-.34.1c.19,0,.39.11.58.18l.28-.11a5.73,5.73,0,0,0,1.6-.88"/><path class="cls-2" d="M75.16,60c-.23.09-1.29.46-2.26.74l-.41.11.72.16.31-.12A5.4,5.4,0,0,0,75.16,60"/><path class="cls-2" d="M74.19,59.77c-.24.08-1.4.5-2.44.79l-.48.13.86.13a2.68,2.68,0,0,0,.34-.13,6,6,0,0,0,1.72-.92"/><path class="cls-2" d="M73.21,59.53c-.27.09-1.6.57-2.67.85l-.5.12c.29,0,.6.1.94.14l.38-.14a6.33,6.33,0,0,0,1.85-1"/><path class="cls-2" d="M72.23,59.3c-.27.1-1.72.61-2.82.89-.17.05-.32.08-.47.11.28.06.58.12.91.17l.37-.14a6.76,6.76,0,0,0,2-1"/><path class="cls-2" d="M71.27,59.06c-.27.11-1.77.64-2.87.92l-.42.09c.25.07.52.14.83.2l.35-.12a6.91,6.91,0,0,0,2.11-1.09"/><path class="cls-2" d="M70.36,58.81a29.9,29.9,0,0,1-2.86.91l-.36.08.71.24.33-.12a7.22,7.22,0,0,0,2.18-1.11"/><path class="cls-2" d="M69.51,58.53c-.27.1-1.68.6-2.78.88l-.3.07a3.64,3.64,0,0,0,.56.27l.3-.11a7.61,7.61,0,0,0,2.22-1.11"/><path class="cls-2" d="M68.77,58.18c-.28.1-1.59.56-2.65.85-.09,0-.17,0-.26.06a3.08,3.08,0,0,0,.41.3l.25-.08a7.8,7.8,0,0,0,2.25-1.13"/><path class="cls-2" d="M68.13,57.76c-.26.09-1.46.52-2.49.81a1.41,1.41,0,0,0-.22.06,4.2,4.2,0,0,0,.29.32l.21-.08a7.65,7.65,0,0,0,2.21-1.11"/><path class="cls-2" d="M66.35,57.69,65.28,58l-.2.05a2.43,2.43,0,0,0,.2.35l.18-.07a11.66,11.66,0,0,0,1.23-.53,1.16,1.16,0,0,1-.34-.12"/><path class="cls-2" d="M67.51,57.29l-.84.28a1.55,1.55,0,0,0,.07.23,4.12,4.12,0,0,0,.82-.49l0,0"/><path class="cls-2" d="M65.74,57.15a2.89,2.89,0,0,0-.35.11,1.48,1.48,0,0,0,0,.23,1.17,1.17,0,0,1-.4-.12h0l-.19.06c0,.12.12.24.17.35l.18-.07.83-.34a1.1,1.1,0,0,1-.2-.23"/><path class="cls-2" d="M66.91,56.76l-.21.07c0,.06,0,.13,0,.21l.32-.18s-.06-.06-.07-.1"/><path class="cls-2" d="M74.28,53.2l.15,0a1.54,1.54,0,0,1-.17-.19c-.46.18-.82.29-.94.36a3.42,3.42,0,0,0,1-.13"/><path class="cls-2" d="M74.31,53.72l.2-.06a1.69,1.69,0,0,1,0-.33l-.19.09c-.67.31-1.32.5-1.47.6a4.7,4.7,0,0,0,1.49-.3"/><path class="cls-2" d="M74.4,54.25l.19-.06a2,2,0,0,1-.06-.34l-.19.09c-.72.35-1.44.56-1.62.67a5.54,5.54,0,0,0,1.68-.36"/><path class="cls-2" d="M74.55,54.73l.11,0,.07,0a2.72,2.72,0,0,1-.11-.34.21.21,0,0,1-.1.06l-.08,0c-.8.41-1.62.65-1.83.76a5.45,5.45,0,0,0,1.94-.45"/><path class="cls-2" d="M74.81,55.28h0l.16-.08a1.78,1.78,0,0,1-.17-.3L74.7,55l0,0c-.8.42-1.66.66-1.86.78a5.89,5.89,0,0,0,2-.48"/><path class="cls-2" d="M75.18,55.76l.16-.06s0,0,0,0l-.24-.26a.61.61,0,0,1-.16.09c-.76.36-1.51.58-1.68.69a5.77,5.77,0,0,0,1.88-.43"/><path class="cls-2" d="M75.66,56.17l.23-.09a2.49,2.49,0,0,1-.31-.23l-.2.1c-.69.32-1.34.51-1.52.62a5.76,5.76,0,0,0,1.8-.4"/><path class="cls-2" d="M76.3,56.54l.25-.09h0c-.13,0-.25-.12-.38-.18l-.22.1c-.67.3-1.28.48-1.45.58a5.76,5.76,0,0,0,1.8-.4"/><path class="cls-2" d="M77.17,56.87l.2-.07.1,0A3.82,3.82,0,0,1,77,56.6l-.25.13c-.66.28-1.26.46-1.41.56a5.46,5.46,0,0,0,1.84-.42"/><path class="cls-2" d="M78.14,57.1l.08,0,.25-.11-.57-.1-.28.13c-.66.3-1.27.48-1.43.58a5.62,5.62,0,0,0,2-.47"/><path class="cls-2" d="M79.11,57.29h0a2.67,2.67,0,0,0,.34-.15l-.6-.09-.31.14c-.68.32-1.32.51-1.49.61a5.73,5.73,0,0,0,2-.5"/><path class="cls-2" d="M80.08,57.47s0,0,0,0a2.08,2.08,0,0,0,.3-.13l-.54-.12-.31.15c-.69.32-1.36.52-1.52.61a5.42,5.42,0,0,0,2-.49"/><path class="cls-2" d="M81,57.71l.16-.06.11,0-.46-.16-.26.13c-.67.3-1.28.48-1.44.58A5.55,5.55,0,0,0,81,57.71"/><path class="cls-2" d="M81.75,58l.21-.08,0,0-.39-.18-.24.11c-.66.3-1.28.48-1.45.58A5.57,5.57,0,0,0,81.75,58"/><path class="cls-2" d="M82.38,58.39l.23-.08-.32-.22-.21.1c-.66.3-1.29.48-1.45.58a5.28,5.28,0,0,0,1.75-.38"/><path class="cls-2" d="M82.91,58.8l.2-.07-.26-.23a1.21,1.21,0,0,1-.2.09c-.63.29-1.23.45-1.38.56a5.57,5.57,0,0,0,1.64-.35"/><path class="cls-2" d="M83.33,59.25s.12,0,.18-.07a1.59,1.59,0,0,0-.2-.24l-.19.08c-.64.29-1.23.45-1.39.55a5.27,5.27,0,0,0,1.6-.32"/><path class="cls-2" d="M83.67,59.76l.19-.07a2,2,0,0,0-.17-.27,1.51,1.51,0,0,0-.18.09c-.67.3-1.29.49-1.45.58a5.12,5.12,0,0,0,1.61-.33"/><path class="cls-2" d="M84,60.37a1,1,0,0,0,.18-.07A1.92,1.92,0,0,0,84,60l-.18.09c-.68.32-1.34.5-1.5.61A5.43,5.43,0,0,0,84,60.37"/><path class="cls-2" d="M84.26,61l.17-.06a1.92,1.92,0,0,0-.11-.31l-.16.09c-.71.32-1.37.52-1.54.61A5,5,0,0,0,84.26,61"/><path class="cls-2" d="M84.43,61.69l.18-.06a3,3,0,0,0-.07-.32l-.19.09c-.7.33-1.38.52-1.55.63a5,5,0,0,0,1.63-.34"/><path class="cls-2" d="M82.91,63.35A5.46,5.46,0,0,0,84.64,63l.18-.07a2.09,2.09,0,0,1,0-.35l-.18.1c-.76.37-1.51.58-1.69.69"/><path class="cls-2" d="M84.55,62.35l.18-.07c0-.11,0-.23,0-.33l-.18.09c-.72.34-1.44.54-1.6.65a5.38,5.38,0,0,0,1.64-.34"/><path class="cls-2" d="M82.94,64a5.67,5.67,0,0,0,1.75-.38l.18-.07a1.54,1.54,0,0,0,0-.37h0l-.18.09c-.76.39-1.54.6-1.72.72"/><path class="cls-2" d="M82.94,64.68a5.64,5.64,0,0,0,1.76-.39l.2-.08c0-.12,0-.25,0-.37l-.06,0-.14.07c-.77.4-1.58.63-1.75.74"/><path class="cls-2" d="M84.88,64.85h0v-.39l-.17.09h0a16.75,16.75,0,0,1-1.81.75h.35a6.13,6.13,0,0,0,1.46-.4l.17-.06"/><path class="cls-2" d="M84.9,65l-.2.11-.09,0-.34.17.62.07c0-.13,0-.26,0-.4"/><path class="cls-2" d="M65.1,51.92c-.13.06-.53.19-1,.35l-.2.07c0,.11,0,.2,0,.31l.22-.1a3.75,3.75,0,0,0,1-.63"/><path class="cls-2" d="M65.1,51.36l-.9.31-.2.07c0,.1,0,.2-.07.3l.22-.1a3.29,3.29,0,0,0,.95-.58"/><path class="cls-2" d="M65.1,50.8l-.73.26-.23.07a2.61,2.61,0,0,0-.06.27s0,0,0,0l.23-.12a2.83,2.83,0,0,0,.8-.5"/><path class="cls-2" d="M65.2,50.23l-.68.24-.23.08a1.64,1.64,0,0,0-.07.28l.23-.12a2.5,2.5,0,0,0,.75-.48"/><path class="cls-2" d="M65.33,49.67l-.6.21-.24.08c0,.09-.07.19-.1.29l.25-.13a2.48,2.48,0,0,0,.69-.45"/><path class="cls-2" d="M65.43,49.11a2.84,2.84,0,0,0-.38.14l-.27.08-.14.28.3-.15a1.66,1.66,0,0,0,.49-.35"/><path class="cls-2" d="M65.75,48.54l-.31.12a3.07,3.07,0,0,0-.32.11,2.49,2.49,0,0,0-.19.3l.35-.18a1.66,1.66,0,0,0,.47-.35"/><path class="cls-2" d="M49.72,41.1a2.53,2.53,0,0,1-1.78.74c.08.1.16.22.24.34l0,0c.66,0,1.46-.32,2.31-1.55a2.26,2.26,0,0,1-2.25-.52,2.25,2.25,0,0,1-.35.22,2.59,2.59,0,0,0,1.8.73"/><path class="cls-2" d="M49,41.15a1.71,1.71,0,0,1-1.41-.66l-.24,0a2,2,0,0,0,1.65.61"/><path class="cls-2" d="M49,41.31c-.9.35-1.45-.24-2-.64a1.9,1.9,0,0,1,.35.52,1.63,1.63,0,0,0,1.62.12"/><path class="cls-2" d="M47.43,39a2.6,2.6,0,0,0,1.3,0,2.28,2.28,0,0,1-1.93,1.18l-.2.14a1.05,1.05,0,0,1,.31.17h.45l.24,0a1.75,1.75,0,0,0,.32-.12,2.25,2.25,0,0,0,.35-.22,3.88,3.88,0,0,0,1.13-1.71,2.19,2.19,0,0,1-1.95.2,1.76,1.76,0,0,1,0,.4"/><path class="cls-2" d="M48,39.27a1.34,1.34,0,0,1-.65.07.14.14,0,0,1,0,.06,1.48,1.48,0,0,0,.67-.13"/><path class="cls-2" d="M47.25,39.7a.53.53,0,0,1-.06.1,1.62,1.62,0,0,0,.91-.37,1.44,1.44,0,0,1-.85.27"/><path class="cls-2" d="M47.94,41.84a2.42,2.42,0,0,0-.5-.51,2.56,2.56,0,0,1,.16.7c.08.11.17.23.25.36a2.56,2.56,0,0,0,1.85,1.19,2.56,2.56,0,0,1-1.83.5,2.78,2.78,0,0,0,.28.42,2.88,2.88,0,0,0,2.38-1.24,2.3,2.3,0,0,1-2.32-1,.05.05,0,0,1,0,0c-.08-.12-.16-.24-.24-.34"/><path class="cls-2" d="M49,43.53a1.78,1.78,0,0,1-1.37-.94.62.62,0,0,1,0,.13.92.92,0,0,1,0,.16,1.81,1.81,0,0,0,1.39.65"/><path class="cls-2" d="M49,43.69a1.4,1.4,0,0,1-1.35-.37,1.05,1.05,0,0,0,.06.24,1.53,1.53,0,0,0,1.29.13"/><path class="cls-2" d="M47.88,45.25a2.59,2.59,0,0,0,1.69,1.42,2.27,2.27,0,0,1-2.25.09,2.82,2.82,0,0,1,.19.48c.68.33,1.62.33,2.94-.78a2.3,2.3,0,0,1-2.21-1.36l-.42,0a.52.52,0,0,1,.06.13"/><path class="cls-2" d="M48.86,46.53c-.83-.14-1.09-.86-1.43-1.44A1.75,1.75,0,0,1,47.1,45c.41.6.78,1.37,1.76,1.5"/><path class="cls-2" d="M48.83,46.69c-1.21.13-1.49-1-2.08-1.51v.35c.48.54,1,1.33,2.08,1.16"/><path class="cls-2" d="M47.32,46.76A2.56,2.56,0,0,0,46.8,46a2.58,2.58,0,0,0,.76,1.31l-.05-.11a2.82,2.82,0,0,0-.19-.48"/><path class="cls-2" d="M48.69,49.14a2.18,2.18,0,0,1-2.42-.37,2.16,2.16,0,0,1,.16.55c.63.49,1.58.73,3.14-.28a2.28,2.28,0,0,1-1.84-1.28l-.41.06a2.63,2.63,0,0,0,1.37,1.32"/><path class="cls-2" d="M48,48.9a1.63,1.63,0,0,1-1-1.07,1.47,1.47,0,0,1-.21,0A1.91,1.91,0,0,0,48,48.9"/><path class="cls-2" d="M48,49.05c-.91,0-1.21-.69-1.52-1.25l-.33-.08c.38.59.75,1.36,1.85,1.33"/><path class="cls-2" d="M46.27,48.77a2,2,0,0,0-1-1.22.7.7,0,0,0-.19-.06,2.27,2.27,0,0,0-.06.25l.11.06a2.35,2.35,0,0,1,1,1.73,2.56,2.56,0,0,0,1.27,1.82,2.25,2.25,0,0,1-2.21-.52c0,.15,0,.29,0,.45v0c.56.51,1.47.8,3.06.05a2.33,2.33,0,0,1-1.78-1.91.8.8,0,0,0,0-.15,2.16,2.16,0,0,0-.16-.55"/><path class="cls-2" d="M46.69,51c-1.25-.58-.65-2.3-1.71-2.76a1,1,0,0,1,0,.16,4.17,4.17,0,0,1,.6,1.31.68.68,0,0,0,.24.2h-.18a1.92,1.92,0,0,0,1,1.09"/><path class="cls-2" d="M46.62,51.18c-.8-.14-1-.72-1.28-1.27a2.3,2.3,0,0,1-.26,0,1.86,1.86,0,0,0,1.54,1.3"/><path class="cls-2" d="M43.37,49.21a.21.21,0,0,0,0,.07,1.19,1.19,0,0,1,.28,0,.64.64,0,0,1-.15-.13.35.35,0,0,0-.1.08"/><path class="cls-2" d="M45.14,50.83a3.1,3.1,0,0,0-.33-1,3,3,0,0,1-.5-.15,3,3,0,0,1,.48,1.61,2.62,2.62,0,0,0,1,2,2.26,2.26,0,0,1-2.58-1.71.24.24,0,0,0,0-.08l-.31-.07a2.54,2.54,0,0,1,.16.38A3.88,3.88,0,0,0,43.69,53a1.62,1.62,0,0,0,.18.19,1,1,0,0,0,.25.18,2.93,2.93,0,0,0,2.57.06,2.32,2.32,0,0,1-1.51-2.07v0c0-.16,0-.31,0-.45"/><path class="cls-2" d="M45.21,52.85c-1.29-.81-.18-2.7-1.7-3.1,1,.55.32,2.31,1.7,3.1"/><path class="cls-2" d="M43,50.35c1,.3.4,2.21,2.1,2.65-1.61-.49-.67-2.57-2.1-2.65"/><path class="cls-2" d="M42.86,49.59a2.28,2.28,0,0,1,.23-.68l.09-.21a3.81,3.81,0,0,1-.19-.57,3.46,3.46,0,0,1-.25.6A2.71,2.71,0,0,0,42.65,51a2.28,2.28,0,0,1-1.37-2.8c0-.39,0-.77-.29-.95-.08-.05-.24-.08-.31,0,.48.2.38.64.32,1.06a2.4,2.4,0,0,0,1.89,3.14l.31.07.16.05a2.27,2.27,0,0,1-.5-1.93"/><path class="cls-2" d="M42.33,50.29c-.71-1.35,1.18-2.43.07-3.54.64,1-.86,2.15-.07,3.54"/><path class="cls-2" d="M42.2,50.37c-1.15-1.24.68-2.56-.52-3.36.69.76-.75,2.12.52,3.36"/><path class="cls-2" d="M45,49.52a2.25,2.25,0,0,1-1.9-2.45c0-.39-.11-.76-.46-.87-.09,0-.25,0-.31.06.51.09.5.54.52,1a6.34,6.34,0,0,0,.1.9,2.39,2.39,0,0,0,.19.57,3,3,0,0,0,.29.43,1,1,0,0,0,.15.13,2,2,0,0,0,.69.42,3,3,0,0,0,.5.15l.27.05a2.3,2.3,0,0,0,.26,0l.32,0h.18a.68.68,0,0,1-.24-.2,2.43,2.43,0,0,1-.6-1.31.77.77,0,0,0,0-.15,2.46,2.46,0,0,1,0-.54,2.27,2.27,0,0,1,.06-.25.13.13,0,0,1,0-.06l.09-.37a2.44,2.44,0,0,1-.32-.56,3.82,3.82,0,0,1-.15.82,2.68,2.68,0,0,0,.35,2.2"/><path class="cls-2" d="M44.61,49c-1-1.19.66-2.62-.65-3.5.83.86-.42,2.29.65,3.5"/><path class="cls-2" d="M44.47,49.05c-1.37-1,.17-2.65-1.17-3.19.84.6-.29,2.23,1.17,3.19"/><path class="cls-2" d="M46.8,46a2.1,2.1,0,0,1,0-.51v-.35a2.64,2.64,0,0,0,0-.28,2.12,2.12,0,0,1-.42-.25,4.1,4.1,0,0,1,0,.79,2.68,2.68,0,0,0,.88,2,2.25,2.25,0,0,1-2.44-1.91c-.12-.37-.3-.7-.66-.72a.29.29,0,0,0-.29.13c.53,0,.63.41.75.81a5.57,5.57,0,0,0,.25.71,2.44,2.44,0,0,0,.32.56,1.88,1.88,0,0,0,.94.66l.33.08c.11,0,.23,0,.35,0a1.47,1.47,0,0,0,.21,0h.33l.41-.06a2.74,2.74,0,0,0,.37-.08,1.21,1.21,0,0,1-.54-.33A2.58,2.58,0,0,1,46.8,46"/><path class="cls-2" d="M45.1,43.26l-.05.06a1,1,0,0,1,.5.08,2.58,2.58,0,0,1-.08-.26h-.1a.36.36,0,0,0-.27.12"/><path class="cls-2" d="M46.66,47c-1.22-.9,0-2.7-1.46-3.21,1,.62.14,2.32,1.46,3.21"/><path class="cls-2" d="M46.57,47.16c-1.57-.61-.48-2.6-1.91-2.8,1,.38.23,2.24,1.91,2.8"/><path class="cls-2" d="M47.68,43.56a1.05,1.05,0,0,1-.06-.24,3.13,3.13,0,0,1,0-.44.92.92,0,0,0,0-.16.62.62,0,0,0,0-.13,5.23,5.23,0,0,0,0-.56,2.56,2.56,0,0,0-.16-.7s0-.09,0-.14a1.7,1.7,0,0,0-.35-.52l-.12-.12,0,0a1.3,1.3,0,0,0-.31-.16,1.51,1.51,0,0,1-.28.15.92.92,0,0,1,.39.22,2.44,2.44,0,0,1,.5,1.94A2.61,2.61,0,0,0,48,44.77a2.25,2.25,0,0,1-2.32-2.05c-.11-.37-.25-.72-.61-.77-.1,0-.26,0-.3.12a.57.57,0,0,1,.58.42c0,.13.08.29.12.44a1.6,1.6,0,0,0,0,.21,2.58,2.58,0,0,0,.08.26,2.26,2.26,0,0,0,.76,1.25,2.12,2.12,0,0,0,.42.25,3.19,3.19,0,0,0,.37.13,3.23,3.23,0,0,0,.33.06l.38,0a3.17,3.17,0,0,0,.43,0,2.86,2.86,0,0,0,.57-.07,1.63,1.63,0,0,1-.66-.52,2.78,2.78,0,0,1-.28-.42,2.66,2.66,0,0,1-.19-.52"/><path class="cls-2" d="M47.42,44.28c-1.17-1,.18-2.7-1.29-3.3,1,.68,0,2.33,1.29,3.3"/><path class="cls-2" d="M47.31,44.41c-1.53-.69-.33-2.63-1.74-2.9.94.43.11,2.25,1.74,2.9"/><path class="cls-2" d="M80.3,41.1a2.58,2.58,0,0,1-1.78.74l.22.34,0,0c.67,0,1.47-.32,2.32-1.55a2.26,2.26,0,0,1-2.25-.52,3.81,3.81,0,0,1-.34.22,2.57,2.57,0,0,0,1.8.73"/><path class="cls-2" d="M79.57,41.15a1.7,1.7,0,0,1-1.4-.66l-.24,0a2,2,0,0,0,1.64.61"/><path class="cls-2" d="M79.59,41.31c-.91.35-1.45-.24-2-.64a1.67,1.67,0,0,1,.34.52,1.65,1.65,0,0,0,1.63.12"/><path class="cls-2" d="M78,39a2.64,2.64,0,0,0,1.31,0c-.73,1-1.34,1.2-1.94,1.18-.07,0-.13.1-.21.14a.94.94,0,0,1,.31.17h.46l.24,0a2.67,2.67,0,0,0,.33-.12A3,3,0,0,0,80,38.44a2.17,2.17,0,0,1-1.94.2,2.61,2.61,0,0,1,0,.4"/><path class="cls-2" d="M78.61,39.27a1.41,1.41,0,0,1-.66.07s0,0,0,.06a1.57,1.57,0,0,0,.68-.13"/><path class="cls-2" d="M77.82,39.7a.53.53,0,0,0-.06.1,1.57,1.57,0,0,0,.9-.37,1.37,1.37,0,0,1-.84.27"/><path class="cls-2" d="M78.52,41.84a4.15,4.15,0,0,0-.5-.52,3.19,3.19,0,0,1,.14.71,3.32,3.32,0,0,1,.26.36,2.56,2.56,0,0,0,1.85,1.19,2.57,2.57,0,0,1-1.83.5,2.78,2.78,0,0,0,.28.42,2.89,2.89,0,0,0,2.39-1.24,2.33,2.33,0,0,1-2.34-1l0,0-.22-.34"/><path class="cls-2" d="M79.54,43.53a1.84,1.84,0,0,1-1.38-.94v.13a.81.81,0,0,0,0,.16,1.83,1.83,0,0,0,1.39.65"/><path class="cls-2" d="M79.54,43.69a1.42,1.42,0,0,1-1.36-.37,1.05,1.05,0,0,0,.06.24,1.55,1.55,0,0,0,1.3.13"/><path class="cls-2" d="M78.45,45.25a2.57,2.57,0,0,0,1.69,1.42,2.29,2.29,0,0,1-2.26.09,4.1,4.1,0,0,1,.21.48c.67.33,1.6.33,2.91-.78a2.28,2.28,0,0,1-2.18-1.36l-.43,0,.06.13"/><path class="cls-2" d="M79.43,46.53c-.83-.14-1.1-.86-1.44-1.44a1.42,1.42,0,0,1-.31-.06c.41.6.77,1.37,1.75,1.5"/><path class="cls-2" d="M79.39,46.69c-1.21.13-1.49-1-2.08-1.51v.35c.48.54,1,1.33,2.08,1.16"/><path class="cls-2" d="M77.88,46.76a2.53,2.53,0,0,0-.51-.72,2.58,2.58,0,0,0,.76,1.31.49.49,0,0,0,0-.11,4.1,4.1,0,0,0-.21-.48"/><path class="cls-2" d="M79.25,49.14a2.14,2.14,0,0,1-2.4-.37,4.94,4.94,0,0,1,.15.55c.63.49,1.57.73,3.15-.28a2.3,2.3,0,0,1-1.86-1.28l-.41.06a2.63,2.63,0,0,0,1.37,1.32"/><path class="cls-2" d="M78.56,48.9a1.67,1.67,0,0,1-1-1.07,1.47,1.47,0,0,1-.21,0,1.93,1.93,0,0,0,1.22,1.07"/><path class="cls-2" d="M78.52,49.05c-.91,0-1.22-.69-1.53-1.25l-.33-.08c.39.59.77,1.36,1.86,1.33"/><path class="cls-2" d="M76.85,48.77a2.06,2.06,0,0,0-1-1.22.9.9,0,0,0-.22-.06,2.21,2.21,0,0,1,0,.25l.11.06a2.32,2.32,0,0,1,1,1.73,2.64,2.64,0,0,0,1.26,1.82,2.25,2.25,0,0,1-2.2-.52,3.27,3.27,0,0,1,0,.45v0c.57.51,1.48.8,3.07.05A2.35,2.35,0,0,1,77,49.47a.39.39,0,0,0,0-.15,4.94,4.94,0,0,0-.15-.55"/><path class="cls-2" d="M77.25,51c-1.24-.58-.64-2.3-1.7-2.76,0,.06,0,.11,0,.16a3.77,3.77,0,0,1,.6,1.31.7.7,0,0,0,.25.2h-.17a1.82,1.82,0,0,0,1,1.09"/><path class="cls-2" d="M77.19,51.18c-.81-.14-1.06-.72-1.28-1.27l-.26,0a1.86,1.86,0,0,0,1.54,1.3"/><path class="cls-2" d="M73.94,49.21l0,.07a1.32,1.32,0,0,1,.28,0L74,49.13a.35.35,0,0,0-.1.08"/><path class="cls-2" d="M75.7,50.83a2.68,2.68,0,0,0-.33-1,3.65,3.65,0,0,1-.5-.15,2.9,2.9,0,0,1,.49,1.61,2.68,2.68,0,0,0,1,2,2.25,2.25,0,0,1-2.57-1.71s0,0,0-.08l-.31-.07c.06.12.11.25.16.38A3.49,3.49,0,0,0,74.26,53c0,.07.12.13.17.19l.24.18a3,3,0,0,0,2.58.06,2.35,2.35,0,0,1-1.51-2.07v0a3.14,3.14,0,0,0,0-.45"/><path class="cls-2" d="M75.78,52.85c-1.28-.81-.18-2.7-1.69-3.1,1,.55.31,2.31,1.69,3.1"/><path class="cls-2" d="M73.59,50.35c1,.3.4,2.21,2.09,2.65-1.6-.49-.66-2.57-2.09-2.65"/><path class="cls-2" d="M73.43,49.59a2.69,2.69,0,0,1,.22-.68,2.12,2.12,0,0,0,.11-.21,2,2,0,0,1-.2-.57,6.32,6.32,0,0,1-.25.6A2.63,2.63,0,0,0,73.23,51a2.29,2.29,0,0,1-1.39-2.8c0-.39,0-.77-.28-.95a.27.27,0,0,0-.31,0c.48.2.38.64.32,1.06a2.41,2.41,0,0,0,1.89,3.14l.31.07.15.05a2.27,2.27,0,0,1-.49-1.93"/><path class="cls-2" d="M72.9,50.29c-.7-1.35,1.19-2.43.06-3.54.64,1-.85,2.15-.06,3.54"/><path class="cls-2" d="M72.76,50.37c-1.15-1.24.68-2.56-.52-3.36.7.76-.74,2.12.52,3.36"/><path class="cls-2" d="M75.61,49.52a2.25,2.25,0,0,1-1.91-2.45c0-.39-.1-.76-.46-.87-.09,0-.25,0-.31.06.52.09.5.54.53,1a5.15,5.15,0,0,0,.1.9,2,2,0,0,0,.2.57,1.58,1.58,0,0,0,.28.43l.14.13a2.23,2.23,0,0,0,.69.42,3.65,3.65,0,0,0,.5.15l.28.05.26,0c.11,0,.21,0,.33,0h.17a.7.7,0,0,1-.25-.2,2.5,2.5,0,0,1-.6-1.31s0-.1,0-.15a3.27,3.27,0,0,1,0-.54,2.21,2.21,0,0,0,0-.25s0,0,0-.06,0-.25.08-.37a2.39,2.39,0,0,1-.31-.56,3.82,3.82,0,0,1-.15.82,2.64,2.64,0,0,0,.35,2.2"/><path class="cls-2" d="M75.17,49c-1-1.19.69-2.62-.64-3.5.82.86-.41,2.29.64,3.5"/><path class="cls-2" d="M75,49.05c-1.36-1,.17-2.65-1.17-3.19.84.6-.31,2.23,1.17,3.19"/><path class="cls-2" d="M77.37,46a2.1,2.1,0,0,1-.06-.51v-.35a2.64,2.64,0,0,0,0-.28,2.12,2.12,0,0,1-.42-.25,4.09,4.09,0,0,1,0,.79,2.64,2.64,0,0,0,.88,2,2.24,2.24,0,0,1-2.44-1.91c-.13-.37-.3-.7-.66-.72-.1,0-.26,0-.28.13.52,0,.62.41.73.81.08.21.14.46.26.71a2.39,2.39,0,0,0,.31.56,2,2,0,0,0,.94.66l.33.08.35,0a1.47,1.47,0,0,0,.21,0h.33l.41-.06a2.45,2.45,0,0,0,.37-.08,1.19,1.19,0,0,1-.53-.33A2.58,2.58,0,0,1,77.37,46"/><path class="cls-2" d="M75.66,43.26l0,.06a1,1,0,0,1,.5.08,2.5,2.5,0,0,1-.07-.26H76a.39.39,0,0,0-.29.12"/><path class="cls-2" d="M77.23,47c-1.22-.9,0-2.7-1.46-3.21,1,.62.15,2.32,1.46,3.21"/><path class="cls-2" d="M77.13,47.16c-1.57-.61-.47-2.6-1.9-2.8,1,.38.24,2.24,1.9,2.8"/><path class="cls-2" d="M78.24,43.56a1.05,1.05,0,0,1-.06-.24,2.12,2.12,0,0,1,0-.44.81.81,0,0,1,0-.16v-.13a3.49,3.49,0,0,0,0-.56,3.19,3.19,0,0,0-.14-.71s0-.08-.06-.13a1.67,1.67,0,0,0-.34-.52.71.71,0,0,0-.13-.12l0,0a1.24,1.24,0,0,0-.3-.16,1.59,1.59,0,0,1-.29.15.87.87,0,0,1,.39.22,2.31,2.31,0,0,1,.49,1.94,2.66,2.66,0,0,0,.78,2.09,2.26,2.26,0,0,1-2.34-2.05c-.11-.37-.25-.72-.62-.77a.31.31,0,0,0-.3.12.56.56,0,0,1,.58.42,2,2,0,0,1,.12.44l.06.21a2.5,2.5,0,0,0,.07.26,2,2,0,0,0,1.18,1.5,3.56,3.56,0,0,0,.39.13,2.44,2.44,0,0,0,.31.06l.4,0,.43,0a4.56,4.56,0,0,0,.57-.08,1.53,1.53,0,0,1-.67-.52,3.82,3.82,0,0,1-.28-.42,2.67,2.67,0,0,1-.2-.52"/><path class="cls-2" d="M78,44.28c-1.17-1,.17-2.7-1.28-3.3,1,.68,0,2.33,1.28,3.3"/><path class="cls-2" d="M77.88,44.41c-1.52-.69-.33-2.63-1.74-2.9.93.43.1,2.25,1.74,2.9"/><path class="cls-2" d="M43.92,37.21H44c.35-.06.67-.06.87-.3a2,2,0,0,1,.35.73,2.84,2.84,0,0,1,.42-.08l.08,0a3.25,3.25,0,0,0-1-1.69.92.92,0,0,1-.74,1,2.74,2.74,0,0,0-.84.24h.13a3.31,3.31,0,0,1,.7.15"/><path class="cls-2" d="M74.5,37.21h.06c.35-.06.67-.06.88-.3a2.53,2.53,0,0,1,.34.73,2.84,2.84,0,0,1,.42-.08l.08,0a3.27,3.27,0,0,0-1-1.69.91.91,0,0,1-.73,1,2.66,2.66,0,0,0-.84.24h.13a3.88,3.88,0,0,1,.71.15"/><path class="cls-2" d="M37.45,43.81a5.92,5.92,0,0,1,2.71.49l.09,0c0-.1,0-.2,0-.29-1.15-.6-3.09-.5-4.29-.45a2,2,0,0,1-1.39-.33.33.33,0,0,1-.06-.12v-.65a2,2,0,0,0,1.41.49,8.29,8.29,0,0,1,4.26.76,4.44,4.44,0,0,0-.17-.48,7.76,7.76,0,0,0-3.06-.59h-1a2.27,2.27,0,0,1-.41,0v-.77c0-.63-1.32-1.24-2.72-1.59a.27.27,0,0,0-.3.17.28.28,0,0,0,.12.33,3.55,3.55,0,0,1,.6.44,2.42,2.42,0,0,0-.56.15.25.25,0,0,0-.17.28.25.25,0,0,0,.21.23,7.19,7.19,0,0,1,1.51.37h0v.89a.53.53,0,0,0,.15.35,2.27,2.27,0,0,0,1.64.44c.38,0,.87,0,1.36,0Zm-2.31-1.35a1,1,0,0,1-.47-.33.29.29,0,0,0,0-.09l.18,0a.75.75,0,0,0,.31-.07Zm-.86-.6A7.22,7.22,0,0,0,33,41.5a2.82,2.82,0,0,0,.31-.07l.43-.1.06,0a.09.09,0,0,0,0-.07,4.61,4.61,0,0,0-.67-.59,4.4,4.4,0,0,1,2,1,.26.26,0,0,0-.07.1l-.14,0a.73.73,0,0,0-.55.17"/><path class="cls-2" d="M68,43.81a5.83,5.83,0,0,1,2.69.49l.09,0a1.35,1.35,0,0,0,0-.29c-1.15-.6-3.09-.5-4.29-.45a2,2,0,0,1-1.37-.33.26.26,0,0,1-.07-.12v-.65a2,2,0,0,0,1.4.49,8.27,8.27,0,0,1,4.26.76,2.25,2.25,0,0,0-.16-.48,7.79,7.79,0,0,0-3.05-.59h-1a2.59,2.59,0,0,1-.41,0v-.77c0-.63-1.32-1.24-2.72-1.59a.28.28,0,0,0-.31.17.3.3,0,0,0,.12.33,3.55,3.55,0,0,1,.6.44,2.56,2.56,0,0,0-.56.15.25.25,0,0,0-.17.28.28.28,0,0,0,.21.23,7.27,7.27,0,0,1,1.53.37v.9a.43.43,0,0,0,.14.35,2.24,2.24,0,0,0,1.63.44c.4,0,.87,0,1.37,0Zm-2.32-1.35a1.07,1.07,0,0,1-.48-.33.28.28,0,0,0,0-.09l.18,0a.75.75,0,0,0,.31-.07Zm-.86-.6a7.22,7.22,0,0,0-1.32-.36c.1,0,.2,0,.31-.07l.43-.1,0,0a.15.15,0,0,0,0-.07,6.51,6.51,0,0,0-.67-.59,4.53,4.53,0,0,1,2,1,.44.44,0,0,0-.08.1.7.7,0,0,1-.13,0,.73.73,0,0,0-.55.17"/><path class="cls-2" d="M40.9,45.7h.23a10,10,0,0,0,1.68-.13,1.37,1.37,0,0,0,1-.6s0,0,0,0a2.54,2.54,0,0,0,.13-.44,8.89,8.89,0,0,0,.09-1.08c0-.68.21-1.89.59-1.89a.54.54,0,0,0-.25.06c-.48.21-.72,1.11-.73,1.82a3.68,3.68,0,0,1-.2,1.39.76.76,0,0,1-.38.31,1.6,1.6,0,0,0-.1.23l-.27.06.12-.2-.3.07a1.62,1.62,0,0,0-.1.18h-.25a.83.83,0,0,0,.11-.15l-.27,0-.09.14H41.7l.1-.14-.25,0a.83.83,0,0,1-.08.12h-.21a.58.58,0,0,1,.1-.12h-.23L41,45.5h-.2a.58.58,0,0,0,.1-.12h-.22l-.08.12h-.19a.49.49,0,0,0,.12-.13l-.23,0-.09.12-.17,0a.87.87,0,0,1,.15-.13l-.27,0-.11.15h0l-.14,0,.19-.17a.29.29,0,0,1-.1,0,5.47,5.47,0,0,1-2.26.12.63.63,0,0,1-.44-.3.9.9,0,0,1,.07-.56,4.86,4.86,0,0,0,3.2-.31l.08-.07v-.1a3.22,3.22,0,0,0-1-2.39,3.47,3.47,0,0,0-2.76-.47,7.94,7.94,0,0,1-.47-1.26c-.14-.49.57-.69,1-.72-.36-.35-1.32-.13-1.15-.31.36-.36,1.86-.22,2.35-.16l.2,0c.1,0,1-.06,1.16.44.31.74.72.1,1.07,0a2.22,2.22,0,0,1,1.91.09,1.58,1.58,0,0,0-2-1,1.38,1.38,0,0,1-1.65-.33c-.06-.12,0-.17,0-.19s.26-.35,1.05-.39a14.22,14.22,0,0,1,3-.09,3.37,3.37,0,0,1,1.39.47,1.14,1.14,0,0,1,.36-.19,2.78,2.78,0,0,0-1-.52,3.31,3.31,0,0,0-.7-.15h-.13a10.68,10.68,0,0,0-3,.09c-.68.1-1.16.08-1.38.44a.43.43,0,0,0-.08.27.55.55,0,0,0,.08.31,1.84,1.84,0,0,1,.16.42.56.56,0,0,1-.19,0l-.19,0c-1.09-.11-2.25-.18-2.68.3a.63.63,0,0,0-.16.58,11,11,0,0,0,.76,2.27l.06.14.12,0h.09l.46-.07.43,0H38a2.65,2.65,0,0,1,.49.09,2,2,0,0,1,.34.13,1.23,1.23,0,0,1,.36.23,2.79,2.79,0,0,1,.74,1,4.44,4.44,0,0,1,.17.48c0,.1,0,.19.07.3s0,.19,0,.29l-.09,0a5.23,5.23,0,0,1-1.62.22h-.38l-.5,0-.53-.07-.16,0c-.34.34-.53,1.49.48,1.59a7.25,7.25,0,0,0,2.43-.2l.4-.05.62,0M40.21,39a2.82,2.82,0,0,0,.87-.18c-.64.32-.79.43-.87.63-.06-.2-.08-.36,0-.45"/><path class="cls-2" d="M39.55,41.47c1.54,1.06,1,3.38,1.67,3.12-.29,0-.24-2.67-1.67-3.12"/><path class="cls-2" d="M71.47,45.7h.23a9.92,9.92,0,0,0,1.67-.13,1.37,1.37,0,0,0,1-.6l0,0a1.89,1.89,0,0,0,.14-.44,6.16,6.16,0,0,0,.08-1.08c0-.68.21-1.89.59-1.89a.46.46,0,0,0-.23.06c-.49.21-.73,1.11-.75,1.82A3.7,3.7,0,0,1,74,44.79a.83.83,0,0,1-.39.31.89.89,0,0,1-.1.23l-.26.06c0-.06.07-.14.11-.2l-.3.07-.09.18h-.24a.75.75,0,0,0,.09-.15l-.27,0a.64.64,0,0,0-.08.14h-.22a.45.45,0,0,1,.1-.14l-.26,0-.08.12h-.21a.58.58,0,0,1,.1-.12h-.24l-.09.12h-.19l.11-.12H71.3l-.1.12H71l.12-.13-.22,0a1.31,1.31,0,0,0-.11.12l-.16,0a.83.83,0,0,1,.14-.13l-.26,0-.11.15h0l-.14,0,.2-.17-.1,0a5.52,5.52,0,0,1-2.27.12.72.72,0,0,1-.44-.3,1.07,1.07,0,0,1,.07-.56,4.88,4.88,0,0,0,3.21-.31l.08-.07v-.1a3.26,3.26,0,0,0-1-2.39,3.48,3.48,0,0,0-2.76-.47,8.76,8.76,0,0,1-.48-1.26c-.12-.49.57-.69,1-.72-.35-.35-1.32-.13-1.13-.31.36-.36,1.85-.22,2.34-.16l.2,0c.09,0,1-.06,1.16.44.3.74.71.1,1.07,0a2.18,2.18,0,0,1,1.89.09,1.55,1.55,0,0,0-2-1,1.37,1.37,0,0,1-1.65-.33c-.06-.12,0-.17,0-.19s.24-.35,1-.39a14.15,14.15,0,0,1,3-.09,3.41,3.41,0,0,1,1.4.47,1.09,1.09,0,0,1,.35-.19,2.77,2.77,0,0,0-1-.52,3.88,3.88,0,0,0-.71-.15h-.13a10.77,10.77,0,0,0-3,.09c-.68.1-1.16.08-1.38.44a.63.63,0,0,0,0,.58,2.61,2.61,0,0,1,.16.42.5.5,0,0,1-.18,0l-.2,0c-1.08-.11-2.25-.18-2.68.3a.62.62,0,0,0-.14.58A10.22,10.22,0,0,0,67,41.7l.06.14.13,0h.08l.47-.07.42,0h.46a2.7,2.7,0,0,1,.48.09,1.59,1.59,0,0,1,.35.13,1.56,1.56,0,0,1,.36.23,2.79,2.79,0,0,1,.74,1,2.25,2.25,0,0,1,.16.48,2.64,2.64,0,0,1,.07.3,1.35,1.35,0,0,1,0,.29l-.09,0a5.13,5.13,0,0,1-1.62.22h-.38l-.51,0-.51-.07-.16,0c-.34.34-.52,1.49.47,1.59a7.31,7.31,0,0,0,2.44-.2l.4-.05.62,0M70.78,39a2.76,2.76,0,0,0,.87-.18c-.64.32-.79.43-.87.63-.06-.2-.09-.36,0-.45"/><path class="cls-2" d="M70.12,41.47c1.54,1.06.95,3.38,1.67,3.12-.28,0-.24-2.67-1.67-3.12"/><path class="cls-2" d="M43.39,43.93a8.32,8.32,0,0,1-.56,1.26l-.12.2.27-.06a1.6,1.6,0,0,1,.1-.23,3.72,3.72,0,0,0,.31-1.17"/><path class="cls-2" d="M42.29,45.3a.83.83,0,0,1-.11.15h.25a1.62,1.62,0,0,1,.1-.18,3.33,3.33,0,0,0,.37-1.13,8.49,8.49,0,0,1-.61,1.17"/><path class="cls-2" d="M41.8,45.35l-.1.14h.23l.09-.14a3.31,3.31,0,0,0,.41-1,11.76,11.76,0,0,1-.63,1"/><path class="cls-2" d="M41.93,44.54a7.7,7.7,0,0,1-.57.84.58.58,0,0,0-.1.12h.21a.57.57,0,0,0,.08-.13,2.19,2.19,0,0,0,.38-.82"/><path class="cls-2" d="M40.94,45.38a.58.58,0,0,1-.1.12H41l.09-.12a2.74,2.74,0,0,0,.33-.64c-.08.09-.25.35-.52.64"/><path class="cls-2" d="M40.57,45.39a.49.49,0,0,1-.12.13h.19l.08-.12A2,2,0,0,0,41,45c-.06.07-.2.23-.4.44"/><path class="cls-2" d="M40.23,45.42a.87.87,0,0,0-.15.13l.17,0,.09-.12a2.17,2.17,0,0,0,.15-.26l-.26.27"/><path class="cls-2" d="M39.89,45.45l-.19.17.13,0h0l.11-.15s0-.07,0-.09a1.33,1.33,0,0,1-.11.1"/><path class="cls-2" d="M74,43.93a7.37,7.37,0,0,1-.56,1.26c0,.06-.07.14-.11.2l.26-.06a.89.89,0,0,0,.1-.23A3.22,3.22,0,0,0,74,43.93"/><path class="cls-2" d="M72.85,45.3a.75.75,0,0,1-.09.15H73l.09-.18a3.71,3.71,0,0,0,.38-1.13,7,7,0,0,1-.62,1.17"/><path class="cls-2" d="M72.38,45.35a.45.45,0,0,0-.1.14h.22a.64.64,0,0,1,.08-.14,3,3,0,0,0,.41-1,8.32,8.32,0,0,1-.61,1"/><path class="cls-2" d="M72.51,44.54c-.08.11-.28.45-.58.84a.58.58,0,0,0-.1.12H72a.57.57,0,0,0,.08-.13,2.71,2.71,0,0,0,.39-.82"/><path class="cls-2" d="M71.52,45.38l-.11.12h.2a1.25,1.25,0,0,0,.08-.12,1.89,1.89,0,0,0,.33-.64,7.74,7.74,0,0,1-.5.64"/><path class="cls-2" d="M71.14,45.39l-.12.13h.18l.1-.12a2.3,2.3,0,0,0,.24-.44c-.05.07-.2.23-.4.44"/><path class="cls-2" d="M70.79,45.42a.83.83,0,0,0-.14.13l.16,0a1.31,1.31,0,0,1,.11-.12,1.15,1.15,0,0,0,.14-.26l-.27.27"/><path class="cls-2" d="M70.46,45.45l-.2.17.14,0h0l.11-.15,0-.09-.12.1"/><path class="cls-2" d="M45.21,37.63l-.29.1a1.35,1.35,0,0,0-.36.18,2.18,2.18,0,0,0-.84,1.35c.28-1.13,1.27-1.2,2-1.31.36-.06.67-.08.87-.31a1.8,1.8,0,0,1,.25,1.85c-.37.69-1.22,1.29-1.92.78a.85.85,0,0,0,.2.22l.14.09a1.18,1.18,0,0,0,.38.09,1.72,1.72,0,0,0,.72-.15,1.51,1.51,0,0,0,.28-.15l.2-.14a2,2,0,0,0,.39-.43l.06-.1a0,0,0,0,0,0,0,1.25,1.25,0,0,0,.1-.27.14.14,0,0,0,0-.06,1.77,1.77,0,0,0,0-.29,1.88,1.88,0,0,0,0-.41,3.16,3.16,0,0,0-1.09-2.07.94.94,0,0,1-.65,1l-.08,0a2.84,2.84,0,0,0-.42.08"/><path class="cls-2" d="M45.19,40.07a4.89,4.89,0,0,0-.37-1.47l-.18.09a14,14,0,0,1,.55,1.38"/><path class="cls-2" d="M44.72,39.9a3.2,3.2,0,0,0-.23-1.09.67.67,0,0,0-.14.15,6.28,6.28,0,0,1,.37.94"/><path class="cls-2" d="M44.34,39.76a2.3,2.3,0,0,0-.08-.57.64.64,0,0,0,0,.24h0c.06.15.1.27.12.33"/><path class="cls-2" d="M45.55,40.05a5.1,5.1,0,0,0-.41-1.57,1.17,1.17,0,0,0-.2.06c.3.69.56,1.33.61,1.51"/><path class="cls-2" d="M45.48,38.38l-.21.06c.3.66.54,1.25.59,1.43a5.33,5.33,0,0,0-.38-1.49"/><path class="cls-2" d="M46.11,39.63a4.37,4.37,0,0,0-.32-1.32l-.19,0c.26.61.47,1.12.51,1.28"/><path class="cls-2" d="M46.1,38.22a1,1,0,0,1-.16.06,8.39,8.39,0,0,1,.34.9,3,3,0,0,0-.18-1"/><path class="cls-2" d="M46.32,38.13l-.08,0c.07.17.11.31.14.38a1.4,1.4,0,0,0-.06-.43"/><path class="cls-2" d="M75.78,37.63l-.3.1a1.29,1.29,0,0,0-.35.18,2.18,2.18,0,0,0-.85,1.35c.29-1.13,1.27-1.2,2-1.31a1.41,1.41,0,0,0,.87-.31,1.79,1.79,0,0,1,.24,1.85c-.36.69-1.21,1.29-1.92.78a.88.88,0,0,0,.21.22.67.67,0,0,0,.14.09,1.25,1.25,0,0,0,.37.09,1.72,1.72,0,0,0,.72-.15,1.25,1.25,0,0,0,.28-.15c.08,0,.14-.1.21-.14a2.23,2.23,0,0,0,.39-.43.53.53,0,0,1,.06-.1v0a2.18,2.18,0,0,0,.11-.27s0,0,0-.06,0-.2,0-.29a2.82,2.82,0,0,0,0-.41,3.2,3.2,0,0,0-1.09-2.07.93.93,0,0,1-.65,1l-.08,0a3.1,3.1,0,0,0-.42.08"/><path class="cls-2" d="M75.76,40.07a5.24,5.24,0,0,0-.37-1.47l-.18.09c.27.65.51,1.2.55,1.38"/><path class="cls-2" d="M75.29,39.9a3,3,0,0,0-.24-1.09,1,1,0,0,0-.12.15,9,9,0,0,1,.36.94"/><path class="cls-2" d="M74.9,39.76a1.4,1.4,0,0,0-.08-.57.93.93,0,0,0,0,.24h0c0,.15.1.27.11.33"/><path class="cls-2" d="M76.11,40.05a4.81,4.81,0,0,0-.41-1.57l-.2.06c.31.69.56,1.33.61,1.51"/><path class="cls-2" d="M76.05,38.38l-.19.06a15.13,15.13,0,0,1,.56,1.43,4.56,4.56,0,0,0-.37-1.49"/><path class="cls-2" d="M76.67,39.63a4,4,0,0,0-.31-1.32l-.19,0c.25.61.46,1.12.5,1.28"/><path class="cls-2" d="M76.66,38.22a.76.76,0,0,1-.16.06,7.18,7.18,0,0,1,.35.9,2.82,2.82,0,0,0-.19-1"/><path class="cls-2" d="M76.89,38.13l-.09,0a2.41,2.41,0,0,1,.14.38,1.08,1.08,0,0,0,0-.43"/><path class="cls-2" d="M33.69,56.45a1.06,1.06,0,0,0,.67.88l.07,0a1.2,1.2,0,0,0,.39.12c0-.05,0-.14,0-.23a2.2,2.2,0,0,1,.09-.79,1.9,1.9,0,0,0,.27.68,1.55,1.55,0,0,0,.21.23,3.12,3.12,0,0,0,.4.31,1.32,1.32,0,0,0,.35.12s.05,0,.07,0,0,0,0,0a.88.88,0,0,1-.07-.23,1.88,1.88,0,0,1,0-.53c0-.08,0-.15,0-.21s.06-.24.07-.32c0,.09.09.17.13.25l.09.1a1.52,1.52,0,0,0,.51.43l.06,0a3.28,3.28,0,0,0,1.12.32,1.83,1.83,0,0,1-.17-1,2.28,2.28,0,0,0,1,.45,2.11,2.11,0,0,1,0-1.67.78.78,0,0,0,1,.48,2,2,0,0,1-.07-2h0a1.33,1.33,0,0,0-.09,1.88,1.55,1.55,0,0,1-.84-.88,2.26,2.26,0,0,0-.4,1.75,1.43,1.43,0,0,1-.72-.69,2.45,2.45,0,0,0-.05,1.33,2,2,0,0,1-1.43-1.48,1.83,1.83,0,0,0-.42,1.64A2,2,0,0,1,35,56a.28.28,0,0,1,0-.09v0a1.23,1.23,0,0,0-.42,1.3,1.79,1.79,0,0,1-.83-1.2,1,1,0,0,0-.36,1.22,1.84,1.84,0,0,1-.7-1.09.92.92,0,0,0-.26,1.11A2.67,2.67,0,0,1,31.26,56,.72.72,0,0,0,31,57.08a1.22,1.22,0,0,1-.47-1.34c0-.09,0-.17-.12-.22a3.63,3.63,0,0,1-.66-.37,1.14,1.14,0,0,0-1.57.14l-.05.06a1.57,1.57,0,0,1-.39.39c-.09,0-.3-.22-.32-.2s.15.26.11.35a.74.74,0,0,0,.14.61.89.89,0,0,1-.6-1.19s0-.09,0-.12a1.72,1.72,0,0,1,1.05-1,1,1,0,0,0-1,.2c-.38.25-.55.29-.6.24s-.17-.37-.23-.35.06.26,0,.31a.87.87,0,0,0-.21.63A1,1,0,0,1,26,54.06s0-.12.05-.15a.44.44,0,0,0,.08-.11,1.81,1.81,0,0,1,1.41-.72,1.67,1.67,0,0,0-1.1-.16c-.21.08-.38.15-.46.11s-.19-.43-.3-.44.05.2-.07.28a.89.89,0,0,0-.3.54.69.69,0,0,1-.06-.65,1.24,1.24,0,0,1,.28-.38c.05,0,.08-.11.14-.15a2.43,2.43,0,0,1,.56-.27,3.11,3.11,0,0,1,2-.21,3.1,3.1,0,0,1,1.12.66,6.56,6.56,0,0,0,.84.62c1.23.78,3.11.13,4.12-.33a3.25,3.25,0,0,0,1.26-1.37,4.58,4.58,0,0,1,1.76-2.06,4.55,4.55,0,0,0-2.09,1.85,3.15,3.15,0,0,1-1.09,1.22,5.66,5.66,0,0,1-.72.29l-.41.14a3.32,3.32,0,0,1-2.63-.08,8.59,8.59,0,0,1-.79-.58,3.31,3.31,0,0,0-1.26-.74,3.61,3.61,0,0,0-2.28.23,1.69,1.69,0,0,0-1.06,1,1.16,1.16,0,0,0,.31,1.17.77.77,0,0,1,.34-.57.62.62,0,0,0,.14.17.36.36,0,0,0,.22,0,1.44,1.44,0,0,0-.26.33,1.37,1.37,0,0,0,.4,1.83c-.05-.25.16-.51.18-.63a.69.69,0,0,0,.51,0,1.39,1.39,0,0,0-.11.21,1.19,1.19,0,0,0,.08,1.1,1.29,1.29,0,0,0,1.15.45c-.05,0-.29-.38-.27-.55a1.32,1.32,0,0,0,.69-.53l.06-.07a.76.76,0,0,1,1-.06,4.62,4.62,0,0,0,.61.35c-.18,1,.77,1.41,1.14,1.58a1,1,0,0,1-.08-.9,2,2,0,0,0,1.43.92,1.44,1.44,0,0,1,0-.85,1.35,1.35,0,0,0,1,.89,1.49,1.49,0,0,1-.06-.88c0-.07,0-.12.1-.14"/><path class="cls-2" d="M64.25,56.45a1.09,1.09,0,0,0,.67.88l.08,0a1.17,1.17,0,0,0,.4.12,1.48,1.48,0,0,1,0-.23,2.24,2.24,0,0,1,0-.79,1.93,1.93,0,0,0,.3.68,1.1,1.1,0,0,0,.2.23,2.6,2.6,0,0,0,.41.31,1.16,1.16,0,0,0,.34.12l.06,0a.08.08,0,0,1,0,0,1.55,1.55,0,0,1-.07-.23,1.57,1.57,0,0,1,0-.53c0-.08,0-.15,0-.21s0-.24.07-.32a.89.89,0,0,0,.14.25s0,.07.07.1a1.82,1.82,0,0,0,.53.43l0,0a3.34,3.34,0,0,0,1.12.32,1.76,1.76,0,0,1-.18-1,2.29,2.29,0,0,0,1,.45,2.24,2.24,0,0,1,0-1.67.79.79,0,0,0,1,.48,1.91,1.91,0,0,1-.07-2c-.3.21-.72.89-.08,1.88a1.51,1.51,0,0,1-.86-.88,2.39,2.39,0,0,0-.4,1.75,1.47,1.47,0,0,1-.72-.69,2.46,2.46,0,0,0,0,1.33,2,2,0,0,1-1.43-1.48,1.9,1.9,0,0,0-.43,1.64A2.09,2.09,0,0,1,65.58,56v-.12a1.25,1.25,0,0,0-.42,1.3,1.75,1.75,0,0,1-.82-1.2A1,1,0,0,0,64,57.21a1.85,1.85,0,0,1-.72-1.09A1,1,0,0,0,63,57.23,2.66,2.66,0,0,1,61.83,56a.74.74,0,0,0-.28,1.07,1.25,1.25,0,0,1-.47-1.34c0-.09,0-.17-.11-.22a3.63,3.63,0,0,1-.66-.37,1.14,1.14,0,0,0-1.57.14l-.05.06a1.76,1.76,0,0,1-.39.39c-.1,0-.31-.22-.33-.2s.16.26.12.35a.7.7,0,0,0,.14.61.88.88,0,0,1-.6-1.19s0-.09,0-.12a1.66,1.66,0,0,1,1.06-1,1.05,1.05,0,0,0-1,.2c-.38.25-.55.29-.6.24s-.17-.37-.23-.35.06.26,0,.31a.92.92,0,0,0-.22.63,1,1,0,0,1,0-1.18s0-.12,0-.15a.44.44,0,0,0,.08-.11,1.83,1.83,0,0,1,1.41-.72A1.6,1.6,0,0,0,57,52.92c-.22.08-.39.15-.47.11s-.2-.43-.31-.44.06.2-.07.28a1,1,0,0,0-.3.54.67.67,0,0,1,0-.65.93.93,0,0,1,.26-.38s.08-.11.13-.15a2.83,2.83,0,0,1,.58-.27,2.68,2.68,0,0,1,3.14.45,7.15,7.15,0,0,0,.83.62c1.23.78,3.11.13,4.13-.33a3.3,3.3,0,0,0,1.25-1.37c.45-.69.88-1.66,1.76-2.06a4.6,4.6,0,0,0-2.09,1.85,3.06,3.06,0,0,1-1.08,1.22,7.18,7.18,0,0,1-.72.29l-.41.14A3.32,3.32,0,0,1,61,52.69a8.85,8.85,0,0,1-.8-.58A3.2,3.2,0,0,0,59,51.37a3.64,3.64,0,0,0-2.29.23,1.78,1.78,0,0,0-1.06,1,1.16,1.16,0,0,0,.31,1.17.83.83,0,0,1,.34-.57.76.76,0,0,0,.15.17.36.36,0,0,0,.23,0,2,2,0,0,0-.28.33,1.37,1.37,0,0,0,.4,1.83c0-.25.16-.51.2-.63a.65.65,0,0,0,.49,0l-.11.21a1.19,1.19,0,0,0,.09,1.1,1.28,1.28,0,0,0,1.14.45,1.18,1.18,0,0,1-.26-.55,1.25,1.25,0,0,0,.69-.53l0-.07a.79.79,0,0,1,1.06-.06,4.05,4.05,0,0,0,.61.35c-.18,1,.76,1.41,1.14,1.58a1.09,1.09,0,0,1-.1-.9,2,2,0,0,0,1.45.92,1.3,1.3,0,0,1,0-.85,1.33,1.33,0,0,0,1,.89,1.28,1.28,0,0,1-.06-.88.21.21,0,0,1,.09-.14"/><path class="cls-2" d="M92.24,65.57h0a11.94,11.94,0,0,0-2.69-.27c-.61,0-2.51,0-3.19.6a3.2,3.2,0,0,0-1.27-.42l-.2,0-.62-.07-1-.06H82.9c-.31,0-.61,0-.88,0a4.88,4.88,0,0,0-2.33.57,2.4,2.4,0,0,0-.32-.17h0a4.42,4.42,0,0,0-.88-.25L78,65.41h0l-.4,0a16.54,16.54,0,0,0-2.21,0,4.89,4.89,0,0,0-2.32.56c-.77-.52-2.94-.65-4.36-.56a5,5,0,0,0-2.33.56c-.75-.52-2.93-.65-4.34-.56a4.93,4.93,0,0,0-2.32.56c-.78-.52-3-.65-4.36-.56a7.74,7.74,0,0,0-.8.08l-.19,0a3.15,3.15,0,0,0-1.32.46s0,0,0,0h0a2.8,2.8,0,0,0-.25-.14,11,11,0,0,0-4.09-.42l-.51,0a6.82,6.82,0,0,0-.94.16l-.19,0a2.46,2.46,0,0,0-.69.32c-.76-.52-2.94-.65-4.35-.56a4.93,4.93,0,0,0-2.32.56c-.77-.52-2.94-.65-4.36-.56a4.93,4.93,0,0,0-2.32.56c-.77-.52-2.95-.65-4.35-.56a4.81,4.81,0,0,0-2.32.57,5.19,5.19,0,0,0-2.73-.43,2,2,0,0,0-1.74,2,.76.76,0,0,0,0,.15,1.93,1.93,0,0,0,1.33,2.06,11.87,11.87,0,0,0,2.69.27c.6,0,2.51,0,3.19-.59.78.52,2.94.65,4.35.57a4.72,4.72,0,0,0,2.32-.58c.77.53,3,.66,4.35.58a4.73,4.73,0,0,0,2.33-.58c.77.53,2.93.66,4.35.58A4.69,4.69,0,0,0,49,69.4c.77.53,3,.66,4.36.58a4.76,4.76,0,0,0,2.33-.58c.76.53,2.93.66,4.34.58a4.66,4.66,0,0,0,2.32-.58c.78.53,2.94.66,4.35.58a4.73,4.73,0,0,0,2.33-.58c.76.53,2.94.66,4.35.58a4.69,4.69,0,0,0,2.32-.58c.77.53,2.94.66,4.35.58a4.83,4.83,0,0,0,2.34-.58c.75.53,2.94.66,4.34.58a4.66,4.66,0,0,0,2.32-.58,5.29,5.29,0,0,0,2.73.44,2,2,0,0,0,1.75-2.06v-.14a1.94,1.94,0,0,0-1.33-2.07m-66.41,4a10.78,10.78,0,0,1-2.61-.26h0c-.67-.11-1-.9-1-1.67v-.13a1.6,1.6,0,0,1,1.39-1.68,4.36,4.36,0,0,1,2.56.44l.29.32c.64.69,2.11,2.31,2.29,2.51a6.26,6.26,0,0,1-2.9.47m7.52,0c-1.82.11-3.83-.16-4.2-.57l-1.09-1.2-1.49-1.63a4.5,4.5,0,0,1,2.06-.45c1.82-.11,3.82.16,4.2.56h0l2.58,2.83a4.64,4.64,0,0,1-2.06.45m6.67,0c-1.81.11-3.82-.16-4.19-.57l-2.58-2.83a4.5,4.5,0,0,1,2.06-.45c1.81-.11,3.81.16,4.19.56h0l2.57,2.83a4.6,4.6,0,0,1-2.06.45m6.67,0c-1.81.11-3.81-.16-4.18-.57h0l-2.57-2.83A4.46,4.46,0,0,1,42,65.73c1.82-.11,3.81.16,4.19.56h0l2.57,2.83a4.6,4.6,0,0,1-2.06.45m6.68,0c-1.82.11-3.81-.16-4.2-.57L46.6,66.18a4.5,4.5,0,0,1,2.06-.45c1.82-.11,3.82.16,4.2.56h0l2.57,2.83a4.64,4.64,0,0,1-2.06.45m6.68,0c-1.82.11-3.82-.16-4.2-.57h0l-2.58-2.83a4.58,4.58,0,0,1,2.06-.45c1.82-.11,3.83.16,4.2.56h0l2.57,2.83a4.54,4.54,0,0,1-2.05.45m6.67,0c-1.82.11-3.81-.16-4.19-.57h0L60,66.18A4.46,4.46,0,0,1,62,65.73c1.82-.11,3.82.16,4.18.56h0l2.57,2.83a4.79,4.79,0,0,1-2.07.45m6.68,0c-1.83.11-3.82-.16-4.2-.57l-.37-.41-.15-.16,0,0-2-2.22a4.5,4.5,0,0,1,2.06-.45c1.81-.11,3.81.16,4.19.56l.35.4,2.23,2.44a4.6,4.6,0,0,1-2.06.45m6.68,0c-1.82.11-3.82-.16-4.19-.57h0L73.3,66.18a4.5,4.5,0,0,1,2.06-.45c1.82-.11,3.82.16,4.19.56h0l2.57,2.83a4.62,4.62,0,0,1-2,.45m6.67,0c-1.82.11-3.81-.16-4.2-.57l-.37-.41L82,68.44a.08.08,0,0,0,0,0l-2-2.22A4.5,4.5,0,0,1,82,65.73c1.81-.11,3.82.16,4.19.56l.76.85,1.81,2a4.54,4.54,0,0,1-2,.45m6.42-1.82a1.59,1.59,0,0,1-1.38,1.68A4.47,4.47,0,0,1,89.22,69l-2.57-2.84a6.39,6.39,0,0,1,2.9-.47,11.82,11.82,0,0,1,2.61.26h0c.68.11,1,.89,1,1.66,0,0,0,.09,0,.13"/><path class="cls-2" d="M34.94,69.13a12,12,0,0,0-1.26-1.19,8,8,0,0,0,1,1.27l.3-.08"/><path class="cls-2" d="M34.38,69.26A14.24,14.24,0,0,0,33,67.94a11.85,11.85,0,0,0,1,1.37l.37,0"/><path class="cls-2" d="M33.37,69.37c.14,0,.27,0,.4,0a17.39,17.39,0,0,0-1.5-1.4,13.32,13.32,0,0,0,1.1,1.43"/><path class="cls-2" d="M31.58,67.94a8.84,8.84,0,0,0,1.11,1.46h.42a19.4,19.4,0,0,0-1.53-1.45"/><path class="cls-2" d="M30.87,67.94A12.93,12.93,0,0,0,32,69.4h.45a20.8,20.8,0,0,0-1.56-1.46"/><path class="cls-2" d="M30.18,67.94a10.21,10.21,0,0,0,1.07,1.41l.45,0a17.47,17.47,0,0,0-1.52-1.44"/><path class="cls-2" d="M30.47,69.25l.47.07a15.61,15.61,0,0,0-1.47-1.38,9.35,9.35,0,0,0,1,1.31"/><path class="cls-2" d="M29.59,69a5,5,0,0,0,.52.15,12.92,12.92,0,0,0-1.33-1.25,7.16,7.16,0,0,0,.81,1.1"/><path class="cls-2" d="M41.62,69.13a12.81,12.81,0,0,0-1.27-1.19,8.37,8.37,0,0,0,.95,1.27c.12,0,.23-.06.32-.08"/><path class="cls-2" d="M41.06,69.26a14,14,0,0,0-1.42-1.32,11.15,11.15,0,0,0,1,1.37l.37,0"/><path class="cls-2" d="M40,69.37c.15,0,.28,0,.4,0A17.71,17.71,0,0,0,39,67.94,11.66,11.66,0,0,0,40,69.37"/><path class="cls-2" d="M38.24,67.94a11.19,11.19,0,0,0,1.14,1.46h.41a17.17,17.17,0,0,0-1.55-1.45"/><path class="cls-2" d="M37.54,67.94a13.41,13.41,0,0,0,1.12,1.46h.44a15,15,0,0,0-1.56-1.46"/><path class="cls-2" d="M36.85,67.94a11.14,11.14,0,0,0,1.07,1.41l.45,0a16.11,16.11,0,0,0-1.52-1.44"/><path class="cls-2" d="M37.14,69.25l.48.07a15.36,15.36,0,0,0-1.48-1.38,12.68,12.68,0,0,0,1,1.31"/><path class="cls-2" d="M36.27,69a4.36,4.36,0,0,0,.52.15,13.8,13.8,0,0,0-1.34-1.25,8.31,8.31,0,0,0,.82,1.1"/><path class="cls-2" d="M48.29,69.13A10.87,10.87,0,0,0,47,67.94a9.5,9.5,0,0,0,1,1.27c.12,0,.23-.06.31-.08"/><path class="cls-2" d="M47.74,69.26a15.2,15.2,0,0,0-1.42-1.32,11.15,11.15,0,0,0,1,1.37l.37,0"/><path class="cls-2" d="M46.72,69.37c.14,0,.27,0,.39,0a15,15,0,0,0-1.49-1.4,11,11,0,0,0,1.1,1.43"/><path class="cls-2" d="M44.92,67.94a12.92,12.92,0,0,0,1.13,1.46h.41a17.45,17.45,0,0,0-1.54-1.45"/><path class="cls-2" d="M44.22,67.94a12.19,12.19,0,0,0,1.12,1.46h.44a17.44,17.44,0,0,0-1.56-1.46"/><path class="cls-2" d="M43.51,67.94a14.75,14.75,0,0,0,1.09,1.41l.46,0a15.44,15.44,0,0,0-1.55-1.44"/><path class="cls-2" d="M43.83,69.25a4.34,4.34,0,0,0,.47.07,14.44,14.44,0,0,0-1.47-1.38,9.35,9.35,0,0,0,1,1.31"/><path class="cls-2" d="M43,69a4.36,4.36,0,0,0,.52.15,13.8,13.8,0,0,0-1.34-1.25A7.46,7.46,0,0,0,43,69"/><path class="cls-2" d="M55,69.13a11.56,11.56,0,0,0-1.28-1.19,11.75,11.75,0,0,0,1,1.27c.13,0,.23-.06.32-.08"/><path class="cls-2" d="M54,69.31l.37,0A13.17,13.17,0,0,0,53,67.94a10.76,10.76,0,0,0,1,1.37"/><path class="cls-2" d="M53.4,69.37c.14,0,.26,0,.39,0a14.81,14.81,0,0,0-1.5-1.4,11.41,11.41,0,0,0,1.11,1.43"/><path class="cls-2" d="M51.6,67.94a12.07,12.07,0,0,0,1.11,1.46h.42a17.75,17.75,0,0,0-1.53-1.45"/><path class="cls-2" d="M50.9,67.94A11.17,11.17,0,0,0,52,69.4h.43a17.72,17.72,0,0,0-1.55-1.46"/><path class="cls-2" d="M50.2,67.94a11.14,11.14,0,0,0,1.07,1.41l.47,0a20.15,20.15,0,0,0-1.54-1.44"/><path class="cls-2" d="M50.49,69.25l.48.07a17.34,17.34,0,0,0-1.46-1.38,9.52,9.52,0,0,0,1,1.31"/><path class="cls-2" d="M49.61,69c.14,0,.33.1.53.15a12.49,12.49,0,0,0-1.35-1.25,9.37,9.37,0,0,0,.82,1.1"/><path class="cls-2" d="M61.64,69.13a13.08,13.08,0,0,0-1.26-1.19,9.15,9.15,0,0,0,.95,1.27c.12,0,.22-.06.31-.08"/><path class="cls-2" d="M61.08,69.26a15.8,15.8,0,0,0-1.4-1.32,9.07,9.07,0,0,0,1,1.37l.36,0"/><path class="cls-2" d="M60.07,69.37l.4,0A19.46,19.46,0,0,0,59,67.94a9.86,9.86,0,0,0,1.09,1.43"/><path class="cls-2" d="M58.28,67.94a11.06,11.06,0,0,0,1.11,1.46h.42a17.75,17.75,0,0,0-1.53-1.45"/><path class="cls-2" d="M57.57,67.94a11.17,11.17,0,0,0,1.12,1.46h.44a19,19,0,0,0-1.56-1.46"/><path class="cls-2" d="M56.87,67.94A11.53,11.53,0,0,0,58,69.35l.45,0a15.87,15.87,0,0,0-1.53-1.44"/><path class="cls-2" d="M57.17,69.25l.47.07a14.66,14.66,0,0,0-1.46-1.38,9,9,0,0,0,1,1.31"/><path class="cls-2" d="M56.29,69a5.26,5.26,0,0,0,.53.15,12.49,12.49,0,0,0-1.35-1.25,8.31,8.31,0,0,0,.82,1.1"/><path class="cls-2" d="M68.32,69.13a12.81,12.81,0,0,0-1.27-1.19,9.5,9.5,0,0,0,1,1.27c.12,0,.22-.06.31-.08"/><path class="cls-2" d="M67.75,69.26a14.49,14.49,0,0,0-1.4-1.32,9.84,9.84,0,0,0,1,1.37l.36,0"/><path class="cls-2" d="M66.74,69.37c.15,0,.28,0,.4,0a19.46,19.46,0,0,0-1.49-1.4,11.66,11.66,0,0,0,1.09,1.43"/><path class="cls-2" d="M65,67.94a9.75,9.75,0,0,0,1.12,1.46h.41A17.75,17.75,0,0,0,65,67.94"/><path class="cls-2" d="M64.25,67.94a11.78,11.78,0,0,0,1.11,1.46h.44a17.72,17.72,0,0,0-1.55-1.46"/><path class="cls-2" d="M63.55,67.94a11.14,11.14,0,0,0,1.07,1.41l.46,0a18.73,18.73,0,0,0-1.53-1.44"/><path class="cls-2" d="M63.84,69.25l.47.07a14.66,14.66,0,0,0-1.46-1.38,9.87,9.87,0,0,0,1,1.31"/><path class="cls-2" d="M63,69c.15,0,.31.1.52.15a12.69,12.69,0,0,0-1.34-1.25A8.31,8.31,0,0,0,63,69"/><path class="cls-2" d="M75,69.13a11.56,11.56,0,0,0-1.28-1.19,9.5,9.5,0,0,0,1,1.27c.12,0,.23-.06.32-.08"/><path class="cls-2" d="M74.07,69.31l.36,0A14.24,14.24,0,0,0,73,67.94a12.32,12.32,0,0,0,1,1.37"/><path class="cls-2" d="M73.42,69.37c.14,0,.28,0,.39,0a18.06,18.06,0,0,0-1.48-1.4,10.68,10.68,0,0,0,1.09,1.43"/><path class="cls-2" d="M71.62,67.94a12.48,12.48,0,0,0,1.12,1.46h.42a16.12,16.12,0,0,0-1.54-1.45"/><path class="cls-2" d="M70.92,67.94A12.93,12.93,0,0,0,72,69.4h.45a17.44,17.44,0,0,0-1.56-1.46"/><path class="cls-2" d="M70.22,67.94a10.91,10.91,0,0,0,1.09,1.41l.44,0a14.75,14.75,0,0,0-1.53-1.44"/><path class="cls-2" d="M70.52,69.25l.48.07a14.23,14.23,0,0,0-1.48-1.38,11.34,11.34,0,0,0,1,1.31"/><path class="cls-2" d="M69.65,69a4.36,4.36,0,0,0,.52.15,15.12,15.12,0,0,0-1.34-1.25,8.31,8.31,0,0,0,.82,1.1"/><path class="cls-2" d="M81.67,69.13a11.76,11.76,0,0,0-1.27-1.19,9.5,9.5,0,0,0,1,1.27c.12,0,.23-.06.31-.08"/><path class="cls-2" d="M81.12,69.26a15.2,15.2,0,0,0-1.42-1.32,10.18,10.18,0,0,0,1,1.37l.37,0"/><path class="cls-2" d="M80.09,69.37c.15,0,.28,0,.4,0a16,16,0,0,0-1.5-1.4,13.32,13.32,0,0,0,1.1,1.43"/><path class="cls-2" d="M78.29,67.94a12.19,12.19,0,0,0,1.14,1.46h.42a16.91,16.91,0,0,0-1.56-1.45"/><path class="cls-2" d="M77.59,67.94A12.93,12.93,0,0,0,78.7,69.4h.45a15,15,0,0,0-1.56-1.46"/><path class="cls-2" d="M76.9,67.94A12.24,12.24,0,0,0,78,69.35l.46,0a17.18,17.18,0,0,0-1.53-1.44"/><path class="cls-2" d="M77.19,69.25l.48.07a15.61,15.61,0,0,0-1.47-1.38,10.89,10.89,0,0,0,1,1.31"/><path class="cls-2" d="M76.33,69a4.48,4.48,0,0,0,.5.15,11.93,11.93,0,0,0-1.33-1.25,7,7,0,0,0,.83,1.1"/><path class="cls-2" d="M88.35,69.13a15.64,15.64,0,0,0-1.27-1.19,9.15,9.15,0,0,0,1,1.27c.13,0,.22-.06.32-.08"/><path class="cls-2" d="M87.42,69.31l.36,0a14.24,14.24,0,0,0-1.41-1.32,10.18,10.18,0,0,0,1,1.37"/><path class="cls-2" d="M86.77,69.37c.14,0,.27,0,.39,0a15,15,0,0,0-1.49-1.4,12.08,12.08,0,0,0,1.1,1.43"/><path class="cls-2" d="M85,67.94a12.48,12.48,0,0,0,1.12,1.46h.42A16.12,16.12,0,0,0,85,67.94"/><path class="cls-2" d="M84.27,67.94a13.41,13.41,0,0,0,1.12,1.46h.44a17.44,17.44,0,0,0-1.56-1.46"/><path class="cls-2" d="M83.57,67.94a11.53,11.53,0,0,0,1.08,1.41l.46,0a15.65,15.65,0,0,0-1.54-1.44"/><path class="cls-2" d="M83.86,69.25l.48.07a15.89,15.89,0,0,0-1.46-1.38,9.52,9.52,0,0,0,1,1.31"/><path class="cls-2" d="M83,69l.52.15a11.76,11.76,0,0,0-1.34-1.25A10.75,10.75,0,0,0,83,69"/><path class="cls-2" d="M28.28,69.13A15.4,15.4,0,0,0,27,67.94,10.74,10.74,0,0,0,28,69.22l.33-.09"/><path class="cls-2" d="M27.35,69.32l.36,0a12.38,12.38,0,0,0-1.42-1.33,10.19,10.19,0,0,0,1.06,1.38"/><path class="cls-2" d="M26.71,69.38l.38,0a16.79,16.79,0,0,0-1.49-1.41,11,11,0,0,0,1.11,1.44"/><path class="cls-2" d="M24.9,67.94A12,12,0,0,0,26,69.41h.41a15.52,15.52,0,0,0-1.53-1.46"/><path class="cls-2" d="M24.19,67.94a13.91,13.91,0,0,0,1.13,1.46h.43a15.34,15.34,0,0,0-1.56-1.47"/><path class="cls-2" d="M23.5,67.94a11.53,11.53,0,0,0,1.08,1.41l.46,0a16.12,16.12,0,0,0-1.54-1.45"/><path class="cls-2" d="M23.79,69.26l.48.07a18,18,0,0,0-1.46-1.39,10.07,10.07,0,0,0,1,1.32"/><path class="cls-2" d="M22.71,68.79s.07.07.1.1a.67.67,0,0,0,.43.26h0l.15,0c-.33-.35-.68-.7-1-1a1.65,1.65,0,0,0,.24.54"/><path class="cls-2" d="M92.75,68.62c0-.07.07-.14.09-.2a5,5,0,0,0-.57-.48c0,.11.25.36.48.68"/><path class="cls-2" d="M92.39,69a.82.82,0,0,0,.19-.18,8.35,8.35,0,0,0-1-.92,11.5,11.5,0,0,0,.82,1.1"/><path class="cls-2" d="M91.86,69.24a1.14,1.14,0,0,0,.33-.08,11.93,11.93,0,0,0-1.32-1.22,10.75,10.75,0,0,0,1,1.3"/><path class="cls-2" d="M91.18,69.26h.41a14.24,14.24,0,0,0-1.41-1.32,9.87,9.87,0,0,0,1,1.32"/><path class="cls-2" d="M90.42,69.2a2.35,2.35,0,0,0,.45,0,13.75,13.75,0,0,0-1.39-1.3,9.55,9.55,0,0,0,.94,1.26"/><path class="cls-2" d="M89.55,69a3.25,3.25,0,0,0,.52.16,11,11,0,0,0-1.3-1.21,12.77,12.77,0,0,0,.78,1"/></g></g></svg>