<svg xmlns="http://www.w3.org/2000/svg" viewBox="0 0 2426.5 345"><defs><style>.cls-1{fill:#7f8187;}.cls-2{fill:#910028;}</style></defs><title>woodward-logo</title><g id="Layer_2" data-name="Layer 2"><g id="Layer_1-2" data-name="Layer 1"><path class="cls-1" d="M631.3,118.5l24.1,85.1,33.3-85.1h28.8l31,85.1,25.3-85.1h33.4L757.7,269.1H727.8l-34.5-92-34.5,92H628.9L578.3,118.5ZM851,194.4c0-47.1,35.7-78.2,89.7-78.2,46,0,88.6,20.7,88.6,74.7,0,47.1-32.2,79.3-90.8,79.3-64.6.1-87.5-40.2-87.5-75.8Zm55.2,0c0,32.2,6.9,51.7,33.4,51.7,8.1,0,34.5,1.1,34.5-55.2,0-37.9-12.6-49.4-33.3-49.4-27.7,0-34.6,20.7-34.6,52.9Zm178.2,0c0-47.1,34.5-78.2,89.7-78.2,44.8,0,87.4,20.7,87.4,74.7,0,47.1-32.2,79.3-89.7,79.3C1107.4,270.3,1084.4,230,1084.4,194.4Zm54.1,0c0,32.2,8.1,51.7,34.5,51.7,8.1,0,34.5,1.1,34.5-55.2,0-37.9-12.6-49.4-33.3-49.4-27.7,0-35.7,20.7-35.7,52.9Zm246.1-75.9c28.8,0,54,0,77,13.8,26.5,16.1,28.8,46,28.8,56.3,0,11.5-1.1,49.4-39.1,69-18.4,9.2-34.5,11.5-70.1,11.5h-54.1V118.5Zm-7,25.3v98.9h11.5c18.4,0,47.2,4.6,47.2-52.9,0-46-23-46-44.9-46Zm210.5-25.3,24.1,85.1,33.4-85.1h27.6l32.2,85.1,25.3-85.1h33.4l-49.5,150.6h-29.9l-34.5-92-34.5,92h-31l-49.5-150.6Zm307,0,73.6,150.6h-55.2l-13.8-32.2h-58.6l-15,32.2h-35.6l74.8-150.6Zm-43.7,95.4h37.9l-18.4-42.6ZM2093,118.5c24.1,0,37.9,0,54,4.6,14.9,4.6,29.9,16.1,29.9,35.7,0,25.3-26.5,35.7-38,40.3l55.2,70.1h-58.6l-40.3-61h-13.8v60.9h-50.6V118.5Zm-11.6,25.3v42.5h9.2c8.1,0,34.5,2.3,34.5-21.8,0-20.7-18.4-20.7-34.5-20.7Zm239.2-25.3c28.8,0,54.1,0,77.1,13.8,26.4,16.1,28.8,46,28.8,56.3,0,11.5-1.2,49.4-39.1,69-18.4,9.2-34.5,11.5-70.1,11.5h-55.2V118.5Zm-6.9,25.3v98.9H2324c19.6,0,48.3,4.6,48.3-52.9,0-46-23-46-44.8-46Z"/><path class="cls-2" d="M507.1,304.8h-6.9V277.2H489.9v-5.7h27.6v5.7H507.2l-.1,27.6Zm48.3,0h-6.9V276l-6.9,28.8h-6.9L529,276v28.8h-6.9V271.5h10.3l5.8,26.4,6.9-26.4h10.3v33.3ZM5.7,265.7c0,23,29.9,43.7,77.1,58.6-5.7-23-18.4-63.3-32.2-105.8C23,232.3,5.7,248.4,5.7,265.7ZM213.9,42.6c-16.1,71.3-35.7,138-52.9,208.2-15-58.7-32.2-117.3-47.1-182.9L55.2,55.2,0,71.3,54,82.8c29.9,81.6,61,190.9,75.9,253A640.4,640.4,0,0,0,239.1,345c128.8,0,233.5-35.6,233.5-79.3,0-35.6-70.2-65.6-165.6-75.9C320.8,130,336.9,70.2,353,8.1L295.5,0,271.4,4.6l57.5,10.3c-11.5,63.2-27.6,127.6-42.6,190.9-12.6-55.2-29.9-109.2-42.5-170.2L186.3,25.3l-31.1,6.9,58.7,10.4ZM417.4,261.1c-1.2,8.1-6.9,14.9-15,21.9-25.3,19.6-85.1,34.5-154.1,34.5-20.7,0-52.9-2.3-71.3-3.4,6.9-24.2,46-161,44.8-163.3,6.9,23,27.6,88.6,39.1,130l27.6-11.5,13.8-62.1a202.64,202.64,0,0,1,40.3,6.9c47.2,9,77.1,27.4,74.8,47Z"/></g></g></svg>