<?xml version="1.0" encoding="utf-8"?>
<!-- Generator: Adobe Illustrator 21.1.0, SVG Export Plug-In . SVG Version: 6.00 Build 0)  -->
<svg version="1.1" id="Layer_1" xmlns="http://www.w3.org/2000/svg" xmlns:xlink="http://www.w3.org/1999/xlink" x="0px" y="0px"
	 viewBox="0 0 126 26" style="enable-background:new 0 0 126 26;" xml:space="preserve">
<style type="text/css">
	.st0{fill:#FFFFFF;}
</style>
<g>
	<g>
		<path class="st0" d="M41.1,17.9h-5.5l-1,3.1h-4.3l6.1-16.7h3.8L46.4,21h-4.3L41.1,17.9z M36.6,14.8h3.6L38.3,9L36.6,14.8z"/>
		<path class="st0" d="M52.1,18.3c0.5,0,1-0.1,1.3-0.4c0.3-0.3,0.4-0.7,0.4-1.2h3.6c0,1.4-0.5,2.5-1.5,3.3c-1,0.9-2.2,1.3-3.8,1.3
			c-1.8,0-3.2-0.6-4.3-1.7c-1-1.1-1.6-2.7-1.6-4.7v-0.2c0-1.3,0.2-2.4,0.7-3.3c0.5-1,1.1-1.7,2-2.2c0.9-0.5,1.9-0.8,3.1-0.8
			c1.6,0,2.9,0.4,3.8,1.3c0.9,0.9,1.4,2.1,1.4,3.6h-3.6c0-0.6-0.2-1.1-0.5-1.5c-0.3-0.3-0.7-0.5-1.3-0.5c-1,0-1.6,0.6-1.8,1.9
			c-0.1,0.4-0.1,1-0.1,1.7c0,1.2,0.1,2.1,0.4,2.6C51,18,51.5,18.3,52.1,18.3z"/>
		<path class="st0" d="M65.5,21c-0.1-0.3-0.3-0.6-0.4-1.1c-0.7,0.9-1.7,1.3-3,1.3c-1.2,0-2.2-0.4-3-1.1s-1.2-1.6-1.2-2.7
			c0-1.3,0.5-2.4,1.5-3c1-0.7,2.4-1,4.3-1h1.2v-0.7c0-1.1-0.5-1.7-1.5-1.7c-0.9,0-1.4,0.5-1.4,1.4h-3.9c0-1.2,0.5-2.2,1.5-2.9
			c1-0.7,2.3-1.1,3.9-1.1s2.8,0.4,3.8,1.2c0.9,0.8,1.4,1.8,1.4,3.2v5.5c0,1.1,0.2,2,0.5,2.6V21H65.5z M63,18.5
			c0.5,0,0.9-0.1,1.2-0.3c0.3-0.2,0.5-0.4,0.7-0.7v-2h-1.1c-1.3,0-2,0.6-2,1.8c0,0.4,0.1,0.6,0.4,0.9C62.4,18.4,62.7,18.5,63,18.5z"
			/>
		<path class="st0" d="M69.9,14.7c0-2,0.4-3.5,1.3-4.6c0.8-1.1,2-1.7,3.6-1.7c1.1,0,2,0.4,2.8,1.3V3.4h3.9V21h-3.5l-0.2-1.3
			c-0.8,1-1.8,1.6-3,1.6c-1.5,0-2.6-0.6-3.5-1.7C70.3,18.4,69.9,16.8,69.9,14.7z M73.7,15c0,2.2,0.6,3.3,1.9,3.3
			c0.9,0,1.5-0.4,1.8-1.1v-4.7c-0.4-0.7-1-1.1-1.8-1.1c-1.2,0-1.8,1-1.9,2.9L73.7,15z"/>
		<path class="st0" d="M89,21.2c-1.9,0-3.4-0.6-4.6-1.7c-1.2-1.1-1.8-2.6-1.8-4.4v-0.3c0-1.3,0.2-2.4,0.7-3.4c0.5-1,1.2-1.7,2.1-2.2
			c0.9-0.5,2-0.8,3.2-0.8c1.7,0,3.1,0.5,4.1,1.6c1,1.1,1.5,2.6,1.5,4.5V16h-7.7c0.1,0.7,0.4,1.2,0.9,1.6c0.5,0.4,1.1,0.6,1.8,0.6
			c1.2,0,2.2-0.4,2.9-1.3l1.8,2.1c-0.5,0.7-1.2,1.2-2,1.6C91,21,90,21.2,89,21.2z M88.6,11.4c-1.1,0-1.8,0.7-2,2.2h3.9v-0.3
			c0-0.6-0.1-1.1-0.5-1.4C89.6,11.5,89.2,11.4,88.6,11.4z"/>
		<path class="st0" d="M98.8,8.6l0.1,1.5c0.9-1.1,2.1-1.7,3.5-1.7c1.6,0,2.6,0.6,3.2,1.9c0.8-1.2,2.1-1.9,3.6-1.9
			c2.5,0,3.8,1.5,3.9,4.6V21h-3.9v-7.8c0-0.6-0.1-1.1-0.3-1.4c-0.2-0.3-0.6-0.4-1.2-0.4c-0.8,0-1.3,0.3-1.7,1l0,0.2V21h-3.9v-7.8
			c0-0.6-0.1-1.1-0.3-1.4c-0.2-0.3-0.6-0.4-1.2-0.4c-0.7,0-1.3,0.3-1.7,1V21h-3.9V8.6H98.8z"/>
		<path class="st0" d="M119.8,15.6l2.1-7h4.1l-5.1,14.5l-0.2,0.5c-0.7,1.6-2,2.4-3.8,2.4c-0.5,0-1-0.1-1.6-0.2V23h0.5
			c0.5,0,1-0.1,1.2-0.2c0.3-0.2,0.5-0.4,0.6-0.8l0.3-0.8l-4.3-12.5h4.1L119.8,15.6z"/>
	</g>
	<path class="st0" d="M12.8,0C5.7,0,0,5.7,0,12.8c0,7.1,5.7,12.8,12.8,12.8c7.1,0,12.8-5.7,12.8-12.8C25.6,5.7,19.9,0,12.8,0z
		 M2.7,17.7l0.4-0.4l0.4-3l0.4,3l0.4,0.4H2.7z M19.4,18.3h-5.3h-2.7H6.1v-4c2.4-1,4.6-1.4,6.6-1.4c2,0,4.2,0.3,6.6,1.4V18.3z
		 M19.9,13.6l0-0.5c-2.6-1.2-5-1.6-7.1-1.6c-2.1,0-4.5,0.4-7.1,1.6l0,0.5l-3.1-1.9l10.2-6l0,0l0,0l10.2,6L19.9,13.6z"/>
</g>
</svg>
