<?xml version="1.0" encoding="utf-8"?>
<!-- Generator: Adobe Illustrator 21.1.0, SVG Export Plug-In . SVG Version: 6.00 Build 0)  -->
<svg version="1.1" id="Layer_1" xmlns="http://www.w3.org/2000/svg" xmlns:xlink="http://www.w3.org/1999/xlink" x="0px" y="0px"
	 viewBox="0 0 117 26" style="enable-background:new 0 0 117 26;" xml:space="preserve">
<style type="text/css">
	.st0{fill:#FFFFFF;}
</style>
<g>
	<g>
		<path class="st0" d="M45.9,15.6c-0.1,1.2-0.4,2.2-1,3.1c-0.6,0.9-1.4,1.6-2.5,2.1c-1.1,0.5-2.3,0.7-3.6,0.7c-2.2,0-4-0.7-5.3-2.2
			c-1.3-1.4-1.9-3.5-1.9-6.1v-0.8c0-1.7,0.3-3.1,0.9-4.4c0.6-1.2,1.4-2.2,2.5-2.9s2.3-1,3.8-1c2.1,0,3.7,0.5,5,1.6
			c1.3,1.1,2,2.6,2.1,4.5h-4.1c0-1-0.3-1.8-0.8-2.2c-0.5-0.4-1.2-0.7-2.2-0.7c-1,0-1.8,0.4-2.2,1.1c-0.5,0.8-0.7,2-0.7,3.6v1.2
			c0,1.8,0.2,3.1,0.7,3.9c0.5,0.8,1.2,1.2,2.4,1.2c0.9,0,1.7-0.2,2.2-0.7c0.5-0.4,0.8-1.1,0.8-2.1H45.9z"/>
		<path class="st0" d="M46.6,14.9c0-1.3,0.2-2.4,0.7-3.4c0.5-1,1.2-1.7,2.1-2.3c0.9-0.5,2-0.8,3.2-0.8c1.9,0,3.4,0.6,4.5,1.8
			c1.1,1.2,1.6,2.8,1.6,4.8v0.1c0,2-0.5,3.5-1.6,4.7c-1.1,1.2-2.6,1.7-4.4,1.7c-1.8,0-3.2-0.5-4.3-1.6c-1.1-1.1-1.7-2.5-1.8-4.4
			L46.6,14.9z M50.5,15.2c0,1.2,0.2,2,0.5,2.6c0.4,0.5,0.9,0.8,1.6,0.8c1.4,0,2.1-1.1,2.1-3.2v-0.4c0-2.3-0.7-3.4-2.2-3.4
			c-1.3,0-2,1-2.1,2.9L50.5,15.2z"/>
		<path class="st0" d="M67.5,12.3l-1.3-0.1c-1.2,0-2,0.4-2.4,1.2v8h-3.9V8.8h3.7l0.1,1.6c0.7-1.2,1.6-1.8,2.8-1.8
			c0.4,0,0.8,0,1.1,0.1L67.5,12.3z"/>
		<path class="st0" d="M75.9,20c-0.8,1.1-2,1.6-3.4,1.6c-1.4,0-2.4-0.4-3.1-1.2c-0.7-0.8-1.1-2-1.1-3.5V8.8h3.9v8.2
			c0,1.1,0.5,1.6,1.6,1.6c0.9,0,1.5-0.3,1.9-1V8.8h4v12.6H76L75.9,20z"/>
		<path class="st0" d="M87.8,17.8c0-0.3-0.2-0.6-0.5-0.8s-1-0.4-2-0.6c-1-0.2-1.8-0.5-2.4-0.9c-0.6-0.4-1.1-0.8-1.5-1.3
			c-0.3-0.5-0.5-1.1-0.5-1.7c0-1.2,0.5-2.1,1.4-2.9c1-0.7,2.2-1.1,3.8-1.1c1.7,0,3,0.4,4,1.1c1,0.8,1.5,1.7,1.5,3h-3.9
			c0-1-0.5-1.5-1.6-1.5c-0.4,0-0.8,0.1-1,0.3c-0.3,0.2-0.4,0.5-0.4,0.9c0,0.3,0.2,0.6,0.5,0.8c0.3,0.2,0.9,0.4,1.6,0.5
			c0.8,0.1,1.4,0.3,2,0.5c1.9,0.7,2.8,1.8,2.8,3.5c0,1.1-0.5,2.1-1.5,2.8c-1,0.7-2.3,1.1-4,1.1c-1.1,0-2-0.2-2.9-0.6
			c-0.8-0.4-1.5-0.9-2-1.6s-0.7-1.4-0.7-2.1h3.7c0,0.6,0.2,1,0.6,1.3c0.4,0.3,0.9,0.4,1.4,0.4c0.5,0,0.9-0.1,1.2-0.3
			C87.7,18.4,87.8,18.1,87.8,17.8z"/>
		<path class="st0" d="M92.4,14.9c0-1.3,0.2-2.4,0.7-3.4c0.5-1,1.2-1.7,2.1-2.3c0.9-0.5,2-0.8,3.2-0.8c1.9,0,3.4,0.6,4.5,1.8
			c1.1,1.2,1.6,2.8,1.6,4.8v0.1c0,2-0.5,3.5-1.6,4.7c-1.1,1.2-2.6,1.7-4.4,1.7c-1.8,0-3.2-0.5-4.3-1.6c-1.1-1.1-1.7-2.5-1.8-4.4
			L92.4,14.9z M96.3,15.2c0,1.2,0.2,2,0.5,2.6c0.4,0.5,0.9,0.8,1.6,0.8c1.4,0,2.1-1.1,2.1-3.2v-0.4c0-2.3-0.7-3.4-2.2-3.4
			c-1.3,0-2,1-2.1,2.9L96.3,15.2z"/>
		<path class="st0" d="M109.3,8.8l0.1,1.5c0.9-1.1,2.1-1.7,3.6-1.7c1.3,0,2.3,0.4,2.9,1.2c0.6,0.8,1,2,1,3.5v8.1h-3.9v-7.9
			c0-0.6-0.1-1.1-0.4-1.4c-0.3-0.3-0.7-0.4-1.4-0.4c-0.8,0-1.3,0.3-1.7,0.9v8.9h-3.9V8.8H109.3z"/>
	</g>
	<path class="st0" d="M22.3,3.8C19.9,1.5,16.6,0,13,0C9.4,0,6.2,1.5,3.8,3.8C1.5,6.2,0,9.4,0,13c0,3.6,1.5,6.8,3.8,9.2
		C6.2,24.5,9.4,26,13,26c3.6,0,6.9-1.5,9.2-3.8c2.4-2.4,3.8-5.6,3.8-9.2C26.1,9.4,24.6,6.2,22.3,3.8z M12.6,21.3L2.3,13.7l5.6-4.1
		l4.7,3.5V21.3z M12.6,12L7.5,8.2l5.2-3.8V12z M13.5,4.4l5.2,3.8L13.5,12V4.4z M13.5,21.3v-8.3l4.7-3.5l5.6,4.1L13.5,21.3z"/>
</g>
</svg>
