<?xml version="1.0" encoding="utf-8"?>
<!-- Generator: Adobe Illustrator 21.1.0, SVG Export Plug-In . SVG Version: 6.00 Build 0)  -->
<svg version="1.1" id="Layer_1" xmlns="http://www.w3.org/2000/svg" xmlns:xlink="http://www.w3.org/1999/xlink" x="0px" y="0px"
	 viewBox="0 0 73.8 26" style="enable-background:new 0 0 73.8 26;" xml:space="preserve">
<style type="text/css">
	.st0{fill:#FFFFFF;}
</style>
<g>
	<path class="st0" d="M13,0C5.8,0,0,5.8,0,13s5.8,13,13,13c7.2,0,13-5.8,13-13S20.1,0,13,0z M7.4,20.1v-4.4l3,1.8L7.4,20.1z
		 M14.6,18.5l-6.2-3.6l10-5.8L7,14.1l-4.5-2.7c0,0,19.7-4.2,19.6-4C22,7.6,14.6,18.5,14.6,18.5z"/>
	<g>
		<path class="st0" d="M31.4,21.7v-17h5.5c1.5,0,2.8,0.3,4,1c1.2,0.7,2.1,1.6,2.8,2.9c0.7,1.2,1,2.6,1,4.2v0.8c0,1.6-0.3,3-1,4.2
			c-0.7,1.2-1.6,2.2-2.8,2.9c-1.2,0.7-2.5,1-4,1.1H31.4z M35.5,7.8v10.7h1.4c1.2,0,2.1-0.4,2.7-1.3c0.6-0.8,0.9-2.1,0.9-3.7v-0.7
			c0-1.6-0.3-2.9-0.9-3.7c-0.6-0.8-1.5-1.3-2.8-1.3H35.5z"/>
		<path class="st0" d="M53.2,21.7c-0.1-0.3-0.3-0.6-0.4-1.1c-0.7,0.9-1.7,1.4-3,1.4c-1.2,0-2.2-0.4-3-1.1c-0.8-0.7-1.2-1.6-1.2-2.7
			c0-1.4,0.5-2.4,1.5-3.1c1-0.7,2.5-1.1,4.4-1.1h1.2v-0.7c0-1.2-0.5-1.7-1.5-1.7c-0.9,0-1.4,0.5-1.4,1.4h-3.9c0-1.2,0.5-2.2,1.6-3
			c1-0.8,2.4-1.1,4-1.1c1.6,0,2.9,0.4,3.8,1.2c0.9,0.8,1.4,1.9,1.4,3.2v5.6c0,1.2,0.2,2,0.5,2.7v0.2H53.2z M50.7,19.1
			c0.5,0,0.9-0.1,1.2-0.3c0.3-0.2,0.6-0.4,0.7-0.7v-2h-1.1c-1.4,0-2.1,0.6-2.1,1.8c0,0.4,0.1,0.6,0.4,0.9C50,19,50.3,19.1,50.7,19.1
			z"/>
		<path class="st0" d="M65.8,12.6l-1.3-0.1c-1.2,0-2,0.4-2.4,1.2v8h-3.9V9h3.7l0.1,1.6c0.7-1.2,1.6-1.9,2.8-1.9c0.4,0,0.8,0,1.1,0.1
			L65.8,12.6z"/>
		<path class="st0" d="M71.8,5.9V9h2.1v2.7h-2.1v5.8c0,0.5,0.1,0.8,0.3,1c0.2,0.2,0.5,0.3,1,0.3c0.4,0,0.7,0,1-0.1v2.8
			c-0.7,0.2-1.4,0.3-2.2,0.3c-1.4,0-2.4-0.3-3-1c-0.6-0.6-1-1.6-1-2.9v-6.3h-1.6V9h1.6V5.9H71.8z"/>
	</g>
</g>
</svg>
