<?xml version="1.0" encoding="utf-8"?>
<!-- Generator: Adobe Illustrator 21.1.0, SVG Export Plug-In . SVG Version: 6.00 Build 0)  -->
<svg version="1.1" id="Layer_1" xmlns="http://www.w3.org/2000/svg" xmlns:xlink="http://www.w3.org/1999/xlink" x="0px" y="0px"
	 viewBox="0 0 115 26" style="enable-background:new 0 0 115 26;" xml:space="preserve">
<style type="text/css">
	.st0{fill:#FFFFFF;}
</style>
<g>
	<g>
		<path class="st0" d="M43.2,7.4V4.3H31.6V21h11.5v-3.1h-7.5v-4H42v-3h-6.3V7.4H43.2z"/>
		<path class="st0" d="M54.4,18.2v-5.5c0-1.3-0.5-2.4-1.4-3.2c-0.9-0.8-2.2-1.2-3.8-1.2c-1.6,0-2.9,0.4-3.9,1.1
			c-1,0.7-1.5,1.7-1.5,2.9h3.9c0-0.9,0.5-1.4,1.4-1.4c1,0,1.5,0.6,1.5,1.7v0.7h-1.2c-1.9,0-3.3,0.3-4.3,1c-1,0.7-1.5,1.7-1.5,3
			c0,1.1,0.4,2,1.2,2.7c0.8,0.7,1.8,1.1,3,1.1c1.3,0,2.3-0.4,3-1.3c0.1,0.5,0.2,0.9,0.4,1.1h3.9v-0.2C54.6,20.2,54.4,19.3,54.4,18.2
			z M50.5,17.5c-0.1,0.3-0.4,0.5-0.7,0.7c-0.3,0.2-0.7,0.3-1.2,0.3c-0.4,0-0.7-0.1-0.9-0.3c-0.2-0.2-0.4-0.5-0.4-0.9
			c0-1.2,0.7-1.8,2-1.8h1.1V17.5z"/>
		<path class="st0" d="M63.3,14c-0.6-0.2-1.2-0.4-1.9-0.5c-0.7-0.1-1.3-0.3-1.6-0.5c-0.3-0.2-0.5-0.5-0.5-0.8c0-0.3,0.1-0.6,0.4-0.8
			s0.6-0.3,1-0.3c1,0,1.6,0.5,1.6,1.5h3.9c0-1.2-0.5-2.2-1.5-2.9c-1-0.7-2.3-1.1-4-1.1c-1.5,0-2.8,0.4-3.7,1.1s-1.4,1.7-1.4,2.8
			c0,0.6,0.2,1.2,0.5,1.7c0.3,0.5,0.8,0.9,1.4,1.3c0.6,0.3,1.4,0.6,2.4,0.8c1,0.2,1.6,0.4,2,0.6s0.5,0.5,0.5,0.8
			c0,0.3-0.1,0.6-0.4,0.8c-0.3,0.2-0.7,0.3-1.2,0.3c-0.6,0-1-0.1-1.4-0.4c-0.4-0.3-0.6-0.7-0.6-1.3h-3.6c0,0.7,0.2,1.4,0.7,2.1
			c0.5,0.7,1.1,1.2,2,1.6c0.8,0.4,1.8,0.6,2.8,0.6c1.6,0,2.9-0.4,3.9-1.1c1-0.7,1.5-1.6,1.5-2.8C66.1,15.7,65.2,14.6,63.3,14z"/>
		<path class="st0" d="M74.4,8.6l-2.1,7l-2-7h-4.1l4.3,12.5l-0.3,0.8c-0.1,0.4-0.4,0.7-0.6,0.8c-0.3,0.2-0.7,0.2-1.2,0.2h-0.5v2.7
			c0.6,0.2,1.1,0.2,1.6,0.2c1.8,0,3.1-0.8,3.8-2.4l0.2-0.5l5.1-14.5H74.4z"/>
		<path class="st0" d="M86.4,14c-0.6-0.2-1.2-0.4-1.9-0.5c-0.7-0.1-1.3-0.3-1.6-0.5c-0.3-0.2-0.5-0.5-0.5-0.8c0-0.3,0.1-0.6,0.4-0.8
			c0.3-0.2,0.6-0.3,1-0.3c1,0,1.6,0.5,1.6,1.5h3.9c0-1.2-0.5-2.2-1.5-2.9c-1-0.7-2.3-1.1-4-1.1c-1.5,0-2.8,0.4-3.7,1.1
			c-0.9,0.7-1.4,1.7-1.4,2.8c0,0.6,0.2,1.2,0.5,1.7c0.3,0.5,0.8,0.9,1.4,1.3c0.6,0.3,1.4,0.6,2.4,0.8c1,0.2,1.6,0.4,2,0.6
			c0.3,0.2,0.5,0.5,0.5,0.8c0,0.3-0.1,0.6-0.4,0.8c-0.3,0.2-0.7,0.3-1.2,0.3c-0.6,0-1-0.1-1.4-0.4c-0.4-0.3-0.6-0.7-0.6-1.3h-3.6
			c0,0.7,0.2,1.4,0.7,2.1c0.5,0.7,1.1,1.2,2,1.6c0.8,0.4,1.8,0.6,2.8,0.6c1.6,0,2.9-0.4,3.9-1.1c1-0.7,1.5-1.6,1.5-2.8
			C89.2,15.7,88.3,14.6,86.4,14z"/>
		<path class="st0" d="M90.6,8.6V21h3.9V8.6H90.6z M94.1,4.1c-0.4-0.4-0.9-0.5-1.6-0.5c-0.6,0-1.1,0.2-1.5,0.5
			c-0.4,0.4-0.6,0.8-0.6,1.4c0,0.6,0.2,1,0.6,1.4c0.4,0.4,0.9,0.5,1.5,0.5c0.6,0,1.2-0.2,1.6-0.5c0.4-0.4,0.6-0.8,0.6-1.4
			C94.7,4.9,94.5,4.4,94.1,4.1z"/>
		<path class="st0" d="M102,18.2c-0.5,0-0.8-0.1-1-0.3c-0.2-0.2-0.3-0.5-0.3-1v-5.7h2V8.6h-2V5.5h-3.9v3.1h-1.6v2.7h1.6v6.1
			c0,1.3,0.3,2.2,1,2.8c0.6,0.6,1.6,0.9,3,0.9c0.8,0,1.5-0.1,2.2-0.3v-2.8C102.7,18.2,102.4,18.2,102,18.2z"/>
		<path class="st0" d="M115,14.5c0-1.9-0.5-3.4-1.5-4.5c-1-1.1-2.4-1.6-4.1-1.6c-1.2,0-2.3,0.3-3.2,0.8c-0.9,0.5-1.6,1.3-2.1,2.3
			c-0.5,1-0.7,2.1-0.7,3.3v0.3c0,1.8,0.6,3.3,1.8,4.4c1.2,1.1,2.7,1.7,4.6,1.7c1,0,2-0.2,2.9-0.6c0.9-0.4,1.6-0.9,2-1.6l-1.8-2.1
			c-0.7,0.9-1.6,1.3-2.9,1.3c-0.7,0-1.3-0.2-1.8-0.6c-0.5-0.4-0.8-0.9-0.9-1.6h7.7V14.5z M111.2,13.6h-3.9c0.2-1.5,0.9-2.2,2-2.2
			c0.6,0,1.1,0.2,1.4,0.5c0.3,0.3,0.5,0.8,0.5,1.4V13.6z"/>
	</g>
	<g>
		<path class="st0" d="M10.1,6.4l-1.7,4.5l2.9,2.8L13,9.2L10.1,6.4z M14,9.6l-1.7,4.5l4-0.2L18,9.4L14,9.6z M18.2,8.1l-3-3l-4.6,0.3
			l3.3,3.3l4.6-0.3L18.2,8.1z M18.4,8.3l-0.2-0.2l-3-3l-4.6,0.3l3.3,3.3L18.4,8.3z M12.3,14.1l4-0.2L18,9.4l-4,0.2L12.3,14.1z
			 M10.1,6.4l-1.7,4.5l2.9,2.8L13,9.2L10.1,6.4z M12.8,0C5.7,0,0,5.7,0,12.8c0,7.1,5.7,12.8,12.8,12.8c7.1,0,12.8-5.7,12.8-12.8
			C25.7,5.7,19.9,0,12.8,0z M8.6,20.2L7.3,12l0.6,0.7l1.5,5.3c0,0,0.2,0.3,0.7,0.4c0.5,0.2,0.8,0.1,0.8,0.1l4.7-2.9l0.9-0.1
			l-6.4,5.2c-0.2,0.1-0.5,0.1-0.8,0C8.8,20.7,8.7,20.4,8.6,20.2z M15.5,21.4c-2.4,0-6.2-0.1-6.2-0.2c0-0.1,3.7-0.2,6.2-0.2
			c2.4,0,2.7,0.1,2.7,0.2C18.2,21.3,18,21.4,15.5,21.4z M19.2,9.1L19.2,9.1l-0.2,0.5l0,0l-1.5,3.9l-0.2,0.5c-0.2,0.6-0.8,1-1.4,1.1
			l-1.3,0.1l-2.8,0.2c-0.2,0-0.4,0-0.6-0.1c-0.2-0.1-0.4-0.2-0.5-0.3l-2-2l-0.9-0.9c-0.4-0.5-0.5-1.1-0.3-1.8l0.2-0.5l1.5-3.9l0,0
			l0.1-0.4l0-0.1c0.2-0.6,0.8-1,1.4-1.1l4-0.2c0.2,0,0.4,0,0.6,0.1c0.2,0.1,0.4,0.2,0.5,0.3l2.9,2.9C19.3,7.8,19.5,8.5,19.2,9.1z
			 M15.2,5l-4.6,0.3l3.3,3.3l4.6-0.3l-0.2-0.2L15.2,5z M12.3,14.1l4-0.2L18,9.4l-4,0.2L12.3,14.1z M10.1,6.4l-1.7,4.5l2.9,2.8
			L13,9.2L10.1,6.4z M10.1,6.4l-1.7,4.5l2.9,2.8L13,9.2L10.1,6.4z M14,9.6l-1.7,4.5l4-0.2L18,9.4L14,9.6z M18.2,8.1l-3-3l-4.6,0.3
			l3.3,3.3l4.6-0.3L18.2,8.1z M18.2,8.1l-3-3l-4.6,0.3l3.3,3.3l4.6-0.3L18.2,8.1z M14,9.6l-1.7,4.5l4-0.2L18,9.4L14,9.6z M10.1,6.4
			l-1.7,4.5l2.9,2.8L13,9.2L10.1,6.4z"/>
	</g>
</g>
</svg>
