<svg id="Layer_1" xmlns="http://www.w3.org/2000/svg" viewBox="0 0 260.5 56.7"><style>.st0{fill:#FFFFFF;}</style><path class="st0" d="M99.5 37.8c1.1-2.5 1.7-5.5 1.7-8.9v-1.7c0-3.5-.7-6.7-2.1-9.4-1.4-2.8-3.3-4.9-5.7-6.3-2.5-1.5-5.2-2.2-8.4-2.2s-6 .8-8.5 2.3c-2.5 1.5-4.3 3.6-5.7 6.4-1.3 2.8-2 6-2 9.6v2c0 3.5.8 6.6 2.1 9.3 1.4 2.7 3.3 4.8 5.7 6.2 2.4 1.5 5.2 2.2 8.4 2.2.8 0 1.5 0 2.2-.2l7.9 6.4 5.5-4.7-6-4.7c2.2-1.8 3.8-3.8 4.9-6.3zM92.2 29c0 3.6-.6 6.3-1.8 8.2-1.2 1.9-2.9 2.9-5.2 2.9-2.4 0-4.2-1-5.3-2.9-1.2-1.9-1.8-4.7-1.8-8.4v-1.7c0-3.6.6-6.4 1.8-8.2 1.2-1.9 2.9-2.8 5.3-2.8 2.3 0 4 1 5.3 2.9 1.2 1.9 1.8 4.7 1.8 8.3V29zM105.5 27.3v6.6h15.2v-6.6h-15.2zM153.8 15.6c-1.2-1.9-2.9-3.4-5-4.4-2.2-1-4.7-1.6-7.5-1.6h-14.7v36.9h8.9V34h5.7c4.5 0 8-1.1 10.6-3.2 2.6-2.2 3.9-5 3.9-8.6-.1-2.5-.7-4.7-1.9-6.6zm-8.6 10.2c-.9.9-2.2 1.3-4 1.3h-5.8V16.5h5.9c1.6 0 2.9.5 3.8 1.6.9 1 1.4 2.4 1.4 4.1 0 1.6-.4 2.8-1.3 3.6zM174.6 19.1v19.3c-.8 1.4-2.2 2.1-4.2 2.1-2.3 0-3.4-1.2-3.4-3.5V19.1h-8.5v17.8c0 3.3.8 5.8 2.3 7.5s3.8 2.6 6.8 2.6c3.1 0 5.5-1.2 7.3-3.5l.3 3h8V19.1h-8.6zM187 7.6v39h8.6v-39H187zM216 30.9c-1.2-.4-2.7-.8-4.3-1.1-1.6-.3-2.8-.7-3.6-1.2-.8-.5-1.1-1.1-1.1-1.9 0-.8.3-1.4.9-1.9s1.4-.7 2.3-.7c2.3 0 3.5 1.1 3.5 3.3h8.6c0-2.7-1.1-4.8-3.3-6.5-2.2-1.6-5.1-2.5-8.7-2.5-3.4 0-6.1.8-8.2 2.4-2.1 1.6-3.1 3.7-3.1 6.2 0 1.4.4 2.7 1.1 3.8.7 1.1 1.8 2 3.2 2.8 1.4.8 3.2 1.4 5.3 1.9 2.1.5 3.6.9 4.3 1.4s1.1 1 1.1 1.8-.3 1.4-.9 1.9c-.6.5-1.5.7-2.6.7-1.3 0-2.3-.3-3.1-.9-.8-.6-1.2-1.5-1.3-2.8h-8c0 1.6.5 3.1 1.5 4.6 1 1.5 2.5 2.6 4.3 3.5 1.8.8 3.9 1.3 6.3 1.3 3.5 0 6.4-.8 8.6-2.3 2.2-1.6 3.3-3.6 3.3-6.1.1-3.7-2-6.3-6.1-7.7zM249.7 32.2c0-4.3-1.1-7.6-3.4-10-2.2-2.4-5.3-3.6-9.1-3.6-2.7 0-5.1.6-7.1 1.8-2 1.2-3.5 2.8-4.5 5S224 30 224 32.8v.7c0 4 1.3 7.3 3.9 9.8s6 3.8 10.2 3.8c2.3 0 4.3-.4 6.3-1.3s3.5-2 4.5-3.5l-3.9-4.6c-1.5 1.9-3.6 2.8-6.3 2.8-1.6 0-3-.4-4-1.3s-1.7-2.1-2-3.6h17v-3.4zm-8.4-2.1h-8.6c.5-3.3 2-5 4.5-5 1.3 0 2.4.4 3.1 1.1.7.8 1.1 1.8 1 3.2v.7zM257.6 27.2v-.9c0-.4 0-.8-.2-1-.1-.3-.3-.5-.6-.7.5-.3.8-.7.8-1.3 0-.6-.2-1.1-.6-1.4-.4-.4-1-.5-1.8-.5h-2.1v6.3h1.1v-2.5h1.2c.4 0 .6.1.8.3.2.2.2.4.2.8 0 .8 0 1.3.1 1.4h1.1v-.1-.4zm-1.5-3.1c-.3.2-.6.2-.9.2h-.9v-1.8h1c.5 0 .8.1.9.2.2.2.3.4.3.7 0 .3-.2.5-.4.7zm1.5 3.1v-.9c0-.4 0-.8-.2-1-.1-.3-.3-.5-.6-.7.5-.3.8-.7.8-1.3 0-.6-.2-1.1-.6-1.4-.4-.4-1-.5-1.8-.5h-2.1v6.3h1.1v-2.5h1.2c.4 0 .6.1.8.3.2.2.2.4.2.8 0 .8 0 1.3.1 1.4h1.1v-.1-.4zm-1.5-3.1c-.3.2-.6.2-.9.2h-.9v-1.8h1c.5 0 .8.1.9.2.2.2.3.4.3.7 0 .3-.2.5-.4.7zm3.7-2.1c-.5-.9-1.1-1.5-1.9-2-.8-.5-1.7-.7-2.6-.7s-1.8.3-2.6.7c-.8.5-1.5 1.2-1.9 2-.5.8-.7 1.8-.7 2.8 0 1 .2 1.9.7 2.8.5.9 1.1 1.5 1.9 2 .8.5 1.7.7 2.6.7.9 0 1.8-.2 2.6-.7.8-.5 1.4-1.2 1.9-2s.7-1.8.7-2.8c0-1.1-.2-2-.7-2.8zm-.8 5c-.4.7-.9 1.3-1.5 1.7-.7.4-1.4.6-2.2.6-.8 0-1.5-.2-2.2-.6-.7-.4-1.2-1-1.6-1.7-.4-.7-.6-1.4-.6-2.3 0-.8.2-1.6.6-2.3.4-.7.9-1.3 1.6-1.7.7-.4 1.4-.6 2.2-.6.8 0 1.5.2 2.2.6s1.2 1 1.6 1.7.5 1.5.5 2.3c0 .8-.2 1.6-.6 2.3zm-1.5-.6c0-.4 0-.8-.2-1-.1-.3-.3-.5-.6-.7.5-.3.8-.7.8-1.3 0-.6-.2-1.1-.6-1.4-.4-.4-1-.5-1.8-.5H253v6.3h1.1v-2.5h1.2c.4 0 .6.1.8.3.2.2.2.4.2.8 0 .8 0 1.3.1 1.4h1.1v-.1c0-.1-.1-.3-.1-.4.2-.2.1-.5.1-.9zm-1.4-2.3c-.3.2-.6.2-.9.2h-.9v-1.8h1c.5 0 .8.1.9.2.2.2.3.4.3.7 0 .3-.2.5-.4.7zm1.5 3.1v-.9c0-.4 0-.8-.2-1-.1-.3-.3-.5-.6-.7.5-.3.8-.7.8-1.3 0-.6-.2-1.1-.6-1.4-.4-.4-1-.5-1.8-.5h-2.1v6.3h1.1v-2.5h1.2c.4 0 .6.1.8.3.2.2.2.4.2.8 0 .8 0 1.3.1 1.4h1.1v-.1-.4zm-1.5-3.1c-.3.2-.6.2-.9.2h-.9v-1.8h1c.5 0 .8.1.9.2.2.2.3.4.3.7 0 .3-.2.5-.4.7zm1.5 3.1v-.9c0-.4 0-.8-.2-1-.1-.3-.3-.5-.6-.7.5-.3.8-.7.8-1.3 0-.6-.2-1.1-.6-1.4-.4-.4-1-.5-1.8-.5h-2.1v6.3h1.1v-2.5h1.2c.4 0 .6.1.8.3.2.2.2.4.2.8 0 .8 0 1.3.1 1.4h1.1v-.1-.4zm-1.5-3.1c-.3.2-.6.2-.9.2h-.9v-1.8h1c.5 0 .8.1.9.2.2.2.3.4.3.7 0 .3-.2.5-.4.7z"/><g><path class="st0" d="M33.4 21c0 5.3-4.3 9.7-9.7 9.7-5.3 0-9.7-4.3-9.7-9.7 0-5.3 4.3-9.6 9.7-9.6 5.4 0 9.7 4.3 9.7 9.6z"/><path class="st0" d="M28.3 0C12.7 0 0 12.7 0 28.3 0 44 12.7 56.7 28.3 56.7 44 56.7 56.7 44 56.7 28.3 56.7 12.7 44 0 28.3 0zM12.2 37.5v-5.7l6.3 6.3 3.1 3c-3.4-.5-6.6-1.7-9.4-3.6zm29.1 8.9h-13L12.2 30.2V21c0-6.2 4.9-11.3 11-11.5h17.9c2.2 3.3 3.4 7.2 3.4 11.4 0 7.8-4.2 14.5-10.5 18.1v.1l7.3 7.3z"/></g></svg>