<?xml version="1.0" encoding="utf-8"?>
<!-- Generator: Adobe Illustrator 21.0.2, SVG Export Plug-In . SVG Version: 6.00 Build 0)  -->
<svg version="1.1" id="Layer_1" xmlns="http://www.w3.org/2000/svg" xmlns:xlink="http://www.w3.org/1999/xlink" x="0px" y="0px"
	 viewBox="0 0 90 90" style="enable-background:new 0 0 90 90;" xml:space="preserve">
<style type="text/css">
	.st0{fill:#0A3254;}
</style>
<g>
	<path class="st0" d="M84,23.2c4,4.9,6,10.3,6,16.1s-2,11.2-6,16.1c-4,4.9-9.5,8.8-16.4,11.7c-6.9,2.9-14.4,4.3-22.6,4.3
		c-3.7,0-7.2-0.3-10.6-0.9c-5.8,5.8-13.1,9.6-21.8,11.5c-1.7,0.3-3.2,0.6-4.3,0.7c-0.4,0-0.8-0.1-1.1-0.3c-0.3-0.2-0.6-0.5-0.7-0.9
		c-0.1-0.5,0.2-1.1,1-1.9c0.2-0.2,0.6-0.5,1.2-1.1c0.6-0.6,1-0.9,1.3-1.2c0.2-0.2,0.6-0.7,1.2-1.3c0.6-0.6,1-1.1,1.2-1.6
		s0.6-1.1,1-1.9s0.8-1.6,1-2.4c0.2-0.8,0.5-1.8,0.7-2.9c0.3-1.1,0.5-2.3,0.6-3.6c-4.9-3-8.7-6.6-11.5-10.9S0,44.2,0,39.4
		c0-5.8,2-11.2,6-16.1c4-4.9,9.5-8.8,16.4-11.7C29.3,8.7,36.8,7.2,45,7.2s15.7,1.4,22.6,4.3C74.5,14.4,80,18.3,84,23.2z M30.3,43.9
		c1.3-1.3,1.9-2.8,1.9-4.5s-0.6-3.3-1.9-4.5c-1.3-1.3-2.8-1.9-4.5-1.9c-1.8,0-3.3,0.6-4.5,1.9c-1.3,1.3-1.9,2.8-1.9,4.5
		s0.6,3.3,1.9,4.5c1.3,1.3,2.8,1.9,4.5,1.9C27.5,45.8,29,45.2,30.3,43.9z M49.5,43.9c1.3-1.3,1.9-2.8,1.9-4.5s-0.6-3.3-1.9-4.5
		c-1.3-1.3-2.8-1.9-4.5-1.9c-1.8,0-3.3,0.6-4.5,1.9c-1.3,1.3-1.9,2.8-1.9,4.5s0.6,3.3,1.9,4.5s2.8,1.9,4.5,1.9
		C46.8,45.8,48.3,45.2,49.5,43.9z M68.8,43.9c1.3-1.3,1.9-2.8,1.9-4.5s-0.6-3.3-1.9-4.5c-1.3-1.3-2.8-1.9-4.5-1.9s-3.3,0.6-4.5,1.9
		c-1.3,1.3-1.9,2.8-1.9,4.5s0.6,3.3,1.9,4.5s2.8,1.9,4.5,1.9S67.6,45.2,68.8,43.9z"/>
</g>
</svg>
