<?xml version="1.0" encoding="utf-8"?>
<!-- Generator: Adobe Illustrator 21.0.2, SVG Export Plug-In . SVG Version: 6.00 Build 0)  -->
<svg version="1.1" id="Layer_1" xmlns="http://www.w3.org/2000/svg" xmlns:xlink="http://www.w3.org/1999/xlink" x="0px" y="0px"
	 viewBox="0 0 90 90" style="enable-background:new 0 0 90 90;" xml:space="preserve">
<style type="text/css">
	.st0{fill:#0A3254;}
</style>
<g>
	<path class="st0" d="M60,40.7v8.7c0,0.3-0.1,0.6-0.3,0.9c-0.2,0.3-0.5,0.5-0.8,0.5l-7.3,1.1c-0.3,1.1-0.8,2.3-1.5,3.6
		c1.1,1.5,2.5,3.3,4.2,5.4c0.2,0.3,0.3,0.6,0.3,0.9c0,0.4-0.1,0.7-0.3,0.9c-0.7,0.9-2,2.3-3.9,4.2c-1.9,1.9-3.1,2.8-3.7,2.8
		c-0.3,0-0.7-0.1-1-0.3l-5.4-4.2c-1.2,0.6-2.4,1.1-3.6,1.5c-0.3,3.4-0.7,5.8-1.1,7.3c-0.2,0.7-0.7,1.1-1.4,1.1h-8.7
		c-0.3,0-0.7-0.1-0.9-0.4c-0.3-0.2-0.4-0.5-0.5-0.8l-1.1-7.2c-1.1-0.3-2.2-0.8-3.5-1.5l-5.5,4.2c-0.2,0.2-0.5,0.3-0.9,0.3
		c-0.3,0-0.7-0.1-1-0.4c-4.5-4.2-6.7-6.7-6.7-7.5c0-0.3,0.1-0.6,0.3-0.9c0.3-0.4,1-1.3,1.9-2.5c1-1.2,1.7-2.2,2.2-2.9
		c-0.7-1.4-1.3-2.7-1.6-3.8l-7.1-1.1c-0.3,0-0.6-0.2-0.8-0.4C0.1,49.9,0,49.6,0,49.2v-8.7c0-0.3,0.1-0.6,0.3-0.9
		c0.2-0.3,0.5-0.5,0.7-0.5L8.3,38c0.3-1.1,0.8-2.3,1.5-3.6c-1.1-1.5-2.5-3.3-4.2-5.4c-0.2-0.3-0.3-0.7-0.3-0.9
		c0-0.4,0.1-0.7,0.3-0.9c0.7-0.9,2-2.3,3.8-4.2c1.9-1.8,3.1-2.8,3.7-2.8c0.3,0,0.7,0.1,1,0.3l5.4,4.2c1.1-0.6,2.3-1.1,3.6-1.5
		c0.3-3.4,0.7-5.8,1.1-7.2c0.2-0.8,0.7-1.1,1.4-1.1h8.7c0.3,0,0.7,0.1,0.9,0.4c0.3,0.2,0.4,0.5,0.5,0.8l1.1,7.2
		c1.1,0.3,2.2,0.8,3.5,1.5l5.5-4.2c0.2-0.2,0.6-0.3,0.9-0.3c0.3,0,0.7,0.1,1,0.4c4.5,4.2,6.7,6.7,6.7,7.5c0,0.3-0.1,0.6-0.3,0.9
		c-0.4,0.5-1,1.3-2,2.5c-0.9,1.2-1.6,2.1-2.1,2.8c0.7,1.5,1.2,2.8,1.6,3.8l7.1,1.1c0.3,0.1,0.6,0.2,0.8,0.5
		C59.9,40.1,60,40.4,60,40.7z M38.5,53.5c2.3-2.3,3.5-5.2,3.5-8.5c0-3.3-1.2-6.1-3.5-8.5S33.3,33,30,33c-3.3,0-6.1,1.2-8.5,3.5
		C19.2,38.8,18,41.7,18,45c0,3.3,1.2,6.1,3.5,8.5c2.3,2.3,5.2,3.5,8.5,3.5C33.3,57,36.1,55.8,38.5,53.5z M90,17.7v6.6
		c0,0.5-2.3,1-7,1.5c-0.4,0.8-0.8,1.7-1.4,2.4c1.6,3.5,2.4,5.7,2.4,6.5c0,0.1-0.1,0.2-0.2,0.3c-3.8,2.2-5.8,3.3-5.8,3.3
		c-0.3,0-1-0.7-2.2-2.2c-1.2-1.5-2-2.5-2.4-3.2C72.8,32.9,72.3,33,72,33c-0.3,0-0.8,0-1.4-0.1c-0.4,0.7-1.3,1.7-2.4,3.2
		c-1.2,1.5-1.9,2.2-2.2,2.2c-0.1,0-2-1.1-5.8-3.3c-0.1-0.1-0.2-0.2-0.2-0.3c0-0.8,0.8-2.9,2.4-6.5c-0.6-0.8-1-1.6-1.4-2.4
		c-4.7-0.5-7-1-7-1.5v-6.6c0-0.5,2.3-1,7-1.5c0.4-0.9,0.9-1.7,1.4-2.4C60.8,10.3,60,8.1,60,7.3c0-0.1,0.1-0.2,0.2-0.3
		c0.1-0.1,0.7-0.4,1.6-0.9c1-0.6,1.9-1.1,2.8-1.6C65.5,4,65.9,3.7,66,3.7c0.3,0,1,0.7,2.2,2.2c1.2,1.5,2,2.5,2.4,3.2
		C71.2,9,71.7,9,72,9c0.3,0,0.8,0,1.4,0.1c1.6-2.2,3-4,4.3-5.3L78,3.7c0.1,0,2.1,1.1,5.8,3.3C83.9,7.1,84,7.2,84,7.3
		c0,0.8-0.8,2.9-2.4,6.5c0.5,0.7,1,1.5,1.4,2.4C87.7,16.7,90,17.2,90,17.7z M90,65.7v6.6c0,0.5-2.3,1-7,1.5
		c-0.4,0.8-0.8,1.7-1.4,2.4c1.6,3.5,2.4,5.7,2.4,6.5c0,0.1-0.1,0.2-0.2,0.3c-3.8,2.2-5.8,3.3-5.8,3.3c-0.3,0-1-0.7-2.2-2.2
		c-1.2-1.5-2-2.5-2.4-3.2C72.8,80.9,72.3,81,72,81c-0.3,0-0.8,0-1.4-0.1c-0.4,0.7-1.3,1.7-2.4,3.2c-1.2,1.5-1.9,2.2-2.2,2.2
		c-0.1,0-2-1.1-5.8-3.3c-0.1-0.1-0.2-0.2-0.2-0.3c0-0.8,0.8-2.9,2.4-6.5c-0.6-0.8-1-1.6-1.4-2.4c-4.7-0.5-7-1-7-1.5v-6.6
		c0-0.5,2.3-1,7-1.5c0.4-0.9,0.9-1.7,1.4-2.4c-1.6-3.5-2.4-5.7-2.4-6.5c0-0.1,0.1-0.2,0.2-0.3c0.1-0.1,0.7-0.4,1.6-0.9
		c1-0.6,1.9-1.1,2.8-1.6c0.9-0.5,1.3-0.7,1.4-0.7c0.3,0,1,0.7,2.2,2.2c1.2,1.5,2,2.5,2.4,3.2C71.2,57,71.7,57,72,57
		c0.3,0,0.8,0,1.4,0.1c1.6-2.2,3-4,4.3-5.3l0.3-0.1c0.1,0,2.1,1.1,5.8,3.3c0.1,0.1,0.2,0.2,0.2,0.3c0,0.8-0.8,2.9-2.4,6.5
		c0.5,0.7,1,1.5,1.4,2.4C87.7,64.7,90,65.2,90,65.7z M78,21c0-1.6-0.6-3-1.8-4.2C75,15.6,73.6,15,72,15c-1.6,0-3,0.6-4.2,1.8
		C66.6,17.9,66,19.4,66,21c0,1.7,0.6,3.1,1.8,4.2c1.2,1.2,2.6,1.8,4.2,1.8c1.7,0,3.1-0.6,4.2-1.8C77.4,24,78,22.6,78,21z M78,69
		c0-1.6-0.6-3-1.8-4.2C75,63.6,73.6,63,72,63c-1.6,0-3,0.6-4.2,1.8C66.6,65.9,66,67.4,66,69c0,1.7,0.6,3.1,1.8,4.2
		c1.2,1.2,2.6,1.8,4.2,1.8c1.7,0,3.1-0.6,4.2-1.8C77.4,72,78,70.6,78,69z"/>
</g>
</svg>
