<svg xmlns="http://www.w3.org/2000/svg" viewBox="0 0 39.8 40"><defs><style>.cls-1{fill:#f05133;}.cls-2{fill:#0a3254;}</style></defs><title>access-course-and-user-reports</title><g id="Layer_2" data-name="Layer 2"><g id="Layer_1-2" data-name="Layer 1"><path class="cls-1" d="M12.2,6v5.4h5.47A5.44,5.44,0,0,0,12.2,6Z"/><rect class="cls-1" x="19.64" y="16.14" width="2.73" height="1.03"/><rect class="cls-1" x="16.3" y="18.67" width="5.97" height="1.03"/><path class="cls-2" d="M18.82,16.44H17.73L15,13.67s0,0,0-.06a.36.36,0,0,0-.36-.36.37.37,0,0,0-.37.36.38.38,0,0,0,.37.37l.07,0,2.88,2.88h1.25a.2.2,0,0,0,0-.4Zm-4.2-2.21a.61.61,0,0,1-.62-.62.62.62,0,0,1,.62-.62.62.62,0,0,1,.62.62.28.28,0,0,1,0,.09l1.13,1.13A5.54,5.54,0,0,0,17,12.29a.23.23,0,0,0-.23-.23H11.51V6.9a.23.23,0,0,0-.23-.23,5.67,5.67,0,0,0-5.7,5.62,5.56,5.56,0,0,0,1.64,3.94l0,0,0,0a5.72,5.72,0,0,0,4,1.62,5.47,5.47,0,0,0,1.15-.12L12,17.4a6.32,6.32,0,0,1-.76.06A5.26,5.26,0,0,1,7.66,16l3.55-3.5L14.9,16a5.36,5.36,0,0,1-2,1.19l.36.36A5.76,5.76,0,0,0,16,15.47l-1.25-1.25ZM7.5,15.86A5.13,5.13,0,0,1,6,12.29a5.21,5.21,0,0,1,5-5.16v5.16a.13.13,0,0,0,0,.06Zm8,3.1H14.4l-2.76-2.77s0,0,0-.05a.37.37,0,1,0-.73,0,.36.36,0,0,0,.36.36h.08l2.87,2.88h1.25a.21.21,0,0,0,.21-.21A.2.2,0,0,0,15.48,19Z"/><path class="cls-1" d="M11.5,33.36h1.86V30.81H11.5Zm4.22,0h1.87V28H15.72Zm4.22-7.92v7.92h1.87V25.44ZM5.27,34.82H8V34H5.27Zm0-3.4H8v-.81H5.27Zm0-3.41H8V27.2H5.27Zm0-3.41H8v-.81H5.27Z"/><path class="cls-2" d="M39.8,18.39,34,15.06l-7.7,13.32v5.88H10.24V23.79H9.43V35.07H26.35l3.8-2.22V38H2V2H20.79V9.66a1.75,1.75,0,0,0,1.75,1.75h7.61v4.42h2V9.36L22.83,0H0V40H32.17V31.6Zm-10-8.59H22.54a.14.14,0,0,1-.14-.14V2.43Zm-2.2,21.6V28.71l6.93-12,1.09.63L28.83,29a1.38,1.38,0,0,1,.92.18,1.36,1.36,0,0,1,.61.71L37.1,18.23l1,.6-6.92,12L28.9,32.18Z"/></g></g></svg>