<svg xmlns="http://www.w3.org/2000/svg" viewBox="0 0 40 38.99"><defs><style>.cls-1{fill:#f05133;}.cls-2{fill:#0a3254;}</style></defs><title>custom-urls-and-branding</title><g id="Layer_2" data-name="Layer 2"><g id="Layer_1-2" data-name="Layer 1"><path class="cls-1" d="M17.23,17c1.22,1,2.5-.14,2.88-.5.38.36,1.66,1.46,2.88.5,3-2.39,4.64-6.61,3.2-9.59-1.13-2.34-4.26-1.85-5.58-1.52a5.71,5.71,0,0,0-.21-1.71,2.84,2.84,0,0,1,.75-.61c1,.63,3.83,1.71,6.13-3,0,0-5.72-2.2-6.49,2.29a3.87,3.87,0,0,0-.7.51A6.45,6.45,0,0,0,19,1.74a.59.59,0,0,0-.85-.06.6.6,0,0,0-.06.85,4.7,4.7,0,0,1,1.27,3.3C18,5.51,15.1,5.18,14,7.4,12.59,10.38,14.19,14.6,17.23,17Z"/><path class="cls-2" d="M39,29.74H14.62v-1.8H34.85a1,1,0,0,0,0-2H34V23.14a1,1,0,1,0-2,0v2.78H14.62V23.79H8v2.13H7.26a2.17,2.17,0,0,1-2.17-2.17v-.26a2.17,2.17,0,0,1,2.17-2.17H34.85a1,1,0,0,0,0-2H7.26a4.2,4.2,0,0,0-4.19,4.19v.26a4.2,4.2,0,0,0,4.19,4.19H8v1.8H1a1,1,0,0,0-1,1V38a1,1,0,0,0,1,1H39a1,1,0,0,0,1-1V30.75A1,1,0,0,0,39,29.74ZM29.33,37H2V31.76H8v3.3l3.3-3,3.3,3V31.76H29.33ZM38,37H35.31V31.76H38Z"/></g></g></svg>