<svg xmlns="http://www.w3.org/2000/svg" viewBox="0 0 37.36 40"><defs><style>.cls-1{fill:#f05133;}.cls-2{fill:#0a3254;}</style></defs><title>custom-course-content</title><g id="Layer_2" data-name="Layer 2"><g id="Layer_1-2" data-name="Layer 1"><path class="cls-1" d="M18.56,18.88l3-2.1,3,2.1V0h-6Zm12.68,8.64V24.88H30v2.64H27.38v1.21H30v2.64h1.22V28.73h2.64V27.52Z"/><path class="cls-2" d="M37.36,28.12a6.73,6.73,0,0,0-5.76-6.64V1.5h-5v2h3v18a6.72,6.72,0,0,0,0,13.27V38H6.64V3.53h9.88v-2H0V40H31.6V34.77A6.73,6.73,0,0,0,37.36,28.12Zm-6.73,4.7a4.7,4.7,0,1,1,4.69-4.7A4.7,4.7,0,0,1,30.63,32.82Z"/></g></g></svg>