<svg xmlns="http://www.w3.org/2000/svg" viewBox="0 0 40 32.32"><defs><style>.cls-1{fill:none;}.cls-2{fill:#0a3254;}.cls-3{fill:#f05133;}</style></defs><title>custom-certifications</title><g id="Layer_2" data-name="Layer 2"><g id="Layer_1-2" data-name="Layer 1"><path class="cls-1" d="M37.78,2H2.22a.2.2,0,0,0-.2.19v27.9a.19.19,0,0,0,.2.19H37.78a.19.19,0,0,0,.2-.19V2.21A.2.2,0,0,0,37.78,2ZM34.59,20.55l-.15.12.09.17a1.54,1.54,0,0,1,0,1.4,1.5,1.5,0,0,1-1.16.78l-.19,0v.19a1.57,1.57,0,0,1-.45,1l1,2.37a.46.46,0,0,1,0,.47.48.48,0,0,1-.38.2h0l-.66-.06a.15.15,0,0,0-.13.06l-.4.53a.49.49,0,0,1-.38.18h-.06a.47.47,0,0,1-.37-.28l-1.11-2.54a1.57,1.57,0,0,1-.6.16h-.05a1.45,1.45,0,0,1-.85-.29L27.48,27.7a.48.48,0,0,1-.38.28H27a.49.49,0,0,1-.37-.18l-.4-.53a.16.16,0,0,0-.13-.06l-.67.06h0a.47.47,0,0,1-.39-.2.49.49,0,0,1-.05-.47l1.08-2.46a1.53,1.53,0,0,1-.26-.69l0-.19H25.6a1.51,1.51,0,0,1-1.31-2.11l.08-.17-.16-.11a1.48,1.48,0,0,1-.69-1.22,1.5,1.5,0,0,1,.61-1.26l.16-.11-.09-.17a1.51,1.51,0,0,1,0-1.4,1.53,1.53,0,0,1,1.16-.79l.19,0v-.19a1.52,1.52,0,0,1,.71-1.2,1.53,1.53,0,0,1,1.4-.11l.18.08.1-.16a1.52,1.52,0,0,1,1.22-.69h.05a1.51,1.51,0,0,1,1.21.61l.12.16.17-.09a1.49,1.49,0,0,1,.68-.17,1.63,1.63,0,0,1,.72.18,1.52,1.52,0,0,1,.78,1.16l0,.19h.2a1.53,1.53,0,0,1,1.2.72,1.49,1.49,0,0,1,.1,1.39l-.08.18.17.1a1.51,1.51,0,0,1,.68,1.22A1.48,1.48,0,0,1,34.59,20.55Z"/><path class="cls-1" d="M33.05,18.36l.43-1a.49.49,0,0,0,0-.44.47.47,0,0,0-.38-.22L32,16.66l-.12-1.06a.46.46,0,0,0-.24-.36.46.46,0,0,0-.23-.06.54.54,0,0,0-.21.05l-.95.49-.64-.86a.47.47,0,0,0-.38-.19h0a.47.47,0,0,0-.38.21l-.58.9-1-.43a.65.65,0,0,0-.19,0,.55.55,0,0,0-.25.07.48.48,0,0,0-.22.38l-.06,1.07L25.49,17a.48.48,0,0,0-.37.69l.49.95-.86.64a.46.46,0,0,0,0,.77l.9.59-.43,1a.47.47,0,0,0,0,.43.47.47,0,0,0,.38.23l1.07.05.12,1.07a.47.47,0,0,0,.25.36.43.43,0,0,0,.22.06.46.46,0,0,0,.22-.06l.95-.48.63.86a.47.47,0,0,0,.38.19h0a.46.46,0,0,0,.38-.22l.58-.89,1,.42a.39.39,0,0,0,.18,0,.43.43,0,0,0,.25-.07.46.46,0,0,0,.23-.38l.05-1.06L33.23,22a.47.47,0,0,0,.37-.69l-.48-.95.86-.64a.49.49,0,0,0,.19-.39.51.51,0,0,0-.22-.39Zm-3.69,4A2.84,2.84,0,1,1,32.2,19.5,2.84,2.84,0,0,1,29.36,22.34Z"/><path class="cls-2" d="M29.36,16.66A2.84,2.84,0,1,0,32.2,19.5,2.84,2.84,0,0,0,29.36,16.66Z"/><path class="cls-2" d="M37.78,0H2.22A2.22,2.22,0,0,0,0,2.21v27.9a2.22,2.22,0,0,0,2.22,2.21H37.78A2.22,2.22,0,0,0,40,30.11V2.21A2.22,2.22,0,0,0,37.78,0ZM38,30.11a.19.19,0,0,1-.2.19H2.22a.19.19,0,0,1-.2-.19V2.21A.2.2,0,0,1,2.22,2H37.78a.2.2,0,0,1,.2.19Z"/><path class="cls-3" d="M34.52,18.07l-.17-.1.08-.18a1.49,1.49,0,0,0-.1-1.39,1.53,1.53,0,0,0-1.2-.72h-.2l0-.19a1.52,1.52,0,0,0-.78-1.16,1.63,1.63,0,0,0-.72-.18,1.49,1.49,0,0,0-.68.17l-.17.09-.12-.16a1.51,1.51,0,0,0-1.21-.61h-.05a1.52,1.52,0,0,0-1.22.69l-.1.16-.18-.08a1.52,1.52,0,0,0-2.11,1.31v.19l-.19,0a1.53,1.53,0,0,0-1.16.79,1.51,1.51,0,0,0,0,1.4l.09.17-.16.11a1.5,1.5,0,0,0-.61,1.26,1.48,1.48,0,0,0,.69,1.22l.16.11-.08.17a1.51,1.51,0,0,0,1.31,2.11h.19l0,.19a1.53,1.53,0,0,0,.26.69L25,26.61a.49.49,0,0,0,.05.47.47.47,0,0,0,.39.2h0l.67-.06a.16.16,0,0,1,.13.06l.4.53A.49.49,0,0,0,27,28h.06a.48.48,0,0,0,.38-.28L28.64,25a1.45,1.45,0,0,0,.85.29h.05a1.57,1.57,0,0,0,.6-.16l1.11,2.54a.47.47,0,0,0,.37.28h.06a.49.49,0,0,0,.38-.18l.4-.53a.15.15,0,0,1,.13-.06l.66.06h0a.48.48,0,0,0,.38-.2.46.46,0,0,0,0-.47l-1-2.37a1.57,1.57,0,0,0,.45-1v-.19l.19,0a1.5,1.5,0,0,0,1.16-.78,1.54,1.54,0,0,0,0-1.4l-.09-.17.15-.12a1.48,1.48,0,0,0,.61-1.26A1.51,1.51,0,0,0,34.52,18.07ZM34,19.72l-.86.64.48.95a.47.47,0,0,1-.37.69l-1.06.12-.05,1.06a.46.46,0,0,1-.23.38.43.43,0,0,1-.25.07.39.39,0,0,1-.18,0l-1-.42-.58.89a.46.46,0,0,1-.38.22h0a.47.47,0,0,1-.38-.19l-.63-.86-.95.48a.46.46,0,0,1-.22.06.43.43,0,0,1-.22-.06.47.47,0,0,1-.25-.36l-.12-1.07-1.07-.05a.47.47,0,0,1-.38-.23.47.47,0,0,1,0-.43l.43-1-.9-.59a.46.46,0,0,1,0-.77l.86-.64-.49-.95a.48.48,0,0,1,.37-.69l1.06-.12.06-1.07a.48.48,0,0,1,.22-.38.55.55,0,0,1,.25-.07.65.65,0,0,1,.19,0l1,.43.58-.9a.47.47,0,0,1,.38-.21h0a.47.47,0,0,1,.38.19l.64.86.95-.49a.54.54,0,0,1,.21-.05.46.46,0,0,1,.23.06.46.46,0,0,1,.24.36L32,16.66l1.07.06a.47.47,0,0,1,.38.22.49.49,0,0,1,0,.44l-.43,1,.9.58a.51.51,0,0,1,.22.39A.49.49,0,0,1,34,19.72Z"/><rect class="cls-2" x="5.32" y="6.33" width="29.4" height="1"/><rect class="cls-2" x="5.32" y="10.33" width="29.4" height="1"/><rect class="cls-2" x="5.32" y="16.83" width="15.29" height="2"/><rect class="cls-2" x="5.32" y="21.83" width="15.29" height="2"/></g></g></svg>