<svg xmlns="http://www.w3.org/2000/svg" viewBox="0 0 40 31.05"><defs><style>.cls-1{fill:#0a3254;}.cls-2{fill:#f05133;}</style></defs><title>intuitive-ui</title><g id="Layer_2" data-name="Layer 2"><g id="Layer_1-2" data-name="Layer 1"><path class="cls-1" d="M39.61,27.24l-2.93-4.79V2.05a2.05,2.05,0,0,0-2-2H5.36A2.05,2.05,0,0,0,3.31,2.05v20.4l-3,4.92A2.11,2.11,0,0,0,0,28.65v.21a2.19,2.19,0,0,0,2.18,2.19H37.81A2.18,2.18,0,0,0,40,28.86v-.18a1.79,1.79,0,0,0,0-.23A2,2,0,0,0,39.61,27.24ZM5.08,2.05a.28.28,0,0,1,.28-.29H34.64a.28.28,0,0,1,.27.29V22.22H5.08ZM38.23,28.48a.61.61,0,0,0,0,.14v.24a.42.42,0,0,1-.41.42H2.19a.42.42,0,0,1-.42-.42v-.38a.27.27,0,0,1,0-.19l3.06-5H35.12l3,4.92,0,.07a.34.34,0,0,1,.06.16ZM31.46,24l.35.67H34.3L33.88,24ZM15.52,26.52,15,28.29h9.93l-.53-1.77Z"/><path class="cls-2" d="M6.88,3.58V20.52H33.12V3.58ZM22.8,13.36l-1.66,0,1,2.35-1.26.53-1-2.34-1.12,1.23a.14.14,0,0,1-.14,0,.12.12,0,0,1,0-.13l0-5.58a.12.12,0,0,1,.08-.09.13.13,0,0,1,.12,0l4,3.87a.11.11,0,0,1,.06.12A.12.12,0,0,1,22.8,13.36Z"/></g></g></svg>