<svg xmlns="http://www.w3.org/2000/svg" viewBox="0 0 32.61 40"><defs><style>.cls-1{fill:#0a3254;}.cls-2{fill:#f05133;}</style></defs><title>tools-to-help-streamline</title><g id="Layer_2" data-name="Layer 2"><g id="Layer_1-2" data-name="Layer 1"><path class="cls-1" d="M1.54,26.93l2.2,1.27L2,31.14,7.7,34.41l1.7-2.94,2.19,1.26L21,16.49l-10-5.8ZM17.09,0,15.56,2.65a.93.93,0,0,0-.44,0l-4.93.84A1.1,1.1,0,0,0,9.43,4L3.5,14.27a1.09,1.09,0,0,0,.4,1.49,1.14,1.14,0,0,0,.54.14,1.08,1.08,0,0,0,.94-.54l5.68-9.83L14.21,5l-2.42,4.2L21.84,15l5.3-9.19Z"/><path class="cls-2" d="M32.58,38.92a.89.89,0,0,0-.88-.66H3.6L5.51,35,2.65,33.32.22,37.53a1.66,1.66,0,0,0,.6,2.25,1.64,1.64,0,0,0,.67.21H31.74A.87.87,0,0,0,32.58,38.92Z"/></g></g></svg>