<svg xmlns="http://www.w3.org/2000/svg" viewBox="0 0 38.29 36.19"><defs><style>.cls-1{fill:#f05133;}.cls-2{fill:#0a3254;}</style></defs><title>unlimited-users</title><g id="Layer_2" data-name="Layer 2"><g id="Layer_1-2" data-name="Layer 1"><polygon class="cls-1" points="12.72 26.86 12.26 34.33 14.59 34.33 14.13 26.86 12.72 26.86"/><path class="cls-1" d="M14.17,26.31l.68-1s-.42-1.1-.42-1.1-2,0-2,0L12,25.34l.68,1Z"/><path class="cls-2" d="M21.15,23.46,18.27,22.4l-1-1.19a9.33,9.33,0,0,0,.88-1.76,4.45,4.45,0,0,0,2.09-3.32c0-.34.08-1.16-.29-1.49a.72.72,0,0,0-.57-.18c.89-4.69-2.14-7.33-6.07-7.33-6,0-6.08,5.59-6,7.32a.72.72,0,0,0-.45.19c-.37.33-.32,1.15-.29,1.49a4.43,4.43,0,0,0,2.11,3.33l.06,0a9.33,9.33,0,0,0,.81,1.68L8.54,22.4,5.66,23.46c-.51.15-5.66,2-5.66,11.17a.74.74,0,0,0,.74.74H4.33v.07a.74.74,0,0,0,.74.74H21.74a.74.74,0,0,0,.74-.74v-.07h3.59a.74.74,0,0,0,.74-.74C26.81,25.45,21.66,23.61,21.15,23.46Zm-2.22-7.84a2.51,2.51,0,0,1,.41-.25,3.57,3.57,0,0,1-.74,2.51A14,14,0,0,0,18.93,15.62ZM7.5,15.37a2.55,2.55,0,0,1,.5.32A13.69,13.69,0,0,0,8.34,18,3.6,3.6,0,0,1,7.5,15.37Zm7.86-3.11A4.67,4.67,0,0,0,17.43,14a6.34,6.34,0,0,1,0,.76c0,3.54-1.53,7.35-4,7.35s-4-3.68-4-7.17A9.57,9.57,0,0,0,15.36,12.26ZM9.23,23.72a.81.81,0,0,0,.31-.21l1-1.16a4.13,4.13,0,0,0,2.93,1.26,4.06,4.06,0,0,0,2.85-1.22l1,1.12a.74.74,0,0,0,.31.21l1.1.41L15.41,34.71h-4L8.06,24.15Z"/><path class="cls-1" d="M33.85,0c-1.38,0-3.2,1.4-4.52,2.63C28,1.4,26.12,0,24.74,0a4.44,4.44,0,1,0,0,8.88c1.38,0,3.24-1.4,4.59-2.63,1.32,1.23,3.14,2.63,4.52,2.63a4.44,4.44,0,0,0,0-8.88ZM24.74,6.82a2.38,2.38,0,1,1,0-4.75c.54,0,1.83.86,3.14,2l.37.34-.37.34A8.14,8.14,0,0,1,24.74,6.82Zm9.11,0a7.6,7.6,0,0,1-3-2l-.4-.37c.13-.12.26-.25.4-.36,1.26-1.16,2.5-2,3-2a2.38,2.38,0,1,1,0,4.75Z"/></g></g></svg>