<svg xmlns="http://www.w3.org/2000/svg" viewBox="0 0 40 32.8"><defs><style>.cls-1{fill:#f05133;}.cls-2{fill:#0a3254;}</style></defs><title>unlimited-access-to-all-content</title><g id="Layer_2" data-name="Layer 2"><g id="Layer_1-2" data-name="Layer 1"><path class="cls-1" d="M26.62,7.12c-2,0-4.64,2-6.56,3.82-2-1.78-4.67-3.82-6.67-3.82a6.45,6.45,0,0,0,0,12.9c2,0,4.7-2,6.67-3.82C22,18,24.61,20,26.62,20a6.45,6.45,0,0,0,0-12.9ZM13.39,17a3.45,3.45,0,0,1,0-6.9c.79,0,2.66,1.26,4.56,3l.54.49-.54.49C16.05,15.75,14.18,17,13.39,17Zm13.23,0c-.78,0-2.59-1.25-4.42-2.92l-.57-.53L22.2,13c1.83-1.68,3.64-2.91,4.42-2.92a3.45,3.45,0,0,1,0,6.9Z"/><path class="cls-2" d="M38.78,24.68h-.6V2.45h.6a1.23,1.23,0,0,0,0-2.45H1.22a1.23,1.23,0,0,0,0,2.45h.6V24.68h-.6a1.23,1.23,0,0,0,0,2.45H15v.68a5,5,0,0,0,10,0v-.68H38.78a1.23,1.23,0,0,0,0-2.45ZM3.86,2.45H36.14V24.68H3.86ZM23.37,27.81a3.37,3.37,0,0,1-6.74,0v-.68h6.74Z"/></g></g></svg>