<svg xmlns="http://www.w3.org/2000/svg" viewBox="0 0 100 100"><defs><style>.cls-1{fill:#0a3254;}.cls-2{fill:#fff;}.cls-3{fill:#1ab211;}</style></defs><title>audit-trail</title><g id="Layer_2" data-name="Layer 2"><g id="Layer_1-2" data-name="Layer 1"><circle class="cls-1" cx="50" cy="50" r="50"/><circle class="cls-2" cx="82.46" cy="87.49" r="10"/><circle class="cls-3" cx="82.46" cy="87.49" r="7.5"/><path class="cls-2" d="M86.79,85.54a.49.49,0,0,1-.16.38l-4,4-.76.76a.53.53,0,0,1-.38.16.55.55,0,0,1-.38-.16L80.31,90l-2-2a.52.52,0,0,1-.15-.38.54.54,0,0,1,.15-.38l.76-.76a.54.54,0,0,1,.38-.15.52.52,0,0,1,.38.15l1.64,1.65,3.66-3.67a.54.54,0,0,1,.38-.15.52.52,0,0,1,.38.15l.76.76A.51.51,0,0,1,86.79,85.54Z"/><path class="cls-2" d="M72,60.06H61.15a.74.74,0,0,0-.7.81v.74H55.27l0,0a.76.76,0,0,0,0-1.08.78.78,0,0,0-1.1,0l-1.35,1.36a.76.76,0,0,0,0,1.09l1.35,1.36a.77.77,0,0,0,.55.22.79.79,0,0,0,.55-.22.8.8,0,0,0,0-1.11l0-.05h5.18V64a.69.69,0,0,0,.7.75H72a.83.83,0,0,0,.86-.75V60.87A.88.88,0,0,0,72,60.06Z"/><path class="cls-2" d="M29.48,60.87v.74h-.77v-17H42.24l0,.05a.78.78,0,0,0,1.1,1.11l1.35-1.36a.76.76,0,0,0,0-1.09l-1.35-1.36a.78.78,0,0,0-1.1,0,.76.76,0,0,0,0,1.08l0,0H27.86a.74.74,0,0,0-.7.8V62.42a.69.69,0,0,0,.7.74h1.62V64a.69.69,0,0,0,.7.75H41a.83.83,0,0,0,.85-.75V60.87a.88.88,0,0,0-.85-.81H30.18A.74.74,0,0,0,29.48,60.87Z"/><path class="cls-2" d="M57.27,53.12a.77.77,0,0,0-.56-.74l-5.42-1.55a.75.75,0,0,0-.42,0l-5.42,1.55a.78.78,0,0,0,0,1.49l5.28,1.5a.72.72,0,0,0-.34.66v5a1.54,1.54,0,0,0,0,2.68v3l-.08,0a.78.78,0,0,0-1.12,1.09l1.35,1.36a.79.79,0,0,0,1.09,0L53,67.8a.76.76,0,0,0,0-1.09.71.71,0,0,0-1,0v-3a1.55,1.55,0,0,0,0-2.68V56a.82.82,0,0,0-.42-.66l5.21-1.5A.75.75,0,0,0,57.27,53.12Z"/><path class="cls-2" d="M55,69.35H47.21a2.33,2.33,0,0,0,0,4.65H55a2.33,2.33,0,0,0,0-4.65Z"/><path class="cls-2" d="M45.66,46.13h4.73v2l-.08,0a.78.78,0,0,0-1.12,1.09l1.35,1.36a.79.79,0,0,0,1.09,0L53,49.22a.76.76,0,0,0,0-1.09.71.71,0,0,0-1,0v-2H56.5a.82.82,0,0,0,.85-.75V42.29a.87.87,0,0,0-.85-.81H45.66a.74.74,0,0,0-.69.81v3.09A.68.68,0,0,0,45.66,46.13Z"/><path class="cls-2" d="M53,39.93a.76.76,0,0,0,0-1.09.71.71,0,0,0-1,0V37.45a1.55,1.55,0,0,0,0-2.68V30.65h3A2.33,2.33,0,0,0,55,26H47.21a2.33,2.33,0,0,0,0,4.65h3.18v4.12a1.54,1.54,0,0,0,0,2.68v1.42l-.08,0a.78.78,0,0,0-1.12,1.09l1.35,1.36a.79.79,0,0,0,1.09,0Z"/><path class="cls-2" d="M44.11,52.32H35.6a.74.74,0,0,0-.7.8v4.33l-.07,0a.78.78,0,0,0-1.11,0,.76.76,0,0,0,0,1.09l1.34,1.36a.8.8,0,0,0,1.1,0l1.35-1.36a.77.77,0,0,0,0-1.09.72.72,0,0,0-1.06,0V53.87h7.66a.78.78,0,1,0,0-1.55Z"/><path class="cls-2" d="M68.47,58.51a.77.77,0,0,0,0-1.09.72.72,0,0,0-1.06,0v-4.3a.88.88,0,0,0-.85-.8H58.05a.78.78,0,1,0,0,1.55h7.82v3.58l-.07,0a.79.79,0,0,0-1.12,0,.77.77,0,0,0,0,1.09L66,59.87a.77.77,0,0,0,.55.22.75.75,0,0,0,.54-.22Z"/></g></g></svg>