<svg xmlns="http://www.w3.org/2000/svg" viewBox="0 0 100 100"><defs><style>.cls-1{fill:#0a3254;}.cls-2{fill:#fff;}.cls-3{fill:#1ab211;}</style></defs><title>complete-overview</title><g id="Layer_2" data-name="Layer 2"><g id="Layer_1-2" data-name="Layer 1"><circle class="cls-1" cx="50" cy="50" r="50"/><circle class="cls-2" cx="82.12" cy="87.49" r="10"/><circle class="cls-3" cx="82.12" cy="87.49" r="7.5"/><path class="cls-2" d="M86.45,85.54a.49.49,0,0,1-.16.38l-4,4-.76.76a.49.49,0,0,1-.37.16.49.49,0,0,1-.38-.16L80,90l-2-2a.49.49,0,0,1-.16-.38.51.51,0,0,1,.16-.38l.76-.76a.51.51,0,0,1,.37-.15.52.52,0,0,1,.38.15l1.65,1.65,3.66-3.67a.52.52,0,0,1,.38-.15.51.51,0,0,1,.37.15l.76.76A.51.51,0,0,1,86.45,85.54Z"/><path class="cls-2" d="M60.18,58l-5.69,3.29,8,13.87,5.69-3.29Zm-2-3.43-.31.18-1-1.72a15,15,0,0,0,2.73-18.39,14.88,14.88,0,0,0-20.35-5.47,15,15,0,0,0-5.45,20.41,14.83,14.83,0,0,0,9.06,7,15.07,15.07,0,0,0,3.87.51,14.58,14.58,0,0,0,5.18-1l.9,1.56-.33.2L54,60.44l5.69-3.29Zm-14.68-.39A12.36,12.36,0,0,1,36,48.36a12.53,12.53,0,0,1,4.55-17.07,12.42,12.42,0,0,1,17,4.57A12.53,12.53,0,0,1,53,52.93,12.29,12.29,0,0,1,43.53,54.18Zm11,2.51-.81-1.4c.15-.08.3-.15.45-.24.41-.24.81-.49,1.19-.76l.83,1.44Z"/></g></g></svg>