<svg xmlns="http://www.w3.org/2000/svg" viewBox="0 0 100 100"><defs><style>.cls-1{fill:#0a3254;}.cls-2{fill:#fff;}.cls-3{fill:#1ab211;}</style></defs><title>desktop-and-mobile-access</title><g id="Layer_2" data-name="Layer 2"><g id="Layer_1-2" data-name="Layer 1"><circle class="cls-1" cx="50" cy="50" r="50"/><circle class="cls-2" cx="83.91" cy="87.49" r="10"/><circle class="cls-3" cx="83.91" cy="87.49" r="7.5"/><path class="cls-2" d="M88.24,85.54a.49.49,0,0,1-.16.38l-4,4-.76.76a.49.49,0,0,1-.38.16.51.51,0,0,1-.38-.16L81.77,90l-2-2a.49.49,0,0,1-.16-.38.51.51,0,0,1,.16-.38l.75-.76a.55.55,0,0,1,.38-.15.52.52,0,0,1,.38.15l1.64,1.65,3.66-3.67a.54.54,0,0,1,.38-.15.52.52,0,0,1,.38.15l.76.76A.51.51,0,0,1,88.24,85.54Z"/><polygon class="cls-2" points="67.82 55.82 62.97 51.67 62.97 54.24 55.09 54.24 55.09 51.67 50.23 55.82 55.09 59.97 55.09 57.39 62.97 57.39 62.97 59.97 67.82 55.82"/><path class="cls-2" d="M71.48,45.32H67.56V34.58a1.93,1.93,0,0,0-1.94-1.93H27.94A1.93,1.93,0,0,0,26,34.58V63.51a1.93,1.93,0,0,0,1.94,1.93H43v2.47H37.86a1.05,1.05,0,0,0,0,2.1H55.7a1.05,1.05,0,1,0,0-2.1H50.54V65.44h8.23v2A2.52,2.52,0,0,0,61.29,70H71.48A2.52,2.52,0,0,0,74,67.49V47.84A2.52,2.52,0,0,0,71.48,45.32ZM67.05,69.05H65.72a.61.61,0,0,1,0-1.21h1.33a.61.61,0,1,1,0,1.21Zm4.85-2h-11V59.93h-2.1v3.42H28.1V34.74H65.46V45.32H61.29a2.52,2.52,0,0,0-2.52,2.52v3.85h2.1v-3.4h11Z"/></g></g></svg>