<svg xmlns="http://www.w3.org/2000/svg" viewBox="0 0 100 100"><defs><style>.cls-1{fill:#0a3254;}.cls-2{fill:#fff;}.cls-3{fill:#1ab211;}</style></defs><title>electronic-signatures</title><g id="Layer_2" data-name="Layer 2"><g id="Layer_1-2" data-name="Layer 1"><circle class="cls-1" cx="50" cy="50" r="50"/><circle class="cls-2" cx="83.91" cy="87.49" r="10"/><circle class="cls-3" cx="83.91" cy="87.49" r="7.5"/><path class="cls-2" d="M88.24,85.54a.49.49,0,0,1-.16.38l-4,4-.76.76a.49.49,0,0,1-.38.16.51.51,0,0,1-.38-.16L81.77,90l-2-2a.49.49,0,0,1-.16-.38.51.51,0,0,1,.16-.38l.75-.76a.55.55,0,0,1,.38-.15.52.52,0,0,1,.38.15l1.64,1.65,3.66-3.67a.54.54,0,0,1,.38-.15.52.52,0,0,1,.38.15l.76.76A.51.51,0,0,1,88.24,85.54Z"/><path class="cls-2" d="M42.67,40.17,31.42,59.65l2.64,1.52-2,3.54,6.79,3.92,2-3.54,2.63,1.52L54.73,47.13Zm-.29,22.34L39.75,61l-2,3.53-1.59-.92,2-3.53-2.64-1.53,8.25-14.29,6.86,4Zm7.7-35.17-1.83,3.17a1.4,1.4,0,0,0-.54,0l-5.91,1a1.31,1.31,0,0,0-.91.63L33.77,44.46a1.3,1.3,0,0,0,.48,1.78,1.28,1.28,0,0,0,.65.18A1.32,1.32,0,0,0,36,45.77L42.84,34l3.79-.65-2.91,5,12.05,7,6.37-11Zm4.6,13.88-6.86-4,3.36-5.83,6.86,4Z"/><path class="cls-2" d="M68.67,74a1.07,1.07,0,0,0-1.06-.78H33.9l2.28-4-3.42-2-2.92,5.06a2,2,0,0,0,.72,2.7,1.79,1.79,0,0,0,.8.25l.15,0H67.66A1,1,0,0,0,68.67,74Z"/></g></g></svg>