<?xml version="1.0" encoding="utf-8"?>
<!-- Generator: Adobe Illustrator 22.1.0, SVG Export Plug-In . SVG Version: 6.00 Build 0)  -->
<svg version="1.1" id="Layer_1" xmlns="http://www.w3.org/2000/svg" xmlns:xlink="http://www.w3.org/1999/xlink" x="0px" y="0px"
	 viewBox="0 0 677 753.5" style="enable-background:new 0 0 677 753.5;" xml:space="preserve">
<style type="text/css">
	.st0{clip-path:url(#SVGID_2_);}
	.st1{fill:#FF4713;}
	.st2{fill:#7BA4DD;}
	.st3{fill:#B0C8E9;}
	.st4{fill:#C8D6EB;}
</style>
<g id="Layer_2_1_">
	<g>
		<defs>
			<rect id="SVGID_1_" x="2.8" y="-23.5" width="677.4" height="800"/>
		</defs>
		<clipPath id="SVGID_2_">
			<use xlink:href="#SVGID_1_"  style="overflow:visible;"/>
		</clipPath>
		<g id="Layer_1-2" class="st0">
			<path class="st1" d="M-6.9,465L132,382.6L-6.9,300.2L-6.9,465L-6.9,465z"/>
			<path class="st2" d="M264.5,448.3L28,307.9l236.5-140.4V448.3z"/>
			<path class="st3" d="M144.5,667.4L-92,527l85.6-50.8l150.9-89.6L144.5,667.4L144.5,667.4z"/>
			<path class="st1" d="M263.9,573.9l-99.1-58.8l99.1-58.8V573.9z"/>
			<path class="st3" d="M276.4,331.1l138.9-82.4l-138.9-82.4V331.1z"/>
			<path class="st1" d="M166.2,213.8l98.4-58.4L166.2,97V213.8z"/>
			<path class="st3" d="M275,621.3L511.6,481L275,340.6V621.3L275,621.3z"/>
			<path class="st2" d="M519.3,479L677,385.4l-157.7-93.6V479z M2,187.2l157.7-93.6L2,0V187.2z"/>
			<path class="st4" d="M420.5,414.6l-132.9-78.9l132.9-78.9V414.6z"/>
			<path class="st1" d="M512.6,383.9l-80-47.5l80-47.5V383.9L512.6,383.9z"/>
			<path class="st2" d="M1.7,753.5l132.6-78.7L1.7,596.1V753.5z"/>
		</g>
	</g>
</g>
</svg>
