<svg xmlns="http://www.w3.org/2000/svg" viewBox="0 0 397.42 47.26">
  <defs>
    <style>
      .cls-5{fill:#003057}.cls-6{fill:#878787}
    </style>
  </defs>
  <g id="Layer_2" data-name="Layer 2">
    <g id="Layer_1-2" data-name="Layer 1">
      <path id="_Path_" data-name="&lt;Path&gt;" d="M15.76.92A18.87 18.87 0 0 0 0 19.06L7.27 18a11.9 11.9 0 0 1 1.93-5A36.14 36.14 0 0 1 15.76.92z" fill="#ff4713"/>
      <path id="_Path_2" data-name="&lt;Path&gt;" d="M25 9.47a40.05 40.05 0 0 1 8.82-1.62 19.14 19.14 0 0 0-1.59-1.8 18.88 18.88 0 0 0-14-5.38A30.67 30.67 0 0 0 12.05 10 11.8 11.8 0 0 1 25 9.47z" fill="#c8d6eb"/>
      <path id="_Path_3" data-name="&lt;Path&gt;" d="M29.91 23.82a51.39 51.39 0 0 1 6.25 3.63 19 19 0 0 0-1.28-18.06 40.23 40.23 0 0 0-8.25 1.28c.19.16.37.32.55.5a11.79 11.79 0 0 1 2.73 12.65z" fill="#b0c8e9"/>
      <path id="_Path_4" data-name="&lt;Path&gt;" d="M29.22 25.28a11.64 11.64 0 0 1-8.55 5.93l-1 7.28a18.9 18.9 0 0 0 15.71-9.6 50.48 50.48 0 0 0-6.16-3.61z" fill="#7ba4dd"/>
      <circle id="_Path_5" data-name="&lt;Path&gt;" class="cls-5" cx="18.93" cy="19" r="6.77"/>
      <path class="cls-5" d="M48.05 4.23a3.47 3.47 0 0 1 1-2.58 4.53 4.53 0 0 1 5.7 0 3.44 3.44 0 0 1 1.05 2.58 3.4 3.4 0 0 1-1.07 2.6 4.46 4.46 0 0 1-5.65 0 3.4 3.4 0 0 1-1.03-2.6zM55.44 37h-7V11h7zM57.62 23.79c0-4.05.91-7.29 2.73-9.69a8.85 8.85 0 0 1 7.47-3.61 8 8 0 0 1 6.28 2.84V0h7v37h-6.3l-.34-2.77a8.19 8.19 0 0 1-6.69 3.25 8.84 8.84 0 0 1-7.37-3.62q-2.79-3.62-2.78-10.07zm6.95.5a10.31 10.31 0 0 0 1.28 5.63 4.13 4.13 0 0 0 3.7 2 4.65 4.65 0 0 0 4.55-2.73V18.83a4.59 4.59 0 0 0-4.5-2.74q-5.02 0-5.03 8.2zM96 37.49A12.77 12.77 0 0 1 86.66 34a12.51 12.51 0 0 1-3.59-9.36v-.67a15.77 15.77 0 0 1 1.51-7 11.06 11.06 0 0 1 4.3-4.76 12 12 0 0 1 6.34-1.67 10.8 10.8 0 0 1 8.41 3.37q3.08 3.36 3.07 9.55v2.84H90.12a6.45 6.45 0 0 0 2 4.09 6.13 6.13 0 0 0 4.3 1.54 7.51 7.51 0 0 0 6.31-2.93l3.41 3.82a10.42 10.42 0 0 1-4.23 3.46A14 14 0 0 1 96 37.49zm-.79-21.4a4.34 4.34 0 0 0-3.36 1.41 7.22 7.22 0 0 0-1.65 4h9.67V21a5.18 5.18 0 0 0-1.25-3.59 4.5 4.5 0 0 0-3.42-1.32zM123.27 37a8 8 0 0 1-.7-2.34 8.4 8.4 0 0 1-6.57 2.83 9.23 9.23 0 0 1-6.34-2.22 7.08 7.08 0 0 1-2.51-5.58 7.35 7.35 0 0 1 3.06-6.35c2.05-1.48 5-2.22 8.87-2.24h3.2v-1.49a4.32 4.32 0 0 0-.92-2.89 3.67 3.67 0 0 0-2.93-1.08 4.13 4.13 0 0 0-2.75.84 2.85 2.85 0 0 0-1 2.31h-7a7 7 0 0 1 1.4-4.19 9.26 9.26 0 0 1 3.95-3 14.37 14.37 0 0 1 5.72-1.09 11.36 11.36 0 0 1 7.64 2.41 8.46 8.46 0 0 1 2.83 6.8V31a12.43 12.43 0 0 0 1 5.61V37zm-5.75-4.84a6 6 0 0 0 2.84-.69 4.44 4.44 0 0 0 1.92-1.84v-4.46h-2.6q-5.22 0-5.56 3.61v.4a2.8 2.8 0 0 0 .92 2.15 3.53 3.53 0 0 0 2.48.84zM131.13 23.79q0-6 2.85-9.65a9.25 9.25 0 0 1 7.69-3.65 8.14 8.14 0 0 1 6.67 2.93l.28-2.45h6.31v25.17a11.14 11.14 0 0 1-1.55 5.94 9.94 9.94 0 0 1-4.38 3.85 15.26 15.26 0 0 1-6.59 1.33 14.16 14.16 0 0 1-5.59-1.15 9.9 9.9 0 0 1-4.11-2.94l3.08-4.24a8.14 8.14 0 0 0 6.3 2.91 6 6 0 0 0 4.31-1.48 5.52 5.52 0 0 0 1.54-4.2v-1.39a8 8 0 0 1-6.33 2.72 9.22 9.22 0 0 1-7.61-3.67q-2.9-3.67-2.9-9.74zm7 .5a9.58 9.58 0 0 0 1.42 5.57 4.51 4.51 0 0 0 3.9 2 4.83 4.83 0 0 0 4.55-2.37v-11a4.81 4.81 0 0 0-4.5-2.4 4.53 4.53 0 0 0-3.93 2.06q-1.49 2.05-1.49 6.14zM169.79 37.49a12.73 12.73 0 0 1-9.32-3.49 12.48 12.48 0 0 1-3.6-9.36v-.67a15.77 15.77 0 0 1 1.51-7 11.18 11.18 0 0 1 4.3-4.76 12 12 0 0 1 6.32-1.72 10.79 10.79 0 0 1 8.41 3.37q3.07 3.36 3.07 9.55v2.84h-16.56a6.45 6.45 0 0 0 2 4.09 6.15 6.15 0 0 0 4.3 1.54 7.51 7.51 0 0 0 6.31-2.88l3.47 3.79a10.52 10.52 0 0 1-4.24 3.46 14 14 0 0 1-5.97 1.24zm-.79-21.4a4.34 4.34 0 0 0-3.36 1.41 7.22 7.22 0 0 0-1.65 4h9.68V21a5.18 5.18 0 0 0-1.26-3.59 4.5 4.5 0 0 0-3.41-1.32zM188.38 11l.22 3a9.08 9.08 0 0 1 7.48-3.49q4.14 0 6.17 2.43t2.06 7.26V37h-6.95V20.31a4.56 4.56 0 0 0-1-3.22 4.33 4.33 0 0 0-3.2-1 4.8 4.8 0 0 0-4.41 2.51V37h-6.95V11z"/>
      <path class="cls-6" d="M237.58 36.37a7.53 7.53 0 0 1-.36-1.62c-.09-.64-.15-1.29-.18-2a10 10 0 0 1-3.48 2.84 11.67 11.67 0 0 1-2.39.88 11.48 11.48 0 0 1-2.82.33 10.15 10.15 0 0 1-3.4-.54 7.52 7.52 0 0 1-2.6-1.53 6.71 6.71 0 0 1-1.67-2.31 6.89 6.89 0 0 1-.6-2.89 7 7 0 0 1 .81-3.37 7.34 7.34 0 0 1 2.32-2.56 11.39 11.39 0 0 1 3.68-1.6 19.71 19.71 0 0 1 4.87-.55H237v-2.89a5.6 5.6 0 0 0-1.69-4.32 7 7 0 0 0-4.94-1.57 8.85 8.85 0 0 0-2.74.4 7 7 0 0 0-2.17 1.11 5.39 5.39 0 0 0-1.42 1.65 4.1 4.1 0 0 0-.51 2h-2.84a6 6 0 0 1 .71-2.8 7.68 7.68 0 0 1 2-2.4 10.23 10.23 0 0 1 3.1-1.69 11.94 11.94 0 0 1 4-.64 12.83 12.83 0 0 1 3.75.52 8.17 8.17 0 0 1 2.95 1.56 7.09 7.09 0 0 1 1.92 2.6 9.18 9.18 0 0 1 .68 3.65V32.37c0 .47.08.93.15 1.37s.16.87.25 1.27a8.21 8.21 0 0 0 .33 1v.29zm-8.9-2a9.92 9.92 0 0 0 2.85-.39 9.07 9.07 0 0 0 2.38-1.08 8.39 8.39 0 0 0 1.85-1.59 8 8 0 0 0 1.25-2v-5.66h-4.85a17.59 17.59 0 0 0-3.89.39 9.45 9.45 0 0 0-2.91 1.13 5.26 5.26 0 0 0-1.81 1.83 4.52 4.52 0 0 0-.62 2.38 4.76 4.76 0 0 0 .4 1.95 4.63 4.63 0 0 0 1.15 1.59 5.38 5.38 0 0 0 1.81 1.06 6.93 6.93 0 0 0 2.39.35zM254.43 34.45a8.55 8.55 0 0 0 2.59-.39 6.89 6.89 0 0 0 2.22-1.15 6.31 6.31 0 0 0 1.6-1.87 6.17 6.17 0 0 0 .72-2.58h2.72a7.93 7.93 0 0 1-.91 3.36 8.66 8.66 0 0 1-2.16 2.65 9.75 9.75 0 0 1-3.09 1.74 11.55 11.55 0 0 1-8.42-.35 9.91 9.91 0 0 1-3.43-2.71 12 12 0 0 1-2.08-4.06 17.67 17.67 0 0 1-.7-5v-1a17.62 17.62 0 0 1 .7-5 12.12 12.12 0 0 1 2.07-4.09 9.89 9.89 0 0 1 3.42-2.71 10.75 10.75 0 0 1 4.73-1 11 11 0 0 1 3.82.64 9.14 9.14 0 0 1 3.08 1.82 8.85 8.85 0 0 1 2.1 2.88 9.89 9.89 0 0 1 .87 3.77h-2.72a7.63 7.63 0 0 0-.68-2.79 6.54 6.54 0 0 0-1.54-2.11 6.76 6.76 0 0 0-2.22-1.34 7.83 7.83 0 0 0-2.71-.46 7.65 7.65 0 0 0-3.73.85 7.26 7.26 0 0 0-2.5 2.3 9.83 9.83 0 0 0-1.41 3.32 17.07 17.07 0 0 0-.44 3.9v1a17.49 17.49 0 0 0 .44 3.94 9.88 9.88 0 0 0 1.4 3.31 7 7 0 0 0 2.51 2.29 7.64 7.64 0 0 0 3.75.84zM283.69 36.37a8.13 8.13 0 0 1-.37-1.62c-.09-.64-.15-1.29-.18-2a9.68 9.68 0 0 1-1.51 1.57 9.92 9.92 0 0 1-2 1.27 11.26 11.26 0 0 1-2.39.88 11.48 11.48 0 0 1-2.82.33 10.19 10.19 0 0 1-3.4-.54 7.71 7.71 0 0 1-2.6-1.53 6.85 6.85 0 0 1-1.67-2.31 7.44 7.44 0 0 1 .25-6.22 7.34 7.34 0 0 1 2.32-2.56A11.35 11.35 0 0 1 273 22a19.57 19.57 0 0 1 4.86-.55h5.26v-2.89a5.64 5.64 0 0 0-1.69-4.32 7 7 0 0 0-4.94-1.57 8.92 8.92 0 0 0-2.75.4 7 7 0 0 0-2.16 1.11 5.26 5.26 0 0 0-1.42 1.65 4.1 4.1 0 0 0-.51 2h-2.85a6 6 0 0 1 .71-2.8 7.86 7.86 0 0 1 2-2.4 10.12 10.12 0 0 1 3.1-1.69 11.84 11.84 0 0 1 4-.64 12.73 12.73 0 0 1 3.75.52 8.09 8.09 0 0 1 2.95 1.56 7.09 7.09 0 0 1 1.92 2.6 9 9 0 0 1 .69 3.65V32.37c0 .47.09.93.16 1.37s.15.87.25 1.27a5.92 5.92 0 0 0 .33 1v.29zm-8.91-2a10 10 0 0 0 2.86-.39 9.22 9.22 0 0 0 2.36-1.12 8.23 8.23 0 0 0 3.1-3.57v-5.64h-4.86a17.59 17.59 0 0 0-3.89.39 9.49 9.49 0 0 0-2.9 1.13 5.26 5.26 0 0 0-1.79 1.83 4.53 4.53 0 0 0-.63 2.38 4.76 4.76 0 0 0 .4 1.95 4.63 4.63 0 0 0 1.15 1.59 5.48 5.48 0 0 0 1.81 1.06 6.93 6.93 0 0 0 2.39.35zM289.93 23.32a19.84 19.84 0 0 1 .68-5.38 12.47 12.47 0 0 1 2-4.11 8.81 8.81 0 0 1 3.11-2.63 9 9 0 0 1 4.13-.92 9.42 9.42 0 0 1 4.68 1.09 9.17 9.17 0 0 1 3.23 3V0h2.82v36.37h-2.68l-.12-3.37a9 9 0 0 1-3.25 2.85 10.15 10.15 0 0 1-4.75 1 8.67 8.67 0 0 1-4.1-1 9.2 9.2 0 0 1-3.1-2.67 12.86 12.86 0 0 1-2-4.11 19.4 19.4 0 0 1-.68-5.28zm2.86.5a18.41 18.41 0 0 0 .45 4.18 10.35 10.35 0 0 0 1.38 3.35 6.43 6.43 0 0 0 5.68 3 9.22 9.22 0 0 0 2.61-.34 7.43 7.43 0 0 0 2.09-1 6.71 6.71 0 0 0 1.58-1.47 9.24 9.24 0 0 0 1.15-1.85v-12a11.49 11.49 0 0 0-1-1.87 6.89 6.89 0 0 0-1.51-1.59 7.33 7.33 0 0 0-2.09-1.12 8.45 8.45 0 0 0-2.74-.41 6.65 6.65 0 0 0-3.39.82 6.74 6.74 0 0 0-2.34 2.23 10.37 10.37 0 0 0-1.38 3.37 18.36 18.36 0 0 0-.45 4.16zM325.51 36.84a11.28 11.28 0 0 1-4.62-.93 10.81 10.81 0 0 1-3.64-2.61 12.09 12.09 0 0 1-2.38-4 14.62 14.62 0 0 1-.85-5.05v-1a15.41 15.41 0 0 1 .89-5.36 12.49 12.49 0 0 1 2.4-4.09 10.84 10.84 0 0 1 3.5-2.62 9.66 9.66 0 0 1 4.18-.92 10.3 10.3 0 0 1 4.33.87 9 9 0 0 1 3.18 2.44 10.83 10.83 0 0 1 2 3.72 16.05 16.05 0 0 1 .66 4.71v1.73h-18.32v.54a12 12 0 0 0 .64 4 9.85 9.85 0 0 0 1.8 3.23 8.48 8.48 0 0 0 2.77 2.17 7.93 7.93 0 0 0 3.57.79 9.28 9.28 0 0 0 4-.83A8.85 8.85 0 0 0 332.8 31l1.77 1.35a11.54 11.54 0 0 1-1.48 1.75 9 9 0 0 1-1.95 1.45 10.66 10.66 0 0 1-2.51 1 13 13 0 0 1-3.12.29zM325 12.69a7.24 7.24 0 0 0-3 .62 7.53 7.53 0 0 0-2.43 1.75 9.41 9.41 0 0 0-1.72 2.73 13.32 13.32 0 0 0-.92 3.54h15.37V21a11.2 11.2 0 0 0-.52-3.12 8.51 8.51 0 0 0-1.38-2.66 6.86 6.86 0 0 0-2.27-1.86 6.7 6.7 0 0 0-3.13-.67zM340.79 10.75l.1 4.17a10.6 10.6 0 0 1 1.48-1.92 8.66 8.66 0 0 1 1.88-1.47 9.33 9.33 0 0 1 2.27-.93 10.23 10.23 0 0 1 2.65-.33 9.35 9.35 0 0 1 4.83 1.19 6.55 6.55 0 0 1 2.87 3.79 10.43 10.43 0 0 1 1.48-2 9.08 9.08 0 0 1 2-1.57 9.79 9.79 0 0 1 2.43-1 10.11 10.11 0 0 1 2.87-.38 10.9 10.9 0 0 1 3.55.53 6.3 6.3 0 0 1 2.64 1.68 7.6 7.6 0 0 1 1.64 2.92 14.11 14.11 0 0 1 .57 4.27v16.67h-2.84V19.65a10.69 10.69 0 0 0-.45-3.37 5.21 5.21 0 0 0-1.28-2.13 4.4 4.4 0 0 0-2-1.1 9.45 9.45 0 0 0-2.52-.31 7.53 7.53 0 0 0-3.15.65 7.62 7.62 0 0 0-2.3 1.61 7.14 7.14 0 0 0-1.46 2.14 7 7 0 0 0-.61 2.3v16.93h-2.84V19.44a9.74 9.74 0 0 0-.45-3.2 5.13 5.13 0 0 0-1.28-2.06 4.78 4.78 0 0 0-2-1.11 9.21 9.21 0 0 0-2.55-.33 7.38 7.38 0 0 0-2.84.51 7 7 0 0 0-2.14 1.36 7.42 7.42 0 0 0-1.5 1.94 12.23 12.23 0 0 0-.95 2.25v17.57h-2.84V10.75zM386.88 32.3l7.48-21.55h3.06l-10.85 29.71c-.22.59-.5 1.24-.84 2a9.12 9.12 0 0 1-1.32 2 7.08 7.08 0 0 1-2 1.59 6.15 6.15 0 0 1-3 .66h-.54l-.62-.08-.58-.11a4 4 0 0 1-.44-.11v-2.34l.77.09a5.71 5.71 0 0 0 .7 0 6.54 6.54 0 0 0 2-.29 4.47 4.47 0 0 0 1.53-.88 5.69 5.69 0 0 0 1.14-1.46 11 11 0 0 0 .9-2l1.24-3.38-9.67-25.41h3.11z"/>
    </g>
  </g>
</svg>
