<svg xmlns="http://www.w3.org/2000/svg" viewBox="0 0 36 36"><defs><style>.cls-1{fill:#fff;}.cls-2{fill:#0a3254;}</style></defs><title>quality-management-icon</title><g id="Layer_2" data-name="Layer 2"><g id="Layer_1-2" data-name="Layer 1"><circle class="cls-1" cx="18" cy="18" r="18"/><path class="cls-2" d="M25.6,15.34l-.79-.87a.71.71,0,0,1-.1-.81l.57-1a.71.71,0,0,0-.38-1l-1.11-.4a.7.7,0,0,1-.46-.67l0-1.18a.7.7,0,0,0-.7-.71h-.1l-1.16.16h-.1a.7.7,0,0,1-.62-.39l-.53-1.05A.69.69,0,0,0,19.51,7a.67.67,0,0,0-.4.14l-1,.68a.66.66,0,0,1-.4.13.67.67,0,0,1-.41-.13l-1-.68A.67.67,0,0,0,16,7a.7.7,0,0,0-.63.39l-.53,1.05a.7.7,0,0,1-.62.39h-.1l-1.16-.16h-.1a.71.71,0,0,0-.7.71l0,1.18a.69.69,0,0,1-.46.67l-1.11.4a.7.7,0,0,0-.37,1l.56,1a.71.71,0,0,1-.1.81l-.79.87A.69.69,0,0,0,10,16.39L11,17a.71.71,0,0,1,.29.77L11,18.94a.7.7,0,0,0,.61.88l1.16.12a.69.69,0,0,1,.61.54l.27,1.15a.68.68,0,0,0,.68.54.63.63,0,0,0,.26-.05l1.09-.43a.75.75,0,0,1,.26-.05.73.73,0,0,1,.53.24l.76.9a.72.72,0,0,0,1.07,0l.76-.9a.73.73,0,0,1,.53-.24.75.75,0,0,1,.26.05l1.09.43a.63.63,0,0,0,.26.05.68.68,0,0,0,.68-.54l.27-1.15a.69.69,0,0,1,.61-.54l1.17-.12a.7.7,0,0,0,.6-.88l-.3-1.13A.71.71,0,0,1,24.5,17l1-.65A.7.7,0,0,0,25.6,15.34Zm-1.88.54a2.1,2.1,0,0,0-.87,2.28l.09.35-.35,0a2.09,2.09,0,0,0-1.83,1.62l-.08.35-.33-.13a2.08,2.08,0,0,0-.78-.15A2.11,2.11,0,0,0,18,21l-.23.27L17.51,21a2.11,2.11,0,0,0-1.59-.73,2.08,2.08,0,0,0-.78.15l-.33.13-.08-.35a2.09,2.09,0,0,0-1.83-1.62l-.35,0,.09-.35a2.1,2.1,0,0,0-.87-2.28l-.3-.2.25-.27A2.1,2.1,0,0,0,12,13l-.17-.32.34-.12a2.1,2.1,0,0,0,1.38-2v-.36l.35.05.29,0a2.09,2.09,0,0,0,1.87-1.16l.16-.32.29.21A2.12,2.12,0,0,0,19,9l.29-.21.16.32a2.1,2.1,0,0,0,1.87,1.16l.29,0,.35-.05v.36a2.09,2.09,0,0,0,1.39,2l.33.12-.17.32a2.09,2.09,0,0,0,.3,2.42l.24.27Z"/><polygon class="cls-2" points="17.75 11.59 16.72 13.66 14.44 13.99 16.09 15.61 15.7 17.89 17.75 16.81 19.79 17.89 19.4 15.61 21.06 13.99 18.77 13.66 17.75 11.59"/><path class="cls-2" d="M21.18,22.88a1.49,1.49,0,0,1-.51-.1l-1.1-.44-.76.89a1.21,1.21,0,0,1-.16.16L21.13,29l1.36-2.13,2.48.44L22.54,21.8A1.39,1.39,0,0,1,21.18,22.88Z"/><path class="cls-2" d="M16.68,23.23l-.76-.89-1.09.44a1.55,1.55,0,0,1-.52.1A1.39,1.39,0,0,1,13,21.8l-2.43,5.53L13,26.89,14.36,29l2.48-5.63Z"/></g></g></svg>