<svg xmlns="http://www.w3.org/2000/svg" viewBox="0 0 100 100"><defs><style>.cls-1{fill:#0a3254;}.cls-2{fill:#fff;}.cls-3{fill:#e65133;}</style></defs><title>boost-productivity</title><g id="Layer_2" data-name="Layer 2"><g id="Layer_1-2" data-name="Layer 1"><circle class="cls-1" cx="50" cy="50" r="50"/><circle class="cls-2" cx="83.94" cy="87.55" r="10"/><circle class="cls-3" cx="83.94" cy="87.55" r="7.5"/><path class="cls-2" d="M88.58,86.06a.36.36,0,0,1-.14.26l-2,2,.48,2.79a.34.34,0,0,1,0,.11.32.32,0,0,1-.06.2.21.21,0,0,1-.17.08.4.4,0,0,1-.22-.07L83.94,90.1l-2.5,1.31a.46.46,0,0,1-.23.07A.2.2,0,0,1,81,91.4a.32.32,0,0,1-.06-.2.54.54,0,0,1,0-.11l.48-2.79-2-2a.38.38,0,0,1-.14-.26c0-.14.1-.23.31-.26l2.8-.41,1.26-2.54c.07-.15.16-.22.27-.22s.2.07.27.22l1.26,2.54,2.8.41C88.48,85.83,88.58,85.92,88.58,86.06Z"/><path class="cls-2" d="M57.18,36.47a6.34,6.34,0,1,0,6.34,6.33A6.34,6.34,0,0,0,57.18,36.47Zm0,10.22a3.89,3.89,0,1,1,3.89-3.89A3.89,3.89,0,0,1,57.18,46.69Zm16.67-6.07-.17-1.37-4.74-.6a11.85,11.85,0,0,0-.6-1.42l2.86-3.81-.87-1.08a16.76,16.76,0,0,0-2.91-2.86l-1.1-.84-3.76,2.91A11.83,11.83,0,0,0,61.13,31l-.69-4.72-1.37-.15a16,16,0,0,0-4.08,0l-1.37.18L53,31.05a11.85,11.85,0,0,0-1.42.6L47.78,28.8l-1.08.86a16.88,16.88,0,0,0-2.87,2.92L43,33.67l2.92,3.76a10.44,10.44,0,0,0-.58,1.43l-4.72.68-.16,1.37a17.49,17.49,0,0,0-.1,1.89A18.28,18.28,0,0,0,40.5,45l.18,1.37,4.73.6a12.43,12.43,0,0,0,.6,1.41l-2.85,3.82L44,53.27a16.47,16.47,0,0,0,2.92,2.86L48,57l3.77-2.92a11.88,11.88,0,0,0,1.43.58l.68,4.71,1.38.16a17.54,17.54,0,0,0,1.89.11,16.68,16.68,0,0,0,2.19-.15l1.37-.18.6-4.72A12.64,12.64,0,0,0,62.76,54l3.82,2.85,1.08-.86A17.12,17.12,0,0,0,70.52,53l.84-1.09-2.92-3.76c.22-.47.41-1,.58-1.43l4.72-.69.15-1.36A17.58,17.58,0,0,0,74,42.8,16.19,16.19,0,0,0,73.85,40.62Zm-2.34,3.29-4.42.64-.21.79a9.88,9.88,0,0,1-.95,2.37l-.4.71,2.73,3.52a14.55,14.55,0,0,1-1.74,1.77L62.94,51l-.7.41a10.14,10.14,0,0,1-2.35,1l-.78.21-.56,4.43a13.81,13.81,0,0,1-2.49,0l-.63-4.41-.79-.21a9.56,9.56,0,0,1-2.37-1l-.71-.4L48,53.87a14.55,14.55,0,0,1-1.77-1.74l2.67-3.57-.41-.7a10.14,10.14,0,0,1-1-2.35l-.22-.78-4.43-.56c0-.46-.07-.92-.07-1.37s0-.73.05-1.11l4.42-.64.2-.78a10,10,0,0,1,1-2.37l.4-.71L46.1,33.67a13.85,13.85,0,0,1,1.74-1.77l3.57,2.67.7-.41a10,10,0,0,1,2.36-1l.78-.22.56-4.42a13.72,13.72,0,0,1,2.48,0l.64,4.42.79.2a10,10,0,0,1,2.37,1l.71.4,3.52-2.74a14.63,14.63,0,0,1,1.78,1.74L65.42,37l.42.71a9.76,9.76,0,0,1,1,2.35l.22.78,4.43.56a12.65,12.65,0,0,1,.07,1.36C71.55,43.17,71.54,43.54,71.51,43.91Z"/><path class="cls-2" d="M43.33,63.22,46,61.75l-.08-.28a7.84,7.84,0,0,0-.35-1.1A9.34,9.34,0,0,0,45,59.16l-.13-.25-2.94.71a7.28,7.28,0,0,0-1.31-1.35l.83-2.91-.25-.14a10.06,10.06,0,0,0-2.28-1l-.27-.08-1.57,2.58a7.47,7.47,0,0,0-1.89,0l-1.47-2.64-.28.07c-.38.1-.75.22-1.1.35a9.34,9.34,0,0,0-1.21.56l-.26.14.72,2.93a7,7,0,0,0-1.36,1.31l-2.91-.83-.14.25a10.45,10.45,0,0,0-1,2.27l-.08.28L28.68,63a7,7,0,0,0,0,1.88L26,66.3l.07.28c.1.38.22.75.35,1.1A10.89,10.89,0,0,0,27,68.89l.14.25,2.94-.71a7.23,7.23,0,0,0,1.3,1.35l-.82,2.91.24.14a10.74,10.74,0,0,0,2.28,1l.28.08,1.57-2.58a7.39,7.39,0,0,0,1.88,0L38.27,74l.28-.07c.37-.1.75-.22,1.1-.35A11.8,11.8,0,0,0,40.86,73l.25-.14L40.39,70a7,7,0,0,0,1.36-1.31l2.91.83.15-.25a10.29,10.29,0,0,0,1-2.28l.08-.27L43.3,65.1A7.39,7.39,0,0,0,43.33,63.22Zm-6.14,3.94a3.36,3.36,0,1,1,1.94-4.33A3.37,3.37,0,0,1,37.19,67.16Z"/></g></g></svg>