<svg xmlns="http://www.w3.org/2000/svg" viewBox="0 0 100 100"><defs><style>.cls-1{fill:#0a3254;}.cls-2{fill:#fff;}.cls-3{fill:#e65133;}</style></defs><title>cost-effective</title><g id="Layer_2" data-name="Layer 2"><g id="Layer_1-2" data-name="Layer 1"><circle class="cls-1" cx="50" cy="50" r="50"/><circle class="cls-2" cx="84.13" cy="87.47" r="10"/><circle class="cls-3" cx="84.13" cy="87.47" r="7.5"/><path class="cls-2" d="M88.78,86a.38.38,0,0,1-.15.27l-2,2L87.09,91v.11a.34.34,0,0,1-.06.2.2.2,0,0,1-.17.08.4.4,0,0,1-.22-.07L84.13,90l-2.5,1.31a.43.43,0,0,1-.22.07.22.22,0,0,1-.18-.08.34.34,0,0,1-.06-.2s0-.06,0-.11l.48-2.79-2-2a.44.44,0,0,1-.14-.27c0-.13.11-.22.31-.25l2.81-.41,1.25-2.54c.07-.15.16-.23.27-.23s.21.08.28.23l1.25,2.54,2.81.41C88.67,85.75,88.78,85.84,88.78,86Z"/><path class="cls-2" d="M56.4,37.68V41.2c0,3.09-6.8,5.6-15.2,5.6S26,44.29,26,41.2V37.68c0,3.09,6.81,5.6,15.2,5.6S56.4,40.77,56.4,37.68Zm0-2.88c0,3.09-6.8,5.6-15.2,5.6S26,37.89,26,34.8s6.81-5.6,15.2-5.6S56.4,31.71,56.4,34.8ZM42,65.2V62.47h-.8C32.81,62.48,26,60,26,56.88V60.4c0,3.09,6.81,5.6,15.2,5.6l.89,0A4,4,0,0,1,42,65.2Zm-.8-12,.8,0v-1.1a4,4,0,0,1,.85-2.43q-.81,0-1.65,0c-8.39,0-15.2-2.51-15.2-5.6V47.6C26,50.69,32.81,53.2,41.2,53.2Zm0,6.4.8,0V56.07h-.8c-8.39,0-15.2-2.51-15.2-5.6V54C26,57.09,32.81,59.6,41.2,59.6Zm17.6,1.28c-8.39,0-15.2-2.51-15.2-5.6V58.8c0,3.09,6.81,5.6,15.2,5.6S74,61.89,74,58.8V55.28C74,58.37,67.2,60.88,58.8,60.88Zm0,6.4c-8.39,0-15.2-2.51-15.2-5.6V65.2c0,3.09,6.81,5.6,15.2,5.6S74,68.29,74,65.2V61.68C74,64.77,67.2,67.28,58.8,67.28ZM74,52.4c0,3.09-6.8,5.6-15.2,5.6s-15.2-2.51-15.2-5.6,6.81-5.6,15.2-5.6S74,49.31,74,52.4Z"/></g></g></svg>