<svg xmlns="http://www.w3.org/2000/svg" viewBox="0 0 100 100"><defs><style>.cls-1{fill:#0a3254;}.cls-2{fill:#fff;}.cls-3{fill:#e65133;}</style></defs><title>flexible</title><g id="Layer_2" data-name="Layer 2"><g id="Layer_1-2" data-name="Layer 1"><circle class="cls-1" cx="50" cy="50" r="50"/><circle class="cls-2" cx="84.14" cy="87.89" r="10"/><circle class="cls-3" cx="84.14" cy="87.89" r="7.5"/><path class="cls-2" d="M88.79,86.39a.38.38,0,0,1-.15.27l-2,2,.48,2.79a.31.31,0,0,1,0,.11.34.34,0,0,1-.06.2.2.2,0,0,1-.17.08.4.4,0,0,1-.22-.07l-2.51-1.31-2.5,1.31a.43.43,0,0,1-.23.07.21.21,0,0,1-.17-.08.34.34,0,0,1-.06-.2.54.54,0,0,1,0-.11l.48-2.79-2-2a.44.44,0,0,1-.14-.27c0-.13.1-.22.31-.25l2.8-.41,1.26-2.54c.07-.15.16-.23.27-.23s.21.08.28.23l1.25,2.54,2.8.41C88.68,86.17,88.79,86.26,88.79,86.39Z"/><path class="cls-2" d="M50.71,56.49l.63-.9s-.39-1-.39-1H49.08l-.39,1,.63.9ZM49.36,57l-.42,6.93H51.1L50.67,57Z"/><path class="cls-2" d="M62.25,61.38c-.91-6.08-4.64-7.41-5-7.54l-2.68-1-.94-1.1a9.3,9.3,0,0,0,.82-1.64A4.12,4.12,0,0,0,56.34,47c0-.31.07-1.07-.27-1.38a.65.65,0,0,0-.52-.17c.82-4.35-2-6.81-5.65-6.81-5.6,0-5.65,5.19-5.53,6.81a.62.62,0,0,0-.41.17c-.34.31-.3,1.07-.27,1.38a4.12,4.12,0,0,0,2,3.1l.05,0a8.36,8.36,0,0,0,.76,1.56l-1,1.15-2.68,1c-.41.13-4.13,1.45-5,7.51a16.8,16.8,0,0,1-4.43-10h3.21a.28.28,0,0,0,.22-.46l-5.14-6a.29.29,0,0,0-.43,0l-5.11,6a.28.28,0,0,0,.21.46h3.51a20.26,20.26,0,0,0,37.68,8.88l-3.57-.94A16.27,16.27,0,0,1,62.25,61.38ZM55.13,46.56a1.87,1.87,0,0,1,.39-.23,3.33,3.33,0,0,1-.69,2.33A12.08,12.08,0,0,0,55.13,46.56Zm-10.61-.23a2.21,2.21,0,0,1,.46.3,13.79,13.79,0,0,0,.31,2.14A3.29,3.29,0,0,1,44.52,46.33ZM46.33,46a9,9,0,0,0,5.49-2.51,4.44,4.44,0,0,0,1.92,1.64c0,.22,0,.46,0,.7,0,3.29-1.42,6.83-3.73,6.83S46.38,49.19,46.33,46ZM51.87,64.3H48.18L45,54.49l1.09-.4a.72.72,0,0,0,.29-.2l.92-1.08A3.81,3.81,0,0,0,50.05,54a3.76,3.76,0,0,0,2.65-1.14l.89,1a.72.72,0,0,0,.29.2l1,.37ZM73.72,48.6H70.21a20.26,20.26,0,0,0-37.68-8.88l3.57.94a16.74,16.74,0,0,1,30.58,7.95H63.47a.28.28,0,0,0-.22.46l5.14,6a.29.29,0,0,0,.43,0l5.11-6A.28.28,0,0,0,73.72,48.6Z"/></g></g></svg>