<svg xmlns="http://www.w3.org/2000/svg" viewBox="0 0 100 100"><defs><style>.cls-1{fill:#0a3254;}.cls-2{fill:#fff;}.cls-3{fill:#e65133;}</style></defs><title>improve-performance</title><g id="Layer_2" data-name="Layer 2"><g id="Layer_1-2" data-name="Layer 1"><circle class="cls-1" cx="50" cy="50" r="50"/><circle class="cls-2" cx="84.09" cy="87.76" r="10"/><circle class="cls-3" cx="84.09" cy="87.76" r="7.5"/><path class="cls-2" d="M88.73,86.27a.44.44,0,0,1-.14.27l-2,2L87,91.3s0,.07,0,.11a.32.32,0,0,1-.06.2.19.19,0,0,1-.17.08.53.53,0,0,1-.23-.06l-2.5-1.32-2.51,1.32a.49.49,0,0,1-.22.06.19.19,0,0,1-.18-.08.32.32,0,0,1-.06-.2s0,0,0-.11l.48-2.79-2-2a.42.42,0,0,1-.13-.27c0-.14.1-.22.31-.26l2.8-.4,1.25-2.54c.07-.16.17-.23.28-.23s.2.07.27.23l1.26,2.54,2.8.4C88.63,86.05,88.73,86.13,88.73,86.27Z"/><polygon class="cls-2" points="28.45 69.1 28.45 62.52 30.68 62.52 30.68 61.05 28.45 61.05 28.45 51.53 30.68 51.53 30.68 50.06 28.45 50.06 28.45 40.54 30.68 40.54 30.68 39.07 28.45 39.07 28.45 28.45 26 28.45 26 71.55 74 71.55 74 69.1 28.45 69.1"/><path class="cls-2" d="M33.93,60.92h2.54v6.49h3.1V60.92h2.54L38,56.14ZM43,49h2.54V67.41h3.1V49h2.54l-4.09-4.78Zm9.1,8.62h2.54v9.84h3.1V57.57h2.54l-4.09-4.78ZM65.88,37.94l-4.09,4.78h2.53V67.41h3.11V42.72H70Z"/></g></g></svg>