<svg xmlns="http://www.w3.org/2000/svg" viewBox="0 0 100 100"><defs><style>.cls-1{fill:#0a3254;}.cls-2{fill:#fff;}.cls-3{fill:#e65133;}</style></defs><title>prioritise-learning</title><g id="Layer_2" data-name="Layer 2"><g id="Layer_1-2" data-name="Layer 1"><circle class="cls-1" cx="50" cy="50" r="50"/><circle class="cls-2" cx="84.01" cy="87.64" r="10"/><circle class="cls-3" cx="84.01" cy="87.64" r="7.5"/><path class="cls-2" d="M88.65,86.15a.4.4,0,0,1-.14.26l-2,2L87,91.18v.11a.39.39,0,0,1,0,.2.21.21,0,0,1-.17.08.43.43,0,0,1-.23-.07L84,90.19,81.5,91.5a.4.4,0,0,1-.22.07.22.22,0,0,1-.18-.08.32.32,0,0,1-.06-.2.89.89,0,0,1,0-.11l.47-2.79-2-2a.45.45,0,0,1-.14-.26c0-.14.11-.23.32-.26l2.8-.41,1.25-2.54a.32.32,0,0,1,.28-.22c.11,0,.2.07.27.22l1.26,2.54,2.8.41C88.55,85.92,88.65,86,88.65,86.15Z"/><path class="cls-2" d="M73.53,62.68,70,56.94V35.2a2.48,2.48,0,0,0-2.48-2.49H32.45A2.48,2.48,0,0,0,30,35.2V56.94l-3.6,5.9A2.45,2.45,0,0,0,26,64.38v.26a2.65,2.65,0,0,0,2.64,2.65H71.34A2.65,2.65,0,0,0,74,64.64s0-.4,0-.5A2.47,2.47,0,0,0,73.53,62.68ZM32.15,35.2a.31.31,0,0,1,.3-.31H67.54a.31.31,0,0,1,.3.31V56.65H32.15ZM71.8,64.64a.47.47,0,0,1-.46.47H28.65a.47.47,0,0,1-.46-.47,4.12,4.12,0,0,1,0-.67l3.67-6H68.09l3.6,5.9.06.09a.25.25,0,0,1,.07.17Zm-8.06-5.86.41.8h3l-.5-.8Zm-19.11,3L44,64h11.9l-.64-2.12Z"/><path class="cls-2" d="M34.27,37V54.63H65.72V37ZM53.44,48.78a2.75,2.75,0,0,1-.17.29A3.5,3.5,0,0,1,51,50.29h0v1.4H49.06V50.27a3.73,3.73,0,0,1-1.73-.63,2.66,2.66,0,0,1-1-2.07h1.86c0,1,.66,1.47,1.94,1.47a2.12,2.12,0,0,0,1.32-.35,1.12,1.12,0,0,0,.2-.18,1.53,1.53,0,0,0,.14-.21c.69-1.73-2-1.55-3.06-2l-.24-.08-.24-.09a3.36,3.36,0,0,1-.86-.46,2.2,2.2,0,0,1-.61-.71,2.42,2.42,0,0,1,.67-2.86,2.67,2.67,0,0,1,.49-.3,3.34,3.34,0,0,1,.58-.23l.58-.13V40h1.87V41.4a3.52,3.52,0,0,1,1.61.56,2.19,2.19,0,0,1,.93,1.84H51.64c0-.75-.56-1.14-1.54-1.17H50a1.84,1.84,0,0,0-1.38.49l-.1.11c-.42.77.11,1.22,1.08,1.45l1,.25c.56.14,1,.29,1.44.43a3.81,3.81,0,0,1,1,.51A2.53,2.53,0,0,1,53.44,48.78Z"/></g></g></svg>