<svg xmlns="http://www.w3.org/2000/svg" viewBox="0 0 100 100"><defs><style>.cls-1{fill:#0a3254;}.cls-2{fill:#fff;}.cls-3{fill:#e65133;}</style></defs><title>save-time</title><g id="Layer_2" data-name="Layer 2"><g id="Layer_1-2" data-name="Layer 1"><circle class="cls-1" cx="50" cy="50" r="50"/><circle class="cls-2" cx="83.82" cy="87.45" r="10"/><circle class="cls-3" cx="83.82" cy="87.45" r="7.5"/><path class="cls-2" d="M88.47,86a.41.41,0,0,1-.15.27l-2,2L86.77,91a.41.41,0,0,1,0,.12.31.31,0,0,1-.06.19.18.18,0,0,1-.17.08.49.49,0,0,1-.22-.06L83.82,90l-2.5,1.32a.53.53,0,0,1-.23.06.19.19,0,0,1-.17-.08.31.31,0,0,1-.06-.19.62.62,0,0,1,0-.12l.48-2.79-2-2a.44.44,0,0,1-.14-.27c0-.14.1-.22.31-.26l2.8-.4,1.26-2.54c.07-.16.16-.23.27-.23s.21.07.28.23l1.25,2.54,2.8.4C88.36,85.74,88.47,85.82,88.47,86Z"/><path class="cls-2" d="M50,59.92a3.63,3.63,0,0,1-3.53-4.39,3.64,3.64,0,0,1,2.76-2.77,4.11,4.11,0,0,1,.77-.08,3.57,3.57,0,0,1,2.44,1l5.46-3a.86.86,0,0,1,.41-.1.87.87,0,0,1,.75.42l0,0a.86.86,0,0,1-.28,1.17l-5.29,3.29a3.39,3.39,0,0,1-.27,2.38,3.68,3.68,0,0,1-2.9,2.07Zm0-5.58a2,2,0,0,0,0,3.93,2,2,0,0,0,1.91-1.48,2,2,0,0,0-.36-1.7A2,2,0,0,0,50,54.34Z"/><path class="cls-2" d="M61,42.57l.49-.75.56.36,2-3.17L60.9,36.93l-2,3.18.57.36-.44.69a17.47,17.47,0,0,0-7.24-2.39v-.89a6.06,6.06,0,1,0-3.48,0v.89a17.56,17.56,0,0,0-7.19,2.36l-.5-.8.56-.36-2-3.19-3.23,2,2,3.2.56-.36.56.88a17.63,17.63,0,1,0,22,0ZM45,32.07a5,5,0,1,1,6.75,4.7V35.29h.94V31.8H47.32v3.49h.94v1.48A5,5,0,0,1,45,32.07Zm12.9,37.26-.61-1a.35.35,0,0,0-.31-.18.49.49,0,0,0-.19,0,.36.36,0,0,0-.13.49l.6,1a15.1,15.1,0,0,1-6.88,1.84v-1.2A.37.37,0,0,0,50,70a.36.36,0,0,0-.35.36v1.2a15.11,15.11,0,0,1-6.89-1.84l.6-1a.36.36,0,0,0,0-.27.39.39,0,0,0-.18-.22.41.41,0,0,0-.18,0,.35.35,0,0,0-.31.18l-.6,1a15.24,15.24,0,0,1-5.07-5.06l1.07-.62a.36.36,0,0,0,.12-.5.33.33,0,0,0-.31-.18.39.39,0,0,0-.18,0l-1.07.62a15.08,15.08,0,0,1-1.85-6.91h1.24a.37.37,0,0,0,0-.73H34.83a15,15,0,0,1,1.84-6.92l1.08.62a.41.41,0,0,0,.18.05.37.37,0,0,0,.32-.19.36.36,0,0,0-.13-.49L37,48.43a15.39,15.39,0,0,1,5.05-5.07l.63,1.09a.35.35,0,0,0,.31.18.49.49,0,0,0,.19-.05.37.37,0,0,0,.13-.5L42.72,43a15.16,15.16,0,0,1,6.92-1.86V42.4a.36.36,0,0,0,.35.36h0a.36.36,0,0,0,.36-.36V41.14A15.12,15.12,0,0,1,57.28,43l-.63,1.08a.36.36,0,0,0,.14.5.41.41,0,0,0,.18.05.35.35,0,0,0,.31-.18l.63-1.08A15.27,15.27,0,0,1,63,48.43l-1.08.63a.36.36,0,0,0-.12.5.35.35,0,0,0,.31.18.41.41,0,0,0,.18-.05l1.08-.62A15,15,0,0,1,65.17,56H63.93a.37.37,0,0,0,0,.73h1.24a15.08,15.08,0,0,1-1.85,6.91L62.25,63a.39.39,0,0,0-.18,0,.35.35,0,0,0-.32.19.36.36,0,0,0,.13.49l1.07.61A15.24,15.24,0,0,1,57.89,69.33Z"/></g></g></svg>