<svg xmlns="http://www.w3.org/2000/svg" viewBox="0 0 100 100"><defs><style>.cls-1{fill:#0a3254;}.cls-2{fill:#fff;}.cls-3{fill:#e65133;}</style></defs><title>management-of-multiple-parts</title><g id="Layer_2" data-name="Layer 2"><g id="Layer_1-2" data-name="Layer 1"><circle class="cls-1" cx="50" cy="50" r="50"/><circle class="cls-2" cx="84.12" cy="87.5" r="10"/><circle class="cls-3" cx="84.12" cy="87.5" r="7.5"/><path class="cls-2" d="M88.76,86a.44.44,0,0,1-.14.27l-2,2L87.07,91s0,.06,0,.11a.32.32,0,0,1-.06.2.19.19,0,0,1-.17.08.53.53,0,0,1-.23-.06l-2.5-1.32-2.51,1.32a.49.49,0,0,1-.22.06.19.19,0,0,1-.18-.08.39.39,0,0,1,0-.2.54.54,0,0,1,0-.11l.48-2.79-2-2a.39.39,0,0,1-.14-.27c0-.14.1-.23.31-.26l2.8-.41,1.26-2.53c.07-.16.16-.23.27-.23s.2.07.27.23l1.26,2.53,2.8.41C88.66,85.78,88.76,85.87,88.76,86Z"/><path class="cls-2" d="M61.9,26.9h-.07a1.5,1.5,0,0,0-1.52,1,2.28,2.28,0,0,0,.51,2,1.25,1.25,0,0,1,.12,1.66l-.06.08H57.15v3.71l-.09.08a1.26,1.26,0,0,1-1.66-.13,2.28,2.28,0,0,0-1.95-.5c-.35.09-1,.41-1,1.51v.4c.08,1,.6,1.4,1,1.51a2.31,2.31,0,0,0,1.94-.49,1.27,1.27,0,0,1,1.67-.14l.09.08v3.68h3.72l.07.09a1.25,1.25,0,0,1-.12,1.66,2.28,2.28,0,0,0-.51,2,1.5,1.5,0,0,0,1.52,1h.4c1-.08,1.4-.6,1.51-1a2.37,2.37,0,0,0-.49-1.95,1.26,1.26,0,0,1-.14-1.67l.08-.09h3.65v0h.06V37.65l.09-.08a1.29,1.29,0,0,1,1.68.14,2.29,2.29,0,0,0,1.94.49c.42-.11,1-.47,1-1.51v-.4c-.08-1.1-.67-1.42-1-1.51a2.26,2.26,0,0,0-2,.5,1.27,1.27,0,0,1-1.67.13l-.09-.08V31.62H63.17l-.06-.08a1.26,1.26,0,0,1,.14-1.67,2.35,2.35,0,0,0,.49-1.95c-.11-.42-.47-.94-1.51-1H61.9Z"/><path class="cls-2" d="M64.9,42.86a3.61,3.61,0,0,1,.32,2.58,3,3,0,0,1-2.88,2.14h-.63a3,3,0,0,1-2.87-2.14,3.57,3.57,0,0,1,.31-2.58h-2v8.68h3.93l.06.07A1.26,1.26,0,0,1,61,53.28a2.3,2.3,0,0,0-.5,1.95c.09.35.42.94,1.51,1h.41a1.47,1.47,0,0,0,1.51-1,2.32,2.32,0,0,0-.5-1.94,1.28,1.28,0,0,1-.13-1.68l.06-.07H66.9V47.82l.09-.07a1.27,1.27,0,0,1,1.67.12,2.26,2.26,0,0,0,2,.51c.35-.1.94-.42,1-1.52v-.4a1.47,1.47,0,0,0-1-1.51,2.33,2.33,0,0,0-1.94.49,1.27,1.27,0,0,1-1.68.14l-.09-.08V42.86h-2Z"/><polygon class="cls-2" points="44.34 63.92 43.8 72.7 46.54 72.7 46 63.92 44.34 63.92"/><path class="cls-2" d="M46.05,63.27l.8-1.13-.5-1.3H44s-.51,1.29-.5,1.3l.8,1.13Z"/><path class="cls-2" d="M54.26,59.92l-3.39-1.25-1.19-1.39a10.8,10.8,0,0,0,1-2.07,5.21,5.21,0,0,0,2.46-3.91c0-.39.1-1.36-.33-1.75a.86.86,0,0,0-.67-.21c1-5.51-2.52-8.62-7.15-8.62-7.09,0-7.15,6.57-7,8.61a.86.86,0,0,0-.53.22c-.43.39-.38,1.36-.34,1.75a5.21,5.21,0,0,0,2.49,3.92l.06,0a10.28,10.28,0,0,0,1,2l-1.25,1.45L36,59.92c-.6.18-6.65,2.34-6.65,13.13a.89.89,0,0,0,.87.88h4.22V74a.87.87,0,0,0,.87.88H55a.87.87,0,0,0,.87-.88v-.08H60a.89.89,0,0,0,.87-.88C60.91,62.26,54.85,60.1,54.26,59.92Zm-2.62-9.21a3.25,3.25,0,0,1,.49-.3,4.23,4.23,0,0,1-.87,3A15.64,15.64,0,0,0,51.64,50.71Zm-13.43-.3a3.77,3.77,0,0,1,.59.38,16.35,16.35,0,0,0,.39,2.72A4.22,4.22,0,0,1,38.21,50.41Zm9.24-3.65a5.56,5.56,0,0,0,2.43,2.07,8.53,8.53,0,0,1,0,.89c0,4.16-1.8,8.64-4.71,8.64S40.57,54,40.51,49.93A11.31,11.31,0,0,0,47.45,46.76ZM40.24,60.23A.9.9,0,0,0,40.6,60l1.17-1.37a4.81,4.81,0,0,0,3.45,1.49,4.76,4.76,0,0,0,3.35-1.44L49.69,60a.94.94,0,0,0,.37.25l1.29.48L47.51,73.15H42.85l-4-12.41Z"/></g></g></svg>