<svg xmlns="http://www.w3.org/2000/svg" viewBox="0 0 100 100"><defs><style>.cls-1{fill:#0a3254;}.cls-2{fill:#fff;}.cls-3{fill:#e65133;}</style></defs><title>requirements-in-2D-3D</title><g id="Layer_2" data-name="Layer 2"><g id="Layer_1-2" data-name="Layer 1"><circle class="cls-1" cx="50" cy="50" r="50"/><circle class="cls-2" cx="83.75" cy="87.5" r="10"/><circle class="cls-3" cx="83.75" cy="87.5" r="7.5"/><path class="cls-2" d="M88.39,86a.44.44,0,0,1-.14.27l-2,2L86.7,91a.34.34,0,0,1,0,.11.32.32,0,0,1-.06.2.19.19,0,0,1-.17.08.46.46,0,0,1-.22-.06l-2.51-1.32-2.51,1.32a.49.49,0,0,1-.22.06.17.17,0,0,1-.17-.08.32.32,0,0,1-.06-.2.54.54,0,0,1,0-.11l.48-2.79-2-2a.39.39,0,0,1-.14-.27c0-.14.1-.23.31-.26l2.8-.41,1.26-2.53c.07-.16.16-.23.27-.23s.2.07.27.23l1.26,2.53,2.8.41C88.29,85.78,88.39,85.87,88.39,86Z"/><path class="cls-2" d="M67,33A24,24,0,1,0,67,67,23.85,23.85,0,0,0,67,33ZM64.81,64.81a20.94,20.94,0,1,1,0-29.62A20.84,20.84,0,0,1,64.81,64.81Z"/><path class="cls-2" d="M45.08,48.89a3,3,0,1,0,3-3A3,3,0,0,0,45.08,48.89Z"/><path class="cls-2" d="M44.75,54a2.75,2.75,0,1,0,2.76,2.75A2.75,2.75,0,0,0,44.75,54Z"/><path class="cls-2" d="M43,61.82A2.21,2.21,0,1,0,45.18,64,2.2,2.2,0,0,0,43,61.82Z"/><path class="cls-2" d="M32.82,54.75a1.47,1.47,0,1,0,1.47,1.46A1.46,1.46,0,0,0,32.82,54.75Z"/><path class="cls-2" d="M32.43,48.89a1.72,1.72,0,1,0,1.72-1.73A1.72,1.72,0,0,0,32.43,48.89Z"/><circle class="cls-2" cx="38.38" cy="40.84" r="1.84"/><path class="cls-2" d="M42.21,35.46a1.58,1.58,0,1,0,1.58-1.58A1.58,1.58,0,0,0,42.21,35.46Z"/><path class="cls-2" d="M57.35,34.54a1.18,1.18,0,1,0-1.17-1.18A1.18,1.18,0,0,0,57.35,34.54Z"/><path class="cls-2" d="M60.77,43.48a1.84,1.84,0,1,0,1.83-1.84A1.83,1.83,0,0,0,60.77,43.48Z"/><circle class="cls-2" cx="66.8" cy="42.31" r="1.47"/><path class="cls-2" d="M67.36,49a1.47,1.47,0,1,0,1.47,1.47A1.47,1.47,0,0,0,67.36,49Z"/><path class="cls-2" d="M65.33,57.13A1.47,1.47,0,1,0,66.8,58.6,1.47,1.47,0,0,0,65.33,57.13Z"/><path class="cls-2" d="M60.25,64.61a1.17,1.17,0,1,0,1.16,1.17A1.17,1.17,0,0,0,60.25,64.61Z"/><path class="cls-2" d="M49.12,64.32A1.91,1.91,0,1,0,51,66.23,1.9,1.9,0,0,0,49.12,64.32Z"/><path class="cls-2" d="M55.15,59.2a2.39,2.39,0,1,0-2.39,2.39A2.39,2.39,0,0,0,55.15,59.2Z"/><path class="cls-2" d="M55.87,48.89a2.63,2.63,0,1,0,2.62,2.62A2.62,2.62,0,0,0,55.87,48.89Z"/><circle class="cls-2" cx="57.35" cy="43.21" r="2.2"/><path class="cls-2" d="M44.71,38.44a2.21,2.21,0,1,0,2.2-2.2A2.21,2.21,0,0,0,44.71,38.44Z"/><path class="cls-2" d="M42.23,47.56a2.63,2.63,0,1,0-2.63-2.62A2.62,2.62,0,0,0,42.23,47.56Z"/><path class="cls-2" d="M38.38,50.19a2.39,2.39,0,1,0,2.39,2.39A2.38,2.38,0,0,0,38.38,50.19Z"/><path class="cls-2" d="M36.9,58.6a1.91,1.91,0,1,0,1.91,1.91A1.92,1.92,0,0,0,36.9,58.6Z"/><path class="cls-2" d="M33.67,44.94a1.47,1.47,0,1,0-1.47,1.47A1.47,1.47,0,0,0,33.67,44.94Z"/><path class="cls-2" d="M36.44,38.45a1.29,1.29,0,1,0-1.29-1.29A1.29,1.29,0,0,0,36.44,38.45Z"/><path class="cls-2" d="M42.62,33.78a1.28,1.28,0,1,0-1.27-1.27A1.27,1.27,0,0,0,42.62,33.78Z"/><path class="cls-2" d="M49.12,32.38A1.15,1.15,0,1,0,48,31.23,1.14,1.14,0,0,0,49.12,32.38Z"/><path class="cls-2" d="M63.86,38.28a1.12,1.12,0,1,0-1.11-1.12A1.12,1.12,0,0,0,63.86,38.28Z"/><path class="cls-2" d="M59.73,39.93a1.66,1.66,0,1,0-1.67-1.66A1.66,1.66,0,0,0,59.73,39.93Z"/><path class="cls-2" d="M49.05,34a1.47,1.47,0,1,0,1.47-1.46A1.47,1.47,0,0,0,49.05,34Z"/><path class="cls-2" d="M62.14,49.49a2,2,0,1,0,2,2A2,2,0,0,0,62.14,49.49Z"/><path class="cls-2" d="M59.83,57.73a1.84,1.84,0,1,0,1.83,1.84A1.84,1.84,0,0,0,59.83,57.73Z"/><path class="cls-2" d="M55.16,65.13a1.47,1.47,0,1,0,1.47,1.47A1.47,1.47,0,0,0,55.16,65.13Z"/><path class="cls-2" d="M53.85,41.64A2.39,2.39,0,1,0,51.46,44,2.39,2.39,0,0,0,53.85,41.64Z"/><path class="cls-2" d="M54.55,38.58a1.77,1.77,0,1,0-1.78-1.77A1.77,1.77,0,0,0,54.55,38.58Z"/></g></g></svg>