<svg xmlns="http://www.w3.org/2000/svg" viewBox="0 0 100 100"><defs><style>.cls-1{fill:#0a3254;}.cls-2{fill:#fff;}.cls-3{fill:#e65133;}</style></defs><title>save-time</title><g id="Layer_2" data-name="Layer 2"><g id="Layer_1-2" data-name="Layer 1"><circle class="cls-1" cx="50" cy="50" r="50"/><circle class="cls-2" cx="83.75" cy="87.5" r="10"/><circle class="cls-3" cx="83.75" cy="87.5" r="7.5"/><path class="cls-2" d="M88.39,86a.44.44,0,0,1-.14.27l-2,2L86.7,91a.34.34,0,0,1,0,.11.32.32,0,0,1-.06.2.19.19,0,0,1-.17.08.46.46,0,0,1-.22-.06l-2.51-1.32-2.51,1.32a.49.49,0,0,1-.22.06.17.17,0,0,1-.17-.08.32.32,0,0,1-.06-.2.54.54,0,0,1,0-.11l.48-2.79-2-2a.39.39,0,0,1-.14-.27c0-.14.1-.23.31-.26l2.8-.41,1.26-2.53c.07-.16.16-.23.27-.23s.2.07.27.23l1.26,2.53,2.8.41C88.29,85.78,88.39,85.87,88.39,86Z"/><path class="cls-2" d="M50,60.75A3.92,3.92,0,0,1,49.19,53a4,4,0,0,1,.84-.09,3.91,3.91,0,0,1,2.64,1l5.91-3.26a.88.88,0,0,1,.44-.12.94.94,0,0,1,.81.46l0,.06a.93.93,0,0,1-.31,1.26l-5.72,3.57a3.69,3.69,0,0,1-.29,2.57,4,4,0,0,1-3.15,2.24Zm0-6a2.33,2.33,0,0,0-.53.06A2.15,2.15,0,0,0,48,56.29a2.17,2.17,0,0,0,.39,1.85A2.13,2.13,0,0,0,50,59a2,2,0,0,0,.53-.07,2.14,2.14,0,0,0,1.53-1.53,2.17,2.17,0,0,0-.39-1.85A2.11,2.11,0,0,0,50,54.7Z"/><path class="cls-2" d="M61.93,42l.53-.81.61.39,2.22-3.44-3.48-2.25-2.22,3.44.62.4-.48.74a18.88,18.88,0,0,0-7.85-2.58v-1a6.56,6.56,0,1,0-3.76,0v1a18.82,18.82,0,0,0-7.8,2.55l-.54-.86.62-.39-2.19-3.47-3.5,2.22,2.19,3.46.61-.39.6.95a19.11,19.11,0,1,0,23.82,0ZM44.57,30.58a5.43,5.43,0,1,1,7.31,5.09V34.06h1V30.29H47.09v3.77h1v1.61A5.44,5.44,0,0,1,44.57,30.58ZM58.54,71l-.65-1.14a.39.39,0,0,0-.34-.19.39.39,0,0,0-.2.06.39.39,0,0,0-.15.53l.66,1.13a16.39,16.39,0,0,1-7.46,2V72a.4.4,0,0,0-.41-.39.38.38,0,0,0-.38.39v1.3a16.4,16.4,0,0,1-7.47-2l.66-1.13a.39.39,0,0,0,0-.3.37.37,0,0,0-.19-.24.41.41,0,0,0-.19,0,.39.39,0,0,0-.34.19L41.46,71A16.59,16.59,0,0,1,36,65.45l1.16-.67a.39.39,0,0,0-.2-.73.35.35,0,0,0-.2,0l-1.16.67a16.49,16.49,0,0,1-2-7.49h1.35a.4.4,0,0,0,.39-.4.39.39,0,0,0-.39-.39H33.56a16.53,16.53,0,0,1,2-7.5l1.17.68a.46.46,0,0,0,.2,0,.41.41,0,0,0,.34-.21.39.39,0,0,0-.14-.53L36,48.3a16.6,16.6,0,0,1,5.47-5.49L42.11,44a.39.39,0,0,0,.34.19.39.39,0,0,0,.2-.06.39.39,0,0,0,.15-.53l-.68-1.18a16.33,16.33,0,0,1,7.49-2v1.35a.38.38,0,0,0,.38.39h0a.39.39,0,0,0,.39-.39V40.41a16.2,16.2,0,0,1,7.48,2l-.68,1.17a.4.4,0,0,0,.16.54.41.41,0,0,0,.19,0,.39.39,0,0,0,.34-.19l.68-1.18A16.6,16.6,0,0,1,64,48.3L62.87,49a.4.4,0,0,0,.21.74.45.45,0,0,0,.19,0L64.44,49a16.53,16.53,0,0,1,2,7.5H65.09a.4.4,0,0,0,0,.79h1.35a16.49,16.49,0,0,1-2,7.49l-1.16-.67a.34.34,0,0,0-.19,0,.41.41,0,0,0-.35.2.4.4,0,0,0,.14.53l1.16.67A16.5,16.5,0,0,1,58.54,71Z"/></g></g></svg>