<svg xmlns="http://www.w3.org/2000/svg" viewBox="0 0 155.7 157.79"><defs><style>.cls-1{fill:#fff;}.cls-2{fill:#284b8f;}</style></defs><title>pentana-logo</title><g id="Layer_2" data-name="Layer 2"><g id="Layer_1-2" data-name="Layer 1"><g id="Solid_Blue_Icon" data-name="Solid Blue Icon"><path class="cls-1" d="M155.7,78.9c0,43.56-34.86,78.89-77.84,78.89S0,122.46,0,78.9,34.86,0,77.86,0,155.7,35.33,155.7,78.9Z"/><path class="cls-2" d="M77.86,0C34.86,0,0,35.33,0,78.9s34.86,78.89,77.86,78.89S155.7,122.46,155.7,78.9,120.84,0,77.86,0ZM76.39,22.83,87.66,58h-59ZM24.24,63.26H60.69L42.45,120.11ZM46.05,126,57.32,90.87,105,126Zm65.63-1.63-29.5-21.73,47.73-35.14Zm-10.75-42L82.7,25.46l47.74,35.15Z"/></g></g></g></svg>