<svg xmlns="http://www.w3.org/2000/svg" viewBox="0 0 156.81 156.81"><defs><style>.cls-1{fill:#fff;}.cls-2{fill:#552988;}</style></defs><title>q-pulse-logo</title><g id="Layer_2" data-name="Layer 2"><g id="Layer_1-2" data-name="Layer 1"><circle class="cls-1" cx="78.41" cy="77.75" r="68.61"/><g id="Icon_-_White" data-name="Icon - White"><path class="cls-2" d="M65.65,31.42A26.72,26.72,0,1,0,92.37,58.13,26.71,26.71,0,0,0,65.65,31.42Z"/><path class="cls-2" d="M78.41,0a78.41,78.41,0,1,0,78.4,78.41A78.41,78.41,0,0,0,78.41,0ZM33.68,103.71l0-15.89,17.52,17.52,8.64,8.2A60.28,60.28,0,0,1,33.68,103.71Zm80.66,24.7H78.45L33.68,83.64h0V58.08A31.89,31.89,0,0,1,64.22,26.22v0H113.7a57.78,57.78,0,0,1-19.59,81.75v.16Z"/></g></g></g></svg>