<svg xmlns="http://www.w3.org/2000/svg" xmlns:xlink="http://www.w3.org/1999/xlink" viewBox="0 0 375.86 344.21"><defs><style>.cls-1{opacity:0.5;}.cls-2{fill:url(#linear-gradient);}.cls-3{fill:#f5f5f5;}.cls-4{fill:#333;}.cls-5{fill:#0a3254;}.cls-6{opacity:0.1;isolation:isolate;}.cls-7{fill:#fda57d;}.cls-8{fill:url(#linear-gradient-2);}.cls-9{fill:#72351c;}.cls-10{fill:url(#linear-gradient-3);}.cls-11{fill:#be7c5e;}.cls-12{fill:#ccc;}.cls-13{fill:url(#linear-gradient-4);}.cls-14{fill:#e6e6e6;}.cls-15{fill:url(#linear-gradient-5);}.cls-16{fill:url(#linear-gradient-6);}.cls-17{fill:url(#linear-gradient-7);}.cls-18{fill:#535461;}.cls-19{fill:#edeef9;}.cls-20{fill:#7ea6d7;}</style><linearGradient id="linear-gradient" x1="179.48" y1="-936.4" x2="179.48" y2="-867.07" gradientTransform="matrix(1, 0, 0, -1, 0, -853)" gradientUnits="userSpaceOnUse"><stop offset="0" stop-color="gray" stop-opacity="0.25"/><stop offset="0.54" stop-color="gray" stop-opacity="0.12"/><stop offset="1" stop-color="gray" stop-opacity="0.1"/></linearGradient><linearGradient id="linear-gradient-2" x1="326.27" y1="-938.87" x2="326.27" y2="-869.54" xlink:href="#linear-gradient"/><linearGradient id="linear-gradient-3" x1="252.88" y1="-995.74" x2="252.88" y2="-926.41" xlink:href="#linear-gradient"/><linearGradient id="linear-gradient-4" x1="30.62" y1="-1054.51" x2="30.62" y2="-993.27" xlink:href="#linear-gradient"/><linearGradient id="linear-gradient-5" x1="35.48" y1="-1051.59" x2="35.48" y2="-990.35" xlink:href="#linear-gradient"/><linearGradient id="linear-gradient-6" x1="336.71" y1="-1027.78" x2="336.71" y2="-986.31" gradientTransform="matrix(1, 0, 0, -1, -190.53, -928)" xlink:href="#linear-gradient"/><linearGradient id="linear-gradient-7" x1="273.75" y1="-1272.21" x2="273.75" y2="-961.45" gradientTransform="matrix(1, 0, 0, -1, -190.53, -928)" xlink:href="#linear-gradient"/></defs><title>admins-illustration</title><g id="Layer_2" data-name="Layer 2"><g id="Layer_1-2" data-name="Layer 1"><g class="cls-1"><circle class="cls-2" cx="179.48" cy="48.74" r="34.66"/></g><circle class="cls-3" cx="179.55" cy="48.52" r="33.93"/><path class="cls-4" d="M198.21,51.86c0,11.29-8.11,16.84-18.64,16.84s-19.49-5.55-19.49-16.84,8.54-20.44,19.07-20.44S198.21,40.57,198.21,51.86Z"/><path class="cls-5" d="M179.57,82.58A33.8,33.8,0,0,0,198.23,77c-1.26-6.84-6-7.24-6-7.24H166s-4.49.37-5.89,6.65A33.73,33.73,0,0,0,179.57,82.58Z"/><path class="cls-6" d="M173.94,61.44h10.5v8.69a5,5,0,0,1-5,5h-.62a5,5,0,0,1-4.92-5V61.44Z"/><path class="cls-7" d="M174.86,61h8.61a.94.94,0,0,1,.94,1v7.77a5,5,0,0,1-4.95,5h-.59a5,5,0,0,1-4.93-5V62A1,1,0,0,1,174.86,61Z"/><path class="cls-6" d="M174,65.4a15.06,15.06,0,0,0,10.5,0V64.14H174Z"/><circle class="cls-7" cx="179.22" cy="51.06" r="15.04"/><path class="cls-6" d="M161.88,52.05a27,27,0,0,0,16.46-10.22s9.37,10.31,15.9,9.18c0,0,3.78-4,0-7.95s-6.72-9-11.73-8.33-11.17,1-13.82,3.32S161.88,52.05,161.88,52.05Z"/><path class="cls-4" d="M161.88,51.86a27,27,0,0,0,16.46-10.22s9.37,10.31,15.9,9.18c0,0,3.78-4,0-8s-6.72-9-11.73-8.33-11.17,1-13.82,3.32S161.88,51.86,161.88,51.86Z"/><ellipse class="cls-7" cx="164.17" cy="51.05" rx="1.4" ry="2.63"/><ellipse class="cls-7" cx="194.26" cy="51.05" rx="1.4" ry="2.63"/><g class="cls-1"><circle class="cls-8" cx="326.27" cy="51.21" r="34.66"/></g><circle class="cls-3" cx="326.34" cy="50.99" r="33.93"/><path class="cls-5" d="M326.37,85.05A33.77,33.77,0,0,0,345,79.47c-1.25-6.83-6-7.22-6-7.22H312.76s-4.49.36-5.89,6.65A33.7,33.7,0,0,0,326.37,85.05Z"/><circle class="cls-9" cx="326.01" cy="50.27" r="16.38"/><path class="cls-6" d="M320.73,63.91h10.5V72.6a5,5,0,0,1-5,5h-.59a5,5,0,0,1-4.95-5v-8.7Z"/><path class="cls-7" d="M321.68,63.52h8.6a1,1,0,0,1,1,.95v7.74a5,5,0,0,1-5,5h-.59a5,5,0,0,1-4.95-5V64.47a1,1,0,0,1,.94-.95Z"/><path class="cls-6" d="M320.75,67.88a15.17,15.17,0,0,0,10.5,0V66.62h-10.5Z"/><circle class="cls-7" cx="326.01" cy="53.54" r="15.04"/><path class="cls-6" d="M315.3,39.85s6.34,12.86,24.22,5.4l-4.16-6.53L328,36.07Z"/><path class="cls-9" d="M315.3,39.67s6.34,12.85,24.22,5.39l-4.16-6.51L328,35.9Z"/><path class="cls-9" d="M315.25,38.79a8.6,8.6,0,0,1,2.15-3.5c3-2.92,7.8-3.54,10.3-6.88a2,2,0,0,1-.71,2.66l-.18.09c2.38,0,5.14-.22,6.49-2.18a4.46,4.46,0,0,1-.75,4.71c2.11.09,4.37,1.52,4.5,3.64a4.19,4.19,0,0,1-1.94,3.54,11,11,0,0,1-3.93,1.48C327.16,43.23,312.63,47,315.25,38.79Z"/><path class="cls-9" d="M341.06,53.67h-.4l-7.76,6.88c-7.47-3.5-13,0-13,0L311.8,54l-.82.1a15,15,0,0,0,30.07-.38ZM326,63.22c-2.92,0-5.29-.59-5.29-1.32s2.37-1.33,5.29-1.33,5.3.59,5.3,1.33-2.37,1.32-5.3,1.32Z"/><ellipse class="cls-7" cx="310.97" cy="53.52" rx="1.4" ry="2.63"/><ellipse class="cls-7" cx="341.05" cy="53.52" rx="1.4" ry="2.63"/><g class="cls-1"><circle class="cls-10" cx="252.88" cy="108.08" r="34.66"/></g><circle class="cls-3" cx="252.88" cy="107.89" r="33.93"/><path class="cls-4" d="M239.64,108.19s-3.85,19-6,17.9c0,0,20.25,17.49,38.13,0,0,0-3.15-13.36-7.7-17.9Z"/><path class="cls-5" d="M253,141.92a33.79,33.79,0,0,0,18.65-5.58c-1.25-6.83-6-7.22-6-7.22H239.39s-4.49.36-5.9,6.65A33.82,33.82,0,0,0,253,141.92Z"/><circle class="cls-4" cx="252.62" cy="107.14" r="15.04"/><path class="cls-6" d="M247.33,120.78h10.5v8.69a5,5,0,0,1-4.95,5h-.59a5,5,0,0,1-5-5v-8.69Z"/><path class="cls-11" d="M248.29,120.39h8.61a1,1,0,0,1,.94,1v7.74a5,5,0,0,1-5,4.93h-.59a5,5,0,0,1-5-4.95v-7.72a1,1,0,0,1,.95-1Z"/><path class="cls-6" d="M247.35,124.74a15.06,15.06,0,0,0,10.5,0v-1.29h-10.5Z"/><circle class="cls-11" cx="252.62" cy="110.4" r="15.04"/><path class="cls-4" d="M238.24,104.69h28.68s-2.45-11.58-13.31-10.84S238.24,104.69,238.24,104.69Z"/><ellipse class="cls-11" cx="237.89" cy="109.76" rx="1.4" ry="2.63"/><ellipse class="cls-11" cx="267.27" cy="109.76" rx="1.4" ry="2.63"/><path class="cls-6" d="M238.24,105.1h28.68s-2.45-11.58-13.31-10.85S238.24,105.1,238.24,105.1Z"/><path class="cls-12" d="M252.88,76.48a31.6,31.6,0,1,1-31.59,31.6h0a31.59,31.59,0,0,1,31.59-31.6m0-7.8a39.4,39.4,0,1,0,39.4,39.4h0A39.45,39.45,0,0,0,252.88,68.68Z"/><rect class="cls-12" x="247.05" y="59.47" width="9.23" height="9.72"/><rect class="cls-12" x="269.35" y="65.34" width="9.72" height="9.23" transform="matrix(0.52, -0.86, 0.86, 0.52, 73.01, 268.97)"/><rect class="cls-12" x="285.55" y="81.11" width="9.72" height="9.23" transform="translate(-5.15 151.54) rotate(-29)"/><rect class="cls-12" x="286.01" y="125.2" width="9.23" height="9.72" transform="translate(26.32 307.61) rotate(-58)"/><rect class="cls-12" x="210.73" y="80.87" width="9.23" height="9.72" transform="translate(35.97 232.51) rotate(-61)"/><rect class="cls-12" x="210.28" y="125.45" width="9.72" height="9.23" transform="translate(-36.23 133.77) rotate(-32)"/><rect class="cls-12" x="226.94" y="65.09" width="9.23" height="9.72" transform="translate(-2.96 129.25) rotate(-31)"/><rect class="cls-12" x="247.05" y="146.96" width="9.23" height="9.72"/><rect class="cls-12" x="269.59" y="141.34" width="9.23" height="9.72" transform="translate(-36.13 162.11) rotate(-31)"/><rect class="cls-12" x="228.77" y="141.55" width="9.77" height="9.28" transform="translate(-12.35 270.49) rotate(-58.84)"/><rect class="cls-12" x="203.3" y="104.19" width="11.18" height="8.26"/><rect class="cls-12" x="291.28" y="104.19" width="11.18" height="8.26"/><path class="cls-12" d="M326.27,19.61a31.6,31.6,0,1,1-31.59,31.6,31.6,31.6,0,0,1,31.59-31.6m0-7.8a39.4,39.4,0,1,0,39.4,39.4h0A39.44,39.44,0,0,0,326.27,11.81Z"/><rect class="cls-12" x="320.44" y="2.6" width="9.23" height="9.72"/><rect class="cls-12" x="342.74" y="8.47" width="9.72" height="9.23" transform="translate(157.36 304.3) rotate(-59)"/><rect class="cls-12" x="358.95" y="24.24" width="9.72" height="9.23" transform="translate(31.62 180) rotate(-29)"/><rect class="cls-12" x="359.4" y="68.34" width="9.23" height="9.72" transform="translate(109.04 343.11) rotate(-58)"/><rect class="cls-12" x="284.13" y="24" width="9.23" height="9.72" transform="translate(123.52 267.41) rotate(-61)"/><rect class="cls-12" x="283.67" y="68.58" width="9.72" height="9.23" transform="translate(5.05 164.02) rotate(-32)"/><rect class="cls-12" x="300.33" y="8.22" width="9.23" height="9.72" transform="translate(36.82 158.93) rotate(-31)"/><rect class="cls-12" x="320.44" y="90.09" width="9.23" height="9.72"/><rect class="cls-12" x="342.99" y="84.47" width="9.23" height="9.72" transform="translate(3.64 191.79) rotate(-31)"/><rect class="cls-12" x="302.36" y="84.19" width="9.77" height="9.28" transform="translate(72.26 305.79) rotate(-58.84)"/><rect class="cls-12" x="276.7" y="47.32" width="11.18" height="8.26"/><rect class="cls-12" x="364.68" y="47.32" width="11.18" height="8.26"/><path class="cls-12" d="M179.47,17.18h1.11a31.59,31.59,0,0,1-1.07,63.17h-1.12a31.59,31.59,0,0,1,1.08-63.17m0-7.8h0a39.4,39.4,0,0,0-1.35,78.77l1.38,0a39.39,39.39,0,0,0,1.36-78.76l-1.38,0Z"/><rect class="cls-12" x="174.94" y="0.4" width="9.72" height="9.23" transform="translate(168.54 184.53) rotate(-88.01)"/><rect class="cls-12" x="197.27" y="6.81" width="9.72" height="9.23" transform="translate(82.49 174.74) rotate(-57.01)"/><rect class="cls-12" x="212.91" y="23.13" width="9.72" height="9.23" transform="translate(11.15 101.93) rotate(-27.01)"/><rect class="cls-12" x="211.84" y="67.21" width="9.23" height="9.72" transform="translate(35.69 211.25) rotate(-56.01)"/><rect class="cls-12" x="138.14" y="20.28" width="9.23" height="9.72" transform="translate(47.7 134.58) rotate(-59.01)"/><rect class="cls-12" x="137.03" y="65.28" width="9.75" height="9.27" transform="translate(-15.96 80.01) rotate(-29.89)"/><rect class="cls-12" x="154.88" y="5.09" width="9.23" height="9.72" transform="translate(15.19 78.6) rotate(-29.01)"/><rect class="cls-12" x="171.9" y="87.84" width="9.72" height="9.23" transform="translate(78.22 265.9) rotate(-88.01)"/><rect class="cls-12" x="194.86" y="82.77" width="9.23" height="9.72" transform="translate(-17.47 107.73) rotate(-29.01)"/><rect class="cls-12" x="151.99" y="81.52" width="9.72" height="9.23" transform="translate(-0.8 170.8) rotate(-57.01)"/><rect class="cls-12" x="131.38" y="41.91" width="8.26" height="11.18" transform="translate(83.34 181.28) rotate(-88.01)"/><rect class="cls-12" x="219.31" y="44.94" width="8.26" height="11.18" transform="translate(165.18 272.09) rotate(-88.01)"/><g class="cls-1"><circle class="cls-13" cx="30.62" cy="170.89" r="30.62"/></g><circle class="cls-14" cx="30.68" cy="170.7" r="29.97"/><path class="cls-12" d="M30.7,200.79a29.8,29.8,0,0,0,16.48-4.93c-1.11-6-5.31-6.38-5.31-6.38H18.69s-4,.33-5.2,5.88A29.79,29.79,0,0,0,30.7,200.79Z"/><circle class="cls-12" cx="30.39" cy="170.06" r="14.47"/><path class="cls-6" d="M25.7,182.12H35v7.67a4.38,4.38,0,0,1-4.38,4.38H30.1a4.38,4.38,0,0,1-4.4-4.36v-7.69Z"/><path class="cls-12" d="M26,181.77h8.72a.29.29,0,0,1,.28.28h0v7.4a4.38,4.38,0,0,1-4.38,4.37H30.1a4.38,4.38,0,0,1-4.4-4.36h0v-7.4a.28.28,0,0,1,.28-.28h0Z"/><path class="cls-6" d="M25.74,185.61a13.32,13.32,0,0,0,9.27,0V184.5H25.74Z"/><circle class="cls-12" cx="30.39" cy="172.95" r="13.29"/><path class="cls-6" d="M20.93,160.86s5.6,11.37,21.39,4.77l-3.67-5.77-6.52-2.34Z"/><path class="cls-12" d="M20.93,160.69s5.6,11.37,21.39,4.77l-3.67-5.77-6.52-2.34Z"/><path class="cls-12" d="M20.87,159.93a7.78,7.78,0,0,1,1.9-3.1c2.62-2.58,6.89-3.13,9.1-6.07a1.72,1.72,0,0,1-.64,2.35l-.15.07c2.1,0,4.55-.19,5.74-1.93a3.93,3.93,0,0,1-.67,4.16c1.87.08,3.86,1.35,4,3.21a3.7,3.7,0,0,1-1.72,3.13,9.44,9.44,0,0,1-3.47,1.31C31.4,163.85,18.57,167.12,20.87,159.93Z"/><ellipse class="cls-12" cx="17.1" cy="172.94" rx="1.23" ry="2.32"/><ellipse class="cls-12" cx="43.68" cy="172.94" rx="1.23" ry="2.32"/><g class="cls-1"><circle class="cls-15" cx="35.48" cy="167.98" r="30.62"/></g><circle class="cls-3" cx="35.54" cy="167.78" r="29.97"/><path class="cls-12" d="M35.56,197.87A29.79,29.79,0,0,0,52,192.94c-1.1-6-5.31-6.38-5.31-6.38H23.54s-4,.33-5.2,5.88A29.8,29.8,0,0,0,35.56,197.87Z"/><circle class="cls-12" cx="35.25" cy="167.15" r="14.47"/><path class="cls-6" d="M30.58,179.2h9.27v7.67a4.38,4.38,0,0,1-4.38,4.38H35a4.38,4.38,0,0,1-4.38-4.38h0V179.2Z"/><path class="cls-12" d="M30.86,178.85h8.72a.29.29,0,0,1,.28.28h0v7.4a4.38,4.38,0,0,1-4.36,4.39H35a4.38,4.38,0,0,1-4.38-4.37h0v-7.42a.28.28,0,0,1,.27-.28Z"/><path class="cls-6" d="M30.6,182.7a13.32,13.32,0,0,0,9.27,0v-1.14H30.6Z"/><circle class="cls-12" cx="35.25" cy="170.03" r="13.29"/><path class="cls-6" d="M25.79,157.94s5.6,11.37,21.4,4.77l-3.68-5.77L37,154.6Z"/><path class="cls-12" d="M25.79,157.78s5.6,11.37,21.4,4.76l-3.68-5.77L37,154.43Z"/><path class="cls-12" d="M25.74,157a7.67,7.67,0,0,1,1.9-3.09c2.62-2.59,6.89-3.13,9.1-6.08a1.72,1.72,0,0,1-.64,2.35l-.15.08c2.1,0,4.55-.2,5.74-1.93A3.94,3.94,0,0,1,41,152.5c1.87.08,3.86,1.34,4,3.21a3.72,3.72,0,0,1-1.72,3.13,9.62,9.62,0,0,1-3.47,1.31C36.26,160.93,23.42,164.21,25.74,157Z"/><ellipse class="cls-12" cx="21.96" cy="170.02" rx="1.23" ry="2.32"/><ellipse class="cls-12" cx="48.54" cy="170.02" rx="1.23" ry="2.32"/><path class="cls-16" d="M149.38,63.4v1.47l-4.13-.37v9.18L134.44,89.52l-.67-.39L132.3,91l14,8.82v-3.3l-.79-.46c1-3.65,5-18.2,7.27-20.12a24.56,24.56,0,0,0,6.36-7C161.34,64.87,160.22,50.9,149.38,63.4Z"/><path class="cls-17" d="M127.51,98.07s-15-3.16-23.19-6.5a35.1,35.1,0,0,0-12-2.58l-9-.29L78.81,86l1.38-3.61a3.86,3.86,0,0,0,.41-.2l.13-.78a21.61,21.61,0,0,0,2.12-.64,5.56,5.56,0,0,0,1.77,4.75,5.47,5.47,0,0,0,4.09,1.8h0a5.51,5.51,0,0,0,5.53-5.48c0-.16,0-.32,0-.48l-.64-8.11-.33.17,0-.54-.12.06a21.4,21.4,0,0,0,.36-24.16l.35-.32V39.54c-.12-.11-.24-.22-.37-.32v0c-7.4-6.89-17.58-6.35-24.94-4.59A13.51,13.51,0,0,0,58.15,46.34c-9.83,2.68-6.55,7.83-6.7,9.83-.76,9.7,2.36,15.41,5.76,18.72a17.83,17.83,0,0,0,4.88,3.55l-2.16,4.3-.62,0-1.73,5.13H57.5L36.18,102.29,21.46,118.53a4.76,4.76,0,0,0,3.88,8l15.07-1.14s10.66,20.86,7.34,41.71c-1.11,7-.64,11.3.46,13.91a25.49,25.49,0,0,1-2.29,8.15c-4.05,8.45-4.05,17.27,1.1,27.56L48.49,270s1.83,25,0,30.14.73,29.78.73,29.78h-.36v13.6l27.54.73s6.43-3,7.58-5.35l13.84,4.26s15.23-2.63,6.32-6.25c-6.65-2.71-8.3-6.57-8.72-8.36l21.77-62.59s-4-53.29-18.74-71.67L97,183.41h.21l3.13-63.28.25,0-.07,0a69.92,69.92,0,0,0,24.26-.38,36.73,36.73,0,0,0,7-2l.41-.16h.09A21.19,21.19,0,0,0,137,115l9.18-14-14-9.63ZM69.8,313.32l7-48.89v-25l12.49,26.09L75.84,322.11l-.71-.2L72,333.05a7.38,7.38,0,0,1-2.23-3.17Z"/><path class="cls-18" d="M39,106S18.29,110.9,22,140.78c0,0,7.5-2.65,10.12-2.95s10,.52,10,.52l3.56-13.52Z"/><path class="cls-7" d="M143,70.12v8.77L132.5,94.2,143,101s4.64-17.9,7.15-20a23.54,23.54,0,0,0,6.07-6.67c2.15-3.86,1.08-17.2-9.29-5.27v1.41Z"/><path class="cls-7" d="M59.76,91l4.13-8.26a1.51,1.51,0,0,1,1.29-.84l15.72-.81a1.54,1.54,0,0,1,1.61,1.45,1.75,1.75,0,0,1-.1.64L78.35,93.69a1.52,1.52,0,0,1-1.56,1L61,93.26A1.52,1.52,0,0,1,59.6,91.6,1.43,1.43,0,0,1,59.76,91Z"/><polygon class="cls-19" points="60.92 87.49 58.26 95.32 85.66 94.34 75.14 88.02 60.92 87.49"/><polygon class="cls-19" points="130.59 95.39 131.99 93.64 143.92 100.65 143.92 103.81 130.59 95.39"/><path class="cls-20" d="M50,173a26.17,26.17,0,0,1-1.83,16.07c-3.85,8.07-3.86,16.49,1,26.32l1.4,50.89s1.75,23.86,0,28.77.7,28.43.7,28.43H70.94V307.71L77.6,261V237.17l11.94,24.92-13.7,57.56L93.74,327l22.46-64.58S112.34,211.55,98.3,194l-2.62-19.15Z"/><path class="cls-4" d="M50.92,336.49v-13h20s1.4,5.26,10.53,6.31-4.22,7.37-4.22,7.37Z"/><path class="cls-4" d="M72.52,328.41,76,315.9l19.27,5.36s-.06,5.45,8.45,8.91-6,6-6,6Z"/><path class="cls-6" d="M95.68,175.93,50,174.09a25.65,25.65,0,0,1,.34,8.29C52.41,187.3,56.9,186,56.9,186l40-1.23Z"/><path class="cls-18" d="M59.17,92.4,38.81,106.17l4,22S53,148.12,49.87,168s7,16.85,7,16.85l40.17-1.23,3-60.42s24.23,3.44,35.11-5l8.77-13.4-13.33-9.18L126,102.18S111.74,99.13,103.88,96a33.42,33.42,0,0,0-11.5-2.47Z"/><path class="cls-6" d="M59.52,189.62S57.06,201.9,71.1,222.26"/><path class="cls-6" d="M100.23,123.29s16.84-5.62,24.21-5.62,6.14,3.19,6.14,3.19S118.83,126.1,100.23,123.29Z"/><path class="cls-6" d="M81.12,81.83l-6.7.78c-.21,0-.4.29-.51.71,1.47,2.65,3.31,4.24,5.31,4.24a4.17,4.17,0,0,0,2-.56l.51-3.1C81.94,82.87,81.6,81.77,81.12,81.83Z"/><circle class="cls-7" cx="76.45" cy="66.41" r="20.47"/><path class="cls-6" d="M93.84,46.28v8.53l-1,.95a3.54,3.54,0,0,0,1,5.88h0S92.13,75.28,90,80.4l3.62-1.92.62,7.74A5.28,5.28,0,0,1,89.4,91.9H89a5.28,5.28,0,0,1-4.7-7.68c.87-1.69,2.41-3.47,3.16-6,2.75-9.18-2.75-7.46-4-5.76s.21,6.19.21,6.19,4,7.46-17.27,5.75c0,0-14.07-3-12.58-22,.15-1.9-3-6.82,6.4-9.38h0A12.89,12.89,0,0,1,70,41.88C77.06,40.23,86.78,39.7,93.84,46.28Z"/><path class="cls-9" d="M93.51,45.94v8.52l-1,.95a3.53,3.53,0,0,0-.23,5,3.59,3.59,0,0,0,1.26.88h0s-1.71,13.64-3.84,18.76l3.63-1.92.61,7.74a5.28,5.28,0,0,1-4.84,5.68h-.42a5.26,5.26,0,0,1-5.27-5.27A5.16,5.16,0,0,1,84,83.88c.86-1.69,2.4-3.47,3.15-6,2.76-9.18-2.75-7.46-4-5.75s.21,6.18.21,6.18S87.32,85.8,66,84.09c0,0-14.07-3-12.58-22,.15-1.9-3-6.82,6.4-9.38h0a12.9,12.9,0,0,1,9.87-11.22C76.71,39.88,86.43,39.35,93.51,45.94Z"/></g></g></svg>