<svg xmlns="http://www.w3.org/2000/svg" xmlns:xlink="http://www.w3.org/1999/xlink" viewBox="0 0 413.03 234.58"><defs><style>.cls-1,.cls-10,.cls-2,.cls-9{fill:#0a3254;}.cls-1,.cls-11{opacity:0.5;}.cls-1,.cls-10,.cls-17,.cls-18,.cls-4,.cls-9{isolation:isolate;}.cls-3,.cls-8{fill:none;stroke:#535461;stroke-miterlimit:10;}.cls-4{opacity:0.1;}.cls-5{fill:url(#linear-gradient);}.cls-6{fill:#535461;}.cls-7{fill:#fff;}.cls-8{stroke-width:2px;}.cls-9{opacity:0.7;}.cls-10{opacity:0.8;}.cls-12{fill:url(#linear-gradient-2);}.cls-13{fill:#333;}.cls-14{fill:#f05133;}.cls-15{fill:#fda57d;}.cls-16{fill:#e0e0e0;}.cls-17{opacity:0.04;}.cls-18{opacity:0.05;}</style><linearGradient id="linear-gradient" x1="316.14" y1="-598.96" x2="316.14" y2="-440.6" gradientTransform="matrix(1, 0, 0, -1, -123, -420.01)" gradientUnits="userSpaceOnUse"><stop offset="0" stop-color="gray" stop-opacity="0.25"/><stop offset="0.54" stop-color="gray" stop-opacity="0.12"/><stop offset="1" stop-color="gray" stop-opacity="0.1"/></linearGradient><linearGradient id="linear-gradient-2" x1="473.99" y1="-610.62" x2="473.99" y2="-431.24" gradientTransform="matrix(1, 0, 0, -1, -144.63, -431.24)" xlink:href="#linear-gradient"/></defs><title>instructors-illustration</title><g id="Layer_2" data-name="Layer 2"><g id="Layer_1-2" data-name="Layer 1"><path class="cls-1" d="M102.49,152.45c-25-8.63-53.52-15.94-76.85-3.54-3,1.57-5.87,3.55-7.47,6.5-4.2,7.74,2.48,17.79-.78,26S1.86,193.69,2.87,202.44a12.21,12.21,0,0,0,3,6.14c9.14,11.16,25.89,12.29,40.06,9.52s28-8.51,42.42-7.79c13.86.71,26.6,7.36,39.3,12.95C149,232.72,174,239.5,195.39,230c9.79-4.36,17.89-11.77,27.27-16.95a67.06,67.06,0,0,1,41.43-7.6c9.53,1.34,18.62,4.72,27.94,7,21.17,5.29,43.27,5.12,65.08,4.91,4.07,0,8.19-.09,12.08-1.25,5.77-1.73,10.52-5.72,15.1-9.62,6-5.12,12.34-10.75,14.28-18.41,2.29-9.09-2.45-18.75-9.48-24.93s-16-9.55-24.79-12.81c-2.16-.8-4.48-1.61-6.69-1a9,9,0,0,0-3.77,2.41c-6.22,6-11.48,16.12-20,14.5-3-.58-5.52-2.69-7.91-4.64-12.81-10.39-30-18.41-45.49-12.67-11.31,4.2-19.29,15-30.74,18.79-8.15,2.71-17,1.53-25.58,2.06-12.46.76-24.6,5.17-37.09,4.9-31.83-.68-58.36-31.13-90.07-28.22-2.48.22-5.19.79-6.72,2.76"/><path class="cls-2" d="M62.34,123.49s-26.45,16,22.33,40.57c0,0,10.75-20-1.13-36.24a16,16,0,0,0-20.78-4.55Z"/><path class="cls-3" d="M62.66,123.15s22.65,17.32,22,40.89"/><path class="cls-2" d="M397.07,110.18c5.36,19.6-17.5,75.44-17.5,75.44s-48.11-36.43-53.48-56a36.8,36.8,0,0,1,70.53-21c.16.54.31,1.09.45,1.64Z"/><path class="cls-4" d="M397.07,110.18c5.36,19.6-17.5,75.44-17.5,75.44s-48.11-36.43-53.48-56a36.8,36.8,0,0,1,70.53-21c.16.54.31,1.09.45,1.64Z"/><path class="cls-3" d="M352.07,84.51S382,129.72,379.78,185.73"/><path class="cls-2" d="M404.71,146S377.56,131.23,381,185.76c0,0,22.65-.81,30.69-19.29a16,16,0,0,0-6.58-20.24Z"/><path class="cls-3" d="M405.16,146.1s-3.51,28.3-24.16,39.66"/><path class="cls-2" d="M7.17,139.92s-26.47,16,22.32,40.56c0,0,10.75-20-1.13-36.23a16,16,0,0,0-20.78-4.56Z"/><path class="cls-3" d="M7.47,139.59s22.65,17.32,22,40.89"/><path class="cls-5" d="M337.45,160.71H309.63a9.32,9.32,0,0,0,1-4.14V29.91a9.31,9.31,0,0,0-9.31-9.32H86a9.31,9.31,0,0,0-9.31,9.32h0V156.57a9.26,9.26,0,0,0,1,4.14H48.83a2.47,2.47,0,0,0-2.46,2.47h0v2A13.76,13.76,0,0,0,60.14,179h266a13.77,13.77,0,0,0,13.78-13.77h0v-2a2.47,2.47,0,0,0-2.45-2.48Zm-171.4,7.88-2.4-2.71h59.22l-2.64,2.71Z"/><rect class="cls-6" x="79.3" y="22.39" width="228.64" height="142" rx="10.07" ry="10.07"/><rect class="cls-7" x="84.11" y="43.08" width="218.54" height="116.01"/><circle class="cls-7" cx="193.38" cy="32.98" r="1.93"/><path class="cls-6" d="M227.12,159.33l-7.51,7.7H166.68l-6.78-7.7H52.1a2.41,2.41,0,0,0-2.41,2.41v1.94a13.47,13.47,0,0,0,13.47,13.46h260a13.46,13.46,0,0,0,13.46-13.46v-1.94a2.4,2.4,0,0,0-2.4-2.41Z"/><polyline class="cls-8" points="112.03 50.31 112.03 148.98 275.21 148.98"/><rect class="cls-1" x="126.47" y="119.14" width="16.85" height="25.99"/><rect class="cls-9" x="155.35" y="96.03" width="16.85" height="49.1"/><rect class="cls-1" x="184.23" y="109.99" width="16.85" height="35.14"/><rect class="cls-10" x="213.11" y="88.33" width="16.85" height="56.8"/><rect class="cls-2" x="242" y="68.11" width="16.85" height="77.02"/><polyline class="cls-8" points="134.65 103.25 164.01 76.78 192.9 101.81 221.3 71.49 250.18 59.45"/><circle class="cls-2" cx="134.65" cy="103.25" r="3.37"/><circle class="cls-2" cx="192.42" cy="101.33" r="3.37"/><circle class="cls-2" cx="221.78" cy="71.49" r="3.37" transform="translate(115.69 278.95) rotate(-80.78)"/><circle class="cls-2" cx="164.01" cy="76.3" r="3.37"/><circle class="cls-2" cx="250.18" cy="59.45" r="3.37"/><path class="cls-8" d="M35.8,57.88s-11.35,23.49-3.9,51.28,5.09,61-2.34,69.27"/><circle class="cls-2" cx="35.8" cy="57.89" r="3.13"/><path class="cls-8" d="M31.08,73S42.85,75.11,46,70.82"/><path class="cls-8" d="M30,79.81S22.88,72,23.27,67.28"/><path class="cls-8" d="M29.36,94.15s6.44,1.7,12.31-10.82"/><path class="cls-8" d="M31.08,104.59s-16-10.31-14.07-17"/><path class="cls-8" d="M33.58,116.39s11.22-10,10.05-19.76"/><path class="cls-8" d="M34.8,123.32s-14.28-4-13.85-10.25"/><path class="cls-8" d="M35.8,131.59s9-8.34,10.17-13.42"/><path class="cls-8" d="M36.43,145.77S27.19,135,26.8,129.51"/><path class="cls-8" d="M36.43,154.69s10.33-11.48,11.11-17"/><circle class="cls-2" cx="23.27" cy="68.06" r="3.13"/><circle class="cls-2" cx="19.75" cy="113.07" r="3.13"/><circle class="cls-2" cx="17.01" cy="87.63" r="3.13"/><circle class="cls-2" cx="45.98" cy="70.8" r="3.13"/><circle class="cls-2" cx="45.98" cy="118.94" r="3.13"/><circle class="cls-2" cx="40.89" cy="83.33" r="3.13"/><circle class="cls-2" cx="47.15" cy="139.69" r="3.13"/><circle class="cls-2" cx="26.01" cy="131.47" r="3.13"/><circle class="cls-2" cx="44.02" cy="96.63" r="3.13"/><g class="cls-11"><path class="cls-12" d="M388.67,60.46a2.89,2.89,0,0,1-2.81-2.31c-.16-1.57,1.32-2.72,2.26-4a7.3,7.3,0,0,0,0-7.93,11.78,11.78,0,0,0-6.74-4.76c-2.23-.66-4.84-1-6.17-3-2.09-3.17,1.14-7.14,1.42-10.92a7.28,7.28,0,0,0-6.31-7.49c-2.08-.2-4.52.44-6-1a4.09,4.09,0,0,1-.92-1.5c-1-2.52-.52-5.32-.39-8s-.25-5.73-2.33-7.44A8.79,8.79,0,0,0,356.29.46a46.19,46.19,0,0,0-14.13.19c-6.51,1-13.31,3-17.62,8s-4.88,13.61.33,17.62c-.44-.35-.25-1.13.38-2.06v.26a13.22,13.22,0,0,0,8.68,12.42v.93a9,9,0,0,0-2.68,1.13C322.38,41.1,304.63,52,304.63,52l-26.07,4.41s-12.78,2-12.29,3.93,12.29.5,12.29.5h26.36a14.25,14.25,0,0,0,6.84-1.77l14.4-7.93c-.07,1.15-.1,2.33-.11,3.53-2.28,1.63-4.51,5.19.18,12.52l0-.2v.2L321,91.39c-1.59,1.18-2.69,2.27-2.31,2.85.22.33.81.39,1.62.28L313.08,128l20.32,24.55L336.79,172l-3.19,3.06-11.85,2.2a1.08,1.08,0,0,0,.19,2.14h26v-4.9h.23l-.44-5.88,8.21-5.36-2.69-4.12-.38.25-6.56-9.16-1.12-14.43,12-43.43h0v0h0L354.21,80.2l5.16-2.62a7.56,7.56,0,0,0,3.73-9.19c-.79-2.28-1.76-5-2.9-7.72A21.88,21.88,0,0,0,366,64.84c8.54,4,18.78.19,26.44-5.32A8.64,8.64,0,0,1,388.67,60.46ZM351.89,70.65l-1.83-7.51,2.49,6.35c-.33.58-.58,1-.66,1.17Zm-10.21-32.8v-.56a13.31,13.31,0,0,0,4.71-2.21A18.86,18.86,0,0,0,347,41a8.82,8.82,0,0,0-5.28-3.11Zm-13.8,86.62L338.39,94.1,332,130.16Z"/></g><path class="cls-13" d="M352.56,157.21l-9.21,6-10.61,10.18a1,1,0,0,0-.15,1.32h0a1,1,0,0,0,1.45.3h0l21.15-13.82Z"/><path class="cls-14" d="M333.54,48.3,312.26,60a13.83,13.83,0,0,1-6.65,1.71H280V57.38l25.34-4.31S334,35.39,335.91,41.13,333.54,48.3,333.54,48.3Z"/><path class="cls-14" d="M356.39,92.29H321.08l5.28-24.38c0-13.27-2.64-29,10.64-29h0c13.27,0,11.84,9.07,11.84,22.34Z"/><path class="cls-15" d="M333.81,29.61h7.53V40a3.47,3.47,0,0,1-3.47,3.47h-.59A3.48,3.48,0,0,1,333.81,40V29.61Z"/><polygon class="cls-16" points="321.08 92.24 313.55 126.98 344.24 164.04 352.34 157.67 327.92 123.51 338.74 92.24 321.08 92.24"/><polygon class="cls-17" points="321.08 92.24 313.55 126.98 344.24 164.04 352.34 157.67 327.92 123.51 338.74 92.24 321.08 92.24"/><polygon class="cls-16" points="338.45 92.24 330.67 135.8 337.01 172.14 347.63 172.14 344.74 134.51 356.39 92.24 338.45 92.24"/><path class="cls-18" d="M351.23,71.25,327.8,88l1.91,3.35,27.39-13.9a7.34,7.34,0,0,0,3.63-9C357.47,59,351.23,71.25,351.23,71.25Z"/><path class="cls-18" d="M344.93,52l7.73,19.76-23.9,13.85,2.39,6.22,27.39-13.9a7.35,7.35,0,0,0,3.63-9c-3.27-9.46-10-26.18-15.74-22.25A4.41,4.41,0,0,0,344.93,52Z"/><path class="cls-14" d="M344.45,51l7.73,19.77L328.76,86.56l1.42,4.31L358.05,77a7.34,7.34,0,0,0,3.63-9c-3.26-9.46-10-26.18-15.73-22.25A4.41,4.41,0,0,0,344.45,51Z"/><path class="cls-13" d="M347.4,172.15h-11l-14.45,2.71a1,1,0,0,0-.85,1h0a1,1,0,0,0,1,1.05h25.26Z"/><path class="cls-18" d="M345.49,52.12s5.73,7.65,4.78,13.39"/><path class="cls-18" d="M333.81,39.31a13,13,0,0,0,7.53.41V30.56h-7.53Z"/><circle class="cls-15" cx="338.24" cy="26.26" r="12.87"/><path class="cls-15" d="M280,57.38s-12.43,1.91-12,3.82,12,.48,12,.48Z"/><path class="cls-15" d="M329.07,86.64S318,92.51,319,94.17s11.45-3.46,11.45-3.46Z"/><path class="cls-14" d="M328.76,54.52s-9.64,2.1-2.43,13.38"/><path class="cls-18" d="M340.23,55.47s-9.64,2.11-2.43,13.39"/><path class="cls-14" d="M340.71,55.47s-9.64,2.11-2.43,13.39"/><path class="cls-13" d="M347.81,30.39c-2.54,4.12-2.39,9.47-.71,14s4.73,8.42,7.82,12.15c2.89,3.5,6,7,10.09,9,8.31,3.91,18.26.19,25.71-5.17a8.38,8.38,0,0,1-3.69.94A2.85,2.85,0,0,1,384.29,59c-.16-1.52,1.32-2.64,2.2-3.89a7.14,7.14,0,0,0,0-7.73,11.44,11.44,0,0,0-6.55-4.63c-2.17-.64-4.73-1-6-2.9-2-3.08,1.11-6.93,1.38-10.61A7,7,0,0,0,369.17,22c-2-.2-4.41.44-5.86-1a3.84,3.84,0,0,1-.88-1.46c-.95-2.44-.51-5.17-.39-7.79s-.24-5.56-2.25-7.23a8.61,8.61,0,0,0-4.21-1.6,44.84,44.84,0,0,0-13.73.18c-6.34.93-12.94,2.9-17.14,7.74S320,24.08,325,28c-1.8-1.39,7-9.56,11.05-7C340.76,23.8,340.86,30.66,347.81,30.39Z"/></g></g></svg>