<svg xmlns="http://www.w3.org/2000/svg" xmlns:xlink="http://www.w3.org/1999/xlink" viewBox="0 0 309.19 269.96"><defs><style>.cls-1,.cls-2{fill:#0a3254;}.cls-1,.cls-4{opacity:0.2;}.cls-1,.cls-14,.cls-4,.cls-8{isolation:isolate;}.cls-14,.cls-3{fill:none;stroke-miterlimit:10;}.cls-3{stroke:#535461;stroke-width:2px;}.cls-4{fill:#f5f5f5;}.cls-5{fill:url(#linear-gradient);}.cls-6{fill:#e14b5a;}.cls-7{fill:#f7c4a7;}.cls-10,.cls-14,.cls-8{opacity:0.1;}.cls-9{fill:#7ea6d7;}.cls-11{fill:#632652;}.cls-12{fill:#535461;}.cls-13{fill:#fff;}.cls-14{stroke:#000;}.cls-15{fill:#6a5c99;}.cls-16{fill:#ffd037;}.cls-17{fill:#d6d6e3;}</style><linearGradient id="linear-gradient" x1="307.91" y1="186.82" x2="307.91" y2="372.89" gradientTransform="matrix(1, 0, 0, -1, -149.42, 389.01)" gradientUnits="userSpaceOnUse"><stop offset="0" stop-color="gray" stop-opacity="0.25"/><stop offset="0.54" stop-color="gray" stop-opacity="0.12"/><stop offset="1" stop-color="gray" stop-opacity="0.1"/></linearGradient></defs><title>learners-illustration</title><g id="Layer_2" data-name="Layer 2"><g id="Layer_1-2" data-name="Layer 1"><rect class="cls-1" x="262.09" y="97.08" width="17.84" height="9.26"/><rect class="cls-1" x="263.46" y="108.4" width="17.84" height="9.26"/><rect class="cls-1" x="248.71" y="29.84" width="17.84" height="9.26"/><rect class="cls-1" x="261.4" y="40.48" width="17.84" height="9.26"/><rect class="cls-1" x="227.1" y="30.53" width="17.84" height="9.26"/><rect class="cls-1" x="284.38" y="51.11" width="17.84" height="9.26"/><rect class="cls-1" x="262.77" y="51.8" width="17.84" height="9.26"/><rect class="cls-1" x="239.79" y="41.16" width="17.84" height="9.26"/><rect class="cls-1" x="283.35" y="122.46" width="17.84" height="9.26"/><rect class="cls-1" x="261.74" y="123.15" width="17.84" height="9.26"/><path class="cls-2" d="M45,94.67s25.14,25.14,10.95,62.44,24.33,99.35,24.33,99.35-.42-.06-1.18-.2c-51.63-9.11-77.29-68.16-48.56-112C41.19,127.92,50,108.79,45,94.67Z"/><path class="cls-3" d="M45,94.67s14.19,30.82,0,56-2.43,95.7,35.28,105.83"/><path class="cls-2" d="M.21,196.35s28.69-4.57,31.31,21.14,55.16,29.28,55.16,29.28l-1,.65C42.31,275.89.83,265.57,7.09,227.75,9.41,213.69,9.22,199.56.21,196.35Z"/><path class="cls-4" d="M.21,196.35s28.69-4.57,31.31,21.14,55.16,29.28,55.16,29.28l-1,.65C42.31,275.89.83,265.57,7.09,227.75,9.41,213.69,9.22,199.56.21,196.35Z"/><path class="cls-3" d="M.21,196.35s22.27,4.89,20.44,25.14,33.07,44.53,66,25.28"/><rect class="cls-1" x="0.36" y="97.42" width="17.84" height="9.26"/><rect class="cls-1" x="13.05" y="108.05" width="17.84" height="9.26"/><rect class="cls-1" x="109.44" width="17.84" height="9.26"/><rect class="cls-1" x="250.08" y="170.83" width="17.84" height="9.26"/><rect class="cls-1" x="14.42" y="119.37" width="17.84" height="9.26"/><rect class="cls-1" x="122.13" y="10.63" width="17.84" height="9.26"/><rect class="cls-1" x="56.96" y="73.41" width="17.84" height="9.26"/><rect class="cls-1" x="69.65" y="84.04" width="17.84" height="9.26"/><rect class="cls-1" x="103.61" y="78.21" width="17.84" height="9.26"/><rect class="cls-1" x="71.02" y="95.36" width="17.84" height="9.26"/><rect class="cls-1" x="274.09" y="170.83" width="17.84" height="9.26"/><path class="cls-5" d="M247.34,134.16a142.81,142.81,0,0,1-2.12-19.45h0a26.06,26.06,0,0,0-18.34-23.8c-1.87-.58-3.93-1.12-6.21-1.6-20-4.24-26-.54-26.72,0a26,26,0,0,1-1.52-3.3l-.09-.34a25.61,25.61,0,0,0,6.83-15.4,16.83,16.83,0,0,0,5.27-11.84,16.24,16.24,0,0,0-4-10.37V42a25.93,25.93,0,0,0-25.92-25.92h-2.11A25.93,25.93,0,0,0,146.53,42h0v6.43A16,16,0,0,0,143,58.38,16.74,16.74,0,0,0,148,70a25.48,25.48,0,0,0,7.11,15.89c.14,1,.29,2,.43,3.13l-35.71,7.54s-13.77.57-22.64,18.87c-7.5,15.5-22.43,55.32-26.85,67.18h0L69.1,186s.15-.15.43-.4l-.43,1.15s.22-.22.63-.58c-.62,5-.71,13.48,5.79,14.54C81,201.59,95,202,105.6,202.1h.74c7,.1,12.37.1,12.37.1v-.1h114v-1.17a7.93,7.93,0,0,0-.63-3.08l.16-.2a6.32,6.32,0,0,1,1.18,2.75,2.93,2.93,0,0,1-.05.29l.06-.18a2.9,2.9,0,0,1-.06.93s14.63-37.69,14.47-60.2A38.19,38.19,0,0,0,247.34,134.16Zm-91.19-40a25.24,25.24,0,0,1-.36-3.25v0C155.91,91.89,156,93,156.15,94.11Zm-44.33,81v9l-5.62,1.21Z"/><path class="cls-6" d="M172.93,19.75h0a25.92,25.92,0,0,1,25.92,25.92V56.73H147V45.67A25.92,25.92,0,0,1,172.93,19.75Z"/><ellipse class="cls-6" cx="173.11" cy="60.36" rx="29.55" ry="20.3"/><path class="cls-7" d="M154.17,80s6.17,32.27,0,41S173,133.14,173,133.14L199,123.72l3.63-23.21s-15.78-8.88-12.51-26.83Z"/><path class="cls-7" d="M230.67,188.8s1.63,7.07-7.25,8.34a50.51,50.51,0,0,1-15.81-.19l-2-17.76h20.67Z"/><path class="cls-7" d="M73.79,179.75s-3.92,15.95,5,17.39,41.51,1.45,41.51,1.45V179.72l-14.77,3.16-13.87-13.3Z"/><path class="cls-8" d="M156.07,90.45l-34.71,7.34s-13.24.54-21.76,18.13-27,67.8-27,67.8,15.78-15.95,34.26,1.09l12.33-22.3-2.72,35.35H212V181.18s19.94,10.7,18.49,16.68c0,0,17.07-44,13.38-64a136.4,136.4,0,0,1-2-18.7h0A25,25,0,0,0,224.2,92.35c-1.8-.56-3.78-1.07-6-1.54-20.49-4.35-25.73,0-25.73,0s-4,12.91-3.9,18.77c.09,7.52-10.69,12.51-10.69,12.51s-16-3.81-16.68-6.89S154.8,94.07,156.07,90.45Z"/><path class="cls-9" d="M156.07,89.72l-34.71,7.35s-13.24.54-21.76,18.12-27,67.81-27,67.81,15.77-15.95,34.26,1.09l12.33-22.3-2.72,35.35H212V180.46s19.94,10.69,18.49,16.68c0,0,17.07-44,13.38-63.95a136.57,136.57,0,0,1-2-18.7h0A25,25,0,0,0,224.2,91.62c-1.8-.55-3.78-1.07-6-1.53-20.49-4.35-25.73,0-25.73,0s-4,12.91-3.9,18.76c.09,7.52-10.69,12.51-10.69,12.51s-16-3.81-16.68-6.89S154.8,93.35,156.07,89.72Z"/><path class="cls-8" d="M191.55,88.18a24.5,24.5,0,0,1-1-12.87l-35.9,6.35s.52,2.71,1.11,6.78a24.64,24.64,0,0,0,34.85.64c.3-.29.6-.59.88-.9Z"/><path class="cls-7" d="M197.67,69.69a24.66,24.66,0,0,1-49.3.6v-.6a24.65,24.65,0,0,1,13.82-22.15,23,23,0,0,1,2.28-1,24.81,24.81,0,0,1,12.69-1.18h0a24.66,24.66,0,0,1,20.45,22.68C197.65,68.6,197.67,69.14,197.67,69.69Z"/><g class="cls-10"><path d="M164.43,47.14l0,0a22.84,22.84,0,0,0-2.27,1,24.64,24.64,0,0,0-13.82,22.15v.6a5.48,5.48,0,0,0,2.21-.53c6-2.81,9.6-11.39,11-17.38C162.13,50.8,162.61,48.38,164.43,47.14Z"/><path d="M183.3,47.83a24.33,24.33,0,0,0-6.13-1.89,7.9,7.9,0,0,1,4.4,2.77,10.88,10.88,0,0,1,1.35,2.4,24.69,24.69,0,0,0-20.74.43c1.55,3.39,6.35,5.24,9.55,6.48q5.27,2,10.64,3.71l-3.17-2.57,7.16,1.14a12.76,12.76,0,0,0-.5-4.22c1.37,1.1,3.19,1.47,4.67,2.4,2.79,1.76,4,5.14,5.48,8.08a5.47,5.47,0,0,0,1.59,2.06A24.65,24.65,0,0,0,183.3,47.83Z"/></g><path class="cls-11" d="M164.43,46.58l0,0a22.84,22.84,0,0,0-2.27,1,24.64,24.64,0,0,0-13.82,22.15v.6a5.48,5.48,0,0,0,2.21-.53c6-2.81,9.6-11.39,11-17.38C162.13,50.25,162.61,47.83,164.43,46.58Z"/><path class="cls-11" d="M183.3,47.28a23.93,23.93,0,0,0-6.13-1.89,7.88,7.88,0,0,1,4.4,2.76,11.12,11.12,0,0,1,1.35,2.4,24.73,24.73,0,0,0-20.74.43c1.55,3.39,6.35,5.24,9.55,6.48q5.27,2,10.64,3.71L179.2,58.6l7.16,1.14a12.83,12.83,0,0,0-.5-4.22c1.37,1.11,3.19,1.48,4.67,2.4,2.79,1.76,4,5.15,5.48,8.08a5.32,5.32,0,0,0,1.59,2.06A24.64,24.64,0,0,0,183.3,47.28Z"/><path class="cls-8" d="M145.55,65.63s25.39-31.56,54.75,0l-2.53-7.07S184,38.44,174.2,42.78s-19.4,7.43-19.4,7.43Z"/><path class="cls-6" d="M145.55,65.07s25.39-31.56,54.75,0L197.77,58S184,37.88,174.2,42.22s-19.4,7.43-19.4,7.43Z"/><path class="cls-8" d="M124.7,133.05s-5.43,14.51,2.18,27.56-6.71,18.49-6.71,18.49"/><path class="cls-8" d="M212.81,120s9.43,12,3.26,22.66-5.8,36.44-5.8,36.44"/><path class="cls-12" d="M116.37,189.8H221.15a8.69,8.69,0,0,1,8.7,8.7H107.67A8.69,8.69,0,0,1,116.37,189.8Z"/><path class="cls-12" d="M127,130h83.46a13.38,13.38,0,0,1,13.38,13.38v48.44H113.65V143.35A13.38,13.38,0,0,1,127,130Z"/><circle class="cls-13" cx="168.67" cy="163.6" r="6.53"/><path class="cls-14" d="M147,50.84s24.95-24.93,51.85-.46"/><rect class="cls-15" x="202.65" y="49.25" width="2.5" height="14.2"/><path class="cls-16" d="M199.31,58.43h0a8.63,8.63,0,0,1,8.63,8.63v.56a8.63,8.63,0,0,1-8.63,8.63h0V58.43Z"/><path class="cls-15" d="M199.59,57.6h0a2,2,0,0,1,1.95,1.95V75.14a2,2,0,0,1-1.95,2h0a2,2,0,0,1-2-2V59.55A2,2,0,0,1,199.59,57.6Z"/><rect class="cls-15" x="140.45" y="49.53" width="2.5" height="14.2"/><path class="cls-16" d="M146.29,76.53h0a8.63,8.63,0,0,1-8.63-8.63v-.56a8.63,8.63,0,0,1,8.63-8.63h0V76.53Z"/><path class="cls-15" d="M146,77.36h0a1.94,1.94,0,0,1-1.94-2V59.82A1.94,1.94,0,0,1,146,57.88h0a1.94,1.94,0,0,1,2,1.94V75.41A2,2,0,0,1,146,77.36Z"/><path class="cls-16" d="M202.36,34.07c-3.4-7-10.79-15.58-26.71-16.26v0h-.19l-5.65.27v0c-15.82.73-23.17,9.23-26.55,16.26a36.48,36.48,0,0,0-3.51,15.23l1.95,0,2-.05a33.09,33.09,0,0,1,3.16-13.55c4.3-8.82,12.2-13.51,23.49-14h0l5-.28h0c11.3.44,19.2,5.13,23.49,14A33.2,33.2,0,0,1,202,49.2l1.95,0,1.94,0A36.65,36.65,0,0,0,202.36,34.07Z"/><rect class="cls-17" x="25.62" y="198.61" width="265.74" height="71.35"/><rect class="cls-8" x="25.62" y="203.41" width="265.74" height="9.26"/><rect class="cls-17" x="7.8" y="197.58" width="301.39" height="9.26"/></g></g></svg>