<svg xmlns="http://www.w3.org/2000/svg" xmlns:xlink="http://www.w3.org/1999/xlink" viewBox="0 0 433.97 444.03"><defs><style>.cls-1{fill:url(#linear-gradient);}.cls-2{fill:url(#linear-gradient-2);}.cls-3{fill:#ededed;}.cls-4{fill:#0089c3;}.cls-5{fill:#bcbcbc;}.cls-6{fill:#f4f4f4;}.cls-7{fill:#69efad;}.cls-18,.cls-8{fill:#fff;}.cls-9{opacity:0.2;isolation:isolate;}.cls-10{fill:#dfdfdf;}.cls-11{fill:url(#linear-gradient-3);}.cls-12{fill:url(#linear-gradient-4);}.cls-13{fill:url(#linear-gradient-5);}.cls-14{fill:url(#linear-gradient-6);}.cls-15{fill:#284b8e;}.cls-16{fill:url(#linear-gradient-7);}.cls-17{fill:#6c63ff;}.cls-18{stroke:#fff;stroke-miterlimit:10;}.cls-19{fill:url(#linear-gradient-8);}.cls-20{fill:url(#linear-gradient-9);}.cls-21{fill:#552987;}.cls-22{fill:url(#linear-gradient-10);}.cls-23{fill:url(#linear-gradient-11);}.cls-24{fill:url(#linear-gradient-12);}.cls-25{fill:url(#linear-gradient-13);}</style><linearGradient id="linear-gradient" x1="1005.97" y1="4675.23" x2="1005.97" y2="4929.71" gradientTransform="matrix(1, 0, 0, -1, -875.89, 4966.26)" gradientUnits="userSpaceOnUse"><stop offset="0" stop-color="gray" stop-opacity="0.25"/><stop offset="0.54" stop-color="gray" stop-opacity="0.12"/><stop offset="1" stop-color="gray" stop-opacity="0.1"/></linearGradient><linearGradient id="linear-gradient-2" x1="986.17" y1="4849.08" x2="986.17" y2="4946.08" gradientTransform="matrix(1, 0, 0, -1, -879.79, 5000.72)" gradientUnits="userSpaceOnUse"><stop offset="0" stop-color="#b2b2b2" stop-opacity="0.25"/><stop offset="0.54" stop-color="#b2b2b2" stop-opacity="0.1"/><stop offset="1" stop-color="#b2b2b2" stop-opacity="0.05"/></linearGradient><linearGradient id="linear-gradient-3" x1="-5319.08" y1="1199.45" x2="-5317.02" y2="1150.29" gradientTransform="matrix(-0.96, 0.28, 0.28, 0.96, -5386.02, 481.51)" gradientUnits="userSpaceOnUse"><stop offset="0" stop-opacity="0.12"/><stop offset="0.55" stop-opacity="0.09"/><stop offset="1" stop-opacity="0.02"/></linearGradient><linearGradient id="linear-gradient-4" x1="375.39" y1="5495.49" x2="375.39" y2="5750.48" gradientTransform="matrix(1, 0, 0, -1, 0, 5920.55)" xlink:href="#linear-gradient"/><linearGradient id="linear-gradient-5" x1="799.38" y1="5200.44" x2="799.38" y2="5454.92" gradientTransform="matrix(1, 0, 0, -1, -491.12, 5555.21)" xlink:href="#linear-gradient"/><linearGradient id="linear-gradient-6" x1="799.38" y1="5358.17" x2="799.38" y2="5455.16" gradientTransform="matrix(1, 0, 0, -1, -499.44, 5555.65)" xlink:href="#linear-gradient-2"/><linearGradient id="linear-gradient-7" x1="-5130.73" y1="677.58" x2="-5128.67" y2="628.42" gradientTransform="matrix(-0.99, 0.12, 0.12, 0.99, -4931.39, 108.4)" xlink:href="#linear-gradient-3"/><linearGradient id="linear-gradient-8" x1="227.89" y1="5665.83" x2="227.89" y2="5920.31" gradientTransform="matrix(1, 0, 0, -1, 0, 5920.55)" xlink:href="#linear-gradient"/><linearGradient id="linear-gradient-9" x1="227.88" y1="5823.55" x2="227.88" y2="5920.55" gradientTransform="matrix(1, 0, 0, -1, 0, 5920.55)" xlink:href="#linear-gradient-2"/><linearGradient id="linear-gradient-10" x1="-4792.88" y1="280.28" x2="-4790.82" y2="231.14" gradientTransform="matrix(-1, 0.01, 0.01, 1, -4627.26, -160.74)" xlink:href="#linear-gradient-3"/><linearGradient id="linear-gradient-11" x1="195.68" y1="5476.51" x2="195.68" y2="5768.85" gradientTransform="matrix(1, 0, 0, -1, 0, 5920.55)" xlink:href="#linear-gradient"/><linearGradient id="linear-gradient-12" x1="196" y1="5518.84" x2="196" y2="5698.57" gradientTransform="matrix(1, 0, 0, -1, 0, 5920.55)" xlink:href="#linear-gradient"/><linearGradient id="linear-gradient-13" x1="-4820.65" y1="545.23" x2="-4816.78" y2="452.51" gradientTransform="matrix(-1, 0.01, 0.01, 1, -4627.26, -160.74)" xlink:href="#linear-gradient-3"/></defs><title>product-overview-illustration</title><g id="Layer_2" data-name="Layer 2"><g id="Layer_1-2" data-name="Layer 1"><rect class="cls-1" x="30.79" y="50.12" width="193.03" height="253.78" transform="translate(-43.17 41.08) rotate(-15.71)"/><rect class="cls-2" x="9.39" y="54.64" width="194.01" height="97" transform="translate(-23.53 31.89) rotate(-15.37)"/><rect class="cls-3" x="32.76" y="54.06" width="188.61" height="248.56" transform="translate(-42.72 40.06) rotate(-15.37)"/><rect class="cls-4" x="12.09" y="56.58" width="189.04" height="94.74" transform="translate(-23.74 31.98) rotate(-15.37)"/><rect class="cls-5" x="73.05" y="183.04" width="51.28" height="3.91" transform="translate(-45.5 32.77) rotate(-15.37)"/><rect class="cls-6" x="77.2" y="198.13" width="51.28" height="3.91" transform="translate(-49.36 34.41) rotate(-15.37)"/><rect class="cls-7" x="73.65" y="179.65" width="133.85" height="3.91" transform="translate(-43.11 43.76) rotate(-15.37)"/><rect class="cls-8" x="83.35" y="90.98" width="51.28" height="3.91" transform="translate(-20.73 32.21) rotate(-15.37)"/><rect class="cls-8" x="85.09" y="95.21" width="82.57" height="3.91" transform="translate(-21.23 36.97) rotate(-15.37)"/><rect class="cls-9" x="103.79" y="106.1" width="51.28" height="4.34" rx="1.84" ry="1.84" transform="translate(-24.07 38.18) rotate(-15.37)"/><circle class="cls-7" cx="53.5" cy="200.13" r="9.13"/><rect class="cls-5" x="83.08" y="219.5" width="51.28" height="3.91" transform="translate(-54.81 36.74) rotate(-15.37)"/><rect class="cls-6" x="87.22" y="234.59" width="51.28" height="3.91" transform="translate(-58.66 38.37) rotate(-15.37)"/><rect class="cls-10" x="83.67" y="216.11" width="133.85" height="3.91" transform="translate(-52.41 47.72) rotate(-15.37)"/><circle class="cls-10" cx="63.52" cy="236.59" r="9.13"/><rect class="cls-5" x="93.1" y="255.96" width="51.28" height="3.91" transform="translate(-64.11 40.7) rotate(-15.37)"/><rect class="cls-6" x="97.25" y="271.04" width="51.28" height="3.91" transform="translate(-67.96 42.34) rotate(-15.37)"/><rect class="cls-10" x="93.69" y="252.56" width="133.85" height="3.91" transform="translate(-61.71 51.68) rotate(-15.37)"/><circle class="cls-10" cx="73.55" cy="273.05" r="9.13" transform="translate(-69.74 29.26) rotate(-15.37)"/><path class="cls-11" d="M23.35,125.1A25.16,25.16,0,1,0,49.17,93l18.38,15.25c1.29,4.52-4.56,23.64-9.08,25L27.08,128c-4.52,1.29,7-20.35,5.66-24.87l0-5.4A25.18,25.18,0,0,0,23.35,125.1Z"/><polygon class="cls-12" points="379.55 425.06 316.81 425.06 316.81 170.07 433.97 170.07 379.55 425.06"/><polygon class="cls-5" points="376.42 425.06 314.92 425.06 314.92 170.07 429.77 170.07 376.42 425.06"/><rect class="cls-13" x="211.48" y="100.28" width="193.56" height="254.48" transform="translate(-22.26 33.76) rotate(-6.05)"/><rect class="cls-14" x="202.93" y="100.48" width="194.01" height="97" transform="translate(-14.03 32.44) rotate(-6.05)"/><rect class="cls-6" x="213.85" y="102.26" width="188.61" height="248.56" transform="translate(-22.16 33.74) rotate(-6.05)"/><rect class="cls-15" x="205.5" y="102.45" width="189.04" height="94.74" transform="translate(-14.12 32.46) rotate(-6.05)"/><rect class="cls-5" x="253.45" y="226.56" width="51.28" height="3.91" transform="translate(-22.53 30.69) rotate(-6.05)"/><rect class="cls-6" x="255.1" y="242.12" width="51.28" height="3.91" transform="translate(-24.16 30.95) rotate(-6.05)"/><rect class="cls-7" x="254.04" y="229.99" width="133.85" height="3.91" transform="translate(-22.66 35.12) rotate(-6.05)"/><rect class="cls-8" x="278.52" y="137.38" width="51.28" height="3.91" transform="translate(-12.99 32.83) rotate(-6.05)"/><rect class="cls-8" x="279.34" y="144.37" width="82.57" height="3.91" transform="matrix(0.99, -0.11, 0.11, 0.99, -13.64, 34.61)"/><rect class="cls-9" x="296.2" y="155.6" width="51.28" height="4.34" rx="1.84" ry="1.84" transform="translate(-14.84 34.8) rotate(-6.05)"/><circle class="cls-7" cx="232.04" cy="236.13" r="9.13" transform="translate(-23.59 25.77) rotate(-6.05)"/><rect class="cls-5" x="257.44" y="264.16" width="51.28" height="3.91" transform="translate(-26.47 31.32) rotate(-6.05)"/><rect class="cls-6" x="259.08" y="279.71" width="51.28" height="3.91" transform="translate(-28.1 31.58) rotate(-6.05)"/><rect class="cls-10" x="258.03" y="267.59" width="133.85" height="3.91" transform="translate(-26.6 35.75) rotate(-6.05)"/><circle class="cls-10" cx="236.03" cy="273.72" r="9.13"/><rect class="cls-5" x="261.42" y="301.75" width="51.28" height="3.91" transform="translate(-30.41 31.95) rotate(-6.05)"/><rect class="cls-6" x="263.07" y="317.31" width="51.28" height="3.91" transform="translate(-32.04 32.21) rotate(-6.05)"/><rect class="cls-10" x="262.01" y="305.18" width="133.85" height="3.91" transform="translate(-30.54 36.38) rotate(-6.05)"/><circle class="cls-10" cx="240.01" cy="311.32" r="9.13"/><path class="cls-16" d="M214.42,157.22a25.16,25.16,0,1,0,30.68-27.44l.76,6.43a8.55,8.55,0,0,1-7.45,9.44h0a8.54,8.54,0,0,1-9.46-7.47l-.76-6.43A25.17,25.17,0,0,0,214.42,157.22Z"/><path class="cls-17" d="M264.2,149.29a25.16,25.16,0,1,0-31,27.1l-.69-6.44a8.56,8.56,0,0,1,7.58-9.38h0a8.54,8.54,0,0,1,9.37,7.58l.69,6.44A25.17,25.17,0,0,0,264.2,149.29Z"/><circle class="cls-18" cx="238.83" cy="148.5" r="9.67"/><path class="cls-18" d="M240.09,160.57h0a8.56,8.56,0,0,0-7.58,9.38l.69,6.44a25.24,25.24,0,0,0,17-1.78l-.69-6.45A8.54,8.54,0,0,0,240.09,160.57Z"/><path class="cls-18" d="M229.07,149a9.38,9.38,0,0,1-1.54-4.73,6.5,6.5,0,0,1,1.66-4.61,8.91,8.91,0,0,1,4.95-2.31,38.89,38.89,0,0,0,5.46-1,11.55,11.55,0,0,0,6.82-5.76,15.5,15.5,0,0,1,.41,4.24,5.19,5.19,0,0,1-1.82,3.73c1.39-.83,1.4.77,1.19,1.76.82.79,2.59.75,2.8,1.88a6.91,6.91,0,0,1,0,3.38c-.33,1.08.34,2.88-.78,3.07"/><path class="cls-8" d="M245.51,138.26s6.77-.12,3.05,10.34"/><rect class="cls-19" x="131.11" y="0.24" width="193.56" height="254.48"/><rect class="cls-20" x="130.88" width="194.01" height="97"/><rect class="cls-6" x="133.58" y="2.21" width="188.61" height="248.56"/><rect class="cls-21" x="133.37" y="1.98" width="189.04" height="94.74"/><rect class="cls-5" x="173.13" y="123.44" width="51.28" height="3.91"/><rect class="cls-6" x="173.13" y="139.08" width="51.28" height="3.91"/><rect class="cls-7" x="173.13" y="131.26" width="133.85" height="3.91"/><rect class="cls-8" x="207.46" y="37.4" width="51.28" height="3.91"/><rect class="cls-8" x="207.46" y="46.09" width="82.57" height="3.91"/><rect class="cls-9" x="223.11" y="57.39" width="51.28" height="4.34" rx="1.84" ry="1.84"/><circle class="cls-7" cx="151.19" cy="128" r="9.13"/><rect class="cls-5" x="173.13" y="161.24" width="51.28" height="3.91"/><rect class="cls-6" x="173.13" y="176.89" width="51.28" height="3.91"/><rect class="cls-10" x="173.13" y="169.07" width="133.85" height="3.91"/><circle class="cls-10" cx="151.19" cy="165.81" r="9.13"/><rect class="cls-5" x="173.13" y="199.06" width="51.28" height="3.91"/><rect class="cls-6" x="173.13" y="214.7" width="51.28" height="3.91"/><rect class="cls-10" x="173.13" y="206.88" width="133.85" height="3.91"/><circle class="cls-10" cx="151.19" cy="203.62" r="9.13"/><path class="cls-22" d="M142,47.69A25.16,25.16,0,1,0,175.4,23.6l7.7,7.74c.06,4.72,2.14,32.67-2.58,32.73l-25.09-.89c-4.7,0-6.18-18.71-6.25-23.41l9.16-15.94A25.17,25.17,0,0,0,142,47.69Z"/><polygon class="cls-23" points="113.43 181.35 71.07 151.7 12.43 151.7 12.43 181.35 12.43 195.88 12.43 444.04 378.94 444.04 378.94 181.35 113.43 181.35"/><polyline class="cls-8" points="15.57 184.35 15.57 198.46 15.57 439.34 376.42 439.34 376.42 184.35 115.01 184.35"/><polyline class="cls-5" points="115.01 184.35 73.31 155.57 15.57 155.57 15.57 184.35"/><rect class="cls-24" x="96.62" y="221.98" width="198.77" height="179.72"/><rect class="cls-8" x="99.32" y="223.29" width="194.26" height="175.15"/><rect class="cls-5" x="159.61" y="354.38" width="76.38" height="6.25"/><rect class="cls-10" x="113" y="366.9" width="166.89" height="6.25"/><rect class="cls-10" x="113" y="379.41" width="166.89" height="6.25"/><path class="cls-25" d="M148.92,290.26A47.51,47.51,0,1,0,212,244.77l.15,12.25a16.14,16.14,0,0,1-15.89,16.28h0A16.14,16.14,0,0,1,180,257.41l-.15-12.24A47.52,47.52,0,0,0,148.92,290.26Z"/><path class="cls-5" d="M244,285.27A47.52,47.52,0,1,0,180.36,330V317.74a16.13,16.13,0,0,1,16.07-16.07h0a16.13,16.13,0,0,1,16.06,16.07V330A47.53,47.53,0,0,0,244,285.27Z"/><rect class="cls-18" x="192.33" y="290.42" width="5.71" height="20.14" rx="2.86" ry="2.86"/><circle class="cls-18" cx="195.22" cy="274.86" r="18.26"/><path class="cls-18" d="M195.19,297.78h0a16.14,16.14,0,0,0-16.07,16.07v12.24a47.67,47.67,0,0,0,32.18,0V313.87A16.13,16.13,0,0,0,195.19,297.78Z"/><path class="cls-18" d="M176.8,273.85a17.74,17.74,0,0,1-2-9.19,12.29,12.29,0,0,1,4.05-8.33c2.66-2.27,6.27-3.07,9.75-3.35s7-.11,10.45-.78A21.84,21.84,0,0,0,213,242.74a29.64,29.64,0,0,1-.07,8,9.92,9.92,0,0,1-4.17,6.64c2.77-1.28,2.47,1.73,1.87,3.53,1.37,1.66,4.71,1.93,4.88,4.08a13.37,13.37,0,0,1-.69,6.35c-.84,2,.06,5.47-2.09,5.63"/><path class="cls-8" d="M209.81,257s12.74,1.11,3.67,20"/><g id="Icon_-_White" data-name="Icon - White"><path class="cls-8" d="M163.08,30a8.58,8.58,0,1,0,8.57,8.58A8.58,8.58,0,0,0,163.08,30Z"/><path class="cls-8" d="M167.17,19.89a25.17,25.17,0,1,0,25.17,25.17A25.17,25.17,0,0,0,167.17,19.89ZM152.81,53.18l0-5.1,5.62,5.62,2.78,2.63A19.41,19.41,0,0,1,152.81,53.18Zm25.9,7.93H167.18L152.81,46.74h0V38.53a10.24,10.24,0,0,1,9.81-10.23H178.5a18.54,18.54,0,0,1-6.29,26.24v0Z"/></g><g id="Icon_-_White-2" data-name="Icon - White"><path class="cls-8" d="M57.07,93a25.13,25.13,0,1,0,13.31,13.9A25.08,25.08,0,0,0,57.07,93Zm-5,38.31-23.93-6.53,7.16-11.36,11,3Zm-6.55-16.82-12-3.27,6.6-10.48Zm-3.8-14.36,12,3.27-6.61,10.48Zm11.9,30.58-5.8-14.9,6.06-9.62,13,3.53Z"/></g></g></g></svg>