<svg xmlns="http://www.w3.org/2000/svg" viewBox="0 0 100 100"><defs><style>.cls-1{fill:#0a3254;}.cls-2{fill:#fff;}.cls-3{fill:#f05133;}</style></defs><title>strengthen-business-icon</title><g id="Layer_2" data-name="Layer 2"><g id="Layer_1-2" data-name="Layer 1"><circle class="cls-1" cx="50" cy="50" r="50"/><path class="cls-2" d="M53.85,35.35V69.28h2.42V37.77H69.14V69.28h2.42V35.35Zm7.47,6.19H57.77v3.58h3.55Zm-3.55,9.3h3.55V47.25H57.77Zm0,5.71h3.55V53H57.77Zm0,5.72h3.55V58.68H57.77Zm2.69,7H65v-5H60.46Zm3.63-7h3.55V58.68H64.09Zm0-5.72h3.55V53H64.09Zm0-5.71h3.55V47.25H64.09Zm0-5.72h3.55V41.54H64.09Z"/><path class="cls-2" d="M36.94,63.1h6v6.35h7.2V26.25H29.73v43.2h7.21ZM41.8,32.87h4.73V37.6H41.8Zm0,7.54h4.73v4.74H41.8Zm0,7.55h4.73v4.73H41.8Zm0,7.54h4.73v4.74H41.8ZM33.36,32.87h4.73V37.6H33.36Zm0,7.54h4.73v4.74H33.36Zm0,7.55h4.73v4.73H33.36Zm0,7.54h4.73v4.74H33.36ZM26.25,71.33v2.42h47.5V71.33Z"/><circle class="cls-2" cx="82.36" cy="87.5" r="10"/><circle class="cls-3" cx="82.36" cy="87.5" r="7.5"/><path class="cls-2" d="M87,86a.44.44,0,0,1-.14.27l-2,2L85.31,91s0,.06,0,.11a.32.32,0,0,1-.06.2.19.19,0,0,1-.17.08.53.53,0,0,1-.23-.06l-2.5-1.32-2.51,1.32a.49.49,0,0,1-.22.06.19.19,0,0,1-.18-.08.39.39,0,0,1,0-.2.54.54,0,0,1,0-.11l.48-2.79-2-2a.39.39,0,0,1-.14-.27c0-.14.1-.23.31-.26l2.8-.41,1.26-2.53c.07-.16.16-.23.27-.23s.2.07.27.23l1.26,2.53,2.8.41C86.9,85.78,87,85.87,87,86Z"/></g></g></svg>