<svg xmlns="http://www.w3.org/2000/svg" xmlns:xlink="http://www.w3.org/1999/xlink" viewBox="0 0 451.47 368.3"><defs><style>.cls-1{opacity:0.5;}.cls-2{fill:url(#linear-gradient);}.cls-3{fill:#f5f5f5;}.cls-4{fill:#7ea6d7;}.cls-5{fill:#e1eaf5;}.cls-6{fill:#e0e0e0;}.cls-7{fill:url(#linear-gradient-2);}.cls-8{fill:#fff;}.cls-10,.cls-19,.cls-9{fill:none;stroke-miterlimit:10;}.cls-9{stroke:#3f3f42;stroke-dasharray:10 10;}.cls-10{stroke:#535461;}.cls-11{fill:url(#linear-gradient-3);}.cls-12{fill:#fdd835;}.cls-13{fill:#0a3254;}.cls-14{opacity:0.1;isolation:isolate;}.cls-15{fill:#fdb797;}.cls-16{fill:url(#linear-gradient-4);}.cls-17{fill:#333;}.cls-18{fill:#3f3f42;}.cls-19{stroke:#fff;stroke-linecap:round;stroke-width:4px;}</style><linearGradient id="linear-gradient" x1="121.96" y1="-2518.07" x2="121.96" y2="-2293.02" gradientTransform="matrix(1, 0, 0, -1, 0, -2282.87)" gradientUnits="userSpaceOnUse"><stop offset="0" stop-color="gray" stop-opacity="0.25"/><stop offset="0.54" stop-color="gray" stop-opacity="0.12"/><stop offset="1" stop-color="gray" stop-opacity="0.1"/></linearGradient><linearGradient id="linear-gradient-2" x1="158.77" y1="-2570.07" x2="158.77" y2="-2345.03" xlink:href="#linear-gradient"/><linearGradient id="linear-gradient-3" x1="382.49" y1="-2651.17" x2="382.49" y2="-2515.74" xlink:href="#linear-gradient"/><linearGradient id="linear-gradient-4" x1="383.76" y1="-2418.3" x2="383.76" y2="-2282.87" xlink:href="#linear-gradient"/></defs><title>collaborative-document-redaction-illustration</title><g id="Layer_2" data-name="Layer 2"><g id="Layer_1-2" data-name="Layer 1"><g class="cls-1"><rect class="cls-2" y="10.15" width="243.91" height="225.04" rx="2.36" ry="2.36"/></g><rect class="cls-3" x="2.97" y="11.89" width="238.29" height="219.59" rx="2.36" ry="2.36"/><rect class="cls-4" x="21.34" y="48.06" width="40.19" height="36.17" rx="2.36" ry="2.36"/><path class="cls-5" d="M48.56,62.47a6.55,6.55,0,0,0-9.26-9.26l-9.59,9.58A6.55,6.55,0,0,0,39,72.06ZM30.67,63.75l9.58-9.58a5.2,5.2,0,0,1,7.35,7.35l-4.14,4.14-6-6L36,61.16l-3.3,3.29c-2.13,2.34-2.57,5.5-1,7.39a5.16,5.16,0,0,1-.95-8.09Z"/><path class="cls-5" d="M49.53,63.38l-5.11,5.11,5.42,5.42A7.67,7.67,0,0,0,49.53,63.38Z"/><path class="cls-5" d="M38.67,74.25a7.67,7.67,0,0,0,10.53.3l-5.42-5.42Z"/><rect class="cls-6" x="73.58" y="48.06" width="159.75" height="4.02" rx="1.8" ry="1.8"/><rect class="cls-6" x="73.58" y="60.12" width="159.75" height="4.02" rx="1.8" ry="1.8"/><rect class="cls-6" x="17.32" y="103.88" width="216.01" height="4.02" rx="1.8" ry="1.8"/><rect class="cls-6" x="17.32" y="115.93" width="216.01" height="4.02" rx="1.8" ry="1.8"/><rect class="cls-6" x="17.32" y="132.01" width="216.01" height="4.02" rx="1.8" ry="1.8"/><rect class="cls-6" x="17.32" y="144.06" width="124.58" height="4.02" rx="1.8" ry="1.8"/><rect class="cls-6" x="17.32" y="160.1" width="216.01" height="4.02" rx="1.8" ry="1.8"/><rect class="cls-6" x="17.32" y="172.16" width="216.01" height="4.02" rx="1.8" ry="1.8"/><rect class="cls-6" x="17.32" y="188.23" width="216.01" height="4.02" rx="1.8" ry="1.8"/><rect class="cls-6" x="17.32" y="200.29" width="124.58" height="4.02" rx="1.8" ry="1.8"/><g class="cls-1"><rect class="cls-7" x="36.81" y="62.15" width="243.91" height="225.04" rx="2.36" ry="2.36"/></g><rect class="cls-8" x="39.79" y="63.9" width="238.29" height="219.59" rx="2.36" ry="2.36"/><rect class="cls-4" x="58.15" y="100.07" width="40.19" height="36.17" rx="2.36" ry="2.36"/><rect class="cls-6" x="110.4" y="100.07" width="159.75" height="4.02" rx="1.8" ry="1.8"/><rect class="cls-6" x="110.4" y="112.12" width="159.75" height="4.02" rx="1.8" ry="1.8"/><rect class="cls-6" x="54.13" y="212.1" width="216.01" height="4.02" rx="1.8" ry="1.8"/><rect class="cls-6" x="54.13" y="224.16" width="216.01" height="4.02" rx="1.8" ry="1.8"/><rect class="cls-6" x="54.13" y="240.23" width="216.01" height="4.02" rx="1.8" ry="1.8"/><rect class="cls-6" x="54.13" y="252.29" width="124.58" height="4.02" rx="1.8" ry="1.8"/><line class="cls-9" x1="277.8" y1="148.25" x2="371.57" y2="58.98"/><line class="cls-10" x1="373.97" y1="56.71" x2="376.25" y2="54.55"/><line class="cls-9" x1="278.77" y1="220.61" x2="373.64" y2="306.8"/><line class="cls-10" x1="376.06" y1="308.97" x2="378.4" y2="311.07"/><g class="cls-1"><circle class="cls-11" cx="382.49" cy="300.58" r="67.72"/></g><circle class="cls-3" cx="382.49" cy="300.21" r="66.29"/><path class="cls-12" d="M419.16,306.18c0,24.42-15.94,51.59-35.58,51.59S348,330.59,348,306.18s15.93-36.8,35.58-36.8S419.16,281.77,419.16,306.18Z"/><path class="cls-13" d="M382.68,366.7a66,66,0,0,0,36.44-10.91c-2.44-13.35-11.74-14.11-11.74-14.11H356.15s-8.77.73-11.52,13A65.94,65.94,0,0,0,382.68,366.7Z"/><path class="cls-14" d="M371.66,325.4h20.5v17.46a9.2,9.2,0,0,1-9.19,9.19h-2.13a9.19,9.19,0,0,1-9.18-9.19V325.4Z"/><path class="cls-15" d="M373.43,324.64h17a1.75,1.75,0,0,1,1.75,1.75v15.72a9.18,9.18,0,0,1-9.18,9.18h-2.13a9.19,9.19,0,0,1-9.19-9.18V326.39A1.76,1.76,0,0,1,373.43,324.64Z"/><path class="cls-14" d="M371.69,333.15a29.51,29.51,0,0,0,20.5.05v-2.52h-20.5Z"/><circle class="cls-15" cx="381.99" cy="305.13" r="29.38"/><ellipse class="cls-15" cx="353.21" cy="303.88" rx="2.73" ry="5.13"/><ellipse class="cls-15" cx="410.61" cy="303.88" rx="2.73" ry="5.13"/><path class="cls-14" d="M355.94,289.19s16.64,22.75,54.72,15c0,0,4.25-5.18-6.11-21.07S365.37,269.79,355.94,289.19Z"/><path class="cls-12" d="M355.94,288.83s16.64,22.73,54.72,15c0,0,4.25-5.17-6.11-21.07S365.37,269.42,355.94,288.83Z"/><g class="cls-1"><circle class="cls-16" cx="383.76" cy="67.72" r="67.72"/></g><circle class="cls-3" cx="383.89" cy="67.28" r="66.29"/><path class="cls-13" d="M383.94,133.83a65.92,65.92,0,0,0,36.44-10.91c-2.44-13.35-11.74-14.11-11.74-14.11H357.39s-8.77.73-11.52,13A66,66,0,0,0,383.94,133.83Z"/><circle class="cls-17" cx="383.25" cy="65.88" r="32"/><path class="cls-14" d="M372.91,92.53h20.5V110a9.18,9.18,0,0,1-9.19,9.18H382.1a9.18,9.18,0,0,1-9.19-9.18h0V92.53Z"/><path class="cls-15" d="M374.67,91.77h17a1.75,1.75,0,0,1,1.75,1.76v15.71a9.18,9.18,0,0,1-9.18,9.18h-2.13a9.18,9.18,0,0,1-9.2-9.17h0V93.53a1.75,1.75,0,0,1,1.75-1.76Z"/><path class="cls-14" d="M373,100.28a29.45,29.45,0,0,0,20.5,0V97.82H373Z"/><circle class="cls-15" cx="383.25" cy="72.26" r="29.38"/><path class="cls-14" d="M362.32,45.53s12.38,25.14,47.31,10.54L401.5,43.32l-14.42-5.18Z"/><path class="cls-17" d="M362.32,45.17s12.38,25.14,47.31,10.54L401.5,43l-14.42-5.18Z"/><path class="cls-17" d="M362.21,43.47a16.86,16.86,0,0,1,4.19-6.85c5.76-5.71,15.26-6.92,20.12-13.43a3.81,3.81,0,0,1-1.41,5.19l-.34.17c4.65,0,10.05-.44,12.69-4.27A8.7,8.7,0,0,1,396,33.47c4.13.19,8.53,3,8.8,7.12.18,2.74-1.55,5.34-3.8,6.92a21,21,0,0,1-7.68,2.89C385.48,52.13,357.09,59.39,362.21,43.47Z"/><ellipse class="cls-15" cx="353.85" cy="72.24" rx="2.73" ry="5.13"/><ellipse class="cls-15" cx="412.63" cy="72.24" rx="2.73" ry="5.13"/><rect class="cls-18" x="54.13" y="157.68" width="216.01" height="40.6" rx="3" ry="3"/><line class="cls-19" x1="59.13" y1="193.29" x2="265.15" y2="162.68"/><line class="cls-19" x1="265.15" y1="193.29" x2="59.13" y2="162.68"/><path class="cls-5" d="M87,116.73a6.55,6.55,0,0,0-9.26-9.26l-9.58,9.58a6.55,6.55,0,1,0,9.26,9.26ZM69.13,118l9.58-9.58a5.19,5.19,0,0,1,7.35,7.34l-4.15,4.15-6-6-1.52,1.51-3.3,3.3c-2.14,2.33-2.57,5.49-1,7.39a5.19,5.19,0,0,1-1-8.09Z"/><path class="cls-5" d="M88,117.63l-5.12,5.12,5.42,5.42A7.69,7.69,0,0,0,88,117.63Z"/><path class="cls-5" d="M77.12,128.5a7.67,7.67,0,0,0,10.53.31l-5.41-5.42Z"/></g></g></svg>