<svg xmlns="http://www.w3.org/2000/svg" viewBox="0 0 36 36"><defs><style>.cls-1{fill:#fff;}.cls-2{fill:#0a3254;}</style></defs><title>document-redaction-icon</title><g id="Layer_2" data-name="Layer 2"><g id="Layer_1-2" data-name="Layer 1"><circle class="cls-1" cx="18" cy="18" r="18"/><path class="cls-2" d="M26.72,14.7a20.5,20.5,0,0,0-4-4,3.43,3.43,0,0,0-1.95-.91H12.84a1.73,1.73,0,0,0-1.72,1.72V27.31A1.72,1.72,0,0,0,12.84,29H25.91a1.72,1.72,0,0,0,1.72-1.71V16.65A3.43,3.43,0,0,0,26.72,14.7ZM22.13,12a19,19,0,0,1,1.74,1.56c.33.33.63.64.89.93s.48.57.67.81h-3.3Zm4.12,15.34a.35.35,0,0,1-.34.34H12.84a.35.35,0,0,1-.34-.34V11.49a.35.35,0,0,1,.34-.34h7.91V16a.69.69,0,0,0,.69.69h4.81Z"/><path class="cls-2" d="M20,7.93h0A3.43,3.43,0,0,0,18,7H10.09A1.73,1.73,0,0,0,8.37,8.74V24.56a1.73,1.73,0,0,0,1.38,1.68V8.74a.35.35,0,0,1,.34-.34H20.55C20.35,8.23,20.15,8.07,20,7.93Z"/><path class="cls-2" d="M23.35,26a.69.69,0,0,1-.54.25.7.7,0,0,1-.43-.15l-3-2.4-3,2.4a.7.7,0,0,1-.43.15.68.68,0,0,1-.43-1.22l2.76-2.21-2.76-2.22a.67.67,0,0,1-.11-1,.69.69,0,0,1,1-.11l3,2.41,3-2.41a.69.69,0,0,1,1,.11.67.67,0,0,1-.11,1l-2.76,2.22,2.76,2.21A.69.69,0,0,1,23.35,26Z"/></g></g></svg>