<?xml version="1.0" encoding="utf-8"?>
<!-- Generator: Adobe Illustrator 21.0.2, SVG Export Plug-In . SVG Version: 6.00 Build 0)  -->
<svg version="1.1" id="Layer_1" xmlns="http://www.w3.org/2000/svg" xmlns:xlink="http://www.w3.org/1999/xlink" x="0px" y="0px"
	 viewBox="0 0 90 90" style="enable-background:new 0 0 90 90;" xml:space="preserve">
<style type="text/css">
	.st0{fill:none;}
	.st1{fill:#0A3254;}
	.st2{fill:#F05133;}
</style>
<g>
	<path class="st0" d="M85.3,22.1c0.3-1.2-0.5-2.5-1.7-2.8L23.3,4.7c-0.6-0.1-1.2,0-1.8,0.3c-0.5,0.3-0.9,0.8-1,1.4l-1.2,4.9
		l64.8,15.7L85.3,22.1z"/>
	<path class="st0" d="M70,40.4H7c-1.3,0-2.4,1.1-2.4,2.5V83c0,1.4,1.1,2.5,2.4,2.5h63c1.3,0,2.4-1.1,2.4-2.5V42.8
		C72.4,41.5,71.4,40.4,70,40.4z M12,80.7c-0.7,0-1.3-0.6-1.3-1.3c0-0.7,0.6-1.3,1.3-1.3c0.7,0,1.3,0.6,1.3,1.3
		C13.3,80.1,12.7,80.7,12,80.7z M10.6,70.6c0-1.5,1.2-2.7,2.6-2.7c1.5,0,2.6,1.2,2.6,2.7c0,1.5-1.2,2.7-2.6,2.7
		C11.8,73.3,10.6,72.1,10.6,70.6z M16.2,80.7c-0.7,0-1.3-0.6-1.3-1.3c0-0.7,0.6-1.3,1.3-1.3s1.3,0.6,1.3,1.3
		C17.5,80.1,16.9,80.7,16.2,80.7z M20.4,80.7c-0.7,0-1.3-0.6-1.3-1.3c0-0.7,0.6-1.3,1.3-1.3s1.3,0.6,1.3,1.3
		C21.7,80.1,21.1,80.7,20.4,80.7z M19.1,70.6c0-1.5,1.2-2.7,2.6-2.7c1.5,0,2.6,1.2,2.6,2.7c0,1.5-1.2,2.7-2.6,2.7
		C20.3,73.3,19.1,72.1,19.1,70.6z M24.5,80.7c-0.7,0-1.3-0.6-1.3-1.3c0-0.7,0.6-1.3,1.3-1.3c0.7,0,1.3,0.6,1.3,1.3
		C25.9,80.1,25.3,80.7,24.5,80.7z M28.7,80.7c-0.7,0-1.3-0.6-1.3-1.3c0-0.7,0.6-1.3,1.3-1.3s1.3,0.6,1.3,1.3
		C30.1,80.1,29.5,80.7,28.7,80.7z M32.9,80.7c-0.7,0-1.3-0.6-1.3-1.3c0-0.7,0.6-1.3,1.3-1.3c0.7,0,1.3,0.6,1.3,1.3
		C34.3,80.1,33.7,80.7,32.9,80.7z M31.6,70.6c0-1.5,1.2-2.7,2.6-2.7c1.5,0,2.6,1.2,2.6,2.7c0,1.5-1.2,2.7-2.6,2.7
		C32.8,73.3,31.6,72.1,31.6,70.6z M37.1,80.7c-0.7,0-1.3-0.6-1.3-1.3c0-0.7,0.6-1.3,1.3-1.3c0.7,0,1.3,0.6,1.3,1.3
		C38.5,80.1,37.9,80.7,37.1,80.7z M42.7,73.3c-1.5,0-2.6-1.2-2.6-2.7c0-1.5,1.2-2.7,2.6-2.7c1.5,0,2.6,1.2,2.6,2.7
		C45.4,72.1,44.2,73.3,42.7,73.3z M55.3,73.3c-1.5,0-2.6-1.2-2.6-2.7c0-1.5,1.2-2.7,2.6-2.7c1.5,0,2.6,1.2,2.6,2.7
		C57.9,72.1,56.7,73.3,55.3,73.3z M63.7,73.3c-1.5,0-2.6-1.2-2.6-2.7c0-1.5,1.2-2.7,2.6-2.7c1.5,0,2.6,1.2,2.6,2.7
		C66.4,72.1,65.2,73.3,63.7,73.3z"/>
	<ellipse class="st1" cx="28.7" cy="79.3" rx="1.3" ry="1.3"/>
	<ellipse class="st1" cx="21.7" cy="70.6" rx="2.6" ry="2.7"/>
	<ellipse class="st1" cx="24.5" cy="79.3" rx="1.3" ry="1.3"/>
	<ellipse class="st1" cx="20.4" cy="79.3" rx="1.3" ry="1.3"/>
	<ellipse class="st1" cx="12" cy="79.3" rx="1.3" ry="1.3"/>
	<ellipse class="st1" cx="16.2" cy="79.3" rx="1.3" ry="1.3"/>
	<ellipse class="st1" cx="13.3" cy="70.6" rx="2.6" ry="2.7"/>
	<path class="st1" d="M84.7,14.8L24.4,0.2c-1.8-0.4-3.7-0.1-5.2,0.8c-1.6,1-2.7,2.5-3.1,4.3L9.8,31c-0.3,1.2,0.5,2.5,1.7,2.8
		c1.2,0.3,2.5-0.5,2.8-1.7L17.5,19l1.9-7.8l1.2-4.9c0.1-0.6,0.5-1.1,1-1.4c0.5-0.3,1.2-0.4,1.8-0.3l60.3,14.6c1.3,0.3,2,1.6,1.7,2.8
		l-1.2,4.9l-1.9,7.8L77,56.4v9.2c1.8-0.9,3.1-2.5,3.6-4.5l9.2-38C90.7,19.4,88.4,15.7,84.7,14.8z"/>
	<rect x="46.8" y="-10.3" transform="matrix(0.2352 -0.9719 0.9719 0.2352 16.5151 66.9727)" class="st2" width="8" height="66.7"/>
	<ellipse class="st1" cx="55.3" cy="70.6" rx="2.6" ry="2.7"/>
	<ellipse class="st1" cx="63.7" cy="70.6" rx="2.6" ry="2.7"/>
	<path class="st1" d="M77,42.8c0-3.9-3.1-7-7-7H7c-3.9,0-7,3.2-7,7V83c0,3.9,3.1,7,7,7h63c3.9,0,7-3.2,7-7V69.8v-4.1v-9.2V42.8z
		 M72.4,83c0,1.4-1.1,2.5-2.4,2.5H7c-1.3,0-2.4-1.1-2.4-2.5V42.8c0-1.4,1.1-2.5,2.4-2.5h63c1.3,0,2.4,1.1,2.4,2.5V83z"/>
	<ellipse class="st1" cx="34.3" cy="70.6" rx="2.6" ry="2.7"/>
	<ellipse class="st1" cx="42.7" cy="70.6" rx="2.6" ry="2.7"/>
	<ellipse class="st1" cx="32.9" cy="79.3" rx="1.3" ry="1.3"/>
	<ellipse class="st1" cx="37.1" cy="79.3" rx="1.3" ry="1.3"/>
</g>
</svg>
