<?xml version="1.0" encoding="utf-8"?>
<!-- Generator: Adobe Illustrator 21.0.2, SVG Export Plug-In . SVG Version: 6.00 Build 0)  -->
<svg version="1.1" id="Layer_1" xmlns="http://www.w3.org/2000/svg" xmlns:xlink="http://www.w3.org/1999/xlink" x="0px" y="0px"
	 viewBox="0 0 90 90" style="enable-background:new 0 0 90 90;" xml:space="preserve">
<style type="text/css">
	.st0{fill:#F05133;}
	.st1{fill:#0A3254;}
</style>
<g>
	<g>
		<path class="st0" d="M25.9,63.3c-2.3,3.1-6,5-9.9,5c-6.8,0-12.3-5.5-12.3-12.3c0-6.8,5.5-12.3,12.3-12.3c1,0,2.1,0.1,3,0.4l2.5-3
			c-1.7-0.6-3.6-1-5.6-1c-8.8,0-16,7.1-16,15.9C0,64.9,7.2,72,16,72c5.9,0,11.4-3.4,14.1-8.5L25.9,63.3z"/>
		<path class="st0" d="M74,40.2c-0.5,0-1.1,0-1.6,0.1l1.5,3.6c0,0,0.1,0,0.1,0c6.8,0,12.3,5.5,12.3,12.3c0,6.8-5.5,12.3-12.3,12.3
			c-6.8,0-12.3-5.5-12.3-12.3c0-3.4,1.4-6.5,3.6-8.7l-1.5-3.6c-3.5,2.9-5.8,7.3-5.8,12.3C58,64.9,65.2,72,74,72
			c8.8,0,16-7.1,16-15.9C90,47.3,82.8,40.2,74,40.2z"/>
	</g>
	<path class="st1" d="M74.4,52.3l-8.7-20.9h2.7c3.7,0,6.7-3,6.7-6.7c0-3.7-3-6.7-6.7-6.7H56.3c-1,0-1.8,0.8-1.8,1.8
		c0,1,0.8,1.8,1.8,1.8h12.1c1.7,0,3.1,1.4,3.1,3s-1.4,3-3.1,3H63c-0.6,0-1.2,0.3-1.5,0.8c-0.3,0.5-0.4,1.2-0.2,1.7l1.3,3.2H34.8
		v-3.5c3.2-0.6,6.5-1.2,7.2-1.5c0.6-0.3,1-0.7,1-1.5c0-1.2-1.2-1.5-1.2-1.5C39.1,25,27,23.6,27,23.6s-2.4-0.6-2.4,4.1
		c0,4,3.5,3.3,3.5,3.3s1.3-0.2,3.1-0.5v3.6L16.1,52c-2.2,0.4-3.9,1.7-3.9,4.2c0,3,2.5,4.3,5.5,4.3l29.4,1.2c3,0,5.5-2.5,5.5-5.5
		c0-0.6-0.1-1.2-0.3-1.7l12.4-15.6L71,53.7c-0.5,0.6-0.8,1.5-0.8,2.3c0,2.1,1.7,3.8,3.8,3.8c2.1,0,3.8-1.7,3.8-3.8
		C77.9,54.1,76.3,52.5,74.4,52.3z M31.1,51.3l-10,0.4l10-11.9V51.3z M47.2,58.3c-1.1,0-2.1-1-2.1-2.2c0-1.2,0.9-2.2,2.1-2.2
		c1.1,0,2.1,1,2.1,2.2C49.3,57.4,48.4,58.3,47.2,58.3z M50.1,51.5c-0.8-0.5-1.8-0.8-2.9-0.8l-12.4,0.5V37.1h26.7L50.1,51.5z"/>
</g>
</svg>
