<?xml version="1.0" encoding="utf-8"?>
<!-- Generator: Adobe Illustrator 21.0.2, SVG Export Plug-In . SVG Version: 6.00 Build 0)  -->
<svg version="1.1" id="Layer_1" xmlns="http://www.w3.org/2000/svg" xmlns:xlink="http://www.w3.org/1999/xlink" x="0px" y="0px"
	 viewBox="0 0 90 90" style="enable-background:new 0 0 90 90;" xml:space="preserve">
<style type="text/css">
	.st0{fill:#F05133;}
	.st1{fill:#0A3254;}
</style>
<g>
	<path class="st0" d="M49,12.5c0,0-1.4-4.9-4.2-4.9s-3.9,5-3.9,5S44.7,6.4,49,12.5z"/>
	<polygon class="st0" points="55.3,50.7 81.1,66.4 81.1,70.5 55.3,59.6 	"/>
	<path class="st1" d="M45,69.4c-1,0-1.8,0.8-1.8,1.7v16.1c0,1,0.8,1.7,1.8,1.7s1.8-0.8,1.8-1.7V71.1C46.8,70.2,46,69.4,45,69.4z
		 M89.3,68.2L85,61l-0.2-0.3c-0.3-0.3-0.6-0.5-0.9-0.7l-6.1-4.8v-5.4c0-1.4-1.2-2.6-2.6-2.6c-1.4,0-2.6,1.1-2.6,2.6v1.4l-6.2-4.8
		v-5.2c0-1.4-1.2-2.6-2.6-2.6c-1.4,0-2.6,1.1-2.6,2.6v1.1l-7.6-6L54,12.4C54,6.6,49.7,1,45.3,1h-0.5C40.7,1,36,6,36,12.4l0.3,23.8
		l-7.6,6v-1.1c0-1.4-1.2-2.6-2.6-2.6c-1.4,0-2.6,1.1-2.6,2.6v5.2l-6.2,4.8v-1.4c0-1.4-1.2-2.6-2.6-2.6c-1.4,0-2.6,1.1-2.6,2.6v5.4
		L6.1,60c-0.3,0.2-0.7,0.4-0.9,0.7l-4.5,7.5c-0.7,0.9-0.9,2.1-0.4,3.2c0.5,1.1,1.6,1.8,2.9,1.8h0.4l2.7-1.2v-3.8l-2,0.9l3.6-6.1
		l0.1,0l28.5-22.4l0.4,31.8l-9.4,6.9c-1.1,0.8-1.5,2.2-1.1,3.5c0.4,1.3,1.6,2.1,3,2.1h9.1c1,0,1.8-0.8,1.8-1.7s-0.8-1.7-1.8-1.7h-8
		l6.4-4.7l0,1.2c0,1,0.8,1.7,1.8,1.7c1,0,1.8-0.8,1.7-1.8l-0.9-65.5c0-4.6,3.4-7.9,5.3-7.9h0.5c2,0,5.2,3.6,5.2,7.9l-0.9,65.5
		c0,1,0.8,1.8,1.7,1.8h0c1,0,1.8-0.8,1.8-1.7l0-1.2l6.4,4.7h-8c-1,0-1.8,0.8-1.8,1.7s0.8,1.7,1.8,1.7h9.1c1.4,0,2.6-0.9,3-2.1
		c0.4-1.3,0-2.7-1.1-3.5l-9.4-6.9l0.4-31.8L82.1,63l0.1,0l3.6,6.1l-2-0.9v3.8l2.7,1.2h0.4c1.2,0,2.4-0.7,2.9-1.8
		C90.2,70.3,90,69.1,89.3,68.2z"/>
	<polygon class="st0" points="34.7,50.7 8.9,66.4 8.9,70.5 34.7,59.6 	"/>
</g>
</svg>
