<?xml version="1.0" encoding="utf-8"?>
<!-- Generator: Adobe Illustrator 21.0.2, SVG Export Plug-In . SVG Version: 6.00 Build 0)  -->
<svg version="1.1" id="Layer_1" xmlns="http://www.w3.org/2000/svg" xmlns:xlink="http://www.w3.org/1999/xlink" x="0px" y="0px"
	 viewBox="0 0 90 90" style="enable-background:new 0 0 90 90;" xml:space="preserve">
<style type="text/css">
	.st0{fill:#0A3254;}
	.st1{fill:#F05133;}
</style>
<g>
	<polygon class="st0" points="78.5,80.5 78.5,77 75.8,77 75.8,80.5 58.9,80.5 58.9,77 56.2,77 56.2,80.5 39.3,80.5 39.3,77 36.6,77 
		36.6,80.5 19.8,80.5 19.8,77 17,77 17,80.5 4.6,80.5 4.6,68.2 8.8,68.2 8.8,65.5 4.6,65.5 4.6,47.8 8.8,47.8 8.8,45.1 4.6,45.1 
		4.6,27.4 8.8,27.4 8.8,24.7 4.6,24.7 4.6,5 0,5 0,85 90,85 90,80.5 	"/>
	<path class="st1" d="M81,17.2c0-0.1,0-0.2-0.1-0.3c-0.1-0.1-0.2-0.1-0.3-0.1l-9,1.6c-0.1,0-0.2,0.1-0.3,0.3c0,0.1,0,0.3,0.1,0.3
		l2,1.6L75,22L59.2,40.9c-0.5-0.2-1-0.3-1.6-0.3c-1.6,0-2.9,0.9-3.6,2.1l-11.8-2.8c-0.1-2.1-1.9-3.8-4.1-3.8c-2.3,0-4.1,1.8-4.1,4.1
		c0,0.9,0.3,1.7,0.7,2.3L20,61.2c-0.5-0.2-1-0.3-1.6-0.3c-2.3,0-4.1,1.8-4.1,4.1c0,2.3,1.8,4.1,4.1,4.1c2.3,0,4.1-1.8,4.1-4.1
		c0-0.7-0.2-1.4-0.5-1.9l14.9-19c0.4,0.1,0.7,0.2,1.1,0.2c1.4,0,2.6-0.7,3.4-1.7l12.1,2.9c0.4,1.9,2,3.3,4,3.3
		c2.3,0,4.1-1.8,4.1-4.1c0-0.7-0.2-1.3-0.5-1.9l15.9-19l1.4,1.1l2,1.6c0.1,0.1,0.2,0.1,0.4,0c0.1,0,0.2-0.2,0.2-0.3L81,17.2z"/>
</g>
</svg>
