<?xml version="1.0" encoding="utf-8"?>
<!-- Generator: Adobe Illustrator 21.0.2, SVG Export Plug-In . SVG Version: 6.00 Build 0)  -->
<svg version="1.1" id="Layer_1" xmlns="http://www.w3.org/2000/svg" xmlns:xlink="http://www.w3.org/1999/xlink" x="0px" y="0px"
	 viewBox="0 0 90 90" style="enable-background:new 0 0 90 90;" xml:space="preserve">
<style type="text/css">
	.st0{fill:#F05133;}
	.st1{fill:#0A3254;}
</style>
<g>
	<g>
		<path class="st0" d="M47.7,6.9c2.4,0,4.4,2,4.4,4.4c0,1.2-0.5,2.2-1.2,3c-3.6,3.7-7,5.7-7.6,5.7c0,0,0,0,0,0l0,0
			c-0.5,0-3.9-2-7.6-5.7c-0.8-0.8-1.2-1.9-1.2-3c0-2.4,2-4.4,4.4-4.4c2.2,0,4,1,4.3,2.9c0,0.2,0,0.3,0.1,0.3s0-0.1,0.1-0.3
			C43.7,8,45.5,6.9,47.7,6.9 M47.7,3c-1.6,0-3.1,0.4-4.4,1c-1.3-0.7-2.8-1-4.4-1c-4.6,0-8.3,3.7-8.3,8.3c0,2.2,0.8,4.2,2.4,5.8
			c0.1,0.1,6.7,6.8,10.3,6.9v0l0,0l0,0c0,0,0,0,0,0h0l0,0c3.6-0.1,10.3-6.8,10.3-6.9c1.5-1.6,2.4-3.6,2.4-5.8C56,6.7,52.3,3,47.7,3
			L47.7,3z"/>
	</g>
	<g>
		<path class="st1" d="M30.7,87C13.8,87,0,73.3,0,56.5c0-16.8,13.8-30.5,30.7-30.5c1.5,0,3.1,0.1,4.6,0.3c1.1,0.2,1.8,1.2,1.7,2.2
			c-0.2,1.1-1.2,1.8-2.2,1.7c-1.3-0.2-2.7-0.3-4-0.3C15.9,29.8,4,41.8,4,56.5c0,14.7,12,26.6,26.7,26.6s26.7-11.9,26.7-26.6
			c0-5.9-1.9-11.5-5.5-16.1c-0.7-0.9-0.5-2.1,0.4-2.8c0.9-0.7,2.1-0.5,2.8,0.4c4.1,5.4,6.3,11.8,6.3,18.5C61.3,73.3,47.6,87,30.7,87
			z"/>
	</g>
	<g>
		<path class="st1" d="M59.3,87c-2,0-4.1-0.2-6.1-0.6c-1.1-0.2-1.8-1.3-1.5-2.3c0.2-1.1,1.3-1.8,2.3-1.5c1.7,0.3,3.5,0.5,5.3,0.5
			C74.1,83.1,86,71.1,86,56.5c0-14.7-12-26.6-26.7-26.6S32.6,41.8,32.6,56.5c0,5.7,1.8,11.1,5.1,15.7c0.6,0.9,0.4,2.1-0.4,2.8
			c-0.9,0.6-2.1,0.4-2.8-0.4c-3.8-5.2-5.9-11.5-5.9-18c0-16.8,13.8-30.5,30.7-30.5S90,39.6,90,56.5C90,73.3,76.2,87,59.3,87z"/>
	</g>
</g>
</svg>
