<?xml version="1.0" encoding="utf-8"?>
<!-- Generator: Adobe Illustrator 21.0.0, SVG Export Plug-In . SVG Version: 6.00 Build 0)  -->
<svg version="1.1" id="Layer_1" xmlns="http://www.w3.org/2000/svg" xmlns:xlink="http://www.w3.org/1999/xlink" x="0px" y="0px"
	 viewBox="0 0 512 512" style="enable-background:new 0 0 512 512;" xml:space="preserve">
<style type="text/css">
	.st0{fill:#B3282D;}
	.st1{fill:#FFFFFF;}
	.st2{fill:none;stroke:#B3282D;stroke-width:10;stroke-miterlimit:10;}
</style>
<g>
	<title>proquis-icon</title>
	<g>
		<path class="st0" d="M256,0C114.6,0,0,114.6,0,256c0,141.4,114.6,256,256,256c141.4,0,256-114.6,256-256C512,114.6,397.4,0,256,0z
			"/>
	</g>
	<path class="st1" d="M428.1,269.3c-7.5,94.5-91.2,165.2-187,157.8s-167.4-90-160-184.5c7.5-94.5,91.2-165.2,187-157.8
		C364,92.1,435.6,174.7,428.1,269.3z"/>
	<path class="st0" d="M332.7,261.9c-3.4,42.5-41,74.3-84.1,71s-75.3-40.5-72-83s41-74.3,84.1-71S336.1,219.4,332.7,261.9z"/>
	<path class="st0" d="M474.7,176.9c-3.4,42.5-41,74.3-84.1,71c-43.1-3.3-75.3-40.5-72-83c3.4-42.5,41-74.3,84.1-71
		C445.8,97.2,478.1,134.4,474.7,176.9z"/>
	<line class="st2" x1="254.7" y1="256" x2="396.6" y2="170.9"/>
	<path class="st1" d="M457.8,175.6c-2.6,33.3-32.1,58.2-65.9,55.6c-33.8-2.6-59-31.7-56.4-65s32.1-58.2,65.9-55.6
		C435.2,113.2,460.4,142.3,457.8,175.6z"/>
</g>
</svg>
