<svg xmlns="http://www.w3.org/2000/svg" viewBox="0 0 512 512"><title>edm-icon</title><path d="M173,200.11c1-1,1.9-2,3-3.16-11.58-11.44-16.54-14-25.13-21.53a130.75,130.75,0,0,1,16.13-18.24c8.11,8,10,10,21.22,21.05,1,1,2,1.92,3.36,3.18,8.09-8.19,15.9-16,23.59-23.93,3.67-3.77,7.86-5.37,12.84-3.34s6.83,5.92,6.85,11c.1,21.2.28,42.4.3,63.6,0,7.18-4.4,11.4-11.62,11.45q-31.62.21-63.22.33c-5.89,0-9.66-2.16-11.34-6.78-1.76-4.83-.5-9,3.16-12.57C159.1,214.23,166,207.15,173,200.11Z" style="fill:#fff"/><path d="M154.46,333.87l22.2-22.37c-8.41-8.32-16.58-16.29-24.64-24.38-6.15-6.18-4.21-15.69,3.7-18.38a14.32,14.32,0,0,1,4.53-.58q31.61-.21,63.22-.35c7.44,0,11.81,4.09,11.89,11.57.21,21.06.24,42.14.37,63.21,0,5.24-1.94,9.34-6.94,11.33s-9.17.23-12.84-3.48c-7.76-7.82-15.64-15.53-23.66-23.46-1.23,1.17-2.26,2.1-3.23,3.08-11.31,11.42-11.44,11.6-19.4,19.63A130.6,130.6,0,0,1,154.46,333.87Z" style="fill:#fff"/><path d="M256,418.61c-91.79,0-166.46-74.67-166.46-166.46S164.17,85.69,256,85.69v22.24c-79.52,0-144.22,64.7-144.22,144.22S176.44,396.37,256,396.37Z" style="fill:#fff"/><path d="M353,165.36q-10.35,10.45-20.68,20.92c-3.17,3.2-6.35,6.37-10,10,8.49,8.38,16.78,16.43,24.9,24.63,5.92,6,3.79,15.47-4,18.12a13.14,13.14,0,0,1-4.16.56q-32,.23-64,.35c-6.81,0-11.35-4-11.43-10.81-.28-21.59-.31-43.18-.39-64.77,0-5,2.27-8.73,6.91-10.56,4.81-1.91,8.94-.39,12.54,3.22,7.88,7.89,15.85,15.7,24,23.73,1.19-1.13,2.22-2.06,3.19-3l27.16-27.43A131.72,131.72,0,0,1,353,165.36Z" style="fill:#fff"/><path d="M347,286.57c-7.83,7.95-15.7,15.87-23.76,24,1.09,1.17,2,2.18,3,3.14q13.13,13,26.28,26a130.88,130.88,0,0,1-16,15l-25.47-25.21c-1-1-2-1.9-3.35-3.15-8,8.11-15.73,15.83-23.33,23.67-3.73,3.85-7.94,5.73-13.12,3.59-5-2.07-6.8-6.25-6.82-11.45-.09-20.94-.28-41.88-.29-62.82,0-7.68,4.3-11.75,12-11.8,20.94-.13,41.89-.18,62.83-.37,5.12,0,9,1.72,11.18,6.51C352,278,350.93,282.53,347,286.57Z" style="fill:#fff"/><path d="M462,252.19c0,113.61-92.42,206-206,206V418.72c91.82,0,166.52-74.71,166.52-166.53S347.78,85.67,256,85.67V46.16C369.57,46.16,462,138.58,462,252.19Z" style="fill:#fff"/><path d="M256,0C114.62,0,0,114.62,0,256S114.62,512,256,512,512,397.38,512,256,397.39,0,256,0Zm0,458.23V418.72c91.82,0,166.52-74.71,166.52-166.53S347.78,85.67,256,85.67V46.16c113.61,0,206,92.42,206,206S369.57,458.23,256,458.23ZM152,287.12c-6.15-6.18-4.21-15.69,3.7-18.38a14.32,14.32,0,0,1,4.53-.58q31.61-.21,63.22-.35c7.44,0,11.81,4.09,11.89,11.57.21,21.06.24,42.14.37,63.21,0,5.24-1.94,9.34-6.94,11.33s-9.17.23-12.84-3.48c-7.76-7.82-15.64-15.53-23.66-23.46-1.23,1.17-2.26,2.1-3.23,3.08-11.31,11.42-11.44,11.6-19.4,19.63a130.6,130.6,0,0,1-15.2-15.82l22.2-22.37C168.25,303.18,160.08,295.21,152,287.12Zm-1.22-111.7a130.75,130.75,0,0,1,16.13-18.24c8.11,8,10,10,21.22,21.05,1,1,2,1.92,3.36,3.18,8.09-8.19,15.9-16,23.59-23.93,3.67-3.77,7.86-5.37,12.84-3.34s6.83,5.92,6.85,11c.1,21.2.28,42.4.3,63.6,0,7.18-4.4,11.4-11.62,11.45q-31.62.21-63.22.33c-5.89,0-9.66-2.16-11.34-6.78-1.76-4.83-.5-9,3.16-12.57,7-7,13.94-14,20.9-21.08,1-1,1.9-2,3-3.16C164.35,185.51,159.39,182.94,150.8,175.42Zm-39.06,76.73c0,79.52,64.7,144.22,144.22,144.22v22.24c-91.79,0-166.46-74.67-166.46-166.46S164.17,85.69,256,85.69v22.24C176.44,107.93,111.74,172.63,111.74,252.15Zm214.41,61.57q13.13,13,26.28,26a130.88,130.88,0,0,1-16,15l-25.47-25.21c-1-1-2-1.9-3.35-3.15-8,8.11-15.73,15.83-23.33,23.67-3.73,3.85-7.94,5.73-13.12,3.59-5-2.07-6.8-6.25-6.82-11.45-.09-20.94-.28-41.88-.29-62.82,0-7.68,4.3-11.75,12-11.8,20.94-.13,41.89-.18,62.83-.37,5.12,0,9,1.72,11.18,6.51,2,4.34.87,8.86-3.11,12.9-7.83,7.95-15.7,15.87-23.76,24C324.28,311.75,325.19,312.76,326.15,313.72Zm6.22-127.44c-3.17,3.2-6.35,6.37-10,10,8.49,8.38,16.78,16.43,24.9,24.63,5.92,6,3.79,15.47-4,18.12a13.14,13.14,0,0,1-4.16.56q-32,.23-64,.35c-6.81,0-11.35-4-11.43-10.81-.28-21.59-.31-43.18-.39-64.77,0-5,2.27-8.73,6.91-10.56,4.81-1.91,8.94-.39,12.54,3.22,7.88,7.89,15.85,15.7,24,23.73,1.19-1.13,2.22-2.06,3.19-3l27.16-27.43A131.72,131.72,0,0,1,353,165.36Q342.7,175.82,332.37,186.28Z" style="fill:#72c2ac"/></svg>