<svg xmlns="http://www.w3.org/2000/svg" viewBox="0 0 512 512"><title>enlighten-icon</title><polygon points="146.73 161.11 248.17 85.98 248.17 236.26 146.73 161.11" style="fill:#fff"/><polygon points="155.09 188.36 248.17 257.32 248.17 420.12 45.18 269.77 155.09 188.36" style="fill:#fff"/><polygon points="366.53 161.11 265.09 236.26 265.09 85.98 366.53 161.11" style="fill:#fff"/><polygon points="468.08 269.77 265.09 420.12 265.09 257.32 358.18 188.36 468.08 269.77" style="fill:#fff"/><path d="M437,75a256,256,0,1,0,75,181A255.2,255.2,0,0,0,437,75Zm-70.49,86.13L265.09,236.26V86ZM265.09,257.32l93.09-69,109.9,81.41-203,150.35Zm-16.92,162.8-203-150.35,109.91-81.41,93.08,69Zm0-183.86L146.73,161.11,248.17,86Z" style="fill:#3f2779"/></svg>