<svg xmlns="http://www.w3.org/2000/svg" viewBox="0 0 512 512"><title>ideagen-icon</title><path d="M213.18,3.59A255.15,255.15,0,0,0,0,249l98.39-14.79a159.24,159.24,0,0,1,26.12-68.13C140,119.57,167.48,56.57,213.18,3.59Z" style="fill:#ff4612"/><path d="M337.7,119.29c32.11-9.79,72-18.34,119.38-21.87a256.36,256.36,0,0,0-21.52-24.35C383.13,21.58,314-2.49,245.82.2c-37.91,38-64.58,84.72-82.81,126.54A159.62,159.62,0,0,1,337.7,119.29Z" style="fill:#cad7eb"/><path d="M404.58,313.48A696.54,696.54,0,0,1,489,362.59,257.53,257.53,0,0,0,471.85,118.2a546.38,546.38,0,0,0-111.65,17.39c2.51,2.18,5,4.32,7.44,6.67C414.35,188.14,426.72,255.94,404.58,313.48Z" style="fill:#b3c9e9"/><path d="M395.21,333.29a157.31,157.31,0,0,1-115.69,80.16L266.62,512A255.73,255.73,0,0,0,479.14,382.09,679.8,679.8,0,0,0,395.21,333.29Z" style="fill:#7da4dd"/><ellipse cx="256.07" cy="248.22" rx="91.57" ry="91.62" style="fill:#003056"/></svg>