<svg xmlns="http://www.w3.org/2000/svg" viewBox="0 0 512 512"><title>kw-icon</title><path d="M256,420.6c-91.79,0-166.46-74.67-166.46-166.46S164.17,87.68,256,87.68v22.24c-79.53,0-144.22,64.7-144.22,144.22S176.43,398.36,256,398.36Z" style="fill:#fff"/><rect x="208.2" y="168.28" width="166.23" height="39.85" style="fill:#fff"/><rect x="137.49" y="236.07" width="236.94" height="39.85" style="fill:#fff"/><rect x="208.2" y="303.86" width="166.23" height="39.85" style="fill:#fff"/><path d="M462,254.18c0,113.61-92.42,206-206,206V420.7c91.82,0,166.52-74.7,166.52-166.52S347.78,87.66,256,87.66V48.15C369.57,48.15,462,140.57,462,254.18Z" style="fill:#fff"/><path d="M511.18,235.21C501.38,111.13,400.86,10.61,276.78.82,119-11.62-11.62,119,.82,276.78c9.79,124.09,110.33,224.62,234.42,234.4C393,523.61,523.63,392.94,511.18,235.21ZM256,87.68v22.24c-79.53,0-144.22,64.7-144.22,144.22S176.43,398.36,256,398.36V420.6c-91.79,0-166.46-74.67-166.46-166.46S164.17,87.68,256,87.68ZM137.49,275.92V236.07H374.43v39.85Zm236.94,27.94v39.85H208.2V303.86ZM208.2,208.13V168.28H374.43v39.85ZM256,420.7c91.82,0,166.52-74.7,166.52-166.52S347.78,87.66,256,87.66V48.15c113.61,0,206,92.42,206,206s-92.42,206-206,206Z" style="fill:#3caf97"/></svg>