<svg xmlns="http://www.w3.org/2000/svg" viewBox="0 0 512 512"><title>pentana-icon</title><polygon points="199.57 205.25 139.62 389.77 79.66 205.25 199.57 205.25" style="fill:#fff"/><polygon points="288.24 188.14 94.22 188.14 251.19 74.09 288.24 188.14" style="fill:#fff"/><polygon points="188.44 294.85 345.41 408.89 151.39 408.89 188.44 294.85" style="fill:#fff"/><polygon points="270.23 333.12 427.2 219.08 367.25 403.6 270.23 333.12" style="fill:#fff"/><polygon points="331.91 267.16 271.96 82.64 428.92 196.69 331.91 267.16" style="fill:#fff"/><path d="M256,0C114.62,0,0,114.62,0,256S114.62,512,256,512,512,397.38,512,256,397.39,0,256,0Zm32.24,188.14h-194l157-114.05ZM272,82.64l157,114.05-97,70.47ZM199.57,205.25,139.62,389.77l-60-184.52Zm-11.13,89.6,157,114h-194Zm81.79,38.27,157-114L367.25,403.6Z" style="fill:#2d4287"/></svg>