<svg xmlns="http://www.w3.org/2000/svg" viewBox="0 0 512 512"><title>pentana-disclose-icon</title><polygon points="362.19 319.95 374.82 307.35 374.82 417 79.66 417 79.66 121.82 320.85 121.82 308.15 134.46 92.3 134.46 92.3 404.36 362.19 404.36 362.19 319.95" style="fill:#fff"/><polygon points="423.9 82.64 423.9 205.65 239.38 390.17 136.87 287.66 136.87 164.65 239.38 266.83 423.9 82.64" style="fill:#fff"/><path d="M256,0C114.62,0,0,114.61,0,256S114.62,512,256,512,512,397.38,512,256,397.39,0,256,0ZM79.66,121.82H320.85l-12.7,12.64H92.3v269.9H362.19V320l12.63-12.6V417H79.66ZM423.9,205.65,239.38,390.17,136.87,287.66v-123L239.38,266.83,423.9,82.64Z" style="fill:#274193"/></svg>