<svg xmlns="http://www.w3.org/2000/svg" viewBox="0 0 512 512"><title>proquis-icon</title><path d="M159.29,295.06l-37.66,36.5c-43-48-52.45-114.36-24.52-172.41l47.17,25a106,106,0,0,0-8.1,60.31A104.45,104.45,0,0,0,159.29,295.06Z" style="fill:#fff"/><path d="M312.57,331.22,323,353.29a142,142,0,0,1-126.51,7l-44.29,86.22L135,437.63l44.3-86.24a143.31,143.31,0,0,1-32-26.52l17.5-16.95a119.06,119.06,0,0,0,25.7,21.74l54.59-106.29,10.42,22-47.83,93.12a117.69,117.69,0,0,0,104.91-7.31Z" style="fill:#fff"/><path d="M264.51,233.94l81.91-10.5a91.51,91.51,0,0,1-10.37,46.67,92.9,92.9,0,0,1-36.64,37.68Z" style="fill:#fff"/><path d="M149.7,172.24l-21.53-11.41a142.24,142.24,0,0,1,180.9-62.05l12.14-23.64L338.41,84l-12.15,23.65A142.58,142.58,0,0,1,394,211.12l-24.15,3.09a118.21,118.21,0,0,0-54.71-84.85l-46.71,90.93-23.27,3L297.91,120.5A117.87,117.87,0,0,0,149.7,172.24Z" style="fill:#fff"/><path d="M346.48,372.41l-22.81-48.26a105.89,105.89,0,0,0,42.6-43.45,104.61,104.61,0,0,0,11.82-54.39l52-6.66C435.8,283.81,403.61,342.63,346.48,372.41Z" style="fill:#fff"/><path d="M256,0C114.62,0,0,114.61,0,256S114.62,512,256,512,512,397.38,512,256,397.39,0,256,0Zm65.21,75.14L338.41,84l-12.15,23.65A142.58,142.58,0,0,1,394,211.12l-24.15,3.09a118.21,118.21,0,0,0-54.71-84.85l-46.71,90.93-23.27,3L297.91,120.5A117.87,117.87,0,0,0,149.7,172.24l-21.53-11.41a142.24,142.24,0,0,1,180.9-62.05Zm14.84,195a92.9,92.9,0,0,1-36.64,37.68l-34.9-73.85,81.91-10.5A91.51,91.51,0,0,1,336.05,270.11Zm-191.77-86a106,106,0,0,0-8.1,60.31,104.45,104.45,0,0,0,23.11,50.62l-37.66,36.5c-43-48-52.45-114.36-24.52-172.41ZM196.5,360.25l-44.29,86.22L135,437.63l44.3-86.24a143.31,143.31,0,0,1-32-26.52l17.5-16.95a119.06,119.06,0,0,0,25.7,21.74l54.59-106.29,10.42,22-47.83,93.12a117.69,117.69,0,0,0,104.91-7.31L323,353.29a142,142,0,0,1-126.51,7Zm150,12.16-22.81-48.26a105.89,105.89,0,0,0,42.6-43.45,104.61,104.61,0,0,0,11.82-54.39l52-6.66C435.8,283.81,403.61,342.63,346.48,372.41Z" style="fill:#4e6cb2"/></svg>