<svg xmlns="http://www.w3.org/2000/svg" viewBox="0 0 512 512"><title>risk-icon</title><path d="M256,0C114.62,0,0,114.62,0,256S114.62,512,256,512,512,397.38,512,256,397.39,0,256,0ZM188,394.34a6.81,6.81,0,0,1-6.8,6.8h-68a6.81,6.81,0,0,1-6.8-6.8v-68a6.81,6.81,0,0,1,6.8-6.8h68a6.81,6.81,0,0,1,6.8,6.8Zm0-108.74a6.81,6.81,0,0,1-6.8,6.8h-68a6.81,6.81,0,0,1-6.8-6.8v-68a6.81,6.81,0,0,1,6.8-6.8h68a6.81,6.81,0,0,1,6.8,6.8Zm0-108.74a6.81,6.81,0,0,1-6.8,6.8h-68a6.81,6.81,0,0,1-6.8-6.8v-68a6.81,6.81,0,0,1,6.8-6.8h68a6.81,6.81,0,0,1,6.8,6.8ZM296.75,394.34a6.81,6.81,0,0,1-6.81,6.8H222a6.81,6.81,0,0,1-6.8-6.8v-68a6.81,6.81,0,0,1,6.8-6.8h68a6.81,6.81,0,0,1,6.81,6.8Zm0-108.74a6.81,6.81,0,0,1-6.81,6.8H222a6.81,6.81,0,0,1-6.8-6.8v-68a6.81,6.81,0,0,1,6.8-6.8h68a6.81,6.81,0,0,1,6.81,6.8Zm0-108.74a6.81,6.81,0,0,1-6.81,6.8H222a6.81,6.81,0,0,1-6.8-6.8v-68a6.81,6.81,0,0,1,6.8-6.8h68a6.81,6.81,0,0,1,6.81,6.8ZM405.48,394.34a6.81,6.81,0,0,1-6.8,6.8h-68a6.81,6.81,0,0,1-6.8-6.8v-68a6.81,6.81,0,0,1,6.8-6.8h68a6.81,6.81,0,0,1,6.8,6.8Zm0-108.74a6.81,6.81,0,0,1-6.8,6.8h-68a6.81,6.81,0,0,1-6.8-6.8v-68a6.81,6.81,0,0,1,6.8-6.8h68a6.81,6.81,0,0,1,6.8,6.8Zm0-108.74a6.81,6.81,0,0,1-6.8,6.8h-68a6.81,6.81,0,0,1-6.8-6.8v-68a6.81,6.81,0,0,1,6.8-6.8h68a6.81,6.81,0,0,1,6.8,6.8Z" style="fill:#56227d"/></svg>