<svg xmlns="http://www.w3.org/2000/svg" viewBox="0 0 36 36">
  <title>document-review-co-authoring-icon</title>
  <g id="Layer_2" data-name="Layer 2">
    <g id="Layer_1-2" data-name="Layer 1">
      <g>
        <circle cx="18" cy="18" r="18" fill="#fff"/>
        <g>
          <g>
            <path d="M27.14,15a18.93,18.93,0,0,0-1.87-2.15A19.81,19.81,0,0,0,23.13,11a3.47,3.47,0,0,0-2-.91h-7.9a1.72,1.72,0,0,0-1.72,1.72V27.63a1.72,1.72,0,0,0,1.72,1.71H26.33a1.72,1.72,0,0,0,1.72-1.71V17A3.43,3.43,0,0,0,27.14,15Zm-4.59-2.73a18.93,18.93,0,0,1,1.75,1.56h0a20.26,20.26,0,0,1,1.55,1.74h-3.3Zm4.12,15.34a.35.35,0,0,1-.34.34H13.27a.35.35,0,0,1-.35-.34V11.81a.35.35,0,0,1,.35-.34h7.9v4.81a.69.69,0,0,0,.69.69h4.81Z" fill="#0a3254"/>
            <path d="M19.69,8.25h0a3.47,3.47,0,0,0-2-.91H9.83A1.72,1.72,0,0,0,8.11,9.06V24.88a1.72,1.72,0,0,0,1.37,1.68V9.06a.35.35,0,0,1,.35-.34H20.29Z" fill="#0a3254"/>
            <path d="M13.88,20.41a.67.67,0,0,0,.68.68h2.75a.68.68,0,0,0,.69-.68.69.69,0,0,0-.69-.69H14.56A.68.68,0,0,0,13.88,20.41Z" fill="#0a3254"/>
            <path d="M17.31,22.47H14.56a.68.68,0,0,0-.68.69.67.67,0,0,0,.68.68h2.75a.68.68,0,0,0,.69-.68A.69.69,0,0,0,17.31,22.47Z" fill="#0a3254"/>
            <path d="M17.31,25.22H14.56a.68.68,0,0,0-.68.69.67.67,0,0,0,.68.68h2.75a.68.68,0,0,0,.69-.68A.69.69,0,0,0,17.31,25.22Z" fill="#0a3254"/>
            <path d="M21.61,20.41a.68.68,0,0,0,.69.68h2.75a.67.67,0,0,0,.68-.68.68.68,0,0,0-.68-.69H22.3A.69.69,0,0,0,21.61,20.41Z" fill="#0a3254"/>
            <path d="M25.05,22.47H22.3a.69.69,0,0,0-.69.69.68.68,0,0,0,.69.68h2.75a.67.67,0,0,0,.68-.68A.68.68,0,0,0,25.05,22.47Z" fill="#0a3254"/>
            <path d="M25.05,25.22H22.3a.69.69,0,0,0-.69.69.68.68,0,0,0,.69.68h2.75a.67.67,0,0,0,.68-.68A.68.68,0,0,0,25.05,25.22Z" fill="#0a3254"/>
          </g>
          <path d="M19.8,27.28a.69.69,0,0,1-.69-.69V18.34a.68.68,0,0,1,.69-.68.67.67,0,0,1,.68.68v8.25A.68.68,0,0,1,19.8,27.28Z" fill="#0a3254"/>
        </g>
      </g>
    </g>
  </g>
</svg>
