<?xml version="1.0" encoding="utf-8"?>
<!-- Generator: Adobe Illustrator 19.1.1, SVG Export Plug-In . SVG Version: 6.00 Build 0)  -->
<svg version="1.1" id="Layer_1" xmlns="http://www.w3.org/2000/svg" xmlns:xlink="http://www.w3.org/1999/xlink" x="0px" y="0px"
	 viewBox="0 0 40 40" style="enable-background:new 0 0 40 40;" xml:space="preserve">
<style type="text/css">
	.st0{fill:#0077B3;}
	.st1{fill:#FFFFFF;}
</style>
<g>
	<path class="st0" d="M20,40L20,40C9,40,0,31,0,20l0,0C0,9,9,0,20,0h0c11,0,20,9,20,20v0C40,31,31,40,20,40z"/>
	<g>
		<path class="st1" d="M15.3,11.5c0,0.7-0.2,1.2-0.7,1.6c-0.5,0.4-1.1,0.7-1.8,0.7h0c-0.7,0-1.3-0.2-1.8-0.7c-0.4-0.4-0.7-1-0.7-1.6
			c0-0.7,0.2-1.2,0.7-1.6c0.5-0.4,1.1-0.7,1.8-0.7s1.3,0.2,1.8,0.7C15.1,10.3,15.3,10.9,15.3,11.5z M15.1,15.6v13.3h-4.4V15.6H15.1z
			 M31,21.3v7.6h-4.4v-7.1c0-0.9-0.2-1.7-0.5-2.2c-0.4-0.5-0.9-0.8-1.7-0.8c-0.6,0-1,0.2-1.4,0.5c-0.4,0.3-0.7,0.7-0.9,1.1
			c-0.1,0.3-0.1,0.6-0.1,1.1v7.4h-4.4c0-3.6,0-6.5,0-8.7s0-3.5,0-4l0-0.6h4.4v1.9h0c0.2-0.3,0.4-0.5,0.5-0.8s0.4-0.4,0.8-0.7
			c0.3-0.2,0.7-0.4,1.2-0.6c0.5-0.1,1-0.2,1.5-0.2c1.5,0,2.8,0.5,3.7,1.5C30.5,17.9,31,19.3,31,21.3z"/>
	</g>
</g>
</svg>
