<?xml version="1.0" encoding="utf-8"?>
<!-- Generator: Adobe Illustrator 19.1.1, SVG Export Plug-In . SVG Version: 6.00 Build 0)  -->
<svg version="1.1" id="Layer_1" xmlns="http://www.w3.org/2000/svg" xmlns:xlink="http://www.w3.org/1999/xlink" x="0px" y="0px"
	 viewBox="192 -24.1 80.5 80.5" style="enable-background:new 192 -24.1 80.5 80.5;" xml:space="preserve">
<style type="text/css">
	.st0{fill:#FF4612;}
	.st1{opacity:0.4;fill:#7DA4DD;enable-background:new    ;}
	.st2{opacity:0.7;fill:#7DA4DD;enable-background:new    ;}
	.st3{fill:#7DA4DD;}
	.st4{fill:#003056;}
</style>
<path id="XMLID_42_" class="st0" d="M225.5-23.5c-8.1,1.4-15.8,5.1-22,11.4C196.1-4.6,192.3,5.2,192,15l15.5-2.3
	c0.5-3.8,1.9-7.4,4.1-10.7C214-5.3,218.3-15.2,225.5-23.5z"/>
<path id="XMLID_41_" class="st1" d="M245.1-5.4c5-1.5,11.3-2.9,18.8-3.4c-1-1.3-2.1-2.6-3.4-3.8c-8.3-8.1-19.1-11.9-29.9-11.5
	c-6,6-10.2,13.3-13,19.9C225.7-10,236.6-10.4,245.1-5.4z"/>
<path id="XMLID_40_" class="st2" d="M255.6,25.2c4.3,2.1,8.8,4.7,13.3,7.7c5.6-12.3,4.7-26.8-2.7-38.4c-6.8,0.4-12.7,1.4-17.6,2.7
	c0.4,0.3,0.8,0.7,1.2,1C257.1,5.5,259.1,16.1,255.6,25.2z"/>
<path id="XMLID_39_" class="st3" d="M254.1,28.3c-1.1,1.9-2.4,3.8-4,5.4c-4,4-9,6.4-14.2,7.2l-2,15.5c9.9-0.4,19.6-4.4,27.1-12
	c2.5-2.6,4.6-5.4,6.3-8.4C262.9,32.9,258.4,30.4,254.1,28.3z"/>
<circle id="XMLID_36_" class="st4" cx="232.3" cy="14.9" r="14.4"/>
</svg>
