<svg xmlns="http://www.w3.org/2000/svg" viewBox="0 0 100 100"><defs><style>.cls-1{fill:#0a3254;}.cls-2{fill:#fff;}.cls-3{fill:#1ab311;}</style></defs><title>centralised-data-collection-and-reporting</title><g id="Layer_2" data-name="Layer 2"><g id="Layer_1-2" data-name="Layer 1"><circle class="cls-1" cx="50" cy="50" r="50"/><circle class="cls-2" cx="82.12" cy="87.49" r="10"/><circle class="cls-3" cx="82.12" cy="87.49" r="7.5"/><path class="cls-2" d="M86.45,85.54a.49.49,0,0,1-.16.38l-4,4-.76.76a.49.49,0,0,1-.37.16.49.49,0,0,1-.38-.16L80,90l-2-2a.49.49,0,0,1-.16-.38.51.51,0,0,1,.16-.38l.76-.76a.51.51,0,0,1,.37-.15.52.52,0,0,1,.38.15l1.65,1.65,3.66-3.67a.52.52,0,0,1,.38-.15.51.51,0,0,1,.37.15l.76.76A.51.51,0,0,1,86.45,85.54Z"/><path class="cls-2" d="M49.17,42.16a5.32,5.32,0,0,0-3.79,9.06l0,0,0,0a5.32,5.32,0,0,0,9.06-3.79.22.22,0,0,0-.22-.22H49.39V42.38A.22.22,0,0,0,49.17,42.16Zm-4.89,5.33A4.9,4.9,0,0,1,49,42.6v4.89a.09.09,0,0,0,0,0l-3.33,3.33A4.88,4.88,0,0,1,44.28,47.49ZM52.55,51a4.88,4.88,0,0,1-6.76,0l3.32-3.31Zm8.6-15.44V26H29.91V62.73h2.42V28.43H58.72v7.15H39.5V56.64h2.42V38H67.67V62.49H60.83a2.1,2.1,0,0,0-2.1,2.11v7H41.92V65.15H39.5V74H61.22l8.87-9V35.58Zm0,35v-5.7h5.61Z"/><path class="cls-2" d="M50,41.52v5.11h5.11A5.11,5.11,0,0,0,50,41.52Zm7.1,10.31h8.38v-1H57.13Zm0-5.51h8.38v-1H57.13Zm0-3.72v1h8.38v-1Zm0,6.48h8.38v-1H57.13Zm-11.81,10H34.8v3.64H45.32v3l5.61-4.79-5.61-4.79Z"/></g></g></svg>