<svg xmlns="http://www.w3.org/2000/svg" viewBox="0 0 100 100"><defs><style>.cls-1{fill:#0a3254;}.cls-2{fill:#fff;}.cls-3{fill:#1ab311;}</style></defs><title>ease-of-scaling</title><g id="Layer_2" data-name="Layer 2"><g id="Layer_1-2" data-name="Layer 1"><circle class="cls-1" cx="50" cy="50" r="50"/><circle class="cls-2" cx="83.91" cy="87.49" r="10"/><circle class="cls-3" cx="83.91" cy="87.49" r="7.5"/><path class="cls-2" d="M88.24,85.54a.49.49,0,0,1-.16.38l-4,4-.76.76a.49.49,0,0,1-.38.16.51.51,0,0,1-.38-.16L81.77,90l-2-2a.49.49,0,0,1-.16-.38.51.51,0,0,1,.16-.38l.75-.76a.55.55,0,0,1,.38-.15.52.52,0,0,1,.38.15l1.64,1.65,3.66-3.67a.54.54,0,0,1,.38-.15.52.52,0,0,1,.38.15l.76.76A.51.51,0,0,1,88.24,85.54Z"/><path class="cls-2" d="M53.89,35.08V69.36h2.45V37.53h13V69.36h2.45V35.08Zm7.55,6.25H57.85V45h3.59Zm-3.59,9.4h3.59V47.11H57.85Zm0,5.78h3.59V52.88H57.85Zm0,5.77h3.59V58.66H57.85Zm2.72,7.08h4.54v-5H60.57Zm3.67-7.08h3.59V58.66H64.24Zm0-5.77h3.59V52.88H64.24Zm0-5.78h3.59V47.11H64.24Zm0-5.77h3.59V41.33H64.24Z"/><path class="cls-2" d="M36.8,63.13h6.07v6.41h7.29V25.89H29.52V69.54H36.8Zm4.91-30.56H46.5v4.79H41.71Zm0,7.63H46.5V45H41.71Zm0,7.62H46.5v4.79H41.71Zm0,7.63H46.5v4.78H41.71ZM33.18,32.57H38v4.79H33.18Zm0,7.63H38V45H33.18Zm0,7.62H38v4.79H33.18Zm0,7.63H38v4.78H33.18ZM26,71.44v2.45H74V71.44Z"/></g></g></svg>