<svg xmlns="http://www.w3.org/2000/svg" viewBox="0 0 100 100"><defs><style>.cls-1{fill:#0a3254;}.cls-2{fill:#fff;}.cls-3{fill:#1ab311;}</style></defs><title>increased-accountability-and-performance</title><g id="Layer_2" data-name="Layer 2"><g id="Layer_1-2" data-name="Layer 1"><circle class="cls-1" cx="50" cy="50" r="50"/><circle class="cls-2" cx="82.12" cy="87.49" r="10"/><circle class="cls-3" cx="82.12" cy="87.49" r="7.5"/><path class="cls-2" d="M86.45,85.54a.49.49,0,0,1-.16.38l-4,4-.76.76a.49.49,0,0,1-.37.16.49.49,0,0,1-.38-.16L80,90l-2-2a.49.49,0,0,1-.16-.38.51.51,0,0,1,.16-.38l.76-.76a.51.51,0,0,1,.37-.15.52.52,0,0,1,.38.15l1.65,1.65,3.66-3.67a.52.52,0,0,1,.38-.15.51.51,0,0,1,.37.15l.76.76A.51.51,0,0,1,86.45,85.54Z"/><path class="cls-2" d="M63.77,39.65V57.8h3V39.65Zm-9,12.26h-3V57.8h3Zm3-6.37V57.8h3V45.54ZM72.9,29.67h-45a1.1,1.1,0,0,0-1.1,1.1V57.08a1.1,1.1,0,0,0,2.2,0V31.87H71.81V63H55.61a1.1,1.1,0,1,0,0,2.19H72.9A1.09,1.09,0,0,0,74,64.12V30.77A1.1,1.1,0,0,0,72.9,29.67Z"/><polygon class="cls-2" points="38.47 63.5 38.02 70.82 40.3 70.82 39.85 63.5 38.47 63.5"/><path class="cls-2" d="M39.9,63l.67-.94-.42-1.08h-2L37.76,62l.67.94Z"/><path class="cls-2" d="M46.74,60.16l-2.82-1-1-1.16a9.62,9.62,0,0,0,.86-1.73A4.36,4.36,0,0,0,45.84,53c0-.33.08-1.14-.28-1.46a.71.71,0,0,0-.56-.18c.87-4.6-2.1-7.18-6-7.18-5.91,0-6,5.48-5.83,7.18a.69.69,0,0,0-.44.18c-.36.32-.32,1.13-.28,1.46a4.31,4.31,0,0,0,2.07,3.27l0,0a9.34,9.34,0,0,0,.8,1.65l-1,1.21-2.82,1c-.5.15-5.55,2-5.55,11a.73.73,0,0,0,.72.73l3.52,0v.06a.73.73,0,0,0,.73.73H47.32a.73.73,0,0,0,.73-.73v-.06l3.52,0a.73.73,0,0,0,.72-.73C52.29,62.11,47.24,60.31,46.74,60.16Zm-2.17-7.69a2,2,0,0,1,.4-.24,3.51,3.51,0,0,1-.72,2.46A14.66,14.66,0,0,0,44.57,52.47Zm-11.21-.24a2.41,2.41,0,0,1,.49.31,14.27,14.27,0,0,0,.33,2.27A3.49,3.49,0,0,1,33.36,52.23Zm7.7-3a4.71,4.71,0,0,0,2,1.73c0,.24,0,.48,0,.74,0,3.47-1.51,7.21-3.94,7.21s-3.87-3.62-3.92-7A9.41,9.41,0,0,0,41.06,49.18Zm-6,11.24a.71.71,0,0,0,.3-.21l1-1.14a3.9,3.9,0,0,0,5.67,0l.94,1.1a.71.71,0,0,0,.3.21l1.08.4L41.12,71.2H37.23L33.9,60.84Z"/></g></g></svg>