<svg xmlns="http://www.w3.org/2000/svg" viewBox="0 0 100 100"><defs><style>.cls-1{fill:#0a3254;}.cls-2{fill:#fff;}.cls-3{fill:#1ab311;}</style></defs><title>modernised-and-strngthened-governance</title><g id="Layer_2" data-name="Layer 2"><g id="Layer_1-2" data-name="Layer 1"><circle class="cls-1" cx="50" cy="50" r="50"/><circle class="cls-2" cx="83.91" cy="87.49" r="10"/><circle class="cls-3" cx="83.91" cy="87.49" r="7.5"/><path class="cls-2" d="M88.24,85.54a.49.49,0,0,1-.16.38l-4,4-.76.76a.49.49,0,0,1-.38.16.51.51,0,0,1-.38-.16L81.77,90l-2-2a.49.49,0,0,1-.16-.38.51.51,0,0,1,.16-.38l.75-.76a.55.55,0,0,1,.38-.15.52.52,0,0,1,.38.15l1.64,1.65,3.66-3.67a.54.54,0,0,1,.38-.15.52.52,0,0,1,.38.15l.76.76A.51.51,0,0,1,88.24,85.54Z"/><path class="cls-2" d="M70.43,52.09a1,1,0,0,0-1.18.71,20.05,20.05,0,0,1-3.62,7.4,24,24,0,0,0-4.95-2.26,35,35,0,0,0,1.39-9.5h3.2a.49.49,0,0,0,0-1h-3.2a37.09,37.09,0,0,0-.42-5.2.49.49,0,0,0-.56-.41.49.49,0,0,0-.41.56,36.47,36.47,0,0,1,.41,5.05h-2.6a.49.49,0,0,0,0,1h2.6a33.82,33.82,0,0,1-1.35,9.22c-1-.28-1.93-.52-3-.72a.49.49,0,1,0-.19,1A25.79,25.79,0,0,1,65,61q-.47.55-1,1.08a1,1,0,0,0,.69,1.67,1,1,0,0,0,.7-.29,21.91,21.91,0,0,0,5.75-10.15A1,1,0,0,0,70.43,52.09ZM43.58,56.85a32,32,0,0,0-3.44.81,31.26,31.26,0,0,1-1-4.92.48.48,0,0,0-.55-.42.49.49,0,0,0-.42.55A32.41,32.41,0,0,0,39.2,58a23.45,23.45,0,0,0-5,2.25,19.81,19.81,0,0,1-4.2-11.76h3.51a.49.49,0,0,0,0-1H30.05a19.89,19.89,0,0,1,1.85-7.93,1,1,0,0,0-1.77-.83,21.88,21.88,0,0,0,4.15,24.51,1,1,0,0,0,1.38,0,1,1,0,0,0,0-1.38c-.28-.29-.55-.59-.81-.89a26.07,26.07,0,0,1,8.88-3.14.5.5,0,0,0,.4-.57A.5.5,0,0,0,43.58,56.85ZM54.92,38.12a34.88,34.88,0,0,1-4.49.33V28.05a20.81,20.81,0,0,1,2.39.2A11.78,11.78,0,0,1,57.53,33a.49.49,0,0,0,.85-.5,15.11,15.11,0,0,0-3-3.75,20,20,0,0,1,9.56,6.05l-.62.36a.49.49,0,0,0-.19.66.51.51,0,0,0,.43.26.46.46,0,0,0,.23-.06c.27-.15.53-.3.78-.46a20,20,0,0,1,3.62,7.2,1,1,0,0,0,.94.73,1.15,1.15,0,0,0,.26,0,1,1,0,0,0,.69-1.2A21.87,21.87,0,0,0,37.23,30.15a1,1,0,1,0,1.14,1.6,19.61,19.61,0,0,1,6.16-3,18.62,18.62,0,0,0-5,8.1l-.81-.27a.49.49,0,0,0-.34.92l.85.28A33.11,33.11,0,0,0,38.12,43a.51.51,0,0,0,.42.55h.07a.5.5,0,0,0,.49-.42,30.3,30.3,0,0,1,1.08-5,34.65,34.65,0,0,0,9.27,1.33v1.41a.49.49,0,0,0,1,0V39.43a37.23,37.23,0,0,0,4.63-.34.49.49,0,0,0,.42-.55A.5.5,0,0,0,54.92,38.12Zm-5.47.33a34,34,0,0,1-9-1.28c1.5-4.35,3.88-7.58,6.61-8.93a18.31,18.31,0,0,1,2.35-.19Zm8.1-1.07A2.47,2.47,0,1,0,60,34.91,2.46,2.46,0,0,0,57.55,37.38Zm13.26,8a2.47,2.47,0,1,0,2.46,2.47A2.48,2.48,0,0,0,70.81,45.36Zm-32.49,5A2.47,2.47,0,1,0,35.85,48,2.46,2.46,0,0,0,38.32,50.41ZM34,37a2.47,2.47,0,1,0-2.47-2.47A2.47,2.47,0,0,0,34,37Z"/><polygon class="cls-2" points="49.17 63.85 48.66 72.03 51.21 72.03 50.71 63.85 49.17 63.85"/><path class="cls-2" d="M50.76,63.25l.75-1.06L51,61s-2.15,0-2.2,0l-.47,1.21.75,1.06Z"/><path class="cls-2" d="M58.41,60.12,55.25,59l-1.1-1.3a10,10,0,0,0,1-1.94,4.82,4.82,0,0,0,2.29-3.63c0-.37.09-1.27-.31-1.64a.8.8,0,0,0-.62-.19c1-5.14-2.35-8-6.66-8-6.61,0-6.66,6.12-6.51,8a.81.81,0,0,0-.5.2c-.4.37-.35,1.27-.31,1.64a4.89,4.89,0,0,0,2.31,3.65l.06,0a10.82,10.82,0,0,0,.89,1.84L44.59,59l-3.16,1.15c-.55.18-6.19,2.19-6.19,12.24a.81.81,0,0,0,.81.81l3.93,0v.08a.81.81,0,0,0,.81.81H59.05a.81.81,0,0,0,.81-.81v-.08l3.93,0a.81.81,0,0,0,.81-.81C64.6,62.31,59,60.3,58.41,60.12ZM56,51.54a2.31,2.31,0,0,1,.45-.27,3.93,3.93,0,0,1-.8,2.75A15.59,15.59,0,0,0,56,51.54Zm-12.52-.27a2.59,2.59,0,0,1,.55.35,16.24,16.24,0,0,0,.37,2.53A3.92,3.92,0,0,1,43.45,51.27Zm8.61-3.41a5.14,5.14,0,0,0,2.27,1.93,7.4,7.4,0,0,1,.05.83c0,3.87-1.68,8.05-4.39,8.05s-4.34-4-4.39-7.85A10.49,10.49,0,0,0,52.06,47.86ZM45.35,60.42a.78.78,0,0,0,.33-.24l1.09-1.27A4.52,4.52,0,0,0,50,60.3,4.44,4.44,0,0,0,53.11,59l1,1.23a.78.78,0,0,0,.33.24l1.21.44L52.12,72.45H47.78L44.06,60.89Z"/></g></g></svg>