<svg xmlns="http://www.w3.org/2000/svg" viewBox="0 0 512 512"><title>academy-icon</title><path d="M256,0C114.62,0,0,114.62,0,256S114.62,512,256,512,512,397.38,512,256,397.39,0,256,0ZM53.16,353.57l8.5-7.46,8.47-59.63,8.5,59.63,8.48,7.46Zm333.17,11.59H122.64V284.25a323.36,323.36,0,0,1,131.85-27.35,323.33,323.33,0,0,1,131.85,27.35Zm10-92.29.38-10.59c-51.64-23.76-100.28-31.79-142.24-31.92-42,.13-90.6,8.16-142.24,31.92l.39,10.59L50.74,235.6,254.45,116.34l0,0,.06,0L458.24,235.6Z" style="fill:#e84621"/></svg>