<svg xmlns="http://www.w3.org/2000/svg" viewBox="0 0 512 512"><title>clinical-portal-icon</title><path d="M256,46.68V86.19c91.82,0,166.52,74.71,166.52,166.52S347.78,419.24,256,419.24v39.51c113.61,0,206-92.43,206-206S369.57,46.68,256,46.68Z" style="fill:#fff"/><polygon points="194.62 348.17 322.69 366.46 322.69 138.88 194.62 157.18 194.62 348.17" style="fill:#fff"/><path d="M256,396.89c-79.52,0-144.21-64.7-144.21-144.22S176.43,108.46,256,108.46V86.21c-91.79,0-166.46,74.68-166.46,166.46S164.17,419.14,256,419.14Z" style="fill:#fff"/><path d="M256,0C114.62,0,0,114.62,0,256S114.62,512,256,512,512,397.38,512,256,397.39,0,256,0Zm0,86.21v22.24c-79.52,0-144.21,64.7-144.21,144.22S176.43,396.89,256,396.89v22.24c-91.79,0-166.46-74.67-166.46-166.46S164.17,86.21,256,86.21Zm66.73,52.67V366.46L194.62,348.17v-191ZM256,419.24c91.82,0,166.52-74.7,166.52-166.52S347.78,86.19,256,86.19V46.68c113.61,0,206,92.43,206,206s-92.43,206-206,206Z" style="fill:#008061"/></svg>