<?xml version="1.0" encoding="utf-8"?>
<!-- Generator: Adobe Illustrator 21.0.2, SVG Export Plug-In . SVG Version: 6.00 Build 0)  -->
<svg version="1.1" id="Layer_1" xmlns="http://www.w3.org/2000/svg" xmlns:xlink="http://www.w3.org/1999/xlink" x="0px" y="0px"
	 viewBox="0 0 512 512" style="enable-background:new 0 0 512 512;" xml:space="preserve">
<style type="text/css">
	.st0{fill:#FFFFFF;}
	.st1{fill:#0083C1;}
</style>
<title>enlighten-icon</title>
<polygon class="st0" points="146.7,161.1 248.2,86 248.2,236.3 "/>
<polygon class="st0" points="155.1,188.4 248.2,257.3 248.2,420.1 45.2,269.8 "/>
<polygon class="st0" points="366.5,161.1 265.1,236.3 265.1,86 "/>
<polygon class="st0" points="468.1,269.8 265.1,420.1 265.1,257.3 358.2,188.4 "/>
<path class="st1" d="M437,75C337-25,174.9-24.9,75,75s-99.9,262.1,0,362s262.1,99.9,362,0c48-48,75-113.1,75-181
	C512.1,188.1,485.1,123,437,75z M366.5,161.1l-101.4,75.1V86L366.5,161.1z M265.1,257.3l93.1-69l109.9,81.4l-203,150.4L265.1,257.3z
	 M248.2,420.1l-203-150.4l109.9-81.4l93.1,69L248.2,420.1z M248.2,236.3l-101.4-75.1L248.2,86V236.3z"/>
</svg>
