<svg xmlns="http://www.w3.org/2000/svg" viewBox="0 0 512 512"><title>easysite-icon</title><path d="M181.72,415.36a19.21,19.21,0,0,1-11-11.2L145.5,240.33l11,13.18,30,105.58s4.07,5.33,13.37,8.85,15.89,2.35,15.89,2.35L308.7,312l17-2.44L197.34,414.45A19.13,19.13,0,0,1,181.72,415.36Z" style="fill:#fff"/><path d="M363.79,423.31c0,2.35-5.06,4.33-53.92,4.33S187,425.66,187,423.31,261,419,309.87,419,363.79,420.87,363.79,423.31Z" style="fill:#fff"/><path d="M384,181.71l-.27.63-3.34,8.76-.27.64L350.52,269l-3.62,9.48a34.72,34.72,0,0,1-28.18,22l-26.28,1.35-55.72,3.07A33,33,0,0,1,225,302.74a34.69,34.69,0,0,1-10.39-6.42l-39.2-39.38-18.6-18.6a34.68,34.68,0,0,1-6.23-35.22l3.61-9.49,29.71-77.31.27-.63L187,108l.64-1.62a34.81,34.81,0,0,1,28.81-22.13l80.29-4.42A36,36,0,0,1,309.69,82a35.63,35.63,0,0,1,10.75,6.78l57,57.26A34.92,34.92,0,0,1,384,181.71Z" style="fill:#fff"/><polygon points="201.58 127.53 167.18 216.94 224.16 273.75 258.48 184.33 201.58 127.53" style="fill:#385599"/><path d="M256,0C114.61,0,0,114.61,0,256S114.61,512,256,512,512,397.39,512,256,397.39,0,256,0ZM145.5,240.33l11,13.18,30,105.58s4.07,5.33,13.37,8.85,15.89,2.35,15.89,2.35L308.7,312l17-2.44L197.34,414.45a19,19,0,0,1-26.64-10.29Zm41.45,183C187,420.87,261,419,309.87,419s53.92,1.9,53.92,4.34-5.06,4.33-53.92,4.33S187,425.66,187,423.31ZM384,181.71l-.27.63-3.34,8.76-.27.64L350.52,269l-3.62,9.48a34.72,34.72,0,0,1-28.18,22l-26.28,1.35-55.72,3.07A33,33,0,0,1,225,302.74a34.69,34.69,0,0,1-10.39-6.42l-39.2-39.38-18.6-18.6a34.68,34.68,0,0,1-6.23-35.22l3.61-9.49,29.71-77.31.27-.63L187,108l.64-1.62a34.81,34.81,0,0,1,28.81-22.13l80.29-4.42A36,36,0,0,1,309.69,82a35.63,35.63,0,0,1,10.75,6.78l57,57.26A34.92,34.92,0,0,1,384,181.71Z" style="fill:#385599"/><polygon points="302.47 100.88 210.71 105.94 275.46 171.06 367.23 166 362.44 161.12 302.47 100.88" style="fill:#385599"/><polygon points="244.94 281.79 325.23 277.63 359.55 188.13 279.26 192.28 244.94 281.79" style="fill:#385599"/></svg>