<svg xmlns="http://www.w3.org/2000/svg" viewBox="0 0 512 512"><title>ocm-mgmt</title><path d="M256,416.63C164.17,416.63,89.5,342,89.5,250.17S164.17,83.7,256,83.7V106c-79.52,0-144.22,64.69-144.22,144.22S176.44,394.38,256,394.38Z" style="fill:#fff"/><path d="M256.13,155.06l-.13-.19C256.09,154.87,256.13,154.93,256.13,155.06Z" style="fill:#fff"/><path d="M194.19,283.65c0-33.26,61.94-123.95,61.94-128.59,3,4.7,61.69,95.34,61.69,128.59a61.82,61.82,0,0,1-123.63,0Z" style="fill:#fff"/><path d="M462,250.21c0,113.6-92.42,206-206,206V416.73c91.82,0,166.52-74.7,166.52-166.52S347.78,83.68,256,83.68V44.17C369.57,44.17,462,136.6,462,250.21Z" style="fill:#fff"/><path d="M256,0C114.62,0,0,114.62,0,256S114.62,512,256,512,512,397.38,512,256,397.39,0,256,0Zm0,83.7V106c-79.52,0-144.22,64.69-144.22,144.22S176.44,394.38,256,394.38v22.25C164.17,416.63,89.5,342,89.5,250.17S164.17,83.7,256,83.7Zm0,71.17c.09,0,.13.06.13.19,3,4.7,61.69,95.34,61.69,128.59a61.82,61.82,0,0,1-123.63,0c0-33.26,61.94-123.95,61.94-128.59Zm0,261.86c91.82,0,166.52-74.7,166.52-166.52S347.78,83.68,256,83.68V44.17c113.61,0,206,92.43,206,206s-92.42,206-206,206Z" style="fill:#009874"/></svg>