<svg xmlns="http://www.w3.org/2000/svg" viewBox="0 0 512 512"><title>patient-first-icon</title><path d="M261.21,316.2v102H221.78v-102a67.44,67.44,0,0,0-67.35-67.37h-63V209.41h63A106.91,106.91,0,0,1,261.21,316.2Z" style="fill:#fff"/><path d="M214.63,180.64a55.89,55.89,0,1,1,79.57,0Z" style="fill:#fff"/><rect x="284.86" y="378.77" width="37.71" height="39.42" style="fill:#fff"/><path d="M282.26,290.28h67.48v39.43H284.86V316.2A130.22,130.22,0,0,0,282.26,290.28Z" style="fill:#fff"/><path d="M416.78,209.63v39.43H266.05a131.21,131.21,0,0,0-36.65-39.43Z" style="fill:#fff"/><path d="M256,0C114.62,0,0,114.61,0,256S114.62,512,256,512,512,397.38,512,256,397.39,0,256,0ZM154.43,248.83h-63V209.41h63A106.91,106.91,0,0,1,261.21,316.2v102H221.78v-102A67.44,67.44,0,0,0,154.43,248.83ZM310.3,141.46a55.66,55.66,0,0,1-16.1,39.18H214.63a55.87,55.87,0,1,1,95.67-39.18ZM284.86,418.19V378.77h37.71v39.42Zm64.88-88.48H284.86V316.2a130.22,130.22,0,0,0-2.6-25.92h67.48Zm-83.69-80.65a131.21,131.21,0,0,0-36.65-39.43H416.78v39.43Z" style="fill:#2071a3"/></svg>