<?xml version="1.0" encoding="utf-8"?>
<!-- Generator: Adobe Illustrator 21.1.0, SVG Export Plug-In . SVG Version: 6.00 Build 0)  -->
<svg version="1.1" id="Layer_1" xmlns="http://www.w3.org/2000/svg" xmlns:xlink="http://www.w3.org/1999/xlink" x="0px" y="0px"
	 viewBox="0 0 512 512" style="enable-background:new 0 0 512 512;" xml:space="preserve">
<style type="text/css">
	.st0{fill:#E3AE36;}
	.st1{fill:#FFFFFF;}
</style>
<g>
	<title>q-pulse-icon</title>
	<g>
		<circle class="st0" cx="256" cy="256" r="256"/>
		<g>
			<g>
				<path class="st1" d="M215.3,349c-8.5-8.5-12.7-18.4-12.6-29.5c0.1-11.1,4.5-21,13-29.5c8.5-8.5,18.3-12.8,29.3-12.8
					c11,0,20.8,4.2,29.3,12.7c9.4,9.4,20.7,14.1,34,14.1c13.3,0,24.6-4.8,34.1-14.2c9.5-9.4,14.1-20.7,14.1-33.9
					c-0.1-13.1-4.8-24.4-14.2-33.8c-9.4-9.4-20.6-14.1-33.6-14.1c-13,0-24.2,4.8-33.7,14.2L143.2,354c-8.5,8.5-18.4,12.8-29.7,12.8
					c-11.2,0-21.1-4.3-29.7-12.8c-8.5-8.5-12.8-18.4-12.7-29.5c0.1-11.1,4.4-21,13-29.5L216,163.1c26.3-26.3,57.2-39.4,92.7-39.5
					c35.5,0,66.4,13.1,92.6,39.4c26.3,26.3,39.4,57.2,39.5,92.9c0.1,35.6-13,66.6-39.4,92.9c-26.3,26.3-57.4,39.5-93.1,39.5
					C272.6,388.4,241.6,375.3,215.3,349z"/>
			</g>
			<polygon class="st1" points="193,152.3 83.9,264.1 86.8,160.3 			"/>
		</g>
	</g>
</g>
</svg>
