<svg xmlns="http://www.w3.org/2000/svg" viewBox="0 0 512 512"><title>q-pulse-icon</title><path d="M214.36,102.59a87.23,87.23,0,1,0,87.23,87.21A87.22,87.22,0,0,0,214.36,102.59Z" style="fill:#56227d"/><path d="M256,0C114.62,0,0,114.62,0,256S114.62,512,256,512,512,397.38,512,256,397.39,0,256,0ZM110,338.63l.18-51.9,57.19,57.19,28.21,26.78A197.12,197.12,0,0,1,110,338.63Zm263.38,80.65H256.13L110,273.09h0V189.63a104.14,104.14,0,0,1,99.72-104v-.11H371.24a188.62,188.62,0,0,1-64,266.9l0,.54Z" style="fill:#56227d"/></svg>