<svg xmlns="http://www.w3.org/2000/svg" viewBox="0 0 512 512"><title>qscan-icon</title><path d="M225,282.69l1.87,2.56-71.19,7.82a106.41,106.41,0,0,1,7.81-94Z" style="fill:#fff"/><path d="M256,416.25c-91.79,0-166.46-74.67-166.46-166.46S164.17,83.33,256,83.33v22.25c-79.53,0-144.22,64.69-144.22,144.21S176.43,394,256,394Z" style="fill:#fff"/><path d="M256.72,147.72l-42.65,96.94-.48,1.08L171.1,188C191.82,161.75,223.19,147.17,256.72,147.72Z" style="fill:#fff"/><path d="M161.37,305.26,266,293.76l1.76-.19-28.63,65.57a106.4,106.4,0,0,1-77.76-53.88Z" style="fill:#fff"/><path d="M252.55,360.23l41.13-94.17,1.6-3.59,42.18,57.81C316.84,346.17,285.49,361.17,252.55,360.23Z" style="fill:#fff"/><path d="M347.5,202.74,243.91,214.22l-2.65.27,28.88-65.62a106.35,106.35,0,0,1,77.36,53.87Z" style="fill:#fff"/><path d="M345.18,309.23,300.94,248.6l-1.51-2.12L282.1,222.79l71.12-7.87a105.16,105.16,0,0,1-1.57,81.88A103.93,103.93,0,0,1,345.18,309.23Z" style="fill:#fff"/><path d="M462,249.83c0,113.61-92.42,206-206,206V416.36c91.82,0,166.52-74.71,166.52-166.53S347.78,83.31,256,83.31V43.8C369.57,43.8,462,136.23,462,249.83Z" style="fill:#fff"/><path d="M256,0C114.62,0,0,114.61,0,256S114.62,512,256,512,512,397.38,512,256,397.39,0,256,0Zm0,455.87V416.36c91.82,0,166.52-74.71,166.52-166.53S347.78,83.31,256,83.31V43.8c113.61,0,206,92.43,206,206S369.57,455.87,256,455.87Zm0-372.54v22.25c-79.53,0-144.22,64.69-144.22,144.21S176.43,394,256,394v22.24c-91.79,0-166.46-74.67-166.46-166.46S164.17,83.33,256,83.33Zm10,210.43,1.76-.19-28.63,65.57a106.4,106.4,0,0,1-77.76-53.88Zm-110.37-.69a106.41,106.41,0,0,1,7.81-94L225,282.69l1.87,2.56Zm138-27,1.6-3.59,42.18,57.81c-20.62,25.89-52,40.89-84.91,40Zm7.26-17.46-1.51-2.12L282.1,222.79l71.12-7.87a105.16,105.16,0,0,1-1.57,81.88,103.93,103.93,0,0,1-6.47,12.43Zm-57-34.38-2.65.27,28.88-65.62a106.35,106.35,0,0,1,77.36,53.87Zm-29.84,30.44-.48,1.08L171.1,188c20.72-26.25,52.09-40.83,85.62-40.28Z" style="fill:#86cabe"/></svg>