<svg xmlns="http://www.w3.org/2000/svg" viewBox="0 0 100 100"><defs><style>.cls-1{fill:#0a3254;}.cls-2{fill:#fff;}.cls-3{fill:#e65133;}</style></defs><title>analyse-audits</title><g id="Layer_2" data-name="Layer 2"><g id="Layer_1-2" data-name="Layer 1"><circle class="cls-1" cx="50" cy="50" r="50"/><circle class="cls-2" cx="83.75" cy="87.5" r="10"/><circle class="cls-3" cx="83.75" cy="87.5" r="7.5"/><path class="cls-2" d="M88.39,86a.44.44,0,0,1-.14.27l-2,2L86.7,91a.34.34,0,0,1,0,.11.32.32,0,0,1-.06.2.19.19,0,0,1-.17.08.46.46,0,0,1-.22-.06l-2.51-1.32-2.51,1.32a.49.49,0,0,1-.22.06.17.17,0,0,1-.17-.08.32.32,0,0,1-.06-.2.54.54,0,0,1,0-.11l.48-2.79-2-2a.39.39,0,0,1-.14-.27c0-.14.1-.23.31-.26l2.8-.41,1.26-2.53c.07-.16.16-.23.27-.23s.2.07.27.23l1.26,2.53,2.8.41C88.29,85.78,88.39,85.87,88.39,86Z"/><path class="cls-2" d="M58.3,56.93l-5.69,3.29,8,13.88,5.68-3.3Zm-2-3.42-.3.17L55,52a15,15,0,0,0,2.73-18.38,14.86,14.86,0,0,0-20.35-5.47A15,15,0,0,0,32,48.52a14.79,14.79,0,0,0,9.06,7,14.54,14.54,0,0,0,9-.44l.9,1.57-.33.19,1.47,2.58,5.69-3.3Zm-14.67-.39a12.38,12.38,0,0,1-7.57-5.82,12.53,12.53,0,0,1,4.56-17.07A12.3,12.3,0,0,1,48.08,29a12.37,12.37,0,0,1,7.57,5.82,12.53,12.53,0,0,1-4.56,17.07A12.34,12.34,0,0,1,41.66,53.12Zm11,2.51-.81-1.4.45-.24c.41-.24.8-.5,1.18-.77l.83,1.45Z"/></g></g></svg>