<svg xmlns="http://www.w3.org/2000/svg" viewBox="0 0 100 100"><defs><style>.cls-1{fill:#0a3254;}.cls-2{fill:#fff;}.cls-3{fill:#e65133;}</style></defs><title>create-framework</title><g id="Layer_2" data-name="Layer 2"><g id="Layer_1-2" data-name="Layer 1"><circle class="cls-1" cx="50" cy="50" r="50"/><circle class="cls-2" cx="84.12" cy="87.5" r="10"/><circle class="cls-3" cx="84.12" cy="87.5" r="7.5"/><path class="cls-2" d="M88.76,86a.44.44,0,0,1-.14.27l-2,2L87.07,91s0,.06,0,.11a.32.32,0,0,1-.06.2.19.19,0,0,1-.17.08.53.53,0,0,1-.23-.06l-2.5-1.32-2.51,1.32a.49.49,0,0,1-.22.06.19.19,0,0,1-.18-.08.39.39,0,0,1,0-.2.54.54,0,0,1,0-.11l.48-2.79-2-2a.39.39,0,0,1-.14-.27c0-.14.1-.23.31-.26l2.8-.41,1.26-2.53c.07-.16.16-.23.27-.23s.2.07.27.23l1.26,2.53,2.8.41C88.66,85.78,88.76,85.87,88.76,86Z"/><path class="cls-2" d="M53.81,34.93l-2.29-.66-.34-.52a9.47,9.47,0,0,0,1-1.8c1-1.09.8-1.92.57-2.33.58-2.91-1.13-4.55-3.34-4.55-3.82,0-3.32,4.37-3.28,4.69-.19.46-.26,1.24.7,2.25a9.51,9.51,0,0,0,1,1.72h0l-.35.53-2.3.66c-.25.08-3.1,1.09-3.1,5.07a.34.34,0,0,0,.32.35h2.1v.47a.34.34,0,0,0,.32.35h9.35a.34.34,0,0,0,.32-.35v-.47H56.6a.34.34,0,0,0,.32-.35A5.06,5.06,0,0,0,53.81,34.93ZM35.54,68.34l-1.74-.5-.26-.4a6.19,6.19,0,0,0,.78-1.36c.76-.83.61-1.45.43-1.77.44-2.2-.85-3.44-2.53-3.44-2.89,0-2.51,3.31-2.48,3.55-.15.35-.2.94.53,1.71a7.1,7.1,0,0,0,.74,1.3h0l-.27.4-1.74.5a3.74,3.74,0,0,0-2.35,3.84.25.25,0,0,0,.24.26h1.6v.36a.25.25,0,0,0,.24.26h7.08a.26.26,0,0,0,.25-.26v-.36h1.59a.25.25,0,0,0,.24-.26A3.83,3.83,0,0,0,35.54,68.34Zm34.45,0-1.74-.5-.26-.4a6.19,6.19,0,0,0,.78-1.36c.76-.83.61-1.45.43-1.77.44-2.2-.85-3.44-2.53-3.44-2.89,0-2.51,3.31-2.48,3.55-.15.35-.2.94.53,1.71a6.56,6.56,0,0,0,.74,1.3h0l-.27.4-1.74.5a3.74,3.74,0,0,0-2.35,3.84.25.25,0,0,0,.24.26h1.6v.36a.25.25,0,0,0,.24.26h7.08a.26.26,0,0,0,.25-.26v-.36H72.1a.25.25,0,0,0,.24-.26A3.83,3.83,0,0,0,70,68.34Zm-17.2,0-1.73-.5-.26-.4a7.11,7.11,0,0,0,.78-1.36c.75-.83.6-1.45.43-1.77.43-2.2-.86-3.44-2.54-3.44-2.89,0-2.51,3.31-2.48,3.55-.14.35-.2.94.53,1.71a6.59,6.59,0,0,0,.75,1.3h0l-.26.4-1.74.5a3.75,3.75,0,0,0-2.36,3.84.26.26,0,0,0,.25.26h1.59v.36a.25.25,0,0,0,.24.26h7.09a.25.25,0,0,0,.24-.26v-.36h1.6a.25.25,0,0,0,.24-.26A3.84,3.84,0,0,0,52.79,68.34Z"/><polygon class="cls-2" points="50.48 48.24 50.48 44.64 48.52 44.64 48.52 48.24 31.29 48.24 31.29 56.73 33.25 56.73 33.25 50.2 48.52 50.2 48.52 56.73 50.48 56.73 50.48 50.2 65.75 50.2 65.75 56.73 67.71 56.73 67.71 48.24 50.48 48.24"/></g></g></svg>