<svg xmlns="http://www.w3.org/2000/svg" viewBox="0 0 100 100"><defs><style>.cls-1{fill:#0a3254;}.cls-2{fill:#fff;}.cls-3{fill:#e65133;}</style></defs><title>define-and-document-systems</title><g id="Layer_2" data-name="Layer 2"><g id="Layer_1-2" data-name="Layer 1"><circle class="cls-1" cx="50" cy="50" r="50"/><circle class="cls-2" cx="84.12" cy="87.5" r="10"/><circle class="cls-3" cx="84.12" cy="87.5" r="7.5"/><path class="cls-2" d="M88.76,86a.44.44,0,0,1-.14.27l-2,2L87.07,91s0,.06,0,.11a.32.32,0,0,1-.06.2.19.19,0,0,1-.17.08.53.53,0,0,1-.23-.06l-2.5-1.32-2.51,1.32a.49.49,0,0,1-.22.06.19.19,0,0,1-.18-.08.39.39,0,0,1,0-.2.54.54,0,0,1,0-.11l.48-2.79-2-2a.39.39,0,0,1-.14-.27c0-.14.1-.23.31-.26l2.8-.41,1.26-2.53c.07-.16.16-.23.27-.23s.2.07.27.23l1.26,2.53,2.8.41C88.66,85.78,88.76,85.87,88.76,86Z"/><path class="cls-2" d="M73.46,64,70,58.25V36.51A2.48,2.48,0,0,0,67.47,34H32.38a2.49,2.49,0,0,0-2.48,2.49V58.25l-3.6,5.9a2.52,2.52,0,0,0-.36,1.54V66a2.65,2.65,0,0,0,2.65,2.65H71.27A2.65,2.65,0,0,0,73.91,66s0-.4,0-.5A2.47,2.47,0,0,0,73.46,64ZM32.09,36.51a.3.3,0,0,1,.29-.31H67.47a.3.3,0,0,1,.3.31V58H32.09ZM71.73,66a.46.46,0,0,1-.46.47H28.59a.46.46,0,0,1-.46-.47,4,4,0,0,1,0-.67l3.68-6H68l3.61,5.9.06.09a.29.29,0,0,1,.06.17Zm-8.06-5.86.42.8h3l-.51-.8Zm-19.11,3-.64,2.12h11.9l-.64-2.12Z"/><path class="cls-2" d="M34.21,38.35V55.94H65.65V38.35Z"/></g></g></svg>