<svg xmlns="http://www.w3.org/2000/svg" viewBox="0 0 100 100"><defs><style>.cls-1{fill:#0a3254;}.cls-2{fill:#fff;}.cls-3{fill:#e65133;}</style></defs><title>publish-and-distribute</title><g id="Layer_2" data-name="Layer 2"><g id="Layer_1-2" data-name="Layer 1"><circle class="cls-1" cx="50" cy="50" r="50"/><circle class="cls-2" cx="84.12" cy="87.5" r="10"/><circle class="cls-3" cx="84.12" cy="87.5" r="7.5"/><path class="cls-2" d="M88.76,86a.44.44,0,0,1-.14.27l-2,2L87.07,91s0,.06,0,.11a.32.32,0,0,1-.06.2.19.19,0,0,1-.17.08.53.53,0,0,1-.23-.06l-2.5-1.32-2.51,1.32a.49.49,0,0,1-.22.06.19.19,0,0,1-.18-.08.39.39,0,0,1,0-.2.54.54,0,0,1,0-.11l.48-2.79-2-2a.39.39,0,0,1-.14-.27c0-.14.1-.23.31-.26l2.8-.41,1.26-2.53c.07-.16.16-.23.27-.23s.2.07.27.23l1.26,2.53,2.8.41C88.66,85.78,88.76,85.87,88.76,86Z"/><path class="cls-2" d="M65.42,58H62.3V40.35H58.88V58h-3.4V48.66H52.07V58h-3.4V46H45.26V58h-3.4V54.19H38.44V58H35.32a.74.74,0,1,0,0,1.47h30.1a.74.74,0,1,0,0-1.47Z"/><path class="cls-2" d="M72.9,62.33h-.71V35.65h.71a1.47,1.47,0,0,0,0-2.94H27.84a1.47,1.47,0,1,0,0,2.94h.71V62.33h-.71a1.47,1.47,0,0,0,0,2.94H44.37v.81a6,6,0,0,0,12,0v-.81H72.9a1.47,1.47,0,0,0,0-2.94ZM31,35.65H69.74V62.33H31ZM54.41,66.08a4,4,0,0,1-8.09,0v-.81h8.09Z"/></g></g></svg>