<svg xmlns="http://www.w3.org/2000/svg" viewBox="0 0 100 100"><defs><style>.cls-1{fill:#0a3254;}.cls-2{fill:#fff;}.cls-3{fill:#e65133;}</style></defs><title>verify-compliance</title><g id="Layer_2" data-name="Layer 2"><g id="Layer_1-2" data-name="Layer 1"><circle class="cls-1" cx="50" cy="50" r="50"/><circle class="cls-2" cx="83.75" cy="87.5" r="10"/><circle class="cls-3" cx="83.75" cy="87.5" r="7.5"/><path class="cls-2" d="M88.39,86a.44.44,0,0,1-.14.27l-2,2L86.7,91a.34.34,0,0,1,0,.11.32.32,0,0,1-.06.2.19.19,0,0,1-.17.08.46.46,0,0,1-.22-.06l-2.51-1.32-2.51,1.32a.49.49,0,0,1-.22.06.17.17,0,0,1-.17-.08.32.32,0,0,1-.06-.2.54.54,0,0,1,0-.11l.48-2.79-2-2a.39.39,0,0,1-.14-.27c0-.14.1-.23.31-.26l2.8-.41,1.26-2.53c.07-.16.16-.23.27-.23s.2.07.27.23l1.26,2.53,2.8.41C88.29,85.78,88.39,85.87,88.39,86Z"/><path class="cls-2" d="M66.56,50.22v-20H58.45v2.43h5.67V50.23a8.06,8.06,0,0,0,0,15.93v3.75H35.26V32.61H40.9V30.18H32.82V72.35H66.56V66.16a8.06,8.06,0,0,0,0-15.94Zm-1.2,13.61A5.64,5.64,0,1,1,71,58.19,5.64,5.64,0,0,1,65.36,63.83ZM58.52,42.08H47.8v1.46H58.52ZM57,51.21H47.8v1.46H57ZM55.5,60.33H47.8v1.46h7.7Z"/><path class="cls-2" d="M68.16,55.42l-4,4-2-1.9-1,1.06,3,2.88,5-5ZM40,54.12h4.41V49.66H40Zm0,9.13h4.41V58.79H40ZM40,45h4.41V40.54H40ZM53.58,28.27a3.89,3.89,0,1,0-7.77,0V29H42.94v7.1H56.45V29H53.58Zm-1.95.7H47.76v-.7a1.94,1.94,0,1,1,3.87,0Z"/></g></g></svg>