<svg xmlns="http://www.w3.org/2000/svg" viewBox="0 0 100 100"><defs><style>.cls-1{fill:#0a3254;}.cls-2{fill:#fff;}.cls-3{fill:#1ab211;}</style></defs><title>comprehensive-records</title><g id="Layer_2" data-name="Layer 2"><g id="Layer_1-2" data-name="Layer 1"><circle class="cls-1" cx="50" cy="50" r="50"/><circle class="cls-2" cx="82.12" cy="87.49" r="10"/><circle class="cls-3" cx="82.12" cy="87.49" r="7.5"/><path class="cls-2" d="M86.45,85.54a.49.49,0,0,1-.16.38l-4,4-.76.76a.49.49,0,0,1-.37.16.49.49,0,0,1-.38-.16L80,90l-2-2a.49.49,0,0,1-.16-.38.51.51,0,0,1,.16-.38l.76-.76a.51.51,0,0,1,.37-.15.52.52,0,0,1,.38.15l1.65,1.65,3.66-3.67a.52.52,0,0,1,.38-.15.51.51,0,0,1,.37.15l.76.76A.51.51,0,0,1,86.45,85.54Z"/><path class="cls-2" d="M68.76,35.66l-8.6-8.61a1,1,0,0,0-.71-.29h-21a1,1,0,0,0-1,1v6.5h-6.5a1,1,0,0,0-1,1V64.13l.46-.06,1.24-2.37.3-.58V36.26H50.14v7.49a1.85,1.85,0,0,0,.28,1,1.91,1.91,0,0,0,1.65.94h7.48V71.54h-19l-.14.13.22,1.42.07.45H60.54a1,1,0,0,0,1-1V66h6.5a1,1,0,0,0,1-1V36.37A1,1,0,0,0,68.76,35.66Zm-9.11-6.28,6.79,6.79H59.65Zm-7.5,14.3V36.87l6.66,6.68.13.13ZM67,64H61.55V43.87a.87.87,0,0,0-.06-.32,1,1,0,0,0-.23-.39l-8.6-8.61a1,1,0,0,0-.7-.29H39.42v-5.5H57.65v7.49a1.92,1.92,0,0,0,1.92,1.92H67Z"/><polygon class="cls-2" points="37.61 73.54 37.79 74.76 35.6 73.54 34.07 72.7 32.37 73.54 30.26 74.59 30.48 73.44 31.07 70.42 29.92 69.25 28.09 67.38 29.92 67.15 31.92 66.91 32.32 66.86 34.28 63.09 36.08 66.94 40.28 67.64 37.16 70.55 37.31 71.54 37.61 73.54"/><path class="cls-2" d="M44.24,65.63a.66.66,0,0,0,.51.26h1Z"/><path class="cls-2" d="M55.27,50.74H36.21a.6.6,0,0,0-.61.6.61.61,0,0,0,.61.6H55.27a.6.6,0,0,0,.6-.6A.6.6,0,0,0,55.27,50.74Zm0,7H36.21a.6.6,0,1,0,0,1.2H55.27a.6.6,0,1,0,0-1.2Zm0,7H44.75a.61.61,0,0,0-.61.61.54.54,0,0,0,.1.33h0a.66.66,0,0,0,.51.26H55.27a.61.61,0,0,0,0-1.21ZM43.76,43.76H36.21a.61.61,0,0,0-.61.6.6.6,0,0,0,.61.6h7.55a.6.6,0,0,0,.61-.6A.61.61,0,0,0,43.76,43.76Z"/><path class="cls-2" d="M62.47,57.49h-.92v1.2h.92a.6.6,0,0,0,0-1.2Zm0-7h-.92v1.21h.92a.61.61,0,0,0,0-1.21Zm0-7h-1a.92.92,0,0,1,.06.33v.87h.92a.59.59,0,0,0,.59-.6A.6.6,0,0,0,62.47,43.54Z"/></g></g></svg>