<svg xmlns="http://www.w3.org/2000/svg" viewBox="0 0 100 100"><defs><style>.cls-1{fill:#0a3254;}.cls-2{fill:#fff;}.cls-3{fill:#1ab211;}</style></defs><title>detailed-analysis</title><g id="Layer_2" data-name="Layer 2"><g id="Layer_1-2" data-name="Layer 1"><circle class="cls-1" cx="50" cy="50" r="50"/><path class="cls-2" d="M59.09,58,53.4,61.29l8,13.87,5.69-3.29Zm-2-3.43-.3.18-1-1.72a15,15,0,0,0,2.74-18.39,14.89,14.89,0,0,0-20.35-5.47,15,15,0,0,0-5.45,20.41,14.79,14.79,0,0,0,9.05,7,15.07,15.07,0,0,0,3.87.51,14.67,14.67,0,0,0,5.19-1l.9,1.56-.34.2,1.48,2.57,5.69-3.29Zm-14.67-.39a12.35,12.35,0,0,1-7.57-5.82,12.53,12.53,0,0,1,4.56-17.07,12.41,12.41,0,0,1,17,4.57,12.53,12.53,0,0,1-4.55,17.07A12.3,12.3,0,0,1,42.45,54.18Zm11,2.51-.8-1.4c.15-.08.3-.15.45-.24.41-.24.8-.49,1.18-.76l.83,1.44Z"/><path class="cls-2" d="M42.4,35.08a.74.74,0,0,1-.28,1,6.94,6.94,0,0,0-3.29,4.25,6.82,6.82,0,0,0,.71,5.26.75.75,0,0,1-.26,1,.86.86,0,0,1-.37.1.73.73,0,0,1-.64-.37,8.38,8.38,0,0,1,3.12-11.52A.74.74,0,0,1,42.4,35.08Z"/><circle class="cls-2" cx="83.91" cy="87.49" r="10"/><circle class="cls-3" cx="83.91" cy="87.49" r="7.5"/><path class="cls-2" d="M88.24,85.54a.49.49,0,0,1-.16.38l-4,4-.76.76a.49.49,0,0,1-.38.16.51.51,0,0,1-.38-.16L81.77,90l-2-2a.49.49,0,0,1-.16-.38.51.51,0,0,1,.16-.38l.75-.76a.55.55,0,0,1,.38-.15.52.52,0,0,1,.38.15l1.64,1.65,3.66-3.67a.54.54,0,0,1,.38-.15.52.52,0,0,1,.38.15l.76.76A.51.51,0,0,1,88.24,85.54Z"/></g></g></svg>