<svg xmlns="http://www.w3.org/2000/svg" viewBox="0 0 100 100"><defs><style>.cls-1{fill:#0a3254;}.cls-2{fill:#fff;}.cls-3{fill:#1ab211;}</style></defs><title>integrated-quality</title><g id="Layer_2" data-name="Layer 2"><g id="Layer_1-2" data-name="Layer 1"><circle class="cls-1" cx="50" cy="50" r="50"/><circle class="cls-2" cx="82.46" cy="87.49" r="10"/><circle class="cls-3" cx="82.46" cy="87.49" r="7.5"/><path class="cls-2" d="M86.79,85.54a.49.49,0,0,1-.16.38l-4,4-.76.76a.53.53,0,0,1-.38.16.55.55,0,0,1-.38-.16L80.31,90l-2-2a.52.52,0,0,1-.15-.38.54.54,0,0,1,.15-.38l.76-.76a.54.54,0,0,1,.38-.15.52.52,0,0,1,.38.15l1.64,1.65,3.66-3.67a.54.54,0,0,1,.38-.15.52.52,0,0,1,.38.15l.76.76A.51.51,0,0,1,86.79,85.54Z"/><path class="cls-2" d="M56.68,35.81A6.34,6.34,0,1,0,63,42.14,6.34,6.34,0,0,0,56.68,35.81Zm0,10.22a3.89,3.89,0,1,1,3.89-3.89A3.89,3.89,0,0,1,56.68,46ZM73.35,40l-.17-1.37L68.44,38a11.85,11.85,0,0,0-.6-1.42l2.85-3.81-.86-1.08a16.76,16.76,0,0,0-2.91-2.86L65.82,28,62.06,30.9a11.88,11.88,0,0,0-1.43-.58l-.69-4.72-1.37-.15a16.41,16.41,0,0,0-4.08,0l-1.37.18-.6,4.72A10.47,10.47,0,0,0,51.1,31l-3.82-2.86L46.2,29a16.88,16.88,0,0,0-2.87,2.92L42.5,33l2.92,3.76a11,11,0,0,0-.58,1.43l-4.72.68L40,40.25a17.49,17.49,0,0,0-.1,1.89A18.15,18.15,0,0,0,40,44.33l.18,1.37,4.73.6a12.57,12.57,0,0,0,.6,1.42l-2.85,3.81.86,1.08a16.47,16.47,0,0,0,2.92,2.86l1.09.84,3.77-2.92a10.44,10.44,0,0,0,1.43.58l.68,4.72,1.38.15a17.54,17.54,0,0,0,1.89.11,16.68,16.68,0,0,0,2.19-.15l1.37-.18.6-4.72a12.57,12.57,0,0,0,1.42-.6l3.82,2.85,1.08-.86A17.12,17.12,0,0,0,70,52.38l.84-1.1-2.92-3.76a14.75,14.75,0,0,0,.58-1.43l4.72-.68L73.39,44a17.43,17.43,0,0,0,.11-1.9A16.19,16.19,0,0,0,73.35,40ZM71,43.26l-4.42.64-.21.78a9.74,9.74,0,0,1-1,2.37l-.39.71,2.73,3.52A14.55,14.55,0,0,1,66,53.05l-3.58-2.67-.7.41a10.14,10.14,0,0,1-2.35,1l-.78.22-.56,4.42a13.81,13.81,0,0,1-2.49,0L54.92,52l-.78-.21a9.78,9.78,0,0,1-2.38-.95l-.7-.4-3.53,2.73a14.47,14.47,0,0,1-1.77-1.73l2.67-3.58L48,47.2a10.14,10.14,0,0,1-1-2.35l-.22-.78-4.43-.56c0-.46-.07-.92-.07-1.37s0-.73.05-1.11l4.42-.63.2-.79a10,10,0,0,1,1-2.37l.4-.71L45.6,33a13.85,13.85,0,0,1,1.74-1.77l3.57,2.67.7-.41a10,10,0,0,1,2.36-1l.78-.22.56-4.42a13.71,13.71,0,0,1,2.48,0l.64,4.41.79.21a9.56,9.56,0,0,1,2.37.95l.71.4,3.52-2.73a14.55,14.55,0,0,1,1.78,1.73l-2.68,3.58.42.7a9.76,9.76,0,0,1,1,2.35l.22.78,4.43.56a12.65,12.65,0,0,1,.07,1.36C71.05,42.51,71,42.88,71,43.26Z"/><path class="cls-2" d="M42.83,62.56l2.65-1.47-.08-.28a7.84,7.84,0,0,0-.35-1.1,9.34,9.34,0,0,0-.56-1.21l-.13-.25L41.42,59a7,7,0,0,0-1.31-1.36l.83-2.91-.25-.14a10,10,0,0,0-2.28-1l-.27-.09-1.57,2.58a7.47,7.47,0,0,0-1.89,0l-1.47-2.64-.28.07c-.38.1-.75.22-1.1.35a10.89,10.89,0,0,0-1.21.56l-.26.14.72,2.93a7.67,7.67,0,0,0-1.36,1.31l-2.91-.83-.14.25a10.53,10.53,0,0,0-1,2.28l-.08.27,2.59,1.57a7,7,0,0,0,0,1.88L25.5,65.64l.07.28c.1.38.22.75.35,1.1a10.89,10.89,0,0,0,.56,1.21l.14.25,2.94-.71a7.23,7.23,0,0,0,1.3,1.35L30,72l.24.14a10.26,10.26,0,0,0,2.28,1l.28.08,1.57-2.58a7.39,7.39,0,0,0,1.88,0l1.48,2.64.27-.07a10.91,10.91,0,0,0,1.1-.35,9.45,9.45,0,0,0,1.22-.56l.25-.13-.72-2.94A7,7,0,0,0,41.25,68l2.91.82.15-.25a10.42,10.42,0,0,0,1-2.27l.08-.28L42.8,64.44A7.39,7.39,0,0,0,42.83,62.56ZM36.69,66.5a3.36,3.36,0,1,1,1.93-4.33A3.37,3.37,0,0,1,36.69,66.5Z"/></g></g></svg>