<svg xmlns="http://www.w3.org/2000/svg" viewBox="0 0 100 100"><defs><style>.cls-1{fill:#0a3254;}.cls-2{fill:#fff;}.cls-3{fill:#1ab211;}</style></defs><title>overview-of-quality</title><g id="Layer_2" data-name="Layer 2"><g id="Layer_1-2" data-name="Layer 1"><circle class="cls-1" cx="50" cy="50" r="50"/><circle class="cls-2" cx="83.91" cy="87.49" r="10"/><circle class="cls-3" cx="83.91" cy="87.49" r="7.5"/><path class="cls-2" d="M88.24,85.54a.49.49,0,0,1-.16.38l-4,4-.76.76a.49.49,0,0,1-.38.16.51.51,0,0,1-.38-.16L81.77,90l-2-2a.49.49,0,0,1-.16-.38.51.51,0,0,1,.16-.38l.75-.76a.55.55,0,0,1,.38-.15.52.52,0,0,1,.38.15l1.64,1.65,3.66-3.67a.54.54,0,0,1,.38-.15.52.52,0,0,1,.38.15l.76.76A.51.51,0,0,1,88.24,85.54Z"/><path class="cls-2" d="M50.25,57.6l.63-.89-.4-1H48.62l-.4,1,.63.89Zm-1.35.52-.43,6.93h2.16l-.43-6.93Z"/><path class="cls-2" d="M61.79,62.5c-.91-6.09-4.65-7.42-5.06-7.54l-2.67-1-.94-1.1a8.64,8.64,0,0,0,.81-1.64,4.09,4.09,0,0,0,1.94-3.08c0-.32.08-1.08-.26-1.39a.71.71,0,0,0-.53-.17c.82-4.35-2-6.8-5.65-6.8-5.6,0-5.64,5.19-5.52,6.8a.7.7,0,0,0-.42.17c-.34.31-.3,1.07-.26,1.39a4.09,4.09,0,0,0,2,3.09l.05,0A8.9,8.9,0,0,0,46,52.82L45,54l-2.67,1c-.42.12-4.14,1.45-5.05,7.5a16.81,16.81,0,0,1-4.44-10h3.22a.28.28,0,0,0,.21-.46l-5.14-6a.27.27,0,0,0-.42,0l-5.12,6a.28.28,0,0,0,.21.46h3.51A20.51,20.51,0,0,0,44.38,70.71a20.15,20.15,0,0,0,5.17.67A20.52,20.52,0,0,0,67,61.38l-3.57-.94A15.61,15.61,0,0,1,61.79,62.5ZM54.67,47.68a1.83,1.83,0,0,1,.38-.23,3.38,3.38,0,0,1-.68,2.33A14.55,14.55,0,0,0,54.67,47.68Zm-10.62-.23a2.11,2.11,0,0,1,.46.29,12.82,12.82,0,0,0,.32,2.15A3.32,3.32,0,0,1,44.05,47.45Zm1.82-.38a9,9,0,0,0,5.48-2.51,4.39,4.39,0,0,0,1.93,1.63c0,.23,0,.46,0,.71,0,3.28-1.42,6.82-3.72,6.82S45.91,50.3,45.87,47.07ZM51.4,65.41H47.72L44.57,55.6l1.09-.4a.69.69,0,0,0,.28-.2l.92-1.08a3.7,3.7,0,0,0,5.38,0l.89,1a.63.63,0,0,0,.28.2l1,.38ZM73.25,49.72H69.74a20.5,20.5,0,0,0-15-18.21,20.15,20.15,0,0,0-5.17-.67,20.53,20.53,0,0,0-17.46,10l3.57.94a16.9,16.9,0,0,1,13.89-7.42,16.69,16.69,0,0,1,4.27.56,16.89,16.89,0,0,1,12.42,14.8H63a.28.28,0,0,0-.21.46l5.14,6a.27.27,0,0,0,.42,0l5.12-6A.28.28,0,0,0,73.25,49.72Z"/></g></g></svg>