<svg xmlns="http://www.w3.org/2000/svg" viewBox="0 0 100 100"><defs><style>.cls-1{fill:#0a3254;}.cls-2{fill:#fff;}.cls-3{fill:#e75133;}</style></defs><title>achieve-regulatory-compliance</title><g id="Layer_2" data-name="Layer 2"><g id="Layer_1-2" data-name="Layer 1"><circle class="cls-1" cx="50" cy="50" r="50"/><path class="cls-2" d="M63.38,47.89a1.22,1.22,0,0,0-1.11,1.31,1.4,1.4,0,0,1-.2,1,.91.91,0,0,1-.56.23h0a1.53,1.53,0,0,1-.66-.15c-.1,0-.29-.16-.28-.71a3.43,3.43,0,0,1,1.18-1.93l0,0C72,38.46,72.19,33.49,72.12,32.52A4.83,4.83,0,0,0,64,29,4.94,4.94,0,0,0,63,30.2a1.2,1.2,0,0,0-.81-.31H38.52a1.2,1.2,0,0,0-.8.31A4.76,4.76,0,0,0,36.77,29a4.82,4.82,0,0,0-8.15,3.57c-.07,1,.15,5.94,10.33,15.11l0,0a3.36,3.36,0,0,1,1.19,1.93c0,.55-.18.66-.29.71a1.45,1.45,0,0,1-.65.15.91.91,0,0,1-.56-.23,1.4,1.4,0,0,1-.2-1,1.21,1.21,0,0,0-2.42-.2,3.6,3.6,0,0,0,.86,2.89,3.27,3.27,0,0,0,2.32,1h.06A3.86,3.86,0,0,0,41,52.44a3.11,3.11,0,0,0,.86-.7,10.62,10.62,0,0,0,1.5,1.8c.94.88,1.88,1.7,2.81,2.45l1,2V62.1a4.23,4.23,0,0,0-1,1.95h-3a1.21,1.21,0,0,0-1.21,1.21,1.22,1.22,0,0,0,1,1.19v6.27a1.21,1.21,0,0,0,.22,2.4h14.6a1.21,1.21,0,0,0,.22-2.4V66.45a1.22,1.22,0,0,0,1-1.19,1.21,1.21,0,0,0-1.21-1.21h-3a4.32,4.32,0,0,0-1.05-1.95V58l1-2c.93-.75,1.87-1.57,2.8-2.45a10.66,10.66,0,0,0,1.51-1.8,3,3,0,0,0,.86.7,3.83,3.83,0,0,0,1.75.43h0a3.28,3.28,0,0,0,2.32-1A3.6,3.6,0,0,0,64.69,49,1.22,1.22,0,0,0,63.38,47.89ZM45.27,72.7V70H55.46v2.7Zm10.19-4.15H45.27V66.47H55.46ZM31,32.73a1.23,1.23,0,0,0,0-.2A2.41,2.41,0,0,1,33.39,30a2.38,2.38,0,0,1,1.72.66,2.44,2.44,0,0,1,.26,3.23,1.21,1.21,0,1,0,1.92,1.47l.2-.28a57.24,57.24,0,0,0,1.36,9.11C30.86,36.54,31,32.73,31,32.73ZM55.68,51.78c-1,.9-1.92,1.74-2.87,2.49a1.2,1.2,0,0,0-.34.43l-1.19,2.51a1.2,1.2,0,0,0-.12.52v4.89a1.18,1.18,0,0,0,.45.94,2,2,0,0,1,.32.33H48.81a2,2,0,0,1,.32-.33,1.18,1.18,0,0,0,.45-.94V57.73a1.2,1.2,0,0,0-.12-.52L48.27,54.7a1.2,1.2,0,0,0-.34-.43c-1-.75-1.91-1.59-2.87-2.49-4.39-4.14-5.16-15.69-5.3-19.47H61C60.84,36.09,60.07,47.64,55.68,51.78Zm7.57-16.66c.06.1.13.19.19.28a1.21,1.21,0,1,0,1.93-1.47,2.34,2.34,0,0,1-.49-1.53,2.41,2.41,0,1,1,4.81.13,1.23,1.23,0,0,0,0,.2s.12,3.85-7.82,11.5A57.24,57.24,0,0,0,63.25,35.12Z"/><path class="cls-2" d="M54.37,44.29v-.17l.19,0a1.61,1.61,0,0,0,1.25-2.32l-.09-.18.15-.11a1.61,1.61,0,0,0-.08-2.64l-.16-.1.08-.19a1.59,1.59,0,0,0-1.4-2.23h-.18l0-.2a1.61,1.61,0,0,0-.83-1.23,1.63,1.63,0,0,0-1.49,0l-.17.09-.12-.15a1.59,1.59,0,0,0-1.28-.65l-.26,0a1.72,1.72,0,0,0-1.11.76l-.08.11L48.6,35a1.69,1.69,0,0,0-.63-.13,1.62,1.62,0,0,0-1.17.51,1.6,1.6,0,0,0-.43,1v.18l-.18,0a1.61,1.61,0,0,0-.83.33,1.63,1.63,0,0,0-.43,2l.09.17-.16.12a1.59,1.59,0,0,0-.64,1.34,1.57,1.57,0,0,0,.73,1.29l.16.11-.08.18a1.6,1.6,0,0,0,.61,2,1.53,1.53,0,0,0,.78.25h.19l0,.19-2,4.25L47,48.27,48,50.62l2-4.17a1.77,1.77,0,0,0,.46.07h.05l.15,0,2,4.12,1.07-2.35,2.39.53-1.91-4A1.86,1.86,0,0,0,54.37,44.29Zm-1-1.16h0l-.06,1.1a.52.52,0,0,1-.17.37.5.5,0,0,1-.33.12.48.48,0,0,1-.2,0l-1-.45h0l-.6.94a.51.51,0,0,1-.41.23h0a.49.49,0,0,1-.4-.21l-.66-.9h0l-1,.51a.64.64,0,0,1-.23,0,.53.53,0,0,1-.24-.06.5.5,0,0,1-.26-.38l-.12-1.11h0l-1.1-.06a.57.57,0,0,1-.25-.08.5.5,0,0,1-.19-.62l.44-1s0,0,0,0l-.94-.61a.5.5,0,0,1-.22-.41.47.47,0,0,1,.2-.41l.9-.67v0l-.51-1a.51.51,0,0,1,.14-.63.52.52,0,0,1,.26-.1l1.1-.12v0l.06-1.09a.53.53,0,0,1,.13-.34.52.52,0,0,1,.37-.16.45.45,0,0,1,.19.05l1,.44h0l.58-.89a.6.6,0,0,1,.4-.27h0a.51.51,0,0,1,.4.2l.66.9h0l1-.51a.46.46,0,0,1,.23-.06.53.53,0,0,1,.24.06.52.52,0,0,1,.26.39l.12,1.11h0l1.11.06a.42.42,0,0,1,.24.07.52.52,0,0,1,.2.63l-.45,1s0,0,0,0l.93.61a.48.48,0,0,1,.23.4.49.49,0,0,1-.2.42l-.9.66v0l.51,1a.5.5,0,0,1,0,.46.49.49,0,0,1-.38.26Zm-3-5.52a2.76,2.76,0,1,0,2.75,2.76A2.76,2.76,0,0,0,50.37,37.61Zm1,4.29H49.33v-.55H50V39.68h-.66v-.52h.29a1,1,0,0,0,.23-.07A.42.42,0,0,0,50,39a.48.48,0,0,0,.06-.22h.69v2.62h.65Z"/><circle class="cls-2" cx="84.12" cy="87.5" r="10"/><circle class="cls-3" cx="84.12" cy="87.5" r="7.5"/><path class="cls-2" d="M88.76,86a.44.44,0,0,1-.14.27l-2,2L87.07,91s0,.06,0,.11a.32.32,0,0,1-.06.2.19.19,0,0,1-.17.08.53.53,0,0,1-.23-.06l-2.5-1.32-2.51,1.32a.49.49,0,0,1-.22.06.19.19,0,0,1-.18-.08.39.39,0,0,1,0-.2.54.54,0,0,1,0-.11l.48-2.79-2-2a.39.39,0,0,1-.14-.27c0-.14.1-.23.31-.26l2.8-.41,1.26-2.53c.07-.16.16-.23.27-.23s.2.07.27.23l1.26,2.53,2.8.41C88.66,85.78,88.76,85.87,88.76,86Z"/></g></g></svg>