<svg xmlns="http://www.w3.org/2000/svg" viewBox="0 0 100 100"><defs><style>.cls-1{fill:#0a3254;}.cls-2{fill:#fff;}.cls-3{fill:#1ab211;}</style></defs><title>automatic-reports</title><g id="Layer_2" data-name="Layer 2"><g id="Layer_1-2" data-name="Layer 1"><circle class="cls-1" cx="50" cy="50" r="50"/><circle class="cls-2" cx="82.46" cy="87.49" r="10"/><circle class="cls-3" cx="82.46" cy="87.49" r="7.5"/><path class="cls-2" d="M86.79,85.54a.49.49,0,0,1-.16.38l-4,4-.76.76a.53.53,0,0,1-.38.16.55.55,0,0,1-.38-.16L80.31,90l-2-2a.52.52,0,0,1-.15-.38.54.54,0,0,1,.15-.38l.76-.76a.54.54,0,0,1,.38-.15.52.52,0,0,1,.38.15l1.64,1.65,3.66-3.67a.54.54,0,0,1,.38-.15.52.52,0,0,1,.38.15l.76.76A.51.51,0,0,1,86.79,85.54Z"/><path class="cls-2" d="M29.48,37.35h-.65a1,1,0,0,0,0,2h.65v5.82h-.65a1,1,0,0,0,0,2h.65v5.82h-.65a1,1,0,0,0,0,2h.65v5.82h-.65a1,1,0,0,0,0,2h.65V74H68.13V26H29.48Zm2.45,25.3h.49a1.43,1.43,0,1,0,1-2.41,1.39,1.39,0,0,0-1,.45h-.49V54.87h.49a1.43,1.43,0,1,0,0-2h-.49V47.09h.49a1.43,1.43,0,1,0,0-2h-.49V39.31h.49a1.39,1.39,0,0,0,1,.45,1.43,1.43,0,1,0-1-2.41h-.49v-8.9H65.68v43.1H31.93ZM70.15,31.2v5.44h4.12V31.2Z"/><path class="cls-2" d="M70.15,39.15v5.44h4.12V39.15Zm0,13.4h4.12V47.1H70.15Z"/><path class="cls-2" d="M56.58,49.1,59,47.78l-.06-.25a9.37,9.37,0,0,0-.32-1,7.54,7.54,0,0,0-.5-1.09L58,45.24l-2.63.64a6.76,6.76,0,0,0-1.17-1.22l.74-2.6-.23-.13a9,9,0,0,0-2-.89L52.38,41,51,43.28a6,6,0,0,0-1.69,0L48,40.88l-.25.07a8.13,8.13,0,0,0-1,.31,10.55,10.55,0,0,0-1.09.5l-.22.12.64,2.63a7.11,7.11,0,0,0-1.22,1.17l-2.6-.74-.13.22a9.6,9.6,0,0,0-.9,2.05l-.07.24,2.32,1.41a5.91,5.91,0,0,0,0,1.68l-2.37,1.32.06.25c.09.34.2.67.32,1a7.44,7.44,0,0,0,.5,1.08l.12.23,2.63-.64A6.7,6.7,0,0,0,45.85,55l-.74,2.61.23.13a9.49,9.49,0,0,0,2,.89l.24.07L49,56.37a6.83,6.83,0,0,0,1.69,0L52,58.76l.25-.06a10.37,10.37,0,0,0,1-.31,11.62,11.62,0,0,0,1.09-.5l.22-.13L54,55.13A6.44,6.44,0,0,0,55.17,54l2.6.74.13-.22a9.52,9.52,0,0,0,.9-2l.07-.25-2.32-1.4A6,6,0,0,0,56.58,49.1Zm-5.51,3.53a3,3,0,1,1,1.74-3.88A3,3,0,0,1,51.07,52.63Z"/></g></g></svg>