<svg xmlns="http://www.w3.org/2000/svg" viewBox="0 0 100 100"><defs><style>.cls-1{fill:#0a3254;}.cls-2,.cls-5{fill:#fff;}.cls-3{fill:#1ab211;}.cls-4,.cls-6{fill:none;stroke-linecap:round;stroke-linejoin:round;}.cls-4,.cls-5,.cls-6{stroke:#fff;}.cls-5{stroke-miterlimit:10;}.cls-6{stroke-width:2px;}</style></defs><title>control-access-of-document-sections</title><g id="Layer_2" data-name="Layer 2"><g id="Layer_1-2" data-name="Layer 1"><circle class="cls-1" cx="50" cy="50" r="50"/><circle class="cls-2" cx="82.46" cy="87.49" r="10"/><circle class="cls-3" cx="82.46" cy="87.49" r="7.5"/><path class="cls-2" d="M86.79,85.54a.49.49,0,0,1-.16.38l-4,4-.76.76a.53.53,0,0,1-.38.16.55.55,0,0,1-.38-.16L80.31,90l-2-2a.52.52,0,0,1-.15-.38.54.54,0,0,1,.15-.38l.76-.76a.54.54,0,0,1,.38-.15.52.52,0,0,1,.38.15l1.64,1.65,3.66-3.67a.54.54,0,0,1,.38-.15.52.52,0,0,1,.38.15l.76.76A.51.51,0,0,1,86.79,85.54Z"/><path class="cls-2" d="M70,36.88,59.46,26.36A1.22,1.22,0,0,0,58.6,26H32.9a1.23,1.23,0,0,0-1.23,1.22V72.78A1.23,1.23,0,0,0,32.9,74H69.1a1.23,1.23,0,0,0,1.23-1.22v-35A1.22,1.22,0,0,0,70,36.88ZM58.84,29.2l8.29,8.31H58.84ZM34.12,71.55V28.45H56.39v9.14A2.37,2.37,0,0,0,58.75,40h9.13V71.55Z"/><rect class="cls-4" x="38.62" y="43.66" width="24.36" height="8.55"/><line class="cls-5" x1="38.62" y1="43.66" x2="62.98" y2="52.2"/><line class="cls-5" x1="38.62" y1="52.2" x2="62.98" y2="43.66"/><line class="cls-6" x1="38.62" y1="35.42" x2="48.53" y2="35.42"/><line class="cls-6" x1="38.62" y1="57.7" x2="62.98" y2="57.7"/><line class="cls-6" x1="38.62" y1="64.7" x2="62.98" y2="64.7"/></g></g></svg>