<svg xmlns="http://www.w3.org/2000/svg" viewBox="0 0 100 100">
  <title>real-time-collab</title>
  <g id="Layer_2" data-name="Layer 2">
    <g id="Layer_1-2" data-name="Layer 1">
      <g>
        <circle cx="50" cy="50" r="50" fill="#0a3254"/>
        <g>
          <circle cx="83.91" cy="87.49" r="10" fill="#fff"/>
          <circle cx="83.91" cy="87.49" r="7.5" fill="#1ab211"/>
          <path d="M88.24,85.54a.49.49,0,0,1-.16.38l-4,4-.76.76a.49.49,0,0,1-.38.16.51.51,0,0,1-.38-.16L81.77,90l-2-2a.49.49,0,0,1-.16-.38.51.51,0,0,1,.16-.38l.75-.76a.55.55,0,0,1,.38-.15.52.52,0,0,1,.38.15l1.64,1.65,3.66-3.67a.54.54,0,0,1,.38-.15.52.52,0,0,1,.38.15l.76.76A.51.51,0,0,1,88.24,85.54Z" fill="#fff"/>
        </g>
        <g>
          <path d="M61.51,45.66V36.55a1.65,1.65,0,0,0-1.65-1.65H27.66A1.65,1.65,0,0,0,26,36.55V61.27a1.65,1.65,0,0,0,1.66,1.65H40.55V65H36.13a.9.9,0,0,0,0,1.79H51.38a.9.9,0,0,0,0-1.79H47V62.92H59.86a1.65,1.65,0,0,0,1.65-1.65V53.48h-1.8v7.65H27.79V36.69H59.71v9Z" fill="#fff"/>
          <path d="M63.88,65H55.7a.9.9,0,1,1,0,1.79h8.18a.9.9,0,0,0,0-1.79ZM72.35,34.9H64.18a1.65,1.65,0,0,1,1.65,1.65v.14h6.38V61.13H65.83v.14a1.65,1.65,0,0,1-1.65,1.65h8.17A1.65,1.65,0,0,0,74,61.27V36.55A1.65,1.65,0,0,0,72.35,34.9Z" fill="#fff"/>
          <polygon points="63.97 53.12 63.97 50.92 57.24 50.92 57.24 53.12 53.09 49.57 57.24 46.02 57.24 48.23 63.97 48.23 63.97 46.02 68.12 49.57 63.97 53.12" fill="#fff"/>
        </g>
      </g>
    </g>
  </g>
</svg>
