<svg xmlns="http://www.w3.org/2000/svg" viewBox="0 0 100 100"><defs><style>.cls-1{fill:#0a3254;}.cls-2{fill:#fff;}.cls-3{fill:#1ab211;}</style></defs><title>redactions-categorized</title><g id="Layer_2" data-name="Layer 2"><g id="Layer_1-2" data-name="Layer 1"><circle class="cls-1" cx="50" cy="50" r="50"/><circle class="cls-2" cx="83.91" cy="87.49" r="10"/><circle class="cls-3" cx="83.91" cy="87.49" r="7.5"/><path class="cls-2" d="M88.24,85.54a.49.49,0,0,1-.16.38l-4,4-.76.76a.49.49,0,0,1-.38.16.51.51,0,0,1-.38-.16L81.77,90l-2-2a.49.49,0,0,1-.16-.38.51.51,0,0,1,.16-.38l.75-.76a.55.55,0,0,1,.38-.15.52.52,0,0,1,.38.15l1.64,1.65,3.66-3.67a.54.54,0,0,1,.38-.15.52.52,0,0,1,.38.15l.76.76A.51.51,0,0,1,88.24,85.54Z"/><path class="cls-2" d="M55.91,29a5.9,5.9,0,0,1,5.9,5.9V66.75L58,63l-2.12-2.12L53.8,63,50,66.76V34.9A11.82,11.82,0,0,0,48.44,29h7.47m0-3H38.7s-.2,0,0,0A8.9,8.9,0,0,1,47,34.9V74l8.91-8.9L64.81,74V34.9a8.89,8.89,0,0,0-8.9-8.9Z"/><path class="cls-2" d="M38.1,27.84c-3.6,0-6.13,2.56-6.91,6.91H45C44.45,30.66,41.71,27.84,38.1,27.84Z"/></g></g></svg>