<svg xmlns="http://www.w3.org/2000/svg" viewBox="0 0 36 36"><defs><style>.cls-1{fill:#fff;}.cls-2{fill:#0a3254;}</style></defs><title>ehs-management-icon</title><g id="Layer_2" data-name="Layer 2"><g id="Layer_1-2" data-name="Layer 1"><circle class="cls-1" cx="18" cy="18" r="18"/><path class="cls-2" d="M18,8.51a.15.15,0,0,1,.14.08L23.29,17l5,8.2a.2.2,0,0,1,0,.19.15.15,0,0,1-.14.08H7.83a.15.15,0,0,1-.14-.08.2.2,0,0,1,0-.19l5-8.2,5.15-8.43A.15.15,0,0,1,18,8.51M18,7a1.59,1.59,0,0,0-1.39.79l-5.16,8.43-5,8.2A1.66,1.66,0,0,0,7.83,27H28.17a1.66,1.66,0,0,0,1.4-2.52l-5-8.2L19.39,7.82A1.59,1.59,0,0,0,18,7Z"/><path class="cls-2" d="M17.24,19.58a2.33,2.33,0,0,1,.48-3.15,4.38,4.38,0,0,1,3.34-.87,7.68,7.68,0,0,0-1.16.69,8.33,8.33,0,0,0-1.44,1.34A8.57,8.57,0,0,0,17.24,19.58Z"/><path class="cls-2" d="M15,19.86a5.13,5.13,0,0,1,1.24.89A1.5,1.5,0,0,0,15.18,19a2.85,2.85,0,0,0-2.23.33,5,5,0,0,1,.87.12A5.13,5.13,0,0,1,15,19.86Z"/><path class="cls-2" d="M21.69,15.63a2.29,2.29,0,0,0-.3.45h0a4.38,4.38,0,0,0-.49,1.65,3,3,0,0,1-.79,2.11,1.82,1.82,0,0,1-2.4.2c-.06.15-.11.29-.16.43l0,.07,0,.06,0,.06,0,.07v.05a.24.24,0,0,0,0,.08l0,.05c0,.07,0,.13,0,.2v.31h0v.21s0,.07,0,.1v.16a2.71,2.71,0,0,0,0,.29h0a2.46,2.46,0,0,0,.12.59h0a1.68,1.68,0,0,0,.76,1l-.25.56a2.2,2.2,0,0,1-.75-.67,2.3,2.3,0,0,1-.2-.35l0-.06a3.19,3.19,0,0,1-.27-1.37v-.06h0l0,0,0,0v0l0,0,0,0-.07-.11,0,0,0,0,0,0,0,0,0,0,0,0,0,0-.21-.21a1.17,1.17,0,0,1-1.49.48c-.41-.16-.63-.38-1-1.06a3,3,0,0,0-.72-.87h0a1.22,1.22,0,0,0-.3-.19A4.84,4.84,0,0,1,16.22,21a1.72,1.72,0,0,0,.07-.21l.07.07a4.86,4.86,0,0,1,.38.41,6.09,6.09,0,0,1,.45-1.51.58.58,0,0,1,0-.14,2.85,2.85,0,0,0,.23.26A7.44,7.44,0,0,1,21.69,15.63Z"/></g></g></svg>