<svg xmlns="http://www.w3.org/2000/svg" viewBox="0 0 36 36"><defs><style>.cls-1{fill:#fff;}.cls-2{fill:#0a3254;}</style></defs><title>document-management-icon</title><g id="Layer_2" data-name="Layer 2"><g id="Layer_1-2" data-name="Layer 1"><circle class="cls-1" cx="18" cy="18" r="18"/><path class="cls-2" d="M26.92,14.6A18.9,18.9,0,0,0,25,12.41a19.76,19.76,0,0,0-2.19-1.92,3.51,3.51,0,0,0-2-.93H12.73A1.76,1.76,0,0,0,11,11.32V27.49a1.76,1.76,0,0,0,1.76,1.76H26.09a1.75,1.75,0,0,0,1.75-1.76V16.59A3.47,3.47,0,0,0,26.92,14.6Zm-4.7-2.8A23.41,23.41,0,0,1,24,13.4h0a18.39,18.39,0,0,1,1.59,1.79H22.22Zm4.22,15.69a.35.35,0,0,1-.35.35H12.73a.36.36,0,0,1-.36-.35V11.32a.36.36,0,0,1,.36-.35h8.08v4.92a.7.7,0,0,0,.71.7h4.92Z"/><path class="cls-2" d="M20,7.68h0a3.56,3.56,0,0,0-2-.93H9.91A1.75,1.75,0,0,0,8.16,8.51V24.68a1.75,1.75,0,0,0,1.4,1.72V8.51a.35.35,0,0,1,.35-.35h10.7C20.4,8,20.19,7.82,20,7.68Z"/><path class="cls-2" d="M15.19,20.11a.7.7,0,0,0,.7.7h7a.7.7,0,0,0,0-1.4h-7A.7.7,0,0,0,15.19,20.11Z"/><path class="cls-2" d="M22.92,22.22h-7a.7.7,0,0,0,0,1.4h7a.7.7,0,1,0,0-1.4Z"/><path class="cls-2" d="M22.92,25h-7a.71.71,0,0,0,0,1.41h7a.71.71,0,0,0,0-1.41Z"/></g></g></svg>