<svg xmlns="http://www.w3.org/2000/svg" viewBox="0 0 100 100">
  <title>automatic-comments-capture</title>
  <g id="Layer_2" data-name="Layer 2">
    <g id="Layer_1-2" data-name="Layer 1">
      <g>
        <circle cx="50" cy="50" r="50" fill="#0a3254"/>
        <g>
          <circle cx="82.12" cy="87.49" r="10" fill="#fff"/>
          <circle cx="82.12" cy="87.49" r="7.5" fill="#1ab211"/>
          <path d="M86.45,85.54a.49.49,0,0,1-.16.38l-4,4-.76.76a.49.49,0,0,1-.37.16.49.49,0,0,1-.38-.16L80,90l-2-2a.49.49,0,0,1-.16-.38.51.51,0,0,1,.16-.38l.76-.76a.51.51,0,0,1,.37-.15.52.52,0,0,1,.38.15l1.65,1.65,3.66-3.67a.52.52,0,0,1,.38-.15.51.51,0,0,1,.37.15l.76.76A.51.51,0,0,1,86.45,85.54Z" fill="#fff"/>
        </g>
        <g>
          <path d="M32.58,69.21a1.24,1.24,0,0,1-.49-.11,1.21,1.21,0,0,1-.72-1.27L32,63.15h-.4A5.55,5.55,0,0,1,26,57.62V35.69a5.55,5.55,0,0,1,5.55-5.54h36.9A5.55,5.55,0,0,1,74,35.69V57.62a5.55,5.55,0,0,1-5.55,5.53h-.29V60.71h.29a3.1,3.1,0,0,0,3.1-3.09V35.69a3.1,3.1,0,0,0-3.1-3.09H31.55a3.1,3.1,0,0,0-3.1,3.09V57.62a3.1,3.1,0,0,0,3.1,3.09h1.79a1.22,1.22,0,0,1,1.22,1.37l-.25,2,2.48-2.92a1.21,1.21,0,0,1,.93-.43h2.17v2.44h-1.6l-4.77,5.62A1.22,1.22,0,0,1,32.58,69.21Z" fill="#fff"/>
          <path d="M63.38,51.14H44.56a2.36,2.36,0,0,0-2.36,2.35V64.61A2.36,2.36,0,0,0,44.56,67H56.78L63,72.64,61.58,67h1.8a2.36,2.36,0,0,0,2.36-2.36V53.49A2.36,2.36,0,0,0,63.38,51.14ZM48,60.67a1.39,1.39,0,1,1,1.39-1.38A1.39,1.39,0,0,1,48,60.67Zm5.95,0a1.39,1.39,0,1,1,1.39-1.38A1.38,1.38,0,0,1,54,60.67Zm6,0a1.39,1.39,0,1,1,1.38-1.38A1.38,1.38,0,0,1,59.92,60.67Z" fill="#fff"/>
        </g>
      </g>
    </g>
  </g>
</svg>
