<svg xmlns="http://www.w3.org/2000/svg" viewBox="0 0 100 100"><defs><style>.cls-1{fill:#0a3254;}.cls-2{fill:#fff;}.cls-3{fill:#1ab211;}</style></defs><title>AS9102B-form</title><g id="Layer_2" data-name="Layer 2"><g id="Layer_1-2" data-name="Layer 1"><circle class="cls-1" cx="50" cy="50" r="50"/><circle class="cls-2" cx="82.12" cy="87.49" r="10"/><circle class="cls-3" cx="82.12" cy="87.49" r="7.5"/><path class="cls-2" d="M86.45,85.54a.49.49,0,0,1-.16.38l-4,4-.76.76a.49.49,0,0,1-.37.16.49.49,0,0,1-.38-.16L80,90l-2-2a.49.49,0,0,1-.16-.38.51.51,0,0,1,.16-.38l.76-.76a.51.51,0,0,1,.37-.15.52.52,0,0,1,.38.15l1.65,1.65,3.66-3.67a.52.52,0,0,1,.38-.15.51.51,0,0,1,.37.15l.76.76A.51.51,0,0,1,86.45,85.54Z"/><path class="cls-2" d="M43,46.8H63.12a.64.64,0,0,0,.63-.64.63.63,0,0,0-.63-.63H43a.63.63,0,0,0-.63.63A.64.64,0,0,0,43,46.8Zm20.09,6.08H43a.63.63,0,0,0-.63.63.64.64,0,0,0,.63.64H63.12a.64.64,0,0,0,.63-.64A.63.63,0,0,0,63.12,52.88Zm0,7.35H52a.64.64,0,0,0-.64.63.64.64,0,0,0,.64.64H63.12a.64.64,0,0,0,.63-.64A.63.63,0,0,0,63.12,60.23ZM43,39.45h8a.64.64,0,0,0,.64-.64.64.64,0,0,0-.64-.63H43a.63.63,0,0,0-.63.63A.64.64,0,0,0,43,39.45Z"/><path class="cls-2" d="M69.44,37.54l-9.06-9.08a1.1,1.1,0,0,0-.75-.31H37.46a1.07,1.07,0,0,0-1.06,1.06v28l2.12-.56V30.27h19.2v7.88a2,2,0,0,0,2,2h7.87V67.45H49.38l-.07,2.11H68.69a1.06,1.06,0,0,0,1.06-1.06V38.29A1.07,1.07,0,0,0,69.44,37.54Zm-9.61.54V30.91L67,38.08Z"/><path class="cls-2" d="M44.85,66.85l2.28-1.27-.06-.23a8.79,8.79,0,0,0-.3-.95,9.78,9.78,0,0,0-.48-1.05l-.12-.22-2.54.62a6.53,6.53,0,0,0-1.12-1.17l.71-2.5L43,60a9.26,9.26,0,0,0-2-.86L40.8,59l-1.35,2.23a6.36,6.36,0,0,0-1.63,0l-1.27-2.28-.24.07a7,7,0,0,0-1,.3,8.15,8.15,0,0,0-1,.48l-.21.12.61,2.53a6.25,6.25,0,0,0-1.17,1.13L31,62.85l-.12.22a8.17,8.17,0,0,0-.86,2l-.07.24,2.23,1.35a6.28,6.28,0,0,0,0,1.62L29.9,69.51l.06.24c.09.33.19.65.3,1a9.88,9.88,0,0,0,.49,1l.11.21,2.54-.61a6.57,6.57,0,0,0,1.13,1.17L33.81,75l.22.13A9,9,0,0,0,36,76l.24.08,1.35-2.23a6.36,6.36,0,0,0,1.63,0l1.27,2.27.24-.06a7,7,0,0,0,1-.3,8.82,8.82,0,0,0,1-.48l.22-.12-.62-2.53a6,6,0,0,0,1.17-1.13l2.51.72.12-.22a8.17,8.17,0,0,0,.86-2l.07-.24-2.23-1.35A6.35,6.35,0,0,0,44.85,66.85Zm-5.3,3.4a2.89,2.89,0,1,1,1.67-3.73A2.9,2.9,0,0,1,39.55,70.25Z"/></g></g></svg>