<svg xmlns="http://www.w3.org/2000/svg" viewBox="0 0 100 100"><defs><style>.cls-1{fill:#0a3254;}.cls-2{fill:#fff;}.cls-3{fill:#1ab211;}</style></defs><title>ballooning-2D-3D</title><g id="Layer_2" data-name="Layer 2"><g id="Layer_1-2" data-name="Layer 1"><circle class="cls-1" cx="50" cy="50" r="50"/><circle class="cls-2" cx="83.91" cy="87.49" r="10"/><circle class="cls-3" cx="83.91" cy="87.49" r="7.5"/><path class="cls-2" d="M88.24,85.54a.49.49,0,0,1-.16.38l-4,4-.76.76a.49.49,0,0,1-.38.16.51.51,0,0,1-.38-.16L81.77,90l-2-2a.49.49,0,0,1-.16-.38.51.51,0,0,1,.16-.38l.75-.76a.55.55,0,0,1,.38-.15.52.52,0,0,1,.38.15l1.64,1.65,3.66-3.67a.54.54,0,0,1,.38-.15.52.52,0,0,1,.38.15l.76.76A.51.51,0,0,1,88.24,85.54Z"/><path class="cls-2" d="M50.64,26a24,24,0,1,0,24,24A24,24,0,0,0,50.64,26ZM56.7,70.16c-.51.15-1,.28-1.53.4a15.88,15.88,0,0,0,1.76-2.84,35.27,35.27,0,0,0,3.62-.87A15.91,15.91,0,0,1,56.7,70.16Zm-16-3.31a34.61,34.61,0,0,0,3.62.86,15.1,15.1,0,0,0,1.76,2.85c-.52-.12-1-.25-1.53-.4A15.73,15.73,0,0,1,40.73,66.85Zm12.35,4.06c-.6.07-1.2.11-1.8.13V68.29A34.39,34.39,0,0,0,55.36,68,10.27,10.27,0,0,1,53.08,70.91ZM45.92,68a34.39,34.39,0,0,0,4.08.32V71c-.61,0-1.21-.06-1.8-.13A10.1,10.1,0,0,1,45.92,68ZM29.59,50c0-.19,0-.37,0-.56A12.84,12.84,0,0,0,34,53a30.49,30.49,0,0,0,.83,4.88,14.92,14.92,0,0,1-4.2-3.41,8.41,8.41,0,0,1-.8-1.14A20.8,20.8,0,0,1,29.59,50Zm5.78,3.69a31,31,0,0,0,5.9,1.89,46.1,46.1,0,0,0,.75,5,28.73,28.73,0,0,1-5.62-1.88A28.73,28.73,0,0,1,35.37,53.69Zm-.19-3.37a29.24,29.24,0,0,1,.23-3.66A23.69,23.69,0,0,0,41,48.89c0,.48,0,1,0,1.43,0,1.34,0,2.65.14,3.92a27.82,27.82,0,0,1-5.91-2C35.21,51.61,35.18,51,35.18,50.32Zm.19-14.79a21.54,21.54,0,0,1,2.56-2.3,2.88,2.88,0,0,0,.5,1.49,23.51,23.51,0,0,0-2.14,3.86,3.16,3.16,0,0,1-1.11-2.19A2.27,2.27,0,0,1,35.37,35.53Zm30.72.86A3.15,3.15,0,0,1,65,38.58a25.09,25.09,0,0,0-2.14-3.86,3.08,3.08,0,0,0,.5-1.49,22.35,22.35,0,0,1,2.56,2.3A2.45,2.45,0,0,1,66.09,36.39Zm0,13.93c0,.65,0,1.29-.06,1.93a28.5,28.5,0,0,1-5.92,2c.09-1.27.14-2.58.14-3.92,0-.48,0-1,0-1.43a23.78,23.78,0,0,0,5.64-2.23A31.29,31.29,0,0,1,66.09,50.32Zm-23.79,0c0-.37,0-.74,0-1.11a38.56,38.56,0,0,0,7.69.87v5.18a43.36,43.36,0,0,1-7.53-.75C42.36,53.15,42.3,51.75,42.3,50.32ZM39.19,33.11a1.78,1.78,0,0,1,.36-1,22.66,22.66,0,0,1,2.33-1.25,19.14,19.14,0,0,0-2.6,2.71A1.25,1.25,0,0,1,39.19,33.11Zm22.9,0a1.5,1.5,0,0,1-.09.46,19.14,19.14,0,0,0-2.6-2.71,21.52,21.52,0,0,1,2.32,1.25A1.79,1.79,0,0,1,62.09,33.11ZM49.45,29,50,29v3.6A16.16,16.16,0,0,1,46.28,32,7.15,7.15,0,0,1,49.45,29Zm2.37,0A7.06,7.06,0,0,1,55,32a16.06,16.06,0,0,1-3.71.52V29Zm-.54,4.85a17.83,17.83,0,0,0,4.36-.63A24.93,24.93,0,0,1,57,36.68a24.49,24.49,0,0,1-5.76.77Zm5.57-1.08a4.55,4.55,0,0,0,1.56-1.06,17.1,17.1,0,0,1,2.84,3,9,9,0,0,1-3,1.63A26.07,26.07,0,0,0,56.85,32.75Zm-.62-1.13a12.53,12.53,0,0,0-1.58-2.13,12.94,12.94,0,0,1,2.73,1.43A3.81,3.81,0,0,1,56.23,31.62Zm-9.61-2.13a13.06,13.06,0,0,0-1.57,2.13,3.88,3.88,0,0,1-1.16-.7A13.45,13.45,0,0,1,46.62,29.49Zm-2.18,3.24A25.12,25.12,0,0,0,43,36.29a8.76,8.76,0,0,1-3-1.63,17.22,17.22,0,0,1,2.85-3A4.54,4.54,0,0,0,44.44,32.73Zm1.21.45a17.4,17.4,0,0,0,4.35.65v3.62a24.34,24.34,0,0,1-5.76-.77A24,24,0,0,1,45.65,33.18Zm5.63,10.58a34.8,34.8,0,0,0,7.17-.82c.23,1.58.39,3.25.47,5a37.22,37.22,0,0,1-7.64.89Zm0-1.28V38.73a25.94,25.94,0,0,0,6.12-.83,37.93,37.93,0,0,1,.85,3.79A34,34,0,0,1,51.28,42.48Zm7.37-5A10.32,10.32,0,0,0,62,35.69a22.27,22.27,0,0,1,2,3.72,15.88,15.88,0,0,1-4.45,2C59.27,40,59,38.72,58.65,37.51ZM39.3,35.69a10.21,10.21,0,0,0,3.33,1.82,37,37,0,0,0-.86,3.85,15.75,15.75,0,0,1-4.45-2A21.55,21.55,0,0,1,39.3,35.69Zm4.58,2.21a25.94,25.94,0,0,0,6.12.83v3.75a34,34,0,0,1-7-.79A37.93,37.93,0,0,1,43.88,37.9ZM50,43.76v5a37.22,37.22,0,0,1-7.64-.89,48.18,48.18,0,0,1,.47-5A34.8,34.8,0,0,0,50,43.76Zm1.28,6.32A38.37,38.37,0,0,0,59,49.21c0,.37,0,.74,0,1.11,0,1.43-.06,2.83-.17,4.19a43.46,43.46,0,0,1-7.53.75Zm8.9-2.49c-.08-1.73-.24-3.39-.47-5a17.54,17.54,0,0,0,4.72-2,26.65,26.65,0,0,1,1.24,4.71A21.86,21.86,0,0,1,60.18,47.59Zm-18.61-5c-.23,1.58-.39,3.24-.48,5a21.94,21.94,0,0,1-5.48-2.26,27.53,27.53,0,0,1,1.23-4.71A17.62,17.62,0,0,0,41.57,42.62Zm1,13.22a44.41,44.41,0,0,0,7.41.69v5a38.55,38.55,0,0,1-6.59-.64A45.93,45.93,0,0,1,42.59,55.84Zm7.41,7V67a35.53,35.53,0,0,1-4.76-.43,27.57,27.57,0,0,1-1.5-4.35A39.37,39.37,0,0,0,50,62.81ZM51.28,67V62.81a39.47,39.47,0,0,0,6.26-.57A28.62,28.62,0,0,1,56,66.59,35.53,35.53,0,0,1,51.28,67Zm0-5.49v-5a44.19,44.19,0,0,0,7.4-.69,41.62,41.62,0,0,1-.82,5A38.43,38.43,0,0,1,51.28,61.53Zm8.72-6a30.52,30.52,0,0,0,5.9-1.89,27.67,27.67,0,0,1-1,5,28.63,28.63,0,0,1-5.61,1.88A48.74,48.74,0,0,0,60,55.58ZM67.25,53a12.84,12.84,0,0,0,4.43-3.6c0,.19,0,.37,0,.56a20.93,20.93,0,0,1-.28,3.38,8.9,8.9,0,0,1-.79,1.13,15,15,0,0,1-4.21,3.41A29.42,29.42,0,0,0,67.25,53ZM71.47,47c-.42,1.7-1.89,3.27-4.13,4.58q0-.61,0-1.23a30.31,30.31,0,0,0-.32-4.41,8.71,8.71,0,0,0,3-3.34c.17.19.32.37.46.56A20.33,20.33,0,0,1,71.47,47Zm-2.23-6.06a5.76,5.76,0,0,1-2.42,3.62,27.76,27.76,0,0,0-1.32-4.7,5.05,5.05,0,0,0,1.79-2.69,21,21,0,0,1,2,3A3.55,3.55,0,0,1,69.24,40.91ZM34,37.14a5,5,0,0,0,1.79,2.69,28.73,28.73,0,0,0-1.33,4.7A5.74,5.74,0,0,1,32,40.91a4.45,4.45,0,0,1,0-.73A21.08,21.08,0,0,1,34,37.14Zm-2.78,5.43a8.76,8.76,0,0,0,3,3.34,31.8,31.8,0,0,0-.31,4.41c0,.41,0,.82,0,1.23-2.23-1.31-3.71-2.88-4.12-4.59a21.2,21.2,0,0,1,.93-3.83C30.88,43,31,42.76,31.21,42.57Zm-.67,13.7a18.4,18.4,0,0,0,4.82,3.35,26.24,26.24,0,0,0,2,4.63A17.76,17.76,0,0,1,33,61.41,21,21,0,0,1,30.54,56.27ZM37,60.34A31.22,31.22,0,0,0,42.33,62a30.18,30.18,0,0,0,1.39,4.33,30,30,0,0,1-4.34-1.23A23.2,23.2,0,0,1,37,60.34Zm20.6,6A31.49,31.49,0,0,0,59,62a31.72,31.72,0,0,0,5.36-1.63,23.38,23.38,0,0,1-2.42,4.73A29.85,29.85,0,0,1,57.56,66.31Zm8.35-6.69a18,18,0,0,0,4.82-3.35,20.75,20.75,0,0,1-2.42,5.15,18.15,18.15,0,0,1-4.43,2.84A25.24,25.24,0,0,0,65.91,59.62ZM35.72,64.84a24.66,24.66,0,0,0,2.86,1.29,22.13,22.13,0,0,0,1.85,2.28A21.35,21.35,0,0,1,35.72,64.84ZM60.84,68.4a18.85,18.85,0,0,0,1.85-2.27,23.88,23.88,0,0,0,2.86-1.28A21,21,0,0,1,60.84,68.4Z"/></g></g></svg>