<svg xmlns="http://www.w3.org/2000/svg" viewBox="0 0 100 100"><defs><style>.cls-1{fill:#0a3254;}.cls-2{fill:#fff;}.cls-3{fill:#1ab211;}</style></defs><title>BOM</title><g id="Layer_2" data-name="Layer 2"><g id="Layer_1-2" data-name="Layer 1"><circle class="cls-1" cx="50" cy="50" r="50"/><circle class="cls-2" cx="83.91" cy="87.49" r="10"/><circle class="cls-3" cx="83.91" cy="87.49" r="7.5"/><path class="cls-2" d="M88.24,85.54a.49.49,0,0,1-.16.38l-4,4-.76.76a.49.49,0,0,1-.38.16.51.51,0,0,1-.38-.16L81.77,90l-2-2a.49.49,0,0,1-.16-.38.51.51,0,0,1,.16-.38l.75-.76a.55.55,0,0,1,.38-.15.52.52,0,0,1,.38.15l1.64,1.65,3.66-3.67a.54.54,0,0,1,.38-.15.52.52,0,0,1,.38.15l.76.76A.51.51,0,0,1,88.24,85.54Z"/><polygon class="cls-2" points="61.83 64.31 61.83 50.64 52.95 50.64 52.95 64.31 47.87 64.31 57.39 74.29 66.91 64.31 61.83 64.31"/><polygon class="cls-2" points="41.47 59 41.47 50.64 36.05 50.64 36.05 59 32.94 59 38.76 65.09 44.58 59 41.47 59"/><path class="cls-2" d="M34.47,32.06h3.24a9.78,9.78,0,0,1,1.44.08,2,2,0,0,1,1.47,1,1.82,1.82,0,0,1,.25,1,1.94,1.94,0,0,1-.3,1,1.87,1.87,0,0,1-.84.71,2.11,2.11,0,0,1,1.14.74,2,2,0,0,1,.4,1.23A2.28,2.28,0,0,1,41,38.9a2.14,2.14,0,0,1-.7.84,2.33,2.33,0,0,1-1.1.39c-.27,0-.93,0-2,0H34.47Zm1.64,1.35v1.88h1.07c.64,0,1,0,1.19,0A1.09,1.09,0,0,0,39,35a.85.85,0,0,0,.24-.63.9.9,0,0,0-.21-.62,1,1,0,0,0-.62-.28c-.16,0-.63,0-1.4,0Zm0,3.23v2.17h1.52a6.52,6.52,0,0,0,1.12-.05,1,1,0,0,0,.6-.32,1,1,0,0,0,.23-.69,1,1,0,0,0-.18-.62,1,1,0,0,0-.51-.37,5.47,5.47,0,0,0-1.46-.12Z"/><path class="cls-2" d="M44.14,36.17a5.09,5.09,0,0,1,.37-2.08A3.89,3.89,0,0,1,45.27,33a3.17,3.17,0,0,1,1-.73,4.52,4.52,0,0,1,1.75-.32A3.83,3.83,0,0,1,50.94,33,4.29,4.29,0,0,1,52,36.13,4.27,4.27,0,0,1,51,39.21a4.27,4.27,0,0,1-5.74,0A4.19,4.19,0,0,1,44.14,36.17Zm1.69-.06a3.05,3.05,0,0,0,.64,2.1,2.18,2.18,0,0,0,3.22,0,3.1,3.1,0,0,0,.63-2.12A3,3,0,0,0,49.71,34a2.26,2.26,0,0,0-3.26,0A3.07,3.07,0,0,0,45.83,36.11Z"/><path class="cls-2" d="M55.09,40.18V32.06h2.46L59,37.6l1.46-5.54h2.46v8.12H61.41V33.79L59.8,40.18H58.22l-1.6-6.39v6.39Z"/><path class="cls-2" d="M65.58,28.18V44.45H32.05V28.18H65.58m.75-1.89h-35a1.14,1.14,0,0,0-1.14,1.13V45.2a1.14,1.14,0,0,0,1.14,1.14h35a1.14,1.14,0,0,0,1.14-1.14V27.42a1.14,1.14,0,0,0-1.14-1.13Z"/></g></g></svg>