<svg xmlns="http://www.w3.org/2000/svg" viewBox="0 0 100 100"><defs><style>.cls-1{fill:#0a3254;}.cls-2{fill:#fff;}.cls-3{fill:#1ab211;}</style></defs><title>CMM</title><g id="Layer_2" data-name="Layer 2"><g id="Layer_1-2" data-name="Layer 1"><circle class="cls-1" cx="50" cy="50" r="50"/><circle class="cls-2" cx="83.91" cy="87.49" r="10"/><circle class="cls-3" cx="83.91" cy="87.49" r="7.5"/><path class="cls-2" d="M88.24,85.54a.49.49,0,0,1-.16.38l-4,4-.76.76a.49.49,0,0,1-.38.16.51.51,0,0,1-.38-.16L81.77,90l-2-2a.49.49,0,0,1-.16-.38.51.51,0,0,1,.16-.38l.75-.76a.55.55,0,0,1,.38-.15.52.52,0,0,1,.38.15l1.64,1.65,3.66-3.67a.54.54,0,0,1,.38-.15.52.52,0,0,1,.38.15l.76.76A.51.51,0,0,1,88.24,85.54Z"/><polygon class="cls-2" points="62.25 64.16 62.25 50.49 53.37 50.49 53.37 64.16 48.28 64.16 57.81 74.14 67.33 64.16 62.25 64.16"/><polygon class="cls-2" points="41.89 58.85 41.89 50.49 36.47 50.49 36.47 58.85 33.36 58.85 39.18 64.94 45 58.85 41.89 58.85"/><path class="cls-2" d="M39.77,37l1.59.51a3.6,3.6,0,0,1-1.22,2,3.81,3.81,0,0,1-4.82-.46,4.23,4.23,0,0,1-1-3,4.44,4.44,0,0,1,1-3.15,3.57,3.57,0,0,1,2.75-1.12,3.35,3.35,0,0,1,2.42.88,3.19,3.19,0,0,1,.83,1.5l-1.62.38a1.74,1.74,0,0,0-.6-1A1.71,1.71,0,0,0,38,33.17a1.88,1.88,0,0,0-1.47.65,3.2,3.2,0,0,0-.56,2.1,3.44,3.44,0,0,0,.55,2.19,1.8,1.8,0,0,0,1.45.66,1.62,1.62,0,0,0,1.12-.42A2.46,2.46,0,0,0,39.77,37Z"/><path class="cls-2" d="M44.56,40V31.91H47l1.48,5.54,1.45-5.54H52.4V40H50.88V33.64L49.27,40H47.69l-1.61-6.39V40Z"/><path class="cls-2" d="M55.82,40V31.91h2.46l1.47,5.54,1.46-5.54h2.46V40H62.15V33.64L60.53,40H59l-1.6-6.39V40Z"/><path class="cls-2" d="M66,28V44.3H32.47V28H66m.75-1.89h-35a1.14,1.14,0,0,0-1.14,1.13V45.05a1.14,1.14,0,0,0,1.14,1.14h35a1.14,1.14,0,0,0,1.14-1.14V27.27a1.14,1.14,0,0,0-1.14-1.13Z"/></g></g></svg>