<svg xmlns="http://www.w3.org/2000/svg" viewBox="0 0 100 100"><defs><style>.cls-1{fill:#0a3254;}.cls-2{fill:#fff;}.cls-3{fill:#1ab211;}</style></defs><title>non-conformance-report</title><g id="Layer_2" data-name="Layer 2"><g id="Layer_1-2" data-name="Layer 1"><circle class="cls-1" cx="50" cy="50" r="50"/><circle class="cls-2" cx="82.46" cy="87.49" r="10"/><circle class="cls-3" cx="82.46" cy="87.49" r="7.5"/><path class="cls-2" d="M86.79,85.54a.49.49,0,0,1-.16.38l-4,4-.76.76a.53.53,0,0,1-.38.16.55.55,0,0,1-.38-.16L80.31,90l-2-2a.52.52,0,0,1-.15-.38.54.54,0,0,1,.15-.38l.76-.76a.54.54,0,0,1,.38-.15.52.52,0,0,1,.38.15l1.64,1.65,3.66-3.67a.54.54,0,0,1,.38-.15.52.52,0,0,1,.38.15l.76.76A.51.51,0,0,1,86.79,85.54Z"/><path class="cls-2" d="M39.17,46.64H61.65a.71.71,0,0,0,0-1.42H39.17a.71.71,0,1,0,0,1.42Zm22.48,6.8H39.17a.71.71,0,1,0,0,1.42H61.65a.71.71,0,0,0,0-1.42Zm0,8.23H49.24a.71.71,0,0,0,0,1.42H61.65a.71.71,0,0,0,0-1.42ZM39.17,38.41h8.91a.71.71,0,0,0,0-1.42H39.17a.71.71,0,1,0,0,1.42Z"/><path class="cls-2" d="M68.72,36.27,58.58,26.12a1.21,1.21,0,0,0-.84-.35H32.93A1.18,1.18,0,0,0,31.75,27V59.07A5.2,5.2,0,0,1,34.11,58V28.14h21.5V37a2.28,2.28,0,0,0,2.28,2.28H66.7V69.75H45a5.23,5.23,0,0,1,.63,2.36H67.88a1.18,1.18,0,0,0,1.18-1.18V37.11A1.2,1.2,0,0,0,68.72,36.27ZM58,36.88v-8l8,8Z"/><path class="cls-2" d="M35.44,63.35h0m-.33.56,2.3,4,2.3,4h-9.2l2.3-4,2.3-4m0-2.27a1.51,1.51,0,0,0-1.31.76L31.18,67,28.55,71.5a1.51,1.51,0,0,0,1.31,2.27H40.37a1.52,1.52,0,0,0,1.31-2.27L39.05,67,36.42,62.4a1.51,1.51,0,0,0-1.31-.76Z"/></g></g></svg>