<svg xmlns="http://www.w3.org/2000/svg" viewBox="0 0 100 100"><defs><style>.cls-1{fill:#0a3254;}.cls-2{fill:#fff;}.cls-3{fill:#1ab211;}</style></defs><title>OCR</title><g id="Layer_2" data-name="Layer 2"><g id="Layer_1-2" data-name="Layer 1"><circle class="cls-1" cx="50" cy="50" r="50"/><circle class="cls-2" cx="83.91" cy="87.49" r="10"/><circle class="cls-3" cx="83.91" cy="87.49" r="7.5"/><path class="cls-2" d="M88.24,85.54a.49.49,0,0,1-.16.38l-4,4-.76.76a.49.49,0,0,1-.38.16.51.51,0,0,1-.38-.16L81.77,90l-2-2a.49.49,0,0,1-.16-.38.51.51,0,0,1,.16-.38l.75-.76a.55.55,0,0,1,.38-.15.52.52,0,0,1,.38.15l1.64,1.65,3.66-3.67a.54.54,0,0,1,.38-.15.52.52,0,0,1,.38.15l.76.76A.51.51,0,0,1,88.24,85.54Z"/><path class="cls-2" d="M65.93,32.93h-1V31.6H60.52v1.33h-1.9L54.75,27.5h-9l-3.88,5.43H40V31.6H35.55v1.33h-1a3.3,3.3,0,0,0-3.31,3.29V57.93a3.31,3.31,0,0,0,3.31,3.29H65.93a3.31,3.31,0,0,0,3.31-3.29V36.22A3.3,3.3,0,0,0,65.93,32.93ZM46.74,29.44h7l2.49,3.49h-12Zm20.56,11H59.14A10.74,10.74,0,0,1,61,45.5h2.6v2.29H61a10.82,10.82,0,1,1-19.66-7.38H33.19V36.22a1.36,1.36,0,0,1,1.37-1.36H65.93a1.37,1.37,0,0,1,1.37,1.36Zm-17.07-2.9a9.06,9.06,0,1,0,9.06,9.06A9,9,0,0,0,50.23,37.51Zm0,16.67a7.61,7.61,0,1,1,7.61-7.61A7.61,7.61,0,0,1,50.23,54.18Z"/><path class="cls-2" d="M50.23,40.61a6,6,0,1,0,6,6A6,6,0,0,0,50.23,40.61ZM39.6,36.8a1,1,0,1,0,1,1A1,1,0,0,0,39.6,36.8Z"/><path class="cls-2" d="M39.6,75.35H37.67l-.77-2H33.38l-.73,2H30.76l3.43-8.81h1.88Zm-3.27-3.48L35.11,68.6l-1.19,3.27Z"/><path class="cls-2" d="M46.7,66.54h3.52a9.82,9.82,0,0,1,1.56.09,2.4,2.4,0,0,1,.92.36,2.31,2.31,0,0,1,.68.74,2,2,0,0,1,.27,1,2,2,0,0,1-.34,1.13,2,2,0,0,1-.9.78,2.32,2.32,0,0,1,1.24.8,2.12,2.12,0,0,1,.43,1.33A2.51,2.51,0,0,1,53.8,74a2.35,2.35,0,0,1-.76.91,2.49,2.49,0,0,1-1.2.42c-.29,0-1,0-2.14.06h-3ZM48.48,68v2h1.17q1,0,1.29,0a1.19,1.19,0,0,0,.72-.31.94.94,0,0,0,.26-.69,1,1,0,0,0-.23-.66A1,1,0,0,0,51,68c-.17,0-.68,0-1.52,0Zm0,3.5v2.36h1.65a7.34,7.34,0,0,0,1.22-.06,1,1,0,0,0,.89-1.1,1.13,1.13,0,0,0-.19-.67,1.07,1.07,0,0,0-.56-.4,5.65,5.65,0,0,0-1.57-.13Z"/><path class="cls-2" d="M67.37,72.11l1.72.55a3.83,3.83,0,0,1-1.32,2.14,3.72,3.72,0,0,1-2.34.7,3.79,3.79,0,0,1-2.88-1.2A4.6,4.6,0,0,1,61.42,71a4.8,4.8,0,0,1,1.14-3.41,3.88,3.88,0,0,1,3-1.22,3.66,3.66,0,0,1,2.63,1,3.41,3.41,0,0,1,.9,1.62l-1.76.42a1.87,1.87,0,0,0-.65-1.08,1.84,1.84,0,0,0-1.21-.4,2,2,0,0,0-1.59.71,3.44,3.44,0,0,0-.61,2.27,3.68,3.68,0,0,0,.6,2.38,2,2,0,0,0,1.57.71,1.79,1.79,0,0,0,1.22-.45A2.62,2.62,0,0,0,67.37,72.11Z"/></g></g></svg>