<svg xmlns="http://www.w3.org/2000/svg" viewBox="0 0 100 100"><defs><style>.cls-1{fill:#0a3254;}.cls-2{fill:#fff;}.cls-3{fill:#1ab211;}</style></defs><title>visual-mistake-proofing</title><g id="Layer_2" data-name="Layer 2"><g id="Layer_1-2" data-name="Layer 1"><circle class="cls-1" cx="50" cy="50" r="50"/><circle class="cls-2" cx="83.91" cy="87.49" r="10"/><circle class="cls-3" cx="83.91" cy="87.49" r="7.5"/><path class="cls-2" d="M88.24,85.54a.49.49,0,0,1-.16.38l-4,4-.76.76a.49.49,0,0,1-.38.16.51.51,0,0,1-.38-.16L81.77,90l-2-2a.49.49,0,0,1-.16-.38.51.51,0,0,1,.16-.38l.75-.76a.55.55,0,0,1,.38-.15.52.52,0,0,1,.38.15l1.64,1.65,3.66-3.67a.54.54,0,0,1,.38-.15.52.52,0,0,1,.38.15l.76.76A.51.51,0,0,1,88.24,85.54Z"/><path class="cls-2" d="M31.86,52H48V50.53H31.86Zm0,9.7H48V60.22H31.86Zm0-4.85H48V55.38H31.86ZM67,38.5H31.86v9.06H67Zm-.41,26.79L63.68,67l4,7,2.88-1.66Zm-1-1.73-2.88,1.67.75,1.3,2.88-1.66ZM66,54a6.92,6.92,0,1,0-2.53,9.48A6.91,6.91,0,0,0,66,54ZM55.67,60a5,5,0,1,1,6.84,1.84A5,5,0,0,1,55.67,60Z"/><path class="cls-2" d="M70.75,26.09H28.08a2.67,2.67,0,0,0-2.67,2.65V66.59a2.67,2.67,0,0,0,2.67,2.65H58.66a1.21,1.21,0,0,0,0-2.42H28.08a.23.23,0,0,1-.24-.23v-32H71V67.07a1.21,1.21,0,1,0,2.42,0V28.74A2.66,2.66,0,0,0,70.75,26.09Zm-14.34,6.4A1.62,1.62,0,1,1,58,30.87,1.63,1.63,0,0,1,56.41,32.49Zm6,0a1.62,1.62,0,1,1,0-3.23,1.62,1.62,0,1,1,0,3.23Zm6,0A1.62,1.62,0,1,1,70,30.87,1.63,1.63,0,0,1,68.38,32.49Z"/></g></g></svg>