<svg xmlns="http://www.w3.org/2000/svg" viewBox="0 0 100 100"><defs><style>.cls-1{fill:#0a3254;}.cls-2{fill:#fff;}.cls-3{fill:#1ab211;}</style></defs><title>fmea</title><g id="Layer_2" data-name="Layer 2"><g id="Layer_1-2" data-name="Layer 1"><circle class="cls-1" cx="50" cy="50" r="50"/><circle class="cls-2" cx="83.91" cy="87.49" r="10"/><circle class="cls-3" cx="83.91" cy="87.49" r="7.5"/><path class="cls-2" d="M88.24,85.54a.49.49,0,0,1-.16.38l-4,4-.76.76a.49.49,0,0,1-.38.16.51.51,0,0,1-.38-.16L81.77,90l-2-2a.49.49,0,0,1-.16-.38.51.51,0,0,1,.16-.38l.75-.76a.55.55,0,0,1,.38-.15.52.52,0,0,1,.38.15l1.64,1.65,3.66-3.67a.54.54,0,0,1,.38-.15.52.52,0,0,1,.38.15l.76.76A.51.51,0,0,1,88.24,85.54Z"/><path class="cls-2" d="M28.12,56.81V44.34h8.55v2.11h-6V49.4h5.21v2.11H30.64v5.3Z"/><path class="cls-2" d="M38.71,56.81V44.34h3.77l2.27,8.5L47,44.34h3.78V56.81H48.42V47l-2.48,9.82H43.52L41.05,47v9.82Z"/><path class="cls-2" d="M53.26,56.81V44.34h9.25v2.11H55.78v2.76H62v2.1H55.78v3.4h7v2.1Z"/><path class="cls-2" d="M76.12,56.81H73.39L72.3,54h-5l-1,2.83H63.61l4.86-12.47h2.66Zm-4.63-4.93-1.72-4.63-1.68,4.63Z"/></g></g></svg>