<svg xmlns="http://www.w3.org/2000/svg" viewBox="0 0 100 100"><defs><style>.cls-1{fill:#0a3254;}.cls-2{fill:#fff;}.cls-3{fill:#1ab211;}</style></defs><title>lead-times-tasks</title><g id="Layer_2" data-name="Layer 2"><g id="Layer_1-2" data-name="Layer 1"><circle class="cls-1" cx="50" cy="50" r="50"/><circle class="cls-2" cx="82.12" cy="87.49" r="10"/><circle class="cls-3" cx="82.12" cy="87.49" r="7.5"/><path class="cls-2" d="M86.45,85.54a.49.49,0,0,1-.16.38l-4,4-.76.76a.49.49,0,0,1-.37.16.49.49,0,0,1-.38-.16L80,90l-2-2a.49.49,0,0,1-.16-.38.51.51,0,0,1,.16-.38l.76-.76a.51.51,0,0,1,.37-.15.52.52,0,0,1,.38.15l1.65,1.65,3.66-3.67a.52.52,0,0,1,.38-.15.51.51,0,0,1,.37.15l.76.76A.51.51,0,0,1,86.45,85.54Z"/><path class="cls-2" d="M61.77,54.65c-.63,0-1.26,0-1.9,0a3.87,3.87,0,0,1-3.5-2.68l-1.74-5.7,1.64-.49L58,51.42a2.16,2.16,0,0,0,2,1.49A33.09,33.09,0,0,0,73.2,51a71.37,71.37,0,0,1-6.88-4.2l-.8-.55.65-.72c1.87-2.08,2.74-5.71,3.09-7.63a29.76,29.76,0,0,1-10.21.93l-.73,0,.14-1.7.73.06A27.88,27.88,0,0,0,70,35.85l1.24-.4-.13,1.3c0,.25-.63,5.68-3.11,9.12,1.68,1.12,5.71,3.73,7.63,4.29l2.33.68-3.18,1.32A33.89,33.89,0,0,1,61.77,54.65Z"/><path class="cls-2" d="M45.21,73.21H45a3.24,3.24,0,0,1-3-2.33l-11.95-41A3.25,3.25,0,0,1,36.37,28l12,41a3.25,3.25,0,0,1-3.11,4.16Z"/><path class="cls-2" d="M61.87,46.51a1,1,0,0,1-1.15,1.27l-3-.57A42.94,42.94,0,0,0,41,47.37L40.6,45.7a44.43,44.43,0,0,1,17.46-.16l1.84.35L55.38,30.82a43.31,43.31,0,0,0-19.19-.19L35.82,29a47.05,47.05,0,0,1,20.35.29,1,1,0,0,1,.73.7Z"/></g></g></svg>