<svg xmlns="http://www.w3.org/2000/svg" viewBox="0 0 100 100"><defs><style>.cls-1{fill:#0a3254;}.cls-2{fill:#fff;}.cls-3{fill:#1ab211;}</style></defs><title>libraries</title><g id="Layer_2" data-name="Layer 2"><g id="Layer_1-2" data-name="Layer 1"><circle class="cls-1" cx="50" cy="50" r="50"/><circle class="cls-2" cx="82.46" cy="87.49" r="10"/><circle class="cls-3" cx="82.46" cy="87.49" r="7.5"/><path class="cls-2" d="M86.79,85.54a.49.49,0,0,1-.16.38l-4,4-.76.76a.53.53,0,0,1-.38.16.55.55,0,0,1-.38-.16L80.31,90l-2-2a.52.52,0,0,1-.15-.38.54.54,0,0,1,.15-.38l.76-.76a.54.54,0,0,1,.38-.15.52.52,0,0,1,.38.15l1.64,1.65,3.66-3.67a.54.54,0,0,1,.38-.15.52.52,0,0,1,.38.15l.76.76A.51.51,0,0,1,86.79,85.54Z"/><path class="cls-2" d="M30.64,58.09h2.85V35.71H30.64Zm14.08,0h2.86V35.71H44.72Zm17.47-23-2.79.63,5,21.82L67.16,57Z"/><path class="cls-2" d="M36.94,31.6H27.19A1.19,1.19,0,0,0,26,32.8V68.4a1.19,1.19,0,0,0,1.19,1.19h9.75a1.19,1.19,0,0,0,1.19-1.19V32.8A1.19,1.19,0,0,0,36.94,31.6ZM35.75,67.21H28.38V34h7.37Zm-3.75-3a1.66,1.66,0,1,0-1.67-1.66A1.66,1.66,0,0,0,32,64.22ZM51,31.6H41.27a1.19,1.19,0,0,0-1.19,1.2V68.4a1.19,1.19,0,0,0,1.19,1.19H51a1.19,1.19,0,0,0,1.19-1.19V32.8A1.2,1.2,0,0,0,51,31.6Zm-1.2,35.61H42.46V34h7.37Zm-3.75-3a1.66,1.66,0,1,0-1.67-1.66A1.66,1.66,0,0,0,46.08,64.22ZM74,66,66.06,31.25a1.2,1.2,0,0,0-.53-.74,1.16,1.16,0,0,0-.89-.15l-9.51,2.16a1.21,1.21,0,0,0-.9,1.43l7.91,34.72a1.19,1.19,0,0,0,1.16.92,1.24,1.24,0,0,0,.27,0l9.5-2.16A1.19,1.19,0,0,0,74,66ZM64.2,67l-7.38-32.4L64,32.94l7.37,32.4Zm2.86-3.72a1.66,1.66,0,1,0-2-1.25A1.65,1.65,0,0,0,67.06,63.26Z"/></g></g></svg>