<svg xmlns="http://www.w3.org/2000/svg" viewBox="0 0 100 100"><defs><style>.cls-1{fill:#0a3254;}.cls-2{fill:#fff;}.cls-3{fill:#1ab211;}</style></defs><title>ppap-report</title><g id="Layer_2" data-name="Layer 2"><g id="Layer_1-2" data-name="Layer 1"><circle class="cls-1" cx="50" cy="50" r="50"/><circle class="cls-2" cx="83.91" cy="87.49" r="10"/><circle class="cls-3" cx="83.91" cy="87.49" r="7.5"/><path class="cls-2" d="M88.24,85.54a.49.49,0,0,1-.16.38l-4,4-.76.76a.49.49,0,0,1-.38.16.51.51,0,0,1-.38-.16L81.77,90l-2-2a.49.49,0,0,1-.16-.38.51.51,0,0,1,.16-.38l.75-.76a.55.55,0,0,1,.38-.15.52.52,0,0,1,.38.15l1.64,1.65,3.66-3.67a.54.54,0,0,1,.38-.15.52.52,0,0,1,.38.15l.76.76A.51.51,0,0,1,88.24,85.54Z"/><path class="cls-2" d="M28.9,37.35h-.66a1,1,0,0,0,0,2h.66v5.82h-.66a1,1,0,0,0,0,2h.66v5.82h-.66a1,1,0,0,0,0,2h.66v5.82h-.66a1,1,0,0,0,0,2h.66V74H67.55V26H28.9Zm2.44,25.3h.49a1.45,1.45,0,0,0,1,.45,1.43,1.43,0,0,0,0-2.86,1.41,1.41,0,0,0-1,.45h-.49V54.87h.49a1.45,1.45,0,0,0,1,.45,1.43,1.43,0,0,0,0-2.86,1.45,1.45,0,0,0-1,.45h-.49V47.09h.49a1.45,1.45,0,0,0,1,.45,1.43,1.43,0,0,0,0-2.86,1.45,1.45,0,0,0-1,.45h-.49V39.31h.49a1.41,1.41,0,0,0,1,.45,1.43,1.43,0,0,0,0-2.86,1.45,1.45,0,0,0-1,.45h-.49v-8.9H65.1v43.1H31.34ZM69.56,31.2v5.44h4.13V31.2Z"/><path class="cls-2" d="M69.56,39.15v5.44h4.13V39.15Zm0,13.4h4.13V47.1H69.56ZM55,49.2l2-1.14L57,47.85c-.08-.29-.17-.58-.27-.85a7.81,7.81,0,0,0-.44-.93l-.1-.2-2.27.56a5.3,5.3,0,0,0-1-1l.64-2.24L53.34,43a8.07,8.07,0,0,0-1.76-.76l-.21-.07-1.21,2a5.48,5.48,0,0,0-1.46,0l-1.14-2-.21.06a6,6,0,0,0-.85.27,7.84,7.84,0,0,0-.94.43l-.19.1.55,2.27a5.53,5.53,0,0,0-1,1l-2.25-.64-.11.19a7.65,7.65,0,0,0-.77,1.76l-.06.21,2,1.21a5.87,5.87,0,0,0,0,1.45l-2,1.14.06.21c.08.3.17.58.27.85a7.84,7.84,0,0,0,.43.94l.11.19,2.27-.55a5.48,5.48,0,0,0,1,1l-.63,2.25.19.11a7.9,7.9,0,0,0,1.76.77l.21.06,1.21-2a5.49,5.49,0,0,0,1.46,0l1.13,2,.22-.05c.29-.08.58-.17.85-.27a7.07,7.07,0,0,0,.93-.44l.2-.1-.56-2.26a5.3,5.3,0,0,0,1.05-1L56,54l.11-.19a8,8,0,0,0,.77-1.75l.06-.22-2-1.21A5.41,5.41,0,0,0,55,49.2Zm-4.74,3a2.59,2.59,0,1,1,1.49-3.34A2.6,2.6,0,0,1,50.25,52.24Z"/></g></g></svg>