<svg xmlns="http://www.w3.org/2000/svg" viewBox="0 0 100 100"><defs><style>.cls-1{fill:#0a3254;}.cls-2{fill:#fff;}.cls-3{fill:#1ab211;}</style></defs><title>process-flow</title><g id="Layer_2" data-name="Layer 2"><g id="Layer_1-2" data-name="Layer 1"><circle class="cls-1" cx="50" cy="50" r="50"/><circle class="cls-2" cx="83.91" cy="87.49" r="10"/><circle class="cls-3" cx="83.91" cy="87.49" r="7.5"/><path class="cls-2" d="M88.24,85.54a.49.49,0,0,1-.16.38l-4,4-.76.76a.49.49,0,0,1-.38.16.51.51,0,0,1-.38-.16L81.77,90l-2-2a.49.49,0,0,1-.16-.38.51.51,0,0,1,.16-.38l.75-.76a.55.55,0,0,1,.38-.15.52.52,0,0,1,.38.15l1.64,1.65,3.66-3.67a.54.54,0,0,1,.38-.15.52.52,0,0,1,.38.15l.76.76A.51.51,0,0,1,88.24,85.54Z"/><path class="cls-2" d="M72,59.51H61.15a.73.73,0,0,0-.7.8v.74H55.31a.77.77,0,0,0,0-1.09.78.78,0,0,0-1.1,0l-1.35,1.36a.76.76,0,0,0,0,1.09l1.35,1.36a.78.78,0,0,0,.55.23.79.79,0,0,0,.55-1.34l0,0h5.18v.81a.69.69,0,0,0,.7.74H72a.83.83,0,0,0,.86-.74v-3.1A.87.87,0,0,0,72,59.51Z"/><path class="cls-2" d="M29.48,60.31v.74h-.77V44H42.24l0,0a.78.78,0,0,0,1.1,1.11l1.35-1.36a.76.76,0,0,0,0-1.09l-1.35-1.36a.78.78,0,0,0-1.1,0,.77.77,0,0,0,0,1.09H27.86a.74.74,0,0,0-.7.81V61.86a.69.69,0,0,0,.7.74h1.62v.81a.69.69,0,0,0,.7.74H41a.83.83,0,0,0,.85-.74v-3.1a.87.87,0,0,0-.85-.8H30.18A.73.73,0,0,0,29.48,60.31Z"/><path class="cls-2" d="M57.27,52.57a.77.77,0,0,0-.56-.75l-5.42-1.55a.75.75,0,0,0-.42,0l-5.42,1.55a.78.78,0,0,0-.56.75.77.77,0,0,0,.56.74l5.28,1.5a.72.72,0,0,0-.34.66v5a1.54,1.54,0,0,0,0,2.68v3l-.08,0a.8.8,0,0,0-1.11,0,.77.77,0,0,0,0,1.09l1.35,1.36a.76.76,0,0,0,1.09,0L53,67.24a.76.76,0,0,0,0-1.09.73.73,0,0,0-1,0v-3a1.55,1.55,0,0,0,0-2.68v-5a.82.82,0,0,0-.42-.66l5.21-1.5A.74.74,0,0,0,57.27,52.57Z"/><path class="cls-2" d="M55,68.8H47.21a2.32,2.32,0,0,0,0,4.64H55a2.32,2.32,0,0,0,0-4.64Z"/><path class="cls-2" d="M45.66,45.57h4.73v2l-.08,0a.8.8,0,0,0-1.11,0,.77.77,0,0,0,0,1.09L50.54,50a.79.79,0,0,0,1.09,0L53,48.66a.76.76,0,0,0,0-1.09.73.73,0,0,0-1,0v-2H56.5a.82.82,0,0,0,.85-.74v-3.1a.86.86,0,0,0-.85-.8H45.66a.73.73,0,0,0-.69.8v3.1A.68.68,0,0,0,45.66,45.57Z"/><path class="cls-2" d="M53,39.37a.76.76,0,0,0,0-1.09.73.73,0,0,0-1,0V36.89a1.55,1.55,0,0,0,0-2.68V30.09h3a2.33,2.33,0,0,0,0-4.65H47.21a2.33,2.33,0,0,0,0,4.65h3.18v4.12a1.54,1.54,0,0,0,0,2.68v1.42l-.08,0a.8.8,0,0,0-1.11,0,.77.77,0,0,0,0,1.09l1.35,1.36a.79.79,0,0,0,1.09,0Z"/><path class="cls-2" d="M44.11,51.76H35.6a.74.74,0,0,0-.7.81v4.32l-.07,0a.8.8,0,0,0-1.11,0,.76.76,0,0,0,0,1.09l1.34,1.36a.8.8,0,0,0,1.1,0L37.5,58a.77.77,0,0,0,0-1.09.74.74,0,0,0-1.06,0V53.31h7.66a.77.77,0,0,0,.78-.77A.78.78,0,0,0,44.11,51.76Z"/><path class="cls-2" d="M68.47,58a.77.77,0,0,0,0-1.09.74.74,0,0,0-1.06,0V52.57a.88.88,0,0,0-.85-.81H58.05a.78.78,0,0,0-.78.78.77.77,0,0,0,.78.77h7.82v3.58l-.07,0a.81.81,0,0,0-1.12,0,.77.77,0,0,0,0,1.09L66,59.31a.77.77,0,0,0,.55.22.75.75,0,0,0,.54-.22Z"/></g></g></svg>