<svg xmlns="http://www.w3.org/2000/svg" viewBox="0 0 100 100"><defs><style>.cls-1{fill:#0a3254;}.cls-2{fill:#fff;}.cls-3{fill:#1ab211;}</style></defs><title>project-management</title><g id="Layer_2" data-name="Layer 2"><g id="Layer_1-2" data-name="Layer 1"><circle class="cls-1" cx="50" cy="50" r="50"/><circle class="cls-2" cx="83.91" cy="87.49" r="10"/><circle class="cls-3" cx="83.91" cy="87.49" r="7.5"/><path class="cls-2" d="M88.24,85.54a.49.49,0,0,1-.16.38l-4,4-.76.76a.49.49,0,0,1-.38.16.51.51,0,0,1-.38-.16L81.77,90l-2-2a.49.49,0,0,1-.16-.38.51.51,0,0,1,.16-.38l.75-.76a.55.55,0,0,1,.38-.15.52.52,0,0,1,.38.15l1.64,1.65,3.66-3.67a.54.54,0,0,1,.38-.15.52.52,0,0,1,.38.15l.76.76A.51.51,0,0,1,88.24,85.54Z"/><path class="cls-2" d="M28.25,69.56l-.92-.92V53.73l2.33,2.33h17.1v3.59h7.43V56.06H69.56l3.76-3.75V68.64l-.93.92ZM48.48,57.93v-6h4v6Zm5.75-4.26V50.25h-7.5v3.42H30.32l-4-3.45V38.37l1.24-1.23H41.85l.09-.16a.84.84,0,0,0,.09-.37V32a1.28,1.28,0,0,1,1.28-1.29h14A1.29,1.29,0,0,1,58.62,32v4.58a.81.81,0,0,0,.09.37l.08.16h14.3l1.23,1.23V48.74l-5.48,4.93ZM45,33.17a.83.83,0,0,0-.83.83v2.61a.84.84,0,0,0,.09.37l.08.16h12L56.4,37a.74.74,0,0,0,.1-.37V34a.83.83,0,0,0-.83-.83Z"/></g></g></svg>