<?xml version="1.0" encoding="utf-8"?>
<!-- Generator: Adobe Illustrator 19.1.1, SVG Export Plug-In . SVG Version: 6.00 Build 0)  -->
<svg version="1.1" id="Layer_1" xmlns="http://www.w3.org/2000/svg" xmlns:xlink="http://www.w3.org/1999/xlink" x="0px" y="0px"
	 viewBox="0 0 40 40" style="enable-background:new 0 0 40 40;" xml:space="preserve">
<style type="text/css">
	.st0{fill:#3B5996;}
	.st1{clip-path:url(#SVGID_2_);}
	.st2{fill:#FFFFFF;}
</style>
<path class="st0" d="M20,40L20,40C9,40,0,31,0,20v0C0,9,9,0,20,0h0c11,0,20,9,20,20v0C40,31,31,40,20,40z"/>
<g>
	<defs>
		<path id="SVGID_1_" d="M25,40H15C6.7,40,0,33.3,0,25l0-10C0,6.7,6.7,0,15,0l10,0c8.3,0,15,6.7,15,15v10C40,33.3,33.3,40,25,40z"/>
	</defs>
	<clipPath id="SVGID_2_">
		<use xlink:href="#SVGID_1_"  style="overflow:visible;"/>
	</clipPath>
	<g class="st1">
		<path class="st2" d="M33.2,9.2v5.1h-3c-1.1,0-1.9,0.2-2.2,0.7s-0.6,1.2-0.6,2.1v3.7H33l-0.8,5.7h-4.9v14.7h-5.9V26.5h-4.9v-5.7
			h4.9v-4.2c0-2.4,0.7-4.3,2-5.6c1.3-1.3,3.1-2,5.4-2C30.7,9,32.2,9,33.2,9.2z"/>
	</g>
</g>
</svg>
