<?xml version="1.0" encoding="utf-8"?>
<!-- Generator: Adobe Illustrator 19.1.1, SVG Export Plug-In . SVG Version: 6.00 Build 0)  -->
<svg version="1.1" id="Layer_1" xmlns="http://www.w3.org/2000/svg" xmlns:xlink="http://www.w3.org/1999/xlink" x="0px" y="0px"
	 viewBox="0 0 40 40" style="enable-background:new 0 0 40 40;" xml:space="preserve">
<style type="text/css">
	.st0{fill:#D14836;}
	.st1{fill:#FFFFFF;}
</style>
<g>
	<path class="st0" d="M20,40L20,40C9,40,0,31,0,20v0C0,9,9,0,20,0h0c11,0,20,9,20,20v0C40,31,31,40,20,40z"/>
	<g>
		<path class="st1" d="M20.4,19.3c0,0.3,0.1,0.6,0.4,0.9c0.3,0.3,0.6,0.6,1,0.9c0.4,0.3,0.8,0.6,1.2,1c0.4,0.4,0.7,0.8,1,1.4
			c0.3,0.6,0.4,1.2,0.4,1.9c0,0.8-0.2,1.6-0.6,2.3c-0.6,1.1-1.6,1.9-2.8,2.4c-1.2,0.5-2.6,0.8-4,0.8c-1.2,0-2.3-0.2-3.3-0.6
			c-1-0.4-1.8-1-2.3-1.8C11.2,28,11,27.4,11,26.7c0-0.7,0.2-1.4,0.6-2c0.4-0.6,0.9-1.1,1.6-1.5c1.2-0.7,3-1.2,5.4-1.3
			c-0.3-0.4-0.5-0.7-0.6-1c-0.1-0.3-0.2-0.6-0.2-1c0-0.3,0.1-0.7,0.3-1.1c-0.4,0-0.7,0.1-0.9,0.1c-1.3,0-2.4-0.4-3.3-1.3
			c-0.9-0.9-1.4-2-1.4-3.3c0-0.7,0.2-1.4,0.5-2.1c0.3-0.7,0.8-1.3,1.3-1.8c0.7-0.6,1.5-1,2.4-1.3c0.9-0.3,1.9-0.4,2.9-0.4h5.6
			l-1.8,1.2h-1.8c0.7,0.6,1.2,1.2,1.5,1.8c0.3,0.6,0.5,1.3,0.5,2.1c0,0.6-0.1,1.2-0.3,1.7c-0.2,0.5-0.5,0.9-0.8,1.2
			c-0.3,0.3-0.6,0.6-0.9,0.9c-0.3,0.3-0.6,0.5-0.8,0.8C20.5,18.7,20.4,19,20.4,19.3z M18.5,29.7c0.5,0,1-0.1,1.5-0.2
			c0.5-0.1,0.9-0.3,1.3-0.5c0.4-0.2,0.7-0.6,1-1c0.2-0.4,0.4-0.9,0.4-1.5c0-0.2,0-0.4-0.1-0.7c-0.1-0.2-0.1-0.4-0.2-0.6
			c-0.1-0.2-0.2-0.3-0.4-0.6c-0.2-0.2-0.3-0.4-0.4-0.5c-0.1-0.1-0.3-0.3-0.5-0.5c-0.3-0.2-0.4-0.3-0.5-0.4c-0.1-0.1-0.3-0.2-0.6-0.4
			c-0.3-0.2-0.5-0.3-0.5-0.3c-0.1,0-0.4,0-0.6,0c-0.5,0-0.9,0-1.4,0.1c-0.5,0.1-0.9,0.2-1.4,0.3c-0.5,0.2-0.9,0.4-1.3,0.6
			c-0.4,0.3-0.7,0.6-0.9,1c-0.2,0.4-0.4,0.9-0.4,1.4c0,0.6,0.2,1.2,0.5,1.7c0.3,0.5,0.7,0.8,1.2,1.1c0.5,0.3,1,0.5,1.6,0.6
			C17.3,29.6,17.9,29.7,18.5,29.7z M18.4,18c0.3,0,0.7-0.1,1-0.2c0.4-0.1,0.7-0.3,0.9-0.6c0.5-0.5,0.7-1.2,0.7-2.1
			c0-0.5-0.1-1.1-0.2-1.7c-0.2-0.6-0.4-1.2-0.6-1.7c-0.3-0.6-0.7-1-1.1-1.4c-0.5-0.4-1-0.5-1.6-0.5c-0.4,0-0.7,0.1-1.1,0.3
			c-0.4,0.2-0.7,0.4-0.9,0.7c-0.4,0.5-0.6,1.2-0.6,2.1c0,0.4,0,0.8,0.1,1.3c0.1,0.5,0.2,0.9,0.4,1.4c0.2,0.5,0.4,0.9,0.7,1.2
			c0.3,0.4,0.6,0.7,1,0.9C17.6,17.9,18,18,18.4,18z M29.3,17.9h2.9v1.4h-2.9v2.9h-1.4v-2.9h-2.8v-1.4h2.8V15h1.4V17.9z"/>
	</g>
</g>
</svg>
