<?xml version="1.0" encoding="utf-8"?>
<!-- Generator: Adobe Illustrator 19.1.1, SVG Export Plug-In . SVG Version: 6.00 Build 0)  -->
<svg version="1.1" id="Layer_1" xmlns="http://www.w3.org/2000/svg" xmlns:xlink="http://www.w3.org/1999/xlink" x="0px" y="0px"
	 viewBox="0 0 40 40" style="enable-background:new 0 0 40 40;" xml:space="preserve">
<style type="text/css">
	.st0{fill:#CB201F;}
	.st1{fill:#FFFFFF;}
</style>
<g>
	<path class="st0" d="M20,40L20,40C9,40,0,31,0,20v0C0,9,9,0,20,0h0c11,0,20,9,20,20v0C40,31,31,40,20,40z"/>
	<g>
		<path class="st1" d="M29.8,24.3c0,2.1-0.1,3.7-0.3,4.7c-0.1,0.5-0.4,1-0.8,1.3c-0.4,0.4-0.8,0.6-1.4,0.6c-1.6,0.2-4.1,0.3-7.4,0.3
			s-5.8-0.1-7.4-0.3c-0.5-0.1-1-0.3-1.4-0.6c-0.4-0.4-0.7-0.8-0.8-1.3c-0.2-1-0.3-2.6-0.3-4.7c0-2.1,0.1-3.7,0.3-4.7
			c0.1-0.5,0.4-1,0.8-1.3c0.4-0.4,0.9-0.6,1.4-0.6c1.6-0.2,4.1-0.3,7.4-0.3s5.8,0.1,7.4,0.3c0.5,0.1,1,0.3,1.4,0.6
			c0.4,0.4,0.7,0.8,0.8,1.3C29.7,20.7,29.8,22.2,29.8,24.3z M14.2,21h1.4v-1.3h-4.2V21h1.4v7.6h1.3V21z M16.4,7.3h1.4l-1.6,5.3v3.6
			h-1.3v-3.6c-0.1-0.7-0.4-1.6-0.8-2.8c-0.3-0.9-0.6-1.8-0.9-2.5h1.4l1,3.5L16.4,7.3z M18,28.6h1.2V22H18v5.1
			c-0.3,0.4-0.5,0.6-0.8,0.6c-0.2,0-0.3-0.1-0.3-0.3c0,0,0-0.2,0-0.5V22h-1.2v5.2c0,0.4,0,0.8,0.1,1c0.1,0.3,0.4,0.5,0.8,0.5
			c0.4,0,0.9-0.3,1.4-0.8V28.6z M21.4,11.7v2.3c0,0.7-0.1,1.3-0.4,1.6c-0.3,0.5-0.8,0.7-1.4,0.7c-0.6,0-1.1-0.2-1.4-0.7
			c-0.3-0.3-0.4-0.9-0.4-1.6v-2.3c0-0.7,0.1-1.2,0.4-1.6c0.3-0.5,0.8-0.7,1.4-0.7c0.6,0,1.1,0.2,1.4,0.7
			C21.3,10.5,21.4,11,21.4,11.7z M20.2,14.3v-2.8c0-0.6-0.2-0.9-0.6-0.9c-0.4,0-0.6,0.3-0.6,0.9v2.8c0,0.6,0.2,0.9,0.6,0.9
			C20,15.2,20.2,14.9,20.2,14.3z M23.8,26.7V24c0-0.7,0-1.1-0.1-1.3c-0.2-0.5-0.5-0.8-1-0.8c-0.4,0-0.9,0.2-1.2,0.7v-2.9h-1.2v8.9
			h1.2V28c0.4,0.5,0.8,0.7,1.2,0.7c0.5,0,0.8-0.2,1-0.7C23.7,27.7,23.8,27.3,23.8,26.7z M22.6,23.9v2.8c0,0.6-0.2,0.9-0.5,0.9
			c-0.2,0-0.4-0.1-0.6-0.3v-4c0.2-0.2,0.4-0.3,0.6-0.3C22.4,23,22.6,23.3,22.6,23.9z M25.9,9.5v6.7h-1.2v-0.7
			c-0.5,0.6-0.9,0.8-1.4,0.8c-0.4,0-0.7-0.2-0.8-0.5c-0.1-0.2-0.1-0.5-0.1-1V9.5h1.2v4.9c0,0.3,0,0.5,0,0.5c0,0.2,0.1,0.3,0.3,0.3
			c0.2,0,0.5-0.2,0.8-0.6V9.5H25.9z M28.3,26.5v-0.2h-1.2c0,0.5,0,0.7,0,0.8c-0.1,0.3-0.2,0.5-0.5,0.5c-0.4,0-0.6-0.3-0.6-0.9v-1.2
			h2.4v-1.4c0-0.7-0.1-1.2-0.4-1.6c-0.3-0.5-0.8-0.7-1.4-0.7c-0.6,0-1.1,0.2-1.4,0.7c-0.3,0.3-0.4,0.8-0.4,1.6v2.3
			c0,0.7,0.1,1.2,0.4,1.6c0.3,0.5,0.8,0.7,1.4,0.7c0.6,0,1.1-0.2,1.4-0.7c0.2-0.2,0.3-0.5,0.3-0.7C28.3,27.2,28.3,27,28.3,26.5z
			 M27.1,23.9v0.6h-1.2v-0.6c0-0.6,0.2-0.9,0.6-0.9C26.9,23,27.1,23.3,27.1,23.9z"/>
	</g>
</g>
</svg>
